<svg xmlns="http://www.w3.org/2000/svg" viewBox="0 0 1024 1024"><g fill="none" stroke="#878789" stroke-width="2"><path d="M621.96 438.06q-29.32-.46-58.46 1.38-4.92.31-31.64 3.09-6.19.65-12.68 1.67-5.14.81-12.65 1.95-48.75 7.37-98.63 25.03-21.97 7.78-46.16 19.4c-21.67 10.41-36.93 17.44-57.17 25.44a1.46 1.46 0 0 0-.93 1.36v34.65a.36.36 0 0 0 .45.35c12.86-3.27 23.8-8.63 36.91-15.24q4.28-2.16 18.16-10.24 28.54-16.62 61.47-28 27.62-9.54 47.47-14.78 61.21-16.16 125.26-18.89c9.3-.4 19.05-.24 28.6-.13M296.105 511.328a1.44 1.44 0 0 0-1.442-1.437l-10.66.018a1.44 1.44 0 0 0-1.438 1.443l.09 51.46a1.44 1.44 0 0 0 1.442 1.437l10.66-.018a1.44 1.44 0 0 0 1.438-1.443l-.09-51.46M275.51 525.52a.65.65 0 0 0-.65-.65h-139.3a.65.65 0 0 0-.65.65v23.32a.65.65 0 0 0 .65.65h139.3a.65.65 0 0 0 .65-.65v-23.32" vector-effect="non-scaling-stroke"/></g><path fill="#4a4a4d" d="M621.96 438.06q-29.32-.46-58.46 1.38-4.92.31-31.64 3.09-6.19.65-12.68 1.67-5.14.81-12.65 1.95-48.75 7.37-98.63 25.03-21.97 7.78-46.16 19.4c-21.67 10.41-36.93 17.44-57.17 25.44a1.46 1.46 0 0 0-.93 1.36v34.65a.36.36 0 0 0 .45.35c12.86-3.27 23.8-8.63 36.91-15.24q4.28-2.16 18.16-10.24 28.54-16.62 61.47-28 27.62-9.54 47.47-14.78 61.21-16.16 125.26-18.89c9.3-.4 19.05-.24 28.6-.13l-.02 5.32a.54.53 0 0 1-.54.53q-11.65.02-20.43-.02c-3.25-.01-6.13 1.06-9.1 1.06-4.44 0-8.54-.08-13.47.27q-51.89 3.67-102.7 16.48-22.98 5.79-50.71 15.29-24.62 8.43-46.21 19.26-7.85 3.94-21.31 11.94c-8.95 5.32-20.77 11.2-27.92 14.59q-11.56 5.47-24.57 9.11a1.37 1.36-9.9 0 0-1 1.41c.31 4.27-1.68 10.43-6.95 10.54q-11.02.23-14.39-.06c-4.61-.41-6.46-4.01-6.74-8.29q-.31-4.93-.35-5.08a1.98 1.97 82.3 0 0-1.9-1.45q-95.81-.15-138.14.05-3.46.02-5.12-.72a3.82 3.81 11.8 0 1-2.26-3.45q-.16-13.3-.04-29.37.02-2.26.73-3.21a2.35 2.3-85 0 1 .76-.65q1.23-.66 4.42-.66 74.21.07 139.71-.01a1.25 1.25 0 0 0 1.25-1.22c.06-3.11.24-8.59 2.68-11.09q2.01-2.06 5.2-2.54 4.18-.65 14.65-.01a2.47 2.35-27.3 0 1 1.09.32c2.76 1.53 3.14 2.93 4.72 5.1a1.38 1.38 0 0 0 1.63.47c14.4-5.76 24.76-10.05 39.27-17.13q18.57-9.07 25.18-12.03 49.13-21.97 101.87-33.57Q513.24 437.04 553 434q7.72-.58 18.01-1.23c17.24-1.07 34.66-.81 50.31-.67a.58.57 89.5 0 1 .57.57l.07 5.39Zm-325.855 73.268a1.44 1.44 0 0 0-1.442-1.437l-10.66.018a1.44 1.44 0 0 0-1.438 1.443l.09 51.46a1.44 1.44 0 0 0 1.442 1.437l10.66-.018a1.44 1.44 0 0 0 1.438-1.443l-.09-51.46ZM275.51 525.52a.65.65 0 0 0-.65-.65h-139.3a.65.65 0 0 0-.65.65v23.32a.65.65 0 0 0 .65.65h139.3a.65.65 0 0 0 .65-.65v-23.32Z"/><path fill="#c4c3c4" d="M621.96 438.06v27.04c-9.55-.11-19.3-.27-28.6.13q-64.05 2.73-125.26 18.89-19.85 5.24-47.47 14.78-32.93 11.38-61.47 28-13.88 8.08-18.16 10.24c-13.11 6.61-24.05 11.97-36.91 15.24a.36.36 0 0 1-.45-.35v-34.65a1.46 1.46 0 0 1 .93-1.36c20.24-8 35.5-15.03 57.17-25.44q24.19-11.62 46.16-19.4 49.88-17.66 98.63-25.03 7.51-1.14 12.65-1.95 6.49-1.02 12.68-1.67 26.72-2.78 31.64-3.09 29.14-1.84 58.46-1.38Z"/><rect width="13.54" height="54.34" x="-6.77" y="-27.17" fill="#c4c3c4" rx="1.44" transform="rotate(-.1 307863.055 -165533.95)"/><rect width="140.6" height="24.62" x="134.91" y="524.87" fill="#c4c3c4" rx=".65"/></svg>