<?xml version="1.0" encoding="UTF-8" standalone="no"?>
<!DOCTYPE svg PUBLIC "-//W3C//DTD SVG 1.1//EN" "http://www.w3.org/Graphics/SVG/1.1/DTD/svg11.dtd">
<svg xmlns="http://www.w3.org/2000/svg" version="1.1" viewBox="0.00 0.00 400.00 100.00">
<g stroke-width="2.00" fill="none" stroke-linecap="butt">
<path stroke="#444444" vector-effect="non-scaling-stroke" d="
  M 199.00 31.82
  A 0.82 0.82 0.0 0 0 198.18 31.00
  L 181.82 31.00
  A 0.82 0.82 0.0 0 0 181.00 31.82
  L 181.00 68.20
  A 0.82 0.82 0.0 0 0 181.82 69.02
  L 198.18 69.02
  A 0.82 0.82 0.0 0 0 199.00 68.20
  L 199.00 31.82"
/>
<path stroke="#505050" vector-effect="non-scaling-stroke" d="
  M 178.99 41.98
  A 1.02 1.02 0.0 0 0 177.97 40.96
  L 2.01 40.96
  A 1.02 1.02 0.0 0 0 0.99 41.98
  L 0.99 57.98
  A 1.02 1.02 0.0 0 0 2.01 59.00
  L 177.97 59.00
  A 1.02 1.02 0.0 0 0 178.99 57.98
  L 178.99 41.98"
/>
<path stroke="#505050" vector-effect="non-scaling-stroke" d="
  M 398.96 47.17
  A 1.19 1.19 0.0 0 0 397.77 45.98
  L 202.11 45.98
  A 1.19 1.19 0.0 0 0 200.92 47.17
  L 200.92 52.83
  A 1.19 1.19 0.0 0 0 202.11 54.02
  L 397.77 54.02
  A 1.19 1.19 0.0 0 0 398.96 52.83
  L 398.96 47.17"
/>
</g>
<path fill="#000000" d="
  M 400.00 44.03
  L 400.00 55.90
  L 201.50 55.98
  A 0.50 0.49 -90.0 0 0 201.01 56.48
  L 201.01 69.98
  A 1.01 1.01 0.0 0 1 200.00 70.99
  L 179.62 70.99
  A 0.60 0.60 0.0 0 1 179.02 70.39
  L 179.02 61.74
  A 0.78 0.78 0.0 0 0 178.24 60.96
  L 0.00 61.00
  L 0.00 39.02
  L 178.44 38.99
  A 0.58 0.57 -0.0 0 0 179.02 38.42
  L 179.02 29.63
  A 0.63 0.63 0.0 0 1 179.65 29.00
  L 199.97 29.00
  A 1.03 1.02 -0.0 0 1 201.00 30.02
  L 201.00 43.39
  A 0.60 0.60 0.0 0 0 201.60 43.99
  L 400.00 44.03
  Z
  M 199.00 31.82
  A 0.82 0.82 0.0 0 0 198.18 31.00
  L 181.82 31.00
  A 0.82 0.82 0.0 0 0 181.00 31.82
  L 181.00 68.20
  A 0.82 0.82 0.0 0 0 181.82 69.02
  L 198.18 69.02
  A 0.82 0.82 0.0 0 0 199.00 68.20
  L 199.00 31.82
  Z
  M 178.99 41.98
  A 1.02 1.02 0.0 0 0 177.97 40.96
  L 2.01 40.96
  A 1.02 1.02 0.0 0 0 0.99 41.98
  L 0.99 57.98
  A 1.02 1.02 0.0 0 0 2.01 59.00
  L 177.97 59.00
  A 1.02 1.02 0.0 0 0 178.99 57.98
  L 178.99 41.98
  Z
  M 398.96 47.17
  A 1.19 1.19 0.0 0 0 397.77 45.98
  L 202.11 45.98
  A 1.19 1.19 0.0 0 0 200.92 47.17
  L 200.92 52.83
  A 1.19 1.19 0.0 0 0 202.11 54.02
  L 397.77 54.02
  A 1.19 1.19 0.0 0 0 398.96 52.83
  L 398.96 47.17
  Z"
/>
<rect fill="#888888" x="181.00" y="31.00" width="18.00" height="38.02" rx="0.82"/>
<rect fill="#a0a0a0" x="0.99" y="40.96" width="178.00" height="18.04" rx="1.02"/>
<rect fill="#a0a0a0" x="200.92" y="45.98" width="198.04" height="8.04" rx="1.19"/>
</svg>
