<?xml version="1.0" encoding="UTF-8" standalone="no"?>
<!DOCTYPE svg PUBLIC "-//W3C//DTD SVG 1.1//EN" "http://www.w3.org/Graphics/SVG/1.1/DTD/svg11.dtd">
<svg xmlns="http://www.w3.org/2000/svg" version="1.1" viewBox="0.00 0.00 1024.00 1024.00">
<g stroke-width="2.00" fill="none" stroke-linecap="butt">
<path stroke="#033677" vector-effect="non-scaling-stroke" d="
  M 233.01 747.12
  Q 294.64 804.98 377.46 826.56
  Q 405.94 833.99 439.53 835.97
  Q 467.32 837.61 498.61 833.50
  Q 528.46 829.56 556.51 821.24
  C 605.28 806.79 650.10 781.22 689.11 748.16
  Q 696.66 741.77 707.39 731.17
  Q 719.05 719.64 724.77 713.23
  Q 781.72 649.39 808.80 567.83
  C 814.98 549.24 819.30 530.87 822.76 512.68
  Q 828.90 480.31 828.97 446.55
  Q 829.03 413.79 822.51 378.00
  C 809.15 304.77 773.28 236.00 720.69 182.92
  C 692.65 154.61 659.30 131.99 623.60 115.05
  Q 605.48 106.46 586.36 100.46
  Q 564.58 93.63 547.54 90.87
  C 508.24 84.50 467.81 84.09 428.93 91.07
  C 363.30 102.85 303.22 132.77 252.64 176.26
  Q 235.23 191.22 217.87 211.42
  C 185.25 249.36 159.71 291.87 142.88 338.61
  C 127.59 381.06 118.88 425.86 118.29 470.98
  Q 117.88 503.40 121.91 532.65
  Q 129.05 584.42 152.17 634.74
  Q 181.64 698.88 233.01 747.12"
/>
<path stroke="#001232" vector-effect="non-scaling-stroke" d="
  M 518.96 847.08
  Q 519.40 847.19 522.76 846.93
  Q 530.14 846.37 543.52 845.45
  Q 555.69 844.61 570.94 841.91
  Q 606.36 835.64 640.31 823.03
  Q 670.08 811.97 696.31 795.55
  Q 725.15 777.50 746.72 758.68
  C 777.28 732.02 803.25 699.59 824.91 663.90
  C 857.39 610.39 875.47 550.77 879.48 488.65
  Q 880.16 478.04 880.45 469.84
  C 881.03 453.44 880.01 437.72 878.35 421.31
  Q 876.59 403.82 874.37 391.82
  Q 866.26 348.06 847.86 305.89
  C 835.28 277.09 818.06 249.19 799.15 225.13
  Q 779.34 199.93 754.45 177.70
  C 738.86 163.78 720.30 151.66 701.18 140.39
  A 0.20 0.20 0.0 0 0 700.91 140.45
  L 700.90 140.46
  A 0.29 0.28 -52.5 0 0 700.95 140.85
  Q 711.91 149.72 712.78 150.48
  Q 730.52 166.07 746.39 183.40
  C 773.22 212.70 794.43 246.63 811.08 283.19
  Q 835.18 336.10 842.66 390.44
  Q 843.60 397.24 843.95 401.64
  C 844.67 410.70 845.64 419.97 845.90 429.77
  Q 846.85 465.40 841.98 503.00
  Q 840.57 513.97 837.69 527.73
  C 829.95 564.75 817.40 600.60 799.56 633.86
  Q 788.64 654.21 784.69 660.46
  Q 767.93 687.00 750.57 708.34
  Q 720.20 745.69 680.95 775.43
  Q 652.85 796.72 617.09 815.39
  C 602.44 823.04 584.90 829.58 570.29 834.51
  Q 553.63 840.12 532.99 844.27
  C 528.66 845.14 522.68 845.59 518.96 846.60
  A 0.25 0.25 0.0 0 0 518.96 847.08"
/>
<path stroke="#0357c4" vector-effect="non-scaling-stroke" d="
  M 233.99 746.49
  Q 295.49 804.12 378.09 825.56
  Q 406.50 832.94 439.99 834.88
  Q 467.70 836.49 498.89 832.36
  Q 528.65 828.41 556.61 820.09
  C 605.23 805.63 649.89 780.09 688.76 747.09
  Q 696.28 740.71 706.97 730.13
  Q 718.58 718.63 724.28 712.23
  Q 781.00 648.52 807.93 567.17
  C 814.07 548.63 818.36 530.31 821.79 512.17
  Q 827.88 479.89 827.92 446.23
  Q 827.95 413.56 821.41 377.88
  C 808.02 304.88 772.19 236.35 719.71 183.47
  C 691.72 155.27 658.45 132.75 622.83 115.89
  Q 604.76 107.34 585.69 101.38
  Q 563.97 94.59 546.97 91.85
  C 507.78 85.54 467.47 85.17 428.71 92.17
  C 363.28 103.97 303.41 133.87 253.01 177.28
  Q 235.67 192.21 218.38 212.37
  C 185.89 250.23 160.47 292.64 143.73 339.26
  C 128.52 381.60 119.88 426.28 119.34 471.27
  Q 118.96 503.59 123.01 532.75
  Q 130.17 584.36 153.28 634.52
  Q 182.72 698.44 233.99 746.49"
/>
<path stroke="#0357c4" vector-effect="non-scaling-stroke" d="
  M 308.30 765.07
  Q 364.13 796.85 426.88 803.45
  Q 480.64 809.11 531.50 796.06
  Q 570.93 785.95 605.30 767.56
  Q 628.17 755.33 643.44 744.15
  Q 659.16 732.65 664.38 728.37
  C 706.76 693.65 739.95 648.44 763.28 598.83
  C 784.14 554.49 794.77 506.91 796.56 458.24
  Q 798.55 404.02 783.64 351.79
  C 771.18 308.17 750.57 266.48 722.41 230.88
  C 718.48 225.91 714.41 221.60 711.18 217.89
  Q 706.61 212.63 702.45 208.46
  C 672.23 178.13 637.08 154.83 598.45 139.09
  C 550.53 119.56 497.24 112.41 445.27 119.60
  Q 390.36 127.19 341.68 152.47
  Q 308.72 169.58 279.95 193.32
  Q 251.88 216.49 228.54 246.53
  Q 176.41 313.61 157.68 398.48
  Q 154.08 414.79 151.84 436.19
  Q 143.90 512.14 165.32 582.85
  C 170.26 599.19 177.27 616.23 184.54 631.00
  Q 211.58 686.00 256.81 727.71
  Q 279.58 748.72 308.30 765.07"
/>
<path stroke="#033677" vector-effect="non-scaling-stroke" d="
  M 309.03 764.25
  Q 364.70 795.89 427.26 802.43
  Q 480.86 808.04 531.55 795.00
  Q 570.85 784.89 605.10 766.54
  Q 627.89 754.33 643.11 743.18
  Q 658.77 731.70 663.97 727.43
  C 706.19 692.80 739.25 647.71 762.48 598.24
  C 783.24 554.02 793.81 506.58 795.56 458.07
  Q 797.51 404.01 782.62 351.96
  C 770.17 308.48 749.60 266.94 721.50 231.47
  C 717.58 226.51 713.52 222.22 710.30 218.52
  Q 705.74 213.28 701.59 209.13
  C 671.44 178.91 636.39 155.71 597.87 140.04
  C 550.09 120.60 496.96 113.51 445.16 120.71
  Q 390.43 128.31 341.91 153.54
  Q 309.07 170.62 280.40 194.31
  Q 252.44 217.42 229.19 247.38
  Q 177.26 314.28 158.65 398.90
  Q 155.07 415.16 152.85 436.50
  Q 144.98 512.21 166.38 582.69
  C 171.32 598.97 178.31 615.96 185.57 630.67
  Q 212.56 685.49 257.68 727.04
  Q 280.39 747.97 309.03 764.25"
/>
<path stroke="#033677" vector-effect="non-scaling-stroke" d="
  M 363.85 770.37
  Q 399.55 783.25 437.10 786.82
  Q 460.47 789.04 485.75 786.28
  C 534.44 780.97 581.17 763.98 622.30 737.57
  Q 654.38 716.97 684.88 685.63
  C 689.49 680.89 695.66 673.06 699.15 668.98
  Q 704.04 663.26 709.36 656.07
  C 742.77 610.92 765.47 558.14 774.07 502.38
  Q 777.57 479.70 778.25 461.00
  Q 781.16 381.57 747.55 307.91
  C 741.71 295.12 733.83 281.29 726.06 268.69
  Q 713.22 247.87 696.56 229.44
  C 662.28 191.52 618.08 162.39 568.83 147.62"
/>
<path stroke="#002150" vector-effect="non-scaling-stroke" d="
  M 568.83 147.62
  Q 543.48 139.49 518.00 136.74
  C 491.42 133.87 463.70 134.52 437.14 139.35
  C 387.39 148.39 338.66 171.31 298.70 201.88
  C 277.52 218.08 259.33 236.44 243.37 257.11
  C 202.42 310.14 176.04 374.35 169.46 440.49
  Q 167.71 458.06 167.42 473.50
  Q 166.51 522.26 180.24 569.78
  Q 187.37 594.45 200.15 620.36
  Q 217.56 655.69 241.29 683.96
  Q 289.49 741.39 358.39 768.61
  Q 361.26 769.74 363.85 770.37"
/>
<path stroke="#0357c4" vector-effect="non-scaling-stroke" d="
  M 568.83 147.62
  L 568.54 147.91
  A 0.35 0.35 0.0 0 0 568.68 148.49
  Q 636.60 170.27 685.50 219.23
  Q 713.46 247.23 734.65 285.02
  Q 754.87 321.12 765.87 361.10
  C 769.52 374.38 772.27 387.93 773.84 399.69
  Q 775.26 410.32 776.60 426.54
  Q 777.79 440.97 777.43 453.51
  Q 776.62 481.38 773.40 500.27
  C 771.67 510.38 770.92 516.11 769.17 523.73
  Q 754.32 588.18 717.49 643.02
  C 714.73 647.12 711.39 651.45 707.04 657.45
  C 702.28 664.00 697.23 669.61 691.87 676.24
  Q 689.17 679.56 684.60 684.24
  C 676.83 692.18 666.89 702.43 657.03 710.43
  Q 644.16 720.88 640.26 723.78
  Q 589.31 761.76 527.64 777.57
  C 497.65 785.26 465.76 788.77 435.24 785.49
  Q 410.70 782.85 386.12 776.31
  Q 385.25 776.08 375.63 773.18
  Q 369.83 771.43 363.85 770.37"
/>
<path stroke="#002150" vector-effect="non-scaling-stroke" d="
  M 502.71 141.38
  Q 516.69 140.91 526.49 141.73
  Q 534.36 142.39 535.00 142.43
  C 541.49 142.83 547.55 144.25 554.35 145.32
  A 0.21 0.20 8.3 0 0 554.59 145.15
  L 554.60 145.14
  A 0.18 0.18 0.0 0 0 554.45 144.93
  Q 544.98 142.94 540.74 142.07
  C 538.20 141.55 536.26 141.43 533.77 140.72
  Q 531.41 140.05 529.21 140.94
  A 1.90 1.87 -53.9 0 1 528.36 141.08
  L 512.80 140.34"
/>
<path stroke="#00337f" vector-effect="non-scaling-stroke" d="
  M 512.80 140.34
  L 511.74 140.23
  A 0.44 0.44 0.0 0 1 511.34 139.76
  L 511.37 139.29
  A 0.47 0.46 4.4 0 1 511.87 138.87
  L 529.74 140.25
  A 0.06 0.05 0.0 0 0 529.80 140.20
  L 529.82 139.94
  A 0.21 0.21 0.0 0 0 529.64 139.71
  Q 507.21 136.67 493.74 136.23
  Q 462.70 135.21 429.86 141.95
  Q 389.44 150.25 349.28 171.04
  Q 322.56 184.87 299.33 202.86
  Q 292.90 207.83 290.49 209.83
  Q 284.52 214.78 282.02 217.22
  C 276.73 222.39 271.80 226.30 266.76 231.70
  Q 252.15 247.33 242.38 260.13
  Q 222.51 286.16 207.25 316.21
  Q 191.53 347.17 181.03 384.29
  Q 173.68 410.28 170.41 440.51
  Q 167.62 466.28 168.31 492.84
  Q 168.46 498.38 168.95 501.66
  C 170.00 508.76 170.32 516.54 171.39 523.53
  Q 174.54 544.23 178.88 561.11
  Q 186.16 589.42 200.04 617.70
  Q 208.80 635.56 215.07 645.70
  Q 223.36 659.11 236.44 676.32
  Q 241.08 682.44 250.98 693.51
  C 264.55 708.68 279.47 721.48 295.50 733.33
  C 299.67 736.40 305.01 739.41 309.97 742.62
  Q 314.02 745.24 321.10 749.21
  Q 332.64 755.70 335.83 757.26
  Q 340.10 759.35 339.42 759.23
  A 0.19 0.19 0.0 0 1 339.29 758.94
  L 339.44 758.72
  A 0.23 0.22 31.5 0 0 339.36 758.39
  Q 321.49 748.51 305.51 735.84
  Q 298.73 730.46 292.63 723.97
  C 285.92 716.82 278.15 709.39 271.68 701.57
  C 263.07 691.18 254.60 680.74 247.29 669.49
  Q 239.08 656.85 233.06 646.30
  Q 220.85 624.92 212.43 600.35
  Q 208.66 589.37 207.96 586.81
  Q 202.31 566.20 199.31 545.50
  Q 197.44 532.63 196.13 516.21
  Q 194.98 501.64 195.19 486.78
  Q 195.81 442.10 205.67 399.40
  C 210.47 378.62 217.51 357.60 225.85 338.58
  C 235.31 316.99 247.61 295.21 262.34 275.77
  Q 271.19 264.09 273.27 261.51
  Q 289.53 241.34 309.95 222.97
  Q 329.75 205.15 344.01 195.28
  C 389.98 163.48 446.24 142.98 502.71 141.38"
/>
<path stroke="#001232" vector-effect="non-scaling-stroke" d="
  M 512.80 140.34
  L 502.27 140.49
  A 0.28 0.27 -37.7 0 0 502.20 141.03
  Q 502.43 141.09 502.71 141.38"
/>
<path stroke="#7f8d5a" vector-effect="non-scaling-stroke" d="
  M 519.42 248.89
  L 496.45 248.89
  A 1.15 1.15 0.0 0 1 495.37 248.14
  Q 492.04 239.17 487.53 225.24
  Q 487.21 224.25 486.54 224.62
  A 0.56 0.48 88.7 0 0 486.31 224.90
  L 478.41 247.28
  A 2.45 2.45 0.0 0 1 476.10 248.91
  L 454.61 248.91
  A 0.96 0.95 62.3 0 0 454.07 250.65
  L 472.20 263.21
  A 1.81 1.80 -64.6 0 1 472.91 265.21
  L 466.46 287.36
  A 0.61 0.61 0.0 0 0 467.41 288.03
  L 485.50 274.67
  A 2.44 2.43 44.2 0 1 488.33 274.63
  L 508.03 288.27
  A 0.58 0.57 -80.5 0 0 508.91 287.64
  Q 505.34 275.15 502.75 267.17
  C 502.27 265.69 501.73 264.54 503.06 263.30
  Q 507.11 259.53 516.63 252.66
  Q 519.32 250.72 519.85 249.56
  A 0.47 0.47 0.0 0 0 519.42 248.89"
/>
<path stroke="#00337f" vector-effect="non-scaling-stroke" d="
  M 611.22 279.81
  L 609.77 279.82"
/>
<path stroke="#7f8d5a" vector-effect="non-scaling-stroke" d="
  M 609.77 279.82
  L 598.48 279.56
  A 1.76 1.74 -8.5 0 1 596.86 278.38
  Q 589.48 257.00 589.34 256.52
  Q 589.24 256.21 588.85 256.07
  Q 588.31 255.86 588.14 256.39
  Q 585.30 264.97 580.12 278.71
  A 2.12 2.12 0.0 0 1 578.12 280.08
  Q 559.66 279.92 557.25 279.87
  Q 555.75 279.85 555.37 280.06
  A 0.71 0.71 0.0 0 0 555.30 281.26
  L 573.94 294.51
  A 1.47 1.46 25.2 0 1 574.51 296.08
  Q 570.79 310.07 567.94 319.26
  Q 567.76 319.83 568.35 319.97
  Q 568.72 320.06 569.07 319.81
  Q 582.24 310.45 587.76 306.54
  A 1.93 1.92 44.7 0 1 589.97 306.53
  L 609.25 319.88
  A 0.57 0.56 -67.7 0 0 610.13 319.51
  Q 610.23 318.98 610.01 318.29
  Q 604.69 301.32 604.09 299.31
  Q 603.07 295.88 605.62 293.94
  Q 614.00 287.56 622.44 281.17
  A 0.64 0.64 0.0 0 0 622.06 280.02
  L 611.22 279.81"
/>
<path stroke="#7f7e3c" vector-effect="non-scaling-stroke" d="
  M 609.77 279.82
  L 611.22 279.81"
/>
<path stroke="#7f8d5a" vector-effect="non-scaling-stroke" d="
  M 364.05 319.47
  A 0.64 0.64 0.0 0 0 365.06 320.14
  L 381.51 308.00
  A 2.73 2.72 -45.3 0 1 384.72 307.98
  Q 396.00 316.08 403.87 321.03
  A 0.73 0.71 30.4 0 0 404.90 320.78
  Q 405.06 320.49 404.87 319.87
  Q 403.95 316.84 398.13 297.53
  A 1.32 1.30 -26.5 0 1 398.62 296.09
  Q 413.87 285.12 416.00 283.51
  Q 417.01 282.74 417.40 281.58
  A 0.78 0.77 -80.7 0 0 416.67 280.56
  L 393.84 280.56
  A 2.07 2.05 -9.5 0 1 391.89 279.18
  L 384.25 257.18
  A 0.46 0.46 0.0 0 0 383.37 257.19
  L 376.22 279.34
  A 1.66 1.65 8.3 0 1 374.67 280.49
  L 352.62 280.99
  A 0.83 0.82 -14.9 0 0 351.91 282.21
  Q 352.57 283.40 353.92 284.34
  Q 364.29 291.50 368.11 294.15
  Q 370.58 295.87 369.81 298.56
  Q 365.05 315.30 364.05 319.47"
/>
<path stroke="#002150" vector-effect="non-scaling-stroke" d="
  M 444.20 599.55
  C 476.88 606.13 511.65 601.20 540.18 583.68
  C 575.52 561.98 598.84 526.53 607.06 486.01
  Q 617.20 435.96 596.57 389.72
  Q 593.01 381.74 583.70 368.85"
/>
<path stroke="#0357c4" vector-effect="non-scaling-stroke" d="
  M 583.70 368.85
  Q 581.20 363.70 576.84 359.68
  Q 573.25 356.37 573.18 356.31
  Q 541.53 325.38 497.76 318.49
  C 480.87 315.84 466.20 317.39 449.56 321.37
  Q 438.24 324.08 427.57 329.00
  C 395.92 343.57 370.21 368.45 355.57 400.03
  Q 347.14 418.23 343.93 436.41
  Q 338.05 469.69 345.96 504.58
  Q 351.89 530.75 370.34 555.00
  C 372.78 558.20 375.97 560.98 378.56 564.13
  Q 380.29 566.22 384.22 569.66
  Q 392.12 576.54 392.75 576.99
  Q 410.00 589.21 422.09 593.71
  Q 431.21 597.09 441.55 600.01
  Q 444.22 600.76 444.20 599.55"
/>
<path stroke="#033677" vector-effect="non-scaling-stroke" d="
  M 583.70 368.85
  Q 572.98 356.61 563.47 348.77
  C 541.13 330.37 511.45 318.63 482.47 318.43
  Q 451.58 318.22 423.35 332.36
  Q 378.12 355.02 356.52 400.26
  Q 347.01 420.19 344.19 441.22
  Q 341.31 462.66 343.71 485.75
  C 349.63 542.70 388.61 586.72 444.20 599.55"
/>
<path stroke="#7f8d5a" vector-effect="non-scaling-stroke" d="
  M 331.41 400.72
  A 0.39 0.39 0.0 0 0 332.01 400.29
  L 325.56 377.74
  A 2.31 2.30 -26.3 0 1 326.40 375.27
  L 343.43 362.64
  A 0.49 0.39 -85.5 0 0 343.55 362.51
  Q 343.86 362.02 343.88 361.78
  A 0.61 0.61 0.0 0 0 343.29 361.13
  Q 338.51 361.02 321.73 361.05
  Q 318.93 361.06 318.11 358.49
  Q 314.08 345.76 310.87 337.50
  A 0.76 0.67 61.8 0 0 309.80 337.11
  Q 309.68 337.20 309.58 337.57
  Q 306.71 347.95 302.56 359.17
  A 2.67 2.66 10.0 0 1 300.07 360.91
  Q 282.89 360.99 279.75 360.95
  Q 276.95 360.92 278.32 362.59
  A 0.09 0.03 73.2 0 0 278.34 362.62
  L 296.02 375.10
  A 2.13 2.12 25.8 0 1 296.84 377.44
  L 290.51 399.19
  A 0.61 0.61 0.0 0 0 291.46 399.85
  L 309.55 386.50
  A 1.13 1.12 43.9 0 1 310.85 386.48
  L 331.41 400.72"
/>
<path stroke="#7f8d5a" vector-effect="non-scaling-stroke" d="
  M 678.97 400.85
  Q 679.27 399.94 679.01 399.00
  Q 676.09 388.39 673.16 378.95
  A 1.76 1.71 45.9 0 1 673.16 377.92
  Q 673.56 376.57 674.83 375.55
  Q 677.81 373.16 692.00 362.59
  A 0.55 0.55 0.0 0 0 691.68 361.60
  L 668.77 361.60
  A 2.46 2.46 0.0 0 1 666.45 359.96
  L 658.88 338.16
  A 0.67 0.66 -45.8 0 0 657.62 338.18
  L 650.50 360.24
  A 2.03 2.01 9.0 0 1 648.56 361.64
  Q 632.52 361.56 624.77 361.80
  Q 624.43 361.81 624.23 362.03
  A 0.62 0.62 0.0 0 0 624.35 362.96
  Q 632.93 368.77 641.49 375.28
  C 643.47 376.79 643.22 377.88 642.64 380.24
  Q 639.98 391.12 637.28 400.28
  Q 637.09 400.94 637.75 401.15
  Q 638.20 401.28 638.66 400.94
  Q 650.43 391.91 656.91 387.41
  A 1.43 1.42 44.7 0 1 658.54 387.41
  L 678.28 401.08
  A 0.46 0.45 26.0 0 0 678.97 400.85"
/>
<path stroke="#00337f" vector-effect="non-scaling-stroke" d="
  M 597.21 388.58
  Q 603.42 400.10 606.41 412.66
  C 607.14 415.71 608.31 418.44 608.55 421.97
  Q 608.56 422.14 608.88 422.67
  A 1.89 1.88 -58.9 0 1 609.14 423.73
  Q 608.99 426.27 609.95 429.22
  A 3.84 3.69 37.9 0 1 610.12 430.40
  Q 610.08 433.84 611.06 437.96
  A 3.39 3.33 41.3 0 1 611.14 439.05
  Q 610.97 441.09 611.12 442.23
  C 611.86 447.74 612.09 453.00 611.59 458.27
  C 610.98 464.65 610.98 469.73 610.09 476.12
  Q 605.51 508.93 588.33 537.07
  Q 586.22 540.53 578.32 551.55
  Q 576.67 553.85 575.39 555.15
  C 572.62 558.00 570.43 561.30 567.68 563.86
  Q 557.38 573.44 553.29 576.31
  Q 542.72 583.71 538.22 586.28
  Q 516.59 598.62 491.08 602.61
  C 484.57 603.63 478.07 603.38 471.49 603.87
  C 466.42 604.25 461.21 603.60 455.59 603.06
  A 0.21 0.21 0.0 0 0 455.50 603.47
  Q 457.28 604.05 459.66 604.39
  Q 496.40 609.50 529.57 593.82
  Q 556.79 580.95 577.00 558.31
  Q 581.84 552.88 588.04 543.84
  Q 594.69 534.13 597.59 528.33
  Q 621.77 479.85 612.43 427.29
  Q 608.97 407.80 597.69 388.18
  A 0.25 0.25 0.0 0 0 597.36 388.09
  L 597.35 388.10
  A 0.35 0.35 0.0 0 0 597.21 388.58"
/>
<path stroke="#7f8d5a" vector-effect="non-scaling-stroke" d="
  M 293.92 462.75
  A 0.69 0.69 0.0 0 1 293.28 462.29
  L 285.51 439.99
  A 0.69 0.69 0.0 0 0 284.21 440.00
  L 276.60 462.34
  A 0.69 0.69 0.0 0 1 275.96 462.81
  L 252.35 463.31
  A 0.69 0.69 0.0 0 0 251.95 464.55
  L 270.86 478.70
  A 0.69 0.69 0.0 0 1 271.10 479.45
  L 264.28 502.05
  A 0.69 0.69 0.0 0 0 265.34 502.81
  L 284.64 489.21
  A 0.69 0.69 0.0 0 1 285.43 489.21
  L 304.82 502.68
  A 0.69 0.69 0.0 0 0 305.87 501.91
  L 298.89 479.35
  A 0.69 0.69 0.0 0 1 299.13 478.60
  L 317.94 464.32
  A 0.69 0.69 0.0 0 0 317.53 463.08
  L 293.92 462.75"
/>
<path stroke="#7f8d5a" vector-effect="non-scaling-stroke" d="
  M 690.08 466.45
  A 0.86 0.86 0.0 0 1 689.28 465.87
  L 681.70 443.83
  A 0.86 0.86 0.0 0 0 680.08 443.83
  L 672.58 465.90
  A 0.86 0.86 0.0 0 1 671.78 466.48
  L 648.48 466.88
  A 0.86 0.86 0.0 0 0 647.98 468.42
  L 666.64 482.38
  A 0.86 0.86 0.0 0 1 666.95 483.32
  L 660.13 505.60
  A 0.86 0.86 0.0 0 0 661.44 506.55
  L 680.48 493.11
  A 0.86 0.86 0.0 0 1 681.47 493.11
  L 700.55 506.49
  A 0.86 0.86 0.0 0 0 701.87 505.53
  L 694.97 483.27
  A 0.86 0.86 0.0 0 1 695.27 482.33
  L 713.89 468.31
  A 0.86 0.86 0.0 0 0 713.38 466.76
  L 690.08 466.45"
/>
<path stroke="#7f8d5a" vector-effect="non-scaling-stroke" d="
  M 339.57 565.59
  A 0.65 0.65 0.0 0 0 338.98 564.67
  L 316.96 564.67
  A 2.87 2.87 0.0 0 1 314.25 562.74
  L 306.87 541.49
  A 0.87 0.87 0.0 0 0 305.23 541.51
  L 298.13 563.54
  A 2.02 2.02 0.0 0 1 296.21 564.94
  L 272.21 564.94
  A 0.63 0.63 0.0 0 0 271.84 566.07
  L 290.87 580.03
  A 2.40 2.39 26.2 0 1 291.76 582.62
  Q 287.73 596.84 286.05 603.27
  Q 285.93 603.73 286.02 604.14
  A 0.47 0.47 0.0 0 0 286.77 604.40
  Q 294.23 598.56 304.52 591.49
  Q 306.02 590.46 308.08 591.89
  Q 320.28 600.36 326.87 605.11
  A 0.58 0.58 0.0 0 0 327.77 604.48
  Q 325.06 595.03 321.31 583.16
  Q 320.40 580.28 322.72 578.72
  Q 329.72 574.01 338.74 566.73
  Q 339.23 566.33 339.57 565.59"
/>
<path stroke="#7f8d5a" vector-effect="non-scaling-stroke" d="
  M 626.69 610.05
  L 645.06 596.49
  A 2.12 2.11 -45.8 0 1 647.52 596.45
  L 667.50 610.29
  A 0.34 0.34 0.0 0 0 668.02 610.11
  Q 668.35 609.07 667.93 607.57
  Q 665.57 599.16 662.03 588.25
  A 2.52 2.51 62.9 0 1 662.93 585.46
  L 680.10 572.78
  A 0.73 0.73 0.0 0 0 679.67 571.46
  L 656.62 571.46
  A 1.29 1.29 0.0 0 1 655.40 570.59
  L 647.33 547.35
  A 0.52 0.51 -44.9 0 0 646.36 547.35
  L 638.39 569.91
  A 1.81 1.80 9.5 0 1 636.68 571.12
  L 613.85 571.12
  A 0.56 0.55 70.7 0 0 613.42 572.02
  Q 614.03 572.80 615.25 573.75
  Q 617.26 575.32 630.54 584.76
  Q 632.67 586.27 631.87 589.07
  Q 628.55 600.76 625.88 609.48
  A 0.52 0.52 0.0 0 0 626.69 610.05"
/>
<path stroke="#7f8d5a" vector-effect="non-scaling-stroke" d="
  M 358.58 682.16
  A 0.60 0.59 -18.0 0 0 359.53 682.64
  Q 371.06 674.06 377.31 669.54
  Q 378.97 668.34 380.83 669.68
  Q 391.31 677.25 398.32 681.80
  A 0.54 0.54 0.0 0 0 399.13 681.49
  Q 399.31 680.78 399.06 679.74
  Q 396.46 669.26 393.20 659.10
  A 2.25 2.25 0.0 0 1 394.00 656.61
  L 411.54 643.67
  A 0.76 0.76 0.0 0 0 411.09 642.30
  L 389.22 642.30
  A 2.46 2.45 -9.5 0 1 386.90 640.65
  L 379.04 618.01
  A 0.37 0.37 0.0 0 0 378.34 618.02
  L 370.96 640.89
  A 1.57 1.55 8.3 0 1 369.50 641.97
  L 346.83 642.49
  A 0.73 0.73 0.0 0 0 346.27 643.67
  Q 346.48 643.94 347.09 644.43
  Q 351.78 648.19 363.30 656.25
  Q 365.48 657.78 364.78 660.23
  Q 361.57 671.42 358.94 679.97
  Q 358.59 681.09 358.58 682.16"
/>
<path stroke="#7f8d5a" vector-effect="non-scaling-stroke" d="
  M 571.07 619.28
  L 563.58 642.52
  A 1.22 1.22 0.0 0 1 562.45 643.36
  L 539.30 643.88
  A 0.37 0.36 -2.3 0 0 538.94 644.26
  Q 538.96 644.71 539.28 644.98
  Q 545.11 649.88 552.59 654.92
  Q 554.20 656.00 556.64 658.11
  Q 558.37 659.60 557.73 661.70
  Q 556.71 665.03 551.45 682.98
  Q 551.20 683.83 551.29 684.11
  A 0.51 0.51 0.0 0 0 552.08 684.37
  L 570.88 670.49
  A 2.50 2.49 -45.9 0 1 573.79 670.44
  L 593.11 683.82
  A 0.38 0.38 0.0 0 0 593.70 683.41
  Q 591.36 674.60 587.45 662.02
  Q 586.66 659.48 588.45 658.19
  Q 599.93 649.92 605.27 645.28
  Q 605.91 644.73 606.03 644.53
  A 0.51 0.51 0.0 0 0 605.60 643.75
  L 581.13 643.68
  A 0.86 0.84 80.3 0 1 580.33 643.10
  L 572.05 619.27
  A 0.52 0.52 0.0 0 0 571.07 619.28"
/>
<path stroke="#7f8d5a" vector-effect="non-scaling-stroke" d="
  M 483.72 673.24
  A 0.44 0.44 0.0 0 1 483.31 672.94
  L 475.07 649.52
  A 0.44 0.44 0.0 0 0 474.24 649.52
  L 466.32 673.06
  A 0.44 0.44 0.0 0 1 465.91 673.36
  L 441.08 673.97
  A 0.44 0.44 0.0 0 0 440.83 674.76
  L 460.77 689.56
  A 0.44 0.44 0.0 0 1 460.93 690.04
  L 453.83 713.84
  A 0.44 0.44 0.0 0 0 454.51 714.33
  L 474.75 699.94
  A 0.44 0.44 0.0 0 1 475.26 699.93
  L 495.70 714.04
  A 0.44 0.44 0.0 0 0 496.37 713.55
  L 488.94 689.85
  A 0.44 0.44 0.0 0 1 489.09 689.37
  L 508.82 674.28
  A 0.44 0.44 0.0 0 0 508.56 673.49
  L 483.72 673.24"
/>
<path stroke="#033677" vector-effect="non-scaling-stroke" d="
  M 392.49 378.99
  C 373.55 400.56 361.89 427.80 360.29 456.24
  Q 359.73 466.24 360.14 476.90
  Q 361.36 508.83 378.32 535.06
  C 394.14 559.55 419.35 575.48 448.64 580.52
  Q 467.83 583.82 485.37 581.81
  Q 522.17 577.58 549.28 552.03
  C 578.92 524.10 593.27 484.53 591.47 444.05
  Q 590.30 417.92 580.08 397.54
  Q 563.80 365.08 530.81 348.09
  C 512.42 338.62 493.44 335.65 473.74 337.05
  C 442.50 339.29 413.22 355.38 392.49 378.99"
/>
<path stroke="#0357c4" vector-effect="non-scaling-stroke" d="
  M 393.21 379.67
  C 374.44 401.05 362.89 428.05 361.31 456.24
  Q 360.75 466.15 361.16 476.71
  Q 362.38 508.36 379.19 534.35
  C 394.88 558.62 419.86 574.41 448.89 579.40
  Q 467.91 582.66 485.30 580.67
  Q 521.77 576.47 548.63 551.14
  C 578.01 523.45 592.22 484.23 590.43 444.11
  Q 589.26 418.22 579.13 398.02
  Q 562.99 365.85 530.29 349.02
  C 512.06 339.64 493.25 336.70 473.73 338.09
  C 442.76 340.31 413.75 356.27 393.21 379.67"
/>
<path stroke="#0357c4" vector-effect="non-scaling-stroke" d="
  M 557.20 452.60
  C 556.98 440.55 555.95 428.09 549.94 417.06
  C 542.91 404.16 530.68 393.21 517.96 385.64
  C 494.49 371.67 467.63 370.11 443.01 381.81
  Q 429.82 388.07 419.02 399.21
  Q 398.09 420.79 393.27 448.54
  C 389.04 472.95 394.33 497.93 409.41 517.60
  C 424.97 537.90 447.73 547.70 473.47 546.36
  C 488.93 545.56 505.47 540.62 518.22 531.21
  Q 525.28 526.00 530.14 520.66
  Q 534.83 515.52 539.34 509.87
  C 552.07 493.93 557.56 472.74 557.20 452.60"
/>
<path stroke="#033677" vector-effect="non-scaling-stroke" d="
  M 556.18 452.71
  C 555.97 440.81 554.95 428.51 549.01 417.61
  C 542.07 404.88 529.99 394.06 517.43 386.59
  C 494.26 372.79 467.73 371.25 443.42 382.80
  Q 430.39 388.99 419.73 399.99
  Q 399.06 421.30 394.30 448.70
  C 390.12 472.81 395.35 497.48 410.24 516.90
  C 425.60 536.95 448.08 546.63 473.50 545.30
  C 488.77 544.51 505.10 539.63 517.69 530.34
  Q 524.66 525.20 529.46 519.92
  Q 534.09 514.85 538.55 509.27
  C 551.12 493.53 556.54 472.60 556.18 452.71"
/>
<path stroke="#001232" vector-effect="non-scaling-stroke" d="
  M 437.34 473.29
  L 437.92 462.55"
/>
<path stroke="#002150" vector-effect="non-scaling-stroke" d="
  M 437.92 462.55
  Q 441.77 430.65 465.14 410.15
  Q 472.09 404.05 481.76 400.42"
/>
<path stroke="#001232" vector-effect="non-scaling-stroke" d="
  M 481.76 400.42
  L 485.56 398.73"
/>
<path stroke="#002150" vector-effect="non-scaling-stroke" d="
  M 485.56 398.73
  L 490.08 397.67
  A 0.34 0.34 0.0 0 0 490.05 397.01
  C 470.68 394.14 451.28 394.71 435.75 408.06
  C 414.36 426.46 407.69 453.58 413.72 480.77
  Q 415.96 490.88 421.33 499.84
  C 427.88 510.79 439.66 518.80 451.19 523.88
  A 0.16 0.16 0.0 0 0 451.39 523.64
  Q 442.30 511.07 439.27 495.28
  Q 437.19 484.41 437.34 473.29"
/>
<path stroke="#00337f" vector-effect="non-scaling-stroke" d="
  M 485.56 398.73
  Q 484.71 398.84 484.57 397.81
  A 0.63 0.63 0.0 0 0 484.03 397.28
  Q 467.11 395.33 451.84 399.82
  Q 447.60 401.07 440.80 405.44
  C 436.33 408.32 430.77 414.13 428.06 417.31
  C 416.26 431.17 410.63 452.05 413.04 470.04
  C 414.41 480.23 416.41 487.83 421.02 496.87
  C 426.44 507.49 435.45 514.65 445.92 520.17
  A 0.60 0.60 0.0 0 0 446.78 519.48
  Q 445.94 516.48 444.66 514.06
  C 441.10 507.32 438.89 500.30 437.80 492.51
  Q 436.19 481.06 436.35 472.53
  A 0.47 0.27 75.5 0 1 436.39 472.39
  Q 436.58 472.04 436.92 472.09
  A 0.26 0.24 0.3 0 1 437.13 472.29
  L 437.34 473.29"
/>
<path stroke="#00337f" vector-effect="non-scaling-stroke" d="
  M 481.76 400.42
  Q 481.89 399.84 481.65 399.61
  Q 481.43 399.41 480.89 399.63
  Q 472.20 403.13 465.76 408.28
  Q 461.43 411.74 455.63 418.10
  C 453.42 420.52 451.93 423.65 449.91 426.38
  Q 447.85 429.15 445.93 432.82
  Q 440.83 442.62 438.36 454.00
  Q 437.35 458.63 437.92 462.55"
/>
</g>
<path fill="#000003" d="
  M 161.86 256.62
  Q 161.98 256.44 162.02 256.24
  Q 162.10 255.87 162.12 255.83
  Q 188.21 213.82 219.01 181.76
  Q 246.32 153.34 281.84 129.91
  Q 299.05 118.55 317.53 108.75
  C 339.85 96.92 363.51 87.74 386.97 80.52
  Q 401.34 76.10 422.69 71.47
  Q 442.39 67.19 465.57 65.24
  Q 502.91 62.10 540.58 66.70
  Q 573.04 70.66 609.07 80.64
  Q 641.88 89.73 674.61 104.89
  Q 704.15 118.56 727.97 134.53
  Q 783.22 171.58 822.15 225.61
  Q 867.93 289.13 886.47 364.73
  Q 893.35 392.78 896.50 423.80
  Q 896.96 428.32 897.11 432.70
  C 897.24 436.53 897.84 439.93 897.92 444.56
  Q 898.27 464.59 897.91 482.75
  C 897.80 488.12 896.96 492.69 897.02 497.74
  Q 897.04 499.60 896.33 504.46
  Q 896.25 505.02 895.56 511.17
  Q 889.69 564.05 869.06 615.04
  Q 835.75 697.35 772.79 758.26
  Q 743.84 786.28 707.20 808.94
  Q 635.78 853.12 552.22 862.62
  Q 550.08 862.86 532.97 864.23
  C 520.28 865.24 507.29 865.05 495.10 865.00
  Q 487.38 864.97 482.93 864.48
  C 477.58 863.90 472.49 864.12 466.71 863.50
  Q 452.88 862.01 451.26 861.84
  Q 427.60 859.29 399.51 853.03
  Q 286.07 827.73 205.92 745.50
  C 198.92 738.32 191.02 728.77 184.88 721.18
  Q 153.06 681.88 133.20 636.53
  Q 120.83 608.29 112.88 579.24
  Q 105.13 550.91 102.03 519.49
  Q 101.54 514.54 101.23 513.21
  A 4.50 3.99 41.6 0 1 101.11 512.21
  Q 101.07 505.10 100.58 500.37
  Q 100.08 495.47 100.00 489.10
  Q 99.71 465.37 100.37 457.26
  Q 101.07 448.62 100.99 447.77
  Q 100.80 445.61 101.59 441.15
  C 102.09 438.28 101.78 435.12 102.38 432.29
  Q 102.46 431.88 104.11 419.01
  Q 106.42 401.01 110.01 385.76
  Q 112.77 374.05 115.48 363.45
  Q 118.15 353.04 125.80 331.52
  Q 137.06 299.84 155.78 266.56
  Q 158.90 261.01 161.86 256.62
  Z
  M 233.01 747.12
  Q 294.64 804.98 377.46 826.56
  Q 405.94 833.99 439.53 835.97
  Q 467.32 837.61 498.61 833.50
  Q 528.46 829.56 556.51 821.24
  C 605.28 806.79 650.10 781.22 689.11 748.16
  Q 696.66 741.77 707.39 731.17
  Q 719.05 719.64 724.77 713.23
  Q 781.72 649.39 808.80 567.83
  C 814.98 549.24 819.30 530.87 822.76 512.68
  Q 828.90 480.31 828.97 446.55
  Q 829.03 413.79 822.51 378.00
  C 809.15 304.77 773.28 236.00 720.69 182.92
  C 692.65 154.61 659.30 131.99 623.60 115.05
  Q 605.48 106.46 586.36 100.46
  Q 564.58 93.63 547.54 90.87
  C 508.24 84.50 467.81 84.09 428.93 91.07
  C 363.30 102.85 303.22 132.77 252.64 176.26
  Q 235.23 191.22 217.87 211.42
  C 185.25 249.36 159.71 291.87 142.88 338.61
  C 127.59 381.06 118.88 425.86 118.29 470.98
  Q 117.88 503.40 121.91 532.65
  Q 129.05 584.42 152.17 634.74
  Q 181.64 698.88 233.01 747.12
  Z
  M 518.96 847.08
  Q 519.40 847.19 522.76 846.93
  Q 530.14 846.37 543.52 845.45
  Q 555.69 844.61 570.94 841.91
  Q 606.36 835.64 640.31 823.03
  Q 670.08 811.97 696.31 795.55
  Q 725.15 777.50 746.72 758.68
  C 777.28 732.02 803.25 699.59 824.91 663.90
  C 857.39 610.39 875.47 550.77 879.48 488.65
  Q 880.16 478.04 880.45 469.84
  C 881.03 453.44 880.01 437.72 878.35 421.31
  Q 876.59 403.82 874.37 391.82
  Q 866.26 348.06 847.86 305.89
  C 835.28 277.09 818.06 249.19 799.15 225.13
  Q 779.34 199.93 754.45 177.70
  C 738.86 163.78 720.30 151.66 701.18 140.39
  A 0.20 0.20 0.0 0 0 700.91 140.45
  L 700.90 140.46
  A 0.29 0.28 -52.5 0 0 700.95 140.85
  Q 711.91 149.72 712.78 150.48
  Q 730.52 166.07 746.39 183.40
  C 773.22 212.70 794.43 246.63 811.08 283.19
  Q 835.18 336.10 842.66 390.44
  Q 843.60 397.24 843.95 401.64
  C 844.67 410.70 845.64 419.97 845.90 429.77
  Q 846.85 465.40 841.98 503.00
  Q 840.57 513.97 837.69 527.73
  C 829.95 564.75 817.40 600.60 799.56 633.86
  Q 788.64 654.21 784.69 660.46
  Q 767.93 687.00 750.57 708.34
  Q 720.20 745.69 680.95 775.43
  Q 652.85 796.72 617.09 815.39
  C 602.44 823.04 584.90 829.58 570.29 834.51
  Q 553.63 840.12 532.99 844.27
  C 528.66 845.14 522.68 845.59 518.96 846.60
  A 0.25 0.25 0.0 0 0 518.96 847.08
  Z"
/>
<path fill="#066ceb" d="
  M 233.01 747.12
  Q 181.64 698.88 152.17 634.74
  Q 129.05 584.42 121.91 532.65
  Q 117.88 503.40 118.29 470.98
  C 118.88 425.86 127.59 381.06 142.88 338.61
  C 159.71 291.87 185.25 249.36 217.87 211.42
  Q 235.23 191.22 252.64 176.26
  C 303.22 132.77 363.30 102.85 428.93 91.07
  C 467.81 84.09 508.24 84.50 547.54 90.87
  Q 564.58 93.63 586.36 100.46
  Q 605.48 106.46 623.60 115.05
  C 659.30 131.99 692.65 154.61 720.69 182.92
  C 773.28 236.00 809.15 304.77 822.51 378.00
  Q 829.03 413.79 828.97 446.55
  Q 828.90 480.31 822.76 512.68
  C 819.30 530.87 814.98 549.24 808.80 567.83
  Q 781.72 649.39 724.77 713.23
  Q 719.05 719.64 707.39 731.17
  Q 696.66 741.77 689.11 748.16
  C 650.10 781.22 605.28 806.79 556.51 821.24
  Q 528.46 829.56 498.61 833.50
  Q 467.32 837.61 439.53 835.97
  Q 405.94 833.99 377.46 826.56
  Q 294.64 804.98 233.01 747.12
  Z
  M 233.99 746.49
  Q 295.49 804.12 378.09 825.56
  Q 406.50 832.94 439.99 834.88
  Q 467.70 836.49 498.89 832.36
  Q 528.65 828.41 556.61 820.09
  C 605.23 805.63 649.89 780.09 688.76 747.09
  Q 696.28 740.71 706.97 730.13
  Q 718.58 718.63 724.28 712.23
  Q 781.00 648.52 807.93 567.17
  C 814.07 548.63 818.36 530.31 821.79 512.17
  Q 827.88 479.89 827.92 446.23
  Q 827.95 413.56 821.41 377.88
  C 808.02 304.88 772.19 236.35 719.71 183.47
  C 691.72 155.27 658.45 132.75 622.83 115.89
  Q 604.76 107.34 585.69 101.38
  Q 563.97 94.59 546.97 91.85
  C 507.78 85.54 467.47 85.17 428.71 92.17
  C 363.28 103.97 303.41 133.87 253.01 177.28
  Q 235.67 192.21 218.38 212.37
  C 185.89 250.23 160.47 292.64 143.73 339.26
  C 128.52 381.60 119.88 426.28 119.34 471.27
  Q 118.96 503.59 123.01 532.75
  Q 130.17 584.36 153.28 634.52
  Q 182.72 698.44 233.99 746.49
  Z"
/>
<path fill="#00429d" d="
  M 233.99 746.49
  Q 182.72 698.44 153.28 634.52
  Q 130.17 584.36 123.01 532.75
  Q 118.96 503.59 119.34 471.27
  C 119.88 426.28 128.52 381.60 143.73 339.26
  C 160.47 292.64 185.89 250.23 218.38 212.37
  Q 235.67 192.21 253.01 177.28
  C 303.41 133.87 363.28 103.97 428.71 92.17
  C 467.47 85.17 507.78 85.54 546.97 91.85
  Q 563.97 94.59 585.69 101.38
  Q 604.76 107.34 622.83 115.89
  C 658.45 132.75 691.72 155.27 719.71 183.47
  C 772.19 236.35 808.02 304.88 821.41 377.88
  Q 827.95 413.56 827.92 446.23
  Q 827.88 479.89 821.79 512.17
  C 818.36 530.31 814.07 548.63 807.93 567.17
  Q 781.00 648.52 724.28 712.23
  Q 718.58 718.63 706.97 730.13
  Q 696.28 740.71 688.76 747.09
  C 649.89 780.09 605.23 805.63 556.61 820.09
  Q 528.65 828.41 498.89 832.36
  Q 467.70 836.49 439.99 834.88
  Q 406.50 832.94 378.09 825.56
  Q 295.49 804.12 233.99 746.49
  Z
  M 308.30 765.07
  Q 364.13 796.85 426.88 803.45
  Q 480.64 809.11 531.50 796.06
  Q 570.93 785.95 605.30 767.56
  Q 628.17 755.33 643.44 744.15
  Q 659.16 732.65 664.38 728.37
  C 706.76 693.65 739.95 648.44 763.28 598.83
  C 784.14 554.49 794.77 506.91 796.56 458.24
  Q 798.55 404.02 783.64 351.79
  C 771.18 308.17 750.57 266.48 722.41 230.88
  C 718.48 225.91 714.41 221.60 711.18 217.89
  Q 706.61 212.63 702.45 208.46
  C 672.23 178.13 637.08 154.83 598.45 139.09
  C 550.53 119.56 497.24 112.41 445.27 119.60
  Q 390.36 127.19 341.68 152.47
  Q 308.72 169.58 279.95 193.32
  Q 251.88 216.49 228.54 246.53
  Q 176.41 313.61 157.68 398.48
  Q 154.08 414.79 151.84 436.19
  Q 143.90 512.14 165.32 582.85
  C 170.26 599.19 177.27 616.23 184.54 631.00
  Q 211.58 686.00 256.81 727.71
  Q 279.58 748.72 308.30 765.07
  Z"
/>
<path fill="#066ceb" d="
  M 308.30 765.07
  Q 279.58 748.72 256.81 727.71
  Q 211.58 686.00 184.54 631.00
  C 177.27 616.23 170.26 599.19 165.32 582.85
  Q 143.90 512.14 151.84 436.19
  Q 154.08 414.79 157.68 398.48
  Q 176.41 313.61 228.54 246.53
  Q 251.88 216.49 279.95 193.32
  Q 308.72 169.58 341.68 152.47
  Q 390.36 127.19 445.27 119.60
  C 497.24 112.41 550.53 119.56 598.45 139.09
  C 637.08 154.83 672.23 178.13 702.45 208.46
  Q 706.61 212.63 711.18 217.89
  C 714.41 221.60 718.48 225.91 722.41 230.88
  C 750.57 266.48 771.18 308.17 783.64 351.79
  Q 798.55 404.02 796.56 458.24
  C 794.77 506.91 784.14 554.49 763.28 598.83
  C 739.95 648.44 706.76 693.65 664.38 728.37
  Q 659.16 732.65 643.44 744.15
  Q 628.17 755.33 605.30 767.56
  Q 570.93 785.95 531.50 796.06
  Q 480.64 809.11 426.88 803.45
  Q 364.13 796.85 308.30 765.07
  Z
  M 309.03 764.25
  Q 364.70 795.89 427.26 802.43
  Q 480.86 808.04 531.55 795.00
  Q 570.85 784.89 605.10 766.54
  Q 627.89 754.33 643.11 743.18
  Q 658.77 731.70 663.97 727.43
  C 706.19 692.80 739.25 647.71 762.48 598.24
  C 783.24 554.02 793.81 506.58 795.56 458.07
  Q 797.51 404.01 782.62 351.96
  C 770.17 308.48 749.60 266.94 721.50 231.47
  C 717.58 226.51 713.52 222.22 710.30 218.52
  Q 705.74 213.28 701.59 209.13
  C 671.44 178.91 636.39 155.71 597.87 140.04
  C 550.09 120.60 496.96 113.51 445.16 120.71
  Q 390.43 128.31 341.91 153.54
  Q 309.07 170.62 280.40 194.31
  Q 252.44 217.42 229.19 247.38
  Q 177.26 314.28 158.65 398.90
  Q 155.07 415.16 152.85 436.50
  Q 144.98 512.21 166.38 582.69
  C 171.32 598.97 178.31 615.96 185.57 630.67
  Q 212.56 685.49 257.68 727.04
  Q 280.39 747.97 309.03 764.25
  Z"
/>
<path fill="#000003" d="
  M 309.03 764.25
  Q 280.39 747.97 257.68 727.04
  Q 212.56 685.49 185.57 630.67
  C 178.31 615.96 171.32 598.97 166.38 582.69
  Q 144.98 512.21 152.85 436.50
  Q 155.07 415.16 158.65 398.90
  Q 177.26 314.28 229.19 247.38
  Q 252.44 217.42 280.40 194.31
  Q 309.07 170.62 341.91 153.54
  Q 390.43 128.31 445.16 120.71
  C 496.96 113.51 550.09 120.60 597.87 140.04
  C 636.39 155.71 671.44 178.91 701.59 209.13
  Q 705.74 213.28 710.30 218.52
  C 713.52 222.22 717.58 226.51 721.50 231.47
  C 749.60 266.94 770.17 308.48 782.62 351.96
  Q 797.51 404.01 795.56 458.07
  C 793.81 506.58 783.24 554.02 762.48 598.24
  C 739.25 647.71 706.19 692.80 663.97 727.43
  Q 658.77 731.70 643.11 743.18
  Q 627.89 754.33 605.10 766.54
  Q 570.85 784.89 531.55 795.00
  Q 480.86 808.04 427.26 802.43
  Q 364.70 795.89 309.03 764.25
  Z
  M 363.85 770.37
  Q 399.55 783.25 437.10 786.82
  Q 460.47 789.04 485.75 786.28
  C 534.44 780.97 581.17 763.98 622.30 737.57
  Q 654.38 716.97 684.88 685.63
  C 689.49 680.89 695.66 673.06 699.15 668.98
  Q 704.04 663.26 709.36 656.07
  C 742.77 610.92 765.47 558.14 774.07 502.38
  Q 777.57 479.70 778.25 461.00
  Q 781.16 381.57 747.55 307.91
  C 741.71 295.12 733.83 281.29 726.06 268.69
  Q 713.22 247.87 696.56 229.44
  C 662.28 191.52 618.08 162.39 568.83 147.62
  Q 543.48 139.49 518.00 136.74
  C 491.42 133.87 463.70 134.52 437.14 139.35
  C 387.39 148.39 338.66 171.31 298.70 201.88
  C 277.52 218.08 259.33 236.44 243.37 257.11
  C 202.42 310.14 176.04 374.35 169.46 440.49
  Q 167.71 458.06 167.42 473.50
  Q 166.51 522.26 180.24 569.78
  Q 187.37 594.45 200.15 620.36
  Q 217.56 655.69 241.29 683.96
  Q 289.49 741.39 358.39 768.61
  Q 361.26 769.74 363.85 770.37
  Z"
/>
<path fill="#00429d" d="
  M 568.83 147.62
  L 568.54 147.91
  A 0.35 0.35 0.0 0 0 568.68 148.49
  Q 636.60 170.27 685.50 219.23
  Q 713.46 247.23 734.65 285.02
  Q 754.87 321.12 765.87 361.10
  C 769.52 374.38 772.27 387.93 773.84 399.69
  Q 775.26 410.32 776.60 426.54
  Q 777.79 440.97 777.43 453.51
  Q 776.62 481.38 773.40 500.27
  C 771.67 510.38 770.92 516.11 769.17 523.73
  Q 754.32 588.18 717.49 643.02
  C 714.73 647.12 711.39 651.45 707.04 657.45
  C 702.28 664.00 697.23 669.61 691.87 676.24
  Q 689.17 679.56 684.60 684.24
  C 676.83 692.18 666.89 702.43 657.03 710.43
  Q 644.16 720.88 640.26 723.78
  Q 589.31 761.76 527.64 777.57
  C 497.65 785.26 465.76 788.77 435.24 785.49
  Q 410.70 782.85 386.12 776.31
  Q 385.25 776.08 375.63 773.18
  Q 369.83 771.43 363.85 770.37
  Q 361.26 769.74 358.39 768.61
  Q 289.49 741.39 241.29 683.96
  Q 217.56 655.69 200.15 620.36
  Q 187.37 594.45 180.24 569.78
  Q 166.51 522.26 167.42 473.50
  Q 167.71 458.06 169.46 440.49
  C 176.04 374.35 202.42 310.14 243.37 257.11
  C 259.33 236.44 277.52 218.08 298.70 201.88
  C 338.66 171.31 387.39 148.39 437.14 139.35
  C 463.70 134.52 491.42 133.87 518.00 136.74
  Q 543.48 139.49 568.83 147.62
  Z
  M 502.71 141.38
  Q 516.69 140.91 526.49 141.73
  Q 534.36 142.39 535.00 142.43
  C 541.49 142.83 547.55 144.25 554.35 145.32
  A 0.21 0.20 8.3 0 0 554.59 145.15
  L 554.60 145.14
  A 0.18 0.18 0.0 0 0 554.45 144.93
  Q 544.98 142.94 540.74 142.07
  C 538.20 141.55 536.26 141.43 533.77 140.72
  Q 531.41 140.05 529.21 140.94
  A 1.90 1.87 -53.9 0 1 528.36 141.08
  L 512.80 140.34
  L 511.74 140.23
  A 0.44 0.44 0.0 0 1 511.34 139.76
  L 511.37 139.29
  A 0.47 0.46 4.4 0 1 511.87 138.87
  L 529.74 140.25
  A 0.06 0.05 0.0 0 0 529.80 140.20
  L 529.82 139.94
  A 0.21 0.21 0.0 0 0 529.64 139.71
  Q 507.21 136.67 493.74 136.23
  Q 462.70 135.21 429.86 141.95
  Q 389.44 150.25 349.28 171.04
  Q 322.56 184.87 299.33 202.86
  Q 292.90 207.83 290.49 209.83
  Q 284.52 214.78 282.02 217.22
  C 276.73 222.39 271.80 226.30 266.76 231.70
  Q 252.15 247.33 242.38 260.13
  Q 222.51 286.16 207.25 316.21
  Q 191.53 347.17 181.03 384.29
  Q 173.68 410.28 170.41 440.51
  Q 167.62 466.28 168.31 492.84
  Q 168.46 498.38 168.95 501.66
  C 170.00 508.76 170.32 516.54 171.39 523.53
  Q 174.54 544.23 178.88 561.11
  Q 186.16 589.42 200.04 617.70
  Q 208.80 635.56 215.07 645.70
  Q 223.36 659.11 236.44 676.32
  Q 241.08 682.44 250.98 693.51
  C 264.55 708.68 279.47 721.48 295.50 733.33
  C 299.67 736.40 305.01 739.41 309.97 742.62
  Q 314.02 745.24 321.10 749.21
  Q 332.64 755.70 335.83 757.26
  Q 340.10 759.35 339.42 759.23
  A 0.19 0.19 0.0 0 1 339.29 758.94
  L 339.44 758.72
  A 0.23 0.22 31.5 0 0 339.36 758.39
  Q 321.49 748.51 305.51 735.84
  Q 298.73 730.46 292.63 723.97
  C 285.92 716.82 278.15 709.39 271.68 701.57
  C 263.07 691.18 254.60 680.74 247.29 669.49
  Q 239.08 656.85 233.06 646.30
  Q 220.85 624.92 212.43 600.35
  Q 208.66 589.37 207.96 586.81
  Q 202.31 566.20 199.31 545.50
  Q 197.44 532.63 196.13 516.21
  Q 194.98 501.64 195.19 486.78
  Q 195.81 442.10 205.67 399.40
  C 210.47 378.62 217.51 357.60 225.85 338.58
  C 235.31 316.99 247.61 295.21 262.34 275.77
  Q 271.19 264.09 273.27 261.51
  Q 289.53 241.34 309.95 222.97
  Q 329.75 205.15 344.01 195.28
  C 389.98 163.48 446.24 142.98 502.71 141.38
  Z
  M 519.42 248.89
  L 496.45 248.89
  A 1.15 1.15 0.0 0 1 495.37 248.14
  Q 492.04 239.17 487.53 225.24
  Q 487.21 224.25 486.54 224.62
  A 0.56 0.48 88.7 0 0 486.31 224.90
  L 478.41 247.28
  A 2.45 2.45 0.0 0 1 476.10 248.91
  L 454.61 248.91
  A 0.96 0.95 62.3 0 0 454.07 250.65
  L 472.20 263.21
  A 1.81 1.80 -64.6 0 1 472.91 265.21
  L 466.46 287.36
  A 0.61 0.61 0.0 0 0 467.41 288.03
  L 485.50 274.67
  A 2.44 2.43 44.2 0 1 488.33 274.63
  L 508.03 288.27
  A 0.58 0.57 -80.5 0 0 508.91 287.64
  Q 505.34 275.15 502.75 267.17
  C 502.27 265.69 501.73 264.54 503.06 263.30
  Q 507.11 259.53 516.63 252.66
  Q 519.32 250.72 519.85 249.56
  A 0.47 0.47 0.0 0 0 519.42 248.89
  Z
  M 611.22 279.81
  L 609.77 279.82
  L 598.48 279.56
  A 1.76 1.74 -8.5 0 1 596.86 278.38
  Q 589.48 257.00 589.34 256.52
  Q 589.24 256.21 588.85 256.07
  Q 588.31 255.86 588.14 256.39
  Q 585.30 264.97 580.12 278.71
  A 2.12 2.12 0.0 0 1 578.12 280.08
  Q 559.66 279.92 557.25 279.87
  Q 555.75 279.85 555.37 280.06
  A 0.71 0.71 0.0 0 0 555.30 281.26
  L 573.94 294.51
  A 1.47 1.46 25.2 0 1 574.51 296.08
  Q 570.79 310.07 567.94 319.26
  Q 567.76 319.83 568.35 319.97
  Q 568.72 320.06 569.07 319.81
  Q 582.24 310.45 587.76 306.54
  A 1.93 1.92 44.7 0 1 589.97 306.53
  L 609.25 319.88
  A 0.57 0.56 -67.7 0 0 610.13 319.51
  Q 610.23 318.98 610.01 318.29
  Q 604.69 301.32 604.09 299.31
  Q 603.07 295.88 605.62 293.94
  Q 614.00 287.56 622.44 281.17
  A 0.64 0.64 0.0 0 0 622.06 280.02
  L 611.22 279.81
  Z
  M 364.05 319.47
  A 0.64 0.64 0.0 0 0 365.06 320.14
  L 381.51 308.00
  A 2.73 2.72 -45.3 0 1 384.72 307.98
  Q 396.00 316.08 403.87 321.03
  A 0.73 0.71 30.4 0 0 404.90 320.78
  Q 405.06 320.49 404.87 319.87
  Q 403.95 316.84 398.13 297.53
  A 1.32 1.30 -26.5 0 1 398.62 296.09
  Q 413.87 285.12 416.00 283.51
  Q 417.01 282.74 417.40 281.58
  A 0.78 0.77 -80.7 0 0 416.67 280.56
  L 393.84 280.56
  A 2.07 2.05 -9.5 0 1 391.89 279.18
  L 384.25 257.18
  A 0.46 0.46 0.0 0 0 383.37 257.19
  L 376.22 279.34
  A 1.66 1.65 8.3 0 1 374.67 280.49
  L 352.62 280.99
  A 0.83 0.82 -14.9 0 0 351.91 282.21
  Q 352.57 283.40 353.92 284.34
  Q 364.29 291.50 368.11 294.15
  Q 370.58 295.87 369.81 298.56
  Q 365.05 315.30 364.05 319.47
  Z
  M 444.20 599.55
  C 476.88 606.13 511.65 601.20 540.18 583.68
  C 575.52 561.98 598.84 526.53 607.06 486.01
  Q 617.20 435.96 596.57 389.72
  Q 593.01 381.74 583.70 368.85
  Q 581.20 363.70 576.84 359.68
  Q 573.25 356.37 573.18 356.31
  Q 541.53 325.38 497.76 318.49
  C 480.87 315.84 466.20 317.39 449.56 321.37
  Q 438.24 324.08 427.57 329.00
  C 395.92 343.57 370.21 368.45 355.57 400.03
  Q 347.14 418.23 343.93 436.41
  Q 338.05 469.69 345.96 504.58
  Q 351.89 530.75 370.34 555.00
  C 372.78 558.20 375.97 560.98 378.56 564.13
  Q 380.29 566.22 384.22 569.66
  Q 392.12 576.54 392.75 576.99
  Q 410.00 589.21 422.09 593.71
  Q 431.21 597.09 441.55 600.01
  Q 444.22 600.76 444.20 599.55
  Z
  M 331.41 400.72
  A 0.39 0.39 0.0 0 0 332.01 400.29
  L 325.56 377.74
  A 2.31 2.30 -26.3 0 1 326.40 375.27
  L 343.43 362.64
  A 0.49 0.39 -85.5 0 0 343.55 362.51
  Q 343.86 362.02 343.88 361.78
  A 0.61 0.61 0.0 0 0 343.29 361.13
  Q 338.51 361.02 321.73 361.05
  Q 318.93 361.06 318.11 358.49
  Q 314.08 345.76 310.87 337.50
  A 0.76 0.67 61.8 0 0 309.80 337.11
  Q 309.68 337.20 309.58 337.57
  Q 306.71 347.95 302.56 359.17
  A 2.67 2.66 10.0 0 1 300.07 360.91
  Q 282.89 360.99 279.75 360.95
  Q 276.95 360.92 278.32 362.59
  A 0.09 0.03 73.2 0 0 278.34 362.62
  L 296.02 375.10
  A 2.13 2.12 25.8 0 1 296.84 377.44
  L 290.51 399.19
  A 0.61 0.61 0.0 0 0 291.46 399.85
  L 309.55 386.50
  A 1.13 1.12 43.9 0 1 310.85 386.48
  L 331.41 400.72
  Z
  M 678.97 400.85
  Q 679.27 399.94 679.01 399.00
  Q 676.09 388.39 673.16 378.95
  A 1.76 1.71 45.9 0 1 673.16 377.92
  Q 673.56 376.57 674.83 375.55
  Q 677.81 373.16 692.00 362.59
  A 0.55 0.55 0.0 0 0 691.68 361.60
  L 668.77 361.60
  A 2.46 2.46 0.0 0 1 666.45 359.96
  L 658.88 338.16
  A 0.67 0.66 -45.8 0 0 657.62 338.18
  L 650.50 360.24
  A 2.03 2.01 9.0 0 1 648.56 361.64
  Q 632.52 361.56 624.77 361.80
  Q 624.43 361.81 624.23 362.03
  A 0.62 0.62 0.0 0 0 624.35 362.96
  Q 632.93 368.77 641.49 375.28
  C 643.47 376.79 643.22 377.88 642.64 380.24
  Q 639.98 391.12 637.28 400.28
  Q 637.09 400.94 637.75 401.15
  Q 638.20 401.28 638.66 400.94
  Q 650.43 391.91 656.91 387.41
  A 1.43 1.42 44.7 0 1 658.54 387.41
  L 678.28 401.08
  A 0.46 0.45 26.0 0 0 678.97 400.85
  Z
  M 597.21 388.58
  Q 603.42 400.10 606.41 412.66
  C 607.14 415.71 608.31 418.44 608.55 421.97
  Q 608.56 422.14 608.88 422.67
  A 1.89 1.88 -58.9 0 1 609.14 423.73
  Q 608.99 426.27 609.95 429.22
  A 3.84 3.69 37.9 0 1 610.12 430.40
  Q 610.08 433.84 611.06 437.96
  A 3.39 3.33 41.3 0 1 611.14 439.05
  Q 610.97 441.09 611.12 442.23
  C 611.86 447.74 612.09 453.00 611.59 458.27
  C 610.98 464.65 610.98 469.73 610.09 476.12
  Q 605.51 508.93 588.33 537.07
  Q 586.22 540.53 578.32 551.55
  Q 576.67 553.85 575.39 555.15
  C 572.62 558.00 570.43 561.30 567.68 563.86
  Q 557.38 573.44 553.29 576.31
  Q 542.72 583.71 538.22 586.28
  Q 516.59 598.62 491.08 602.61
  C 484.57 603.63 478.07 603.38 471.49 603.87
  C 466.42 604.25 461.21 603.60 455.59 603.06
  A 0.21 0.21 0.0 0 0 455.50 603.47
  Q 457.28 604.05 459.66 604.39
  Q 496.40 609.50 529.57 593.82
  Q 556.79 580.95 577.00 558.31
  Q 581.84 552.88 588.04 543.84
  Q 594.69 534.13 597.59 528.33
  Q 621.77 479.85 612.43 427.29
  Q 608.97 407.80 597.69 388.18
  A 0.25 0.25 0.0 0 0 597.36 388.09
  L 597.35 388.10
  A 0.35 0.35 0.0 0 0 597.21 388.58
  Z
  M 293.92 462.75
  A 0.69 0.69 0.0 0 1 293.28 462.29
  L 285.51 439.99
  A 0.69 0.69 0.0 0 0 284.21 440.00
  L 276.60 462.34
  A 0.69 0.69 0.0 0 1 275.96 462.81
  L 252.35 463.31
  A 0.69 0.69 0.0 0 0 251.95 464.55
  L 270.86 478.70
  A 0.69 0.69 0.0 0 1 271.10 479.45
  L 264.28 502.05
  A 0.69 0.69 0.0 0 0 265.34 502.81
  L 284.64 489.21
  A 0.69 0.69 0.0 0 1 285.43 489.21
  L 304.82 502.68
  A 0.69 0.69 0.0 0 0 305.87 501.91
  L 298.89 479.35
  A 0.69 0.69 0.0 0 1 299.13 478.60
  L 317.94 464.32
  A 0.69 0.69 0.0 0 0 317.53 463.08
  L 293.92 462.75
  Z
  M 690.08 466.45
  A 0.86 0.86 0.0 0 1 689.28 465.87
  L 681.70 443.83
  A 0.86 0.86 0.0 0 0 680.08 443.83
  L 672.58 465.90
  A 0.86 0.86 0.0 0 1 671.78 466.48
  L 648.48 466.88
  A 0.86 0.86 0.0 0 0 647.98 468.42
  L 666.64 482.38
  A 0.86 0.86 0.0 0 1 666.95 483.32
  L 660.13 505.60
  A 0.86 0.86 0.0 0 0 661.44 506.55
  L 680.48 493.11
  A 0.86 0.86 0.0 0 1 681.47 493.11
  L 700.55 506.49
  A 0.86 0.86 0.0 0 0 701.87 505.53
  L 694.97 483.27
  A 0.86 0.86 0.0 0 1 695.27 482.33
  L 713.89 468.31
  A 0.86 0.86 0.0 0 0 713.38 466.76
  L 690.08 466.45
  Z
  M 339.57 565.59
  A 0.65 0.65 0.0 0 0 338.98 564.67
  L 316.96 564.67
  A 2.87 2.87 0.0 0 1 314.25 562.74
  L 306.87 541.49
  A 0.87 0.87 0.0 0 0 305.23 541.51
  L 298.13 563.54
  A 2.02 2.02 0.0 0 1 296.21 564.94
  L 272.21 564.94
  A 0.63 0.63 0.0 0 0 271.84 566.07
  L 290.87 580.03
  A 2.40 2.39 26.2 0 1 291.76 582.62
  Q 287.73 596.84 286.05 603.27
  Q 285.93 603.73 286.02 604.14
  A 0.47 0.47 0.0 0 0 286.77 604.40
  Q 294.23 598.56 304.52 591.49
  Q 306.02 590.46 308.08 591.89
  Q 320.28 600.36 326.87 605.11
  A 0.58 0.58 0.0 0 0 327.77 604.48
  Q 325.06 595.03 321.31 583.16
  Q 320.40 580.28 322.72 578.72
  Q 329.72 574.01 338.74 566.73
  Q 339.23 566.33 339.57 565.59
  Z
  M 626.69 610.05
  L 645.06 596.49
  A 2.12 2.11 -45.8 0 1 647.52 596.45
  L 667.50 610.29
  A 0.34 0.34 0.0 0 0 668.02 610.11
  Q 668.35 609.07 667.93 607.57
  Q 665.57 599.16 662.03 588.25
  A 2.52 2.51 62.9 0 1 662.93 585.46
  L 680.10 572.78
  A 0.73 0.73 0.0 0 0 679.67 571.46
  L 656.62 571.46
  A 1.29 1.29 0.0 0 1 655.40 570.59
  L 647.33 547.35
  A 0.52 0.51 -44.9 0 0 646.36 547.35
  L 638.39 569.91
  A 1.81 1.80 9.5 0 1 636.68 571.12
  L 613.85 571.12
  A 0.56 0.55 70.7 0 0 613.42 572.02
  Q 614.03 572.80 615.25 573.75
  Q 617.26 575.32 630.54 584.76
  Q 632.67 586.27 631.87 589.07
  Q 628.55 600.76 625.88 609.48
  A 0.52 0.52 0.0 0 0 626.69 610.05
  Z
  M 358.58 682.16
  A 0.60 0.59 -18.0 0 0 359.53 682.64
  Q 371.06 674.06 377.31 669.54
  Q 378.97 668.34 380.83 669.68
  Q 391.31 677.25 398.32 681.80
  A 0.54 0.54 0.0 0 0 399.13 681.49
  Q 399.31 680.78 399.06 679.74
  Q 396.46 669.26 393.20 659.10
  A 2.25 2.25 0.0 0 1 394.00 656.61
  L 411.54 643.67
  A 0.76 0.76 0.0 0 0 411.09 642.30
  L 389.22 642.30
  A 2.46 2.45 -9.5 0 1 386.90 640.65
  L 379.04 618.01
  A 0.37 0.37 0.0 0 0 378.34 618.02
  L 370.96 640.89
  A 1.57 1.55 8.3 0 1 369.50 641.97
  L 346.83 642.49
  A 0.73 0.73 0.0 0 0 346.27 643.67
  Q 346.48 643.94 347.09 644.43
  Q 351.78 648.19 363.30 656.25
  Q 365.48 657.78 364.78 660.23
  Q 361.57 671.42 358.94 679.97
  Q 358.59 681.09 358.58 682.16
  Z
  M 571.07 619.28
  L 563.58 642.52
  A 1.22 1.22 0.0 0 1 562.45 643.36
  L 539.30 643.88
  A 0.37 0.36 -2.3 0 0 538.94 644.26
  Q 538.96 644.71 539.28 644.98
  Q 545.11 649.88 552.59 654.92
  Q 554.20 656.00 556.64 658.11
  Q 558.37 659.60 557.73 661.70
  Q 556.71 665.03 551.45 682.98
  Q 551.20 683.83 551.29 684.11
  A 0.51 0.51 0.0 0 0 552.08 684.37
  L 570.88 670.49
  A 2.50 2.49 -45.9 0 1 573.79 670.44
  L 593.11 683.82
  A 0.38 0.38 0.0 0 0 593.70 683.41
  Q 591.36 674.60 587.45 662.02
  Q 586.66 659.48 588.45 658.19
  Q 599.93 649.92 605.27 645.28
  Q 605.91 644.73 606.03 644.53
  A 0.51 0.51 0.0 0 0 605.60 643.75
  L 581.13 643.68
  A 0.86 0.84 80.3 0 1 580.33 643.10
  L 572.05 619.27
  A 0.52 0.52 0.0 0 0 571.07 619.28
  Z
  M 483.72 673.24
  A 0.44 0.44 0.0 0 1 483.31 672.94
  L 475.07 649.52
  A 0.44 0.44 0.0 0 0 474.24 649.52
  L 466.32 673.06
  A 0.44 0.44 0.0 0 1 465.91 673.36
  L 441.08 673.97
  A 0.44 0.44 0.0 0 0 440.83 674.76
  L 460.77 689.56
  A 0.44 0.44 0.0 0 1 460.93 690.04
  L 453.83 713.84
  A 0.44 0.44 0.0 0 0 454.51 714.33
  L 474.75 699.94
  A 0.44 0.44 0.0 0 1 475.26 699.93
  L 495.70 714.04
  A 0.44 0.44 0.0 0 0 496.37 713.55
  L 488.94 689.85
  A 0.44 0.44 0.0 0 1 489.09 689.37
  L 508.82 674.28
  A 0.44 0.44 0.0 0 0 508.56 673.49
  L 483.72 673.24
  Z"
/>
<path fill="#002460" d="
  M 512.80 140.34
  L 502.27 140.49
  A 0.28 0.27 -37.7 0 0 502.20 141.03
  Q 502.43 141.09 502.71 141.38
  C 446.24 142.98 389.98 163.48 344.01 195.28
  Q 329.75 205.15 309.95 222.97
  Q 289.53 241.34 273.27 261.51
  Q 271.19 264.09 262.34 275.77
  C 247.61 295.21 235.31 316.99 225.85 338.58
  C 217.51 357.60 210.47 378.62 205.67 399.40
  Q 195.81 442.10 195.19 486.78
  Q 194.98 501.64 196.13 516.21
  Q 197.44 532.63 199.31 545.50
  Q 202.31 566.20 207.96 586.81
  Q 208.66 589.37 212.43 600.35
  Q 220.85 624.92 233.06 646.30
  Q 239.08 656.85 247.29 669.49
  C 254.60 680.74 263.07 691.18 271.68 701.57
  C 278.15 709.39 285.92 716.82 292.63 723.97
  Q 298.73 730.46 305.51 735.84
  Q 321.49 748.51 339.36 758.39
  A 0.23 0.22 31.5 0 1 339.44 758.72
  L 339.29 758.94
  A 0.19 0.19 0.0 0 0 339.42 759.23
  Q 340.10 759.35 335.83 757.26
  Q 332.64 755.70 321.10 749.21
  Q 314.02 745.24 309.97 742.62
  C 305.01 739.41 299.67 736.40 295.50 733.33
  C 279.47 721.48 264.55 708.68 250.98 693.51
  Q 241.08 682.44 236.44 676.32
  Q 223.36 659.11 215.07 645.70
  Q 208.80 635.56 200.04 617.70
  Q 186.16 589.42 178.88 561.11
  Q 174.54 544.23 171.39 523.53
  C 170.32 516.54 170.00 508.76 168.95 501.66
  Q 168.46 498.38 168.31 492.84
  Q 167.62 466.28 170.41 440.51
  Q 173.68 410.28 181.03 384.29
  Q 191.53 347.17 207.25 316.21
  Q 222.51 286.16 242.38 260.13
  Q 252.15 247.33 266.76 231.70
  C 271.80 226.30 276.73 222.39 282.02 217.22
  Q 284.52 214.78 290.49 209.83
  Q 292.90 207.83 299.33 202.86
  Q 322.56 184.87 349.28 171.04
  Q 389.44 150.25 429.86 141.95
  Q 462.70 135.21 493.74 136.23
  Q 507.21 136.67 529.64 139.71
  A 0.21 0.21 0.0 0 1 529.82 139.94
  L 529.80 140.20
  A 0.06 0.05 0.0 0 1 529.74 140.25
  L 511.87 138.87
  A 0.47 0.46 4.4 0 0 511.37 139.29
  L 511.34 139.76
  A 0.44 0.44 0.0 0 0 511.74 140.23
  L 512.80 140.34
  Z"
/>
<path fill="#000003" d="
  M 502.71 141.38
  Q 502.43 141.09 502.20 141.03
  A 0.28 0.27 -37.7 0 1 502.27 140.49
  L 512.80 140.34
  L 528.36 141.08
  A 1.90 1.87 -53.9 0 0 529.21 140.94
  Q 531.41 140.05 533.77 140.72
  C 536.26 141.43 538.20 141.55 540.74 142.07
  Q 544.98 142.94 554.45 144.93
  A 0.18 0.18 0.0 0 1 554.60 145.14
  L 554.59 145.15
  A 0.21 0.20 8.3 0 1 554.35 145.32
  C 547.55 144.25 541.49 142.83 535.00 142.43
  Q 534.36 142.39 526.49 141.73
  Q 516.69 140.91 502.71 141.38
  Z"
/>
<path fill="#002460" d="
  M 518.96 846.60
  C 522.68 845.59 528.66 845.14 532.99 844.27
  Q 553.63 840.12 570.29 834.51
  C 584.90 829.58 602.44 823.04 617.09 815.39
  Q 652.85 796.72 680.95 775.43
  Q 720.20 745.69 750.57 708.34
  Q 767.93 687.00 784.69 660.46
  Q 788.64 654.21 799.56 633.86
  C 817.40 600.60 829.95 564.75 837.69 527.73
  Q 840.57 513.97 841.98 503.00
  Q 846.85 465.40 845.90 429.77
  C 845.64 419.97 844.67 410.70 843.95 401.64
  Q 843.60 397.24 842.66 390.44
  Q 835.18 336.10 811.08 283.19
  C 794.43 246.63 773.22 212.70 746.39 183.40
  Q 730.52 166.07 712.78 150.48
  Q 711.91 149.72 700.95 140.85
  A 0.29 0.28 -52.5 0 1 700.90 140.46
  L 700.91 140.45
  A 0.20 0.20 0.0 0 1 701.18 140.39
  C 720.30 151.66 738.86 163.78 754.45 177.70
  Q 779.34 199.93 799.15 225.13
  C 818.06 249.19 835.28 277.09 847.86 305.89
  Q 866.26 348.06 874.37 391.82
  Q 876.59 403.82 878.35 421.31
  C 880.01 437.72 881.03 453.44 880.45 469.84
  Q 880.16 478.04 879.48 488.65
  C 875.47 550.77 857.39 610.39 824.91 663.90
  C 803.25 699.59 777.28 732.02 746.72 758.68
  Q 725.15 777.50 696.31 795.55
  Q 670.08 811.97 640.31 823.03
  Q 606.36 835.64 570.94 841.91
  Q 555.69 844.61 543.52 845.45
  Q 530.14 846.37 522.76 846.93
  Q 519.40 847.19 518.96 847.08
  A 0.25 0.25 0.0 0 1 518.96 846.60
  Z"
/>
<path fill="#066ceb" d="
  M 568.83 147.62
  C 618.08 162.39 662.28 191.52 696.56 229.44
  Q 713.22 247.87 726.06 268.69
  C 733.83 281.29 741.71 295.12 747.55 307.91
  Q 781.16 381.57 778.25 461.00
  Q 777.57 479.70 774.07 502.38
  C 765.47 558.14 742.77 610.92 709.36 656.07
  Q 704.04 663.26 699.15 668.98
  C 695.66 673.06 689.49 680.89 684.88 685.63
  Q 654.38 716.97 622.30 737.57
  C 581.17 763.98 534.44 780.97 485.75 786.28
  Q 460.47 789.04 437.10 786.82
  Q 399.55 783.25 363.85 770.37
  Q 369.83 771.43 375.63 773.18
  Q 385.25 776.08 386.12 776.31
  Q 410.70 782.85 435.24 785.49
  C 465.76 788.77 497.65 785.26 527.64 777.57
  Q 589.31 761.76 640.26 723.78
  Q 644.16 720.88 657.03 710.43
  C 666.89 702.43 676.83 692.18 684.60 684.24
  Q 689.17 679.56 691.87 676.24
  C 697.23 669.61 702.28 664.00 707.04 657.45
  C 711.39 651.45 714.73 647.12 717.49 643.02
  Q 754.32 588.18 769.17 523.73
  C 770.92 516.11 771.67 510.38 773.40 500.27
  Q 776.62 481.38 777.43 453.51
  Q 777.79 440.97 776.60 426.54
  Q 775.26 410.32 773.84 399.69
  C 772.27 387.93 769.52 374.38 765.87 361.10
  Q 754.87 321.12 734.65 285.02
  Q 713.46 247.23 685.50 219.23
  Q 636.60 170.27 568.68 148.49
  A 0.35 0.35 0.0 0 1 568.54 147.91
  L 568.83 147.62
  Z"
/>
<path fill="#fdd717" d="
  M 519.85 249.56
  Q 519.32 250.72 516.63 252.66
  Q 507.11 259.53 503.06 263.30
  C 501.73 264.54 502.27 265.69 502.75 267.17
  Q 505.34 275.15 508.91 287.64
  A 0.58 0.57 -80.5 0 1 508.03 288.27
  L 488.33 274.63
  A 2.44 2.43 44.2 0 0 485.50 274.67
  L 467.41 288.03
  A 0.61 0.61 0.0 0 1 466.46 287.36
  L 472.91 265.21
  A 1.81 1.80 -64.6 0 0 472.20 263.21
  L 454.07 250.65
  A 0.96 0.95 62.3 0 1 454.61 248.91
  L 476.10 248.91
  A 2.45 2.45 0.0 0 0 478.41 247.28
  L 486.31 224.90
  A 0.56 0.48 88.7 0 1 486.54 224.62
  Q 487.21 224.25 487.53 225.24
  Q 492.04 239.17 495.37 248.14
  A 1.15 1.15 0.0 0 0 496.45 248.89
  L 519.42 248.89
  A 0.47 0.47 0.0 0 1 519.85 249.56
  Z"
/>
<path fill="#fdd717" d="
  M 609.77 279.82
  L 611.22 279.81
  L 622.06 280.02
  A 0.64 0.64 0.0 0 1 622.44 281.17
  Q 614.00 287.56 605.62 293.94
  Q 603.07 295.88 604.09 299.31
  Q 604.69 301.32 610.01 318.29
  Q 610.23 318.98 610.13 319.51
  A 0.57 0.56 -67.7 0 1 609.25 319.88
  L 589.97 306.53
  A 1.93 1.92 44.7 0 0 587.76 306.54
  Q 582.24 310.45 569.07 319.81
  Q 568.72 320.06 568.35 319.97
  Q 567.76 319.83 567.94 319.26
  Q 570.79 310.07 574.51 296.08
  A 1.47 1.46 25.2 0 0 573.94 294.51
  L 555.30 281.26
  A 0.71 0.71 0.0 0 1 555.37 280.06
  Q 555.75 279.85 557.25 279.87
  Q 559.66 279.92 578.12 280.08
  A 2.12 2.12 0.0 0 0 580.12 278.71
  Q 585.30 264.97 588.14 256.39
  Q 588.31 255.86 588.85 256.07
  Q 589.24 256.21 589.34 256.52
  Q 589.48 257.00 596.86 278.38
  A 1.76 1.74 -8.5 0 0 598.48 279.56
  L 609.77 279.82
  Z"
/>
<path fill="#fdd717" d="
  M 364.05 319.47
  Q 365.05 315.30 369.81 298.56
  Q 370.58 295.87 368.11 294.15
  Q 364.29 291.50 353.92 284.34
  Q 352.57 283.40 351.91 282.21
  A 0.83 0.82 -14.9 0 1 352.62 280.99
  L 374.67 280.49
  A 1.66 1.65 8.3 0 0 376.22 279.34
  L 383.37 257.19
  A 0.46 0.46 0.0 0 1 384.25 257.18
  L 391.89 279.18
  A 2.07 2.05 -9.5 0 0 393.84 280.56
  L 416.67 280.56
  A 0.78 0.77 -80.7 0 1 417.40 281.58
  Q 417.01 282.74 416.00 283.51
  Q 413.87 285.12 398.62 296.09
  A 1.32 1.30 -26.5 0 0 398.13 297.53
  Q 403.95 316.84 404.87 319.87
  Q 405.06 320.49 404.90 320.78
  A 0.73 0.71 30.4 0 1 403.87 321.03
  Q 396.00 316.08 384.72 307.98
  A 2.73 2.72 -45.3 0 0 381.51 308.00
  L 365.06 320.14
  A 0.64 0.64 0.0 0 1 364.05 319.47
  Z"
/>
<path fill="#002460" d="
  M 611.22 279.81
  L 609.77 279.82
  L 611.22 279.81
  Z"
/>
<path fill="#066ceb" d="
  M 583.70 368.85
  Q 572.98 356.61 563.47 348.77
  C 541.13 330.37 511.45 318.63 482.47 318.43
  Q 451.58 318.22 423.35 332.36
  Q 378.12 355.02 356.52 400.26
  Q 347.01 420.19 344.19 441.22
  Q 341.31 462.66 343.71 485.75
  C 349.63 542.70 388.61 586.72 444.20 599.55
  Q 444.22 600.76 441.55 600.01
  Q 431.21 597.09 422.09 593.71
  Q 410.00 589.21 392.75 576.99
  Q 392.12 576.54 384.22 569.66
  Q 380.29 566.22 378.56 564.13
  C 375.97 560.98 372.78 558.20 370.34 555.00
  Q 351.89 530.75 345.96 504.58
  Q 338.05 469.69 343.93 436.41
  Q 347.14 418.23 355.57 400.03
  C 370.21 368.45 395.92 343.57 427.57 329.00
  Q 438.24 324.08 449.56 321.37
  C 466.20 317.39 480.87 315.84 497.76 318.49
  Q 541.53 325.38 573.18 356.31
  Q 573.25 356.37 576.84 359.68
  Q 581.20 363.70 583.70 368.85
  Z"
/>
<path fill="#000003" d="
  M 583.70 368.85
  Q 593.01 381.74 596.57 389.72
  Q 617.20 435.96 607.06 486.01
  C 598.84 526.53 575.52 561.98 540.18 583.68
  C 511.65 601.20 476.88 606.13 444.20 599.55
  C 388.61 586.72 349.63 542.70 343.71 485.75
  Q 341.31 462.66 344.19 441.22
  Q 347.01 420.19 356.52 400.26
  Q 378.12 355.02 423.35 332.36
  Q 451.58 318.22 482.47 318.43
  C 511.45 318.63 541.13 330.37 563.47 348.77
  Q 572.98 356.61 583.70 368.85
  Z
  M 392.49 378.99
  C 373.55 400.56 361.89 427.80 360.29 456.24
  Q 359.73 466.24 360.14 476.90
  Q 361.36 508.83 378.32 535.06
  C 394.14 559.55 419.35 575.48 448.64 580.52
  Q 467.83 583.82 485.37 581.81
  Q 522.17 577.58 549.28 552.03
  C 578.92 524.10 593.27 484.53 591.47 444.05
  Q 590.30 417.92 580.08 397.54
  Q 563.80 365.08 530.81 348.09
  C 512.42 338.62 493.44 335.65 473.74 337.05
  C 442.50 339.29 413.22 355.38 392.49 378.99
  Z"
/>
<path fill="#066ceb" d="
  M 392.49 378.99
  C 413.22 355.38 442.50 339.29 473.74 337.05
  C 493.44 335.65 512.42 338.62 530.81 348.09
  Q 563.80 365.08 580.08 397.54
  Q 590.30 417.92 591.47 444.05
  C 593.27 484.53 578.92 524.10 549.28 552.03
  Q 522.17 577.58 485.37 581.81
  Q 467.83 583.82 448.64 580.52
  C 419.35 575.48 394.14 559.55 378.32 535.06
  Q 361.36 508.83 360.14 476.90
  Q 359.73 466.24 360.29 456.24
  C 361.89 427.80 373.55 400.56 392.49 378.99
  Z
  M 393.21 379.67
  C 374.44 401.05 362.89 428.05 361.31 456.24
  Q 360.75 466.15 361.16 476.71
  Q 362.38 508.36 379.19 534.35
  C 394.88 558.62 419.86 574.41 448.89 579.40
  Q 467.91 582.66 485.30 580.67
  Q 521.77 576.47 548.63 551.14
  C 578.01 523.45 592.22 484.23 590.43 444.11
  Q 589.26 418.22 579.13 398.02
  Q 562.99 365.85 530.29 349.02
  C 512.06 339.64 493.25 336.70 473.73 338.09
  C 442.76 340.31 413.75 356.27 393.21 379.67
  Z"
/>
<path fill="#fdd717" d="
  M 331.41 400.72
  L 310.85 386.48
  A 1.13 1.12 43.9 0 0 309.55 386.50
  L 291.46 399.85
  A 0.61 0.61 0.0 0 1 290.51 399.19
  L 296.84 377.44
  A 2.13 2.12 25.8 0 0 296.02 375.10
  L 278.34 362.62
  A 0.09 0.03 73.2 0 1 278.32 362.59
  Q 276.95 360.92 279.75 360.95
  Q 282.89 360.99 300.07 360.91
  A 2.67 2.66 10.0 0 0 302.56 359.17
  Q 306.71 347.95 309.58 337.57
  Q 309.68 337.20 309.80 337.11
  A 0.76 0.67 61.8 0 1 310.87 337.50
  Q 314.08 345.76 318.11 358.49
  Q 318.93 361.06 321.73 361.05
  Q 338.51 361.02 343.29 361.13
  A 0.61 0.61 0.0 0 1 343.88 361.78
  Q 343.86 362.02 343.55 362.51
  A 0.49 0.39 -85.5 0 1 343.43 362.64
  L 326.40 375.27
  A 2.31 2.30 -26.3 0 0 325.56 377.74
  L 332.01 400.29
  A 0.39 0.39 0.0 0 1 331.41 400.72
  Z"
/>
<path fill="#fdd717" d="
  M 678.97 400.85
  A 0.46 0.45 26.0 0 1 678.28 401.08
  L 658.54 387.41
  A 1.43 1.42 44.7 0 0 656.91 387.41
  Q 650.43 391.91 638.66 400.94
  Q 638.20 401.28 637.75 401.15
  Q 637.09 400.94 637.28 400.28
  Q 639.98 391.12 642.64 380.24
  C 643.22 377.88 643.47 376.79 641.49 375.28
  Q 632.93 368.77 624.35 362.96
  A 0.62 0.62 0.0 0 1 624.23 362.03
  Q 624.43 361.81 624.77 361.80
  Q 632.52 361.56 648.56 361.64
  A 2.03 2.01 9.0 0 0 650.50 360.24
  L 657.62 338.18
  A 0.67 0.66 -45.8 0 1 658.88 338.16
  L 666.45 359.96
  A 2.46 2.46 0.0 0 0 668.77 361.60
  L 691.68 361.60
  A 0.55 0.55 0.0 0 1 692.00 362.59
  Q 677.81 373.16 674.83 375.55
  Q 673.56 376.57 673.16 377.92
  A 1.76 1.71 45.9 0 0 673.16 378.95
  Q 676.09 388.39 679.01 399.00
  Q 679.27 399.94 678.97 400.85
  Z"
/>
<path fill="#00429d" d="
  M 393.21 379.67
  C 413.75 356.27 442.76 340.31 473.73 338.09
  C 493.25 336.70 512.06 339.64 530.29 349.02
  Q 562.99 365.85 579.13 398.02
  Q 589.26 418.22 590.43 444.11
  C 592.22 484.23 578.01 523.45 548.63 551.14
  Q 521.77 576.47 485.30 580.67
  Q 467.91 582.66 448.89 579.40
  C 419.86 574.41 394.88 558.62 379.19 534.35
  Q 362.38 508.36 361.16 476.71
  Q 360.75 466.15 361.31 456.24
  C 362.89 428.05 374.44 401.05 393.21 379.67
  Z
  M 557.20 452.60
  C 556.98 440.55 555.95 428.09 549.94 417.06
  C 542.91 404.16 530.68 393.21 517.96 385.64
  C 494.49 371.67 467.63 370.11 443.01 381.81
  Q 429.82 388.07 419.02 399.21
  Q 398.09 420.79 393.27 448.54
  C 389.04 472.95 394.33 497.93 409.41 517.60
  C 424.97 537.90 447.73 547.70 473.47 546.36
  C 488.93 545.56 505.47 540.62 518.22 531.21
  Q 525.28 526.00 530.14 520.66
  Q 534.83 515.52 539.34 509.87
  C 552.07 493.93 557.56 472.74 557.20 452.60
  Z"
/>
<path fill="#066ceb" d="
  M 549.94 417.06
  C 555.95 428.09 556.98 440.55 557.20 452.60
  C 557.56 472.74 552.07 493.93 539.34 509.87
  Q 534.83 515.52 530.14 520.66
  Q 525.28 526.00 518.22 531.21
  C 505.47 540.62 488.93 545.56 473.47 546.36
  C 447.73 547.70 424.97 537.90 409.41 517.60
  C 394.33 497.93 389.04 472.95 393.27 448.54
  Q 398.09 420.79 419.02 399.21
  Q 429.82 388.07 443.01 381.81
  C 467.63 370.11 494.49 371.67 517.96 385.64
  C 530.68 393.21 542.91 404.16 549.94 417.06
  Z
  M 556.18 452.71
  C 555.97 440.81 554.95 428.51 549.01 417.61
  C 542.07 404.88 529.99 394.06 517.43 386.59
  C 494.26 372.79 467.73 371.25 443.42 382.80
  Q 430.39 388.99 419.73 399.99
  Q 399.06 421.30 394.30 448.70
  C 390.12 472.81 395.35 497.48 410.24 516.90
  C 425.60 536.95 448.08 546.63 473.50 545.30
  C 488.77 544.51 505.10 539.63 517.69 530.34
  Q 524.66 525.20 529.46 519.92
  Q 534.09 514.85 538.55 509.27
  C 551.12 493.53 556.54 472.60 556.18 452.71
  Z"
/>
<path fill="#000003" d="
  M 556.18 452.71
  C 556.54 472.60 551.12 493.53 538.55 509.27
  Q 534.09 514.85 529.46 519.92
  Q 524.66 525.20 517.69 530.34
  C 505.10 539.63 488.77 544.51 473.50 545.30
  C 448.08 546.63 425.60 536.95 410.24 516.90
  C 395.35 497.48 390.12 472.81 394.30 448.70
  Q 399.06 421.30 419.73 399.99
  Q 430.39 388.99 443.42 382.80
  C 467.73 371.25 494.26 372.79 517.43 386.59
  C 529.99 394.06 542.07 404.88 549.01 417.61
  C 554.95 428.51 555.97 440.81 556.18 452.71
  Z
  M 437.34 473.29
  L 437.92 462.55
  Q 441.77 430.65 465.14 410.15
  Q 472.09 404.05 481.76 400.42
  L 485.56 398.73
  L 490.08 397.67
  A 0.34 0.34 0.0 0 0 490.05 397.01
  C 470.68 394.14 451.28 394.71 435.75 408.06
  C 414.36 426.46 407.69 453.58 413.72 480.77
  Q 415.96 490.88 421.33 499.84
  C 427.88 510.79 439.66 518.80 451.19 523.88
  A 0.16 0.16 0.0 0 0 451.39 523.64
  Q 442.30 511.07 439.27 495.28
  Q 437.19 484.41 437.34 473.29
  Z
  M 480.34 521.74
  C 491.79 523.57 502.38 520.35 511.40 513.17
  C 524.51 502.72 532.51 488.19 535.01 471.75
  Q 536.78 460.13 535.16 449.54
  C 533.82 440.80 531.85 432.54 527.69 425.32
  Q 524.20 419.28 520.83 416.48
  C 512.25 409.34 501.02 410.52 490.83 414.59
  Q 478.01 419.72 469.32 430.54
  Q 460.42 441.61 456.42 458.47
  C 455.83 460.95 455.91 462.93 455.23 465.87
  A 7.46 6.97 54.3 0 0 455.04 467.34
  Q 454.82 477.79 456.45 486.82
  C 458.45 497.98 467.00 519.62 480.34 521.74
  Z"
/>
<path fill="#002460" d="
  M 597.21 388.58
  A 0.35 0.35 0.0 0 1 597.35 388.10
  L 597.36 388.09
  A 0.25 0.25 0.0 0 1 597.69 388.18
  Q 608.97 407.80 612.43 427.29
  Q 621.77 479.85 597.59 528.33
  Q 594.69 534.13 588.04 543.84
  Q 581.84 552.88 577.00 558.31
  Q 556.79 580.95 529.57 593.82
  Q 496.40 609.50 459.66 604.39
  Q 457.28 604.05 455.50 603.47
  A 0.21 0.21 0.0 0 1 455.59 603.06
  C 461.21 603.60 466.42 604.25 471.49 603.87
  C 478.07 603.38 484.57 603.63 491.08 602.61
  Q 516.59 598.62 538.22 586.28
  Q 542.72 583.71 553.29 576.31
  Q 557.38 573.44 567.68 563.86
  C 570.43 561.30 572.62 558.00 575.39 555.15
  Q 576.67 553.85 578.32 551.55
  Q 586.22 540.53 588.33 537.07
  Q 605.51 508.93 610.09 476.12
  C 610.98 469.73 610.98 464.65 611.59 458.27
  C 612.09 453.00 611.86 447.74 611.12 442.23
  Q 610.97 441.09 611.14 439.05
  A 3.39 3.33 41.3 0 0 611.06 437.96
  Q 610.08 433.84 610.12 430.40
  A 3.84 3.69 37.9 0 0 609.95 429.22
  Q 608.99 426.27 609.14 423.73
  A 1.89 1.88 -58.9 0 0 608.88 422.67
  Q 608.56 422.14 608.55 421.97
  C 608.31 418.44 607.14 415.71 606.41 412.66
  Q 603.42 400.10 597.21 388.58
  Z"
/>
<path fill="#00429d" d="
  M 485.56 398.73
  Q 484.71 398.84 484.57 397.81
  A 0.63 0.63 0.0 0 0 484.03 397.28
  Q 467.11 395.33 451.84 399.82
  Q 447.60 401.07 440.80 405.44
  C 436.33 408.32 430.77 414.13 428.06 417.31
  C 416.26 431.17 410.63 452.05 413.04 470.04
  C 414.41 480.23 416.41 487.83 421.02 496.87
  C 426.44 507.49 435.45 514.65 445.92 520.17
  A 0.60 0.60 0.0 0 0 446.78 519.48
  Q 445.94 516.48 444.66 514.06
  C 441.10 507.32 438.89 500.30 437.80 492.51
  Q 436.19 481.06 436.35 472.53
  A 0.47 0.27 75.5 0 1 436.39 472.39
  Q 436.58 472.04 436.92 472.09
  A 0.26 0.24 0.3 0 1 437.13 472.29
  L 437.34 473.29
  Q 437.19 484.41 439.27 495.28
  Q 442.30 511.07 451.39 523.64
  A 0.16 0.16 0.0 0 1 451.19 523.88
  C 439.66 518.80 427.88 510.79 421.33 499.84
  Q 415.96 490.88 413.72 480.77
  C 407.69 453.58 414.36 426.46 435.75 408.06
  C 451.28 394.71 470.68 394.14 490.05 397.01
  A 0.34 0.34 0.0 0 1 490.08 397.67
  L 485.56 398.73
  Z"
/>
<path fill="#002460" d="
  M 485.56 398.73
  L 481.76 400.42
  Q 481.89 399.84 481.65 399.61
  Q 481.43 399.41 480.89 399.63
  Q 472.20 403.13 465.76 408.28
  Q 461.43 411.74 455.63 418.10
  C 453.42 420.52 451.93 423.65 449.91 426.38
  Q 447.85 429.15 445.93 432.82
  Q 440.83 442.62 438.36 454.00
  Q 437.35 458.63 437.92 462.55
  L 437.34 473.29
  L 437.13 472.29
  A 0.26 0.24 0.3 0 0 436.92 472.09
  Q 436.58 472.04 436.39 472.39
  A 0.47 0.27 75.5 0 0 436.35 472.53
  Q 436.19 481.06 437.80 492.51
  C 438.89 500.30 441.10 507.32 444.66 514.06
  Q 445.94 516.48 446.78 519.48
  A 0.60 0.60 0.0 0 1 445.92 520.17
  C 435.45 514.65 426.44 507.49 421.02 496.87
  C 416.41 487.83 414.41 480.23 413.04 470.04
  C 410.63 452.05 416.26 431.17 428.06 417.31
  C 430.77 414.13 436.33 408.32 440.80 405.44
  Q 447.60 401.07 451.84 399.82
  Q 467.11 395.33 484.03 397.28
  A 0.63 0.63 0.0 0 1 484.57 397.81
  Q 484.71 398.84 485.56 398.73
  Z"
/>
<path fill="#00429d" d="
  M 481.76 400.42
  Q 472.09 404.05 465.14 410.15
  Q 441.77 430.65 437.92 462.55
  Q 437.35 458.63 438.36 454.00
  Q 440.83 442.62 445.93 432.82
  Q 447.85 429.15 449.91 426.38
  C 451.93 423.65 453.42 420.52 455.63 418.10
  Q 461.43 411.74 465.76 408.28
  Q 472.20 403.13 480.89 399.63
  Q 481.43 399.41 481.65 399.61
  Q 481.89 399.84 481.76 400.42
  Z"
/>
<path fill="#fdd717" d="
  M 293.92 462.75
  L 317.53 463.08
  A 0.69 0.69 0.0 0 1 317.94 464.32
  L 299.13 478.60
  A 0.69 0.69 0.0 0 0 298.89 479.35
  L 305.87 501.91
  A 0.69 0.69 0.0 0 1 304.82 502.68
  L 285.43 489.21
  A 0.69 0.69 0.0 0 0 284.64 489.21
  L 265.34 502.81
  A 0.69 0.69 0.0 0 1 264.28 502.05
  L 271.10 479.45
  A 0.69 0.69 0.0 0 0 270.86 478.70
  L 251.95 464.55
  A 0.69 0.69 0.0 0 1 252.35 463.31
  L 275.96 462.81
  A 0.69 0.69 0.0 0 0 276.60 462.34
  L 284.21 440.00
  A 0.69 0.69 0.0 0 1 285.51 439.99
  L 293.28 462.29
  A 0.69 0.69 0.0 0 0 293.92 462.75
  Z"
/>
<path fill="#fdd717" d="
  M 690.08 466.45
  L 713.38 466.76
  A 0.86 0.86 0.0 0 1 713.89 468.31
  L 695.27 482.33
  A 0.86 0.86 0.0 0 0 694.97 483.27
  L 701.87 505.53
  A 0.86 0.86 0.0 0 1 700.55 506.49
  L 681.47 493.11
  A 0.86 0.86 0.0 0 0 680.48 493.11
  L 661.44 506.55
  A 0.86 0.86 0.0 0 1 660.13 505.60
  L 666.95 483.32
  A 0.86 0.86 0.0 0 0 666.64 482.38
  L 647.98 468.42
  A 0.86 0.86 0.0 0 1 648.48 466.88
  L 671.78 466.48
  A 0.86 0.86 0.0 0 0 672.58 465.90
  L 680.08 443.83
  A 0.86 0.86 0.0 0 1 681.70 443.83
  L 689.28 465.87
  A 0.86 0.86 0.0 0 0 690.08 466.45
  Z"
/>
<path fill="#fdd717" d="
  M 339.57 565.59
  Q 339.23 566.33 338.74 566.73
  Q 329.72 574.01 322.72 578.72
  Q 320.40 580.28 321.31 583.16
  Q 325.06 595.03 327.77 604.48
  A 0.58 0.58 0.0 0 1 326.87 605.11
  Q 320.28 600.36 308.08 591.89
  Q 306.02 590.46 304.52 591.49
  Q 294.23 598.56 286.77 604.40
  A 0.47 0.47 0.0 0 1 286.02 604.14
  Q 285.93 603.73 286.05 603.27
  Q 287.73 596.84 291.76 582.62
  A 2.40 2.39 26.2 0 0 290.87 580.03
  L 271.84 566.07
  A 0.63 0.63 0.0 0 1 272.21 564.94
  L 296.21 564.94
  A 2.02 2.02 0.0 0 0 298.13 563.54
  L 305.23 541.51
  A 0.87 0.87 0.0 0 1 306.87 541.49
  L 314.25 562.74
  A 2.87 2.87 0.0 0 0 316.96 564.67
  L 338.98 564.67
  A 0.65 0.65 0.0 0 1 339.57 565.59
  Z"
/>
<path fill="#fdd717" d="
  M 626.69 610.05
  A 0.52 0.52 0.0 0 1 625.88 609.48
  Q 628.55 600.76 631.87 589.07
  Q 632.67 586.27 630.54 584.76
  Q 617.26 575.32 615.25 573.75
  Q 614.03 572.80 613.42 572.02
  A 0.56 0.55 70.7 0 1 613.85 571.12
  L 636.68 571.12
  A 1.81 1.80 9.5 0 0 638.39 569.91
  L 646.36 547.35
  A 0.52 0.51 -44.9 0 1 647.33 547.35
  L 655.40 570.59
  A 1.29 1.29 0.0 0 0 656.62 571.46
  L 679.67 571.46
  A 0.73 0.73 0.0 0 1 680.10 572.78
  L 662.93 585.46
  A 2.52 2.51 62.9 0 0 662.03 588.25
  Q 665.57 599.16 667.93 607.57
  Q 668.35 609.07 668.02 610.11
  A 0.34 0.34 0.0 0 1 667.50 610.29
  L 647.52 596.45
  A 2.12 2.11 -45.8 0 0 645.06 596.49
  L 626.69 610.05
  Z"
/>
<path fill="#fdd717" d="
  M 358.58 682.16
  Q 358.59 681.09 358.94 679.97
  Q 361.57 671.42 364.78 660.23
  Q 365.48 657.78 363.30 656.25
  Q 351.78 648.19 347.09 644.43
  Q 346.48 643.94 346.27 643.67
  A 0.73 0.73 0.0 0 1 346.83 642.49
  L 369.50 641.97
  A 1.57 1.55 8.3 0 0 370.96 640.89
  L 378.34 618.02
  A 0.37 0.37 0.0 0 1 379.04 618.01
  L 386.90 640.65
  A 2.46 2.45 -9.5 0 0 389.22 642.30
  L 411.09 642.30
  A 0.76 0.76 0.0 0 1 411.54 643.67
  L 394.00 656.61
  A 2.25 2.25 0.0 0 0 393.20 659.10
  Q 396.46 669.26 399.06 679.74
  Q 399.31 680.78 399.13 681.49
  A 0.54 0.54 0.0 0 1 398.32 681.80
  Q 391.31 677.25 380.83 669.68
  Q 378.97 668.34 377.31 669.54
  Q 371.06 674.06 359.53 682.64
  A 0.60 0.59 -18.0 0 1 358.58 682.16
  Z"
/>
<path fill="#fdd717" d="
  M 571.07 619.28
  A 0.52 0.52 0.0 0 1 572.05 619.27
  L 580.33 643.10
  A 0.86 0.84 80.3 0 0 581.13 643.68
  L 605.60 643.75
  A 0.51 0.51 0.0 0 1 606.03 644.53
  Q 605.91 644.73 605.27 645.28
  Q 599.93 649.92 588.45 658.19
  Q 586.66 659.48 587.45 662.02
  Q 591.36 674.60 593.70 683.41
  A 0.38 0.38 0.0 0 1 593.11 683.82
  L 573.79 670.44
  A 2.50 2.49 -45.9 0 0 570.88 670.49
  L 552.08 684.37
  A 0.51 0.51 0.0 0 1 551.29 684.11
  Q 551.20 683.83 551.45 682.98
  Q 556.71 665.03 557.73 661.70
  Q 558.37 659.60 556.64 658.11
  Q 554.20 656.00 552.59 654.92
  Q 545.11 649.88 539.28 644.98
  Q 538.96 644.71 538.94 644.26
  A 0.37 0.36 -2.3 0 1 539.30 643.88
  L 562.45 643.36
  A 1.22 1.22 0.0 0 0 563.58 642.52
  L 571.07 619.28
  Z"
/>
<path fill="#fdd717" d="
  M 483.72 673.24
  L 508.56 673.49
  A 0.44 0.44 0.0 0 1 508.82 674.28
  L 489.09 689.37
  A 0.44 0.44 0.0 0 0 488.94 689.85
  L 496.37 713.55
  A 0.44 0.44 0.0 0 1 495.70 714.04
  L 475.26 699.93
  A 0.44 0.44 0.0 0 0 474.75 699.94
  L 454.51 714.33
  A 0.44 0.44 0.0 0 1 453.83 713.84
  L 460.93 690.04
  A 0.44 0.44 0.0 0 0 460.77 689.56
  L 440.83 674.76
  A 0.44 0.44 0.0 0 1 441.08 673.97
  L 465.91 673.36
  A 0.44 0.44 0.0 0 0 466.32 673.06
  L 474.24 649.52
  A 0.44 0.44 0.0 0 1 475.07 649.52
  L 483.31 672.94
  A 0.44 0.44 0.0 0 0 483.72 673.24
  Z"
/>
</svg>
