<svg xmlns="http://www.w3.org/2000/svg" viewBox="0 0 1024 1024"><g fill="none" stroke="#737577" stroke-width="2"><path d="M529.46 358.08q-8.57 2.51-10.44 10.45M519 605.37q1.66 8.83 11.26 10.9M364.98 498.05l.12-22.89" vector-effect="non-scaling-stroke"/></g><path fill="#a1a6a9" d="M529.46 358.08q-8.57 2.51-10.44 10.45l-118.5 118.51a.52.51 45.4 0 0 0 .73L519 605.37q1.66 8.83 11.26 10.9l24.73 24.3a1.77 1.75-22.5 0 0 1.23.5h104.21a.57.56-90 0 1 .56.57v22.12a.59.59 0 0 1-.59.59q-47.41.01-103.15-.06-6.69-.01-9.42-.39c-3.02-.42-6.19-2.74-8.69-5.18q-.84-.82-18.19-18.17-94.03-94-142.15-142.15a.98.95-21.1 0 0-.66-.28l-13.16-.07.12-22.89 14.16-.24a1.62 1.58 23.9 0 0 1-.37c1.36-1.16 2.38-2.65 3.74-4.02q1.52-1.51 151.11-151.42 2.97-2.99 6.02-6 3.81-3.76 10.91-3.77 38.79-.04 108.35-.02a.6.6 0 0 1 .6.6v21.77a.56.55 90 0 1-.55.56H556.31a2.08 2.05 22.4 0 0-1.45.59l-25.4 25.24Z"/><path fill="#454444" d="M529.46 358.08q8.04-.26 11.02 4.96 1.56 2.72 1.56 9.68l-.02 208.53q-.01 16.26-.1 26.56a1.9 1.73 57.6 0 1-.11.63q-2.81 7.99-11.55 7.83-9.6-2.07-11.26-10.9l.02-236.84q1.87-7.94 10.44-10.45ZM365.1 475.16l-.12 22.89-.06 10.06a2.15 2.09-34.2 0 1-.17.83q-3.09 7.29-10.96 5.5-6.62-1.5-6.14-8.21.13-1.75.01-2.62a.54.54 0 0 0-.53-.46q-76.54.04-172.91.05-7.58 0-7.67-6.88-.06-5.25.1-17.14.07-4.9 1.3-7 1.84-3.14 6.07-3.15 42.66-.03 173.18 0a.49.49 0 0 0 .49-.54c-.45-4.24.21-8.73 4.46-10.34 1.57-.6 6.25-.74 8.14-.18q4.41 1.31 4.53 6.79.1 5.21.28 10.4Z"/></svg>