<svg xmlns="http://www.w3.org/2000/svg" viewBox="0 0 1024 1024"><g fill="none" stroke-width="2"><path stroke="#1e1e20" d="m609.94 447.9-272.26-.01a.82.79 29.5 0 0-.39.1q-2.46 1.34-2.86 4.28a.11.11 0 0 1-.19.06q-.17-.21-.23-.21a.4.34-82 0 0-.31.28l-.64 2.19M609.92 450.99q-37.59.2-75.17.06-2-.01-3.88.55a.74.64-49.3 0 1-.2.03l-5.25-.07a.18.18 0 0 0-.18.19v.01a.09.09 0 0 0 .08.09q2.48.25 4.23.52.37.05.46.23.06.13.1.44a.84.83-86.2 0 0 .59.68c6.94 2.01 10.54 11.27 10.38 17.78q-.03 1.67-.06 70.75 0 8.15-5.8 13.69c-1.75 1.68-3.39 1.8-5.17 3.15-2.43 1.86-4.35 1.45-6.81 2.23a.09.09 0 0 0 .02.17q4.6.19 8.3-2.19" vector-effect="non-scaling-stroke"/><path stroke="#656667" d="M531.56 559.3q-.08.22.39.52" vector-effect="non-scaling-stroke"/><path stroke="#1e1e20" d="M531.95 559.82q.63 1.04 2.29 1.05 37.85 0 75.7.05" vector-effect="non-scaling-stroke"/><path stroke="#1e1e20" d="M609.91 564.18q-36.58.14-73.15.05-1.86-.01-12.01-.24-5.15-.12-12-.09-18.74.11-71.81.07-6.34-.01-14.69.05-57.22.34-83.96.15c-4.6-.03-7.65-.53-7.52-5.63q.46-19.58.09-34.25-.08-3.19-.77-3.98a1.54 1.53 69.5 0 0-1.16-.53l-169.64.24a.94.89 54.7 0 1-.35-.07q-1.47-.66-2.66-2.58a2.36 2.31-61.7 0 1-.34-1.18l-.29-21.75a3 2.99 82 0 1 2.2-2.93q1.2-.37 3.79-.42 20.94-.46 34.4-.27 17.57.25 34.42.19 39.52-.15 97.71.06 1.57.01 2.18-1.13.39-.74.42-3.43a.23.22 62.1 0 0-.41-.13q-.18.28-.18 1.87 0 .82-1.15 1.74" vector-effect="non-scaling-stroke"/><path stroke="#4b4c4c" d="M609.99 451.83q-39.06.08-78.01.14-.56 0-.9.15a.39.38-48.4 0 0 .04.72c5.27 1.58 9.41 8.15 10.51 12.87q.51 2.16.47 13.11-.1 30.34.05 58.79.04 8.62-1.61 12.57-2.56 6.1-8.98 9.12M609.99 559.82q-2.78.4-5.49.39-35.43-.06-70.86-.08c-.56 0-1.12-.24-1.69-.31" vector-effect="non-scaling-stroke"/><path stroke="#1e1e20" d="m439.96 562.22-9.99-2.51a1.58 1.51 66.8 0 1-.47-.2c-6.28-3.92-10.73-9.03-10.69-16.52q.12-24.41-.12-70.3-.04-7.41 1.18-10.21 2.67-6.11 9.06-9.82a3.06 2.99-64.1 0 1 1-.36l2.94-.49a.28.28 0 0 0 .23-.29l-.01-.01a.32.32 0 0 0-.4-.25q-3.77.95-7.55-.02a3.79 3.65-36.6 0 0-.94-.12c-7.85.09-15-.35-21.99-.19q-11.16.25-55.71.18-1.64-.01-4.12.19-.36.03-4.13.26a.9.89-.7 0 0-.84.86l-.52 15.76a2.19.29 76.9 0 0 .1 1q.07.41.07 1.32.19 37.41-.09 61.19-.14 11.66.34 27.96a1 1 0 0 0 1 .97l86.5.45a1.62 1.61-53.3 0 0 .47-.07l2.66-.85a2.2 2.18-45.2 0 1 1.34-.01q6.84 2.06 7.64 2.2 2.27.39 3.05.11a.12.12 0 0 0-.01-.23M472.79 532.07l-.62-.11a.61.61 0 0 0-.72.6v25.05a1.19 1.18-90 0 0 1.18 1.19h14.12a.91.9-90 0 0 .9-.91l-.05-25.38a.57.53-64.6 0 0-.1-.32q-.18-.3-.58-.24a.35.34 1.1 0 0-.28.26q-.08.35-.29.58" vector-effect="non-scaling-stroke"/><path stroke="#656667" d="m486.35 532.79.1-79.26a.58.58 0 0 0-.58-.58h-12.5a.64.64 0 0 0-.64.64l.06 78.48" vector-effect="non-scaling-stroke"/><path stroke="#4b4c4c" d="m486.35 532.79.06 24.56a.59.59 0 0 1-.59.59h-12.46a.68.68 0 0 1-.68-.68l.11-25.19" vector-effect="non-scaling-stroke"/><path stroke="#1e1e20" d="M431.45 555.96q2.06 2.21 5.3 2.32 15.37.54 31.39.2a1.3 1.29.7 0 0 1.27-1.23q.55-10.71-.63-21.93" vector-effect="non-scaling-stroke"/><path stroke="#454647" d="m468.78 535.32-.17-80.68a.93.92 0 0 0-.93-.92q-5.2.03-18.85-.04-11.15-.06-13.54.58c-5.78 1.54-10.83 5.85-12.74 11.66q-.95 2.88-.94 4.27.24 33.39.06 65.37-.05 7.79 1.49 11.39 2.4 5.6 8.29 9.01" vector-effect="non-scaling-stroke"/><path stroke="#2b2c2c" d="m468.78 535.32-.13 21.72a.73.73 0 0 1-.72.72q-14.56.16-28.94.05-3.22-.03-7.54-1.85" vector-effect="non-scaling-stroke"/><path stroke="#1e1e20" d="M490.14 529.84q-1.13 14-.69 27.73a.99.99 0 0 0 .98.96q5.76.08 23.44.13 9.46.02 13.5-1.75c4.7-2.07 10.92-7.58 10.99-13.39q.33-27.75.09-73-.03-4.35-2.85-7.53" vector-effect="non-scaling-stroke"/><path stroke="#454647" d="M535.6 462.99q-3.66-5.44-8.94-7.69-3.7-1.57-10.95-1.46-12.08.19-24.47-.13a.81.81 0 0 0-.83.8l-.27 75.33" vector-effect="non-scaling-stroke"/><path stroke="#2b2c2c" d="M535.6 462.99q2.03 3.78 2.03 8.03.03 67.76.08 68.25c.32 2.94-.36 6.94-1.51 8.92q-5.45 9.38-16.7 9.55-1.08.01-28.34.11a1.01 1 0 0 1-1.01-1l-.01-27.01" vector-effect="non-scaling-stroke"/><path stroke="#1e1e20" d="M166.54 516.79q0 .25-.27.32a.32.32 0 0 0-.04.6c.4.16 1.92-.14 2.78.13a2.43 2.37-35.5 0 0 .72.11l163.48-.02a.12.09-54.2 0 0 .06-.02l.29-.21a.31.31 0 0 0-.19-.56q-.55.02-.66-.32" vector-effect="non-scaling-stroke"/><path stroke="#535455" d="M332.71 516.82q1.07.06 1.08-.83.14-12.09.04-20.49a.73.72 89.6 0 0-.72-.72H163.37a.74.74 0 0 0-.74.74v20.64a.63.62-90 0 0 .62.63h3.29" vector-effect="non-scaling-stroke"/><path stroke="#3a3a3b" d="m332.71 516.82-166.17-.03" vector-effect="non-scaling-stroke"/><path stroke="#4b4c4c" d="M427.73 559.55c-.44-.61-1.6-1.1-2.54-1.8q-7.94-5.94-7.91-17.48.12-58.99.01-63.79-.21-9.96 1.09-13.27 2.5-6.37 8.4-10.46a.49.49 0 0 0-.28-.89h-87.3a1.07 1.06-90 0 0-1.06 1.07v106.21a1.01 1.01 0 0 0 1.01 1.01h88.27a.38.38 0 0 0 .31-.6" vector-effect="non-scaling-stroke"/></g><path fill="#040405" d="m609.94 447.9-272.26-.01a.82.79 29.5 0 0-.39.1q-2.46 1.34-2.86 4.28a.11.11 0 0 1-.19.06q-.17-.21-.23-.21a.4.34-82 0 0-.31.28l-.64 2.19q.14-3.58 1.88-6.3a1.95 1.95 0 0 1 1.24-.86q2.07-.43 5.32-.43 177.48 0 267.61.01.54 0 .82.46.09.15.01.43Z"/><path fill="#37383a" d="m609.94 447.9-.02 3.09q-37.59.2-75.17.06-2-.01-3.88.55a.74.64-49.3 0 1-.2.03l-5.25-.07a.18.18 0 0 0-.18.19v.01a.09.09 0 0 0 .08.09q2.48.25 4.23.52.37.05.46.23.06.13.1.44a.84.83-86.2 0 0 .59.68c6.94 2.01 10.54 11.27 10.38 17.78q-.03 1.67-.06 70.75 0 8.15-5.8 13.69c-1.75 1.68-3.39 1.8-5.17 3.15-2.43 1.86-4.35 1.45-6.81 2.23a.09.09 0 0 0 .02.17q4.6.19 8.3-2.19-.08.22.39.52.63 1.04 2.29 1.05 37.85 0 75.7.05l-.03 3.26q-36.58.14-73.15.05-1.86-.01-12.01-.24-5.15-.12-12-.09-18.74.11-71.81.07-6.34-.01-14.69.05-57.22.34-83.96.15c-4.6-.03-7.65-.53-7.52-5.63q.46-19.58.09-34.25-.08-3.19-.77-3.98a1.54 1.53 69.5 0 0-1.16-.53l-169.64.24a.94.89 54.7 0 1-.35-.07q-1.47-.66-2.66-2.58a2.36 2.31-61.7 0 1-.34-1.18l-.29-21.75a3 2.99 82 0 1 2.2-2.93q1.2-.37 3.79-.42 20.94-.46 34.4-.27 17.57.25 34.42.19 39.52-.15 97.71.06 1.57.01 2.18-1.13.39-.74.42-3.43a.23.22 62.1 0 0-.41-.13q-.18.28-.18 1.87 0 .82-1.15 1.74l.03-35.4.64-2.19a.4.34-82 0 1 .31-.28q.06 0 .23.21a.11.11 0 0 0 .19-.06q.4-2.94 2.86-4.28a.82.79 29.5 0 1 .39-.1l272.26.01ZM439.96 562.22l-9.99-2.51a1.58 1.51 66.8 0 1-.47-.2c-6.28-3.92-10.73-9.03-10.69-16.52q.12-24.41-.12-70.3-.04-7.41 1.18-10.21 2.67-6.11 9.06-9.82a3.06 2.99-64.1 0 1 1-.36l2.94-.49a.28.28 0 0 0 .23-.29l-.01-.01a.32.32 0 0 0-.4-.25q-3.77.95-7.55-.02a3.79 3.65-36.6 0 0-.94-.12c-7.85.09-15-.35-21.99-.19q-11.16.25-55.71.18-1.64-.01-4.12.19-.36.03-4.13.26a.9.89-.7 0 0-.84.86l-.52 15.76a2.19.29 76.9 0 0 .1 1q.07.41.07 1.32.19 37.41-.09 61.19-.14 11.66.34 27.96a1 1 0 0 0 1 .97l86.5.45a1.62 1.61-53.3 0 0 .47-.07l2.66-.85a2.2 2.18-45.2 0 1 1.34-.01q6.84 2.06 7.64 2.2 2.27.39 3.05.11a.12.12 0 0 0-.01-.23Zm32.83-30.15-.62-.11a.61.61 0 0 0-.72.6v25.05a1.19 1.18-90 0 0 1.18 1.19h14.12a.91.9-90 0 0 .9-.91l-.05-25.38a.57.53-64.6 0 0-.1-.32q-.18-.3-.58-.24a.35.34 1.1 0 0-.28.26q-.08.35-.29.58l.1-79.26a.58.58 0 0 0-.58-.58h-12.5a.64.64 0 0 0-.64.64l.06 78.48Zm-41.34 23.89q2.06 2.21 5.3 2.32 15.37.54 31.39.2a1.3 1.29.7 0 0 1.27-1.23q.55-10.71-.63-21.93l-.17-80.68a.93.92 0 0 0-.93-.92q-5.2.03-18.85-.04-11.15-.06-13.54.58c-5.78 1.54-10.83 5.85-12.74 11.66q-.95 2.88-.94 4.27.24 33.39.06 65.37-.05 7.79 1.49 11.39 2.4 5.6 8.29 9.01Zm58.69-26.12q-1.13 14-.69 27.73a.99.99 0 0 0 .98.96q5.76.08 23.44.13 9.46.02 13.5-1.75c4.7-2.07 10.92-7.58 10.99-13.39q.33-27.75.09-73-.03-4.35-2.85-7.53-3.66-5.44-8.94-7.69-3.7-1.57-10.95-1.46-12.08.19-24.47-.13a.81.81 0 0 0-.83.8l-.27 75.33Zm-323.6-13.05q0 .25-.27.32a.32.32 0 0 0-.04.6c.4.16 1.92-.14 2.78.13a2.43 2.37-35.5 0 0 .72.11l163.48-.02a.12.09-54.2 0 0 .06-.02l.29-.21a.31.31 0 0 0-.19-.56q-.55.02-.66-.32 1.07.06 1.08-.83.14-12.09.04-20.49a.73.72 89.6 0 0-.72-.72H163.37a.74.74 0 0 0-.74.74v20.64a.63.62-90 0 0 .62.63h3.29Z"/><path fill="#040405" d="M439.97 562.45q-.78.28-3.05-.11-.8-.14-7.64-2.2a2.2 2.18-45.2 0 0-1.34.01l-2.66.85a1.62 1.61-53.3 0 1-.47.07l-86.5-.45a1 1 0 0 1-1-.97q-.48-16.3-.34-27.96.28-23.78.09-61.19 0-.91-.07-1.32a2.19.29 76.9 0 1-.1-1l.52-15.76a.9.89-.7 0 1 .84-.86q3.77-.23 4.13-.26 2.48-.2 4.12-.19 44.55.07 55.71-.18c6.99-.16 14.14.28 21.99.19a3.79 3.65-36.6 0 1 .94.12q3.78.97 7.55.02a.32.32 0 0 1 .4.25l.01.01a.28.28 0 0 1-.23.29l-2.94.49a3.06 2.99-64.1 0 0-1 .36q-6.39 3.71-9.06 9.82-1.22 2.8-1.18 10.21.24 45.89.12 70.3c-.04 7.49 4.41 12.6 10.69 16.52a1.58 1.51 66.8 0 0 .47.2l9.99 2.51a.12.12 0 0 1 .01.23Zm-12.24-2.9c-.44-.61-1.6-1.1-2.54-1.8q-7.94-5.94-7.91-17.48.12-58.99.01-63.79-.21-9.96 1.09-13.27 2.5-6.37 8.4-10.46a.49.49 0 0 0-.28-.89h-87.3a1.07 1.06-90 0 0-1.06 1.07v106.21a1.01 1.01 0 0 0 1.01 1.01h88.27a.38.38 0 0 0 .31-.6ZM609.92 450.99l.07.84q-39.06.08-78.01.14-.56 0-.9.15a.39.38-48.4 0 0 .04.72c5.27 1.58 9.41 8.15 10.51 12.87q.51 2.16.47 13.11-.1 30.34.05 58.79.04 8.62-1.61 12.57-2.56 6.1-8.98 9.12-3.7 2.38-8.3 2.19a.09.09 0 0 1-.02-.17c2.46-.78 4.38-.37 6.81-2.23 1.78-1.35 3.42-1.47 5.17-3.15q5.8-5.54 5.8-13.69.03-69.08.06-70.75c.16-6.51-3.44-15.77-10.38-17.78a.84.83-86.2 0 1-.59-.68q-.04-.31-.1-.44-.09-.18-.46-.23-1.75-.27-4.23-.52a.09.09 0 0 1-.08-.09v-.01a.18.18 0 0 1 .18-.19l5.25.07a.74.64-49.3 0 0 .2-.03q1.88-.56 3.88-.55 37.58.14 75.17-.06Z"/><path fill="#929393" d="M427.73 559.55a.38.38 0 0 1-.31.6h-88.27a1.01 1.01 0 0 1-1.01-1.01V452.93a1.07 1.06-90 0 1 1.06-1.07h87.3a.49.49 0 0 1 .28.89q-5.9 4.09-8.4 10.46-1.3 3.31-1.09 13.27.11 4.8-.01 63.79-.03 11.54 7.91 17.48c.94.7 2.1 1.19 2.54 1.8ZM609.99 451.83v107.99q-2.78.4-5.49.39-35.43-.06-70.86-.08c-.56 0-1.12-.24-1.69-.31q-.47-.3-.39-.52 6.42-3.02 8.98-9.12 1.65-3.95 1.61-12.57-.15-28.45-.05-58.79.04-10.95-.47-13.11c-1.1-4.72-5.24-11.29-10.51-12.87a.39.38-48.4 0 1-.04-.72q.34-.15.9-.15 38.95-.06 78.01-.14ZM486.35 532.79l.06 24.56a.59.59 0 0 1-.59.59h-12.46a.68.68 0 0 1-.68-.68l.11-25.19-.06-78.48a.64.64 0 0 1 .64-.64h12.5a.58.58 0 0 1 .58.58l-.1 79.26Z"/><path fill="#525353" d="m468.78 535.32-.13 21.72a.73.73 0 0 1-.72.72q-14.56.16-28.94.05-3.22-.03-7.54-1.85-5.89-3.41-8.29-9.01-1.54-3.6-1.49-11.39.18-31.98-.06-65.37-.01-1.39.94-4.27c1.91-5.81 6.96-10.12 12.74-11.66q2.39-.64 13.54-.58 13.65.07 18.85.04a.93.92 0 0 1 .93.92l.17 80.68ZM535.6 462.99q2.03 3.78 2.03 8.03.03 67.76.08 68.25c.32 2.94-.36 6.94-1.51 8.92q-5.45 9.38-16.7 9.55-1.08.01-28.34.11a1.01 1 0 0 1-1.01-1l-.01-27.01.27-75.33a.81.81 0 0 1 .83-.8q12.39.32 24.47.13 7.25-.11 10.95 1.46 5.28 2.25 8.94 7.69Z"/><path fill="#040405" d="m490.14 529.84.01 27.01a1.01 1 0 0 0 1.01 1q27.26-.1 28.34-.11 11.25-.17 16.7-9.55c1.15-1.98 1.83-5.98 1.51-8.92q-.05-.49-.08-68.25 0-4.25-2.03-8.03 2.82 3.18 2.85 7.53.24 45.25-.09 73c-.07 5.81-6.29 11.32-10.99 13.39q-4.04 1.77-13.5 1.75-17.68-.05-23.44-.13a.99.99 0 0 1-.98-.96q-.44-13.73.69-27.73Z"/><path fill="#040405" d="M609.91 564.18q.06.27.03.46a.39.39 0 0 1-.39.35h-271.8a4.07 4.07 0 0 1-3.71-2.4q-1.03-2.29-1.06-6.59l.04-34.68a.33.33 0 0 0-.33-.33H163.13a1.6 1.57-32.7 0 1-.63-.13l-1.73-.73a2.75 2.73-79.1 0 1-1.67-2.48q-.17-12.4-.03-23.62c.06-4.58 3.93-3.98 7.43-3.98q83.3-.02 166.53-.06 1.15-.92 1.15-1.74 0-1.59.18-1.87a.23.22 62.1 0 1 .41.13q-.03 2.69-.42 3.43-.61 1.14-2.18 1.13-58.19-.21-97.71-.06-16.85.06-34.42-.19-13.46-.19-34.4.27-2.59.05-3.79.42a3 2.99 82 0 0-2.2 2.93l.29 21.75a2.36 2.31-61.7 0 0 .34 1.18q1.19 1.92 2.66 2.58a.94.89 54.7 0 0 .35.07l169.64-.24a1.54 1.53 69.5 0 1 1.16.53q.69.79.77 3.98.37 14.67-.09 34.25c-.13 5.1 2.92 5.6 7.52 5.63q26.74.19 83.96-.15 8.35-.06 14.69-.05 53.07.04 71.81-.07 6.85-.03 12 .09 10.15.23 12.01.24 36.57.09 73.15-.05Z"/><path fill="#6f6f70" d="m332.71 516.82-166.17-.03h-3.29a.63.62-90 0 1-.62-.63v-20.64a.74.74 0 0 1 .74-.74h169.74a.73.72 89.6 0 1 .72.72q.1 8.4-.04 20.49-.01.89-1.08.83Z"/><path fill="#040405" d="M332.71 516.82q.11.34.66.32a.31.31 0 0 1 .19.56l-.29.21a.12.09-54.2 0 1-.06.02l-163.48.02a2.43 2.37-35.5 0 1-.72-.11c-.86-.27-2.38.03-2.78-.13a.32.32 0 0 1 .04-.6q.27-.07.27-.32l166.17.03ZM472.79 532.07l-.11 25.19a.68.68 0 0 0 .68.68h12.46a.59.59 0 0 0 .59-.59l-.06-24.56q.21-.23.29-.58a.35.34 1.1 0 1 .28-.26q.4-.06.58.24a.57.53-64.6 0 1 .1.32l.05 25.38a.91.9 90 0 1-.9.91h-14.12a1.19 1.18-90 0 1-1.18-1.19v-25.05a.61.61 0 0 1 .72-.6l.62.11ZM431.45 555.96q4.32 1.82 7.54 1.85 14.38.11 28.94-.05a.73.73 0 0 0 .72-.72l.13-21.72q1.18 11.22.63 21.93a1.3 1.29.7 0 1-1.27 1.23q-16.02.34-31.39-.2-3.24-.11-5.3-2.32ZM609.99 559.82l-.05 1.1q-37.85-.05-75.7-.05-1.66-.01-2.29-1.05c.57.07 1.13.31 1.69.31q35.43.02 70.86.08 2.71.01 5.49-.39Z"/></svg>