<svg xmlns="http://www.w3.org/2000/svg" viewBox="0 0 1024 1024"><g fill="none" stroke-width="2"><path stroke="#696a6b" d="m613.95 411.8-215.09-.1a.94.77 32.1 0 0-.23.03q-1.43.3-3.26 2.14-62.46 62.52-63.56 63.71c-1.87 2.05-3.31 2.78-6.12 2.73a.78.78 0 0 0-.8.78v24.9a.46.45-.6 0 0 .47.45q3.12-.05 5.38 2.31 5.25 5.46 5.78 5.98 3.37 3.37 59.26 58.99 1.79 1.78 3.46 1.8 5.32.06 11.07.06 101.79.1 203.62.1" vector-effect="non-scaling-stroke"/><path stroke="#424244" d="M112.39 477.05q1.03.39 1.35-1.03" vector-effect="non-scaling-stroke"/><path stroke="#696a6b" d="m613.95 428.73-199.14-.63a.28.28 0 0 0-.28.28v129.8a.56.56 0 0 0 .56.56l198.87.17" vector-effect="non-scaling-stroke"/><path stroke="#424244" d="M554.16 554.05q-.23.2-.19.28.19.41.64.42 29.54.24 59.19-.05" vector-effect="non-scaling-stroke"/><path stroke="#696a6b" d="M320.16 505.39v-24.24a.64.64 0 0 0-.64-.64h-201.9a1.77 1.68-90 0 0-1.68 1.77v21.98a1.77 1.68 90 0 0 1.68 1.77h201.9a.64.64 0 0 0 .64-.64M392.21 505.46q-.92-.21-1.93-.22-14.38-.16-33.97.04a1.9 1.82 85.1 0 0-1.77 2.19q.14.95 1.22 2.03c14.71 14.81 25.36 24.68 37.85 37.95a1.85 1.85 0 0 0 3.06-.58q.46-1.14.42-2.87c-.53-22.56.82-45.63.06-68.25q-.63-18.74.64-35.04a2.05 2.04-85.7 0 0-1.88-2.2q-1.44-.1-2.71 1.21-18.74 19.34-38.33 38.14-1.13 1.09-1.14 2.45a2.2 2.12 85.9 0 0 2.44 2.2q6.14-.94 14.58-1.2 8.58-.26 21.27-.11a.67.67 0 0 1 .67.67v23.21a.39.39 0 0 1-.48.38" vector-effect="non-scaling-stroke"/><path stroke="#424244" d="M419.91 434.19q-.36-.09-.59.25-.15.23-.14.66.07 1.93.48 3.88M471.1 433.99h-12.92a1.07 1.07 0 0 0-1.01.72q-19.03 53.84-36.38 103.39-.02.06-1.25 3.2-2.16 5.53-1.33 12.34a.58.57 86.6 0 0 .57.51h10.26a1.36 1.34 9.3 0 0 1.28-.91l41.13-118.76a.37.37 0 0 0-.35-.49M440.1 538.23q-.92.56-.49 1.34M434.84 553.16q-1.34.58-.36 1.37a1.47 1.44-24.8 0 0 .87.31q19.48.27 32.64-.04 1.74-.04 2.06-1.17M470.13 553.22q.51-.13.64-.72.13-.57-.3-.57M488.58 554.14a.86.86 0 0 0 .81-.58l41.03-118.48a.86.86 0 0 0-.81-1.14h-13a.86.86 0 0 0-.81.58L474.78 553a.86.86 0 0 0 .81 1.14h12.99M494.03 554.39q17.62.85 34.2.35.89-.02 1.45-.21 1.23-.42.53-.96M576.41 433.9a.75.75 0 0 0-.71.51l-40.56 118.68a.75.75 0 0 0 .71.99h13.32a.75.75 0 0 0 .71-.51l40.57-118.68a.75.75 0 0 0-.71-.99h-13.33" vector-effect="non-scaling-stroke"/><path stroke="#696a6b" d="m392.61 477.58-.22-8.17" vector-effect="non-scaling-stroke"/><path stroke="#424244" d="m392.55 456.23.09-7.21M366.11 512.78q.66 1.72 2.47 2.68M385.46 532.14l6.03 6.41a.68.68 0 0 0 1.17-.49l-.5-21.64M384.9 509.44q-7.72-1.01-15.06.29" vector-effect="non-scaling-stroke"/></g><path fill="#060608" d="m613.95 411.8-215.09-.1a.94.77 32.1 0 0-.23.03q-1.43.3-3.26 2.14-62.46 62.52-63.56 63.71c-1.87 2.05-3.31 2.78-6.12 2.73a.78.78 0 0 0-.8.78v24.9a.46.45-.6 0 0 .47.45q3.12-.05 5.38 2.31 5.25 5.46 5.78 5.98 3.37 3.37 59.26 58.99 1.79 1.78 3.46 1.8 5.32.06 11.07.06 101.79.1 203.62.1l-.11 3.96a.35.35 0 0 1-.35.34q-100.35.04-215.46 0c-2.64 0-5.1-2.35-7.16-4.43q-29.69-30.01-56.4-56.76-2.76-2.76-6.29-5.94a4.47 4.31-14 0 0-1.56-.9q-5.94-1.96-7.6-1.96-101.4.01-203.84 0a.7.65-33 0 1-.23-.04q-2.78-1.02-2.82-3.03-.13-5.55-.14-24.17 0-4.42.42-5.7 1.03.39 1.35-1.03 102.75-.07 205.51-.04 3.95.01 7.39-1.06a5.75 5.69-75.8 0 0 2.4-1.45q.46-.47 64.66-64.77 1.73-1.74 4.3-1.73 97.27.12 215.3.02a.56.56 0 0 1 .56.55l.09 4.26Zm-293.79 93.59v-24.24a.64.64 0 0 0-.64-.64h-201.9a1.77 1.68-90 0 0-1.68 1.77v21.98a1.77 1.68 90 0 0 1.68 1.77h201.9a.64.64 0 0 0 .64-.64Z"/><path fill="#cccdcd" d="M613.95 411.8v16.93l-199.14-.63a.28.28 0 0 0-.28.28v129.8a.56.56 0 0 0 .56.56l198.87.17-.03 16.77q-101.83 0-203.62-.1-5.75 0-11.07-.06-1.67-.02-3.46-1.8-55.89-55.62-59.26-58.99-.53-.52-5.78-5.98-2.26-2.36-5.38-2.31a.46.45-.6 0 1-.47-.45v-24.9a.78.78 0 0 1 .8-.78c2.81.05 4.25-.68 6.12-2.73q1.1-1.19 63.56-63.71 1.83-1.84 3.26-2.14a.94.77 32.1 0 1 .23-.03l215.09.1Zm-221.74 93.66q-.92-.21-1.93-.22-14.38-.16-33.97.04a1.9 1.82 85.1 0 0-1.77 2.19q.14.95 1.22 2.03c14.71 14.81 25.36 24.68 37.85 37.95a1.85 1.85 0 0 0 3.06-.58q.46-1.14.42-2.87c-.53-22.56.82-45.63.06-68.25q-.63-18.74.64-35.04a2.05 2.04-85.7 0 0-1.88-2.2q-1.44-.1-2.71 1.21-18.74 19.34-38.33 38.14-1.13 1.09-1.14 2.45a2.2 2.12 85.9 0 0 2.44 2.2q6.14-.94 14.58-1.2 8.58-.26 21.27-.11a.67.67 0 0 1 .67.67v23.21a.39.39 0 0 1-.48.38Z"/><path fill="#060608" d="m613.95 428.73-.02 4.7a.57.57 0 0 1-.57.57h-17.43a1.05 1.05 0 0 0-1 .72q-7.69 23.74-18.93 55.86c-7.1 20.3-13.1 38.95-20.2 58.3q-.18.48-1.04 2.41-.66 1.48-.6 2.76-.23.2-.19.28.19.41.64.42 29.54.24 59.19-.05l.16 4.21-198.87-.17a.56.56 0 0 1-.56-.56v-129.8a.28.28 0 0 1 .28-.28l199.14.63Zm-194.04 5.46q-.36-.09-.59.25-.15.23-.14.66.07 1.93.48 3.88-.4 2.48-.42 5.02-.36 52.41-.24 71.75 0 .79.56 4.12a.49.49 0 0 1 0 .14l-.56 8.54a.28.28 0 0 0 .54.11l32.43-93.67a.73.73 0 0 0-.69-.97l-31.37.17Zm51.19-.2h-12.92a1.07 1.07 0 0 0-1.01.72q-19.03 53.84-36.38 103.39-.02.06-1.25 3.2-2.16 5.53-1.33 12.34a.58.57 86.6 0 0 .57.51h10.26a1.36 1.34 9.3 0 0 1.28-.91l41.13-118.76a.37.37 0 0 0-.35-.49Zm-31 104.24q-.92.56-.49 1.34l-4.77 13.59q-1.34.58-.36 1.37a1.47 1.44-24.8 0 0 .87.31q19.48.27 32.64-.04 1.74-.04 2.06-1.17-.34.04.08-.41.51-.13.64-.72.13-.57-.3-.57l40.5-116.59a.98.98 0 0 0-.92-1.3h-32.99a1.38 1.37-80.5 0 0-1.3.93L440.1 538.23Zm48.48 15.91a.86.86 0 0 0 .81-.58l41.03-118.48a.86.86 0 0 0-.81-1.14h-13a.86.86 0 0 0-.81.58L474.78 553a.86.86 0 0 0 .81 1.14h12.99Zm5.45.25q17.62.85 34.2.35.89-.02 1.45-.21 1.23-.42.53-.96l40.59-119.06a.38.38 0 0 0-.36-.5h-34.48a1.25 1.23-80.4 0 0-1.17.84l-40.76 119.54Zm82.38-120.49a.75.75 0 0 0-.71.51l-40.56 118.68a.75.75 0 0 0 .71.99h13.32a.75.75 0 0 0 .71-.51l40.57-118.68a.75.75 0 0 0-.71-.99h-13.33Z"/><path fill="#7d7e80" d="M471.1 433.99a.37.37 0 0 1 .35.49l-41.13 118.76a1.36 1.34 9.3 0 1-1.28.91h-10.26a.58.57 86.6 0 1-.57-.51q-.83-6.81 1.33-12.34 1.23-3.14 1.25-3.2 17.35-49.55 36.38-103.39a1.07 1.07 0 0 1 1.01-.72h12.92ZM488.58 554.14h-12.99a.86.86 0 0 1-.81-1.14l41.02-118.48a.86.86 0 0 1 .81-.58h13a.86.86 0 0 1 .81 1.14l-41.03 118.48a.86.86 0 0 1-.81.58ZM576.41 433.9h13.33a.75.75 0 0 1 .71.99l-40.57 118.68a.75.75 0 0 1-.71.51h-13.32a.75.75 0 0 1-.71-.99l40.56-118.68a.75.75 0 0 1 .71-.51ZM419.91 434.19l-.25 4.79q-.41-1.95-.48-3.88-.01-.43.14-.66.23-.34.59-.25Z"/><path fill="#060608" d="M392.69 505.08v-23.21a.67.67 0 0 0-.67-.67q-12.69-.15-21.27.11-8.44.26-14.58 1.2a2.2 2.12 85.9 0 1-2.44-2.2q.01-1.36 1.14-2.45 19.59-18.8 38.33-38.14 1.27-1.31 2.71-1.21a2.05 2.04-85.7 0 1 1.88 2.2q-1.27 16.3-.64 35.04c.76 22.62-.59 45.69-.06 68.25q.04 1.73-.42 2.87a1.85 1.85 0 0 1-3.06.58c-12.49-13.27-23.14-23.14-37.85-37.95q-1.08-1.08-1.22-2.03a1.9 1.82 85.1 0 1 1.77-2.19q19.59-.2 33.97-.04 1.01.01 1.93.22a.39.39 0 0 0 .48-.38Zm-.08-27.5-.22-8.17c.99-4.78.11-8.77.16-13.18l.09-7.21q.45-.49.42-.57a1.16 1.09-44.1 0 0-2 .03q-.9 1.61-2.49 2.57a1.49 1.49 0 0 0-.34.27q-5.51 5.74-15.46 15.42c-2.08 2.02-3.65 4.14-5.74 6.43a3.77 3.68 4 0 1-.72.61q-2.11 1.35-4.17 3.79a.26.26 0 0 0 .2.43h29.7a.57.56-65.2 0 0 .37-.14q.17-.16.2-.28Zm-22.77 32.15-5.18.34a.38.38 0 0 0-.27.62l1.72 2.09q.66 1.72 2.47 2.68 3.56 4.46 8.13 8.16a6.02 6.02 0 0 1 .92.92q3.5 4.27 7.83 7.6l6.03 6.41a.68.68 0 0 0 1.17-.49l-.5-21.64-.2-6.59a.89.89 0 0 0-.96-.86l-6.1.47q-7.72-1.01-15.06.29Z"/><path fill="#7d7e80" d="m392.64 449.02-.09 7.21q-.68-3.75-.53-6.73.02-.44.62-.48Z"/><path fill="#cccdcd" d="m392.39 469.41.22 8.17q-1.26-4.08-.22-8.17Z"/><path fill="#7d7e80" d="M113.74 476.02q-.32 1.42-1.35 1.03l1.35-1.03Z"/><path fill="#cccdcd" d="M320.16 505.39a.64.64 0 0 1-.64.64h-201.9a1.77 1.68 90 0 1-1.68-1.77v-21.98a1.77 1.68-90 0 1 1.68-1.77h201.9a.64.64 0 0 1 .64.64v24.24Z"/><path fill="#7d7e80" d="M384.9 509.44q-7.49 1.18-15.06.29 7.34-1.3 15.06-.29ZM366.11 512.78q1.55 1.14 2.47 2.68-1.81-.96-2.47-2.68ZM385.46 532.14l5.91 5.64a.32.31-68 0 0 .53-.23l.26-21.13.5 21.64a.68.68 0 0 1-1.17.49l-6.03-6.41ZM440.1 538.23l-.49 1.34q-.43-.78.49-1.34ZM470.13 553.22l.34-1.29q.43 0 .3.57-.13.59-.64.72ZM434.84 553.16c.22.52.72.85 1.32.85q16.23.08 32.47-.01c.43-.01.94-.28 1.42-.37q-.32 1.13-2.06 1.17-13.16.31-32.64.04a1.47 1.44-24.8 0 1-.87-.31q-.98-.79.36-1.37ZM530.21 553.57q.7.54-.53.96-.56.19-1.45.21-16.58.5-34.2-.35l36.18-.82ZM613.8 554.7q-29.65.29-59.19.05-.45-.01-.64-.42-.04-.08.19-.28 29.78-.1 59.24-.06.26 0 .4.71Z"/></svg>