<svg xmlns="http://www.w3.org/2000/svg" viewBox="0 0 1024 1024"><g fill="none" stroke="#7c7b7a" stroke-width="2"><path d="M638.97 474.08q-15.64-.76-27.97 1.16-4.39.68-30.57 5.76-3.68.71-11.45 2.49-7.32 1.68-16.86 3.13c-13.47 2.06-22.91-3.61-31.77-12.71q-4.89-5.03-14.18-15.3c-10.77-11.92-26.47-22.29-42.98-19.11-10.3 1.98-22.88 8.55-30.15 15.82q-7.08 7.08-12.07 13.15c-8.06 9.8-13.21 16.26-21.46 22.29q-7.24 5.3-16.25 5.26-42.17-.14-53.19-.01a.83.83 0 0 0-.82.83v19.6a.58.57 0 0 0 .58.57q43.03-.14 49.56-.11c10.53.06 17.69-.96 25.76-4.78 14.84-7.04 25.04-19.83 36.15-33.79 4.37-5.48 8.6-9.28 14.06-13 20.79-14.19 35.1 7.99 46.63 21.14 11.8 13.46 25.34 22.49 43.93 21.68q12.26-.54 17.97-1.77 16.93-3.63 33.63-7.1 17.28-3.6 23.95-4.2 4.01-.36 17.48-.33M304.37 487.44q-4.2.78-6.5-.07a1.43 1.42 43.7 0 0-1.03.02q-.76.32-1.11.32-11.28-.18-20.14-.02c-3.41.06-6.09-.48-9.31.07q-.66.11-2.62-.24a6.69 6.67-41.3 0 0-1.41-.09q-6.24.26-10.75.26-1.35 0-1.93-.17c-1.63-.46-3.03.18-4.58.15q-4.23-.1-16.99.08-1.01.02-3.38-.36a3.65 2.63 40.2 0 0-.51-.04l-54.81.52a.57.56-90 0 0-.56.57v32.86a1.01 1.01 0 0 0 .85 1q4.96.79 7.42.66 7.15-.38 7.79-.38a3.85 3.67 53.8 0 1 1.29.23q1.88.69 3.41.11 2.57-.96 3.33.52a.52.52 0 0 0 .84.13q1.62-1.65 3.91-.38a2.05 2.04 51.4 0 0 1.55.18c2.06-.6 3.53-1.12 5.69-.08a1.44 1.44 0 0 0 1.3-.04q2.11-1.14 4.87-.29c1.63.5 2.42.08 4.09-.32a.79.79 0 0 1 .87.37l.15.27a.41.4 59.4 0 0 .56.15l1.2-.7a1.81 1.78-56.2 0 1 1.11-.23q2.43.26 15.1.64c3.2.09 6-.62 8.69-.32 4.32.48 9.35-.61 13.5-.08q2.34.3 2.84.18 1.87-.46 2.83-.12c2.69.95 5.89-.44 8.79-.19 6.73.57 11.8-.12 18.28.34q3.39.23 8-.33.57-.07 2.54.8a.86.84-54.9 0 0 .92-.17q1.26-1.19 3.26-1.32a.94.93-1.7 0 1 1 .93v17.71a1.77 1.77 0 0 0 1.77 1.77h16.59a.79.79 0 0 0 .79-.79v-70.03a1.36 1.36 0 0 0-1.36-1.36h-17.12a.57.57 0 0 0-.57.57v16.17a.55.55 0 0 1-.45.54" vector-effect="non-scaling-stroke"/></g><path fill="#323131" d="M638.97 474.08q-15.64-.76-27.97 1.16-4.39.68-30.57 5.76-3.68.71-11.45 2.49-7.32 1.68-16.86 3.13c-13.47 2.06-22.91-3.61-31.77-12.71q-4.89-5.03-14.18-15.3c-10.77-11.92-26.47-22.29-42.98-19.11-10.3 1.98-22.88 8.55-30.15 15.82q-7.08 7.08-12.07 13.15c-8.06 9.8-13.21 16.26-21.46 22.29q-7.24 5.3-16.25 5.26-42.17-.14-53.19-.01a.83.83 0 0 0-.82.83v19.6a.58.57 0 0 0 .58.57q43.03-.14 49.56-.11c10.53.06 17.69-.96 25.76-4.78 14.84-7.04 25.04-19.83 36.15-33.79 4.37-5.48 8.6-9.28 14.06-13 20.79-14.19 35.1 7.99 46.63 21.14 11.8 13.46 25.34 22.49 43.93 21.68q12.26-.54 17.97-1.77 16.93-3.63 33.63-7.1 17.28-3.6 23.95-4.2 4.01-.36 17.48-.33l-.1 5.19a.53.52.6 0 1-.53.51l-10.63-.15a.64.62-54 0 0-.29.05c-2.23.88-4.74.46-7.09.79q-12.57 1.77-15.1 2.3-9.18 1.9-41.03 8.73-6.85 1.47-17.71 1.82-13.85.44-24.83-4.88-11.62-5.63-20.68-15.58c-6.02-6.62-12.55-15.3-20.55-22.2-13.16-11.36-25.84 1.02-34.44 10.64q-3.62 4.05-17.21 20.04-1.97 2.32-9.62 8.33-15.65 12.31-36.67 12.55-21.72.24-52.9.07a.59.59 0 0 0-.6.59q-.03 4.24 0 16.12c.02 3.62.63 6.36-2.29 7.59q-1.63.69-3.32.7-7.79.05-18.87-.03c-4.33-.04-5.28-3.15-5.42-6.96q-.07-1.85-.06-10.93a1.02 1.01 2.5 0 0-.93-1.01q-.78-.06-3.58-.08-37.71-.23-123.25.02-3.92.01-5.9-.57a2.9 2.9 0 0 1-2.09-2.66q-.87-19.5-.15-39.92c.1-2.89 1.5-3.57 4.22-3.74q11.15-.67 18.81-.25a1.9 1.86 62.5 0 1 .89.29q.03.01.2.15a.31.31 0 0 0 .42-.04q.38-.42 1.85-.41 4.78.07 25.51.06 1.91 0 2.71.08 3.54.37 6.3.21 4.09-.23 7.99.01 3.37.21 4.54.13c3.32-.22 6.86-.15 12.33-.25 2.02-.04 3.48.43 5.47.07 1.71-.31 4.37.65 6.49.12 1.64-.41 3.24.24 4.98.06q6.11-.66 15.46-.65 1.04.01 4.86.7a4.97 4.83 44.2 0 0 1.81 0q3.24-.6 6.18.08a.86.67-38 0 0 .25 0l3.65-.61a1.15 1.15 0 0 0 .96-1.18q-.28-6.65.15-10.98.54-5.44 6.19-5.63 14.25-.46 17.83.1 2.48.38 4.49 1.77a3.05 3.03 17.6 0 1 1.3 2.49v20.97a.62.62 0 0 0 .62.62q34.48.08 52.93-.02c8.83-.05 14.35-3.35 20.7-9.77q6.03-6.11 11.97-13.53 7.39-9.23 15.38-16.79 10.33-9.78 24.28-14.48 16.52-5.56 30.75.83 13.46 6.05 23.48 17.2 3.23 3.59 12.17 13.58 2.02 2.26 7.86 7.17 10.9 9.16 25.12 6.28 15.48-3.13 39.34-8.04c15.28-3.15 29.59-4.85 44.53-4.34a.93.92 1 0 1 .9.92l-.01 5.08Zm-334.6 13.36q-4.2.78-6.5-.07a1.43 1.42 43.7 0 0-1.03.02q-.76.32-1.11.32-11.28-.18-20.14-.02c-3.41.06-6.09-.48-9.31.07q-.66.11-2.62-.24a6.69 6.67-41.3 0 0-1.41-.09q-6.24.26-10.75.26-1.35 0-1.93-.17c-1.63-.46-3.03.18-4.58.15q-4.23-.1-16.99.08-1.01.02-3.38-.36a3.65 2.63 40.2 0 0-.51-.04l-54.81.52a.57.56-90 0 0-.56.57v32.86a1.01 1.01 0 0 0 .85 1q4.96.79 7.42.66 7.15-.38 7.79-.38a3.85 3.67 53.8 0 1 1.29.23q1.88.69 3.41.11 2.57-.96 3.33.52a.52.52 0 0 0 .84.13q1.62-1.65 3.91-.38a2.05 2.04 51.4 0 0 1.55.18c2.06-.6 3.53-1.12 5.69-.08a1.44 1.44 0 0 0 1.3-.04q2.11-1.14 4.87-.29c1.63.5 2.42.08 4.09-.32a.79.79 0 0 1 .87.37l.15.27a.41.4 59.4 0 0 .56.15l1.2-.7a1.81 1.78-56.2 0 1 1.11-.23q2.43.26 15.1.64c3.2.09 6-.62 8.69-.32 4.32.48 9.35-.61 13.5-.08q2.34.3 2.84.18 1.87-.46 2.83-.12c2.69.95 5.89-.44 8.79-.19 6.73.57 11.8-.12 18.28.34q3.39.23 8-.33.57-.07 2.54.8a.86.84-54.9 0 0 .92-.17q1.26-1.19 3.26-1.32a.94.93-1.7 0 1 1 .93v17.71a1.77 1.77 0 0 0 1.77 1.77h16.59a.79.79 0 0 0 .79-.79v-70.03a1.36 1.36 0 0 0-1.36-1.36h-17.12a.57.57 0 0 0-.57.57v16.17a.55.55 0 0 1-.45.54Z"/><path fill="#c5c4c3" d="m638.97 474.08-.02 20.67q-13.47-.03-17.48.33-6.67.6-23.95 4.2-16.7 3.47-33.63 7.1-5.71 1.23-17.97 1.77c-18.59.81-32.13-8.22-43.93-21.68-11.53-13.15-25.84-35.33-46.63-21.14-5.46 3.72-9.69 7.52-14.06 13-11.11 13.96-21.31 26.75-36.15 33.79-8.07 3.82-15.23 4.84-25.76 4.78q-6.53-.03-49.56.11a.58.57 0 0 1-.58-.57v-19.6a.83.83 0 0 1 .82-.83q11.02-.13 53.19.01 9.01.04 16.25-5.26c8.25-6.03 13.4-12.49 21.46-22.29q4.99-6.07 12.07-13.15c7.27-7.27 19.85-13.84 30.15-15.82 16.51-3.18 32.21 7.19 42.98 19.11q9.29 10.27 14.18 15.3c8.86 9.1 18.3 14.77 31.77 12.71q9.54-1.45 16.86-3.13 7.77-1.78 11.45-2.49 26.18-5.08 30.57-5.76 12.33-1.92 27.97-1.16ZM304.82 486.9v-16.17a.57.57 0 0 1 .57-.57h17.12a1.36 1.36 0 0 1 1.36 1.36v70.03a.79.79 0 0 1-.79.79h-16.59a1.77 1.77 0 0 1-1.77-1.77v-17.71a.94.93-1.7 0 0-1-.93q-2 .13-3.26 1.32a.86.84-54.9 0 1-.92.17q-1.97-.87-2.54-.8-4.61.56-8 .33c-6.48-.46-11.55.23-18.28-.34-2.9-.25-6.1 1.14-8.79.19q-.96-.34-2.83.12-.5.12-2.84-.18c-4.15-.53-9.18.56-13.5.08-2.69-.3-5.49.41-8.69.32q-12.67-.38-15.1-.64a1.81 1.78-56.2 0 0-1.11.23l-1.2.7a.41.4 59.4 0 1-.56-.15l-.15-.27a.79.79 0 0 0-.87-.37c-1.67.4-2.46.82-4.09.32q-2.76-.85-4.87.29a1.44 1.44 0 0 1-1.3.04c-2.16-1.04-3.63-.52-5.69.08a2.05 2.04 51.4 0 1-1.55-.18q-2.29-1.27-3.91.38a.52.52 0 0 1-.84-.13q-.76-1.48-3.33-.52-1.53.58-3.41-.11a3.85 3.67 53.8 0 0-1.29-.23q-.64 0-7.79.38-2.46.13-7.42-.66a1.01 1.01 0 0 1-.85-1v-32.86a.57.56 90 0 1 .56-.57l54.81-.52a3.65 2.63 40.2 0 1 .51.04q2.37.38 3.38.36 12.76-.18 16.99-.08c1.55.03 2.95-.61 4.58-.15q.58.17 1.93.17 4.51 0 10.75-.26a6.69 6.67-41.3 0 1 1.41.09q1.96.35 2.62.24c3.22-.55 5.9-.01 9.31-.07q8.86-.16 20.14.02.35 0 1.11-.32a1.43 1.42 43.7 0 1 1.03-.02q2.3.85 6.5.07a.55.55 0 0 0 .45-.54Z"/></svg>