<?xml version="1.0" encoding="UTF-8" standalone="no"?>
<!DOCTYPE svg PUBLIC "-//W3C//DTD SVG 1.1//EN" "http://www.w3.org/Graphics/SVG/1.1/DTD/svg11.dtd">
<svg xmlns="http://www.w3.org/2000/svg" version="1.1" viewBox="0.00 0.00 1024.00 1024.00">
<g stroke-width="2.00" fill="none" stroke-linecap="butt">
<path stroke="#7f6b23" vector-effect="non-scaling-stroke" d="
  M 146.99 590.79
  Q 163.77 661.05 203.71 721.02
  Q 220.16 745.72 239.21 766.33
  Q 272.27 802.13 315.79 827.78
  Q 321.72 831.27 330.34 835.61
  C 345.77 843.37 361.56 849.81 378.04 854.68
  Q 422.59 867.85 468.09 868.91
  Q 517.92 870.09 566.17 853.90
  C 602.27 841.79 635.65 822.68 665.63 799.57
  Q 690.33 780.55 710.92 758.24
  Q 740.70 725.99 762.14 690.12
  Q 804.16 619.82 817.91 539.30
  Q 824.47 500.88 824.60 463.81
  Q 824.82 403.97 808.21 345.60
  C 794.27 296.58 771.99 251.38 740.03 211.68
  Q 718.74 185.24 690.17 162.52
  Q 669.25 145.90 643.16 131.94
  C 610.69 114.56 576.03 101.92 539.98 96.82
  C 501.81 91.40 462.17 92.83 424.52 102.53
  Q 403.64 107.90 393.92 111.44
  Q 314.17 140.47 256.72 198.20
  Q 203.00 252.16 172.13 322.74
  Q 151.15 370.70 142.45 420.13
  Q 138.48 442.72 136.97 468.92
  C 134.63 509.60 137.75 552.05 146.99 590.79"
/>
<path stroke="#764416" vector-effect="non-scaling-stroke" d="
  M 609.88 856.31
  Q 652.05 844.84 688.64 823.12
  Q 727.40 800.10 759.59 766.83
  Q 783.81 741.81 804.96 709.46
  Q 844.92 648.35 862.51 578.76
  C 880.84 506.22 881.24 429.60 860.61 357.58
  Q 846.61 308.72 821.84 266.68
  Q 807.38 242.13 791.77 222.73
  C 771.85 197.97 748.28 175.03 721.28 157.45
  C 713.81 152.58 704.55 148.27 698.00 144.19
  Q 697.88 144.12 697.43 144.11
  A 0.36 0.36 0.0 0 0 697.17 144.72
  C 699.33 146.90 703.81 149.53 707.03 152.36
  Q 718.64 162.59 720.49 164.31
  Q 756.00 197.05 782.23 239.00
  Q 819.33 298.33 835.86 371.93
  C 844.03 408.28 846.37 448.55 844.60 485.50
  Q 840.32 574.53 803.12 655.13
  Q 779.24 706.86 745.36 748.98
  C 739.34 756.47 730.47 766.32 723.60 773.84
  C 692.03 808.41 652.98 837.24 609.74 855.86
  A 0.24 0.23 -22.0 0 0 609.61 856.16
  L 609.61 856.17
  A 0.22 0.22 0.0 0 0 609.88 856.31"
/>
<path stroke="#f5ae39" vector-effect="non-scaling-stroke" d="
  M 148.03 590.53
  Q 164.78 660.58 204.62 720.35
  Q 221.03 744.97 240.02 765.51
  Q 272.99 801.19 316.39 826.75
  Q 322.30 830.23 330.90 834.55
  C 346.28 842.28 362.03 848.70 378.46 853.55
  Q 422.88 866.66 468.24 867.71
  Q 517.92 868.87 566.02 852.71
  C 602.00 840.63 635.28 821.56 665.16 798.52
  Q 689.78 779.55 710.30 757.30
  Q 739.97 725.14 761.34 689.37
  Q 803.21 619.27 816.89 538.99
  Q 823.42 500.68 823.54 463.73
  Q 823.74 404.07 807.16 345.88
  C 793.25 297.02 771.02 251.96 739.14 212.39
  Q 717.91 186.04 689.42 163.40
  Q 668.56 146.83 642.54 132.92
  C 610.17 115.61 575.61 103.02 539.67 97.94
  C 501.61 92.55 462.09 93.99 424.56 103.67
  Q 403.75 109.03 394.06 112.57
  Q 314.56 141.53 257.30 199.10
  Q 203.76 252.92 173.01 323.29
  Q 152.11 371.11 143.45 420.40
  Q 139.50 442.92 138.00 469.04
  C 135.68 509.60 138.80 551.92 148.03 590.53"
/>
<path stroke="#f5ae39" vector-effect="non-scaling-stroke" d="
  M 606.36 152.42
  C 571.86 137.65 534.71 130.02 496.51 129.21
  Q 442.63 128.07 392.47 146.48
  C 354.38 160.46 317.02 182.68 286.18 211.07
  Q 272.70 223.49 264.13 232.89
  Q 242.20 256.98 224.21 285.21
  C 192.57 334.87 173.75 392.32 167.51 450.54
  Q 165.93 465.21 165.23 482.55
  Q 161.52 574.15 200.44 656.56
  C 226.65 712.06 267.91 760.90 320.42 792.37
  Q 358.55 815.23 399.63 825.94
  C 436.03 835.43 473.62 837.33 510.90 831.40
  C 560.51 823.51 606.97 802.58 646.90 772.15
  Q 666.45 757.24 681.60 742.09
  Q 703.75 719.93 723.06 692.85
  Q 783.68 607.83 792.68 504.80
  C 794.46 484.47 794.49 461.83 793.42 441.51
  Q 792.08 416.16 786.88 388.28
  Q 776.41 332.11 748.76 281.53
  Q 724.69 237.50 687.39 203.39
  C 664.12 182.11 635.40 164.85 606.36 152.42"
/>
<path stroke="#7f6b23" vector-effect="non-scaling-stroke" d="
  M 605.67 153.40
  C 571.26 138.71 534.23 131.14 496.15 130.37
  Q 442.45 129.29 392.47 147.69
  C 354.51 161.66 317.30 183.84 286.58 212.17
  Q 273.16 224.56 264.63 233.94
  Q 242.79 257.97 224.88 286.12
  C 193.39 335.65 174.69 392.93 168.53 450.97
  Q 166.96 465.59 166.28 482.88
  Q 162.67 574.18 201.54 656.29
  C 227.72 711.58 268.89 760.22 321.26 791.54
  Q 359.29 814.29 400.25 824.93
  C 436.54 834.35 474.01 836.21 511.16 830.27
  C 560.60 822.35 606.89 801.45 646.66 771.08
  Q 666.13 756.20 681.22 741.08
  Q 703.28 718.98 722.50 691.97
  Q 782.84 607.16 791.71 504.46
  C 793.47 484.20 793.48 461.63 792.39 441.38
  Q 791.03 416.11 785.82 388.33
  Q 775.33 332.35 747.72 281.96
  Q 723.69 238.10 686.48 204.13
  C 663.27 182.94 634.62 165.77 605.67 153.40"
/>
<path stroke="#512406" vector-effect="non-scaling-stroke" d="
  M 319.53 770.38
  L 325.09 773.75"
/>
<path stroke="#764416" vector-effect="non-scaling-stroke" d="
  M 325.09 773.75
  L 344.34 786.13"
/>
<path stroke="#7f6b23" vector-effect="non-scaling-stroke" d="
  M 344.34 786.13
  Q 379.00 805.97 420.75 814.51
  Q 467.54 824.08 510.99 816.28
  C 561.37 807.24 608.41 783.44 646.94 750.19
  Q 697.67 706.40 729.08 648.67
  Q 762.49 587.27 771.59 515.97
  Q 777.90 466.52 772.78 417.49
  C 766.23 354.72 745.01 295.46 705.45 246.06
  Q 669.71 201.43 617.76 174.26
  Q 586.43 157.88 552.79 151.90"
/>
<path stroke="#764416" vector-effect="non-scaling-stroke" d="
  M 552.79 151.90
  C 546.76 150.73 540.61 149.23 534.72 148.55
  Q 501.70 144.73 472.24 148.30
  Q 423.94 154.15 375.78 176.37
  Q 355.21 185.86 335.88 199.00
  Q 313.87 213.96 299.65 227.17
  Q 214.18 306.58 192.56 422.04
  Q 181.41 481.56 188.37 542.09
  Q 195.02 599.90 220.38 652.60
  Q 232.30 677.36 248.87 700.63
  Q 278.44 742.14 319.53 770.38"
/>
<path stroke="#f5ae39" vector-effect="non-scaling-stroke" d="
  M 552.79 151.90
  L 552.34 152.13
  A 0.32 0.32 0.0 0 0 552.43 152.72
  Q 555.46 153.30 558.34 153.85
  Q 562.54 154.63 564.23 155.07
  Q 605.46 165.63 640.73 189.03
  Q 659.58 201.52 672.61 213.13
  Q 721.33 256.52 747.29 318.99
  Q 758.93 347.00 765.86 380.13
  Q 770.40 401.83 771.18 414.08
  C 771.33 416.46 772.22 418.64 772.12 421.10
  C 771.97 424.73 772.82 429.22 773.00 432.73
  Q 773.24 437.32 774.05 456.99
  Q 774.41 465.86 773.21 481.73
  C 772.97 484.86 773.20 490.35 772.50 493.82
  C 771.85 497.08 772.05 500.05 771.66 504.37
  Q 769.05 532.99 761.59 562.67
  Q 758.12 576.48 752.20 593.49
  C 744.44 615.77 734.99 637.07 723.05 657.11
  Q 714.91 670.78 710.63 677.14
  Q 700.23 692.55 684.66 711.12
  C 676.15 721.25 664.95 732.29 655.95 740.68
  Q 615.28 778.61 563.95 799.69
  Q 534.50 811.78 505.03 816.07
  Q 488.50 818.48 474.75 818.37
  C 466.51 818.30 456.11 818.37 447.13 817.47
  Q 392.97 812.04 345.57 785.65
  A 0.83 0.82 35.6 0 0 344.58 785.81
  Q 344.45 785.94 344.34 786.13"
/>
<path stroke="#c6681c" vector-effect="non-scaling-stroke" d="
  M 325.09 773.75
  Q 324.75 770.57 320.42 768.39
  A 3.84 3.78 -11.7 0 1 319.66 767.90
  Q 267.30 723.98 239.56 661.41
  Q 219.22 615.55 212.38 565.68
  Q 208.16 534.97 208.69 502.76
  Q 210.12 415.53 247.03 337.57
  Q 253.65 323.57 262.56 308.61
  Q 272.09 292.61 280.79 281.28
  Q 297.59 259.41 306.08 250.57
  C 319.22 236.88 329.98 225.82 343.48 215.57"
/>
<path stroke="#f5ae39" vector-effect="non-scaling-stroke" d="
  M 343.48 215.57
  L 343.65 216.38
  A 0.40 0.40 0.0 0 0 344.32 216.59
  Q 348.24 212.95 353.60 209.09
  Q 407.39 170.39 471.53 156.83
  Q 484.10 154.17 494.46 153.20
  C 504.29 152.29 513.50 152.15 522.57 151.43
  A 0.34 0.33 89.1 0 0 522.88 151.10
  L 522.90 150.81
  A 0.19 0.18 3.1 0 0 522.72 150.62
  L 518.47 150.53"
/>
<path stroke="#c6681c" vector-effect="non-scaling-stroke" d="
  M 518.47 150.53
  Q 527.83 149.85 537.27 150.81
  Q 539.22 151.00 540.54 150.69
  A 0.28 0.28 0.0 0 0 540.49 150.14
  L 524.57 149.29
  A 8.81 8.74 51.6 0 1 523.32 149.14
  Q 520.78 148.66 515.50 148.36
  Q 493.84 147.12 474.69 149.18
  Q 452.68 151.54 430.53 157.57
  Q 403.08 165.03 378.31 176.32
  C 353.16 187.77 331.57 202.06 310.38 219.14
  Q 305.03 223.46 301.01 227.26
  C 291.32 236.40 280.26 247.31 271.38 257.93
  Q 252.65 280.30 239.92 300.90
  Q 216.86 338.19 203.56 381.82
  Q 193.84 413.69 189.99 445.77
  Q 188.85 455.30 187.81 467.56
  Q 186.70 480.68 186.91 489.46
  C 187.11 497.39 186.61 508.90 187.39 519.17
  Q 189.54 547.39 193.35 567.45
  Q 205.35 630.61 239.88 685.62
  Q 252.99 706.52 268.70 724.32
  Q 284.62 742.36 305.29 758.69
  A 2.75 2.50 74.2 0 0 305.87 759.05
  Q 307.21 759.66 309.01 760.98
  Q 314.18 764.78 319.76 769.18
  Q 320.26 769.57 320.07 770.16
  Q 319.99 770.43 319.53 770.38"
/>
<path stroke="#d08f29" vector-effect="non-scaling-stroke" d="
  M 518.47 150.53
  Q 496.97 150.58 475.99 154.78
  Q 402.53 169.49 343.48 215.57"
/>
<path stroke="#c6681c" vector-effect="non-scaling-stroke" d="
  M 625.14 850.32
  A 0.18 0.18 0.0 0 0 625.36 850.43
  Q 652.90 841.61 677.83 828.05
  Q 709.49 810.82 736.47 787.22
  Q 758.36 768.08 772.46 751.21
  Q 785.48 735.64 789.45 730.20
  Q 796.95 719.93 799.87 715.38
  C 808.00 702.72 815.39 691.35 822.31 678.64
  Q 854.07 620.33 866.88 554.40
  Q 871.93 528.40 873.99 501.62
  C 874.26 498.22 874.19 494.85 874.51 491.16
  C 875.24 482.90 875.06 476.28 875.07 462.59
  Q 875.07 455.43 874.89 453.45
  C 874.18 445.43 874.23 438.21 873.32 430.69
  C 872.40 423.09 871.92 417.17 870.95 410.66
  Q 860.91 343.15 829.90 283.33
  C 821.18 266.52 810.11 248.98 798.79 233.54
  Q 783.57 212.81 760.88 190.71
  C 751.61 181.68 742.32 173.72 730.77 165.26
  Q 720.00 157.36 708.37 151.21
  A 0.34 0.33 85.2 0 0 707.95 151.71
  Q 709.45 153.69 711.35 154.95
  Q 712.64 155.81 714.94 157.80
  C 724.41 166.00 734.00 175.05 742.29 184.86
  Q 743.35 186.10 747.86 191.11
  Q 768.57 214.04 786.55 244.17
  Q 822.80 304.90 837.32 373.63
  C 843.56 403.15 846.05 431.89 846.17 462.50
  Q 846.34 503.16 839.70 541.75
  Q 831.96 586.78 813.81 633.27
  Q 809.27 644.91 801.74 660.70
  Q 793.67 677.59 788.09 687.36
  C 774.95 710.33 760.49 732.60 743.62 752.66
  Q 723.14 777.04 703.92 794.92
  C 680.34 816.86 653.66 835.79 625.07 850.02
  A 0.01 0.01 0.0 0 0 625.06 850.04
  L 625.14 850.32"
/>
<path stroke="#f5ae39" vector-effect="non-scaling-stroke" d="
  M 491.56 305.69
  Q 486.30 305.25 480.06 305.31
  C 476.35 305.35 473.21 305.90 469.84 305.99
  Q 466.42 306.08 462.17 306.75
  Q 435.61 310.88 414.11 322.62
  C 408.74 325.56 401.49 329.64 396.36 333.32
  Q 341.37 372.87 323.14 437.94
  Q 322.53 440.12 320.03 451.04
  C 318.85 456.18 318.54 459.37 317.71 466.04
  Q 317.00 471.75 316.82 477.36
  C 316.64 482.96 315.71 489.13 316.46 494.68
  Q 316.93 498.17 317.02 502.04
  Q 317.10 505.27 318.03 512.32
  Q 318.79 518.04 319.51 522.55
  C 326.09 563.94 344.99 601.01 376.70 628.59
  Q 394.86 644.39 420.09 654.26
  Q 428.61 657.60 440.14 660.17
  Q 452.42 662.91 460.77 663.41
  Q 474.41 664.23 483.98 663.57
  C 510.32 661.76 536.17 652.12 557.95 636.94
  Q 569.63 628.81 576.43 622.91
  Q 601.32 601.32 618.18 572.49
  Q 636.72 540.81 641.45 502.23
  Q 641.88 498.70 642.78 487.24
  Q 643.55 477.32 641.97 462.91
  A 9.63 7.96 -82.3 0 1 641.91 461.56
  C 641.96 457.74 641.39 456.44 640.84 452.72
  Q 634.31 408.44 608.50 372.76
  Q 589.80 346.91 564.85 330.43
  Q 538.01 312.70 503.97 306.88
  C 499.84 306.17 496.52 306.11 491.56 305.69"
/>
<path stroke="#7f6b23" vector-effect="non-scaling-stroke" d="
  M 533.55 649.77
  C 567.98 633.66 596.66 606.77 616.16 573.64
  Q 641.59 530.44 641.53 479.75
  Q 641.48 432.40 619.29 391.72
  Q 610.17 375.01 596.37 359.39
  Q 562.81 321.38 513.96 310.00
  C 503.27 307.50 493.21 306.71 481.99 306.67
  C 422.35 306.43 369.63 345.53 341.42 395.93
  C 326.94 421.78 318.43 452.11 317.79 482.33
  C 317.15 512.54 322.33 541.92 334.45 569.57
  C 349.06 602.92 375.12 631.91 407.91 647.87
  C 446.92 666.85 493.97 668.28 533.55 649.77"
/>
<path stroke="#7f6b23" vector-effect="non-scaling-stroke" d="
  M 436.52 333.29
  C 407.72 344.76 382.20 366.45 364.29 391.54
  Q 352.65 407.85 346.58 425.32
  C 338.38 448.91 334.95 474.24 336.52 499.90
  C 338.59 534.01 347.91 568.49 370.21 594.80
  C 397.15 626.60 435.83 643.17 477.81 639.33
  C 498.33 637.45 515.79 631.24 531.78 619.24
  Q 549.55 605.90 564.35 588.79
  Q 601.23 546.15 604.76 489.21
  C 607.80 440.09 593.32 392.89 557.65 358.33
  C 541.38 342.57 520.44 330.59 498.26 327.27
  C 477.42 324.15 455.64 325.67 436.52 333.29"
/>
<path stroke="#764416" vector-effect="non-scaling-stroke" d="
  M 605.46 382.75
  A 0.37 0.36 -19.6 0 0 605.23 383.23
  Q 626.13 434.69 622.68 489.25
  C 620.71 520.51 611.57 550.64 595.17 577.41
  Q 583.37 596.67 572.32 608.57
  A 0.41 0.40 44.5 0 0 572.33 609.13
  L 572.34 609.15
  A 0.43 0.43 0.0 0 0 572.93 609.18
  Q 585.13 599.04 592.10 591.85
  Q 601.70 581.95 610.66 566.68
  C 619.67 551.32 625.55 534.91 629.57 517.43
  C 638.59 478.11 634.11 435.57 615.60 399.35
  Q 613.38 395.00 610.94 391.13
  Q 607.47 385.63 605.86 382.73
  A 0.15 0.14 64.5 0 0 605.70 382.67
  L 605.46 382.75"
/>
<path stroke="#f5ae39" vector-effect="non-scaling-stroke" d="
  M 446.41 637.38
  C 451.87 638.22 457.96 638.10 464.25 638.46
  Q 466.01 638.57 475.33 638.16
  Q 481.45 637.89 486.36 637.10
  C 506.71 633.85 523.80 624.99 539.38 611.87
  Q 554.58 599.07 566.31 584.81
  Q 577.90 570.72 585.56 555.79
  Q 598.48 530.61 602.66 500.15
  C 603.13 496.71 603.16 493.23 603.65 489.50
  C 604.43 483.61 604.09 478.42 604.10 470.54
  C 604.11 466.35 603.12 463.01 603.14 459.43
  Q 603.17 455.98 602.43 451.11
  Q 601.14 442.60 599.27 434.53
  Q 590.75 397.88 566.76 369.55
  Q 552.28 352.45 531.96 340.48
  C 519.62 333.21 507.08 329.39 493.04 327.63
  Q 458.62 323.30 427.72 338.20
  C 402.37 350.43 380.50 370.34 364.38 393.12
  C 350.47 412.78 342.42 436.47 339.27 460.50
  Q 337.44 474.42 337.51 485.23
  Q 337.60 500.37 338.09 506.50
  Q 339.86 528.58 346.73 549.77
  Q 361.65 595.82 402.46 621.08
  Q 422.97 633.77 446.41 637.38"
/>
<path stroke="#f5ae39" vector-effect="non-scaling-stroke" d="
  M 513.34 383.44
  Q 499.10 375.88 480.83 373.49
  C 457.51 370.45 433.43 380.34 416.11 395.13
  Q 399.22 409.55 388.40 428.74
  C 379.03 445.36 374.62 462.81 373.87 482.70
  Q 373.03 504.64 377.70 522.10
  Q 385.84 552.54 410.81 572.91
  C 433.53 591.44 465.13 596.76 492.19 588.12
  C 512.86 581.52 531.05 566.56 544.03 548.80
  Q 554.69 534.19 560.25 519.31
  Q 578.50 470.45 554.07 424.37
  Q 539.83 397.51 513.34 383.44"
/>
<path stroke="#7f6b23" vector-effect="non-scaling-stroke" d="
  M 512.77 384.46
  Q 498.66 377.01 480.58 374.68
  C 457.49 371.71 433.68 381.54 416.57 396.21
  Q 399.88 410.52 389.20 429.53
  C 379.96 445.99 375.63 463.27 374.92 482.96
  Q 374.13 504.67 378.79 521.94
  Q 386.90 552.05 411.65 572.17
  C 434.17 590.46 465.45 595.67 492.22 587.07
  C 512.66 580.50 530.64 565.66 543.45 548.06
  Q 553.97 533.58 559.45 518.84
  Q 577.42 470.45 553.15 424.90
  Q 539.01 398.34 512.77 384.46"
/>
<path stroke="#764416" vector-effect="non-scaling-stroke" d="
  M 477.91 571.83
  A 0.35 0.35 0.0 0 0 478.03 571.17
  C 464.20 564.01 452.90 552.05 445.15 538.58
  Q 429.94 512.14 432.88 481.26
  C 434.96 459.41 443.00 440.71 456.78 423.71
  Q 470.60 406.66 487.24 398.32
  A 2.31 1.90 16.8 0 1 487.60 398.17
  L 491.19 397.01
  A 0.37 0.37 0.0 0 0 491.16 396.30
  Q 487.53 395.50 479.15 394.21
  Q 466.80 392.32 454.54 396.30
  C 424.74 405.97 403.58 436.09 397.50 465.66
  Q 390.83 498.04 402.51 528.68
  Q 411.76 552.95 434.40 564.59
  C 443.19 569.11 452.73 572.41 462.97 572.56
  Q 469.63 572.66 477.91 571.83"
/>
<path stroke="#c6681c" vector-effect="non-scaling-stroke" d="
  M 584.29 598.04
  Q 586.58 595.42 589.53 593.20
  A 7.83 7.54 1.1 0 0 590.66 592.15
  Q 598.82 582.95 601.79 578.76
  Q 619.27 554.11 626.88 524.42
  Q 632.08 504.16 633.08 483.83
  C 633.29 479.60 633.22 471.86 632.63 466.07
  Q 631.35 453.55 631.09 451.81
  Q 626.45 420.10 610.62 392.34
  A 0.28 0.27 21.0 0 0 610.12 392.56
  Q 613.26 401.65 615.54 409.89
  Q 618.88 421.92 621.79 439.69
  Q 624.57 456.63 624.18 481.32
  Q 624.04 490.63 622.38 502.49
  Q 620.85 513.50 618.55 523.39
  Q 612.83 547.96 600.76 569.71
  Q 592.17 585.17 581.71 599.04
  Q 581.46 599.38 581.78 599.74
  A 0.38 0.38 0.0 0 0 582.38 599.71
  Q 583.24 598.48 584.22 598.09
  A 0.29 0.24 4.7 0 0 584.29 598.04"
/>
<path stroke="#c6681c" vector-effect="non-scaling-stroke" d="
  M 486.40 396.98
  Q 481.22 395.18 476.01 394.95
  C 470.40 394.71 465.25 394.72 459.41 396.12
  C 444.94 399.58 432.06 407.85 422.00 419.31
  C 403.89 439.94 394.78 466.45 396.56 494.52
  Q 397.02 501.66 397.18 503.04
  Q 398.08 510.81 401.12 521.64
  Q 404.32 533.08 411.20 543.07
  Q 418.07 553.04 428.03 559.70
  Q 439.36 567.26 452.25 570.30
  C 458.99 571.89 466.92 571.60 473.62 570.90
  A 0.28 0.28 0.0 0 0 473.75 570.39
  C 463.83 563.47 455.01 555.38 448.31 545.47
  Q 433.52 523.57 431.58 498.59
  Q 429.98 477.87 436.95 456.80
  Q 440.70 445.48 447.56 434.87
  Q 454.86 423.59 462.61 415.60
  Q 472.86 405.02 486.44 397.45
  A 0.26 0.26 0.0 0 0 486.40 396.98"
/>
</g>
<path fill="#000000" d="
  M 162.01 303.24
  Q 162.01 303.10 162.13 302.84
  Q 183.67 257.18 216.36 217.11
  Q 221.67 210.59 234.75 196.00
  Q 241.89 188.02 261.34 169.66
  Q 267.67 163.69 274.09 158.86
  C 278.23 155.75 285.82 149.32 291.61 145.07
  Q 358.37 96.06 439.58 79.60
  Q 465.91 74.26 490.76 73.21
  Q 499.65 72.84 520.23 73.06
  C 526.05 73.13 531.22 73.79 538.25 74.08
  Q 541.52 74.22 553.32 75.52
  Q 561.28 76.40 568.32 77.54
  Q 612.74 84.78 654.42 100.87
  Q 683.05 111.93 711.25 128.76
  Q 736.61 143.89 758.12 162.12
  C 780.83 181.37 802.12 204.11 820.19 229.16
  Q 856.48 279.47 876.19 338.06
  Q 891.02 382.14 896.63 430.22
  Q 896.99 433.28 897.00 435.28
  C 897.01 437.55 897.62 439.67 897.81 441.99
  Q 899.75 465.75 898.86 491.76
  Q 898.67 497.42 898.28 500.25
  C 897.87 503.22 898.01 507.42 897.68 511.57
  Q 893.86 559.02 878.05 607.01
  Q 847.77 698.91 784.04 768.86
  Q 751.88 804.16 708.20 832.03
  Q 675.75 852.73 638.99 866.27
  Q 601.62 880.03 564.24 885.91
  Q 543.50 889.16 532.67 889.75
  Q 524.25 890.21 523.21 890.32
  Q 517.47 890.91 513.77 890.94
  Q 486.73 891.13 473.80 890.90
  Q 469.23 890.83 465.23 890.32
  C 461.56 889.85 457.87 890.03 453.81 889.58
  Q 439.43 887.97 438.54 887.87
  Q 423.51 886.16 403.02 881.63
  Q 386.48 877.97 368.43 871.61
  Q 304.29 849.03 253.55 803.75
  C 239.65 791.35 225.04 776.41 212.79 761.51
  Q 188.04 731.43 168.00 694.00
  Q 157.01 673.46 149.65 654.84
  Q 136.60 621.78 129.74 592.80
  Q 123.77 567.60 121.17 543.99
  Q 120.21 535.26 119.75 530.04
  Q 119.00 521.52 118.92 517.29
  C 118.80 511.18 118.13 506.04 118.10 500.23
  Q 118.03 485.96 118.46 480.25
  C 119.00 473.15 118.86 468.79 119.45 462.59
  Q 120.51 451.29 121.07 445.51
  Q 123.24 423.11 129.11 397.27
  Q 140.01 349.32 161.04 305.01
  Q 161.53 303.96 161.57 303.92
  A 1.12 0.37 -39.0 0 0 162.01 303.24
  Z
  M 146.99 590.79
  Q 163.77 661.05 203.71 721.02
  Q 220.16 745.72 239.21 766.33
  Q 272.27 802.13 315.79 827.78
  Q 321.72 831.27 330.34 835.61
  C 345.77 843.37 361.56 849.81 378.04 854.68
  Q 422.59 867.85 468.09 868.91
  Q 517.92 870.09 566.17 853.90
  C 602.27 841.79 635.65 822.68 665.63 799.57
  Q 690.33 780.55 710.92 758.24
  Q 740.70 725.99 762.14 690.12
  Q 804.16 619.82 817.91 539.30
  Q 824.47 500.88 824.60 463.81
  Q 824.82 403.97 808.21 345.60
  C 794.27 296.58 771.99 251.38 740.03 211.68
  Q 718.74 185.24 690.17 162.52
  Q 669.25 145.90 643.16 131.94
  C 610.69 114.56 576.03 101.92 539.98 96.82
  C 501.81 91.40 462.17 92.83 424.52 102.53
  Q 403.64 107.90 393.92 111.44
  Q 314.17 140.47 256.72 198.20
  Q 203.00 252.16 172.13 322.74
  Q 151.15 370.70 142.45 420.13
  Q 138.48 442.72 136.97 468.92
  C 134.63 509.60 137.75 552.05 146.99 590.79
  Z
  M 609.88 856.31
  Q 652.05 844.84 688.64 823.12
  Q 727.40 800.10 759.59 766.83
  Q 783.81 741.81 804.96 709.46
  Q 844.92 648.35 862.51 578.76
  C 880.84 506.22 881.24 429.60 860.61 357.58
  Q 846.61 308.72 821.84 266.68
  Q 807.38 242.13 791.77 222.73
  C 771.85 197.97 748.28 175.03 721.28 157.45
  C 713.81 152.58 704.55 148.27 698.00 144.19
  Q 697.88 144.12 697.43 144.11
  A 0.36 0.36 0.0 0 0 697.17 144.72
  C 699.33 146.90 703.81 149.53 707.03 152.36
  Q 718.64 162.59 720.49 164.31
  Q 756.00 197.05 782.23 239.00
  Q 819.33 298.33 835.86 371.93
  C 844.03 408.28 846.37 448.55 844.60 485.50
  Q 840.32 574.53 803.12 655.13
  Q 779.24 706.86 745.36 748.98
  C 739.34 756.47 730.47 766.32 723.60 773.84
  C 692.03 808.41 652.98 837.24 609.74 855.86
  A 0.24 0.23 -22.0 0 0 609.61 856.16
  L 609.61 856.17
  A 0.22 0.22 0.0 0 0 609.88 856.31
  Z"
/>
<path fill="#fed546" d="
  M 146.99 590.79
  C 137.75 552.05 134.63 509.60 136.97 468.92
  Q 138.48 442.72 142.45 420.13
  Q 151.15 370.70 172.13 322.74
  Q 203.00 252.16 256.72 198.20
  Q 314.17 140.47 393.92 111.44
  Q 403.64 107.90 424.52 102.53
  C 462.17 92.83 501.81 91.40 539.98 96.82
  C 576.03 101.92 610.69 114.56 643.16 131.94
  Q 669.25 145.90 690.17 162.52
  Q 718.74 185.24 740.03 211.68
  C 771.99 251.38 794.27 296.58 808.21 345.60
  Q 824.82 403.97 824.60 463.81
  Q 824.47 500.88 817.91 539.30
  Q 804.16 619.82 762.14 690.12
  Q 740.70 725.99 710.92 758.24
  Q 690.33 780.55 665.63 799.57
  C 635.65 822.68 602.27 841.79 566.17 853.90
  Q 517.92 870.09 468.09 868.91
  Q 422.59 867.85 378.04 854.68
  C 361.56 849.81 345.77 843.37 330.34 835.61
  Q 321.72 831.27 315.79 827.78
  Q 272.27 802.13 239.21 766.33
  Q 220.16 745.72 203.71 721.02
  Q 163.77 661.05 146.99 590.79
  Z
  M 148.03 590.53
  Q 164.78 660.58 204.62 720.35
  Q 221.03 744.97 240.02 765.51
  Q 272.99 801.19 316.39 826.75
  Q 322.30 830.23 330.90 834.55
  C 346.28 842.28 362.03 848.70 378.46 853.55
  Q 422.88 866.66 468.24 867.71
  Q 517.92 868.87 566.02 852.71
  C 602.00 840.63 635.28 821.56 665.16 798.52
  Q 689.78 779.55 710.30 757.30
  Q 739.97 725.14 761.34 689.37
  Q 803.21 619.27 816.89 538.99
  Q 823.42 500.68 823.54 463.73
  Q 823.74 404.07 807.16 345.88
  C 793.25 297.02 771.02 251.96 739.14 212.39
  Q 717.91 186.04 689.42 163.40
  Q 668.56 146.83 642.54 132.92
  C 610.17 115.61 575.61 103.02 539.67 97.94
  C 501.61 92.55 462.09 93.99 424.56 103.67
  Q 403.75 109.03 394.06 112.57
  Q 314.56 141.53 257.30 199.10
  Q 203.76 252.92 173.01 323.29
  Q 152.11 371.11 143.45 420.40
  Q 139.50 442.92 138.00 469.04
  C 135.68 509.60 138.80 551.92 148.03 590.53
  Z"
/>
<path fill="#eb872c" d="
  M 148.03 590.53
  C 138.80 551.92 135.68 509.60 138.00 469.04
  Q 139.50 442.92 143.45 420.40
  Q 152.11 371.11 173.01 323.29
  Q 203.76 252.92 257.30 199.10
  Q 314.56 141.53 394.06 112.57
  Q 403.75 109.03 424.56 103.67
  C 462.09 93.99 501.61 92.55 539.67 97.94
  C 575.61 103.02 610.17 115.61 642.54 132.92
  Q 668.56 146.83 689.42 163.40
  Q 717.91 186.04 739.14 212.39
  C 771.02 251.96 793.25 297.02 807.16 345.88
  Q 823.74 404.07 823.54 463.73
  Q 823.42 500.68 816.89 538.99
  Q 803.21 619.27 761.34 689.37
  Q 739.97 725.14 710.30 757.30
  Q 689.78 779.55 665.16 798.52
  C 635.28 821.56 602.00 840.63 566.02 852.71
  Q 517.92 868.87 468.24 867.71
  Q 422.88 866.66 378.46 853.55
  C 362.03 848.70 346.28 842.28 330.90 834.55
  Q 322.30 830.23 316.39 826.75
  Q 272.99 801.19 240.02 765.51
  Q 221.03 744.97 204.62 720.35
  Q 164.78 660.58 148.03 590.53
  Z
  M 606.36 152.42
  C 571.86 137.65 534.71 130.02 496.51 129.21
  Q 442.63 128.07 392.47 146.48
  C 354.38 160.46 317.02 182.68 286.18 211.07
  Q 272.70 223.49 264.13 232.89
  Q 242.20 256.98 224.21 285.21
  C 192.57 334.87 173.75 392.32 167.51 450.54
  Q 165.93 465.21 165.23 482.55
  Q 161.52 574.15 200.44 656.56
  C 226.65 712.06 267.91 760.90 320.42 792.37
  Q 358.55 815.23 399.63 825.94
  C 436.03 835.43 473.62 837.33 510.90 831.40
  C 560.51 823.51 606.97 802.58 646.90 772.15
  Q 666.45 757.24 681.60 742.09
  Q 703.75 719.93 723.06 692.85
  Q 783.68 607.83 792.68 504.80
  C 794.46 484.47 794.49 461.83 793.42 441.51
  Q 792.08 416.16 786.88 388.28
  Q 776.41 332.11 748.76 281.53
  Q 724.69 237.50 687.39 203.39
  C 664.12 182.11 635.40 164.85 606.36 152.42
  Z"
/>
<path fill="#fed546" d="
  M 606.36 152.42
  C 635.40 164.85 664.12 182.11 687.39 203.39
  Q 724.69 237.50 748.76 281.53
  Q 776.41 332.11 786.88 388.28
  Q 792.08 416.16 793.42 441.51
  C 794.49 461.83 794.46 484.47 792.68 504.80
  Q 783.68 607.83 723.06 692.85
  Q 703.75 719.93 681.60 742.09
  Q 666.45 757.24 646.90 772.15
  C 606.97 802.58 560.51 823.51 510.90 831.40
  C 473.62 837.33 436.03 835.43 399.63 825.94
  Q 358.55 815.23 320.42 792.37
  C 267.91 760.90 226.65 712.06 200.44 656.56
  Q 161.52 574.15 165.23 482.55
  Q 165.93 465.21 167.51 450.54
  C 173.75 392.32 192.57 334.87 224.21 285.21
  Q 242.20 256.98 264.13 232.89
  Q 272.70 223.49 286.18 211.07
  C 317.02 182.68 354.38 160.46 392.47 146.48
  Q 442.63 128.07 496.51 129.21
  C 534.71 130.02 571.86 137.65 606.36 152.42
  Z
  M 605.67 153.40
  C 571.26 138.71 534.23 131.14 496.15 130.37
  Q 442.45 129.29 392.47 147.69
  C 354.51 161.66 317.30 183.84 286.58 212.17
  Q 273.16 224.56 264.63 233.94
  Q 242.79 257.97 224.88 286.12
  C 193.39 335.65 174.69 392.93 168.53 450.97
  Q 166.96 465.59 166.28 482.88
  Q 162.67 574.18 201.54 656.29
  C 227.72 711.58 268.89 760.22 321.26 791.54
  Q 359.29 814.29 400.25 824.93
  C 436.54 834.35 474.01 836.21 511.16 830.27
  C 560.60 822.35 606.89 801.45 646.66 771.08
  Q 666.13 756.20 681.22 741.08
  Q 703.28 718.98 722.50 691.97
  Q 782.84 607.16 791.71 504.46
  C 793.47 484.20 793.48 461.63 792.39 441.38
  Q 791.03 416.11 785.82 388.33
  Q 775.33 332.35 747.72 281.96
  Q 723.69 238.10 686.48 204.13
  C 663.27 182.94 634.62 165.77 605.67 153.40
  Z"
/>
<path fill="#000000" d="
  M 605.67 153.40
  C 634.62 165.77 663.27 182.94 686.48 204.13
  Q 723.69 238.10 747.72 281.96
  Q 775.33 332.35 785.82 388.33
  Q 791.03 416.11 792.39 441.38
  C 793.48 461.63 793.47 484.20 791.71 504.46
  Q 782.84 607.16 722.50 691.97
  Q 703.28 718.98 681.22 741.08
  Q 666.13 756.20 646.66 771.08
  C 606.89 801.45 560.60 822.35 511.16 830.27
  C 474.01 836.21 436.54 834.35 400.25 824.93
  Q 359.29 814.29 321.26 791.54
  C 268.89 760.22 227.72 711.58 201.54 656.29
  Q 162.67 574.18 166.28 482.88
  Q 166.96 465.59 168.53 450.97
  C 174.69 392.93 193.39 335.65 224.88 286.12
  Q 242.79 257.97 264.63 233.94
  Q 273.16 224.56 286.58 212.17
  C 317.30 183.84 354.51 161.66 392.47 147.69
  Q 442.45 129.29 496.15 130.37
  C 534.23 131.14 571.26 138.71 605.67 153.40
  Z
  M 319.53 770.38
  L 325.09 773.75
  L 344.34 786.13
  Q 379.00 805.97 420.75 814.51
  Q 467.54 824.08 510.99 816.28
  C 561.37 807.24 608.41 783.44 646.94 750.19
  Q 697.67 706.40 729.08 648.67
  Q 762.49 587.27 771.59 515.97
  Q 777.90 466.52 772.78 417.49
  C 766.23 354.72 745.01 295.46 705.45 246.06
  Q 669.71 201.43 617.76 174.26
  Q 586.43 157.88 552.79 151.90
  C 546.76 150.73 540.61 149.23 534.72 148.55
  Q 501.70 144.73 472.24 148.30
  Q 423.94 154.15 375.78 176.37
  Q 355.21 185.86 335.88 199.00
  Q 313.87 213.96 299.65 227.17
  Q 214.18 306.58 192.56 422.04
  Q 181.41 481.56 188.37 542.09
  Q 195.02 599.90 220.38 652.60
  Q 232.30 677.36 248.87 700.63
  Q 278.44 742.14 319.53 770.38
  Z"
/>
<path fill="#eb872c" d="
  M 609.88 856.31
  A 0.22 0.22 0.0 0 1 609.61 856.17
  L 609.61 856.16
  A 0.24 0.23 -22.0 0 1 609.74 855.86
  C 652.98 837.24 692.03 808.41 723.60 773.84
  C 730.47 766.32 739.34 756.47 745.36 748.98
  Q 779.24 706.86 803.12 655.13
  Q 840.32 574.53 844.60 485.50
  C 846.37 448.55 844.03 408.28 835.86 371.93
  Q 819.33 298.33 782.23 239.00
  Q 756.00 197.05 720.49 164.31
  Q 718.64 162.59 707.03 152.36
  C 703.81 149.53 699.33 146.90 697.17 144.72
  A 0.36 0.36 0.0 0 1 697.43 144.11
  Q 697.88 144.12 698.00 144.19
  C 704.55 148.27 713.81 152.58 721.28 157.45
  C 748.28 175.03 771.85 197.97 791.77 222.73
  Q 807.38 242.13 821.84 266.68
  Q 846.61 308.72 860.61 357.58
  C 881.24 429.60 880.84 506.22 862.51 578.76
  Q 844.92 648.35 804.96 709.46
  Q 783.81 741.81 759.59 766.83
  Q 727.40 800.10 688.64 823.12
  Q 652.05 844.84 609.88 856.31
  Z
  M 625.14 850.32
  A 0.18 0.18 0.0 0 0 625.36 850.43
  Q 652.90 841.61 677.83 828.05
  Q 709.49 810.82 736.47 787.22
  Q 758.36 768.08 772.46 751.21
  Q 785.48 735.64 789.45 730.20
  Q 796.95 719.93 799.87 715.38
  C 808.00 702.72 815.39 691.35 822.31 678.64
  Q 854.07 620.33 866.88 554.40
  Q 871.93 528.40 873.99 501.62
  C 874.26 498.22 874.19 494.85 874.51 491.16
  C 875.24 482.90 875.06 476.28 875.07 462.59
  Q 875.07 455.43 874.89 453.45
  C 874.18 445.43 874.23 438.21 873.32 430.69
  C 872.40 423.09 871.92 417.17 870.95 410.66
  Q 860.91 343.15 829.90 283.33
  C 821.18 266.52 810.11 248.98 798.79 233.54
  Q 783.57 212.81 760.88 190.71
  C 751.61 181.68 742.32 173.72 730.77 165.26
  Q 720.00 157.36 708.37 151.21
  A 0.34 0.33 85.2 0 0 707.95 151.71
  Q 709.45 153.69 711.35 154.95
  Q 712.64 155.81 714.94 157.80
  C 724.41 166.00 734.00 175.05 742.29 184.86
  Q 743.35 186.10 747.86 191.11
  Q 768.57 214.04 786.55 244.17
  Q 822.80 304.90 837.32 373.63
  C 843.56 403.15 846.05 431.89 846.17 462.50
  Q 846.34 503.16 839.70 541.75
  Q 831.96 586.78 813.81 633.27
  Q 809.27 644.91 801.74 660.70
  Q 793.67 677.59 788.09 687.36
  C 774.95 710.33 760.49 732.60 743.62 752.66
  Q 723.14 777.04 703.92 794.92
  C 680.34 816.86 653.66 835.79 625.07 850.02
  A 0.01 0.01 0.0 0 0 625.06 850.04
  L 625.14 850.32
  Z"
/>
<path fill="#eb872c" d="
  M 552.79 151.90
  L 552.34 152.13
  A 0.32 0.32 0.0 0 0 552.43 152.72
  Q 555.46 153.30 558.34 153.85
  Q 562.54 154.63 564.23 155.07
  Q 605.46 165.63 640.73 189.03
  Q 659.58 201.52 672.61 213.13
  Q 721.33 256.52 747.29 318.99
  Q 758.93 347.00 765.86 380.13
  Q 770.40 401.83 771.18 414.08
  C 771.33 416.46 772.22 418.64 772.12 421.10
  C 771.97 424.73 772.82 429.22 773.00 432.73
  Q 773.24 437.32 774.05 456.99
  Q 774.41 465.86 773.21 481.73
  C 772.97 484.86 773.20 490.35 772.50 493.82
  C 771.85 497.08 772.05 500.05 771.66 504.37
  Q 769.05 532.99 761.59 562.67
  Q 758.12 576.48 752.20 593.49
  C 744.44 615.77 734.99 637.07 723.05 657.11
  Q 714.91 670.78 710.63 677.14
  Q 700.23 692.55 684.66 711.12
  C 676.15 721.25 664.95 732.29 655.95 740.68
  Q 615.28 778.61 563.95 799.69
  Q 534.50 811.78 505.03 816.07
  Q 488.50 818.48 474.75 818.37
  C 466.51 818.30 456.11 818.37 447.13 817.47
  Q 392.97 812.04 345.57 785.65
  A 0.83 0.82 35.6 0 0 344.58 785.81
  Q 344.45 785.94 344.34 786.13
  L 325.09 773.75
  Q 324.75 770.57 320.42 768.39
  A 3.84 3.78 -11.7 0 1 319.66 767.90
  Q 267.30 723.98 239.56 661.41
  Q 219.22 615.55 212.38 565.68
  Q 208.16 534.97 208.69 502.76
  Q 210.12 415.53 247.03 337.57
  Q 253.65 323.57 262.56 308.61
  Q 272.09 292.61 280.79 281.28
  Q 297.59 259.41 306.08 250.57
  C 319.22 236.88 329.98 225.82 343.48 215.57
  L 343.65 216.38
  A 0.40 0.40 0.0 0 0 344.32 216.59
  Q 348.24 212.95 353.60 209.09
  Q 407.39 170.39 471.53 156.83
  Q 484.10 154.17 494.46 153.20
  C 504.29 152.29 513.50 152.15 522.57 151.43
  A 0.34 0.33 89.1 0 0 522.88 151.10
  L 522.90 150.81
  A 0.19 0.18 3.1 0 0 522.72 150.62
  L 518.47 150.53
  Q 527.83 149.85 537.27 150.81
  Q 539.22 151.00 540.54 150.69
  A 0.28 0.28 0.0 0 0 540.49 150.14
  L 524.57 149.29
  A 8.81 8.74 51.6 0 1 523.32 149.14
  Q 520.78 148.66 515.50 148.36
  Q 493.84 147.12 474.69 149.18
  Q 452.68 151.54 430.53 157.57
  Q 403.08 165.03 378.31 176.32
  C 353.16 187.77 331.57 202.06 310.38 219.14
  Q 305.03 223.46 301.01 227.26
  C 291.32 236.40 280.26 247.31 271.38 257.93
  Q 252.65 280.30 239.92 300.90
  Q 216.86 338.19 203.56 381.82
  Q 193.84 413.69 189.99 445.77
  Q 188.85 455.30 187.81 467.56
  Q 186.70 480.68 186.91 489.46
  C 187.11 497.39 186.61 508.90 187.39 519.17
  Q 189.54 547.39 193.35 567.45
  Q 205.35 630.61 239.88 685.62
  Q 252.99 706.52 268.70 724.32
  Q 284.62 742.36 305.29 758.69
  A 2.75 2.50 74.2 0 0 305.87 759.05
  Q 307.21 759.66 309.01 760.98
  Q 314.18 764.78 319.76 769.18
  Q 320.26 769.57 320.07 770.16
  Q 319.99 770.43 319.53 770.38
  Q 278.44 742.14 248.87 700.63
  Q 232.30 677.36 220.38 652.60
  Q 195.02 599.90 188.37 542.09
  Q 181.41 481.56 192.56 422.04
  Q 214.18 306.58 299.65 227.17
  Q 313.87 213.96 335.88 199.00
  Q 355.21 185.86 375.78 176.37
  Q 423.94 154.15 472.24 148.30
  Q 501.70 144.73 534.72 148.55
  C 540.61 149.23 546.76 150.73 552.79 151.90
  Z
  M 491.56 305.69
  Q 486.30 305.25 480.06 305.31
  C 476.35 305.35 473.21 305.90 469.84 305.99
  Q 466.42 306.08 462.17 306.75
  Q 435.61 310.88 414.11 322.62
  C 408.74 325.56 401.49 329.64 396.36 333.32
  Q 341.37 372.87 323.14 437.94
  Q 322.53 440.12 320.03 451.04
  C 318.85 456.18 318.54 459.37 317.71 466.04
  Q 317.00 471.75 316.82 477.36
  C 316.64 482.96 315.71 489.13 316.46 494.68
  Q 316.93 498.17 317.02 502.04
  Q 317.10 505.27 318.03 512.32
  Q 318.79 518.04 319.51 522.55
  C 326.09 563.94 344.99 601.01 376.70 628.59
  Q 394.86 644.39 420.09 654.26
  Q 428.61 657.60 440.14 660.17
  Q 452.42 662.91 460.77 663.41
  Q 474.41 664.23 483.98 663.57
  C 510.32 661.76 536.17 652.12 557.95 636.94
  Q 569.63 628.81 576.43 622.91
  Q 601.32 601.32 618.18 572.49
  Q 636.72 540.81 641.45 502.23
  Q 641.88 498.70 642.78 487.24
  Q 643.55 477.32 641.97 462.91
  A 9.63 7.96 -82.3 0 1 641.91 461.56
  C 641.96 457.74 641.39 456.44 640.84 452.72
  Q 634.31 408.44 608.50 372.76
  Q 589.80 346.91 564.85 330.43
  Q 538.01 312.70 503.97 306.88
  C 499.84 306.17 496.52 306.11 491.56 305.69
  Z"
/>
<path fill="#a1480c" d="
  M 518.47 150.53
  Q 496.97 150.58 475.99 154.78
  Q 402.53 169.49 343.48 215.57
  C 329.98 225.82 319.22 236.88 306.08 250.57
  Q 297.59 259.41 280.79 281.28
  Q 272.09 292.61 262.56 308.61
  Q 253.65 323.57 247.03 337.57
  Q 210.12 415.53 208.69 502.76
  Q 208.16 534.97 212.38 565.68
  Q 219.22 615.55 239.56 661.41
  Q 267.30 723.98 319.66 767.90
  A 3.84 3.78 -11.7 0 0 320.42 768.39
  Q 324.75 770.57 325.09 773.75
  L 319.53 770.38
  Q 319.99 770.43 320.07 770.16
  Q 320.26 769.57 319.76 769.18
  Q 314.18 764.78 309.01 760.98
  Q 307.21 759.66 305.87 759.05
  A 2.75 2.50 74.2 0 1 305.29 758.69
  Q 284.62 742.36 268.70 724.32
  Q 252.99 706.52 239.88 685.62
  Q 205.35 630.61 193.35 567.45
  Q 189.54 547.39 187.39 519.17
  C 186.61 508.90 187.11 497.39 186.91 489.46
  Q 186.70 480.68 187.81 467.56
  Q 188.85 455.30 189.99 445.77
  Q 193.84 413.69 203.56 381.82
  Q 216.86 338.19 239.92 300.90
  Q 252.65 280.30 271.38 257.93
  C 280.26 247.31 291.32 236.40 301.01 227.26
  Q 305.03 223.46 310.38 219.14
  C 331.57 202.06 353.16 187.77 378.31 176.32
  Q 403.08 165.03 430.53 157.57
  Q 452.68 151.54 474.69 149.18
  Q 493.84 147.12 515.50 148.36
  Q 520.78 148.66 523.32 149.14
  A 8.81 8.74 51.6 0 0 524.57 149.29
  L 540.49 150.14
  A 0.28 0.28 0.0 0 1 540.54 150.69
  Q 539.22 151.00 537.27 150.81
  Q 527.83 149.85 518.47 150.53
  Z"
/>
<path fill="#fed546" d="
  M 518.47 150.53
  L 522.72 150.62
  A 0.19 0.18 3.1 0 1 522.90 150.81
  L 522.88 151.10
  A 0.34 0.33 89.1 0 1 522.57 151.43
  C 513.50 152.15 504.29 152.29 494.46 153.20
  Q 484.10 154.17 471.53 156.83
  Q 407.39 170.39 353.60 209.09
  Q 348.24 212.95 344.32 216.59
  A 0.40 0.40 0.0 0 1 343.65 216.38
  L 343.48 215.57
  Q 402.53 169.49 475.99 154.78
  Q 496.97 150.58 518.47 150.53
  Z"
/>
<path fill="#a1480c" d="
  M 625.07 850.02
  C 653.66 835.79 680.34 816.86 703.92 794.92
  Q 723.14 777.04 743.62 752.66
  C 760.49 732.60 774.95 710.33 788.09 687.36
  Q 793.67 677.59 801.74 660.70
  Q 809.27 644.91 813.81 633.27
  Q 831.96 586.78 839.70 541.75
  Q 846.34 503.16 846.17 462.50
  C 846.05 431.89 843.56 403.15 837.32 373.63
  Q 822.80 304.90 786.55 244.17
  Q 768.57 214.04 747.86 191.11
  Q 743.35 186.10 742.29 184.86
  C 734.00 175.05 724.41 166.00 714.94 157.80
  Q 712.64 155.81 711.35 154.95
  Q 709.45 153.69 707.95 151.71
  A 0.34 0.33 85.2 0 1 708.37 151.21
  Q 720.00 157.36 730.77 165.26
  C 742.32 173.72 751.61 181.68 760.88 190.71
  Q 783.57 212.81 798.79 233.54
  C 810.11 248.98 821.18 266.52 829.90 283.33
  Q 860.91 343.15 870.95 410.66
  C 871.92 417.17 872.40 423.09 873.32 430.69
  C 874.23 438.21 874.18 445.43 874.89 453.45
  Q 875.07 455.43 875.07 462.59
  C 875.06 476.28 875.24 482.90 874.51 491.16
  C 874.19 494.85 874.26 498.22 873.99 501.62
  Q 871.93 528.40 866.88 554.40
  Q 854.07 620.33 822.31 678.64
  C 815.39 691.35 808.00 702.72 799.87 715.38
  Q 796.95 719.93 789.45 730.20
  Q 785.48 735.64 772.46 751.21
  Q 758.36 768.08 736.47 787.22
  Q 709.49 810.82 677.83 828.05
  Q 652.90 841.61 625.36 850.43
  A 0.18 0.18 0.0 0 1 625.14 850.32
  L 625.06 850.04
  A 0.01 0.01 0.0 0 1 625.07 850.02
  Z"
/>
<path fill="#fed546" d="
  M 552.79 151.90
  Q 586.43 157.88 617.76 174.26
  Q 669.71 201.43 705.45 246.06
  C 745.01 295.46 766.23 354.72 772.78 417.49
  Q 777.90 466.52 771.59 515.97
  Q 762.49 587.27 729.08 648.67
  Q 697.67 706.40 646.94 750.19
  C 608.41 783.44 561.37 807.24 510.99 816.28
  Q 467.54 824.08 420.75 814.51
  Q 379.00 805.97 344.34 786.13
  Q 344.45 785.94 344.58 785.81
  A 0.83 0.82 35.6 0 1 345.57 785.65
  Q 392.97 812.04 447.13 817.47
  C 456.11 818.37 466.51 818.30 474.75 818.37
  Q 488.50 818.48 505.03 816.07
  Q 534.50 811.78 563.95 799.69
  Q 615.28 778.61 655.95 740.68
  C 664.95 732.29 676.15 721.25 684.66 711.12
  Q 700.23 692.55 710.63 677.14
  Q 714.91 670.78 723.05 657.11
  C 734.99 637.07 744.44 615.77 752.20 593.49
  Q 758.12 576.48 761.59 562.67
  Q 769.05 532.99 771.66 504.37
  C 772.05 500.05 771.85 497.08 772.50 493.82
  C 773.20 490.35 772.97 484.86 773.21 481.73
  Q 774.41 465.86 774.05 456.99
  Q 773.24 437.32 773.00 432.73
  C 772.82 429.22 771.97 424.73 772.12 421.10
  C 772.22 418.64 771.33 416.46 771.18 414.08
  Q 770.40 401.83 765.86 380.13
  Q 758.93 347.00 747.29 318.99
  Q 721.33 256.52 672.61 213.13
  Q 659.58 201.52 640.73 189.03
  Q 605.46 165.63 564.23 155.07
  Q 562.54 154.63 558.34 153.85
  Q 555.46 153.30 552.43 152.72
  A 0.32 0.32 0.0 0 1 552.34 152.13
  L 552.79 151.90
  Z"
/>
<path fill="#fed546" d="
  M 491.56 305.69
  C 496.52 306.11 499.84 306.17 503.97 306.88
  Q 538.01 312.70 564.85 330.43
  Q 589.80 346.91 608.50 372.76
  Q 634.31 408.44 640.84 452.72
  C 641.39 456.44 641.96 457.74 641.91 461.56
  A 9.63 7.96 -82.3 0 0 641.97 462.91
  Q 643.55 477.32 642.78 487.24
  Q 641.88 498.70 641.45 502.23
  Q 636.72 540.81 618.18 572.49
  Q 601.32 601.32 576.43 622.91
  Q 569.63 628.81 557.95 636.94
  C 536.17 652.12 510.32 661.76 483.98 663.57
  Q 474.41 664.23 460.77 663.41
  Q 452.42 662.91 440.14 660.17
  Q 428.61 657.60 420.09 654.26
  Q 394.86 644.39 376.70 628.59
  C 344.99 601.01 326.09 563.94 319.51 522.55
  Q 318.79 518.04 318.03 512.32
  Q 317.10 505.27 317.02 502.04
  Q 316.93 498.17 316.46 494.68
  C 315.71 489.13 316.64 482.96 316.82 477.36
  Q 317.00 471.75 317.71 466.04
  C 318.54 459.37 318.85 456.18 320.03 451.04
  Q 322.53 440.12 323.14 437.94
  Q 341.37 372.87 396.36 333.32
  C 401.49 329.64 408.74 325.56 414.11 322.62
  Q 435.61 310.88 462.17 306.75
  Q 466.42 306.08 469.84 305.99
  C 473.21 305.90 476.35 305.35 480.06 305.31
  Q 486.30 305.25 491.56 305.69
  Z
  M 533.55 649.77
  C 567.98 633.66 596.66 606.77 616.16 573.64
  Q 641.59 530.44 641.53 479.75
  Q 641.48 432.40 619.29 391.72
  Q 610.17 375.01 596.37 359.39
  Q 562.81 321.38 513.96 310.00
  C 503.27 307.50 493.21 306.71 481.99 306.67
  C 422.35 306.43 369.63 345.53 341.42 395.93
  C 326.94 421.78 318.43 452.11 317.79 482.33
  C 317.15 512.54 322.33 541.92 334.45 569.57
  C 349.06 602.92 375.12 631.91 407.91 647.87
  C 446.92 666.85 493.97 668.28 533.55 649.77
  Z"
/>
<path fill="#000000" d="
  M 616.16 573.64
  C 596.66 606.77 567.98 633.66 533.55 649.77
  C 493.97 668.28 446.92 666.85 407.91 647.87
  C 375.12 631.91 349.06 602.92 334.45 569.57
  C 322.33 541.92 317.15 512.54 317.79 482.33
  C 318.43 452.11 326.94 421.78 341.42 395.93
  C 369.63 345.53 422.35 306.43 481.99 306.67
  C 493.21 306.71 503.27 307.50 513.96 310.00
  Q 562.81 321.38 596.37 359.39
  Q 610.17 375.01 619.29 391.72
  Q 641.48 432.40 641.53 479.75
  Q 641.59 530.44 616.16 573.64
  Z
  M 436.52 333.29
  C 407.72 344.76 382.20 366.45 364.29 391.54
  Q 352.65 407.85 346.58 425.32
  C 338.38 448.91 334.95 474.24 336.52 499.90
  C 338.59 534.01 347.91 568.49 370.21 594.80
  C 397.15 626.60 435.83 643.17 477.81 639.33
  C 498.33 637.45 515.79 631.24 531.78 619.24
  Q 549.55 605.90 564.35 588.79
  Q 601.23 546.15 604.76 489.21
  C 607.80 440.09 593.32 392.89 557.65 358.33
  C 541.38 342.57 520.44 330.59 498.26 327.27
  C 477.42 324.15 455.64 325.67 436.52 333.29
  Z
  M 605.46 382.75
  A 0.37 0.36 -19.6 0 0 605.23 383.23
  Q 626.13 434.69 622.68 489.25
  C 620.71 520.51 611.57 550.64 595.17 577.41
  Q 583.37 596.67 572.32 608.57
  A 0.41 0.40 44.5 0 0 572.33 609.13
  L 572.34 609.15
  A 0.43 0.43 0.0 0 0 572.93 609.18
  Q 585.13 599.04 592.10 591.85
  Q 601.70 581.95 610.66 566.68
  C 619.67 551.32 625.55 534.91 629.57 517.43
  C 638.59 478.11 634.11 435.57 615.60 399.35
  Q 613.38 395.00 610.94 391.13
  Q 607.47 385.63 605.86 382.73
  A 0.15 0.14 64.5 0 0 605.70 382.67
  L 605.46 382.75
  Z"
/>
<path fill="#fed546" d="
  M 364.29 391.54
  C 382.20 366.45 407.72 344.76 436.52 333.29
  C 455.64 325.67 477.42 324.15 498.26 327.27
  C 520.44 330.59 541.38 342.57 557.65 358.33
  C 593.32 392.89 607.80 440.09 604.76 489.21
  Q 601.23 546.15 564.35 588.79
  Q 549.55 605.90 531.78 619.24
  C 515.79 631.24 498.33 637.45 477.81 639.33
  C 435.83 643.17 397.15 626.60 370.21 594.80
  C 347.91 568.49 338.59 534.01 336.52 499.90
  C 334.95 474.24 338.38 448.91 346.58 425.32
  Q 352.65 407.85 364.29 391.54
  Z
  M 446.41 637.38
  C 451.87 638.22 457.96 638.10 464.25 638.46
  Q 466.01 638.57 475.33 638.16
  Q 481.45 637.89 486.36 637.10
  C 506.71 633.85 523.80 624.99 539.38 611.87
  Q 554.58 599.07 566.31 584.81
  Q 577.90 570.72 585.56 555.79
  Q 598.48 530.61 602.66 500.15
  C 603.13 496.71 603.16 493.23 603.65 489.50
  C 604.43 483.61 604.09 478.42 604.10 470.54
  C 604.11 466.35 603.12 463.01 603.14 459.43
  Q 603.17 455.98 602.43 451.11
  Q 601.14 442.60 599.27 434.53
  Q 590.75 397.88 566.76 369.55
  Q 552.28 352.45 531.96 340.48
  C 519.62 333.21 507.08 329.39 493.04 327.63
  Q 458.62 323.30 427.72 338.20
  C 402.37 350.43 380.50 370.34 364.38 393.12
  C 350.47 412.78 342.42 436.47 339.27 460.50
  Q 337.44 474.42 337.51 485.23
  Q 337.60 500.37 338.09 506.50
  Q 339.86 528.58 346.73 549.77
  Q 361.65 595.82 402.46 621.08
  Q 422.97 633.77 446.41 637.38
  Z"
/>
<path fill="#eb872c" d="
  M 464.25 638.46
  C 457.96 638.10 451.87 638.22 446.41 637.38
  Q 422.97 633.77 402.46 621.08
  Q 361.65 595.82 346.73 549.77
  Q 339.86 528.58 338.09 506.50
  Q 337.60 500.37 337.51 485.23
  Q 337.44 474.42 339.27 460.50
  C 342.42 436.47 350.47 412.78 364.38 393.12
  C 380.50 370.34 402.37 350.43 427.72 338.20
  Q 458.62 323.30 493.04 327.63
  C 507.08 329.39 519.62 333.21 531.96 340.48
  Q 552.28 352.45 566.76 369.55
  Q 590.75 397.88 599.27 434.53
  Q 601.14 442.60 602.43 451.11
  Q 603.17 455.98 603.14 459.43
  C 603.12 463.01 604.11 466.35 604.10 470.54
  C 604.09 478.42 604.43 483.61 603.65 489.50
  C 603.16 493.23 603.13 496.71 602.66 500.15
  Q 598.48 530.61 585.56 555.79
  Q 577.90 570.72 566.31 584.81
  Q 554.58 599.07 539.38 611.87
  C 523.80 624.99 506.71 633.85 486.36 637.10
  Q 481.45 637.89 475.33 638.16
  Q 466.01 638.57 464.25 638.46
  Z
  M 513.34 383.44
  Q 499.10 375.88 480.83 373.49
  C 457.51 370.45 433.43 380.34 416.11 395.13
  Q 399.22 409.55 388.40 428.74
  C 379.03 445.36 374.62 462.81 373.87 482.70
  Q 373.03 504.64 377.70 522.10
  Q 385.84 552.54 410.81 572.91
  C 433.53 591.44 465.13 596.76 492.19 588.12
  C 512.86 581.52 531.05 566.56 544.03 548.80
  Q 554.69 534.19 560.25 519.31
  Q 578.50 470.45 554.07 424.37
  Q 539.83 397.51 513.34 383.44
  Z"
/>
<path fill="#fed546" d="
  M 513.34 383.44
  Q 539.83 397.51 554.07 424.37
  Q 578.50 470.45 560.25 519.31
  Q 554.69 534.19 544.03 548.80
  C 531.05 566.56 512.86 581.52 492.19 588.12
  C 465.13 596.76 433.53 591.44 410.81 572.91
  Q 385.84 552.54 377.70 522.10
  Q 373.03 504.64 373.87 482.70
  C 374.62 462.81 379.03 445.36 388.40 428.74
  Q 399.22 409.55 416.11 395.13
  C 433.43 380.34 457.51 370.45 480.83 373.49
  Q 499.10 375.88 513.34 383.44
  Z
  M 512.77 384.46
  Q 498.66 377.01 480.58 374.68
  C 457.49 371.71 433.68 381.54 416.57 396.21
  Q 399.88 410.52 389.20 429.53
  C 379.96 445.99 375.63 463.27 374.92 482.96
  Q 374.13 504.67 378.79 521.94
  Q 386.90 552.05 411.65 572.17
  C 434.17 590.46 465.45 595.67 492.22 587.07
  C 512.66 580.50 530.64 565.66 543.45 548.06
  Q 553.97 533.58 559.45 518.84
  Q 577.42 470.45 553.15 424.90
  Q 539.01 398.34 512.77 384.46
  Z"
/>
<path fill="#000000" d="
  M 512.77 384.46
  Q 539.01 398.34 553.15 424.90
  Q 577.42 470.45 559.45 518.84
  Q 553.97 533.58 543.45 548.06
  C 530.64 565.66 512.66 580.50 492.22 587.07
  C 465.45 595.67 434.17 590.46 411.65 572.17
  Q 386.90 552.05 378.79 521.94
  Q 374.13 504.67 374.92 482.96
  C 375.63 463.27 379.96 445.99 389.20 429.53
  Q 399.88 410.52 416.57 396.21
  C 433.68 381.54 457.49 371.71 480.58 374.68
  Q 498.66 377.01 512.77 384.46
  Z
  M 477.91 571.83
  A 0.35 0.35 0.0 0 0 478.03 571.17
  C 464.20 564.01 452.90 552.05 445.15 538.58
  Q 429.94 512.14 432.88 481.26
  C 434.96 459.41 443.00 440.71 456.78 423.71
  Q 470.60 406.66 487.24 398.32
  A 2.31 1.90 16.8 0 1 487.60 398.17
  L 491.19 397.01
  A 0.37 0.37 0.0 0 0 491.16 396.30
  Q 487.53 395.50 479.15 394.21
  Q 466.80 392.32 454.54 396.30
  C 424.74 405.97 403.58 436.09 397.50 465.66
  Q 390.83 498.04 402.51 528.68
  Q 411.76 552.95 434.40 564.59
  C 443.19 569.11 452.73 572.41 462.97 572.56
  Q 469.63 572.66 477.91 571.83
  Z
  M 498.59 565.26
  A 2.21 2.20 -51.8 0 0 500.66 565.01
  Q 522.99 549.32 536.92 525.92
  Q 545.19 512.05 548.18 497.44
  Q 550.96 483.89 549.15 470.50
  C 546.86 453.58 540.37 438.92 530.47 425.05
  Q 525.87 418.61 518.96 412.24
  Q 516.19 409.70 514.40 408.61
  A 2.20 2.19 -35.7 0 0 512.77 408.35
  Q 498.36 411.68 488.35 418.37
  Q 464.25 434.48 453.65 461.57
  Q 447.76 476.63 448.05 490.29
  Q 448.38 505.31 454.07 518.96
  Q 464.39 543.69 486.57 559.03
  Q 488.53 560.39 492.45 562.44
  Q 495.73 564.15 498.59 565.26
  Z"
/>
<path fill="#eb872c" d="
  M 605.46 382.75
  L 605.70 382.67
  A 0.15 0.14 64.5 0 1 605.86 382.73
  Q 607.47 385.63 610.94 391.13
  Q 613.38 395.00 615.60 399.35
  C 634.11 435.57 638.59 478.11 629.57 517.43
  C 625.55 534.91 619.67 551.32 610.66 566.68
  Q 601.70 581.95 592.10 591.85
  Q 585.13 599.04 572.93 609.18
  A 0.43 0.43 0.0 0 1 572.34 609.15
  L 572.33 609.13
  A 0.41 0.40 44.5 0 1 572.32 608.57
  Q 583.37 596.67 595.17 577.41
  C 611.57 550.64 620.71 520.51 622.68 489.25
  Q 626.13 434.69 605.23 383.23
  A 0.37 0.36 -19.6 0 1 605.46 382.75
  Z
  M 584.29 598.04
  Q 586.58 595.42 589.53 593.20
  A 7.83 7.54 1.1 0 0 590.66 592.15
  Q 598.82 582.95 601.79 578.76
  Q 619.27 554.11 626.88 524.42
  Q 632.08 504.16 633.08 483.83
  C 633.29 479.60 633.22 471.86 632.63 466.07
  Q 631.35 453.55 631.09 451.81
  Q 626.45 420.10 610.62 392.34
  A 0.28 0.27 21.0 0 0 610.12 392.56
  Q 613.26 401.65 615.54 409.89
  Q 618.88 421.92 621.79 439.69
  Q 624.57 456.63 624.18 481.32
  Q 624.04 490.63 622.38 502.49
  Q 620.85 513.50 618.55 523.39
  Q 612.83 547.96 600.76 569.71
  Q 592.17 585.17 581.71 599.04
  Q 581.46 599.38 581.78 599.74
  A 0.38 0.38 0.0 0 0 582.38 599.71
  Q 583.24 598.48 584.22 598.09
  A 0.29 0.24 4.7 0 0 584.29 598.04
  Z"
/>
<path fill="#a1480c" d="
  M 584.22 598.09
  Q 583.24 598.48 582.38 599.71
  A 0.38 0.38 0.0 0 1 581.78 599.74
  Q 581.46 599.38 581.71 599.04
  Q 592.17 585.17 600.76 569.71
  Q 612.83 547.96 618.55 523.39
  Q 620.85 513.50 622.38 502.49
  Q 624.04 490.63 624.18 481.32
  Q 624.57 456.63 621.79 439.69
  Q 618.88 421.92 615.54 409.89
  Q 613.26 401.65 610.12 392.56
  A 0.28 0.27 21.0 0 1 610.62 392.34
  Q 626.45 420.10 631.09 451.81
  Q 631.35 453.55 632.63 466.07
  C 633.22 471.86 633.29 479.60 633.08 483.83
  Q 632.08 504.16 626.88 524.42
  Q 619.27 554.11 601.79 578.76
  Q 598.82 582.95 590.66 592.15
  A 7.83 7.54 1.1 0 1 589.53 593.20
  Q 586.58 595.42 584.29 598.04
  A 0.29 0.24 4.7 0 1 584.22 598.09
  Z"
/>
<path fill="#eb872c" d="
  M 477.91 571.83
  Q 469.63 572.66 462.97 572.56
  C 452.73 572.41 443.19 569.11 434.40 564.59
  Q 411.76 552.95 402.51 528.68
  Q 390.83 498.04 397.50 465.66
  C 403.58 436.09 424.74 405.97 454.54 396.30
  Q 466.80 392.32 479.15 394.21
  Q 487.53 395.50 491.16 396.30
  A 0.37 0.37 0.0 0 1 491.19 397.01
  L 487.60 398.17
  A 2.31 1.90 16.8 0 0 487.24 398.32
  Q 470.60 406.66 456.78 423.71
  C 443.00 440.71 434.96 459.41 432.88 481.26
  Q 429.94 512.14 445.15 538.58
  C 452.90 552.05 464.20 564.01 478.03 571.17
  A 0.35 0.35 0.0 0 1 477.91 571.83
  Z
  M 486.40 396.98
  Q 481.22 395.18 476.01 394.95
  C 470.40 394.71 465.25 394.72 459.41 396.12
  C 444.94 399.58 432.06 407.85 422.00 419.31
  C 403.89 439.94 394.78 466.45 396.56 494.52
  Q 397.02 501.66 397.18 503.04
  Q 398.08 510.81 401.12 521.64
  Q 404.32 533.08 411.20 543.07
  Q 418.07 553.04 428.03 559.70
  Q 439.36 567.26 452.25 570.30
  C 458.99 571.89 466.92 571.60 473.62 570.90
  A 0.28 0.28 0.0 0 0 473.75 570.39
  C 463.83 563.47 455.01 555.38 448.31 545.47
  Q 433.52 523.57 431.58 498.59
  Q 429.98 477.87 436.95 456.80
  Q 440.70 445.48 447.56 434.87
  Q 454.86 423.59 462.61 415.60
  Q 472.86 405.02 486.44 397.45
  A 0.26 0.26 0.0 0 0 486.40 396.98
  Z"
/>
<path fill="#a1480c" d="
  M 486.40 396.98
  A 0.26 0.26 0.0 0 1 486.44 397.45
  Q 472.86 405.02 462.61 415.60
  Q 454.86 423.59 447.56 434.87
  Q 440.70 445.48 436.95 456.80
  Q 429.98 477.87 431.58 498.59
  Q 433.52 523.57 448.31 545.47
  C 455.01 555.38 463.83 563.47 473.75 570.39
  A 0.28 0.28 0.0 0 1 473.62 570.90
  C 466.92 571.60 458.99 571.89 452.25 570.30
  Q 439.36 567.26 428.03 559.70
  Q 418.07 553.04 411.20 543.07
  Q 404.32 533.08 401.12 521.64
  Q 398.08 510.81 397.18 503.04
  Q 397.02 501.66 396.56 494.52
  C 394.78 466.45 403.89 439.94 422.00 419.31
  C 432.06 407.85 444.94 399.58 459.41 396.12
  C 465.25 394.72 470.40 394.71 476.01 394.95
  Q 481.22 395.18 486.40 396.98
  Z"
/>
</svg>
