<?xml version="1.0" encoding="UTF-8" standalone="no"?>
<!DOCTYPE svg PUBLIC "-//W3C//DTD SVG 1.1//EN" "http://www.w3.org/Graphics/SVG/1.1/DTD/svg11.dtd">
<svg xmlns="http://www.w3.org/2000/svg" version="1.1" viewBox="0.00 0.00 1024.00 1024.00">
<g stroke-width="2.00" fill="none" stroke-linecap="butt">
<path stroke="#741833" vector-effect="non-scaling-stroke" d="
  M 195.54 719.22
  Q 233.93 780.30 295.16 817.87
  Q 300.41 821.09 305.28 823.44"
/>
<path stroke="#804056" vector-effect="non-scaling-stroke" d="
  M 305.28 823.44
  C 330.90 838.22 361.11 848.55 389.77 853.70
  C 411.16 857.55 434.03 859.82 455.84 858.68
  Q 493.69 856.72 526.68 846.94
  C 586.06 829.33 640.36 795.89 683.02 751.31
  Q 727.94 704.39 757.24 643.01
  Q 766.54 623.52 775.61 598.13
  Q 790.37 556.80 795.87 513.74
  Q 800.42 478.09 799.50 442.23"
/>
<path stroke="#7d2743" vector-effect="non-scaling-stroke" d="
  M 799.50 442.23
  L 799.37 440.53"
/>
<path stroke="#804056" vector-effect="non-scaling-stroke" d="
  M 799.37 440.53
  Q 798.42 418.88 795.60 397.37
  Q 789.01 347.13 769.52 300.23
  C 750.87 255.38 721.92 215.25 685.94 183.07
  C 642.81 144.50 587.15 122.97 529.79 118.25
  C 523.67 117.75 515.79 117.07 508.80 117.03
  Q 485.64 116.91 482.01 117.12
  Q 432.05 119.96 390.04 135.33
  Q 308.92 165.00 247.97 229.23
  Q 236.23 241.60 224.17 256.67
  C 180.27 311.48 152.58 378.21 142.36 447.53
  C 136.76 485.55 135.41 522.52 139.61 559.47
  Q 146.11 616.67 169.01 669.47
  Q 180.91 696.92 195.54 719.22"
/>
<path stroke="#fc6799" vector-effect="non-scaling-stroke" d="
  M 799.37 440.53
  Q 799.21 441.56 799.50 442.23"
/>
<path stroke="#f45889" vector-effect="non-scaling-stroke" d="
  M 305.28 823.44
  Q 309.93 824.19 314.38 827.57"
/>
<path stroke="#fc6799" vector-effect="non-scaling-stroke" d="
  M 314.38 827.57
  Q 315.84 827.95 317.11 828.88
  A 1.81 1.69 73.5 0 0 317.45 829.08
  Q 330.22 834.62 341.59 839.13
  C 362.64 847.50 385.30 852.22 410.67 855.71
  C 414.23 856.20 419.07 856.09 423.17 857.05
  A 4.60 4.20 -36.3 0 0 424.11 857.15
  C 431.22 857.18 438.32 857.96 445.30 857.76
  Q 450.63 857.61 455.97 857.40"
/>
<path stroke="#ff75a5" vector-effect="non-scaling-stroke" d="
  M 455.97 857.40
  L 466.84 856.86
  A 0.64 0.54 31.3 0 0 467.03 856.83
  C 471.15 855.85 475.18 855.97 479.50 855.29
  Q 484.24 854.55 491.19 853.55
  C 510.08 850.84 527.39 845.78 547.76 838.59
  Q 562.09 833.54 577.13 826.35
  Q 616.14 807.69 648.95 781.19
  C 652.61 778.24 658.24 773.21 661.88 770.12
  C 670.21 763.08 675.64 757.12 685.24 747.51
  C 688.86 743.89 691.87 739.91 694.80 737.01
  C 696.32 735.52 697.01 733.82 698.79 732.13
  Q 699.86 731.13 701.92 728.59
  Q 719.84 706.54 734.84 682.29
  C 737.28 678.35 738.86 675.07 740.93 671.75
  Q 743.49 667.64 745.52 663.84
  Q 762.09 632.82 773.34 601.33
  Q 774.38 598.43 775.41 595.56"
/>
<path stroke="#fc6799" vector-effect="non-scaling-stroke" d="
  M 775.41 595.56
  Q 783.71 571.38 785.19 564.44
  Q 787.25 554.78 789.90 543.14"
/>
<path stroke="#ff75a5" vector-effect="non-scaling-stroke" d="
  M 789.90 543.14
  Q 793.10 527.81 794.88 512.99
  Q 796.02 503.49 797.26 487.80
  C 798.49 472.23 798.50 456.26 798.21 441.75
  A 1.23 1.22 6.2 0 0 797.27 440.59
  C 787.65 438.35 778.13 436.48 768.54 440.16
  A 0.46 0.46 0.0 0 1 767.92 439.80
  Q 767.82 439.12 767.47 438.76
  A 0.35 0.35 0.0 0 0 766.87 439.00
  Q 766.75 458.98 766.85 474.46
  Q 766.88 479.00 766.57 482.12
  C 765.92 488.64 765.87 495.15 765.17 501.22
  Q 762.63 523.48 758.06 545.15"
/>
<path stroke="#fc6799" vector-effect="non-scaling-stroke" d="
  M 758.06 545.15
  Q 754.79 558.93 753.39 563.44
  Q 750.69 572.14 749.50 576.34
  C 748.43 580.08 747.16 583.31 745.87 586.77"
/>
<path stroke="#ff75a5" vector-effect="non-scaling-stroke" d="
  M 745.87 586.77
  Q 723.20 653.56 680.19 706.68
  Q 665.14 725.27 642.50 746.41
  C 633.43 754.87 622.96 763.02 613.76 769.76
  C 583.62 791.84 549.24 809.45 513.41 818.39
  C 495.25 822.92 477.86 825.85 460.48 827.38
  C 450.72 828.23 440.78 827.99 431.00 828.03"
/>
<path stroke="#fc6799" vector-effect="non-scaling-stroke" d="
  M 431.00 828.03
  C 421.01 827.24 410.28 826.56 401.08 825.20
  Q 370.31 820.64 341.41 809.07
  Q 338.12 807.75 331.96 804.87
  Q 327.12 802.62 322.52 800.61"
/>
<path stroke="#f45889" vector-effect="non-scaling-stroke" d="
  M 322.52 800.61
  Q 321.52 799.82 321.03 799.70"
/>
<path stroke="#ff75a5" vector-effect="non-scaling-stroke" d="
  M 321.03 799.70
  Q 320.54 799.39 321.04 798.64"
/>
<path stroke="#804056" vector-effect="non-scaling-stroke" d="
  M 321.04 798.64
  Q 363.74 820.28 411.18 825.48
  Q 415.53 825.95 418.30 826.03
  C 424.24 826.19 429.62 827.02 436.11 827.02
  Q 472.72 827.01 508.82 818.37
  C 550.36 808.42 588.73 788.64 622.18 762.17
  Q 675.07 720.32 708.82 663.83
  Q 717.41 649.45 720.10 644.11
  Q 737.68 609.18 748.16 576.67
  Q 762.04 533.59 765.05 486.74
  Q 767.69 445.52 761.52 402.99
  C 752.11 338.21 723.79 276.85 679.34 228.66
  Q 668.20 216.58 653.47 204.74"
/>
<path stroke="#ff75a5" vector-effect="non-scaling-stroke" d="
  M 653.47 204.74
  Q 653.24 203.88 653.72 203.84"
/>
<path stroke="#fc6799" vector-effect="non-scaling-stroke" d="
  M 653.72 203.84
  Q 663.44 211.32 672.30 220.05"
/>
<path stroke="#ff75a5" vector-effect="non-scaling-stroke" d="
  M 672.30 220.05
  Q 697.56 245.27 716.04 275.32"
/>
<path stroke="#fc6799" vector-effect="non-scaling-stroke" d="
  M 716.04 275.32
  Q 736.99 308.83 749.48 346.93
  A 0.93 0.93 0.0 0 0 750.70 347.51
  Q 751.38 347.24 752.57 347.16
  C 762.06 346.51 772.01 348.98 780.67 351.39
  Q 782.68 351.95 784.27 352.82
  A 0.79 0.78 14.3 0 0 785.44 352.13
  C 785.44 349.58 784.46 346.76 783.67 344.02
  Q 772.51 305.38 756.07 274.15
  Q 750.44 263.46 740.04 247.26"
/>
<path stroke="#ff75a5" vector-effect="non-scaling-stroke" d="
  M 740.04 247.26
  L 730.03 232.95"
/>
<path stroke="#fc6799" vector-effect="non-scaling-stroke" d="
  M 730.03 232.95
  Q 723.33 224.19 716.17 215.81
  Q 714.31 213.64 709.37 207.87
  Q 705.12 202.89 689.41 187.66
  Q 686.63 184.96 683.28 182.20
  Q 680.10 179.57 676.98 176.93"
/>
<path stroke="#ff75a5" vector-effect="non-scaling-stroke" d="
  M 676.98 176.93
  Q 663.37 166.04 648.68 156.96
  A 0.89 0.89 0.0 0 0 647.57 157.10
  Q 646.36 158.36 645.20 158.66
  A 2.07 1.98 -70.5 0 0 644.37 159.08
  C 634.79 167.10 623.22 167.84 609.96 169.92
  Q 607.65 170.28 604.35 171.90
  A 0.25 0.25 0.0 0 0 604.35 172.35
  Q 625.34 182.57 644.26 196.52
  Q 644.33 196.58 645.74 197.50
  Q 647.46 198.62 646.79 199.57"
/>
<path stroke="#804056" vector-effect="non-scaling-stroke" d="
  M 646.79 199.57
  Q 603.03 166.75 549.54 154.59
  Q 528.77 149.86 512.03 148.55
  Q 490.13 146.82 481.50 147.09
  C 470.56 147.43 460.23 147.72 450.87 148.83
  Q 431.58 151.12 412.52 156.53
  C 370.89 168.36 331.13 189.83 297.34 218.10
  Q 264.52 245.55 238.41 279.83
  Q 212.68 313.60 195.13 353.34
  Q 161.90 428.54 162.72 513.05"
/>
<path stroke="#ff75a5" vector-effect="non-scaling-stroke" d="
  M 162.72 513.05
  L 161.67 521.89
  A 0.02 0.02 0.0 0 1 161.63 521.89
  Q 161.39 503.09 162.23 483.25
  Q 162.32 481.17 163.55 467.57
  Q 164.33 458.85 165.52 451.99
  Q 166.18 448.15 168.32 434.34
  A 0.83 0.83 0.0 0 0 167.68 433.40
  L 148.33 429.25
  A 1.73 1.61 63.1 0 1 147.87 429.08
  L 147.65 428.96
  A 0.55 0.54 29.6 0 0 146.66 429.23
  Q 142.76 450.44 140.36 472.75
  Q 140.32 473.10 140.10 475.76
  Q 138.76 492.14 138.29 513.25
  Q 138.18 518.46 138.58 524.56
  C 138.97 530.38 138.57 539.06 139.93 546.31"
/>
<path stroke="#fc6799" vector-effect="non-scaling-stroke" d="
  M 139.93 546.31
  C 139.91 548.09 139.68 549.84 139.84 551.55
  Q 145.57 612.35 169.53 668.34"
/>
<path stroke="#ff75a5" vector-effect="non-scaling-stroke" d="
  M 169.53 668.34
  Q 170.36 669.91 172.29 674.21
  Q 182.31 696.55 196.01 718.23"
/>
<path stroke="#f45889" vector-effect="non-scaling-stroke" d="
  M 196.01 718.23
  Q 195.83 718.92 195.54 719.22"
/>
<path stroke="#fc5c92" vector-effect="non-scaling-stroke" d="
  M 775.41 595.56
  Q 769.05 593.43 763.03 592.51
  Q 759.93 592.04 749.52 588.12
  Q 748.70 587.81 747.42 587.79
  Q 745.65 587.75 745.87 586.77"
/>
<path stroke="#7f354f" vector-effect="non-scaling-stroke" d="
  M 646.79 199.57
  L 653.47 204.74"
/>
<path stroke="#7f354f" vector-effect="non-scaling-stroke" d="
  M 321.04 798.64
  Q 289.86 782.22 266.57 760.93
  C 242.52 738.94 221.34 713.18 205.83 684.94
  Q 181.61 640.83 170.92 591.36
  Q 162.83 553.91 162.72 513.05"
/>
<path stroke="#f34d82" vector-effect="non-scaling-stroke" d="
  M 321.03 799.70
  Q 319.65 799.17 318.30 798.45
  Q 295.16 785.92 276.45 770.59
  C 270.67 765.86 266.84 763.13 262.30 758.66
  Q 255.03 751.50 246.00 742.25
  C 243.98 740.18 242.79 738.14 241.05 736.41
  Q 239.60 734.97 237.15 732.02
  Q 225.14 717.55 216.76 705.25
  A 0.38 0.38 0.0 0 0 216.10 705.60
  Q 216.46 706.51 215.70 706.71
  Q 204.25 709.78 196.01 718.23"
/>
<path stroke="#fc5c92" vector-effect="non-scaling-stroke" d="
  M 169.53 668.34
  C 177.26 665.24 186.34 666.03 194.54 666.94
  A 0.66 0.65 -10.2 0 0 195.20 666.00
  Q 189.68 655.12 185.00 642.73
  Q 174.11 613.93 168.64 585.47
  Q 166.41 573.82 164.72 562.54
  Q 164.16 558.80 164.09 556.88
  Q 163.99 554.65 163.25 551.05
  A 0.53 0.48 42.1 0 1 163.24 550.95
  L 163.02 546.22
  A 0.41 0.40 71.7 0 0 162.39 545.90
  Q 161.46 546.54 157.37 547.10
  Q 149.11 548.21 141.66 548.20
  A 0.97 0.95 -15.6 0 1 140.84 547.75
  L 139.93 546.31"
/>
<path stroke="#fc5c92" vector-effect="non-scaling-stroke" d="
  M 455.97 857.40
  Q 455.66 856.72 455.37 856.66
  Q 445.43 854.57 436.19 848.31
  C 431.70 845.27 430.18 843.18 429.61 837.34
  Q 429.26 833.81 428.73 830.31
  A 0.94 0.94 0.0 0 1 428.88 829.63
  Q 429.54 828.63 431.00 828.03"
/>
<path stroke="#fc5c92" vector-effect="non-scaling-stroke" d="
  M 730.03 232.95
  Q 729.61 233.72 728.91 233.67
  A 0.60 0.59 -16.6 0 1 728.49 233.45
  Q 725.82 229.87 722.42 228.09
  C 708.94 221.02 692.84 217.46 677.60 219.53
  Q 674.93 219.89 672.30 220.05"
/>
<path stroke="#f13f76" vector-effect="non-scaling-stroke" d="
  M 322.52 800.61
  Q 317.99 802.87 316.11 805.40
  Q 308.48 815.67 316.02 826.30
  A 0.61 0.61 0.0 0 1 315.53 827.26
  Q 315.06 827.26 314.38 827.57"
/>
<path stroke="#fc5c92" vector-effect="non-scaling-stroke" d="
  M 740.04 247.26
  Q 739.25 247.36 738.77 247.63
  A 0.92 0.91 -13.3 0 0 738.29 248.40
  C 737.94 255.64 736.24 263.48 730.48 268.16
  Q 728.83 269.51 723.30 271.77
  Q 719.45 273.34 716.04 275.32"
/>
<path stroke="#fc5c92" vector-effect="non-scaling-stroke" d="
  M 789.90 543.14
  Q 776.47 542.72 762.77 545.30
  A 8.05 7.95 -47.2 0 1 760.52 545.40
  L 758.06 545.15"
/>
<path stroke="#fc5c92" vector-effect="non-scaling-stroke" d="
  M 676.98 176.93
  C 672.45 180.66 667.77 184.19 663.98 188.34
  C 660.04 192.67 655.64 197.47 650.24 199.93
  A 0.53 0.53 0.0 0 0 650.22 200.89
  Q 652.28 201.94 653.72 203.84"
/>
<path stroke="#741833" vector-effect="non-scaling-stroke" d="
  M 724.47 742.67
  Q 672.25 805.52 601.13 843.63
  Q 590.72 849.21 573.73 856.44
  C 566.52 859.51 558.75 861.61 551.18 864.45
  A 0.18 0.18 0.0 0 0 551.07 864.66
  L 551.08 864.67
  A 0.17 0.17 0.0 0 0 551.29 864.80
  C 577.57 859.18 600.18 853.14 624.13 843.64
  Q 680.33 821.32 724.62 782.11
  Q 738.99 769.38 749.12 758.38
  Q 796.86 706.57 825.05 642.82
  C 836.34 617.29 845.43 588.85 851.42 562.19
  Q 856.23 540.82 859.01 515.03"
/>
<path stroke="#7d2743" vector-effect="non-scaling-stroke" d="
  M 859.01 515.03
  Q 862.82 478.18 860.79 442.23
  C 856.01 357.63 822.56 274.74 761.19 215.07
  Q 741.49 195.91 717.57 178.99
  C 714.30 176.68 711.14 173.80 707.96 171.77
  A 0.21 0.20 83.5 0 0 707.71 172.09
  C 711.48 175.97 717.02 180.46 720.85 184.25
  Q 736.01 199.27 744.26 209.73
  Q 779.90 254.91 800.45 311.83
  Q 821.54 370.25 824.98 431.61
  C 826.08 451.21 826.37 470.58 824.87 488.29
  Q 824.78 489.32 823.79 501.50
  Q 820.82 538.09 810.31 575.56
  Q 789.04 651.37 744.74 716.24
  Q 738.86 724.84 724.47 742.67"
/>
<path stroke="#f13f76" vector-effect="non-scaling-stroke" d="
  M 859.01 515.03
  Q 858.63 515.41 858.43 515.20
  Q 858.00 514.76 858.06 514.17
  Q 859.17 502.78 859.37 494.98
  Q 859.49 490.28 860.07 483.50
  Q 860.26 481.26 860.32 472.02
  Q 860.46 448.29 858.40 426.29
  Q 856.15 402.21 849.39 374.28
  Q 847.38 365.95 844.62 356.95
  Q 840.22 342.60 839.19 339.79
  Q 832.49 321.44 823.84 303.72
  C 821.15 298.23 818.57 294.17 815.92 289.02
  Q 813.59 284.51 809.71 278.17
  Q 798.53 259.90 784.98 242.94
  Q 782.89 240.33 782.14 239.60
  Q 779.79 237.30 779.33 236.12
  A 2.08 2.05 -83.8 0 0 778.60 235.20
  Q 777.94 234.74 768.42 224.08
  Q 762.62 217.58 748.37 204.88
  Q 747.44 204.05 746.76 203.91
  A 0.85 0.84 75.8 0 1 746.28 203.62
  Q 744.12 200.99 739.02 196.57
  Q 738.44 196.06 737.95 195.91
  A 1.56 1.55 77.7 0 1 737.21 195.43
  Q 735.71 193.70 733.71 192.77
  A 2.85 2.81 -9.2 0 1 732.88 192.18
  Q 731.07 190.29 729.40 189.60
  A 1.86 1.80 -10.0 0 1 728.82 189.21
  L 726.88 187.27
  A 0.28 0.26 -20.1 0 0 726.74 187.21
  L 726.44 187.18
  A 0.16 0.16 0.0 0 0 726.30 187.43
  Q 728.19 189.96 730.08 191.76
  Q 732.45 194.02 733.92 195.82
  Q 736.44 198.89 742.81 206.09
  Q 746.23 209.96 750.41 215.71
  Q 755.53 222.75 757.57 225.68
  Q 765.47 237.05 773.77 251.33
  Q 781.13 263.99 787.81 278.22
  Q 806.31 317.66 815.78 359.58
  Q 822.19 388.01 824.13 407.79
  Q 826.52 432.25 826.58 439.99
  Q 826.66 449.15 826.64 473.41
  C 826.63 484.84 825.82 491.85 824.75 505.72
  C 824.54 508.42 823.87 510.83 823.73 513.91
  Q 823.67 515.02 823.00 520.07
  Q 817.69 559.67 804.54 598.55
  Q 796.24 623.08 787.99 641.53
  Q 775.31 669.86 757.55 698.73
  Q 749.63 711.61 742.38 721.40
  Q 734.41 732.16 725.82 742.95
  A 1.05 1.04 -63.8 0 1 724.75 743.32
  Q 724.68 743.30 724.47 742.67"
/>
<path stroke="#fc6799" vector-effect="non-scaling-stroke" d="
  M 374.70 142.62
  Q 317.40 166.57 273.98 205.48
  Q 244.65 231.77 221.10 262.35
  Q 203.85 284.75 191.52 307.00
  Q 182.75 322.82 174.89 339.89
  A 0.46 0.46 0.0 0 0 175.42 340.53
  Q 184.23 338.36 194.00 337.27
  Q 196.62 336.98 199.39 337.08
  A 1.00 0.98 -20.8 0 1 200.08 337.38
  L 200.40 337.70
  A 0.60 0.59 37.3 0 0 201.33 337.58
  Q 203.63 333.60 205.71 329.64
  Q 215.89 310.29 228.08 292.35"
/>
<path stroke="#ff75a5" vector-effect="non-scaling-stroke" d="
  M 228.08 292.35
  Q 229.64 289.39 231.84 286.97
  A 2.82 2.68 79.6 0 0 232.31 286.25
  Q 232.78 285.25 233.31 284.56
  Q 234.04 283.61 242.81 272.41
  C 244.30 270.50 246.68 267.99 248.26 265.30"
/>
<path stroke="#fc6799" vector-effect="non-scaling-stroke" d="
  M 248.26 265.30
  Q 250.83 263.32 252.89 260.27
  A 5.10 4.82 -6.5 0 1 253.53 259.51
  C 257.40 255.83 260.41 251.46 264.00 247.97
  Q 265.67 246.35 281.39 230.59
  C 283.62 228.37 286.04 226.86 288.19 224.73
  Q 289.89 223.04 293.21 220.22
  Q 330.29 188.74 374.53 168.85"
/>
<path stroke="#ff75a5" vector-effect="non-scaling-stroke" d="
  M 374.53 168.85
  Q 404.12 155.98 432.37 150.37
  Q 450.21 146.83 475.21 145.88
  A 0.18 0.18 0.0 0 0 475.38 145.71
  L 475.38 145.70
  A 0.17 0.17 0.0 0 0 475.22 145.50
  L 470.96 145.24
  A 0.48 0.47 -77.4 0 1 470.55 144.59
  Q 474.13 135.37 482.53 131.13
  Q 488.78 127.98 493.57 127.13
  Q 508.52 124.49 524.02 127.72
  Q 532.93 129.58 536.26 130.48
  C 543.90 132.55 549.88 130.41 556.64 127.37
  Q 559.03 126.30 560.19 124.45
  A 0.57 0.56 -68.8 0 0 559.82 123.60
  Q 542.96 120.38 524.24 119.14
  Q 518.27 118.75 507.50 118.45
  Q 488.89 117.94 474.20 118.85
  C 470.40 119.09 467.44 119.77 464.41 119.81
  Q 461.55 119.85 457.03 120.49
  Q 437.39 123.24 419.22 127.69
  Q 396.38 133.28 374.70 142.62"
/>
<path stroke="#fc5c92" vector-effect="non-scaling-stroke" d="
  M 374.53 168.85
  Q 375.24 164.55 375.87 160.38
  C 376.68 154.96 379.12 151.56 382.86 144.70
  A 0.35 0.35 0.0 0 0 382.62 144.19
  L 374.70 142.62"
/>
<path stroke="#fc5c92" vector-effect="non-scaling-stroke" d="
  M 248.26 265.30
  Q 236.71 265.44 231.80 274.25
  Q 230.11 277.29 229.25 283.12
  Q 228.58 287.69 228.08 292.35"
/>
<path stroke="#804056" vector-effect="non-scaling-stroke" d="
  M 601.59 201.70
  Q 552.70 175.29 496.24 173.21
  Q 468.92 172.20 443.76 176.56
  C 402.22 183.75 360.25 202.66 326.21 228.21
  Q 257.50 279.80 221.33 357.81
  Q 198.12 407.87 191.54 461.26
  Q 188.54 485.65 188.12 505.25
  Q 187.44 536.96 192.61 569.42
  Q 199.11 610.17 217.75 650.95
  C 228.19 673.80 243.51 696.78 259.59 715.91
  C 286.76 748.21 322.85 774.30 362.44 787.91
  Q 385.61 795.89 410.63 799.46
  C 414.73 800.05 418.10 799.95 422.16 800.56
  Q 424.45 800.90 430.86 801.11
  Q 444.08 801.55 446.28 801.44
  Q 458.31 800.81 469.25 799.63
  Q 522.76 793.84 571.63 765.59
  C 601.70 748.20 626.84 726.49 649.35 701.46
  Q 662.61 686.72 674.53 669.30
  Q 715.71 609.13 731.55 537.56
  Q 738.04 508.25 738.92 478.26
  Q 739.87 445.59 736.63 416.82
  Q 732.99 384.56 723.41 354.45
  C 703.03 290.35 660.72 233.64 601.59 201.70"
/>
<path stroke="#fc6799" vector-effect="non-scaling-stroke" d="
  M 392.70 192.61
  Q 391.98 192.42 390.82 192.89
  Q 349.76 209.67 315.54 237.80
  Q 295.32 254.42 281.23 269.98
  Q 266.55 286.18 258.24 297.49
  Q 248.66 310.52 239.61 325.64
  A 0.52 0.51 -76.7 0 0 240.09 326.42
  L 240.43 326.40
  A 1.33 1.24 53.3 0 1 241.09 326.52
  C 253.46 332.30 270.01 333.80 280.54 323.32
  Q 282.92 320.94 284.79 316.74
  C 289.09 307.09 293.41 299.87 304.06 296.08
  Q 309.90 294.00 320.38 291.62
  Q 327.30 290.04 332.38 285.43"
/>
<path stroke="#ff75a5" vector-effect="non-scaling-stroke" d="
  M 332.38 285.43
  C 332.65 287.90 330.12 289.36 328.30 290.35
  A 1.02 1.02 0.0 0 0 328.51 292.23
  L 338.03 294.93
  A 3.94 2.29 -0.8 0 1 338.51 295.09
  C 345.43 297.97 351.44 299.71 358.80 302.30
  Q 368.10 305.57 370.01 305.97
  C 377.81 307.61 388.18 307.71 395.76 304.25
  C 403.36 300.78 409.83 295.01 416.05 290.58
  Q 418.00 289.20 429.88 283.97
  A 4.20 3.88 27.8 0 1 431.04 283.66
  C 438.95 282.82 446.77 283.46 453.51 282.76
  C 461.10 281.98 464.11 279.14 470.04 273.53
  A 3.95 3.89 82.5 0 0 470.84 272.47
  Q 472.50 269.23 472.64 268.46
  Q 474.80 256.70 466.17 248.53
  Q 462.80 245.33 458.57 244.24
  C 453.23 242.87 450.41 241.44 445.60 240.29
  Q 439.70 238.87 432.65 234.54
  A 3.28 2.23 69.9 0 1 432.26 234.26
  Q 428.66 231.24 429.10 224.90
  Q 429.49 219.38 434.48 217.53
  Q 439.81 215.56 442.87 215.20
  Q 450.36 214.30 464.02 213.97
  Q 469.65 213.84 472.93 213.18
  C 479.57 211.83 492.26 207.55 489.56 198.14
  C 488.05 192.89 481.73 190.59 479.89 185.83
  C 478.92 183.34 478.25 177.51 480.16 175.28
  A 0.52 0.52 0.0 0 0 479.77 174.42
  Q 472.92 174.28 465.53 174.87
  Q 429.12 177.81 394.69 191.39
  Q 393.46 191.87 392.70 192.61"
/>
<path stroke="#fc5c92" vector-effect="non-scaling-stroke" d="
  M 332.38 285.43
  Q 341.92 274.44 345.03 264.01
  Q 347.87 254.46 351.17 247.40
  Q 353.15 243.16 355.18 241.17
  C 365.56 230.95 381.04 229.71 392.00 220.78
  C 396.20 217.36 398.82 213.41 398.85 207.69
  Q 398.91 199.34 392.70 192.61"
/>
<path stroke="#fc6799" vector-effect="non-scaling-stroke" d="
  M 566.26 365.01
  Q 578.58 379.74 587.39 396.82
  C 591.25 404.31 593.74 411.30 596.96 418.89
  A 0.72 0.72 0.0 0 0 597.66 419.32
  C 603.26 418.95 608.28 418.91 614.62 417.98
  Q 622.25 416.85 631.05 415.52
  Q 635.92 414.78 641.53 412.50
  Q 651.76 408.36 654.42 398.22
  C 657.02 388.36 649.89 376.52 660.58 370.46
  C 669.59 365.36 679.47 365.18 688.70 369.08
  C 694.23 371.42 697.01 372.88 702.50 373.01
  Q 714.43 373.31 725.86 368.63
  A 0.92 0.91 -19.8 0 0 726.39 367.51
  Q 723.95 359.43 720.57 349.39
  Q 709.38 316.20 690.45 286.78"
/>
<path stroke="#ff75a5" vector-effect="non-scaling-stroke" d="
  M 690.45 286.78
  C 689.24 284.50 687.20 282.27 686.03 280.54
  Q 678.09 268.74 672.45 262.29
  Q 671.04 260.67 668.29 257.44
  Q 665.14 253.74 664.09 252.64
  Q 650.79 238.71 646.33 234.68
  Q 640.24 229.17 631.87 222.67
  Q 619.44 212.99 605.59 205.33
  A 1.33 1.32 -51.5 0 0 604.07 205.51
  Q 604.04 205.54 604.03 205.90
  A 0.49 0.48 -2.0 0 1 603.59 206.37
  Q 601.60 206.55 599.76 207.25
  C 593.27 209.74 584.42 212.09 578.58 217.07
  Q 575.64 219.57 575.28 221.92
  Q 573.47 233.93 582.61 239.92
  Q 589.72 244.59 597.58 244.78
  Q 610.39 245.08 617.83 247.24
  Q 626.76 249.84 629.78 257.24
  C 632.08 262.87 631.01 268.70 626.61 273.09
  C 622.71 276.99 618.44 278.36 613.31 280.12
  Q 610.40 281.13 605.24 282.26
  Q 596.67 284.15 589.89 285.67
  C 581.88 287.46 575.52 290.91 572.90 299.11
  Q 572.49 300.39 571.94 305.43
  C 571.14 312.71 567.77 319.72 559.74 321.00
  Q 550.08 322.55 542.71 317.81
  C 534.98 312.84 527.65 308.33 519.20 307.35
  C 511.28 306.44 502.51 306.93 494.94 309.77
  Q 492.96 310.52 488.20 312.19
  Q 486.89 312.65 480.44 316.80
  A 1.94 1.93 -61.3 0 1 479.39 317.11
  L 475.03 317.11
  A 0.16 0.15 0.0 0 0 474.87 317.26
  L 474.87 317.55
  A 0.30 0.29 86.6 0 0 475.20 317.85
  Q 478.44 317.49 481.03 318.51
  A 5.93 5.83 -30.3 0 0 482.61 318.91
  Q 493.97 320.24 506.00 324.29
  Q 527.97 331.69 546.49 346.55
  Q 551.14 350.28 555.83 353.92
  Q 559.52 356.78 566.26 365.01"
/>
<path stroke="#fc5c92" vector-effect="non-scaling-stroke" d="
  M 690.45 286.78
  Q 689.36 286.56 688.43 286.69
  A 0.92 0.90 12.5 0 0 687.82 287.07
  Q 680.58 297.32 674.36 306.39
  C 672.17 309.58 669.57 314.43 667.70 317.44
  Q 662.30 326.16 652.71 327.79
  Q 649.09 328.41 640.64 326.99
  C 625.96 324.51 608.83 320.96 599.39 335.37
  Q 597.74 337.87 595.47 344.61
  Q 593.88 349.33 590.20 355.45
  Q 588.82 357.75 586.14 359.62
  Q 581.44 362.89 576.16 364.36
  C 573.59 365.08 569.48 364.58 566.26 365.01"
/>
<path stroke="#804056" vector-effect="non-scaling-stroke" d="
  M 574.64 377.52
  Q 550.74 342.90 511.43 327.51
  Q 495.51 321.28 476.76 319.35
  C 471.59 318.82 467.01 319.04 461.66 318.96
  Q 455.51 318.88 450.32 319.42
  C 364.24 328.36 302.51 407.73 300.02 491.51
  C 299.23 518.00 301.40 544.63 311.00 569.49
  C 318.18 588.09 327.73 603.91 341.31 618.22
  C 366.67 644.93 400.92 657.93 437.49 657.66
  Q 482.24 657.34 519.21 633.62
  C 562.82 605.64 593.18 561.65 601.63 510.42
  Q 606.47 481.06 603.55 454.81
  Q 598.85 412.60 574.64 377.52"
/>
<path stroke="#fc6799" vector-effect="non-scaling-stroke" d="
  M 317.07 373.59
  Q 307.80 373.11 289.24 372.90
  Q 275.00 372.75 268.35 383.43
  C 263.85 390.65 262.86 401.64 253.91 405.11
  C 249.36 406.88 243.60 406.96 238.99 407.94
  Q 230.14 409.83 223.44 416.94
  Q 214.23 426.72 209.60 440.80
  C 207.46 447.30 206.43 454.47 199.71 457.13
  Q 196.26 458.49 193.39 458.49
  A 0.65 0.64 -86.6 0 0 192.74 459.07
  L 189.68 491.19
  A 1.12 1.12 0.0 0 0 190.54 492.38
  Q 200.89 494.78 210.18 499.36
  Q 217.20 502.80 223.92 505.58
  C 237.83 511.33 253.22 506.95 264.91 498.15"
/>
<path stroke="#ff75a5" vector-effect="non-scaling-stroke" d="
  M 264.91 498.15
  L 263.99 501.45
  A 1.39 1.36 42.4 0 0 264.04 502.32
  C 265.87 506.76 266.62 510.05 270.13 511.78
  Q 272.58 512.99 275.83 514.28
  Q 292.90 521.05 297.50 522.60
  Q 297.58 522.62 298.53 523.81
  A 0.26 0.26 0.0 0 0 298.99 523.70
  Q 299.32 522.19 299.31 522.01
  Q 298.73 514.81 298.42 501.87
  Q 298.27 495.86 298.61 492.64
  Q 299.27 486.48 299.17 483.41
  C 299.07 480.30 299.86 478.00 300.06 474.87
  Q 300.21 472.74 301.05 468.50
  Q 302.16 462.98 303.23 457.49"
/>
<path stroke="#fc6799" vector-effect="non-scaling-stroke" d="
  M 303.23 457.49
  Q 305.77 447.10 307.46 441.74
  Q 316.51 413.02 333.95 388.54
  C 335.20 386.79 337.45 384.56 338.86 382.09"
/>
<path stroke="#ff75a5" vector-effect="non-scaling-stroke" d="
  M 338.86 382.09
  Q 346.75 372.30 349.65 369.15
  Q 356.64 361.59 369.51 350.96
  A 0.76 0.75 -35.3 0 0 369.68 350.01
  L 367.41 346.09
  A 0.96 0.95 79.5 0 0 366.72 345.61
  Q 353.03 343.39 339.63 344.10
  C 327.79 344.74 319.97 356.22 316.63 366.51
  Q 315.51 369.95 317.07 373.59"
/>
<path stroke="#fc5c92" vector-effect="non-scaling-stroke" d="
  M 338.86 382.09
  Q 334.31 379.70 330.08 377.12
  Q 326.26 374.80 317.07 373.59"
/>
<path stroke="#fc5c92" vector-effect="non-scaling-stroke" d="
  M 303.23 457.49
  Q 302.41 457.46 302.22 456.98
  Q 301.83 455.97 300.81 456.09
  Q 286.97 457.72 275.68 460.63
  Q 269.25 462.28 267.38 467.60
  Q 265.66 472.49 266.02 475.25
  Q 266.91 481.94 267.28 488.50
  Q 267.58 493.94 264.91 498.15"
/>
<path stroke="#fc6799" vector-effect="non-scaling-stroke" d="
  M 590.48 552.52
  Q 575.11 586.71 547.78 612.50
  Q 530.01 629.28 509.77 640.22
  Q 469.72 661.87 423.72 658.13
  Q 409.77 656.99 395.89 652.88
  Q 370.01 645.22 350.41 628.37
  Q 341.70 620.87 332.65 609.99
  Q 324.97 600.75 318.60 588.73
  Q 307.15 567.16 302.41 543.16
  A 0.77 0.77 0.0 0 0 300.97 542.97
  L 300.59 543.72
  A 2.59 2.48 85.5 0 1 299.88 544.59
  Q 289.56 552.60 275.96 552.83
  Q 273.38 552.87 261.99 554.05
  C 257.72 554.49 253.90 556.02 250.41 557.68
  Q 242.56 561.40 239.17 569.40
  C 236.05 576.76 239.95 585.41 245.54 590.48
  Q 250.10 594.61 256.65 598.58
  Q 257.96 599.37 261.15 600.50"
/>
<path stroke="#ff75a5" vector-effect="non-scaling-stroke" d="
  M 261.15 600.50
  Q 256.90 600.38 252.96 600.58
  Q 248.34 600.81 245.02 601.92
  C 238.04 604.26 232.39 605.99 224.80 604.15
  C 215.35 601.84 208.93 599.75 200.89 599.77
  A 0.41 0.41 0.0 0 0 200.50 600.29
  Q 209.13 631.62 223.66 660.76"
/>
<path stroke="#fc6799" vector-effect="non-scaling-stroke" d="
  M 223.66 660.76
  Q 242.09 695.58 268.29 724.23
  Q 272.32 728.64 278.83 734.60
  A 0.56 0.56 0.0 0 0 279.57 734.62
  Q 280.19 734.12 280.62 734.07
  C 288.82 733.22 291.48 733.12 297.97 732.02
  C 304.58 730.90 309.71 731.48 316.25 734.75
  A 10.27 10.10 -22.9 0 0 317.76 735.35
  Q 327.86 738.41 329.53 738.67
  Q 335.26 739.56 346.74 739.28
  C 353.62 739.11 360.64 736.42 367.78 736.57
  Q 378.84 736.79 389.25 742.27
  C 397.85 746.80 399.76 755.21 399.98 764.47
  C 400.28 776.63 405.15 785.42 417.01 787.77
  Q 423.28 789.02 432.54 790.16
  Q 435.92 790.58 441.31 794.11
  A 0.69 0.64 3.2 0 1 441.53 794.34
  L 444.74 799.90
  A 0.75 0.73 73.0 0 0 445.41 800.27
  Q 461.47 799.73 478.73 797.26
  C 521.72 791.12 563.07 772.86 598.38 746.92
  Q 605.14 741.96 612.69 735.69"
/>
<path stroke="#ff75a5" vector-effect="non-scaling-stroke" d="
  M 612.69 735.69
  Q 615.33 733.31 618.68 730.50
  Q 621.97 727.73 624.56 725.21
  Q 638.10 712.02 647.20 702.45
  Q 648.06 701.55 648.82 700.45
  A 1.24 1.23 -56.6 0 0 648.47 698.72
  C 642.26 694.66 638.06 689.47 633.34 683.64
  C 628.48 677.66 623.89 675.51 616.64 674.33
  Q 605.91 672.58 597.48 672.34
  Q 584.15 671.96 571.44 672.31"
/>
<path stroke="#fc6799" vector-effect="non-scaling-stroke" d="
  M 571.44 672.31
  Q 565.88 671.00 560.97 669.34
  C 557.00 668.00 552.79 666.21 550.83 662.55
  C 545.21 652.06 551.37 638.57 560.27 632.66
  C 571.51 625.21 586.98 622.90 600.67 626.43
  Q 615.04 630.13 617.70 630.74
  Q 630.36 633.62 642.75 629.48
  C 649.17 627.32 653.14 623.81 656.16 617.63
  C 660.45 608.85 664.36 601.77 673.26 597.35
  C 677.35 595.31 681.68 593.38 685.91 592.19
  Q 697.98 588.81 714.38 585.44
  A 1.10 1.07 53.8 0 1 715.14 585.57
  Q 715.26 585.64 715.31 585.67
  A 0.71 0.70 -57.1 0 0 716.21 585.47
  Q 717.15 584.20 717.42 583.40
  Q 726.33 557.56 730.31 538.24
  Q 734.02 520.29 736.09 503.25
  Q 736.16 502.68 736.66 497.23
  C 737.35 489.85 737.57 482.79 738.00 473.00
  Q 738.15 469.58 737.89 468.19
  A 0.40 0.40 0.0 0 0 737.28 467.92
  L 735.78 468.87
  A 1.45 1.32 21.0 0 1 735.32 469.05
  Q 720.70 471.76 706.02 471.71"
/>
<path stroke="#ff75a5" vector-effect="non-scaling-stroke" d="
  M 706.02 471.71
  Q 703.79 467.36 700.49 464.75
  C 686.72 453.86 665.15 450.25 648.17 451.22
  C 640.72 451.64 634.15 454.38 626.44 456.08
  C 619.88 457.53 612.37 460.81 606.20 461.46
  A 0.53 0.53 0.0 0 0 605.72 462.01
  Q 606.54 481.83 604.45 499.47
  Q 602.24 518.18 596.47 536.71
  Q 594.82 542.01 590.48 552.52"
/>
<path stroke="#fc5c92" vector-effect="non-scaling-stroke" d="
  M 706.02 471.71
  Q 696.49 473.55 690.47 480.47
  Q 684.80 486.98 685.07 497.06
  C 685.21 502.16 688.10 506.54 688.78 511.18
  C 689.20 514.09 689.94 516.38 689.38 519.20
  C 686.95 531.43 674.00 533.12 663.76 535.54
  Q 653.14 538.04 644.05 544.82
  Q 642.25 546.16 633.77 552.76
  C 625.58 559.12 614.95 560.43 604.84 557.89
  Q 596.39 555.77 590.48 552.52"
/>
<path stroke="#fc5c92" vector-effect="non-scaling-stroke" d="
  M 571.44 672.31
  Q 571.36 678.13 566.24 682.51
  C 556.33 690.99 545.27 693.06 532.93 689.97
  C 519.68 686.64 506.18 688.73 496.38 698.64
  C 486.34 708.78 473.14 708.01 461.29 709.56
  C 452.02 710.78 442.62 712.39 437.80 720.50
  C 432.16 729.98 435.40 739.67 445.49 743.78
  Q 452.70 746.72 463.70 748.58
  C 468.96 749.47 472.76 750.79 476.44 753.36
  C 480.97 756.52 482.43 761.51 484.29 766.69
  A 0.49 0.48 66.5 0 0 484.96 766.96
  Q 486.05 766.42 486.99 766.44
  Q 502.78 766.70 516.61 759.36
  C 521.84 756.58 524.10 753.49 527.49 748.21
  A 15.48 15.37 69.2 0 0 529.37 743.98
  Q 529.69 742.80 531.47 734.19
  C 533.32 725.27 539.81 721.22 548.78 720.26
  Q 560.88 718.95 570.32 723.17
  Q 591.84 732.79 612.69 735.69"
/>
<path stroke="#fc5c92" vector-effect="non-scaling-stroke" d="
  M 223.66 660.76
  Q 235.41 659.90 246.54 663.01
  C 252.92 664.79 256.57 668.40 261.26 673.66
  C 269.30 682.67 280.26 687.84 292.21 688.21
  Q 294.37 688.27 299.42 688.55
  C 309.16 689.09 316.64 687.31 325.14 688.20
  Q 331.57 688.87 336.67 690.35
  C 346.13 693.11 351.41 694.88 360.33 694.22
  A 2.95 2.77 26.9 0 0 361.43 693.90
  Q 367.27 690.79 371.76 685.15
  C 376.47 679.23 373.50 670.04 368.57 665.19
  Q 361.61 658.36 350.48 658.05
  Q 347.45 657.97 338.91 657.82
  Q 334.66 657.75 326.45 654.76
  Q 321.79 653.07 319.32 649.17
  Q 315.71 643.48 313.12 634.93
  C 312.23 631.99 312.10 628.14 310.64 625.39
  C 305.97 616.60 297.39 611.10 288.18 607.54
  Q 278.84 603.92 271.02 602.22
  Q 268.27 601.62 261.15 600.50"
/>
<path stroke="#804056" vector-effect="non-scaling-stroke" d="
  M 453.62 341.83
  Q 430.47 343.70 409.20 354.45
  Q 392.52 362.89 380.05 374.08
  Q 334.26 415.16 324.48 478.54
  Q 322.86 489.05 322.89 503.75
  Q 322.94 522.91 326.26 538.22
  C 335.90 582.70 365.44 621.85 411.51 632.25
  Q 431.54 636.77 452.54 634.16
  C 486.17 629.98 517.46 610.62 539.76 585.43
  C 568.87 552.53 582.94 508.99 579.83 465.29
  Q 576.45 417.89 547.28 381.53
  C 530.57 360.71 507.54 347.02 481.14 343.04
  C 471.20 341.54 462.33 341.13 453.62 341.83"
/>
<path stroke="#fc6799" vector-effect="non-scaling-stroke" d="
  M 324.37 492.70
  Q 323.45 501.09 324.09 509.46
  Q 324.56 515.51 324.70 523.02
  A 4.22 3.66 41.0 0 0 324.83 523.94
  Q 325.28 525.68 325.46 526.93
  Q 329.71 556.67 343.04 579.32
  Q 355.06 599.73 371.94 612.55
  Q 389.70 626.04 411.75 631.34
  Q 418.34 632.92 427.59 633.18"
/>
<path stroke="#ff75a5" vector-effect="non-scaling-stroke" d="
  M 427.59 633.18
  Q 436.01 634.50 442.19 633.84
  C 447.75 633.24 453.10 633.07 458.23 631.99
  Q 469.17 629.71 471.08 629.10
  Q 501.10 619.53 525.08 598.56"
/>
<path stroke="#fc6799" vector-effect="non-scaling-stroke" d="
  M 525.08 598.56
  Q 544.84 581.53 557.89 558.62
  Q 566.08 544.25 571.02 528.46"
/>
<path stroke="#ff75a5" vector-effect="non-scaling-stroke" d="
  M 571.02 528.46
  Q 585.11 484.66 574.96 440.52
  Q 572.70 430.70 568.03 419.03"
/>
<path stroke="#fc6799" vector-effect="non-scaling-stroke" d="
  M 568.03 419.03
  Q 556.30 389.24 533.30 368.44
  Q 515.96 352.76 491.65 346.28"
/>
<path stroke="#ff75a5" vector-effect="non-scaling-stroke" d="
  M 491.65 346.28
  Q 480.43 343.76 469.68 342.95
  C 426.80 339.71 386.57 362.80 361.00 395.78
  Q 343.07 418.91 334.62 443.12
  Q 329.90 456.66 326.39 474.05
  C 325.88 476.58 326.03 478.80 325.50 481.13
  Q 325.07 483.05 324.91 486.42
  Q 324.75 489.62 324.37 492.70"
/>
<path stroke="#fc5c92" vector-effect="non-scaling-stroke" d="
  M 491.65 346.28
  Q 489.90 348.13 489.82 352.46
  Q 489.75 356.44 490.62 366.99
  C 491.69 380.02 479.62 384.94 468.85 380.91
  Q 460.73 377.88 455.02 375.22
  C 450.06 372.92 443.04 373.13 437.14 373.68
  Q 433.27 374.03 424.88 377.40
  Q 410.22 383.28 413.17 400.89"
/>
<path stroke="#ff75a5" vector-effect="non-scaling-stroke" d="
  M 413.17 400.89
  C 410.76 400.89 408.30 400.88 405.98 401.36
  Q 385.92 405.51 372.46 421.18
  Q 358.39 437.55 355.42 459.02
  Q 350.95 491.36 367.93 519.35
  Q 375.34 531.57 389.01 546.27"
/>
<path stroke="#fc5c92" vector-effect="non-scaling-stroke" d="
  M 389.01 546.27
  Q 373.46 548.95 367.96 549.71
  Q 364.40 550.20 359.62 550.16
  C 353.99 550.10 348.69 550.00 345.29 545.49
  Q 340.49 539.12 340.16 531.48
  C 339.77 522.30 347.48 510.96 340.98 503.00
  Q 334.78 495.41 324.37 492.70"
/>
<path stroke="#fc5c92" vector-effect="non-scaling-stroke" d="
  M 525.08 598.56
  C 515.55 589.37 502.00 588.66 490.27 593.55
  C 483.99 596.18 476.49 599.58 469.76 598.77
  C 464.09 598.08 459.28 597.04 453.97 595.19
  C 442.05 591.05 429.88 593.58 420.98 602.18
  Q 417.77 605.28 416.54 609.67
  Q 415.47 613.48 417.05 618.25
  Q 419.87 626.76 427.59 633.18"
/>
<path stroke="#ff75a5" vector-effect="non-scaling-stroke" d="
  M 544.17 429.30
  Q 550.05 439.64 552.41 451.25
  C 553.01 454.21 552.84 457.22 553.53 460.25
  A 5.95 5.94 -52.1 0 1 553.65 461.22
  Q 554.23 486.59 540.99 508.01
  Q 539.82 509.90 538.89 511.75"
/>
<path stroke="#fc6799" vector-effect="non-scaling-stroke" d="
  M 538.89 511.75
  Q 527.58 527.98 512.84 541.10
  Q 500.21 552.34 485.79 562.51
  Q 470.15 573.55 452.97 583.45
  Q 446.63 587.10 441.37 587.11
  A 0.49 0.25 36.1 0 1 441.24 587.09
  L 437.20 586.16
  A 8.55 8.29 -23.4 0 1 435.06 585.35
  Q 430.79 583.02 426.85 580.14
  Q 414.07 570.81 402.76 559.99
  Q 399.00 556.40 389.01 546.27"
/>
<path stroke="#fc5c92" vector-effect="non-scaling-stroke" d="
  M 568.03 419.03
  L 544.17 429.30"
/>
<path stroke="#fc6799" vector-effect="non-scaling-stroke" d="
  M 544.17 429.30
  C 534.11 411.91 517.11 400.46 497.01 401.39
  Q 485.28 401.93 474.37 407.33
  Q 466.57 411.20 458.07 417.05
  Q 456.15 418.37 454.65 416.60
  C 447.57 408.21 435.55 403.03 425.01 401.24
  Q 422.30 400.78 413.17 400.89"
/>
<path stroke="#fc5c92" vector-effect="non-scaling-stroke" d="
  M 571.02 528.46
  C 558.39 525.87 547.34 522.12 538.89 511.75"
/>
<path stroke="#804056" vector-effect="non-scaling-stroke" d="
  M 455.96 419.20
  C 452.05 415.51 449.94 413.12 446.47 410.85
  Q 437.96 405.28 430.10 403.49
  Q 413.91 399.78 398.56 404.69
  C 378.49 411.11 363.52 430.09 358.38 450.41
  Q 355.80 460.62 355.87 472.77
  Q 356.04 501.47 372.91 524.61
  Q 396.99 557.64 430.76 581.52
  C 437.46 586.26 443.18 587.83 450.47 583.72
  Q 480.29 566.92 504.09 547.34
  C 524.21 530.78 541.21 511.88 549.26 486.75
  Q 552.59 476.36 552.21 462.76
  Q 551.48 436.56 534.52 418.28
  C 522.04 404.83 506.45 400.61 488.89 403.63
  C 477.85 405.53 466.33 412.34 456.99 419.26
  A 0.80 0.80 0.0 0 1 455.96 419.20"
/>
</g>
<path fill="#000000" d="
  M 626.77 112.96
  Q 634.51 115.45 640.29 117.57
  Q 663.37 126.03 686.23 136.78
  Q 732.01 158.32 770.46 192.04
  Q 787.65 207.11 802.16 224.85
  Q 841.21 272.59 861.09 328.18
  Q 876.11 370.18 881.60 413.63
  Q 886.09 449.17 884.93 486.88
  Q 884.72 493.54 884.51 495.66
  C 883.89 501.92 884.15 505.44 883.49 511.22
  Q 883.48 511.31 882.85 518.00
  Q 880.81 539.60 875.67 562.21
  Q 860.88 627.23 830.24 684.52
  Q 800.23 740.61 756.98 783.48
  Q 733.45 806.80 702.66 828.02
  Q 673.20 848.33 641.06 861.68
  Q 598.27 879.46 555.90 885.47
  Q 547.50 886.66 545.62 886.95
  Q 540.62 887.72 535.31 888.11
  C 525.85 888.81 516.73 889.92 507.70 890.06
  Q 489.51 890.33 470.14 889.97
  Q 465.45 889.88 461.99 889.51
  C 456.32 888.90 450.92 889.30 446.20 888.35
  Q 445.96 888.30 438.55 887.77
  Q 427.46 886.98 408.00 883.96
  Q 373.61 878.63 341.63 867.35
  Q 316.07 858.33 291.43 844.56
  Q 268.09 831.53 246.08 813.24
  Q 213.05 785.77 187.44 750.83
  Q 181.71 743.01 172.59 728.54
  Q 164.80 716.19 159.28 705.33
  Q 146.25 679.71 138.75 658.73
  Q 129.08 631.65 123.30 605.96
  Q 117.93 582.11 115.48 554.75
  Q 112.45 521.04 114.19 490.25
  Q 114.25 489.01 115.19 474.52
  Q 116.05 461.21 119.56 439.51
  Q 132.52 359.38 172.97 289.45
  Q 192.18 256.26 219.00 225.00
  Q 253.95 184.27 296.95 154.99
  Q 334.94 129.14 380.29 112.57
  Q 437.12 91.80 501.50 91.04
  Q 505.52 90.99 523.67 92.24
  Q 536.08 93.10 545.77 94.45
  C 574.36 98.41 600.64 104.55 626.77 112.96
  Z
  M 195.54 719.22
  Q 233.93 780.30 295.16 817.87
  Q 300.41 821.09 305.28 823.44
  C 330.90 838.22 361.11 848.55 389.77 853.70
  C 411.16 857.55 434.03 859.82 455.84 858.68
  Q 493.69 856.72 526.68 846.94
  C 586.06 829.33 640.36 795.89 683.02 751.31
  Q 727.94 704.39 757.24 643.01
  Q 766.54 623.52 775.61 598.13
  Q 790.37 556.80 795.87 513.74
  Q 800.42 478.09 799.50 442.23
  L 799.37 440.53
  Q 798.42 418.88 795.60 397.37
  Q 789.01 347.13 769.52 300.23
  C 750.87 255.38 721.92 215.25 685.94 183.07
  C 642.81 144.50 587.15 122.97 529.79 118.25
  C 523.67 117.75 515.79 117.07 508.80 117.03
  Q 485.64 116.91 482.01 117.12
  Q 432.05 119.96 390.04 135.33
  Q 308.92 165.00 247.97 229.23
  Q 236.23 241.60 224.17 256.67
  C 180.27 311.48 152.58 378.21 142.36 447.53
  C 136.76 485.55 135.41 522.52 139.61 559.47
  Q 146.11 616.67 169.01 669.47
  Q 180.91 696.92 195.54 719.22
  Z
  M 724.47 742.67
  Q 672.25 805.52 601.13 843.63
  Q 590.72 849.21 573.73 856.44
  C 566.52 859.51 558.75 861.61 551.18 864.45
  A 0.18 0.18 0.0 0 0 551.07 864.66
  L 551.08 864.67
  A 0.17 0.17 0.0 0 0 551.29 864.80
  C 577.57 859.18 600.18 853.14 624.13 843.64
  Q 680.33 821.32 724.62 782.11
  Q 738.99 769.38 749.12 758.38
  Q 796.86 706.57 825.05 642.82
  C 836.34 617.29 845.43 588.85 851.42 562.19
  Q 856.23 540.82 859.01 515.03
  Q 862.82 478.18 860.79 442.23
  C 856.01 357.63 822.56 274.74 761.19 215.07
  Q 741.49 195.91 717.57 178.99
  C 714.30 176.68 711.14 173.80 707.96 171.77
  A 0.21 0.20 83.5 0 0 707.71 172.09
  C 711.48 175.97 717.02 180.46 720.85 184.25
  Q 736.01 199.27 744.26 209.73
  Q 779.90 254.91 800.45 311.83
  Q 821.54 370.25 824.98 431.61
  C 826.08 451.21 826.37 470.58 824.87 488.29
  Q 824.78 489.32 823.79 501.50
  Q 820.82 538.09 810.31 575.56
  Q 789.04 651.37 744.74 716.24
  Q 738.86 724.84 724.47 742.67
  Z"
/>
<path fill="#ff80ac" d="
  M 799.37 440.53
  Q 799.21 441.56 799.50 442.23
  Q 800.42 478.09 795.87 513.74
  Q 790.37 556.80 775.61 598.13
  Q 766.54 623.52 757.24 643.01
  Q 727.94 704.39 683.02 751.31
  C 640.36 795.89 586.06 829.33 526.68 846.94
  Q 493.69 856.72 455.84 858.68
  C 434.03 859.82 411.16 857.55 389.77 853.70
  C 361.11 848.55 330.90 838.22 305.28 823.44
  Q 309.93 824.19 314.38 827.57
  Q 315.84 827.95 317.11 828.88
  A 1.81 1.69 73.5 0 0 317.45 829.08
  Q 330.22 834.62 341.59 839.13
  C 362.64 847.50 385.30 852.22 410.67 855.71
  C 414.23 856.20 419.07 856.09 423.17 857.05
  A 4.60 4.20 -36.3 0 0 424.11 857.15
  C 431.22 857.18 438.32 857.96 445.30 857.76
  Q 450.63 857.61 455.97 857.40
  L 466.84 856.86
  A 0.64 0.54 31.3 0 0 467.03 856.83
  C 471.15 855.85 475.18 855.97 479.50 855.29
  Q 484.24 854.55 491.19 853.55
  C 510.08 850.84 527.39 845.78 547.76 838.59
  Q 562.09 833.54 577.13 826.35
  Q 616.14 807.69 648.95 781.19
  C 652.61 778.24 658.24 773.21 661.88 770.12
  C 670.21 763.08 675.64 757.12 685.24 747.51
  C 688.86 743.89 691.87 739.91 694.80 737.01
  C 696.32 735.52 697.01 733.82 698.79 732.13
  Q 699.86 731.13 701.92 728.59
  Q 719.84 706.54 734.84 682.29
  C 737.28 678.35 738.86 675.07 740.93 671.75
  Q 743.49 667.64 745.52 663.84
  Q 762.09 632.82 773.34 601.33
  Q 774.38 598.43 775.41 595.56
  Q 783.71 571.38 785.19 564.44
  Q 787.25 554.78 789.90 543.14
  Q 793.10 527.81 794.88 512.99
  Q 796.02 503.49 797.26 487.80
  C 798.49 472.23 798.50 456.26 798.21 441.75
  A 1.23 1.22 6.2 0 0 797.27 440.59
  C 787.65 438.35 778.13 436.48 768.54 440.16
  A 0.46 0.46 0.0 0 1 767.92 439.80
  Q 767.82 439.12 767.47 438.76
  A 0.35 0.35 0.0 0 0 766.87 439.00
  Q 766.75 458.98 766.85 474.46
  Q 766.88 479.00 766.57 482.12
  C 765.92 488.64 765.87 495.15 765.17 501.22
  Q 762.63 523.48 758.06 545.15
  Q 754.79 558.93 753.39 563.44
  Q 750.69 572.14 749.50 576.34
  C 748.43 580.08 747.16 583.31 745.87 586.77
  Q 723.20 653.56 680.19 706.68
  Q 665.14 725.27 642.50 746.41
  C 633.43 754.87 622.96 763.02 613.76 769.76
  C 583.62 791.84 549.24 809.45 513.41 818.39
  C 495.25 822.92 477.86 825.85 460.48 827.38
  C 450.72 828.23 440.78 827.99 431.00 828.03
  C 421.01 827.24 410.28 826.56 401.08 825.20
  Q 370.31 820.64 341.41 809.07
  Q 338.12 807.75 331.96 804.87
  Q 327.12 802.62 322.52 800.61
  Q 321.52 799.82 321.03 799.70
  Q 320.54 799.39 321.04 798.64
  Q 363.74 820.28 411.18 825.48
  Q 415.53 825.95 418.30 826.03
  C 424.24 826.19 429.62 827.02 436.11 827.02
  Q 472.72 827.01 508.82 818.37
  C 550.36 808.42 588.73 788.64 622.18 762.17
  Q 675.07 720.32 708.82 663.83
  Q 717.41 649.45 720.10 644.11
  Q 737.68 609.18 748.16 576.67
  Q 762.04 533.59 765.05 486.74
  Q 767.69 445.52 761.52 402.99
  C 752.11 338.21 723.79 276.85 679.34 228.66
  Q 668.20 216.58 653.47 204.74
  Q 653.24 203.88 653.72 203.84
  Q 663.44 211.32 672.30 220.05
  Q 697.56 245.27 716.04 275.32
  Q 736.99 308.83 749.48 346.93
  A 0.93 0.93 0.0 0 0 750.70 347.51
  Q 751.38 347.24 752.57 347.16
  C 762.06 346.51 772.01 348.98 780.67 351.39
  Q 782.68 351.95 784.27 352.82
  A 0.79 0.78 14.3 0 0 785.44 352.13
  C 785.44 349.58 784.46 346.76 783.67 344.02
  Q 772.51 305.38 756.07 274.15
  Q 750.44 263.46 740.04 247.26
  L 730.03 232.95
  Q 723.33 224.19 716.17 215.81
  Q 714.31 213.64 709.37 207.87
  Q 705.12 202.89 689.41 187.66
  Q 686.63 184.96 683.28 182.20
  Q 680.10 179.57 676.98 176.93
  Q 663.37 166.04 648.68 156.96
  A 0.89 0.89 0.0 0 0 647.57 157.10
  Q 646.36 158.36 645.20 158.66
  A 2.07 1.98 -70.5 0 0 644.37 159.08
  C 634.79 167.10 623.22 167.84 609.96 169.92
  Q 607.65 170.28 604.35 171.90
  A 0.25 0.25 0.0 0 0 604.35 172.35
  Q 625.34 182.57 644.26 196.52
  Q 644.33 196.58 645.74 197.50
  Q 647.46 198.62 646.79 199.57
  Q 603.03 166.75 549.54 154.59
  Q 528.77 149.86 512.03 148.55
  Q 490.13 146.82 481.50 147.09
  C 470.56 147.43 460.23 147.72 450.87 148.83
  Q 431.58 151.12 412.52 156.53
  C 370.89 168.36 331.13 189.83 297.34 218.10
  Q 264.52 245.55 238.41 279.83
  Q 212.68 313.60 195.13 353.34
  Q 161.90 428.54 162.72 513.05
  L 161.67 521.89
  A 0.02 0.02 0.0 0 1 161.63 521.89
  Q 161.39 503.09 162.23 483.25
  Q 162.32 481.17 163.55 467.57
  Q 164.33 458.85 165.52 451.99
  Q 166.18 448.15 168.32 434.34
  A 0.83 0.83 0.0 0 0 167.68 433.40
  L 148.33 429.25
  A 1.73 1.61 63.1 0 1 147.87 429.08
  L 147.65 428.96
  A 0.55 0.54 29.6 0 0 146.66 429.23
  Q 142.76 450.44 140.36 472.75
  Q 140.32 473.10 140.10 475.76
  Q 138.76 492.14 138.29 513.25
  Q 138.18 518.46 138.58 524.56
  C 138.97 530.38 138.57 539.06 139.93 546.31
  C 139.91 548.09 139.68 549.84 139.84 551.55
  Q 145.57 612.35 169.53 668.34
  Q 170.36 669.91 172.29 674.21
  Q 182.31 696.55 196.01 718.23
  Q 195.83 718.92 195.54 719.22
  Q 180.91 696.92 169.01 669.47
  Q 146.11 616.67 139.61 559.47
  C 135.41 522.52 136.76 485.55 142.36 447.53
  C 152.58 378.21 180.27 311.48 224.17 256.67
  Q 236.23 241.60 247.97 229.23
  Q 308.92 165.00 390.04 135.33
  Q 432.05 119.96 482.01 117.12
  Q 485.64 116.91 508.80 117.03
  C 515.79 117.07 523.67 117.75 529.79 118.25
  C 587.15 122.97 642.81 144.50 685.94 183.07
  C 721.92 215.25 750.87 255.38 769.52 300.23
  Q 789.01 347.13 795.60 397.37
  Q 798.42 418.88 799.37 440.53
  Z
  M 374.70 142.62
  Q 317.40 166.57 273.98 205.48
  Q 244.65 231.77 221.10 262.35
  Q 203.85 284.75 191.52 307.00
  Q 182.75 322.82 174.89 339.89
  A 0.46 0.46 0.0 0 0 175.42 340.53
  Q 184.23 338.36 194.00 337.27
  Q 196.62 336.98 199.39 337.08
  A 1.00 0.98 -20.8 0 1 200.08 337.38
  L 200.40 337.70
  A 0.60 0.59 37.3 0 0 201.33 337.58
  Q 203.63 333.60 205.71 329.64
  Q 215.89 310.29 228.08 292.35
  Q 229.64 289.39 231.84 286.97
  A 2.82 2.68 79.6 0 0 232.31 286.25
  Q 232.78 285.25 233.31 284.56
  Q 234.04 283.61 242.81 272.41
  C 244.30 270.50 246.68 267.99 248.26 265.30
  Q 250.83 263.32 252.89 260.27
  A 5.10 4.82 -6.5 0 1 253.53 259.51
  C 257.40 255.83 260.41 251.46 264.00 247.97
  Q 265.67 246.35 281.39 230.59
  C 283.62 228.37 286.04 226.86 288.19 224.73
  Q 289.89 223.04 293.21 220.22
  Q 330.29 188.74 374.53 168.85
  Q 404.12 155.98 432.37 150.37
  Q 450.21 146.83 475.21 145.88
  A 0.18 0.18 0.0 0 0 475.38 145.71
  L 475.38 145.70
  A 0.17 0.17 0.0 0 0 475.22 145.50
  L 470.96 145.24
  A 0.48 0.47 -77.4 0 1 470.55 144.59
  Q 474.13 135.37 482.53 131.13
  Q 488.78 127.98 493.57 127.13
  Q 508.52 124.49 524.02 127.72
  Q 532.93 129.58 536.26 130.48
  C 543.90 132.55 549.88 130.41 556.64 127.37
  Q 559.03 126.30 560.19 124.45
  A 0.57 0.56 -68.8 0 0 559.82 123.60
  Q 542.96 120.38 524.24 119.14
  Q 518.27 118.75 507.50 118.45
  Q 488.89 117.94 474.20 118.85
  C 470.40 119.09 467.44 119.77 464.41 119.81
  Q 461.55 119.85 457.03 120.49
  Q 437.39 123.24 419.22 127.69
  Q 396.38 133.28 374.70 142.62
  Z"
/>
<path fill="#fe699e" d="
  M 374.53 168.85
  Q 375.24 164.55 375.87 160.38
  C 376.68 154.96 379.12 151.56 382.86 144.70
  A 0.35 0.35 0.0 0 0 382.62 144.19
  L 374.70 142.62
  Q 396.38 133.28 419.22 127.69
  Q 437.39 123.24 457.03 120.49
  Q 461.55 119.85 464.41 119.81
  C 467.44 119.77 470.40 119.09 474.20 118.85
  Q 488.89 117.94 507.50 118.45
  Q 518.27 118.75 524.24 119.14
  Q 542.96 120.38 559.82 123.60
  A 0.57 0.56 -68.8 0 1 560.19 124.45
  Q 559.03 126.30 556.64 127.37
  C 549.88 130.41 543.90 132.55 536.26 130.48
  Q 532.93 129.58 524.02 127.72
  Q 508.52 124.49 493.57 127.13
  Q 488.78 127.98 482.53 131.13
  Q 474.13 135.37 470.55 144.59
  A 0.48 0.47 -77.4 0 0 470.96 145.24
  L 475.22 145.50
  A 0.17 0.17 0.0 0 1 475.38 145.70
  L 475.38 145.71
  A 0.18 0.18 0.0 0 1 475.21 145.88
  Q 450.21 146.83 432.37 150.37
  Q 404.12 155.98 374.53 168.85
  Z"
/>
<path fill="#f94e86" d="
  M 374.53 168.85
  Q 330.29 188.74 293.21 220.22
  Q 289.89 223.04 288.19 224.73
  C 286.04 226.86 283.62 228.37 281.39 230.59
  Q 265.67 246.35 264.00 247.97
  C 260.41 251.46 257.40 255.83 253.53 259.51
  A 5.10 4.82 -6.5 0 0 252.89 260.27
  Q 250.83 263.32 248.26 265.30
  Q 236.71 265.44 231.80 274.25
  Q 230.11 277.29 229.25 283.12
  Q 228.58 287.69 228.08 292.35
  Q 215.89 310.29 205.71 329.64
  Q 203.63 333.60 201.33 337.58
  A 0.60 0.59 37.3 0 1 200.40 337.70
  L 200.08 337.38
  A 1.00 0.98 -20.8 0 0 199.39 337.08
  Q 196.62 336.98 194.00 337.27
  Q 184.23 338.36 175.42 340.53
  A 0.46 0.46 0.0 0 1 174.89 339.89
  Q 182.75 322.82 191.52 307.00
  Q 203.85 284.75 221.10 262.35
  Q 244.65 231.77 273.98 205.48
  Q 317.40 166.57 374.70 142.62
  L 382.62 144.19
  A 0.35 0.35 0.0 0 1 382.86 144.70
  C 379.12 151.56 376.68 154.96 375.87 160.38
  Q 375.24 164.55 374.53 168.85
  Z"
/>
<path fill="#000000" d="
  M 646.79 199.57
  L 653.47 204.74
  Q 668.20 216.58 679.34 228.66
  C 723.79 276.85 752.11 338.21 761.52 402.99
  Q 767.69 445.52 765.05 486.74
  Q 762.04 533.59 748.16 576.67
  Q 737.68 609.18 720.10 644.11
  Q 717.41 649.45 708.82 663.83
  Q 675.07 720.32 622.18 762.17
  C 588.73 788.64 550.36 808.42 508.82 818.37
  Q 472.72 827.01 436.11 827.02
  C 429.62 827.02 424.24 826.19 418.30 826.03
  Q 415.53 825.95 411.18 825.48
  Q 363.74 820.28 321.04 798.64
  Q 289.86 782.22 266.57 760.93
  C 242.52 738.94 221.34 713.18 205.83 684.94
  Q 181.61 640.83 170.92 591.36
  Q 162.83 553.91 162.72 513.05
  Q 161.90 428.54 195.13 353.34
  Q 212.68 313.60 238.41 279.83
  Q 264.52 245.55 297.34 218.10
  C 331.13 189.83 370.89 168.36 412.52 156.53
  Q 431.58 151.12 450.87 148.83
  C 460.23 147.72 470.56 147.43 481.50 147.09
  Q 490.13 146.82 512.03 148.55
  Q 528.77 149.86 549.54 154.59
  Q 603.03 166.75 646.79 199.57
  Z
  M 601.59 201.70
  Q 552.70 175.29 496.24 173.21
  Q 468.92 172.20 443.76 176.56
  C 402.22 183.75 360.25 202.66 326.21 228.21
  Q 257.50 279.80 221.33 357.81
  Q 198.12 407.87 191.54 461.26
  Q 188.54 485.65 188.12 505.25
  Q 187.44 536.96 192.61 569.42
  Q 199.11 610.17 217.75 650.95
  C 228.19 673.80 243.51 696.78 259.59 715.91
  C 286.76 748.21 322.85 774.30 362.44 787.91
  Q 385.61 795.89 410.63 799.46
  C 414.73 800.05 418.10 799.95 422.16 800.56
  Q 424.45 800.90 430.86 801.11
  Q 444.08 801.55 446.28 801.44
  Q 458.31 800.81 469.25 799.63
  Q 522.76 793.84 571.63 765.59
  C 601.70 748.20 626.84 726.49 649.35 701.46
  Q 662.61 686.72 674.53 669.30
  Q 715.71 609.13 731.55 537.56
  Q 738.04 508.25 738.92 478.26
  Q 739.87 445.59 736.63 416.82
  Q 732.99 384.56 723.41 354.45
  C 703.03 290.35 660.72 233.64 601.59 201.70
  Z"
/>
<path fill="#fe699e" d="
  M 676.98 176.93
  C 672.45 180.66 667.77 184.19 663.98 188.34
  C 660.04 192.67 655.64 197.47 650.24 199.93
  A 0.53 0.53 0.0 0 0 650.22 200.89
  Q 652.28 201.94 653.72 203.84
  Q 653.24 203.88 653.47 204.74
  L 646.79 199.57
  Q 647.46 198.62 645.74 197.50
  Q 644.33 196.58 644.26 196.52
  Q 625.34 182.57 604.35 172.35
  A 0.25 0.25 0.0 0 1 604.35 171.90
  Q 607.65 170.28 609.96 169.92
  C 623.22 167.84 634.79 167.10 644.37 159.08
  A 2.07 1.98 -70.5 0 1 645.20 158.66
  Q 646.36 158.36 647.57 157.10
  A 0.89 0.89 0.0 0 1 648.68 156.96
  Q 663.37 166.04 676.98 176.93
  Z"
/>
<path fill="#f94e86" d="
  M 859.01 515.03
  Q 858.63 515.41 858.43 515.20
  Q 858.00 514.76 858.06 514.17
  Q 859.17 502.78 859.37 494.98
  Q 859.49 490.28 860.07 483.50
  Q 860.26 481.26 860.32 472.02
  Q 860.46 448.29 858.40 426.29
  Q 856.15 402.21 849.39 374.28
  Q 847.38 365.95 844.62 356.95
  Q 840.22 342.60 839.19 339.79
  Q 832.49 321.44 823.84 303.72
  C 821.15 298.23 818.57 294.17 815.92 289.02
  Q 813.59 284.51 809.71 278.17
  Q 798.53 259.90 784.98 242.94
  Q 782.89 240.33 782.14 239.60
  Q 779.79 237.30 779.33 236.12
  A 2.08 2.05 -83.8 0 0 778.60 235.20
  Q 777.94 234.74 768.42 224.08
  Q 762.62 217.58 748.37 204.88
  Q 747.44 204.05 746.76 203.91
  A 0.85 0.84 75.8 0 1 746.28 203.62
  Q 744.12 200.99 739.02 196.57
  Q 738.44 196.06 737.95 195.91
  A 1.56 1.55 77.7 0 1 737.21 195.43
  Q 735.71 193.70 733.71 192.77
  A 2.85 2.81 -9.2 0 1 732.88 192.18
  Q 731.07 190.29 729.40 189.60
  A 1.86 1.80 -10.0 0 1 728.82 189.21
  L 726.88 187.27
  A 0.28 0.26 -20.1 0 0 726.74 187.21
  L 726.44 187.18
  A 0.16 0.16 0.0 0 0 726.30 187.43
  Q 728.19 189.96 730.08 191.76
  Q 732.45 194.02 733.92 195.82
  Q 736.44 198.89 742.81 206.09
  Q 746.23 209.96 750.41 215.71
  Q 755.53 222.75 757.57 225.68
  Q 765.47 237.05 773.77 251.33
  Q 781.13 263.99 787.81 278.22
  Q 806.31 317.66 815.78 359.58
  Q 822.19 388.01 824.13 407.79
  Q 826.52 432.25 826.58 439.99
  Q 826.66 449.15 826.64 473.41
  C 826.63 484.84 825.82 491.85 824.75 505.72
  C 824.54 508.42 823.87 510.83 823.73 513.91
  Q 823.67 515.02 823.00 520.07
  Q 817.69 559.67 804.54 598.55
  Q 796.24 623.08 787.99 641.53
  Q 775.31 669.86 757.55 698.73
  Q 749.63 711.61 742.38 721.40
  Q 734.41 732.16 725.82 742.95
  A 1.05 1.04 -63.8 0 1 724.75 743.32
  Q 724.68 743.30 724.47 742.67
  Q 738.86 724.84 744.74 716.24
  Q 789.04 651.37 810.31 575.56
  Q 820.82 538.09 823.79 501.50
  Q 824.78 489.32 824.87 488.29
  C 826.37 470.58 826.08 451.21 824.98 431.61
  Q 821.54 370.25 800.45 311.83
  Q 779.90 254.91 744.26 209.73
  Q 736.01 199.27 720.85 184.25
  C 717.02 180.46 711.48 175.97 707.71 172.09
  A 0.21 0.20 83.5 0 1 707.96 171.77
  C 711.14 173.80 714.30 176.68 717.57 178.99
  Q 741.49 195.91 761.19 215.07
  C 822.56 274.74 856.01 357.63 860.79 442.23
  Q 862.82 478.18 859.01 515.03
  Z"
/>
<path fill="#ff80ac" d="
  M 601.59 201.70
  C 660.72 233.64 703.03 290.35 723.41 354.45
  Q 732.99 384.56 736.63 416.82
  Q 739.87 445.59 738.92 478.26
  Q 738.04 508.25 731.55 537.56
  Q 715.71 609.13 674.53 669.30
  Q 662.61 686.72 649.35 701.46
  C 626.84 726.49 601.70 748.20 571.63 765.59
  Q 522.76 793.84 469.25 799.63
  Q 458.31 800.81 446.28 801.44
  Q 444.08 801.55 430.86 801.11
  Q 424.45 800.90 422.16 800.56
  C 418.10 799.95 414.73 800.05 410.63 799.46
  Q 385.61 795.89 362.44 787.91
  C 322.85 774.30 286.76 748.21 259.59 715.91
  C 243.51 696.78 228.19 673.80 217.75 650.95
  Q 199.11 610.17 192.61 569.42
  Q 187.44 536.96 188.12 505.25
  Q 188.54 485.65 191.54 461.26
  Q 198.12 407.87 221.33 357.81
  Q 257.50 279.80 326.21 228.21
  C 360.25 202.66 402.22 183.75 443.76 176.56
  Q 468.92 172.20 496.24 173.21
  Q 552.70 175.29 601.59 201.70
  Z
  M 392.70 192.61
  Q 391.98 192.42 390.82 192.89
  Q 349.76 209.67 315.54 237.80
  Q 295.32 254.42 281.23 269.98
  Q 266.55 286.18 258.24 297.49
  Q 248.66 310.52 239.61 325.64
  A 0.52 0.51 -76.7 0 0 240.09 326.42
  L 240.43 326.40
  A 1.33 1.24 53.3 0 1 241.09 326.52
  C 253.46 332.30 270.01 333.80 280.54 323.32
  Q 282.92 320.94 284.79 316.74
  C 289.09 307.09 293.41 299.87 304.06 296.08
  Q 309.90 294.00 320.38 291.62
  Q 327.30 290.04 332.38 285.43
  C 332.65 287.90 330.12 289.36 328.30 290.35
  A 1.02 1.02 0.0 0 0 328.51 292.23
  L 338.03 294.93
  A 3.94 2.29 -0.8 0 1 338.51 295.09
  C 345.43 297.97 351.44 299.71 358.80 302.30
  Q 368.10 305.57 370.01 305.97
  C 377.81 307.61 388.18 307.71 395.76 304.25
  C 403.36 300.78 409.83 295.01 416.05 290.58
  Q 418.00 289.20 429.88 283.97
  A 4.20 3.88 27.8 0 1 431.04 283.66
  C 438.95 282.82 446.77 283.46 453.51 282.76
  C 461.10 281.98 464.11 279.14 470.04 273.53
  A 3.95 3.89 82.5 0 0 470.84 272.47
  Q 472.50 269.23 472.64 268.46
  Q 474.80 256.70 466.17 248.53
  Q 462.80 245.33 458.57 244.24
  C 453.23 242.87 450.41 241.44 445.60 240.29
  Q 439.70 238.87 432.65 234.54
  A 3.28 2.23 69.9 0 1 432.26 234.26
  Q 428.66 231.24 429.10 224.90
  Q 429.49 219.38 434.48 217.53
  Q 439.81 215.56 442.87 215.20
  Q 450.36 214.30 464.02 213.97
  Q 469.65 213.84 472.93 213.18
  C 479.57 211.83 492.26 207.55 489.56 198.14
  C 488.05 192.89 481.73 190.59 479.89 185.83
  C 478.92 183.34 478.25 177.51 480.16 175.28
  A 0.52 0.52 0.0 0 0 479.77 174.42
  Q 472.92 174.28 465.53 174.87
  Q 429.12 177.81 394.69 191.39
  Q 393.46 191.87 392.70 192.61
  Z
  M 566.26 365.01
  Q 578.58 379.74 587.39 396.82
  C 591.25 404.31 593.74 411.30 596.96 418.89
  A 0.72 0.72 0.0 0 0 597.66 419.32
  C 603.26 418.95 608.28 418.91 614.62 417.98
  Q 622.25 416.85 631.05 415.52
  Q 635.92 414.78 641.53 412.50
  Q 651.76 408.36 654.42 398.22
  C 657.02 388.36 649.89 376.52 660.58 370.46
  C 669.59 365.36 679.47 365.18 688.70 369.08
  C 694.23 371.42 697.01 372.88 702.50 373.01
  Q 714.43 373.31 725.86 368.63
  A 0.92 0.91 -19.8 0 0 726.39 367.51
  Q 723.95 359.43 720.57 349.39
  Q 709.38 316.20 690.45 286.78
  C 689.24 284.50 687.20 282.27 686.03 280.54
  Q 678.09 268.74 672.45 262.29
  Q 671.04 260.67 668.29 257.44
  Q 665.14 253.74 664.09 252.64
  Q 650.79 238.71 646.33 234.68
  Q 640.24 229.17 631.87 222.67
  Q 619.44 212.99 605.59 205.33
  A 1.33 1.32 -51.5 0 0 604.07 205.51
  Q 604.04 205.54 604.03 205.90
  A 0.49 0.48 -2.0 0 1 603.59 206.37
  Q 601.60 206.55 599.76 207.25
  C 593.27 209.74 584.42 212.09 578.58 217.07
  Q 575.64 219.57 575.28 221.92
  Q 573.47 233.93 582.61 239.92
  Q 589.72 244.59 597.58 244.78
  Q 610.39 245.08 617.83 247.24
  Q 626.76 249.84 629.78 257.24
  C 632.08 262.87 631.01 268.70 626.61 273.09
  C 622.71 276.99 618.44 278.36 613.31 280.12
  Q 610.40 281.13 605.24 282.26
  Q 596.67 284.15 589.89 285.67
  C 581.88 287.46 575.52 290.91 572.90 299.11
  Q 572.49 300.39 571.94 305.43
  C 571.14 312.71 567.77 319.72 559.74 321.00
  Q 550.08 322.55 542.71 317.81
  C 534.98 312.84 527.65 308.33 519.20 307.35
  C 511.28 306.44 502.51 306.93 494.94 309.77
  Q 492.96 310.52 488.20 312.19
  Q 486.89 312.65 480.44 316.80
  A 1.94 1.93 -61.3 0 1 479.39 317.11
  L 475.03 317.11
  A 0.16 0.15 0.0 0 0 474.87 317.26
  L 474.87 317.55
  A 0.30 0.29 86.6 0 0 475.20 317.85
  Q 478.44 317.49 481.03 318.51
  A 5.93 5.83 -30.3 0 0 482.61 318.91
  Q 493.97 320.24 506.00 324.29
  Q 527.97 331.69 546.49 346.55
  Q 551.14 350.28 555.83 353.92
  Q 559.52 356.78 566.26 365.01
  Z
  M 574.64 377.52
  Q 550.74 342.90 511.43 327.51
  Q 495.51 321.28 476.76 319.35
  C 471.59 318.82 467.01 319.04 461.66 318.96
  Q 455.51 318.88 450.32 319.42
  C 364.24 328.36 302.51 407.73 300.02 491.51
  C 299.23 518.00 301.40 544.63 311.00 569.49
  C 318.18 588.09 327.73 603.91 341.31 618.22
  C 366.67 644.93 400.92 657.93 437.49 657.66
  Q 482.24 657.34 519.21 633.62
  C 562.82 605.64 593.18 561.65 601.63 510.42
  Q 606.47 481.06 603.55 454.81
  Q 598.85 412.60 574.64 377.52
  Z
  M 317.07 373.59
  Q 307.80 373.11 289.24 372.90
  Q 275.00 372.75 268.35 383.43
  C 263.85 390.65 262.86 401.64 253.91 405.11
  C 249.36 406.88 243.60 406.96 238.99 407.94
  Q 230.14 409.83 223.44 416.94
  Q 214.23 426.72 209.60 440.80
  C 207.46 447.30 206.43 454.47 199.71 457.13
  Q 196.26 458.49 193.39 458.49
  A 0.65 0.64 -86.6 0 0 192.74 459.07
  L 189.68 491.19
  A 1.12 1.12 0.0 0 0 190.54 492.38
  Q 200.89 494.78 210.18 499.36
  Q 217.20 502.80 223.92 505.58
  C 237.83 511.33 253.22 506.95 264.91 498.15
  L 263.99 501.45
  A 1.39 1.36 42.4 0 0 264.04 502.32
  C 265.87 506.76 266.62 510.05 270.13 511.78
  Q 272.58 512.99 275.83 514.28
  Q 292.90 521.05 297.50 522.60
  Q 297.58 522.62 298.53 523.81
  A 0.26 0.26 0.0 0 0 298.99 523.70
  Q 299.32 522.19 299.31 522.01
  Q 298.73 514.81 298.42 501.87
  Q 298.27 495.86 298.61 492.64
  Q 299.27 486.48 299.17 483.41
  C 299.07 480.30 299.86 478.00 300.06 474.87
  Q 300.21 472.74 301.05 468.50
  Q 302.16 462.98 303.23 457.49
  Q 305.77 447.10 307.46 441.74
  Q 316.51 413.02 333.95 388.54
  C 335.20 386.79 337.45 384.56 338.86 382.09
  Q 346.75 372.30 349.65 369.15
  Q 356.64 361.59 369.51 350.96
  A 0.76 0.75 -35.3 0 0 369.68 350.01
  L 367.41 346.09
  A 0.96 0.95 79.5 0 0 366.72 345.61
  Q 353.03 343.39 339.63 344.10
  C 327.79 344.74 319.97 356.22 316.63 366.51
  Q 315.51 369.95 317.07 373.59
  Z
  M 590.48 552.52
  Q 575.11 586.71 547.78 612.50
  Q 530.01 629.28 509.77 640.22
  Q 469.72 661.87 423.72 658.13
  Q 409.77 656.99 395.89 652.88
  Q 370.01 645.22 350.41 628.37
  Q 341.70 620.87 332.65 609.99
  Q 324.97 600.75 318.60 588.73
  Q 307.15 567.16 302.41 543.16
  A 0.77 0.77 0.0 0 0 300.97 542.97
  L 300.59 543.72
  A 2.59 2.48 85.5 0 1 299.88 544.59
  Q 289.56 552.60 275.96 552.83
  Q 273.38 552.87 261.99 554.05
  C 257.72 554.49 253.90 556.02 250.41 557.68
  Q 242.56 561.40 239.17 569.40
  C 236.05 576.76 239.95 585.41 245.54 590.48
  Q 250.10 594.61 256.65 598.58
  Q 257.96 599.37 261.15 600.50
  Q 256.90 600.38 252.96 600.58
  Q 248.34 600.81 245.02 601.92
  C 238.04 604.26 232.39 605.99 224.80 604.15
  C 215.35 601.84 208.93 599.75 200.89 599.77
  A 0.41 0.41 0.0 0 0 200.50 600.29
  Q 209.13 631.62 223.66 660.76
  Q 242.09 695.58 268.29 724.23
  Q 272.32 728.64 278.83 734.60
  A 0.56 0.56 0.0 0 0 279.57 734.62
  Q 280.19 734.12 280.62 734.07
  C 288.82 733.22 291.48 733.12 297.97 732.02
  C 304.58 730.90 309.71 731.48 316.25 734.75
  A 10.27 10.10 -22.9 0 0 317.76 735.35
  Q 327.86 738.41 329.53 738.67
  Q 335.26 739.56 346.74 739.28
  C 353.62 739.11 360.64 736.42 367.78 736.57
  Q 378.84 736.79 389.25 742.27
  C 397.85 746.80 399.76 755.21 399.98 764.47
  C 400.28 776.63 405.15 785.42 417.01 787.77
  Q 423.28 789.02 432.54 790.16
  Q 435.92 790.58 441.31 794.11
  A 0.69 0.64 3.2 0 1 441.53 794.34
  L 444.74 799.90
  A 0.75 0.73 73.0 0 0 445.41 800.27
  Q 461.47 799.73 478.73 797.26
  C 521.72 791.12 563.07 772.86 598.38 746.92
  Q 605.14 741.96 612.69 735.69
  Q 615.33 733.31 618.68 730.50
  Q 621.97 727.73 624.56 725.21
  Q 638.10 712.02 647.20 702.45
  Q 648.06 701.55 648.82 700.45
  A 1.24 1.23 -56.6 0 0 648.47 698.72
  C 642.26 694.66 638.06 689.47 633.34 683.64
  C 628.48 677.66 623.89 675.51 616.64 674.33
  Q 605.91 672.58 597.48 672.34
  Q 584.15 671.96 571.44 672.31
  Q 565.88 671.00 560.97 669.34
  C 557.00 668.00 552.79 666.21 550.83 662.55
  C 545.21 652.06 551.37 638.57 560.27 632.66
  C 571.51 625.21 586.98 622.90 600.67 626.43
  Q 615.04 630.13 617.70 630.74
  Q 630.36 633.62 642.75 629.48
  C 649.17 627.32 653.14 623.81 656.16 617.63
  C 660.45 608.85 664.36 601.77 673.26 597.35
  C 677.35 595.31 681.68 593.38 685.91 592.19
  Q 697.98 588.81 714.38 585.44
  A 1.10 1.07 53.8 0 1 715.14 585.57
  Q 715.26 585.64 715.31 585.67
  A 0.71 0.70 -57.1 0 0 716.21 585.47
  Q 717.15 584.20 717.42 583.40
  Q 726.33 557.56 730.31 538.24
  Q 734.02 520.29 736.09 503.25
  Q 736.16 502.68 736.66 497.23
  C 737.35 489.85 737.57 482.79 738.00 473.00
  Q 738.15 469.58 737.89 468.19
  A 0.40 0.40 0.0 0 0 737.28 467.92
  L 735.78 468.87
  A 1.45 1.32 21.0 0 1 735.32 469.05
  Q 720.70 471.76 706.02 471.71
  Q 703.79 467.36 700.49 464.75
  C 686.72 453.86 665.15 450.25 648.17 451.22
  C 640.72 451.64 634.15 454.38 626.44 456.08
  C 619.88 457.53 612.37 460.81 606.20 461.46
  A 0.53 0.53 0.0 0 0 605.72 462.01
  Q 606.54 481.83 604.45 499.47
  Q 602.24 518.18 596.47 536.71
  Q 594.82 542.01 590.48 552.52
  Z"
/>
<path fill="#fe699e" d="
  M 332.38 285.43
  Q 341.92 274.44 345.03 264.01
  Q 347.87 254.46 351.17 247.40
  Q 353.15 243.16 355.18 241.17
  C 365.56 230.95 381.04 229.71 392.00 220.78
  C 396.20 217.36 398.82 213.41 398.85 207.69
  Q 398.91 199.34 392.70 192.61
  Q 393.46 191.87 394.69 191.39
  Q 429.12 177.81 465.53 174.87
  Q 472.92 174.28 479.77 174.42
  A 0.52 0.52 0.0 0 1 480.16 175.28
  C 478.25 177.51 478.92 183.34 479.89 185.83
  C 481.73 190.59 488.05 192.89 489.56 198.14
  C 492.26 207.55 479.57 211.83 472.93 213.18
  Q 469.65 213.84 464.02 213.97
  Q 450.36 214.30 442.87 215.20
  Q 439.81 215.56 434.48 217.53
  Q 429.49 219.38 429.10 224.90
  Q 428.66 231.24 432.26 234.26
  A 3.28 2.23 69.9 0 0 432.65 234.54
  Q 439.70 238.87 445.60 240.29
  C 450.41 241.44 453.23 242.87 458.57 244.24
  Q 462.80 245.33 466.17 248.53
  Q 474.80 256.70 472.64 268.46
  Q 472.50 269.23 470.84 272.47
  A 3.95 3.89 82.5 0 1 470.04 273.53
  C 464.11 279.14 461.10 281.98 453.51 282.76
  C 446.77 283.46 438.95 282.82 431.04 283.66
  A 4.20 3.88 27.8 0 0 429.88 283.97
  Q 418.00 289.20 416.05 290.58
  C 409.83 295.01 403.36 300.78 395.76 304.25
  C 388.18 307.71 377.81 307.61 370.01 305.97
  Q 368.10 305.57 358.80 302.30
  C 351.44 299.71 345.43 297.97 338.51 295.09
  A 3.94 2.29 -0.8 0 0 338.03 294.93
  L 328.51 292.23
  A 1.02 1.02 0.0 0 1 328.30 290.35
  C 330.12 289.36 332.65 287.90 332.38 285.43
  Z"
/>
<path fill="#f94e86" d="
  M 676.98 176.93
  Q 680.10 179.57 683.28 182.20
  Q 686.63 184.96 689.41 187.66
  Q 705.12 202.89 709.37 207.87
  Q 714.31 213.64 716.17 215.81
  Q 723.33 224.19 730.03 232.95
  Q 729.61 233.72 728.91 233.67
  A 0.60 0.59 -16.6 0 1 728.49 233.45
  Q 725.82 229.87 722.42 228.09
  C 708.94 221.02 692.84 217.46 677.60 219.53
  Q 674.93 219.89 672.30 220.05
  Q 663.44 211.32 653.72 203.84
  Q 652.28 201.94 650.22 200.89
  A 0.53 0.53 0.0 0 1 650.24 199.93
  C 655.64 197.47 660.04 192.67 663.98 188.34
  C 667.77 184.19 672.45 180.66 676.98 176.93
  Z"
/>
<path fill="#e83065" d="
  M 859.01 515.03
  Q 856.23 540.82 851.42 562.19
  C 845.43 588.85 836.34 617.29 825.05 642.82
  Q 796.86 706.57 749.12 758.38
  Q 738.99 769.38 724.62 782.11
  Q 680.33 821.32 624.13 843.64
  C 600.18 853.14 577.57 859.18 551.29 864.80
  A 0.17 0.17 0.0 0 1 551.08 864.67
  L 551.07 864.66
  A 0.18 0.18 0.0 0 1 551.18 864.45
  C 558.75 861.61 566.52 859.51 573.73 856.44
  Q 590.72 849.21 601.13 843.63
  Q 672.25 805.52 724.47 742.67
  Q 724.68 743.30 724.75 743.32
  A 1.05 1.04 -63.8 0 0 725.82 742.95
  Q 734.41 732.16 742.38 721.40
  Q 749.63 711.61 757.55 698.73
  Q 775.31 669.86 787.99 641.53
  Q 796.24 623.08 804.54 598.55
  Q 817.69 559.67 823.00 520.07
  Q 823.67 515.02 823.73 513.91
  C 823.87 510.83 824.54 508.42 824.75 505.72
  C 825.82 491.85 826.63 484.84 826.64 473.41
  Q 826.66 449.15 826.58 439.99
  Q 826.52 432.25 824.13 407.79
  Q 822.19 388.01 815.78 359.58
  Q 806.31 317.66 787.81 278.22
  Q 781.13 263.99 773.77 251.33
  Q 765.47 237.05 757.57 225.68
  Q 755.53 222.75 750.41 215.71
  Q 746.23 209.96 742.81 206.09
  Q 736.44 198.89 733.92 195.82
  Q 732.45 194.02 730.08 191.76
  Q 728.19 189.96 726.30 187.43
  A 0.16 0.16 0.0 0 1 726.44 187.18
  L 726.74 187.21
  A 0.28 0.26 -20.1 0 1 726.88 187.27
  L 728.82 189.21
  A 1.86 1.80 -10.0 0 0 729.40 189.60
  Q 731.07 190.29 732.88 192.18
  A 2.85 2.81 -9.2 0 0 733.71 192.77
  Q 735.71 193.70 737.21 195.43
  A 1.56 1.55 77.7 0 0 737.95 195.91
  Q 738.44 196.06 739.02 196.57
  Q 744.12 200.99 746.28 203.62
  A 0.85 0.84 75.8 0 0 746.76 203.91
  Q 747.44 204.05 748.37 204.88
  Q 762.62 217.58 768.42 224.08
  Q 777.94 234.74 778.60 235.20
  A 2.08 2.05 -83.8 0 1 779.33 236.12
  Q 779.79 237.30 782.14 239.60
  Q 782.89 240.33 784.98 242.94
  Q 798.53 259.90 809.71 278.17
  Q 813.59 284.51 815.92 289.02
  C 818.57 294.17 821.15 298.23 823.84 303.72
  Q 832.49 321.44 839.19 339.79
  Q 840.22 342.60 844.62 356.95
  Q 847.38 365.95 849.39 374.28
  Q 856.15 402.21 858.40 426.29
  Q 860.46 448.29 860.32 472.02
  Q 860.26 481.26 860.07 483.50
  Q 859.49 490.28 859.37 494.98
  Q 859.17 502.78 858.06 514.17
  Q 858.00 514.76 858.43 515.20
  Q 858.63 515.41 859.01 515.03
  Z"
/>
<path fill="#f94e86" d="
  M 392.70 192.61
  Q 398.91 199.34 398.85 207.69
  C 398.82 213.41 396.20 217.36 392.00 220.78
  C 381.04 229.71 365.56 230.95 355.18 241.17
  Q 353.15 243.16 351.17 247.40
  Q 347.87 254.46 345.03 264.01
  Q 341.92 274.44 332.38 285.43
  Q 327.30 290.04 320.38 291.62
  Q 309.90 294.00 304.06 296.08
  C 293.41 299.87 289.09 307.09 284.79 316.74
  Q 282.92 320.94 280.54 323.32
  C 270.01 333.80 253.46 332.30 241.09 326.52
  A 1.33 1.24 53.3 0 0 240.43 326.40
  L 240.09 326.42
  A 0.52 0.51 -76.7 0 1 239.61 325.64
  Q 248.66 310.52 258.24 297.49
  Q 266.55 286.18 281.23 269.98
  Q 295.32 254.42 315.54 237.80
  Q 349.76 209.67 390.82 192.89
  Q 391.98 192.42 392.70 192.61
  Z"
/>
<path fill="#fe699e" d="
  M 690.45 286.78
  Q 689.36 286.56 688.43 286.69
  A 0.92 0.90 12.5 0 0 687.82 287.07
  Q 680.58 297.32 674.36 306.39
  C 672.17 309.58 669.57 314.43 667.70 317.44
  Q 662.30 326.16 652.71 327.79
  Q 649.09 328.41 640.64 326.99
  C 625.96 324.51 608.83 320.96 599.39 335.37
  Q 597.74 337.87 595.47 344.61
  Q 593.88 349.33 590.20 355.45
  Q 588.82 357.75 586.14 359.62
  Q 581.44 362.89 576.16 364.36
  C 573.59 365.08 569.48 364.58 566.26 365.01
  Q 559.52 356.78 555.83 353.92
  Q 551.14 350.28 546.49 346.55
  Q 527.97 331.69 506.00 324.29
  Q 493.97 320.24 482.61 318.91
  A 5.93 5.83 -30.3 0 1 481.03 318.51
  Q 478.44 317.49 475.20 317.85
  A 0.30 0.29 86.6 0 1 474.87 317.55
  L 474.87 317.26
  A 0.16 0.15 0.0 0 1 475.03 317.11
  L 479.39 317.11
  A 1.94 1.93 -61.3 0 0 480.44 316.80
  Q 486.89 312.65 488.20 312.19
  Q 492.96 310.52 494.94 309.77
  C 502.51 306.93 511.28 306.44 519.20 307.35
  C 527.65 308.33 534.98 312.84 542.71 317.81
  Q 550.08 322.55 559.74 321.00
  C 567.77 319.72 571.14 312.71 571.94 305.43
  Q 572.49 300.39 572.90 299.11
  C 575.52 290.91 581.88 287.46 589.89 285.67
  Q 596.67 284.15 605.24 282.26
  Q 610.40 281.13 613.31 280.12
  C 618.44 278.36 622.71 276.99 626.61 273.09
  C 631.01 268.70 632.08 262.87 629.78 257.24
  Q 626.76 249.84 617.83 247.24
  Q 610.39 245.08 597.58 244.78
  Q 589.72 244.59 582.61 239.92
  Q 573.47 233.93 575.28 221.92
  Q 575.64 219.57 578.58 217.07
  C 584.42 212.09 593.27 209.74 599.76 207.25
  Q 601.60 206.55 603.59 206.37
  A 0.49 0.48 -2.0 0 0 604.03 205.90
  Q 604.04 205.54 604.07 205.51
  A 1.33 1.32 -51.5 0 1 605.59 205.33
  Q 619.44 212.99 631.87 222.67
  Q 640.24 229.17 646.33 234.68
  Q 650.79 238.71 664.09 252.64
  Q 665.14 253.74 668.29 257.44
  Q 671.04 260.67 672.45 262.29
  Q 678.09 268.74 686.03 280.54
  C 687.20 282.27 689.24 284.50 690.45 286.78
  Z"
/>
<path fill="#fe699e" d="
  M 730.03 232.95
  L 740.04 247.26
  Q 739.25 247.36 738.77 247.63
  A 0.92 0.91 -13.3 0 0 738.29 248.40
  C 737.94 255.64 736.24 263.48 730.48 268.16
  Q 728.83 269.51 723.30 271.77
  Q 719.45 273.34 716.04 275.32
  Q 697.56 245.27 672.30 220.05
  Q 674.93 219.89 677.60 219.53
  C 692.84 217.46 708.94 221.02 722.42 228.09
  Q 725.82 229.87 728.49 233.45
  A 0.60 0.59 -16.6 0 0 728.91 233.67
  Q 729.61 233.72 730.03 232.95
  Z"
/>
<path fill="#f94e86" d="
  M 740.04 247.26
  Q 750.44 263.46 756.07 274.15
  Q 772.51 305.38 783.67 344.02
  C 784.46 346.76 785.44 349.58 785.44 352.13
  A 0.79 0.78 14.3 0 1 784.27 352.82
  Q 782.68 351.95 780.67 351.39
  C 772.01 348.98 762.06 346.51 752.57 347.16
  Q 751.38 347.24 750.70 347.51
  A 0.93 0.93 0.0 0 1 749.48 346.93
  Q 736.99 308.83 716.04 275.32
  Q 719.45 273.34 723.30 271.77
  Q 728.83 269.51 730.48 268.16
  C 736.24 263.48 737.94 255.64 738.29 248.40
  A 0.92 0.91 -13.3 0 1 738.77 247.63
  Q 739.25 247.36 740.04 247.26
  Z"
/>
<path fill="#fe699e" d="
  M 248.26 265.30
  C 246.68 267.99 244.30 270.50 242.81 272.41
  Q 234.04 283.61 233.31 284.56
  Q 232.78 285.25 232.31 286.25
  A 2.82 2.68 79.6 0 1 231.84 286.97
  Q 229.64 289.39 228.08 292.35
  Q 228.58 287.69 229.25 283.12
  Q 230.11 277.29 231.80 274.25
  Q 236.71 265.44 248.26 265.30
  Z"
/>
<path fill="#f94e86" d="
  M 690.45 286.78
  Q 709.38 316.20 720.57 349.39
  Q 723.95 359.43 726.39 367.51
  A 0.92 0.91 -19.8 0 1 725.86 368.63
  Q 714.43 373.31 702.50 373.01
  C 697.01 372.88 694.23 371.42 688.70 369.08
  C 679.47 365.18 669.59 365.36 660.58 370.46
  C 649.89 376.52 657.02 388.36 654.42 398.22
  Q 651.76 408.36 641.53 412.50
  Q 635.92 414.78 631.05 415.52
  Q 622.25 416.85 614.62 417.98
  C 608.28 418.91 603.26 418.95 597.66 419.32
  A 0.72 0.72 0.0 0 1 596.96 418.89
  C 593.74 411.30 591.25 404.31 587.39 396.82
  Q 578.58 379.74 566.26 365.01
  C 569.48 364.58 573.59 365.08 576.16 364.36
  Q 581.44 362.89 586.14 359.62
  Q 588.82 357.75 590.20 355.45
  Q 593.88 349.33 595.47 344.61
  Q 597.74 337.87 599.39 335.37
  C 608.83 320.96 625.96 324.51 640.64 326.99
  Q 649.09 328.41 652.71 327.79
  Q 662.30 326.16 667.70 317.44
  C 669.57 314.43 672.17 309.58 674.36 306.39
  Q 680.58 297.32 687.82 287.07
  A 0.92 0.90 12.5 0 1 688.43 286.69
  Q 689.36 286.56 690.45 286.78
  Z"
/>
<path fill="#000000" d="
  M 574.64 377.52
  Q 598.85 412.60 603.55 454.81
  Q 606.47 481.06 601.63 510.42
  C 593.18 561.65 562.82 605.64 519.21 633.62
  Q 482.24 657.34 437.49 657.66
  C 400.92 657.93 366.67 644.93 341.31 618.22
  C 327.73 603.91 318.18 588.09 311.00 569.49
  C 301.40 544.63 299.23 518.00 300.02 491.51
  C 302.51 407.73 364.24 328.36 450.32 319.42
  Q 455.51 318.88 461.66 318.96
  C 467.01 319.04 471.59 318.82 476.76 319.35
  Q 495.51 321.28 511.43 327.51
  Q 550.74 342.90 574.64 377.52
  Z
  M 453.62 341.83
  Q 430.47 343.70 409.20 354.45
  Q 392.52 362.89 380.05 374.08
  Q 334.26 415.16 324.48 478.54
  Q 322.86 489.05 322.89 503.75
  Q 322.94 522.91 326.26 538.22
  C 335.90 582.70 365.44 621.85 411.51 632.25
  Q 431.54 636.77 452.54 634.16
  C 486.17 629.98 517.46 610.62 539.76 585.43
  C 568.87 552.53 582.94 508.99 579.83 465.29
  Q 576.45 417.89 547.28 381.53
  C 530.57 360.71 507.54 347.02 481.14 343.04
  C 471.20 341.54 462.33 341.13 453.62 341.83
  Z"
/>
<path fill="#ff80ac" d="
  M 453.62 341.83
  C 462.33 341.13 471.20 341.54 481.14 343.04
  C 507.54 347.02 530.57 360.71 547.28 381.53
  Q 576.45 417.89 579.83 465.29
  C 582.94 508.99 568.87 552.53 539.76 585.43
  C 517.46 610.62 486.17 629.98 452.54 634.16
  Q 431.54 636.77 411.51 632.25
  C 365.44 621.85 335.90 582.70 326.26 538.22
  Q 322.94 522.91 322.89 503.75
  Q 322.86 489.05 324.48 478.54
  Q 334.26 415.16 380.05 374.08
  Q 392.52 362.89 409.20 354.45
  Q 430.47 343.70 453.62 341.83
  Z
  M 324.37 492.70
  Q 323.45 501.09 324.09 509.46
  Q 324.56 515.51 324.70 523.02
  A 4.22 3.66 41.0 0 0 324.83 523.94
  Q 325.28 525.68 325.46 526.93
  Q 329.71 556.67 343.04 579.32
  Q 355.06 599.73 371.94 612.55
  Q 389.70 626.04 411.75 631.34
  Q 418.34 632.92 427.59 633.18
  Q 436.01 634.50 442.19 633.84
  C 447.75 633.24 453.10 633.07 458.23 631.99
  Q 469.17 629.71 471.08 629.10
  Q 501.10 619.53 525.08 598.56
  Q 544.84 581.53 557.89 558.62
  Q 566.08 544.25 571.02 528.46
  Q 585.11 484.66 574.96 440.52
  Q 572.70 430.70 568.03 419.03
  Q 556.30 389.24 533.30 368.44
  Q 515.96 352.76 491.65 346.28
  Q 480.43 343.76 469.68 342.95
  C 426.80 339.71 386.57 362.80 361.00 395.78
  Q 343.07 418.91 334.62 443.12
  Q 329.90 456.66 326.39 474.05
  C 325.88 476.58 326.03 478.80 325.50 481.13
  Q 325.07 483.05 324.91 486.42
  Q 324.75 489.62 324.37 492.70
  Z"
/>
<path fill="#fe699e" d="
  M 491.65 346.28
  Q 489.90 348.13 489.82 352.46
  Q 489.75 356.44 490.62 366.99
  C 491.69 380.02 479.62 384.94 468.85 380.91
  Q 460.73 377.88 455.02 375.22
  C 450.06 372.92 443.04 373.13 437.14 373.68
  Q 433.27 374.03 424.88 377.40
  Q 410.22 383.28 413.17 400.89
  C 410.76 400.89 408.30 400.88 405.98 401.36
  Q 385.92 405.51 372.46 421.18
  Q 358.39 437.55 355.42 459.02
  Q 350.95 491.36 367.93 519.35
  Q 375.34 531.57 389.01 546.27
  Q 373.46 548.95 367.96 549.71
  Q 364.40 550.20 359.62 550.16
  C 353.99 550.10 348.69 550.00 345.29 545.49
  Q 340.49 539.12 340.16 531.48
  C 339.77 522.30 347.48 510.96 340.98 503.00
  Q 334.78 495.41 324.37 492.70
  Q 324.75 489.62 324.91 486.42
  Q 325.07 483.05 325.50 481.13
  C 326.03 478.80 325.88 476.58 326.39 474.05
  Q 329.90 456.66 334.62 443.12
  Q 343.07 418.91 361.00 395.78
  C 386.57 362.80 426.80 339.71 469.68 342.95
  Q 480.43 343.76 491.65 346.28
  Z"
/>
<path fill="#fe699e" d="
  M 338.86 382.09
  Q 334.31 379.70 330.08 377.12
  Q 326.26 374.80 317.07 373.59
  Q 315.51 369.95 316.63 366.51
  C 319.97 356.22 327.79 344.74 339.63 344.10
  Q 353.03 343.39 366.72 345.61
  A 0.96 0.95 79.5 0 1 367.41 346.09
  L 369.68 350.01
  A 0.76 0.75 -35.3 0 1 369.51 350.96
  Q 356.64 361.59 349.65 369.15
  Q 346.75 372.30 338.86 382.09
  Z"
/>
<path fill="#f94e86" d="
  M 491.65 346.28
  Q 515.96 352.76 533.30 368.44
  Q 556.30 389.24 568.03 419.03
  L 544.17 429.30
  C 534.11 411.91 517.11 400.46 497.01 401.39
  Q 485.28 401.93 474.37 407.33
  Q 466.57 411.20 458.07 417.05
  Q 456.15 418.37 454.65 416.60
  C 447.57 408.21 435.55 403.03 425.01 401.24
  Q 422.30 400.78 413.17 400.89
  Q 410.22 383.28 424.88 377.40
  Q 433.27 374.03 437.14 373.68
  C 443.04 373.13 450.06 372.92 455.02 375.22
  Q 460.73 377.88 468.85 380.91
  C 479.62 384.94 491.69 380.02 490.62 366.99
  Q 489.75 356.44 489.82 352.46
  Q 489.90 348.13 491.65 346.28
  Z"
/>
<path fill="#f94e86" d="
  M 317.07 373.59
  Q 326.26 374.80 330.08 377.12
  Q 334.31 379.70 338.86 382.09
  C 337.45 384.56 335.20 386.79 333.95 388.54
  Q 316.51 413.02 307.46 441.74
  Q 305.77 447.10 303.23 457.49
  Q 302.41 457.46 302.22 456.98
  Q 301.83 455.97 300.81 456.09
  Q 286.97 457.72 275.68 460.63
  Q 269.25 462.28 267.38 467.60
  Q 265.66 472.49 266.02 475.25
  Q 266.91 481.94 267.28 488.50
  Q 267.58 493.94 264.91 498.15
  C 253.22 506.95 237.83 511.33 223.92 505.58
  Q 217.20 502.80 210.18 499.36
  Q 200.89 494.78 190.54 492.38
  A 1.12 1.12 0.0 0 1 189.68 491.19
  L 192.74 459.07
  A 0.65 0.64 -86.6 0 1 193.39 458.49
  Q 196.26 458.49 199.71 457.13
  C 206.43 454.47 207.46 447.30 209.60 440.80
  Q 214.23 426.72 223.44 416.94
  Q 230.14 409.83 238.99 407.94
  C 243.60 406.96 249.36 406.88 253.91 405.11
  C 262.86 401.64 263.85 390.65 268.35 383.43
  Q 275.00 372.75 289.24 372.90
  Q 307.80 373.11 317.07 373.59
  Z"
/>
<path fill="#ff80ac" d="
  M 544.17 429.30
  Q 550.05 439.64 552.41 451.25
  C 553.01 454.21 552.84 457.22 553.53 460.25
  A 5.95 5.94 -52.1 0 1 553.65 461.22
  Q 554.23 486.59 540.99 508.01
  Q 539.82 509.90 538.89 511.75
  Q 527.58 527.98 512.84 541.10
  Q 500.21 552.34 485.79 562.51
  Q 470.15 573.55 452.97 583.45
  Q 446.63 587.10 441.37 587.11
  A 0.49 0.25 36.1 0 1 441.24 587.09
  L 437.20 586.16
  A 8.55 8.29 -23.4 0 1 435.06 585.35
  Q 430.79 583.02 426.85 580.14
  Q 414.07 570.81 402.76 559.99
  Q 399.00 556.40 389.01 546.27
  Q 375.34 531.57 367.93 519.35
  Q 350.95 491.36 355.42 459.02
  Q 358.39 437.55 372.46 421.18
  Q 385.92 405.51 405.98 401.36
  C 408.30 400.88 410.76 400.89 413.17 400.89
  Q 422.30 400.78 425.01 401.24
  C 435.55 403.03 447.57 408.21 454.65 416.60
  Q 456.15 418.37 458.07 417.05
  Q 466.57 411.20 474.37 407.33
  Q 485.28 401.93 497.01 401.39
  C 517.11 400.46 534.11 411.91 544.17 429.30
  Z
  M 455.96 419.20
  C 452.05 415.51 449.94 413.12 446.47 410.85
  Q 437.96 405.28 430.10 403.49
  Q 413.91 399.78 398.56 404.69
  C 378.49 411.11 363.52 430.09 358.38 450.41
  Q 355.80 460.62 355.87 472.77
  Q 356.04 501.47 372.91 524.61
  Q 396.99 557.64 430.76 581.52
  C 437.46 586.26 443.18 587.83 450.47 583.72
  Q 480.29 566.92 504.09 547.34
  C 524.21 530.78 541.21 511.88 549.26 486.75
  Q 552.59 476.36 552.21 462.76
  Q 551.48 436.56 534.52 418.28
  C 522.04 404.83 506.45 400.61 488.89 403.63
  C 477.85 405.53 466.33 412.34 456.99 419.26
  A 0.80 0.80 0.0 0 1 455.96 419.20
  Z"
/>
<path fill="#000000" d="
  M 455.96 419.20
  A 0.80 0.80 0.0 0 0 456.99 419.26
  C 466.33 412.34 477.85 405.53 488.89 403.63
  C 506.45 400.61 522.04 404.83 534.52 418.28
  Q 551.48 436.56 552.21 462.76
  Q 552.59 476.36 549.26 486.75
  C 541.21 511.88 524.21 530.78 504.09 547.34
  Q 480.29 566.92 450.47 583.72
  C 443.18 587.83 437.46 586.26 430.76 581.52
  Q 396.99 557.64 372.91 524.61
  Q 356.04 501.47 355.87 472.77
  Q 355.80 460.62 358.38 450.41
  C 363.52 430.09 378.49 411.11 398.56 404.69
  Q 413.91 399.78 430.10 403.49
  Q 437.96 405.28 446.47 410.85
  C 449.94 413.12 452.05 415.51 455.96 419.20
  Z
  M 394.91 430.47
  Q 394.21 430.18 394.04 430.95
  Q 394.03 430.97 393.13 431.66
  Q 389.58 434.37 386.76 439.24
  Q 385.69 441.09 385.30 441.54
  Q 384.60 442.36 384.47 443.04
  Q 384.22 444.30 383.38 445.48
  A 2.19 0.84 -54.0 0 0 383.23 445.74
  Q 379.40 453.44 378.41 462.28
  C 377.42 471.06 377.39 481.03 379.88 488.94
  Q 384.44 503.39 393.59 515.76
  Q 407.78 534.94 425.48 550.28
  C 433.05 556.84 437.47 561.05 441.64 563.45
  A 2.06 2.06 0.0 0 0 443.68 563.45
  Q 468.43 549.27 490.78 530.27
  C 501.19 521.42 511.80 510.45 519.41 498.79
  Q 526.01 488.68 528.34 479.04
  C 531.02 467.92 530.89 455.54 526.77 444.91
  Q 520.13 427.75 502.63 423.89
  Q 497.45 422.75 491.82 423.94
  C 483.56 425.69 478.89 429.06 472.04 435.44
  Q 466.66 440.45 462.98 443.73
  C 453.37 452.34 447.40 443.25 442.23 436.33
  Q 440.20 433.63 438.16 432.09
  Q 437.27 431.43 433.51 428.43
  A 0.58 0.55 54.0 0 0 432.97 428.33
  Q 432.54 428.48 432.35 428.10
  Q 432.17 427.71 431.64 427.40
  Q 418.50 419.60 403.74 425.00
  Q 398.90 426.76 395.55 430.33
  A 0.59 0.57 -56.3 0 1 394.91 430.47
  Z"
/>
<path fill="#fe699e" d="
  M 571.02 528.46
  C 558.39 525.87 547.34 522.12 538.89 511.75
  Q 539.82 509.90 540.99 508.01
  Q 554.23 486.59 553.65 461.22
  A 5.95 5.94 -52.1 0 0 553.53 460.25
  C 552.84 457.22 553.01 454.21 552.41 451.25
  Q 550.05 439.64 544.17 429.30
  L 568.03 419.03
  Q 572.70 430.70 574.96 440.52
  Q 585.11 484.66 571.02 528.46
  Z"
/>
<path fill="#fe699e" d="
  M 162.72 513.05
  Q 162.83 553.91 170.92 591.36
  Q 181.61 640.83 205.83 684.94
  C 221.34 713.18 242.52 738.94 266.57 760.93
  Q 289.86 782.22 321.04 798.64
  Q 320.54 799.39 321.03 799.70
  Q 319.65 799.17 318.30 798.45
  Q 295.16 785.92 276.45 770.59
  C 270.67 765.86 266.84 763.13 262.30 758.66
  Q 255.03 751.50 246.00 742.25
  C 243.98 740.18 242.79 738.14 241.05 736.41
  Q 239.60 734.97 237.15 732.02
  Q 225.14 717.55 216.76 705.25
  A 0.38 0.38 0.0 0 0 216.10 705.60
  Q 216.46 706.51 215.70 706.71
  Q 204.25 709.78 196.01 718.23
  Q 182.31 696.55 172.29 674.21
  Q 170.36 669.91 169.53 668.34
  C 177.26 665.24 186.34 666.03 194.54 666.94
  A 0.66 0.65 -10.2 0 0 195.20 666.00
  Q 189.68 655.12 185.00 642.73
  Q 174.11 613.93 168.64 585.47
  Q 166.41 573.82 164.72 562.54
  Q 164.16 558.80 164.09 556.88
  Q 163.99 554.65 163.25 551.05
  A 0.53 0.48 42.1 0 1 163.24 550.95
  L 163.02 546.22
  A 0.41 0.40 71.7 0 0 162.39 545.90
  Q 161.46 546.54 157.37 547.10
  Q 149.11 548.21 141.66 548.20
  A 0.97 0.95 -15.6 0 1 140.84 547.75
  L 139.93 546.31
  C 138.57 539.06 138.97 530.38 138.58 524.56
  Q 138.18 518.46 138.29 513.25
  Q 138.76 492.14 140.10 475.76
  Q 140.32 473.10 140.36 472.75
  Q 142.76 450.44 146.66 429.23
  A 0.55 0.54 29.6 0 1 147.65 428.96
  L 147.87 429.08
  A 1.73 1.61 63.1 0 0 148.33 429.25
  L 167.68 433.40
  A 0.83 0.83 0.0 0 1 168.32 434.34
  Q 166.18 448.15 165.52 451.99
  Q 164.33 458.85 163.55 467.57
  Q 162.32 481.17 162.23 483.25
  Q 161.39 503.09 161.63 521.89
  A 0.02 0.02 0.0 0 0 161.67 521.89
  L 162.72 513.05
  Z"
/>
<path fill="#fe699e" d="
  M 789.90 543.14
  Q 776.47 542.72 762.77 545.30
  A 8.05 7.95 -47.2 0 1 760.52 545.40
  L 758.06 545.15
  Q 762.63 523.48 765.17 501.22
  C 765.87 495.15 765.92 488.64 766.57 482.12
  Q 766.88 479.00 766.85 474.46
  Q 766.75 458.98 766.87 439.00
  A 0.35 0.35 0.0 0 1 767.47 438.76
  Q 767.82 439.12 767.92 439.80
  A 0.46 0.46 0.0 0 0 768.54 440.16
  C 778.13 436.48 787.65 438.35 797.27 440.59
  A 1.23 1.22 6.2 0 1 798.21 441.75
  C 798.50 456.26 798.49 472.23 797.26 487.80
  Q 796.02 503.49 794.88 512.99
  Q 793.10 527.81 789.90 543.14
  Z"
/>
<path fill="#f94e86" d="
  M 799.50 442.23
  Q 799.21 441.56 799.37 440.53
  L 799.50 442.23
  Z"
/>
<path fill="#fe699e" d="
  M 706.02 471.71
  Q 696.49 473.55 690.47 480.47
  Q 684.80 486.98 685.07 497.06
  C 685.21 502.16 688.10 506.54 688.78 511.18
  C 689.20 514.09 689.94 516.38 689.38 519.20
  C 686.95 531.43 674.00 533.12 663.76 535.54
  Q 653.14 538.04 644.05 544.82
  Q 642.25 546.16 633.77 552.76
  C 625.58 559.12 614.95 560.43 604.84 557.89
  Q 596.39 555.77 590.48 552.52
  Q 594.82 542.01 596.47 536.71
  Q 602.24 518.18 604.45 499.47
  Q 606.54 481.83 605.72 462.01
  A 0.53 0.53 0.0 0 1 606.20 461.46
  C 612.37 460.81 619.88 457.53 626.44 456.08
  C 634.15 454.38 640.72 451.64 648.17 451.22
  C 665.15 450.25 686.72 453.86 700.49 464.75
  Q 703.79 467.36 706.02 471.71
  Z"
/>
<path fill="#fe699e" d="
  M 303.23 457.49
  Q 302.16 462.98 301.05 468.50
  Q 300.21 472.74 300.06 474.87
  C 299.86 478.00 299.07 480.30 299.17 483.41
  Q 299.27 486.48 298.61 492.64
  Q 298.27 495.86 298.42 501.87
  Q 298.73 514.81 299.31 522.01
  Q 299.32 522.19 298.99 523.70
  A 0.26 0.26 0.0 0 1 298.53 523.81
  Q 297.58 522.62 297.50 522.60
  Q 292.90 521.05 275.83 514.28
  Q 272.58 512.99 270.13 511.78
  C 266.62 510.05 265.87 506.76 264.04 502.32
  A 1.39 1.36 42.4 0 1 263.99 501.45
  L 264.91 498.15
  Q 267.58 493.94 267.28 488.50
  Q 266.91 481.94 266.02 475.25
  Q 265.66 472.49 267.38 467.60
  Q 269.25 462.28 275.68 460.63
  Q 286.97 457.72 300.81 456.09
  Q 301.83 455.97 302.22 456.98
  Q 302.41 457.46 303.23 457.49
  Z"
/>
<path fill="#f94e86" d="
  M 571.44 672.31
  Q 571.36 678.13 566.24 682.51
  C 556.33 690.99 545.27 693.06 532.93 689.97
  C 519.68 686.64 506.18 688.73 496.38 698.64
  C 486.34 708.78 473.14 708.01 461.29 709.56
  C 452.02 710.78 442.62 712.39 437.80 720.50
  C 432.16 729.98 435.40 739.67 445.49 743.78
  Q 452.70 746.72 463.70 748.58
  C 468.96 749.47 472.76 750.79 476.44 753.36
  C 480.97 756.52 482.43 761.51 484.29 766.69
  A 0.49 0.48 66.5 0 0 484.96 766.96
  Q 486.05 766.42 486.99 766.44
  Q 502.78 766.70 516.61 759.36
  C 521.84 756.58 524.10 753.49 527.49 748.21
  A 15.48 15.37 69.2 0 0 529.37 743.98
  Q 529.69 742.80 531.47 734.19
  C 533.32 725.27 539.81 721.22 548.78 720.26
  Q 560.88 718.95 570.32 723.17
  Q 591.84 732.79 612.69 735.69
  Q 605.14 741.96 598.38 746.92
  C 563.07 772.86 521.72 791.12 478.73 797.26
  Q 461.47 799.73 445.41 800.27
  A 0.75 0.73 73.0 0 1 444.74 799.90
  L 441.53 794.34
  A 0.69 0.64 3.2 0 0 441.31 794.11
  Q 435.92 790.58 432.54 790.16
  Q 423.28 789.02 417.01 787.77
  C 405.15 785.42 400.28 776.63 399.98 764.47
  C 399.76 755.21 397.85 746.80 389.25 742.27
  Q 378.84 736.79 367.78 736.57
  C 360.64 736.42 353.62 739.11 346.74 739.28
  Q 335.26 739.56 329.53 738.67
  Q 327.86 738.41 317.76 735.35
  A 10.27 10.10 -22.9 0 1 316.25 734.75
  C 309.71 731.48 304.58 730.90 297.97 732.02
  C 291.48 733.12 288.82 733.22 280.62 734.07
  Q 280.19 734.12 279.57 734.62
  A 0.56 0.56 0.0 0 1 278.83 734.60
  Q 272.32 728.64 268.29 724.23
  Q 242.09 695.58 223.66 660.76
  Q 235.41 659.90 246.54 663.01
  C 252.92 664.79 256.57 668.40 261.26 673.66
  C 269.30 682.67 280.26 687.84 292.21 688.21
  Q 294.37 688.27 299.42 688.55
  C 309.16 689.09 316.64 687.31 325.14 688.20
  Q 331.57 688.87 336.67 690.35
  C 346.13 693.11 351.41 694.88 360.33 694.22
  A 2.95 2.77 26.9 0 0 361.43 693.90
  Q 367.27 690.79 371.76 685.15
  C 376.47 679.23 373.50 670.04 368.57 665.19
  Q 361.61 658.36 350.48 658.05
  Q 347.45 657.97 338.91 657.82
  Q 334.66 657.75 326.45 654.76
  Q 321.79 653.07 319.32 649.17
  Q 315.71 643.48 313.12 634.93
  C 312.23 631.99 312.10 628.14 310.64 625.39
  C 305.97 616.60 297.39 611.10 288.18 607.54
  Q 278.84 603.92 271.02 602.22
  Q 268.27 601.62 261.15 600.50
  Q 257.96 599.37 256.65 598.58
  Q 250.10 594.61 245.54 590.48
  C 239.95 585.41 236.05 576.76 239.17 569.40
  Q 242.56 561.40 250.41 557.68
  C 253.90 556.02 257.72 554.49 261.99 554.05
  Q 273.38 552.87 275.96 552.83
  Q 289.56 552.60 299.88 544.59
  A 2.59 2.48 85.5 0 0 300.59 543.72
  L 300.97 542.97
  A 0.77 0.77 0.0 0 1 302.41 543.16
  Q 307.15 567.16 318.60 588.73
  Q 324.97 600.75 332.65 609.99
  Q 341.70 620.87 350.41 628.37
  Q 370.01 645.22 395.89 652.88
  Q 409.77 656.99 423.72 658.13
  Q 469.72 661.87 509.77 640.22
  Q 530.01 629.28 547.78 612.50
  Q 575.11 586.71 590.48 552.52
  Q 596.39 555.77 604.84 557.89
  C 614.95 560.43 625.58 559.12 633.77 552.76
  Q 642.25 546.16 644.05 544.82
  Q 653.14 538.04 663.76 535.54
  C 674.00 533.12 686.95 531.43 689.38 519.20
  C 689.94 516.38 689.20 514.09 688.78 511.18
  C 688.10 506.54 685.21 502.16 685.07 497.06
  Q 684.80 486.98 690.47 480.47
  Q 696.49 473.55 706.02 471.71
  Q 720.70 471.76 735.32 469.05
  A 1.45 1.32 21.0 0 0 735.78 468.87
  L 737.28 467.92
  A 0.40 0.40 0.0 0 1 737.89 468.19
  Q 738.15 469.58 738.00 473.00
  C 737.57 482.79 737.35 489.85 736.66 497.23
  Q 736.16 502.68 736.09 503.25
  Q 734.02 520.29 730.31 538.24
  Q 726.33 557.56 717.42 583.40
  Q 717.15 584.20 716.21 585.47
  A 0.71 0.70 -57.1 0 1 715.31 585.67
  Q 715.26 585.64 715.14 585.57
  A 1.10 1.07 53.8 0 0 714.38 585.44
  Q 697.98 588.81 685.91 592.19
  C 681.68 593.38 677.35 595.31 673.26 597.35
  C 664.36 601.77 660.45 608.85 656.16 617.63
  C 653.14 623.81 649.17 627.32 642.75 629.48
  Q 630.36 633.62 617.70 630.74
  Q 615.04 630.13 600.67 626.43
  C 586.98 622.90 571.51 625.21 560.27 632.66
  C 551.37 638.57 545.21 652.06 550.83 662.55
  C 552.79 666.21 557.00 668.00 560.97 669.34
  Q 565.88 671.00 571.44 672.31
  Z"
/>
<path fill="#f94e86" d="
  M 389.01 546.27
  Q 399.00 556.40 402.76 559.99
  Q 414.07 570.81 426.85 580.14
  Q 430.79 583.02 435.06 585.35
  A 8.55 8.29 -23.4 0 0 437.20 586.16
  L 441.24 587.09
  A 0.49 0.25 36.1 0 0 441.37 587.11
  Q 446.63 587.10 452.97 583.45
  Q 470.15 573.55 485.79 562.51
  Q 500.21 552.34 512.84 541.10
  Q 527.58 527.98 538.89 511.75
  C 547.34 522.12 558.39 525.87 571.02 528.46
  Q 566.08 544.25 557.89 558.62
  Q 544.84 581.53 525.08 598.56
  C 515.55 589.37 502.00 588.66 490.27 593.55
  C 483.99 596.18 476.49 599.58 469.76 598.77
  C 464.09 598.08 459.28 597.04 453.97 595.19
  C 442.05 591.05 429.88 593.58 420.98 602.18
  Q 417.77 605.28 416.54 609.67
  Q 415.47 613.48 417.05 618.25
  Q 419.87 626.76 427.59 633.18
  Q 418.34 632.92 411.75 631.34
  Q 389.70 626.04 371.94 612.55
  Q 355.06 599.73 343.04 579.32
  Q 329.71 556.67 325.46 526.93
  Q 325.28 525.68 324.83 523.94
  A 4.22 3.66 41.0 0 1 324.70 523.02
  Q 324.56 515.51 324.09 509.46
  Q 323.45 501.09 324.37 492.70
  Q 334.78 495.41 340.98 503.00
  C 347.48 510.96 339.77 522.30 340.16 531.48
  Q 340.49 539.12 345.29 545.49
  C 348.69 550.00 353.99 550.10 359.62 550.16
  Q 364.40 550.20 367.96 549.71
  Q 373.46 548.95 389.01 546.27
  Z"
/>
<path fill="#f94e86" d="
  M 789.90 543.14
  Q 787.25 554.78 785.19 564.44
  Q 783.71 571.38 775.41 595.56
  Q 769.05 593.43 763.03 592.51
  Q 759.93 592.04 749.52 588.12
  Q 748.70 587.81 747.42 587.79
  Q 745.65 587.75 745.87 586.77
  C 747.16 583.31 748.43 580.08 749.50 576.34
  Q 750.69 572.14 753.39 563.44
  Q 754.79 558.93 758.06 545.15
  L 760.52 545.40
  A 8.05 7.95 -47.2 0 0 762.77 545.30
  Q 776.47 542.72 789.90 543.14
  Z"
/>
<path fill="#f94e86" d="
  M 169.53 668.34
  Q 145.57 612.35 139.84 551.55
  C 139.68 549.84 139.91 548.09 139.93 546.31
  L 140.84 547.75
  A 0.97 0.95 -15.6 0 0 141.66 548.20
  Q 149.11 548.21 157.37 547.10
  Q 161.46 546.54 162.39 545.90
  A 0.41 0.40 71.7 0 1 163.02 546.22
  L 163.24 550.95
  A 0.53 0.48 42.1 0 0 163.25 551.05
  Q 163.99 554.65 164.09 556.88
  Q 164.16 558.80 164.72 562.54
  Q 166.41 573.82 168.64 585.47
  Q 174.11 613.93 185.00 642.73
  Q 189.68 655.12 195.20 666.00
  A 0.66 0.65 -10.2 0 1 194.54 666.94
  C 186.34 666.03 177.26 665.24 169.53 668.34
  Z"
/>
<path fill="#fe699e" d="
  M 745.87 586.77
  Q 745.65 587.75 747.42 587.79
  Q 748.70 587.81 749.52 588.12
  Q 759.93 592.04 763.03 592.51
  Q 769.05 593.43 775.41 595.56
  Q 774.38 598.43 773.34 601.33
  Q 762.09 632.82 745.52 663.84
  Q 743.49 667.64 740.93 671.75
  C 738.86 675.07 737.28 678.35 734.84 682.29
  Q 719.84 706.54 701.92 728.59
  Q 699.86 731.13 698.79 732.13
  C 697.01 733.82 696.32 735.52 694.80 737.01
  C 691.87 739.91 688.86 743.89 685.24 747.51
  C 675.64 757.12 670.21 763.08 661.88 770.12
  C 658.24 773.21 652.61 778.24 648.95 781.19
  Q 616.14 807.69 577.13 826.35
  Q 562.09 833.54 547.76 838.59
  C 527.39 845.78 510.08 850.84 491.19 853.55
  Q 484.24 854.55 479.50 855.29
  C 475.18 855.97 471.15 855.85 467.03 856.83
  A 0.64 0.54 31.3 0 1 466.84 856.86
  L 455.97 857.40
  Q 455.66 856.72 455.37 856.66
  Q 445.43 854.57 436.19 848.31
  C 431.70 845.27 430.18 843.18 429.61 837.34
  Q 429.26 833.81 428.73 830.31
  A 0.94 0.94 0.0 0 1 428.88 829.63
  Q 429.54 828.63 431.00 828.03
  C 440.78 827.99 450.72 828.23 460.48 827.38
  C 477.86 825.85 495.25 822.92 513.41 818.39
  C 549.24 809.45 583.62 791.84 613.76 769.76
  C 622.96 763.02 633.43 754.87 642.50 746.41
  Q 665.14 725.27 680.19 706.68
  Q 723.20 653.56 745.87 586.77
  Z"
/>
<path fill="#fe699e" d="
  M 525.08 598.56
  Q 501.10 619.53 471.08 629.10
  Q 469.17 629.71 458.23 631.99
  C 453.10 633.07 447.75 633.24 442.19 633.84
  Q 436.01 634.50 427.59 633.18
  Q 419.87 626.76 417.05 618.25
  Q 415.47 613.48 416.54 609.67
  Q 417.77 605.28 420.98 602.18
  C 429.88 593.58 442.05 591.05 453.97 595.19
  C 459.28 597.04 464.09 598.08 469.76 598.77
  C 476.49 599.58 483.99 596.18 490.27 593.55
  C 502.00 588.66 515.55 589.37 525.08 598.56
  Z"
/>
<path fill="#fe699e" d="
  M 261.15 600.50
  Q 268.27 601.62 271.02 602.22
  Q 278.84 603.92 288.18 607.54
  C 297.39 611.10 305.97 616.60 310.64 625.39
  C 312.10 628.14 312.23 631.99 313.12 634.93
  Q 315.71 643.48 319.32 649.17
  Q 321.79 653.07 326.45 654.76
  Q 334.66 657.75 338.91 657.82
  Q 347.45 657.97 350.48 658.05
  Q 361.61 658.36 368.57 665.19
  C 373.50 670.04 376.47 679.23 371.76 685.15
  Q 367.27 690.79 361.43 693.90
  A 2.95 2.77 26.9 0 1 360.33 694.22
  C 351.41 694.88 346.13 693.11 336.67 690.35
  Q 331.57 688.87 325.14 688.20
  C 316.64 687.31 309.16 689.09 299.42 688.55
  Q 294.37 688.27 292.21 688.21
  C 280.26 687.84 269.30 682.67 261.26 673.66
  C 256.57 668.40 252.92 664.79 246.54 663.01
  Q 235.41 659.90 223.66 660.76
  Q 209.13 631.62 200.50 600.29
  A 0.41 0.41 0.0 0 1 200.89 599.77
  C 208.93 599.75 215.35 601.84 224.80 604.15
  C 232.39 605.99 238.04 604.26 245.02 601.92
  Q 248.34 600.81 252.96 600.58
  Q 256.90 600.38 261.15 600.50
  Z"
/>
<path fill="#fe699e" d="
  M 612.69 735.69
  Q 591.84 732.79 570.32 723.17
  Q 560.88 718.95 548.78 720.26
  C 539.81 721.22 533.32 725.27 531.47 734.19
  Q 529.69 742.80 529.37 743.98
  A 15.48 15.37 69.2 0 1 527.49 748.21
  C 524.10 753.49 521.84 756.58 516.61 759.36
  Q 502.78 766.70 486.99 766.44
  Q 486.05 766.42 484.96 766.96
  A 0.49 0.48 66.5 0 1 484.29 766.69
  C 482.43 761.51 480.97 756.52 476.44 753.36
  C 472.76 750.79 468.96 749.47 463.70 748.58
  Q 452.70 746.72 445.49 743.78
  C 435.40 739.67 432.16 729.98 437.80 720.50
  C 442.62 712.39 452.02 710.78 461.29 709.56
  C 473.14 708.01 486.34 708.78 496.38 698.64
  C 506.18 688.73 519.68 686.64 532.93 689.97
  C 545.27 693.06 556.33 690.99 566.24 682.51
  Q 571.36 678.13 571.44 672.31
  Q 584.15 671.96 597.48 672.34
  Q 605.91 672.58 616.64 674.33
  C 623.89 675.51 628.48 677.66 633.34 683.64
  C 638.06 689.47 642.26 694.66 648.47 698.72
  A 1.24 1.23 -56.6 0 1 648.82 700.45
  Q 648.06 701.55 647.20 702.45
  Q 638.10 712.02 624.56 725.21
  Q 621.97 727.73 618.68 730.50
  Q 615.33 733.31 612.69 735.69
  Z"
/>
<path fill="#e83065" d="
  M 321.03 799.70
  Q 321.52 799.82 322.52 800.61
  Q 317.99 802.87 316.11 805.40
  Q 308.48 815.67 316.02 826.30
  A 0.61 0.61 0.0 0 1 315.53 827.26
  Q 315.06 827.26 314.38 827.57
  Q 309.93 824.19 305.28 823.44
  Q 300.41 821.09 295.16 817.87
  Q 233.93 780.30 195.54 719.22
  Q 195.83 718.92 196.01 718.23
  Q 204.25 709.78 215.70 706.71
  Q 216.46 706.51 216.10 705.60
  A 0.38 0.38 0.0 0 1 216.76 705.25
  Q 225.14 717.55 237.15 732.02
  Q 239.60 734.97 241.05 736.41
  C 242.79 738.14 243.98 740.18 246.00 742.25
  Q 255.03 751.50 262.30 758.66
  C 266.84 763.13 270.67 765.86 276.45 770.59
  Q 295.16 785.92 318.30 798.45
  Q 319.65 799.17 321.03 799.70
  Z"
/>
<path fill="#f94e86" d="
  M 431.00 828.03
  Q 429.54 828.63 428.88 829.63
  A 0.94 0.94 0.0 0 0 428.73 830.31
  Q 429.26 833.81 429.61 837.34
  C 430.18 843.18 431.70 845.27 436.19 848.31
  Q 445.43 854.57 455.37 856.66
  Q 455.66 856.72 455.97 857.40
  Q 450.63 857.61 445.30 857.76
  C 438.32 857.96 431.22 857.18 424.11 857.15
  A 4.60 4.20 -36.3 0 1 423.17 857.05
  C 419.07 856.09 414.23 856.20 410.67 855.71
  C 385.30 852.22 362.64 847.50 341.59 839.13
  Q 330.22 834.62 317.45 829.08
  A 1.81 1.69 73.5 0 1 317.11 828.88
  Q 315.84 827.95 314.38 827.57
  Q 315.06 827.26 315.53 827.26
  A 0.61 0.61 0.0 0 0 316.02 826.30
  Q 308.48 815.67 316.11 805.40
  Q 317.99 802.87 322.52 800.61
  Q 327.12 802.62 331.96 804.87
  Q 338.12 807.75 341.41 809.07
  Q 370.31 820.64 401.08 825.20
  C 410.28 826.56 421.01 827.24 431.00 828.03
  Z"
/>
</svg>
