<?xml version="1.0" encoding="UTF-8" standalone="no"?>
<!DOCTYPE svg PUBLIC "-//W3C//DTD SVG 1.1//EN" "http://www.w3.org/Graphics/SVG/1.1/DTD/svg11.dtd">
<svg xmlns="http://www.w3.org/2000/svg" version="1.1" viewBox="0.00 0.00 1024.00 1024.00">
<g stroke-width="2.00" fill="none" stroke-linecap="butt">
<path stroke="#7f601e" vector-effect="non-scaling-stroke" d="
  M 655.82 813.53
  Q 631.37 817.89 606.91 809.57
  Q 604.95 808.90 602.66 807.60
  A 0.87 0.86 -45.3 0 0 601.80 807.61
  C 560.53 832.31 513.20 846.64 465.01 847.43
  Q 451.87 847.65 440.53 846.90
  Q 372.58 842.47 313.50 808.52
  Q 269.18 783.05 235.67 745.10
  Q 198.40 702.89 176.82 649.72
  Q 147.00 576.23 149.16 494.74
  Q 149.78 471.46 153.44 446.48
  C 168.49 343.91 222.43 250.31 306.78 189.77
  C 353.36 156.34 410.57 134.10 468.26 131.08
  Q 489.92 129.94 509.25 131.15
  C 541.49 133.16 573.85 140.72 603.57 154.09
  C 652.36 176.05 694.35 209.88 725.86 252.50
  C 759.05 297.38 779.84 350.52 788.93 406.06
  C 793.92 436.49 795.08 467.12 793.32 497.81
  Q 791.61 527.71 785.98 554.39
  Q 773.50 613.57 742.72 666.42
  A 1.77 1.76 -46.4 0 0 742.76 668.27
  C 750.14 679.66 754.08 692.92 755.83 706.18
  A 0.29 0.29 0.0 0 0 756.36 706.29
  Q 767.06 688.81 776.70 670.21
  Q 806.90 611.98 818.24 547.03
  Q 831.71 469.92 818.31 393.17
  Q 809.53 342.83 786.17 290.87
  Q 781.96 281.52 774.79 268.83
  Q 767.36 255.67 762.12 247.40
  Q 713.99 171.42 634.60 129.66
  C 596.84 109.80 555.25 99.22 512.51 97.11
  Q 500.11 96.49 478.26 96.84
  Q 470.00 96.97 459.93 98.05
  C 433.42 100.91 407.65 106.42 382.78 115.27
  C 334.34 132.50 291.19 158.36 254.18 192.18
  Q 205.03 237.09 172.87 296.05
  C 143.33 350.23 125.45 411.44 121.26 474.92
  Q 120.38 488.32 120.15 497.77
  Q 119.30 533.89 124.52 570.02
  Q 133.04 628.95 157.22 681.30
  Q 168.84 706.46 185.21 731.07
  Q 229.71 797.96 297.91 838.23
  C 342.17 864.36 391.23 877.84 442.14 881.63
  C 450.39 882.25 459.58 881.93 466.63 882.04
  Q 473.15 882.14 482.34 881.31
  Q 496.31 880.03 498.00 879.78
  C 555.97 871.04 609.08 848.56 656.02 814.01
  A 0.27 0.27 0.0 0 0 655.82 813.53"
/>
<path stroke="#0d0d0d" vector-effect="non-scaling-stroke" d="
  M 519.88 893.59
  Q 539.57 892.86 559.64 889.89
  Q 580.23 886.85 597.76 881.89
  Q 617.09 876.43 634.77 869.69
  Q 658.48 860.64 682.66 846.85
  Q 721.34 824.78 754.90 794.89
  Q 774.20 777.69 793.04 754.53
  Q 835.39 702.48 859.85 643.36
  Q 867.64 624.52 873.41 603.95
  Q 882.53 571.41 885.82 546.39
  C 887.76 531.55 888.93 524.67 889.66 512.82
  Q 892.12 472.71 887.65 433.13
  Q 884.13 402.07 876.14 373.95
  Q 867.84 344.73 855.88 317.13
  Q 850.25 304.12 841.10 287.55
  Q 823.66 255.99 801.73 228.93
  Q 773.77 194.45 736.01 167.31
  Q 708.37 147.44 671.84 130.66
  C 668.05 128.93 665.10 127.08 662.13 126.19
  A 0.25 0.25 0.0 0 0 661.83 126.33
  L 661.83 126.34
  A 0.26 0.26 0.0 0 0 661.93 126.67
  Q 675.12 134.04 679.70 137.32
  C 689.74 144.50 699.75 151.08 708.97 158.80
  C 734.05 179.80 756.20 205.35 773.93 232.30
  Q 826.59 312.34 840.31 407.95
  C 846.58 451.63 845.66 497.11 839.63 541.04
  C 836.84 561.43 832.02 581.01 826.13 601.01
  Q 821.08 618.16 812.63 638.49
  Q 804.29 658.59 796.28 674.82
  Q 781.42 704.96 760.84 733.60
  Q 745.90 754.38 721.37 780.44
  C 710.74 791.73 698.22 802.62 686.76 812.49
  Q 655.25 839.63 617.63 859.89
  Q 611.53 863.17 588.64 873.16
  Q 554.98 887.86 523.50 892.42
  Q 522.71 892.54 519.86 893.45
  A 0.07 0.07 0.0 0 0 519.88 893.59"
/>
<path stroke="#7b4013" vector-effect="non-scaling-stroke" d="
  M 319.44 786.58
  L 327.48 791.46"
/>
<path stroke="#7f601e" vector-effect="non-scaling-stroke" d="
  M 327.48 791.46
  Q 369.60 816.56 419.34 823.83
  Q 467.92 830.92 516.26 820.30
  Q 548.54 813.21 577.78 798.54
  Q 579.71 797.57 582.68 795.82
  A 0.33 0.33 0.0 0 0 582.71 795.28
  Q 578.39 791.94 575.22 788.23
  C 561.98 772.72 555.89 754.59 554.34 734.19
  C 552.20 705.83 561.00 679.26 580.34 658.12
  C 595.76 641.27 620.39 628.55 643.68 625.69
  A 0.96 0.95 -2.2 0 0 644.52 624.79
  C 645.23 612.11 650.98 598.48 661.30 590.60
  C 669.23 584.53 679.84 586.21 687.19 592.33
  Q 691.45 595.87 689.62 601.08
  Q 688.33 604.75 686.43 608.46
  A 1.19 1.19 0.0 0 1 684.92 609.02
  C 679.80 606.93 673.61 606.59 669.43 611.20
  Q 664.19 616.96 665.02 624.87
  A 0.65 0.64 87.5 0 0 665.65 625.45
  Q 703.07 626.39 728.60 653.38
  A 0.46 0.46 0.0 0 0 729.28 653.36
  Q 730.45 651.93 731.63 649.58
  Q 752.08 608.54 763.08 564.55
  Q 780.30 495.72 771.81 424.73
  C 766.51 380.46 753.03 336.97 731.57 297.69
  Q 704.21 247.63 660.15 211.59
  Q 651.46 204.49 644.32 200.42"
/>
<path stroke="#7b4013" vector-effect="non-scaling-stroke" d="
  M 644.32 200.42
  Q 639.94 196.10 634.05 193.48"
/>
<path stroke="#6e2007" vector-effect="non-scaling-stroke" d="
  M 634.05 193.48
  Q 613.51 179.45 590.64 170.80
  Q 569.68 162.87 548.80 158.71
  Q 495.10 148.00 440.51 160.76
  C 393.40 171.78 349.91 194.57 313.66 225.92
  Q 291.42 245.16 275.28 264.53
  Q 199.48 355.51 186.65 474.73
  Q 185.05 489.58 184.90 508.85
  Q 184.74 528.36 185.60 542.99
  Q 187.31 572.15 194.18 602.10
  C 205.98 653.60 231.06 703.92 266.80 743.09
  Q 271.56 748.30 278.39 754.65
  Q 288.64 764.17 290.37 765.63
  Q 301.97 775.48 319.44 786.58"
/>
<path stroke="#e8601a" vector-effect="non-scaling-stroke" d="
  M 634.05 193.48
  L 607.30 182.21"
/>
<path stroke="#ed8024" vector-effect="non-scaling-stroke" d="
  M 607.30 182.21
  Q 567.14 167.21 524.45 165.31"
/>
<path stroke="#e8601a" vector-effect="non-scaling-stroke" d="
  M 524.45 165.31
  Q 472.93 163.66 426.34 181.57
  Q 382.76 198.32 345.72 226.21
  Q 343.39 227.96 327.52 241.72
  C 319.74 248.45 314.61 254.08 306.21 262.71
  Q 287.76 281.62 270.87 307.35
  Q 249.99 339.16 235.42 374.88
  Q 218.33 416.76 211.90 458.30
  Q 208.98 477.16 208.27 487.01
  Q 205.18 529.53 208.24 564.03
  C 213.46 622.89 234.12 680.70 268.74 729.68
  Q 279.18 744.46 287.08 753.94
  Q 300.72 770.33 318.13 783.62
  Q 318.85 784.17 319.44 786.58"
/>
<path stroke="#fa9f31" vector-effect="non-scaling-stroke" d="
  M 524.45 165.31
  Q 523.99 165.67 524.01 165.91
  Q 524.04 166.48 524.62 166.51
  Q 567.23 168.03 607.07 183.44
  A 0.50 0.50 0.0 0 0 607.73 182.85
  Q 607.67 182.60 607.30 182.21"
/>
<path stroke="#fa9f31" vector-effect="non-scaling-stroke" d="
  M 644.32 200.42
  Q 652.70 207.49 661.24 213.96
  Q 663.82 215.92 664.72 216.91
  Q 666.00 218.31 667.78 219.52
  Q 669.11 220.42 672.40 223.63
  Q 679.98 231.05 686.93 238.02
  Q 692.59 243.70 698.85 251.48
  Q 707.72 262.50 710.14 265.85
  Q 729.21 292.25 742.55 322.40
  Q 763.34 369.40 770.03 420.01
  Q 772.06 435.41 772.09 438.26
  Q 772.13 442.36 772.10 442.72
  A 6.56 6.53 41.9 0 0 772.19 444.29
  Q 772.76 447.33 772.98 452.25
  Q 773.95 474.60 772.94 491.75
  Q 772.75 494.81 772.54 496.09
  C 771.90 499.96 772.31 503.44 771.67 506.98
  Q 771.46 508.17 770.65 516.99
  Q 770.24 521.36 769.39 526.98
  Q 763.71 564.52 751.00 600.75
  Q 742.10 626.12 729.74 651.09
  A 1.21 1.21 0.0 0 1 727.73 651.34
  Q 724.96 648.06 721.41 645.09
  Q 704.17 630.67 683.25 626.36
  Q 674.26 624.51 666.71 624.14
  A 0.82 0.82 0.0 0 1 665.93 623.32
  Q 665.93 616.39 670.64 611.40
  C 674.04 607.80 679.55 608.59 683.88 609.70
  C 685.72 610.16 686.96 609.82 687.84 608.10
  C 689.73 604.43 693.27 597.58 690.09 593.93
  C 684.80 587.86 674.79 583.56 666.89 586.51
  Q 658.56 589.62 653.11 597.36
  Q 644.66 609.36 643.16 623.76
  A 1.08 1.07 89.7 0 1 642.22 624.72
  C 625.23 626.86 608.78 634.36 594.66 644.16
  Q 587.05 649.45 578.40 658.61
  C 577.05 660.03 576.37 661.54 574.86 663.10
  Q 573.86 664.13 572.18 666.44
  Q 551.21 695.30 553.06 731.49
  Q 553.29 736.02 553.91 740.51
  Q 554.88 747.59 555.28 749.49
  C 557.73 761.31 562.69 774.47 570.44 783.94
  C 573.90 788.17 576.69 792.07 580.75 794.78
  A 0.66 0.66 0.0 0 1 580.69 795.91
  C 554.91 809.13 527.09 817.83 498.89 822.42
  Q 493.80 823.24 490.22 823.58
  C 481.76 824.39 476.39 825.10 468.44 825.12
  Q 445.57 825.18 443.25 825.06
  Q 381.85 821.88 328.80 791.07
  A 0.92 0.91 44.2 0 0 327.87 791.08
  Q 327.58 791.25 327.48 791.46"
/>
<path stroke="#7f601e" vector-effect="non-scaling-stroke" d="
  M 694.16 669.33
  C 684.03 685.47 678.30 693.10 673.95 705.91
  A 1.00 1.00 0.0 0 0 674.67 707.20
  Q 678.58 708.12 683.25 708.10
  Q 692.18 708.05 705.25 706.51
  Q 708.42 706.13 710.61 705.09
  A 0.85 0.85 0.0 0 0 711.09 704.20
  Q 710.37 699.04 708.17 693.77
  Q 702.84 680.99 694.89 669.32
  A 0.44 0.44 0.0 0 0 694.16 669.33"
/>
<path stroke="#7f601e" vector-effect="non-scaling-stroke" d="
  M 608.52 711.93
  Q 618.15 711.96 626.80 710.26
  A 0.63 0.62 -12.0 0 0 627.29 709.51
  Q 626.17 704.62 623.56 698.65
  Q 617.79 685.43 608.94 672.39
  A 0.34 0.19 68.4 0 0 608.77 672.25
  Q 608.71 672.23 608.65 672.23
  Q 608.59 672.23 608.53 672.25
  A 0.34 0.19 -68.0 0 0 608.36 672.39
  Q 599.42 685.37 593.56 698.55
  Q 590.91 704.50 589.76 709.38
  A 0.63 0.62 12.4 0 0 590.25 710.13
  Q 598.89 711.90 608.52 711.93"
/>
<path stroke="#7f601e" vector-effect="non-scaling-stroke" d="
  M 648.84 711.08
  L 637.84 728.05
  A 1.19 1.19 0.0 0 0 638.38 729.79
  C 644.54 732.35 652.41 731.53 659.08 729.96
  A 0.99 0.99 0.0 0 0 659.71 728.50
  L 649.67 711.10
  A 0.49 0.49 0.0 0 0 648.84 711.08"
/>
<path stroke="#7f601e" vector-effect="non-scaling-stroke" d="
  M 720.98 730.04
  C 713.12 736.31 704.21 740.35 694.63 744.22
  A 1.29 1.29 0.0 0 0 693.83 745.35
  L 693.30 755.36
  A 2.28 2.28 0.0 0 1 691.87 757.35
  L 676.90 763.33
  A 0.91 0.91 0.0 0 1 675.67 762.68
  L 673.71 753.64
  A 1.17 1.16 -10.8 0 0 672.37 752.74
  Q 649.52 756.72 628.17 754.27
  A 0.80 0.80 0.0 0 0 627.30 754.89
  L 625.07 764.53
  A 0.49 0.48 12.7 0 1 624.49 764.89
  L 611.24 761.82
  A 1.66 1.64 6.7 0 1 609.96 760.22
  L 609.96 750.00
  A 0.74 0.74 0.0 0 0 609.40 749.28
  Q 594.13 745.39 583.47 734.36
  A 0.31 0.31 0.0 0 0 582.95 734.63
  C 587.01 757.29 602.46 775.03 625.23 780.25
  Q 631.13 781.61 636.72 782.00
  A 1.08 1.07 -84.7 0 0 637.86 781.05
  L 639.06 770.07
  A 0.64 0.64 0.0 0 1 639.70 769.50
  L 657.76 769.50
  A 0.48 0.48 0.0 0 1 658.24 769.94
  L 659.17 782.50
  A 0.35 0.35 0.0 0 0 659.59 782.82
  C 688.36 777.03 712.00 758.37 721.30 730.27
  A 0.21 0.20 80.3 0 0 720.98 730.04"
/>
<path stroke="#fa9f31" vector-effect="non-scaling-stroke" d="
  M 757.74 702.24
  Q 768.86 683.65 779.73 661.54
  Q 810.61 598.71 819.99 527.53
  Q 820.62 522.76 821.98 511.04
  Q 822.82 503.79 823.84 470.50
  Q 824.00 465.50 823.75 462.32
  Q 823.37 457.41 823.31 454.16
  Q 823.08 440.34 821.94 428.50
  Q 815.40 360.99 788.76 299.64
  Q 782.43 285.06 774.67 271.05
  Q 765.84 255.10 758.35 243.67
  Q 731.25 202.31 694.26 170.98
  Q 691.18 168.37 684.62 163.09
  Q 680.47 159.74 674.65 155.67
  Q 666.14 149.72 664.12 148.38
  Q 640.34 132.68 613.55 120.98
  C 600.88 115.45 585.83 110.37 572.89 107.15
  Q 549.48 101.32 523.25 98.90
  Q 495.01 96.31 464.27 98.84
  Q 418.86 102.57 375.19 119.14
  Q 337.39 133.47 306.37 153.36
  Q 271.08 175.99 239.35 207.55
  C 235.24 211.64 231.54 216.34 228.31 219.65
  Q 224.95 223.11 220.21 228.86
  Q 212.70 237.96 210.39 240.88
  Q 179.47 279.90 159.03 326.76
  Q 150.70 345.85 144.91 362.67
  Q 126.88 415.04 122.84 469.75
  Q 121.31 490.41 121.31 506.76
  Q 121.30 512.86 121.91 531.63
  Q 122.02 534.93 122.23 536.40
  C 122.80 540.35 122.87 545.09 123.16 548.31
  Q 127.67 598.54 144.25 646.51
  C 147.18 655.01 152.17 666.83 154.58 672.70
  Q 159.42 684.47 166.42 697.56
  Q 179.59 722.15 195.92 744.37
  Q 212.90 767.48 231.32 785.42
  C 237.78 791.71 240.60 794.54 245.92 799.19
  Q 270.55 820.72 298.31 837.25
  C 320.93 850.71 345.69 861.04 371.19 868.10
  Q 393.08 874.16 414.24 877.34
  Q 423.76 878.77 423.91 878.79
  Q 430.19 879.72 433.63 879.86
  Q 442.78 880.22 451.50 880.87
  Q 453.92 881.06 469.13 880.70
  Q 469.15 880.70 482.83 880.00
  Q 490.11 879.63 497.52 878.55
  Q 519.95 875.29 540.50 869.47
  Q 600.24 852.57 650.14 816.93
  A 0.71 0.71 0.0 0 0 649.66 815.64
  Q 627.41 817.70 606.31 810.42
  Q 604.66 809.85 602.68 808.83
  A 0.95 0.93 43.5 0 0 601.78 808.84
  C 595.97 812.06 585.62 817.89 578.20 821.40
  Q 539.66 839.70 496.54 846.09
  Q 483.96 847.95 470.84 848.41
  Q 454.67 848.98 445.04 848.42
  Q 390.80 845.27 340.20 823.49
  C 322.39 815.82 303.95 804.80 287.63 793.27
  Q 276.87 785.66 267.81 777.91
  Q 255.23 767.15 249.16 761.10
  Q 216.41 728.44 193.67 687.62
  Q 172.20 649.09 161.06 606.93
  Q 150.11 565.47 148.13 523.25
  Q 147.96 519.65 148.00 497.20
  Q 148.02 487.85 148.80 478.32
  Q 150.10 462.37 150.46 459.48
  Q 151.97 447.06 154.62 431.20
  Q 156.01 422.89 158.65 412.23
  Q 162.61 396.30 163.45 393.45
  Q 176.80 348.31 200.01 307.03
  Q 207.10 294.43 215.91 281.62
  Q 223.07 271.22 233.84 257.61
  Q 235.79 255.13 236.06 254.80
  Q 247.72 240.19 263.93 224.18
  Q 265.36 222.77 274.03 214.79
  Q 292.62 197.68 314.79 182.84
  Q 361.90 151.31 415.54 137.85
  Q 439.62 131.81 461.26 130.29
  Q 467.53 129.85 470.43 129.57
  Q 476.15 129.03 479.60 129.06
  Q 507.80 129.31 519.38 130.63
  Q 531.49 132.01 546.26 134.79
  Q 573.68 139.95 598.30 150.57
  Q 618.98 159.49 634.97 169.07
  Q 644.66 174.88 651.08 179.21
  Q 661.50 186.23 676.11 198.17
  Q 692.46 211.53 708.98 230.01
  Q 738.97 263.56 759.08 305.89
  Q 773.59 336.41 781.75 367.25
  Q 789.76 397.55 792.21 421.72
  Q 792.87 428.21 793.02 429.13
  C 794.03 435.42 793.90 437.65 794.49 444.52
  Q 794.86 448.92 794.74 452.49
  C 794.52 458.79 795.47 466.07 795.18 472.50
  Q 795.03 475.95 794.90 488.68
  Q 794.82 496.52 794.04 504.80
  Q 792.43 522.00 792.38 522.37
  C 790.21 537.70 788.83 548.39 785.62 561.47
  Q 782.19 575.43 780.78 580.30
  Q 770.99 614.23 755.55 644.78
  Q 748.62 658.49 744.44 665.69
  Q 743.39 667.49 744.42 669.09
  Q 751.82 680.72 754.64 694.51
  Q 755.49 698.63 756.30 702.02
  A 0.79 0.79 0.0 0 0 757.74 702.24"
/>
<path stroke="#7b4013" vector-effect="non-scaling-stroke" d="
  M 410.57 673.27
  L 420.04 675.90"
/>
<path stroke="#e8601a" vector-effect="non-scaling-stroke" d="
  M 420.04 675.90
  Q 420.23 676.75 419.87 677.05
  A 0.31 0.30 34.6 0 0 419.97 677.57
  Q 438.24 683.67 449.82 686.12
  C 462.97 688.91 476.46 688.28 490.04 686.99
  C 505.70 685.49 522.09 680.52 536.19 674.75
  Q 545.85 670.79 558.03 663.50
  Q 573.33 654.35 582.46 647.19
  Q 598.28 634.79 613.07 616.57
  Q 637.83 586.06 649.99 547.21
  C 657.25 524.04 659.91 499.57 658.44 475.49
  Q 656.40 441.98 643.10 411.92
  Q 637.08 398.32 629.64 388.06
  Q 628.39 386.33 626.72 384.80"
/>
<path stroke="#7b4013" vector-effect="non-scaling-stroke" d="
  M 626.72 384.80
  L 626.55 384.21"
/>
<path stroke="#fa9f31" vector-effect="non-scaling-stroke" d="
  M 626.55 384.21
  Q 627.49 383.88 627.09 383.13
  Q 612.44 355.11 587.44 332.64
  Q 582.31 328.03 575.21 322.95
  Q 566.02 316.36 562.18 314.21
  C 546.73 305.53 531.52 299.17 514.08 295.13
  C 508.51 293.84 502.88 293.23 496.75 292.37
  Q 490.38 291.48 477.61 291.21
  C 473.73 291.12 470.66 291.79 466.81 291.98
  Q 463.53 292.15 458.74 292.84
  Q 428.37 297.22 401.90 311.68
  Q 370.46 328.87 346.75 356.36
  C 345.36 357.98 344.69 359.42 343.35 360.51
  Q 342.68 361.06 340.70 363.55
  Q 307.06 405.91 297.12 459.21
  Q 292.43 484.36 293.35 508.93
  Q 293.95 525.16 297.61 543.94
  C 299.92 555.80 303.75 567.11 307.93 577.51
  Q 319.05 605.15 339.82 627.81
  Q 346.39 634.97 352.50 640.46
  Q 376.80 662.30 407.46 673.40
  Q 407.53 673.43 408.72 673.92
  Q 410.64 674.71 410.57 673.27"
/>
<path stroke="#7f601e" vector-effect="non-scaling-stroke" d="
  M 626.55 384.21
  C 603.18 340.49 563.79 307.90 515.12 296.69
  Q 480.75 288.77 445.35 296.58
  C 417.30 302.77 389.45 317.65 368.19 336.39
  Q 313.47 384.63 298.93 456.36
  Q 289.54 502.63 299.60 547.70
  Q 306.78 579.89 325.97 608.58
  C 335.66 623.07 348.68 636.52 361.98 647.02
  Q 383.67 664.13 410.57 673.27"
/>
<path stroke="#6e2007" vector-effect="non-scaling-stroke" d="
  M 626.72 384.80
  Q 644.87 419.89 647.59 459.25
  Q 649.32 484.14 646.30 505.36
  C 637.86 564.69 603.11 619.45 552.71 652.96
  Q 519.47 675.05 480.51 679.73
  Q 449.92 683.41 420.04 675.90"
/>
<path stroke="#6e2007" vector-effect="non-scaling-stroke" d="
  M 518.92 318.81
  C 492.59 310.21 463.43 310.59 436.74 318.49
  Q 402.45 328.63 376.05 352.61
  Q 329.62 394.78 316.39 456.84
  C 305.85 506.28 313.02 559.86 343.18 601.21
  Q 363.37 628.88 392.91 644.48
  C 423.66 660.72 459.70 665.27 493.46 657.02
  C 525.37 649.23 553.84 629.54 576.21 604.17
  Q 618.73 555.96 623.97 491.76
  Q 627.63 446.85 611.45 406.51
  C 595.07 365.68 560.92 332.52 518.92 318.81"
/>
<path stroke="#6e2007" vector-effect="non-scaling-stroke" d="
  M 367.03 513.02
  Q 370.81 540.64 387.00 562.25
  C 399.48 578.91 419.21 591.48 439.64 596.10
  C 471.87 603.39 501.61 593.74 526.20 572.65
  Q 553.57 549.17 564.05 515.76
  C 572.87 487.61 570.01 455.47 556.31 429.70
  C 541.22 401.35 516.26 382.28 484.31 377.24
  C 461.34 373.62 436.51 380.78 417.94 393.91
  C 379.73 420.91 360.72 466.90 367.03 513.02"
/>
<path stroke="#0d0d0d" vector-effect="non-scaling-stroke" d="
  M 484.50 398.21
  Q 481.78 396.93 477.73 396.32
  Q 451.78 392.38 430.59 406.09
  C 418.37 413.99 407.13 425.43 399.62 438.89
  C 395.02 447.13 392.60 450.86 390.33 457.87
  Q 381.98 483.62 385.68 510.30
  Q 387.95 526.70 395.62 540.75
  Q 409.88 566.88 437.86 575.89
  C 441.95 577.20 446.84 578.56 450.08 578.90
  Q 453.19 579.23 456.06 579.94
  A 0.38 0.38 0.0 0 0 456.39 579.27
  Q 455.49 578.56 450.69 575.02
  Q 444.58 570.51 439.65 564.32
  Q 419.49 538.98 418.13 505.50
  C 416.81 472.69 428.20 440.78 451.53 417.53
  C 460.28 408.80 472.27 400.24 484.41 398.76
  A 0.29 0.29 0.0 0 0 484.50 398.21"
/>
<path stroke="#fa9f31" vector-effect="non-scaling-stroke" d="
  M 694.13 671.21
  C 684.83 686.09 679.56 693.13 675.58 704.93
  A 0.92 0.92 0.0 0 0 676.24 706.12
  Q 679.85 706.96 684.15 706.94
  Q 692.38 706.87 704.41 705.43
  Q 707.33 705.08 709.35 704.12
  A 0.79 0.78 -17.0 0 0 709.79 703.30
  Q 709.12 698.54 707.08 693.69
  Q 702.15 681.93 694.81 671.19
  A 0.40 0.40 0.0 0 0 694.13 671.21"
/>
<path stroke="#fa9f31" vector-effect="non-scaling-stroke" d="
  M 608.52 710.37
  C 614.98 710.38 620.60 710.52 625.29 709.12
  A 0.83 0.83 0.0 0 0 625.84 708.08
  C 621.96 696.13 615.94 685.23 608.87 674.11
  A 0.09 0.06 71.0 0 0 608.82 674.07
  Q 608.69 674.02 608.55 674.02
  Q 608.40 674.02 608.27 674.07
  A 0.09 0.06 -70.9 0 0 608.23 674.11
  C 601.14 685.22 595.10 696.11 591.20 708.05
  A 0.83 0.83 0.0 0 0 591.75 709.09
  C 596.44 710.51 602.06 710.37 608.52 710.37"
/>
<path stroke="#fa9f31" vector-effect="non-scaling-stroke" d="
  M 648.76 712.89
  L 639.44 727.44
  A 1.02 1.01 27.5 0 0 639.91 728.92
  C 645.19 731.08 651.91 730.34 657.60 728.97
  A 0.84 0.84 0.0 0 0 658.13 727.72
  L 649.47 712.90
  A 0.42 0.42 0.0 0 0 648.76 712.89"
/>
<path stroke="#fa9f31" vector-effect="non-scaling-stroke" d="
  M 585.20 738.33
  C 586.42 746.69 590.92 754.85 596.24 761.47
  C 605.99 773.60 620.42 779.91 635.95 780.43
  A 1.00 1.00 0.0 0 0 636.99 779.43
  Q 637.02 774.21 638.50 768.93
  A 0.97 0.95 -81.9 0 1 639.42 768.23
  L 657.19 768.23
  A 2.48 2.47 -0.0 0 1 659.67 770.70
  L 659.67 780.08
  A 1.35 1.34 83.4 0 0 661.32 781.39
  Q 678.61 777.37 693.19 767.11
  C 695.54 765.45 697.38 763.49 699.70 761.85
  Q 701.87 760.32 704.27 757.59
  Q 713.54 747.09 718.62 734.62
  A 0.52 0.52 0.0 0 0 718.09 733.91
  Q 717.64 733.95 717.38 734.12
  Q 707.14 740.59 695.88 744.68
  A 1.64 1.64 0.0 0 0 694.80 746.18
  C 694.70 749.74 695.47 757.03 691.94 758.41
  Q 679.62 763.24 677.22 764.13
  A 1.77 1.76 -18.1 0 1 674.91 762.96
  L 672.60 754.83
  A 1.22 1.22 0.0 0 0 671.19 753.97
  Q 650.37 758.04 629.31 755.53
  A 1.16 1.15 9.7 0 0 628.05 756.42
  L 626.31 763.94
  A 2.45 2.45 0.0 0 1 623.35 765.76
  L 610.98 762.81
  A 1.89 1.88 76.1 0 1 610.02 762.23
  C 608.36 760.61 608.89 755.86 608.87 751.28
  A 1.30 1.30 0.0 0 0 607.92 750.04
  Q 595.01 746.44 585.88 737.98
  A 0.41 0.40 17.6 0 0 585.20 738.33"
/>
</g>
<path fill="#000000" d="
  M 869.34 288.48
  Q 876.22 301.87 881.06 313.21
  Q 920.92 406.73 915.94 508.45
  C 915.64 514.56 914.92 519.99 914.90 525.68
  A 7.45 7.43 -38.2 0 1 914.71 527.26
  C 913.91 530.74 914.03 534.42 913.60 537.82
  Q 902.18 628.23 856.94 706.75
  Q 847.45 723.21 836.09 739.13
  Q 823.68 756.51 812.67 769.68
  Q 810.01 772.86 802.41 781.25
  C 758.68 829.56 703.63 867.30 642.62 890.34
  Q 626.37 896.48 607.00 901.54
  Q 586.16 906.99 570.51 909.48
  Q 542.61 913.91 523.02 914.81
  Q 516.51 915.11 484.43 914.93
  C 478.67 914.90 472.22 913.81 466.70 913.93
  A 9.08 8.90 -38.7 0 1 464.59 913.72
  C 460.69 912.87 457.21 913.19 453.36 912.44
  Q 452.08 912.18 448.53 911.85
  Q 438.40 910.88 415.79 906.44
  C 376.45 898.71 337.29 884.19 301.53 864.89
  Q 261.33 843.19 226.89 811.13
  Q 200.72 786.79 180.58 760.10
  Q 160.44 733.40 144.54 701.39
  Q 119.51 650.99 108.63 595.38
  Q 105.32 578.47 103.58 561.96
  Q 103.55 561.67 103.19 560.02
  A 5.99 5.80 -52.2 0 1 103.05 558.74
  Q 103.06 554.91 102.32 551.45
  A 9.80 9.25 -52.8 0 1 102.12 549.60
  C 102.03 544.09 101.28 539.18 101.12 534.14
  Q 100.29 507.68 101.06 482.23
  C 101.23 476.96 102.06 470.95 102.09 465.30
  A 10.46 10.05 52.0 0 1 102.30 463.23
  C 103.08 459.36 102.94 455.26 103.46 451.30
  Q 105.84 433.46 106.41 429.86
  Q 117.58 359.64 151.11 294.87
  C 185.07 229.25 234.68 172.42 296.80 133.05
  Q 302.90 129.19 309.90 125.13
  Q 319.57 119.53 323.21 117.62
  Q 393.57 80.61 472.94 72.48
  Q 478.32 71.93 481.60 71.92
  C 485.50 71.91 488.96 71.16 493.15 71.12
  C 506.27 70.99 516.97 70.63 528.50 71.66
  Q 533.24 72.09 539.68 72.06
  A 6.60 6.26 -38.4 0 1 541.02 72.18
  Q 543.13 72.61 550.24 73.15
  Q 559.82 73.88 576.28 76.48
  Q 656.54 89.17 725.30 132.45
  Q 741.25 142.49 754.22 152.27
  Q 786.86 176.85 814.14 208.15
  Q 845.16 243.75 868.56 286.97
  Q 868.64 287.13 869.34 288.48
  Z
  M 655.82 813.53
  Q 631.37 817.89 606.91 809.57
  Q 604.95 808.90 602.66 807.60
  A 0.87 0.86 -45.3 0 0 601.80 807.61
  C 560.53 832.31 513.20 846.64 465.01 847.43
  Q 451.87 847.65 440.53 846.90
  Q 372.58 842.47 313.50 808.52
  Q 269.18 783.05 235.67 745.10
  Q 198.40 702.89 176.82 649.72
  Q 147.00 576.23 149.16 494.74
  Q 149.78 471.46 153.44 446.48
  C 168.49 343.91 222.43 250.31 306.78 189.77
  C 353.36 156.34 410.57 134.10 468.26 131.08
  Q 489.92 129.94 509.25 131.15
  C 541.49 133.16 573.85 140.72 603.57 154.09
  C 652.36 176.05 694.35 209.88 725.86 252.50
  C 759.05 297.38 779.84 350.52 788.93 406.06
  C 793.92 436.49 795.08 467.12 793.32 497.81
  Q 791.61 527.71 785.98 554.39
  Q 773.50 613.57 742.72 666.42
  A 1.77 1.76 -46.4 0 0 742.76 668.27
  C 750.14 679.66 754.08 692.92 755.83 706.18
  A 0.29 0.29 0.0 0 0 756.36 706.29
  Q 767.06 688.81 776.70 670.21
  Q 806.90 611.98 818.24 547.03
  Q 831.71 469.92 818.31 393.17
  Q 809.53 342.83 786.17 290.87
  Q 781.96 281.52 774.79 268.83
  Q 767.36 255.67 762.12 247.40
  Q 713.99 171.42 634.60 129.66
  C 596.84 109.80 555.25 99.22 512.51 97.11
  Q 500.11 96.49 478.26 96.84
  Q 470.00 96.97 459.93 98.05
  C 433.42 100.91 407.65 106.42 382.78 115.27
  C 334.34 132.50 291.19 158.36 254.18 192.18
  Q 205.03 237.09 172.87 296.05
  C 143.33 350.23 125.45 411.44 121.26 474.92
  Q 120.38 488.32 120.15 497.77
  Q 119.30 533.89 124.52 570.02
  Q 133.04 628.95 157.22 681.30
  Q 168.84 706.46 185.21 731.07
  Q 229.71 797.96 297.91 838.23
  C 342.17 864.36 391.23 877.84 442.14 881.63
  C 450.39 882.25 459.58 881.93 466.63 882.04
  Q 473.15 882.14 482.34 881.31
  Q 496.31 880.03 498.00 879.78
  C 555.97 871.04 609.08 848.56 656.02 814.01
  A 0.27 0.27 0.0 0 0 655.82 813.53
  Z
  M 519.88 893.59
  Q 539.57 892.86 559.64 889.89
  Q 580.23 886.85 597.76 881.89
  Q 617.09 876.43 634.77 869.69
  Q 658.48 860.64 682.66 846.85
  Q 721.34 824.78 754.90 794.89
  Q 774.20 777.69 793.04 754.53
  Q 835.39 702.48 859.85 643.36
  Q 867.64 624.52 873.41 603.95
  Q 882.53 571.41 885.82 546.39
  C 887.76 531.55 888.93 524.67 889.66 512.82
  Q 892.12 472.71 887.65 433.13
  Q 884.13 402.07 876.14 373.95
  Q 867.84 344.73 855.88 317.13
  Q 850.25 304.12 841.10 287.55
  Q 823.66 255.99 801.73 228.93
  Q 773.77 194.45 736.01 167.31
  Q 708.37 147.44 671.84 130.66
  C 668.05 128.93 665.10 127.08 662.13 126.19
  A 0.25 0.25 0.0 0 0 661.83 126.33
  L 661.83 126.34
  A 0.26 0.26 0.0 0 0 661.93 126.67
  Q 675.12 134.04 679.70 137.32
  C 689.74 144.50 699.75 151.08 708.97 158.80
  C 734.05 179.80 756.20 205.35 773.93 232.30
  Q 826.59 312.34 840.31 407.95
  C 846.58 451.63 845.66 497.11 839.63 541.04
  C 836.84 561.43 832.02 581.01 826.13 601.01
  Q 821.08 618.16 812.63 638.49
  Q 804.29 658.59 796.28 674.82
  Q 781.42 704.96 760.84 733.60
  Q 745.90 754.38 721.37 780.44
  C 710.74 791.73 698.22 802.62 686.76 812.49
  Q 655.25 839.63 617.63 859.89
  Q 611.53 863.17 588.64 873.16
  Q 554.98 887.86 523.50 892.42
  Q 522.71 892.54 519.86 893.45
  A 0.07 0.07 0.0 0 0 519.88 893.59
  Z
  M 319.44 786.58
  L 327.48 791.46
  Q 369.60 816.56 419.34 823.83
  Q 467.92 830.92 516.26 820.30
  Q 548.54 813.21 577.78 798.54
  Q 579.71 797.57 582.68 795.82
  A 0.33 0.33 0.0 0 0 582.71 795.28
  Q 578.39 791.94 575.22 788.23
  C 561.98 772.72 555.89 754.59 554.34 734.19
  C 552.20 705.83 561.00 679.26 580.34 658.12
  C 595.76 641.27 620.39 628.55 643.68 625.69
  A 0.96 0.95 -2.2 0 0 644.52 624.79
  C 645.23 612.11 650.98 598.48 661.30 590.60
  C 669.23 584.53 679.84 586.21 687.19 592.33
  Q 691.45 595.87 689.62 601.08
  Q 688.33 604.75 686.43 608.46
  A 1.19 1.19 0.0 0 1 684.92 609.02
  C 679.80 606.93 673.61 606.59 669.43 611.20
  Q 664.19 616.96 665.02 624.87
  A 0.65 0.64 87.5 0 0 665.65 625.45
  Q 703.07 626.39 728.60 653.38
  A 0.46 0.46 0.0 0 0 729.28 653.36
  Q 730.45 651.93 731.63 649.58
  Q 752.08 608.54 763.08 564.55
  Q 780.30 495.72 771.81 424.73
  C 766.51 380.46 753.03 336.97 731.57 297.69
  Q 704.21 247.63 660.15 211.59
  Q 651.46 204.49 644.32 200.42
  Q 639.94 196.10 634.05 193.48
  Q 613.51 179.45 590.64 170.80
  Q 569.68 162.87 548.80 158.71
  Q 495.10 148.00 440.51 160.76
  C 393.40 171.78 349.91 194.57 313.66 225.92
  Q 291.42 245.16 275.28 264.53
  Q 199.48 355.51 186.65 474.73
  Q 185.05 489.58 184.90 508.85
  Q 184.74 528.36 185.60 542.99
  Q 187.31 572.15 194.18 602.10
  C 205.98 653.60 231.06 703.92 266.80 743.09
  Q 271.56 748.30 278.39 754.65
  Q 288.64 764.17 290.37 765.63
  Q 301.97 775.48 319.44 786.58
  Z
  M 694.16 669.33
  C 684.03 685.47 678.30 693.10 673.95 705.91
  A 1.00 1.00 0.0 0 0 674.67 707.20
  Q 678.58 708.12 683.25 708.10
  Q 692.18 708.05 705.25 706.51
  Q 708.42 706.13 710.61 705.09
  A 0.85 0.85 0.0 0 0 711.09 704.20
  Q 710.37 699.04 708.17 693.77
  Q 702.84 680.99 694.89 669.32
  A 0.44 0.44 0.0 0 0 694.16 669.33
  Z
  M 608.52 711.93
  Q 618.15 711.96 626.80 710.26
  A 0.63 0.62 -12.0 0 0 627.29 709.51
  Q 626.17 704.62 623.56 698.65
  Q 617.79 685.43 608.94 672.39
  A 0.34 0.19 68.4 0 0 608.77 672.25
  Q 608.71 672.23 608.65 672.23
  Q 608.59 672.23 608.53 672.25
  A 0.34 0.19 -68.0 0 0 608.36 672.39
  Q 599.42 685.37 593.56 698.55
  Q 590.91 704.50 589.76 709.38
  A 0.63 0.62 12.4 0 0 590.25 710.13
  Q 598.89 711.90 608.52 711.93
  Z
  M 648.84 711.08
  L 637.84 728.05
  A 1.19 1.19 0.0 0 0 638.38 729.79
  C 644.54 732.35 652.41 731.53 659.08 729.96
  A 0.99 0.99 0.0 0 0 659.71 728.50
  L 649.67 711.10
  A 0.49 0.49 0.0 0 0 648.84 711.08
  Z
  M 720.98 730.04
  C 713.12 736.31 704.21 740.35 694.63 744.22
  A 1.29 1.29 0.0 0 0 693.83 745.35
  L 693.30 755.36
  A 2.28 2.28 0.0 0 1 691.87 757.35
  L 676.90 763.33
  A 0.91 0.91 0.0 0 1 675.67 762.68
  L 673.71 753.64
  A 1.17 1.16 -10.8 0 0 672.37 752.74
  Q 649.52 756.72 628.17 754.27
  A 0.80 0.80 0.0 0 0 627.30 754.89
  L 625.07 764.53
  A 0.49 0.48 12.7 0 1 624.49 764.89
  L 611.24 761.82
  A 1.66 1.64 6.7 0 1 609.96 760.22
  L 609.96 750.00
  A 0.74 0.74 0.0 0 0 609.40 749.28
  Q 594.13 745.39 583.47 734.36
  A 0.31 0.31 0.0 0 0 582.95 734.63
  C 587.01 757.29 602.46 775.03 625.23 780.25
  Q 631.13 781.61 636.72 782.00
  A 1.08 1.07 -84.7 0 0 637.86 781.05
  L 639.06 770.07
  A 0.64 0.64 0.0 0 1 639.70 769.50
  L 657.76 769.50
  A 0.48 0.48 0.0 0 1 658.24 769.94
  L 659.17 782.50
  A 0.35 0.35 0.0 0 0 659.59 782.82
  C 688.36 777.03 712.00 758.37 721.30 730.27
  A 0.21 0.20 80.3 0 0 720.98 730.04
  Z"
/>
<path fill="#febf3b" d="
  M 655.82 813.53
  A 0.27 0.27 0.0 0 1 656.02 814.01
  C 609.08 848.56 555.97 871.04 498.00 879.78
  Q 496.31 880.03 482.34 881.31
  Q 473.15 882.14 466.63 882.04
  C 459.58 881.93 450.39 882.25 442.14 881.63
  C 391.23 877.84 342.17 864.36 297.91 838.23
  Q 229.71 797.96 185.21 731.07
  Q 168.84 706.46 157.22 681.30
  Q 133.04 628.95 124.52 570.02
  Q 119.30 533.89 120.15 497.77
  Q 120.38 488.32 121.26 474.92
  C 125.45 411.44 143.33 350.23 172.87 296.05
  Q 205.03 237.09 254.18 192.18
  C 291.19 158.36 334.34 132.50 382.78 115.27
  C 407.65 106.42 433.42 100.91 459.93 98.05
  Q 470.00 96.97 478.26 96.84
  Q 500.11 96.49 512.51 97.11
  C 555.25 99.22 596.84 109.80 634.60 129.66
  Q 713.99 171.42 762.12 247.40
  Q 767.36 255.67 774.79 268.83
  Q 781.96 281.52 786.17 290.87
  Q 809.53 342.83 818.31 393.17
  Q 831.71 469.92 818.24 547.03
  Q 806.90 611.98 776.70 670.21
  Q 767.06 688.81 756.36 706.29
  A 0.29 0.29 0.0 0 1 755.83 706.18
  C 754.08 692.92 750.14 679.66 742.76 668.27
  A 1.77 1.76 -46.4 0 1 742.72 666.42
  Q 773.50 613.57 785.98 554.39
  Q 791.61 527.71 793.32 497.81
  C 795.08 467.12 793.92 436.49 788.93 406.06
  C 779.84 350.52 759.05 297.38 725.86 252.50
  C 694.35 209.88 652.36 176.05 603.57 154.09
  C 573.85 140.72 541.49 133.16 509.25 131.15
  Q 489.92 129.94 468.26 131.08
  C 410.57 134.10 353.36 156.34 306.78 189.77
  C 222.43 250.31 168.49 343.91 153.44 446.48
  Q 149.78 471.46 149.16 494.74
  Q 147.00 576.23 176.82 649.72
  Q 198.40 702.89 235.67 745.10
  Q 269.18 783.05 313.50 808.52
  Q 372.58 842.47 440.53 846.90
  Q 451.87 847.65 465.01 847.43
  C 513.20 846.64 560.53 832.31 601.80 807.61
  A 0.87 0.86 -45.3 0 1 602.66 807.60
  Q 604.95 808.90 606.91 809.57
  Q 631.37 817.89 655.82 813.53
  Z
  M 757.74 702.24
  Q 768.86 683.65 779.73 661.54
  Q 810.61 598.71 819.99 527.53
  Q 820.62 522.76 821.98 511.04
  Q 822.82 503.79 823.84 470.50
  Q 824.00 465.50 823.75 462.32
  Q 823.37 457.41 823.31 454.16
  Q 823.08 440.34 821.94 428.50
  Q 815.40 360.99 788.76 299.64
  Q 782.43 285.06 774.67 271.05
  Q 765.84 255.10 758.35 243.67
  Q 731.25 202.31 694.26 170.98
  Q 691.18 168.37 684.62 163.09
  Q 680.47 159.74 674.65 155.67
  Q 666.14 149.72 664.12 148.38
  Q 640.34 132.68 613.55 120.98
  C 600.88 115.45 585.83 110.37 572.89 107.15
  Q 549.48 101.32 523.25 98.90
  Q 495.01 96.31 464.27 98.84
  Q 418.86 102.57 375.19 119.14
  Q 337.39 133.47 306.37 153.36
  Q 271.08 175.99 239.35 207.55
  C 235.24 211.64 231.54 216.34 228.31 219.65
  Q 224.95 223.11 220.21 228.86
  Q 212.70 237.96 210.39 240.88
  Q 179.47 279.90 159.03 326.76
  Q 150.70 345.85 144.91 362.67
  Q 126.88 415.04 122.84 469.75
  Q 121.31 490.41 121.31 506.76
  Q 121.30 512.86 121.91 531.63
  Q 122.02 534.93 122.23 536.40
  C 122.80 540.35 122.87 545.09 123.16 548.31
  Q 127.67 598.54 144.25 646.51
  C 147.18 655.01 152.17 666.83 154.58 672.70
  Q 159.42 684.47 166.42 697.56
  Q 179.59 722.15 195.92 744.37
  Q 212.90 767.48 231.32 785.42
  C 237.78 791.71 240.60 794.54 245.92 799.19
  Q 270.55 820.72 298.31 837.25
  C 320.93 850.71 345.69 861.04 371.19 868.10
  Q 393.08 874.16 414.24 877.34
  Q 423.76 878.77 423.91 878.79
  Q 430.19 879.72 433.63 879.86
  Q 442.78 880.22 451.50 880.87
  Q 453.92 881.06 469.13 880.70
  Q 469.15 880.70 482.83 880.00
  Q 490.11 879.63 497.52 878.55
  Q 519.95 875.29 540.50 869.47
  Q 600.24 852.57 650.14 816.93
  A 0.71 0.71 0.0 0 0 649.66 815.64
  Q 627.41 817.70 606.31 810.42
  Q 604.66 809.85 602.68 808.83
  A 0.95 0.93 43.5 0 0 601.78 808.84
  C 595.97 812.06 585.62 817.89 578.20 821.40
  Q 539.66 839.70 496.54 846.09
  Q 483.96 847.95 470.84 848.41
  Q 454.67 848.98 445.04 848.42
  Q 390.80 845.27 340.20 823.49
  C 322.39 815.82 303.95 804.80 287.63 793.27
  Q 276.87 785.66 267.81 777.91
  Q 255.23 767.15 249.16 761.10
  Q 216.41 728.44 193.67 687.62
  Q 172.20 649.09 161.06 606.93
  Q 150.11 565.47 148.13 523.25
  Q 147.96 519.65 148.00 497.20
  Q 148.02 487.85 148.80 478.32
  Q 150.10 462.37 150.46 459.48
  Q 151.97 447.06 154.62 431.20
  Q 156.01 422.89 158.65 412.23
  Q 162.61 396.30 163.45 393.45
  Q 176.80 348.31 200.01 307.03
  Q 207.10 294.43 215.91 281.62
  Q 223.07 271.22 233.84 257.61
  Q 235.79 255.13 236.06 254.80
  Q 247.72 240.19 263.93 224.18
  Q 265.36 222.77 274.03 214.79
  Q 292.62 197.68 314.79 182.84
  Q 361.90 151.31 415.54 137.85
  Q 439.62 131.81 461.26 130.29
  Q 467.53 129.85 470.43 129.57
  Q 476.15 129.03 479.60 129.06
  Q 507.80 129.31 519.38 130.63
  Q 531.49 132.01 546.26 134.79
  Q 573.68 139.95 598.30 150.57
  Q 618.98 159.49 634.97 169.07
  Q 644.66 174.88 651.08 179.21
  Q 661.50 186.23 676.11 198.17
  Q 692.46 211.53 708.98 230.01
  Q 738.97 263.56 759.08 305.89
  Q 773.59 336.41 781.75 367.25
  Q 789.76 397.55 792.21 421.72
  Q 792.87 428.21 793.02 429.13
  C 794.03 435.42 793.90 437.65 794.49 444.52
  Q 794.86 448.92 794.74 452.49
  C 794.52 458.79 795.47 466.07 795.18 472.50
  Q 795.03 475.95 794.90 488.68
  Q 794.82 496.52 794.04 504.80
  Q 792.43 522.00 792.38 522.37
  C 790.21 537.70 788.83 548.39 785.62 561.47
  Q 782.19 575.43 780.78 580.30
  Q 770.99 614.23 755.55 644.78
  Q 748.62 658.49 744.44 665.69
  Q 743.39 667.49 744.42 669.09
  Q 751.82 680.72 754.64 694.51
  Q 755.49 698.63 756.30 702.02
  A 0.79 0.79 0.0 0 0 757.74 702.24
  Z"
/>
<path fill="#f57f26" d="
  M 757.74 702.24
  A 0.79 0.79 0.0 0 1 756.30 702.02
  Q 755.49 698.63 754.64 694.51
  Q 751.82 680.72 744.42 669.09
  Q 743.39 667.49 744.44 665.69
  Q 748.62 658.49 755.55 644.78
  Q 770.99 614.23 780.78 580.30
  Q 782.19 575.43 785.62 561.47
  C 788.83 548.39 790.21 537.70 792.38 522.37
  Q 792.43 522.00 794.04 504.80
  Q 794.82 496.52 794.90 488.68
  Q 795.03 475.95 795.18 472.50
  C 795.47 466.07 794.52 458.79 794.74 452.49
  Q 794.86 448.92 794.49 444.52
  C 793.90 437.65 794.03 435.42 793.02 429.13
  Q 792.87 428.21 792.21 421.72
  Q 789.76 397.55 781.75 367.25
  Q 773.59 336.41 759.08 305.89
  Q 738.97 263.56 708.98 230.01
  Q 692.46 211.53 676.11 198.17
  Q 661.50 186.23 651.08 179.21
  Q 644.66 174.88 634.97 169.07
  Q 618.98 159.49 598.30 150.57
  Q 573.68 139.95 546.26 134.79
  Q 531.49 132.01 519.38 130.63
  Q 507.80 129.31 479.60 129.06
  Q 476.15 129.03 470.43 129.57
  Q 467.53 129.85 461.26 130.29
  Q 439.62 131.81 415.54 137.85
  Q 361.90 151.31 314.79 182.84
  Q 292.62 197.68 274.03 214.79
  Q 265.36 222.77 263.93 224.18
  Q 247.72 240.19 236.06 254.80
  Q 235.79 255.13 233.84 257.61
  Q 223.07 271.22 215.91 281.62
  Q 207.10 294.43 200.01 307.03
  Q 176.80 348.31 163.45 393.45
  Q 162.61 396.30 158.65 412.23
  Q 156.01 422.89 154.62 431.20
  Q 151.97 447.06 150.46 459.48
  Q 150.10 462.37 148.80 478.32
  Q 148.02 487.85 148.00 497.20
  Q 147.96 519.65 148.13 523.25
  Q 150.11 565.47 161.06 606.93
  Q 172.20 649.09 193.67 687.62
  Q 216.41 728.44 249.16 761.10
  Q 255.23 767.15 267.81 777.91
  Q 276.87 785.66 287.63 793.27
  C 303.95 804.80 322.39 815.82 340.20 823.49
  Q 390.80 845.27 445.04 848.42
  Q 454.67 848.98 470.84 848.41
  Q 483.96 847.95 496.54 846.09
  Q 539.66 839.70 578.20 821.40
  C 585.62 817.89 595.97 812.06 601.78 808.84
  A 0.95 0.93 43.5 0 1 602.68 808.83
  Q 604.66 809.85 606.31 810.42
  Q 627.41 817.70 649.66 815.64
  A 0.71 0.71 0.0 0 1 650.14 816.93
  Q 600.24 852.57 540.50 869.47
  Q 519.95 875.29 497.52 878.55
  Q 490.11 879.63 482.83 880.00
  Q 469.15 880.70 469.13 880.70
  Q 453.92 881.06 451.50 880.87
  Q 442.78 880.22 433.63 879.86
  Q 430.19 879.72 423.91 878.79
  Q 423.76 878.77 414.24 877.34
  Q 393.08 874.16 371.19 868.10
  C 345.69 861.04 320.93 850.71 298.31 837.25
  Q 270.55 820.72 245.92 799.19
  C 240.60 794.54 237.78 791.71 231.32 785.42
  Q 212.90 767.48 195.92 744.37
  Q 179.59 722.15 166.42 697.56
  Q 159.42 684.47 154.58 672.70
  C 152.17 666.83 147.18 655.01 144.25 646.51
  Q 127.67 598.54 123.16 548.31
  C 122.87 545.09 122.80 540.35 122.23 536.40
  Q 122.02 534.93 121.91 531.63
  Q 121.30 512.86 121.31 506.76
  Q 121.31 490.41 122.84 469.75
  Q 126.88 415.04 144.91 362.67
  Q 150.70 345.85 159.03 326.76
  Q 179.47 279.90 210.39 240.88
  Q 212.70 237.96 220.21 228.86
  Q 224.95 223.11 228.31 219.65
  C 231.54 216.34 235.24 211.64 239.35 207.55
  Q 271.08 175.99 306.37 153.36
  Q 337.39 133.47 375.19 119.14
  Q 418.86 102.57 464.27 98.84
  Q 495.01 96.31 523.25 98.90
  Q 549.48 101.32 572.89 107.15
  C 585.83 110.37 600.88 115.45 613.55 120.98
  Q 640.34 132.68 664.12 148.38
  Q 666.14 149.72 674.65 155.67
  Q 680.47 159.74 684.62 163.09
  Q 691.18 168.37 694.26 170.98
  Q 731.25 202.31 758.35 243.67
  Q 765.84 255.10 774.67 271.05
  Q 782.43 285.06 788.76 299.64
  Q 815.40 360.99 821.94 428.50
  Q 823.08 440.34 823.31 454.16
  Q 823.37 457.41 823.75 462.32
  Q 824.00 465.50 823.84 470.50
  Q 822.82 503.79 821.98 511.04
  Q 820.62 522.76 819.99 527.53
  Q 810.61 598.71 779.73 661.54
  Q 768.86 683.65 757.74 702.24
  Z"
/>
<path fill="#191919" d="
  M 519.86 893.45
  Q 522.71 892.54 523.50 892.42
  Q 554.98 887.86 588.64 873.16
  Q 611.53 863.17 617.63 859.89
  Q 655.25 839.63 686.76 812.49
  C 698.22 802.62 710.74 791.73 721.37 780.44
  Q 745.90 754.38 760.84 733.60
  Q 781.42 704.96 796.28 674.82
  Q 804.29 658.59 812.63 638.49
  Q 821.08 618.16 826.13 601.01
  C 832.02 581.01 836.84 561.43 839.63 541.04
  C 845.66 497.11 846.58 451.63 840.31 407.95
  Q 826.59 312.34 773.93 232.30
  C 756.20 205.35 734.05 179.80 708.97 158.80
  C 699.75 151.08 689.74 144.50 679.70 137.32
  Q 675.12 134.04 661.93 126.67
  A 0.26 0.26 0.0 0 1 661.83 126.34
  L 661.83 126.33
  A 0.25 0.25 0.0 0 1 662.13 126.19
  C 665.10 127.08 668.05 128.93 671.84 130.66
  Q 708.37 147.44 736.01 167.31
  Q 773.77 194.45 801.73 228.93
  Q 823.66 255.99 841.10 287.55
  Q 850.25 304.12 855.88 317.13
  Q 867.84 344.73 876.14 373.95
  Q 884.13 402.07 887.65 433.13
  Q 892.12 472.71 889.66 512.82
  C 888.93 524.67 887.76 531.55 885.82 546.39
  Q 882.53 571.41 873.41 603.95
  Q 867.64 624.52 859.85 643.36
  Q 835.39 702.48 793.04 754.53
  Q 774.20 777.69 754.90 794.89
  Q 721.34 824.78 682.66 846.85
  Q 658.48 860.64 634.77 869.69
  Q 617.09 876.43 597.76 881.89
  Q 580.23 886.85 559.64 889.89
  Q 539.57 892.86 519.88 893.59
  A 0.07 0.07 0.0 0 1 519.86 893.45
  Z"
/>
<path fill="#db400d" d="
  M 634.05 193.48
  L 607.30 182.21
  Q 567.14 167.21 524.45 165.31
  Q 472.93 163.66 426.34 181.57
  Q 382.76 198.32 345.72 226.21
  Q 343.39 227.96 327.52 241.72
  C 319.74 248.45 314.61 254.08 306.21 262.71
  Q 287.76 281.62 270.87 307.35
  Q 249.99 339.16 235.42 374.88
  Q 218.33 416.76 211.90 458.30
  Q 208.98 477.16 208.27 487.01
  Q 205.18 529.53 208.24 564.03
  C 213.46 622.89 234.12 680.70 268.74 729.68
  Q 279.18 744.46 287.08 753.94
  Q 300.72 770.33 318.13 783.62
  Q 318.85 784.17 319.44 786.58
  Q 301.97 775.48 290.37 765.63
  Q 288.64 764.17 278.39 754.65
  Q 271.56 748.30 266.80 743.09
  C 231.06 703.92 205.98 653.60 194.18 602.10
  Q 187.31 572.15 185.60 542.99
  Q 184.74 528.36 184.90 508.85
  Q 185.05 489.58 186.65 474.73
  Q 199.48 355.51 275.28 264.53
  Q 291.42 245.16 313.66 225.92
  C 349.91 194.57 393.40 171.78 440.51 160.76
  Q 495.10 148.00 548.80 158.71
  Q 569.68 162.87 590.64 170.80
  Q 613.51 179.45 634.05 193.48
  Z"
/>
<path fill="#f57f26" d="
  M 524.45 165.31
  Q 523.99 165.67 524.01 165.91
  Q 524.04 166.48 524.62 166.51
  Q 567.23 168.03 607.07 183.44
  A 0.50 0.50 0.0 0 0 607.73 182.85
  Q 607.67 182.60 607.30 182.21
  L 634.05 193.48
  Q 639.94 196.10 644.32 200.42
  Q 652.70 207.49 661.24 213.96
  Q 663.82 215.92 664.72 216.91
  Q 666.00 218.31 667.78 219.52
  Q 669.11 220.42 672.40 223.63
  Q 679.98 231.05 686.93 238.02
  Q 692.59 243.70 698.85 251.48
  Q 707.72 262.50 710.14 265.85
  Q 729.21 292.25 742.55 322.40
  Q 763.34 369.40 770.03 420.01
  Q 772.06 435.41 772.09 438.26
  Q 772.13 442.36 772.10 442.72
  A 6.56 6.53 41.9 0 0 772.19 444.29
  Q 772.76 447.33 772.98 452.25
  Q 773.95 474.60 772.94 491.75
  Q 772.75 494.81 772.54 496.09
  C 771.90 499.96 772.31 503.44 771.67 506.98
  Q 771.46 508.17 770.65 516.99
  Q 770.24 521.36 769.39 526.98
  Q 763.71 564.52 751.00 600.75
  Q 742.10 626.12 729.74 651.09
  A 1.21 1.21 0.0 0 1 727.73 651.34
  Q 724.96 648.06 721.41 645.09
  Q 704.17 630.67 683.25 626.36
  Q 674.26 624.51 666.71 624.14
  A 0.82 0.82 0.0 0 1 665.93 623.32
  Q 665.93 616.39 670.64 611.40
  C 674.04 607.80 679.55 608.59 683.88 609.70
  C 685.72 610.16 686.96 609.82 687.84 608.10
  C 689.73 604.43 693.27 597.58 690.09 593.93
  C 684.80 587.86 674.79 583.56 666.89 586.51
  Q 658.56 589.62 653.11 597.36
  Q 644.66 609.36 643.16 623.76
  A 1.08 1.07 89.7 0 1 642.22 624.72
  C 625.23 626.86 608.78 634.36 594.66 644.16
  Q 587.05 649.45 578.40 658.61
  C 577.05 660.03 576.37 661.54 574.86 663.10
  Q 573.86 664.13 572.18 666.44
  Q 551.21 695.30 553.06 731.49
  Q 553.29 736.02 553.91 740.51
  Q 554.88 747.59 555.28 749.49
  C 557.73 761.31 562.69 774.47 570.44 783.94
  C 573.90 788.17 576.69 792.07 580.75 794.78
  A 0.66 0.66 0.0 0 1 580.69 795.91
  C 554.91 809.13 527.09 817.83 498.89 822.42
  Q 493.80 823.24 490.22 823.58
  C 481.76 824.39 476.39 825.10 468.44 825.12
  Q 445.57 825.18 443.25 825.06
  Q 381.85 821.88 328.80 791.07
  A 0.92 0.91 44.2 0 0 327.87 791.08
  Q 327.58 791.25 327.48 791.46
  L 319.44 786.58
  Q 318.85 784.17 318.13 783.62
  Q 300.72 770.33 287.08 753.94
  Q 279.18 744.46 268.74 729.68
  C 234.12 680.70 213.46 622.89 208.24 564.03
  Q 205.18 529.53 208.27 487.01
  Q 208.98 477.16 211.90 458.30
  Q 218.33 416.76 235.42 374.88
  Q 249.99 339.16 270.87 307.35
  Q 287.76 281.62 306.21 262.71
  C 314.61 254.08 319.74 248.45 327.52 241.72
  Q 343.39 227.96 345.72 226.21
  Q 382.76 198.32 426.34 181.57
  Q 472.93 163.66 524.45 165.31
  Z
  M 410.57 673.27
  L 420.04 675.90
  Q 420.23 676.75 419.87 677.05
  A 0.31 0.30 34.6 0 0 419.97 677.57
  Q 438.24 683.67 449.82 686.12
  C 462.97 688.91 476.46 688.28 490.04 686.99
  C 505.70 685.49 522.09 680.52 536.19 674.75
  Q 545.85 670.79 558.03 663.50
  Q 573.33 654.35 582.46 647.19
  Q 598.28 634.79 613.07 616.57
  Q 637.83 586.06 649.99 547.21
  C 657.25 524.04 659.91 499.57 658.44 475.49
  Q 656.40 441.98 643.10 411.92
  Q 637.08 398.32 629.64 388.06
  Q 628.39 386.33 626.72 384.80
  L 626.55 384.21
  Q 627.49 383.88 627.09 383.13
  Q 612.44 355.11 587.44 332.64
  Q 582.31 328.03 575.21 322.95
  Q 566.02 316.36 562.18 314.21
  C 546.73 305.53 531.52 299.17 514.08 295.13
  C 508.51 293.84 502.88 293.23 496.75 292.37
  Q 490.38 291.48 477.61 291.21
  C 473.73 291.12 470.66 291.79 466.81 291.98
  Q 463.53 292.15 458.74 292.84
  Q 428.37 297.22 401.90 311.68
  Q 370.46 328.87 346.75 356.36
  C 345.36 357.98 344.69 359.42 343.35 360.51
  Q 342.68 361.06 340.70 363.55
  Q 307.06 405.91 297.12 459.21
  Q 292.43 484.36 293.35 508.93
  Q 293.95 525.16 297.61 543.94
  C 299.92 555.80 303.75 567.11 307.93 577.51
  Q 319.05 605.15 339.82 627.81
  Q 346.39 634.97 352.50 640.46
  Q 376.80 662.30 407.46 673.40
  Q 407.53 673.43 408.72 673.92
  Q 410.64 674.71 410.57 673.27
  Z"
/>
<path fill="#febf3b" d="
  M 607.30 182.21
  Q 607.67 182.60 607.73 182.85
  A 0.50 0.50 0.0 0 1 607.07 183.44
  Q 567.23 168.03 524.62 166.51
  Q 524.04 166.48 524.01 165.91
  Q 523.99 165.67 524.45 165.31
  Q 567.14 167.21 607.30 182.21
  Z"
/>
<path fill="#febf3b" d="
  M 644.32 200.42
  Q 651.46 204.49 660.15 211.59
  Q 704.21 247.63 731.57 297.69
  C 753.03 336.97 766.51 380.46 771.81 424.73
  Q 780.30 495.72 763.08 564.55
  Q 752.08 608.54 731.63 649.58
  Q 730.45 651.93 729.28 653.36
  A 0.46 0.46 0.0 0 1 728.60 653.38
  Q 703.07 626.39 665.65 625.45
  A 0.65 0.64 87.5 0 1 665.02 624.87
  Q 664.19 616.96 669.43 611.20
  C 673.61 606.59 679.80 606.93 684.92 609.02
  A 1.19 1.19 0.0 0 0 686.43 608.46
  Q 688.33 604.75 689.62 601.08
  Q 691.45 595.87 687.19 592.33
  C 679.84 586.21 669.23 584.53 661.30 590.60
  C 650.98 598.48 645.23 612.11 644.52 624.79
  A 0.96 0.95 -2.2 0 1 643.68 625.69
  C 620.39 628.55 595.76 641.27 580.34 658.12
  C 561.00 679.26 552.20 705.83 554.34 734.19
  C 555.89 754.59 561.98 772.72 575.22 788.23
  Q 578.39 791.94 582.71 795.28
  A 0.33 0.33 0.0 0 1 582.68 795.82
  Q 579.71 797.57 577.78 798.54
  Q 548.54 813.21 516.26 820.30
  Q 467.92 830.92 419.34 823.83
  Q 369.60 816.56 327.48 791.46
  Q 327.58 791.25 327.87 791.08
  A 0.92 0.91 44.2 0 1 328.80 791.07
  Q 381.85 821.88 443.25 825.06
  Q 445.57 825.18 468.44 825.12
  C 476.39 825.10 481.76 824.39 490.22 823.58
  Q 493.80 823.24 498.89 822.42
  C 527.09 817.83 554.91 809.13 580.69 795.91
  A 0.66 0.66 0.0 0 0 580.75 794.78
  C 576.69 792.07 573.90 788.17 570.44 783.94
  C 562.69 774.47 557.73 761.31 555.28 749.49
  Q 554.88 747.59 553.91 740.51
  Q 553.29 736.02 553.06 731.49
  Q 551.21 695.30 572.18 666.44
  Q 573.86 664.13 574.86 663.10
  C 576.37 661.54 577.05 660.03 578.40 658.61
  Q 587.05 649.45 594.66 644.16
  C 608.78 634.36 625.23 626.86 642.22 624.72
  A 1.08 1.07 89.7 0 0 643.16 623.76
  Q 644.66 609.36 653.11 597.36
  Q 658.56 589.62 666.89 586.51
  C 674.79 583.56 684.80 587.86 690.09 593.93
  C 693.27 597.58 689.73 604.43 687.84 608.10
  C 686.96 609.82 685.72 610.16 683.88 609.70
  C 679.55 608.59 674.04 607.80 670.64 611.40
  Q 665.93 616.39 665.93 623.32
  A 0.82 0.82 0.0 0 0 666.71 624.14
  Q 674.26 624.51 683.25 626.36
  Q 704.17 630.67 721.41 645.09
  Q 724.96 648.06 727.73 651.34
  A 1.21 1.21 0.0 0 0 729.74 651.09
  Q 742.10 626.12 751.00 600.75
  Q 763.71 564.52 769.39 526.98
  Q 770.24 521.36 770.65 516.99
  Q 771.46 508.17 771.67 506.98
  C 772.31 503.44 771.90 499.96 772.54 496.09
  Q 772.75 494.81 772.94 491.75
  Q 773.95 474.60 772.98 452.25
  Q 772.76 447.33 772.19 444.29
  A 6.56 6.53 41.9 0 1 772.10 442.72
  Q 772.13 442.36 772.09 438.26
  Q 772.06 435.41 770.03 420.01
  Q 763.34 369.40 742.55 322.40
  Q 729.21 292.25 710.14 265.85
  Q 707.72 262.50 698.85 251.48
  Q 692.59 243.70 686.93 238.02
  Q 679.98 231.05 672.40 223.63
  Q 669.11 220.42 667.78 219.52
  Q 666.00 218.31 664.72 216.91
  Q 663.82 215.92 661.24 213.96
  Q 652.70 207.49 644.32 200.42
  Z"
/>
<path fill="#febf3b" d="
  M 626.55 384.21
  C 603.18 340.49 563.79 307.90 515.12 296.69
  Q 480.75 288.77 445.35 296.58
  C 417.30 302.77 389.45 317.65 368.19 336.39
  Q 313.47 384.63 298.93 456.36
  Q 289.54 502.63 299.60 547.70
  Q 306.78 579.89 325.97 608.58
  C 335.66 623.07 348.68 636.52 361.98 647.02
  Q 383.67 664.13 410.57 673.27
  Q 410.64 674.71 408.72 673.92
  Q 407.53 673.43 407.46 673.40
  Q 376.80 662.30 352.50 640.46
  Q 346.39 634.97 339.82 627.81
  Q 319.05 605.15 307.93 577.51
  C 303.75 567.11 299.92 555.80 297.61 543.94
  Q 293.95 525.16 293.35 508.93
  Q 292.43 484.36 297.12 459.21
  Q 307.06 405.91 340.70 363.55
  Q 342.68 361.06 343.35 360.51
  C 344.69 359.42 345.36 357.98 346.75 356.36
  Q 370.46 328.87 401.90 311.68
  Q 428.37 297.22 458.74 292.84
  Q 463.53 292.15 466.81 291.98
  C 470.66 291.79 473.73 291.12 477.61 291.21
  Q 490.38 291.48 496.75 292.37
  C 502.88 293.23 508.51 293.84 514.08 295.13
  C 531.52 299.17 546.73 305.53 562.18 314.21
  Q 566.02 316.36 575.21 322.95
  Q 582.31 328.03 587.44 332.64
  Q 612.44 355.11 627.09 383.13
  Q 627.49 383.88 626.55 384.21
  Z"
/>
<path fill="#000000" d="
  M 626.55 384.21
  L 626.72 384.80
  Q 644.87 419.89 647.59 459.25
  Q 649.32 484.14 646.30 505.36
  C 637.86 564.69 603.11 619.45 552.71 652.96
  Q 519.47 675.05 480.51 679.73
  Q 449.92 683.41 420.04 675.90
  L 410.57 673.27
  Q 383.67 664.13 361.98 647.02
  C 348.68 636.52 335.66 623.07 325.97 608.58
  Q 306.78 579.89 299.60 547.70
  Q 289.54 502.63 298.93 456.36
  Q 313.47 384.63 368.19 336.39
  C 389.45 317.65 417.30 302.77 445.35 296.58
  Q 480.75 288.77 515.12 296.69
  C 563.79 307.90 603.18 340.49 626.55 384.21
  Z
  M 518.92 318.81
  C 492.59 310.21 463.43 310.59 436.74 318.49
  Q 402.45 328.63 376.05 352.61
  Q 329.62 394.78 316.39 456.84
  C 305.85 506.28 313.02 559.86 343.18 601.21
  Q 363.37 628.88 392.91 644.48
  C 423.66 660.72 459.70 665.27 493.46 657.02
  C 525.37 649.23 553.84 629.54 576.21 604.17
  Q 618.73 555.96 623.97 491.76
  Q 627.63 446.85 611.45 406.51
  C 595.07 365.68 560.92 332.52 518.92 318.81
  Z"
/>
<path fill="#db400d" d="
  M 436.74 318.49
  C 463.43 310.59 492.59 310.21 518.92 318.81
  C 560.92 332.52 595.07 365.68 611.45 406.51
  Q 627.63 446.85 623.97 491.76
  Q 618.73 555.96 576.21 604.17
  C 553.84 629.54 525.37 649.23 493.46 657.02
  C 459.70 665.27 423.66 660.72 392.91 644.48
  Q 363.37 628.88 343.18 601.21
  C 313.02 559.86 305.85 506.28 316.39 456.84
  Q 329.62 394.78 376.05 352.61
  Q 402.45 328.63 436.74 318.49
  Z
  M 367.03 513.02
  Q 370.81 540.64 387.00 562.25
  C 399.48 578.91 419.21 591.48 439.64 596.10
  C 471.87 603.39 501.61 593.74 526.20 572.65
  Q 553.57 549.17 564.05 515.76
  C 572.87 487.61 570.01 455.47 556.31 429.70
  C 541.22 401.35 516.26 382.28 484.31 377.24
  C 461.34 373.62 436.51 380.78 417.94 393.91
  C 379.73 420.91 360.72 466.90 367.03 513.02
  Z"
/>
<path fill="#000000" d="
  M 367.03 513.02
  C 360.72 466.90 379.73 420.91 417.94 393.91
  C 436.51 380.78 461.34 373.62 484.31 377.24
  C 516.26 382.28 541.22 401.35 556.31 429.70
  C 570.01 455.47 572.87 487.61 564.05 515.76
  Q 553.57 549.17 526.20 572.65
  C 501.61 593.74 471.87 603.39 439.64 596.10
  C 419.21 591.48 399.48 578.91 387.00 562.25
  Q 370.81 540.64 367.03 513.02
  Z
  M 484.50 398.21
  Q 481.78 396.93 477.73 396.32
  Q 451.78 392.38 430.59 406.09
  C 418.37 413.99 407.13 425.43 399.62 438.89
  C 395.02 447.13 392.60 450.86 390.33 457.87
  Q 381.98 483.62 385.68 510.30
  Q 387.95 526.70 395.62 540.75
  Q 409.88 566.88 437.86 575.89
  C 441.95 577.20 446.84 578.56 450.08 578.90
  Q 453.19 579.23 456.06 579.94
  A 0.38 0.38 0.0 0 0 456.39 579.27
  Q 455.49 578.56 450.69 575.02
  Q 444.58 570.51 439.65 564.32
  Q 419.49 538.98 418.13 505.50
  C 416.81 472.69 428.20 440.78 451.53 417.53
  C 460.28 408.80 472.27 400.24 484.41 398.76
  A 0.29 0.29 0.0 0 0 484.50 398.21
  Z
  M 487.66 572.91
  C 490.80 571.69 495.11 570.44 498.81 568.56
  Q 515.21 560.21 526.86 546.37
  Q 538.81 532.18 544.72 514.82
  Q 547.18 507.59 548.39 499.49
  Q 549.47 492.25 549.83 483.74
  Q 550.01 479.50 548.97 470.50
  Q 546.79 451.49 537.63 435.64
  Q 528.66 420.11 513.54 410.89
  A 4.10 4.09 56.2 0 0 510.78 410.34
  C 502.22 411.66 493.20 413.89 485.83 417.74
  Q 470.99 425.48 461.15 437.40
  Q 444.82 457.19 440.27 484.44
  C 439.83 487.05 440.15 489.19 439.55 491.77
  Q 439.14 493.52 439.03 497.25
  C 438.13 527.40 449.15 553.98 476.61 568.74
  C 479.63 570.37 482.71 571.29 485.62 572.81
  A 2.49 2.48 47.6 0 0 487.66 572.91
  Z"
/>
<path fill="#db400d" d="
  M 420.04 675.90
  Q 449.92 683.41 480.51 679.73
  Q 519.47 675.05 552.71 652.96
  C 603.11 619.45 637.86 564.69 646.30 505.36
  Q 649.32 484.14 647.59 459.25
  Q 644.87 419.89 626.72 384.80
  Q 628.39 386.33 629.64 388.06
  Q 637.08 398.32 643.10 411.92
  Q 656.40 441.98 658.44 475.49
  C 659.91 499.57 657.25 524.04 649.99 547.21
  Q 637.83 586.06 613.07 616.57
  Q 598.28 634.79 582.46 647.19
  Q 573.33 654.35 558.03 663.50
  Q 545.85 670.79 536.19 674.75
  C 522.09 680.52 505.70 685.49 490.04 686.99
  C 476.46 688.28 462.97 688.91 449.82 686.12
  Q 438.24 683.67 419.97 677.57
  A 0.31 0.30 34.6 0 1 419.87 677.05
  Q 420.23 676.75 420.04 675.90
  Z"
/>
<path fill="#191919" d="
  M 484.50 398.21
  A 0.29 0.29 0.0 0 1 484.41 398.76
  C 472.27 400.24 460.28 408.80 451.53 417.53
  C 428.20 440.78 416.81 472.69 418.13 505.50
  Q 419.49 538.98 439.65 564.32
  Q 444.58 570.51 450.69 575.02
  Q 455.49 578.56 456.39 579.27
  A 0.38 0.38 0.0 0 1 456.06 579.94
  Q 453.19 579.23 450.08 578.90
  C 446.84 578.56 441.95 577.20 437.86 575.89
  Q 409.88 566.88 395.62 540.75
  Q 387.95 526.70 385.68 510.30
  Q 381.98 483.62 390.33 457.87
  C 392.60 450.86 395.02 447.13 399.62 438.89
  C 407.13 425.43 418.37 413.99 430.59 406.09
  Q 451.78 392.38 477.73 396.32
  Q 481.78 396.93 484.50 398.21
  Z"
/>
<path fill="#febf3b" d="
  M 694.16 669.33
  A 0.44 0.44 0.0 0 1 694.89 669.32
  Q 702.84 680.99 708.17 693.77
  Q 710.37 699.04 711.09 704.20
  A 0.85 0.85 0.0 0 1 710.61 705.09
  Q 708.42 706.13 705.25 706.51
  Q 692.18 708.05 683.25 708.10
  Q 678.58 708.12 674.67 707.20
  A 1.00 1.00 0.0 0 1 673.95 705.91
  C 678.30 693.10 684.03 685.47 694.16 669.33
  Z
  M 694.13 671.21
  C 684.83 686.09 679.56 693.13 675.58 704.93
  A 0.92 0.92 0.0 0 0 676.24 706.12
  Q 679.85 706.96 684.15 706.94
  Q 692.38 706.87 704.41 705.43
  Q 707.33 705.08 709.35 704.12
  A 0.79 0.78 -17.0 0 0 709.79 703.30
  Q 709.12 698.54 707.08 693.69
  Q 702.15 681.93 694.81 671.19
  A 0.40 0.40 0.0 0 0 694.13 671.21
  Z"
/>
<path fill="#f57f26" d="
  M 694.13 671.21
  A 0.40 0.40 0.0 0 1 694.81 671.19
  Q 702.15 681.93 707.08 693.69
  Q 709.12 698.54 709.79 703.30
  A 0.79 0.78 -17.0 0 1 709.35 704.12
  Q 707.33 705.08 704.41 705.43
  Q 692.38 706.87 684.15 706.94
  Q 679.85 706.96 676.24 706.12
  A 0.92 0.92 0.0 0 1 675.58 704.93
  C 679.56 693.13 684.83 686.09 694.13 671.21
  Z"
/>
<path fill="#febf3b" d="
  M 608.65 672.23
  Q 608.71 672.23 608.77 672.25
  A 0.34 0.19 68.4 0 1 608.94 672.39
  Q 617.79 685.43 623.56 698.65
  Q 626.17 704.62 627.29 709.51
  A 0.63 0.62 -12.0 0 1 626.80 710.26
  Q 618.15 711.96 608.52 711.93
  Q 598.89 711.90 590.25 710.13
  A 0.63 0.62 12.4 0 1 589.76 709.38
  Q 590.91 704.50 593.56 698.55
  Q 599.42 685.37 608.36 672.39
  A 0.34 0.19 -68.0 0 1 608.53 672.25
  Q 608.59 672.23 608.65 672.23
  Z
  M 608.52 710.37
  C 614.98 710.38 620.60 710.52 625.29 709.12
  A 0.83 0.83 0.0 0 0 625.84 708.08
  C 621.96 696.13 615.94 685.23 608.87 674.11
  A 0.09 0.06 71.0 0 0 608.82 674.07
  Q 608.69 674.02 608.55 674.02
  Q 608.40 674.02 608.27 674.07
  A 0.09 0.06 -70.9 0 0 608.23 674.11
  C 601.14 685.22 595.10 696.11 591.20 708.05
  A 0.83 0.83 0.0 0 0 591.75 709.09
  C 596.44 710.51 602.06 710.37 608.52 710.37
  Z"
/>
<path fill="#f57f26" d="
  M 608.55 674.02
  Q 608.69 674.02 608.82 674.07
  A 0.09 0.06 71.0 0 1 608.87 674.11
  C 615.94 685.23 621.96 696.13 625.84 708.08
  A 0.83 0.83 0.0 0 1 625.29 709.12
  C 620.60 710.52 614.98 710.38 608.52 710.37
  C 602.06 710.37 596.44 710.51 591.75 709.09
  A 0.83 0.83 0.0 0 1 591.20 708.05
  C 595.10 696.11 601.14 685.22 608.23 674.11
  A 0.09 0.06 -70.9 0 1 608.27 674.07
  Q 608.40 674.02 608.55 674.02
  Z"
/>
<path fill="#febf3b" d="
  M 648.84 711.08
  A 0.49 0.49 0.0 0 1 649.67 711.10
  L 659.71 728.50
  A 0.99 0.99 0.0 0 1 659.08 729.96
  C 652.41 731.53 644.54 732.35 638.38 729.79
  A 1.19 1.19 0.0 0 1 637.84 728.05
  L 648.84 711.08
  Z
  M 648.76 712.89
  L 639.44 727.44
  A 1.02 1.01 27.5 0 0 639.91 728.92
  C 645.19 731.08 651.91 730.34 657.60 728.97
  A 0.84 0.84 0.0 0 0 658.13 727.72
  L 649.47 712.90
  A 0.42 0.42 0.0 0 0 648.76 712.89
  Z"
/>
<path fill="#f57f26" d="
  M 648.76 712.89
  A 0.42 0.42 0.0 0 1 649.47 712.90
  L 658.13 727.72
  A 0.84 0.84 0.0 0 1 657.60 728.97
  C 651.91 730.34 645.19 731.08 639.91 728.92
  A 1.02 1.01 27.5 0 1 639.44 727.44
  L 648.76 712.89
  Z"
/>
<path fill="#febf3b" d="
  M 720.98 730.04
  A 0.21 0.20 80.3 0 1 721.30 730.27
  C 712.00 758.37 688.36 777.03 659.59 782.82
  A 0.35 0.35 0.0 0 1 659.17 782.50
  L 658.24 769.94
  A 0.48 0.48 0.0 0 0 657.76 769.50
  L 639.70 769.50
  A 0.64 0.64 0.0 0 0 639.06 770.07
  L 637.86 781.05
  A 1.08 1.07 -84.7 0 1 636.72 782.00
  Q 631.13 781.61 625.23 780.25
  C 602.46 775.03 587.01 757.29 582.95 734.63
  A 0.31 0.31 0.0 0 1 583.47 734.36
  Q 594.13 745.39 609.40 749.28
  A 0.74 0.74 0.0 0 1 609.96 750.00
  L 609.96 760.22
  A 1.66 1.64 6.7 0 0 611.24 761.82
  L 624.49 764.89
  A 0.49 0.48 12.7 0 0 625.07 764.53
  L 627.30 754.89
  A 0.80 0.80 0.0 0 1 628.17 754.27
  Q 649.52 756.72 672.37 752.74
  A 1.17 1.16 -10.8 0 1 673.71 753.64
  L 675.67 762.68
  A 0.91 0.91 0.0 0 0 676.90 763.33
  L 691.87 757.35
  A 2.28 2.28 0.0 0 0 693.30 755.36
  L 693.83 745.35
  A 1.29 1.29 0.0 0 1 694.63 744.22
  C 704.21 740.35 713.12 736.31 720.98 730.04
  Z
  M 585.20 738.33
  C 586.42 746.69 590.92 754.85 596.24 761.47
  C 605.99 773.60 620.42 779.91 635.95 780.43
  A 1.00 1.00 0.0 0 0 636.99 779.43
  Q 637.02 774.21 638.50 768.93
  A 0.97 0.95 -81.9 0 1 639.42 768.23
  L 657.19 768.23
  A 2.48 2.47 -0.0 0 1 659.67 770.70
  L 659.67 780.08
  A 1.35 1.34 83.4 0 0 661.32 781.39
  Q 678.61 777.37 693.19 767.11
  C 695.54 765.45 697.38 763.49 699.70 761.85
  Q 701.87 760.32 704.27 757.59
  Q 713.54 747.09 718.62 734.62
  A 0.52 0.52 0.0 0 0 718.09 733.91
  Q 717.64 733.95 717.38 734.12
  Q 707.14 740.59 695.88 744.68
  A 1.64 1.64 0.0 0 0 694.80 746.18
  C 694.70 749.74 695.47 757.03 691.94 758.41
  Q 679.62 763.24 677.22 764.13
  A 1.77 1.76 -18.1 0 1 674.91 762.96
  L 672.60 754.83
  A 1.22 1.22 0.0 0 0 671.19 753.97
  Q 650.37 758.04 629.31 755.53
  A 1.16 1.15 9.7 0 0 628.05 756.42
  L 626.31 763.94
  A 2.45 2.45 0.0 0 1 623.35 765.76
  L 610.98 762.81
  A 1.89 1.88 76.1 0 1 610.02 762.23
  C 608.36 760.61 608.89 755.86 608.87 751.28
  A 1.30 1.30 0.0 0 0 607.92 750.04
  Q 595.01 746.44 585.88 737.98
  A 0.41 0.40 17.6 0 0 585.20 738.33
  Z"
/>
<path fill="#f57f26" d="
  M 585.20 738.33
  A 0.41 0.40 17.6 0 1 585.88 737.98
  Q 595.01 746.44 607.92 750.04
  A 1.30 1.30 0.0 0 1 608.87 751.28
  C 608.89 755.86 608.36 760.61 610.02 762.23
  A 1.89 1.88 76.1 0 0 610.98 762.81
  L 623.35 765.76
  A 2.45 2.45 0.0 0 0 626.31 763.94
  L 628.05 756.42
  A 1.16 1.15 9.7 0 1 629.31 755.53
  Q 650.37 758.04 671.19 753.97
  A 1.22 1.22 0.0 0 1 672.60 754.83
  L 674.91 762.96
  A 1.77 1.76 -18.1 0 0 677.22 764.13
  Q 679.62 763.24 691.94 758.41
  C 695.47 757.03 694.70 749.74 694.80 746.18
  A 1.64 1.64 0.0 0 1 695.88 744.68
  Q 707.14 740.59 717.38 734.12
  Q 717.64 733.95 718.09 733.91
  A 0.52 0.52 0.0 0 1 718.62 734.62
  Q 713.54 747.09 704.27 757.59
  Q 701.87 760.32 699.70 761.85
  C 697.38 763.49 695.54 765.45 693.19 767.11
  Q 678.61 777.37 661.32 781.39
  A 1.35 1.34 83.4 0 1 659.67 780.08
  L 659.67 770.70
  A 2.48 2.47 0.0 0 0 657.19 768.23
  L 639.42 768.23
  A 0.97 0.95 -81.9 0 0 638.50 768.93
  Q 637.02 774.21 636.99 779.43
  A 1.00 1.00 0.0 0 1 635.95 780.43
  C 620.42 779.91 605.99 773.60 596.24 761.47
  C 590.92 754.85 586.42 746.69 585.20 738.33
  Z"
/>
</svg>
