<?xml version="1.0" encoding="UTF-8" standalone="no"?>
<!DOCTYPE svg PUBLIC "-//W3C//DTD SVG 1.1//EN" "http://www.w3.org/Graphics/SVG/1.1/DTD/svg11.dtd">
<svg xmlns="http://www.w3.org/2000/svg" version="1.1" viewBox="0.00 0.00 1024.00 1024.00">
<g stroke-width="2.00" fill="none" stroke-linecap="butt">
<path stroke="#80721c" vector-effect="non-scaling-stroke" d="
  M 202.20 270.07
  Q 186.17 296.23 174.48 322.21
  Q 136.43 406.72 136.68 500.17"
/>
<path stroke="#357925" vector-effect="non-scaling-stroke" d="
  M 136.68 500.17
  Q 137.89 559.46 154.47 616.29"
/>
<path stroke="#10246e" vector-effect="non-scaling-stroke" d="
  M 154.47 616.29
  Q 173.10 678.68 211.66 731.55"
/>
<path stroke="#330a5b" vector-effect="non-scaling-stroke" d="
  M 211.66 731.55
  Q 237.46 766.45 268.51 793.25
  Q 329.18 845.62 407.77 861.59
  Q 432.94 866.70 459.94 868.04
  Q 484.02 869.24 512.44 865.61
  Q 551.91 860.55 585.39 847.39
  Q 640.69 825.64 686.01 786.52
  Q 712.50 763.66 737.27 730.96"
/>
<path stroke="#10246e" vector-effect="non-scaling-stroke" d="
  M 737.27 730.96
  Q 752.07 711.43 764.34 690.06
  Q 784.55 654.82 798.86 616.80"
/>
<path stroke="#357925" vector-effect="non-scaling-stroke" d="
  M 798.86 616.80
  Q 819.70 560.45 825.43 500.27"
/>
<path stroke="#80721c" vector-effect="non-scaling-stroke" d="
  M 825.43 500.27
  Q 828.12 469.92 826.80 444.50
  Q 821.49 342.45 768.86 253.64"
/>
<path stroke="#6a090f" vector-effect="non-scaling-stroke" d="
  M 768.86 253.64
  Q 767.98 252.47 767.40 251.40
  Q 766.18 249.17 766.11 249.06
  Q 738.79 206.01 702.76 173.71
  C 646.79 123.54 572.62 94.80 497.24 94.26
  Q 483.48 94.16 471.19 95.47
  Q 430.62 99.79 392.12 114.14
  Q 362.45 125.20 335.81 140.32
  Q 267.20 179.26 220.60 243.11
  Q 211.00 256.27 202.20 270.07"
/>
<path stroke="#ea7b2b" vector-effect="non-scaling-stroke" d="
  M 768.86 253.64
  L 729.85 254.24"
/>
<path stroke="#6a090f" vector-effect="non-scaling-stroke" d="
  M 729.85 254.24
  Q 721.22 241.92 717.55 237.20
  C 676.68 184.74 617.20 147.40 551.72 135.36
  Q 520.93 129.69 490.75 130.46
  C 480.33 130.73 470.99 131.01 462.20 132.11
  Q 436.16 135.35 416.19 140.96
  Q 370.96 153.67 329.99 179.24
  Q 306.73 193.76 284.26 214.50
  Q 262.66 234.43 246.37 255.37
  Q 243.96 258.47 235.84 269.66"
/>
<path stroke="#ea7b2b" vector-effect="non-scaling-stroke" d="
  M 235.84 269.66
  L 202.20 270.07"
/>
<path stroke="#b4eb41" vector-effect="non-scaling-stroke" d="
  M 825.43 500.27
  Q 824.83 500.53 824.72 500.33"
/>
<path stroke="#909b26" vector-effect="non-scaling-stroke" d="
  M 824.72 500.33
  Q 824.45 499.74 823.99 499.74
  Q 808.73 499.71 793.47 499.73
  Q 792.99 499.73 792.72 500.17"
/>
<path stroke="#b4eb41" vector-effect="non-scaling-stroke" d="
  M 792.72 500.17
  L 792.24 500.44"
/>
<path stroke="#b4eb41" vector-effect="non-scaling-stroke" d="
  M 166.22 500.01
  L 165.44 500.20"
/>
<path stroke="#909b26" vector-effect="non-scaling-stroke" d="
  M 165.44 500.20
  Q 164.93 499.75 164.47 499.75
  Q 155.37 499.58 138.75 499.63
  Q 137.58 499.64 137.23 500.46"
/>
<path stroke="#b4eb41" vector-effect="non-scaling-stroke" d="
  M 137.23 500.46
  L 136.68 500.17"
/>
<path stroke="#80721c" vector-effect="non-scaling-stroke" d="
  M 729.85 254.24
  Q 773.50 320.78 786.97 398.51
  Q 794.16 440.03 792.95 483.52
  Q 792.92 484.77 792.39 491.97
  Q 792.07 496.21 792.24 500.44"
/>
<path stroke="#357925" vector-effect="non-scaling-stroke" d="
  M 792.24 500.44
  Q 787.54 560.04 765.64 616.03"
/>
<path stroke="#10246e" vector-effect="non-scaling-stroke" d="
  M 765.64 616.03
  Q 760.43 628.65 758.74 632.49
  Q 736.50 682.92 701.15 725.16
  Q 698.74 728.05 696.37 730.97"
/>
<path stroke="#330a5b" vector-effect="non-scaling-stroke" d="
  M 696.37 730.97
  Q 669.10 760.09 633.92 783.65
  Q 586.82 815.21 534.11 827.06
  Q 498.44 835.08 460.08 833.64
  C 416.10 831.98 374.21 819.96 335.61 799.40
  Q 285.96 772.96 250.25 730.49"
/>
<path stroke="#10246e" vector-effect="non-scaling-stroke" d="
  M 250.25 730.49
  C 221.05 696.46 200.91 658.66 187.01 616.41"
/>
<path stroke="#357925" vector-effect="non-scaling-stroke" d="
  M 187.01 616.41
  Q 168.05 559.92 166.22 500.01"
/>
<path stroke="#80721c" vector-effect="non-scaling-stroke" d="
  M 166.22 500.01
  C 166.31 466.56 169.87 432.19 177.93 400.15
  Q 181.94 384.18 184.19 376.69
  C 195.73 338.36 213.25 302.69 235.84 269.66"
/>
<path stroke="#449d93" vector-effect="non-scaling-stroke" d="
  M 798.86 616.80
  Q 798.04 616.38 798.06 615.78"
/>
<path stroke="#51c23c" vector-effect="non-scaling-stroke" d="
  M 798.06 615.78
  Q 815.72 568.24 822.19 518.24
  Q 823.31 509.59 824.21 500.88"
/>
<path stroke="#45a22f" vector-effect="non-scaling-stroke" d="
  M 824.72 500.33
  L 824.21 500.88"
/>
<path stroke="#2c7220" vector-effect="non-scaling-stroke" d="
  M 824.21 500.88
  L 793.37 500.80
  A 0.78 0.76 58.3 0 1 793.01 500.71
  Q 792.88 500.64 792.76 500.57"
/>
<path stroke="#45a22f" vector-effect="non-scaling-stroke" d="
  M 792.76 500.57
  L 792.72 500.17"
/>
<path stroke="#51c23c" vector-effect="non-scaling-stroke" d="
  M 792.76 500.57
  Q 792.63 512.14 791.66 518.13
  C 790.15 527.52 789.03 537.01 787.31 545.40
  Q 780.63 577.88 770.48 606.02
  Q 767.93 613.09 767.14 615.85"
/>
<path stroke="#449d93" vector-effect="non-scaling-stroke" d="
  M 767.14 615.85
  Q 766.16 616.54 765.64 616.03"
/>
<path stroke="#45a22f" vector-effect="non-scaling-stroke" d="
  M 165.44 500.20
  Q 165.77 500.42 165.42 500.91"
/>
<path stroke="#2c7220" vector-effect="non-scaling-stroke" d="
  M 165.42 500.91
  L 137.57 501.13"
/>
<path stroke="#45a22f" vector-effect="non-scaling-stroke" d="
  M 137.57 501.13
  L 137.23 500.46"
/>
<path stroke="#51c23c" vector-effect="non-scaling-stroke" d="
  M 137.57 501.13
  C 138.15 511.40 138.51 522.41 139.43 531.94
  Q 143.56 574.76 155.46 615.97"
/>
<path stroke="#449d93" vector-effect="non-scaling-stroke" d="
  M 155.46 615.97
  Q 155.26 616.17 154.47 616.29"
/>
<path stroke="#449d93" vector-effect="non-scaling-stroke" d="
  M 187.01 616.41
  L 185.03 615.81"
/>
<path stroke="#51c23c" vector-effect="non-scaling-stroke" d="
  M 185.03 615.81
  Q 185.42 614.59 185.16 613.82
  Q 175.01 583.77 170.17 552.72
  Q 168.93 544.78 167.40 533.02
  C 167.04 530.28 166.87 526.53 166.37 522.89
  Q 165.48 516.53 165.42 500.91"
/>
<path stroke="#422ec9" vector-effect="non-scaling-stroke" d="
  M 250.25 730.49
  L 214.21 731.36
  A 2.11 2.10 55.1 0 1 213.38 731.21
  Q 211.61 730.53 211.66 731.55"
/>
<path stroke="#422ec9" vector-effect="non-scaling-stroke" d="
  M 737.27 730.96
  Q 737.08 729.73 736.16 730.85
  A 0.88 0.86 19.1 0 1 735.48 731.17
  L 698.00 730.93
  A 0.05 0.03 13.3 0 0 697.97 730.94
  Q 697.22 731.44 696.37 730.97"
/>
<path stroke="#2c6d85" vector-effect="non-scaling-stroke" d="
  M 798.06 615.78
  L 767.14 615.85"
/>
<path stroke="#2c6d85" vector-effect="non-scaling-stroke" d="
  M 185.03 615.81
  L 155.46 615.97"
/>
<path stroke="#7a4514" vector-effect="non-scaling-stroke" d="
  M 790.96 253.56
  Q 795.44 261.99 799.78 270.36
  Q 827.68 324.12 839.70 383.59"
/>
<path stroke="#80721c" vector-effect="non-scaling-stroke" d="
  M 839.70 383.59
  Q 851.03 441.11 846.82 499.77"
/>
<path stroke="#1c4917" vector-effect="non-scaling-stroke" d="
  M 846.82 499.77
  Q 842.52 559.80 821.83 616.21"
/>
<path stroke="#330a5b" vector-effect="non-scaling-stroke" d="
  M 821.83 616.21
  Q 808.72 651.47 790.53 684.33
  Q 759.39 740.61 712.97 785.96
  Q 690.13 808.26 663.59 826.56
  Q 642.34 841.21 619.71 851.39
  A 0.30 0.30 0.0 0 0 619.58 851.81
  L 619.74 852.08
  A 0.17 0.17 0.0 0 0 619.95 852.16
  L 633.50 847.08"
/>
<path stroke="#260d3a" vector-effect="non-scaling-stroke" d="
  M 633.50 847.08
  Q 642.32 844.85 649.78 841.27"
/>
<path stroke="#330a5b" vector-effect="non-scaling-stroke" d="
  M 649.78 841.27
  Q 664.45 835.45 676.81 828.83
  Q 723.90 803.58 761.44 764.68
  Q 773.91 751.76 790.05 730.95"
/>
<path stroke="#10246e" vector-effect="non-scaling-stroke" d="
  M 790.05 730.95
  Q 817.29 694.02 836.34 653.35
  Q 844.47 636.01 851.58 616.06"
/>
<path stroke="#1c4917" vector-effect="non-scaling-stroke" d="
  M 851.58 616.06
  Q 871.38 560.07 875.19 500.74"
/>
<path stroke="#10290a" vector-effect="non-scaling-stroke" d="
  M 875.19 500.74
  L 875.28 499.74"
/>
<path stroke="#80721c" vector-effect="non-scaling-stroke" d="
  M 875.28 499.74
  Q 875.73 499.31 875.76 498.77
  Q 876.83 474.14 875.81 449.50
  Q 874.65 421.87 867.82 388.80
  Q 867.29 386.26 866.93 383.71"
/>
<path stroke="#7a4514" vector-effect="non-scaling-stroke" d="
  M 866.93 383.71
  Q 859.62 352.79 848.03 323.16
  Q 833.70 286.52 812.60 253.80"
/>
<path stroke="#430003" vector-effect="non-scaling-stroke" d="
  M 812.60 253.80
  Q 807.55 245.67 799.64 235.11
  Q 782.30 211.96 764.71 194.05
  Q 750.63 179.72 731.11 164.69
  Q 730.20 163.99 720.58 157.51
  C 713.12 152.48 705.67 148.82 697.96 144.05
  A 0.42 0.41 -43.9 0 0 697.53 144.05
  L 697.23 144.22
  A 0.44 0.43 48.4 0 0 697.19 144.95
  Q 703.41 149.60 704.95 150.80
  Q 706.73 152.19 720.49 164.57
  Q 727.72 171.07 735.30 179.10
  Q 767.40 213.15 790.96 253.56"
/>
<path stroke="#bd4516" vector-effect="non-scaling-stroke" d="
  M 812.60 253.80
  L 798.04 254.41"
/>
<path stroke="#912005" vector-effect="non-scaling-stroke" d="
  M 798.04 254.41
  Q 795.75 253.90 792.49 254.31"
/>
<path stroke="#bd4516" vector-effect="non-scaling-stroke" d="
  M 792.49 254.31
  Q 791.45 253.02 790.96 253.56"
/>
<path stroke="#c86516" vector-effect="non-scaling-stroke" d="
  M 792.49 254.31
  Q 803.95 274.54 813.39 295.87
  Q 821.60 314.43 828.25 335.50
  Q 835.87 359.64 840.39 382.45
  Q 840.50 383.05 840.38 383.61"
/>
<path stroke="#fab630" vector-effect="non-scaling-stroke" d="
  M 840.38 383.61
  Q 839.63 383.82 839.70 383.59"
/>
<path stroke="#ce921f" vector-effect="non-scaling-stroke" d="
  M 866.05 383.94
  L 865.73 384.22"
/>
<path stroke="#9d6203" vector-effect="non-scaling-stroke" d="
  M 865.73 384.22
  L 841.22 384.37"
/>
<path stroke="#ce921f" vector-effect="non-scaling-stroke" d="
  M 841.22 384.37
  L 840.38 383.61"
/>
<path stroke="#fab630" vector-effect="non-scaling-stroke" d="
  M 866.93 383.71
  L 866.05 383.94"
/>
<path stroke="#c86516" vector-effect="non-scaling-stroke" d="
  M 866.05 383.94
  C 865.22 382.50 865.24 380.62 864.93 379.43
  Q 862.88 371.64 857.99 355.27
  Q 842.01 301.79 812.25 255.43
  A 1.54 1.53 -23.1 0 0 810.59 254.77
  Q 809.02 255.15 807.20 255.01
  Q 805.90 254.90 803.80 255.13
  Q 800.69 255.47 798.04 254.41"
/>
<path stroke="#cfb41c" vector-effect="non-scaling-stroke" d="
  M 841.22 384.37
  Q 847.89 419.46 848.91 448.50
  Q 849.10 453.92 848.95 488.34
  C 848.94 491.40 848.29 494.71 848.35 497.89
  A 0.31 0.30 -0.0 0 0 848.66 498.19
  L 873.68 498.19
  A 0.73 0.73 0.0 0 0 874.40 497.56
  Q 874.78 494.72 874.81 492.50
  Q 875.05 475.20 874.91 458.41
  Q 874.88 454.83 874.41 448.62
  Q 874.27 446.70 873.84 438.82
  Q 872.60 416.25 865.73 384.22"
/>
<path stroke="#909b26" vector-effect="non-scaling-stroke" d="
  M 875.28 499.74
  L 848.62 499.39
  A 1.53 1.48 26.9 0 0 847.77 499.65
  L 847.20 500.03"
/>
<path stroke="#9cbb33" vector-effect="non-scaling-stroke" d="
  M 847.20 500.03
  L 846.82 499.77"
/>
<path stroke="#265d5c" vector-effect="non-scaling-stroke" d="
  M 823.28 615.91
  Q 822.85 615.55 822.42 616.31"
/>
<path stroke="#4f5372" vector-effect="non-scaling-stroke" d="
  M 822.42 616.31
  Q 822.03 616.18 821.83 616.21"
/>
<path stroke="#2c7220" vector-effect="non-scaling-stroke" d="
  M 875.19 500.74
  Q 875.01 500.73 874.87 500.73
  A 0.42 0.42 0.0 0 0 874.45 501.12
  Q 870.40 559.99 850.99 615.69"
/>
<path stroke="#204d78" vector-effect="non-scaling-stroke" d="
  M 850.99 615.69
  L 850.12 616.16"
/>
<path stroke="#1a3d4f" vector-effect="non-scaling-stroke" d="
  M 850.12 616.16
  L 823.28 615.91"
/>
<path stroke="#2c7220" vector-effect="non-scaling-stroke" d="
  M 823.28 615.91
  Q 823.21 614.57 823.79 613.04
  Q 827.35 603.73 832.33 586.37
  Q 835.63 574.87 838.54 562.25
  Q 840.41 554.16 842.21 543.30
  Q 844.87 527.21 845.19 524.25
  Q 846.74 510.01 847.37 504.62
  Q 847.58 502.87 847.20 500.03"
/>
<path stroke="#1938b4" vector-effect="non-scaling-stroke" d="
  M 850.12 616.16
  Q 849.60 619.28 847.68 624.20
  Q 834.24 658.65 819.53 683.82
  Q 811.03 698.37 806.02 706.05
  Q 803.02 710.66 801.22 713.40
  Q 798.30 717.85 796.29 720.67
  Q 792.86 725.50 789.59 730.46"
/>
<path stroke="#3c1ea1" vector-effect="non-scaling-stroke" d="
  M 789.59 730.46
  L 788.42 731.55"
/>
<path stroke="#2f207f" vector-effect="non-scaling-stroke" d="
  M 788.42 731.55
  L 785.15 730.91
  A 1.66 1.12 -29.4 0 0 784.90 730.89
  L 762.16 730.64"
/>
<path stroke="#3c1ea1" vector-effect="non-scaling-stroke" d="
  M 762.16 730.64
  Q 763.96 727.71 768.25 721.78
  Q 775.70 711.48 790.31 686.34
  Q 794.47 679.19 798.80 670.49
  Q 801.18 665.73 806.70 654.31
  Q 807.14 653.42 812.52 641.82
  Q 817.32 631.46 822.42 616.31"
/>
<path stroke="#581795" vector-effect="non-scaling-stroke" d="
  M 762.16 730.64
  Q 747.23 750.83 729.81 769.79
  Q 705.21 796.54 676.14 818.51
  Q 673.76 820.31 670.75 822.34
  C 666.12 825.48 661.88 828.89 657.20 831.78
  Q 652.12 834.92 647.10 837.83
  Q 642.70 840.39 640.24 842.11
  A 4.06 4.02 -74.4 0 1 639.45 842.56
  Q 635.65 844.17 633.50 847.08"
/>
<path stroke="#422ec9" vector-effect="non-scaling-stroke" d="
  M 790.05 730.95
  Q 790.02 730.57 789.59 730.46"
/>
<path stroke="#2c6d85" vector-effect="non-scaling-stroke" d="
  M 851.58 616.06
  Q 851.01 615.85 850.99 615.69"
/>
<path stroke="#581795" vector-effect="non-scaling-stroke" d="
  M 788.42 731.55
  Q 780.87 741.17 772.98 750.48
  Q 754.43 772.36 732.31 790.30
  Q 729.24 792.79 728.11 793.77
  Q 726.02 795.58 723.81 797.07
  C 721.42 798.67 719.09 800.84 716.51 802.75
  Q 696.21 817.76 671.22 830.71
  Q 660.63 836.18 649.08 840.84
  A 0.24 0.24 0.0 0 0 649.02 841.25
  Q 649.26 841.45 649.78 841.27"
/>
<path stroke="#7a4514" vector-effect="non-scaling-stroke" d="
  M 263.39 266.44
  Q 261.62 268.52 259.99 270.74
  C 234.30 305.77 215.01 345.81 202.69 386.90
  C 191.84 423.05 186.25 461.30 187.04 499.21
  A 1.02 0.98 26.3 0 0 187.25 499.79
  L 187.44 500.04"
/>
<path stroke="#10290a" vector-effect="non-scaling-stroke" d="
  M 187.44 500.04
  Q 187.58 500.73 187.35 500.92"
/>
<path stroke="#1c4917" vector-effect="non-scaling-stroke" d="
  M 187.35 500.92
  Q 187.74 560.49 207.52 616.62"
/>
<path stroke="#330a5b" vector-effect="non-scaling-stroke" d="
  M 207.52 616.62
  Q 208.25 618.93 209.11 621.18
  C 220.16 650.06 234.80 676.28 252.35 700.92
  Q 264.96 718.64 281.08 735.43
  Q 316.61 772.44 362.73 794.49
  C 402.02 813.28 447.44 822.48 490.75 819.45
  Q 518.51 817.51 545.26 809.75
  C 593.48 795.78 637.39 767.30 672.11 730.83"
/>
<path stroke="#10246e" vector-effect="non-scaling-stroke" d="
  M 672.11 730.83
  C 703.74 697.67 727.43 658.37 744.77 615.98"
/>
<path stroke="#357925" vector-effect="non-scaling-stroke" d="
  M 744.77 615.98
  Q 767.46 560.25 772.88 500.21"
/>
<path stroke="#80721c" vector-effect="non-scaling-stroke" d="
  M 772.88 500.21
  C 773.88 491.26 774.18 481.48 774.67 473.26
  C 775.33 462.10 774.80 453.77 774.03 439.99
  Q 773.48 430.14 772.81 423.51
  Q 763.46 330.14 709.18 253.61"
/>
<path stroke="#6a090f" vector-effect="non-scaling-stroke" d="
  M 709.18 253.61
  Q 706.22 249.21 703.05 245.19
  Q 683.89 220.91 660.32 201.95
  C 616.35 166.58 565.85 146.09 508.86 144.31
  C 501.30 144.08 495.00 144.75 488.41 144.94
  C 469.73 145.50 450.17 148.67 433.03 153.09
  C 380.46 166.64 330.64 195.84 292.33 233.32
  Q 278.51 246.83 263.39 266.44"
/>
<path stroke="#ea7b2b" vector-effect="non-scaling-stroke" d="
  M 709.18 253.61
  Q 703.49 254.65 699.69 254.71
  Q 674.56 255.16 650.61 256.00
  C 645.32 256.18 639.53 255.97 635.19 256.18
  Q 616.26 257.06 601.89 257.03
  C 591.49 257.00 579.04 258.09 567.08 258.10
  C 559.56 258.10 549.95 258.90 543.50 258.96
  Q 528.97 259.10 515.58 259.77
  C 507.53 260.18 498.33 259.77 492.25 260.21
  C 479.43 261.12 466.00 260.77 452.40 261.64
  C 443.48 262.22 433.69 261.89 424.63 262.45
  C 414.03 263.10 402.78 263.11 392.66 263.49
  Q 364.28 264.56 336.26 265.46
  Q 315.34 266.13 294.34 266.59"
/>
<path stroke="#ad0911" vector-effect="non-scaling-stroke" d="
  M 294.34 266.59
  Q 294.71 265.43 295.37 264.63
  C 313.94 242.22 333.46 221.94 355.87 204.87
  Q 392.06 177.30 434.64 160.40
  Q 456.29 151.80 478.05 147.76
  A 0.41 0.41 0.0 0 0 478.10 146.96
  Q 477.45 146.76 476.75 146.89
  Q 469.66 148.20 462.45 148.98
  Q 456.27 149.65 453.09 150.16
  Q 444.37 151.58 443.78 151.71
  Q 407.21 159.90 374.67 176.19
  Q 337.63 194.72 305.40 222.73
  Q 297.53 229.57 289.82 237.48
  C 280.72 246.81 272.00 256.56 264.04 267.10"
/>
<path stroke="#b82911" vector-effect="non-scaling-stroke" d="
  M 264.04 267.10
  Q 264.46 266.79 263.99 267.18"
/>
<path stroke="#e44e22" vector-effect="non-scaling-stroke" d="
  M 263.99 267.18
  Q 264.40 266.80 263.39 266.44"
/>
<path stroke="#c3721f" vector-effect="non-scaling-stroke" d="
  M 294.34 266.59
  Q 293.26 266.93 292.99 267.25
  Q 276.00 288.12 264.65 306.64
  Q 243.41 341.30 229.14 382.75
  Q 229.06 382.98 229.35 383.27"
/>
<path stroke="#ad0911" vector-effect="non-scaling-stroke" d="
  M 229.35 383.27
  L 229.31 383.66"
/>
<path stroke="#c3721f" vector-effect="non-scaling-stroke" d="
  M 229.31 383.66
  Q 228.51 383.93 228.30 384.51
  Q 220.75 405.61 215.90 429.94
  C 212.07 449.15 209.75 468.38 208.93 487.95
  Q 208.69 493.71 208.18 499.44"
/>
<path stroke="#53290c" vector-effect="non-scaling-stroke" d="
  M 208.18 499.44
  Q 207.70 499.31 207.53 499.50"
/>
<path stroke="#924203" vector-effect="non-scaling-stroke" d="
  M 207.53 499.50
  Q 207.84 492.27 208.14 485.17
  Q 208.49 476.66 209.03 470.85
  Q 211.26 447.12 216.28 423.50
  C 217.41 418.17 218.69 414.07 219.93 408.58
  Q 220.59 405.65 226.19 387.80
  C 226.50 386.82 226.47 386.14 227.25 385.31
  A 0.81 0.80 -68.7 0 0 226.66 383.95
  L 205.45 384.30"
/>
<path stroke="#bd4516" vector-effect="non-scaling-stroke" d="
  M 205.45 384.30
  Q 204.84 383.95 204.89 383.55
  Q 204.95 383.11 205.46 382.53"
/>
<path stroke="#912005" vector-effect="non-scaling-stroke" d="
  M 205.46 382.53
  L 207.12 383.10
  A 1.10 0.99 -34.1 0 0 207.41 383.14
  L 226.96 383.07
  A 1.17 1.17 0.0 0 0 228.06 382.30
  Q 234.11 365.79 240.31 351.54
  Q 253.51 321.19 271.95 294.17
  Q 278.57 284.46 286.15 274.38
  Q 288.18 271.67 290.21 269.47
  A 1.60 1.58 73.8 0 0 290.59 268.77
  Q 290.80 267.96 291.46 267.65
  A 0.57 0.57 0.0 0 0 291.21 266.57
  L 264.04 267.10"
/>
<path stroke="#b4eb41" vector-effect="non-scaling-stroke" d="
  M 772.88 500.21
  L 772.24 500.19"
/>
<path stroke="#909b26" vector-effect="non-scaling-stroke" d="
  M 772.24 500.19
  Q 771.97 499.75 771.53 499.75
  Q 727.67 499.62 641.47 499.71
  A 1.47 1.42 28.2 0 0 640.70 499.93
  L 640.36 500.15"
/>
<path stroke="#80721c" vector-effect="non-scaling-stroke" d="
  M 640.36 500.15
  Q 639.94 499.89 639.99 499.24
  C 640.22 496.10 640.88 492.26 640.94 488.66
  Q 641.19 472.97 640.84 466.02
  Q 639.75 444.44 632.83 423.19
  Q 616.56 373.22 575.65 340.13
  C 550.42 319.72 518.26 306.62 486.00 306.14
  Q 460.70 305.77 439.06 312.92
  C 410.33 322.42 386.64 338.83 366.51 361.02
  C 338.47 391.93 321.66 431.94 318.45 473.26
  C 317.80 481.65 317.97 491.27 318.03 500.27"
/>
<path stroke="#b4eb41" vector-effect="non-scaling-stroke" d="
  M 318.03 500.27
  Q 317.88 500.31 317.73 500.36"
/>
<path stroke="#909b26" vector-effect="non-scaling-stroke" d="
  M 317.73 500.36
  Q 316.86 499.73 316.25 499.73
  Q 293.31 499.62 210.82 499.70
  C 209.86 499.70 209.21 500.21 208.18 499.44"
/>
<path stroke="#ea7b2b" vector-effect="non-scaling-stroke" d="
  M 229.31 383.66
  L 347.63 383.60"
/>
<path stroke="#fab630" vector-effect="non-scaling-stroke" d="
  M 347.63 383.60
  Q 347.95 383.61 348.31 383.02
  Q 355.77 371.05 363.26 362.99
  Q 373.31 352.18 379.25 346.74
  Q 403.39 324.68 432.84 313.87
  Q 462.11 303.14 493.40 305.39
  Q 512.03 306.73 530.86 313.55
  Q 548.92 320.09 565.03 331.00
  Q 595.45 351.61 615.12 382.88
  Q 616.05 384.36 618.97 383.96"
/>
<path stroke="#ea7b2b" vector-effect="non-scaling-stroke" d="
  M 618.97 383.96
  L 765.06 383.87"
/>
<path stroke="#fab630" vector-effect="non-scaling-stroke" d="
  M 765.06 383.87
  Q 765.02 383.92 765.29 383.91
  A 0.35 0.35 0.0 0 0 765.62 383.53
  C 765.53 382.40 764.94 381.34 764.62 379.76
  Q 762.31 368.54 758.93 357.82
  C 756.99 351.68 753.78 341.13 750.82 333.49
  Q 736.12 295.57 713.85 262.14
  Q 713.33 261.34 708.73 254.95
  A 0.86 0.85 61.8 0 0 707.75 254.65
  L 705.63 255.40
  A 1.09 0.92 -50.0 0 1 705.29 255.46
  Q 689.34 255.73 682.29 256.07
  Q 670.90 256.62 659.84 256.71
  Q 655.00 256.74 636.65 257.42
  Q 628.33 257.72 617.72 257.85
  Q 600.78 258.05 598.77 258.25
  Q 595.04 258.63 589.19 258.59
  Q 576.86 258.49 567.03 259.19
  Q 556.43 259.95 546.44 259.85
  Q 542.36 259.80 525.81 260.49
  Q 510.19 261.15 443.91 262.81
  Q 435.98 263.00 429.16 263.43
  Q 421.13 263.94 414.38 263.87
  C 407.06 263.80 400.54 264.65 392.90 264.62
  Q 387.96 264.60 376.78 265.07
  Q 356.81 265.91 318.68 266.78
  C 311.35 266.94 303.20 267.81 294.99 267.60
  A 1.33 1.32 25.3 0 0 294.11 267.91
  Q 292.39 269.33 288.41 274.44
  C 284.42 279.56 280.09 286.41 276.56 291.25
  Q 267.79 303.27 262.57 312.33
  Q 243.98 344.61 231.17 379.97
  Q 230.84 380.88 231.23 383.00"
/>
<path stroke="#ea7b2b" vector-effect="non-scaling-stroke" d="
  M 231.23 383.00
  Q 230.22 382.87 229.35 383.27"
/>
<path stroke="#c86516" vector-effect="non-scaling-stroke" d="
  M 263.99 267.18
  Q 241.34 297.02 225.41 330.95
  Q 214.58 354.01 205.92 379.99
  Q 205.38 381.61 205.46 382.53"
/>
<path stroke="#c98714" vector-effect="non-scaling-stroke" d="
  M 205.45 384.30
  Q 204.22 386.18 202.84 391.27
  Q 190.98 434.82 189.31 468.78
  Q 189.14 472.31 188.38 485.27
  Q 188.25 487.62 188.29 497.69
  A 0.60 0.59 12.4 0 0 188.64 498.23
  Q 188.71 498.27 188.74 498.29
  A 0.58 0.55 40.5 0 1 188.83 499.14
  L 188.47 499.51"
/>
<path stroke="#8a6e1d" vector-effect="non-scaling-stroke" d="
  M 188.47 499.51
  Q 187.92 499.64 187.44 500.04"
/>
<path stroke="#45a22f" vector-effect="non-scaling-stroke" d="
  M 317.73 500.36
  L 317.44 500.50"
/>
<path stroke="#2c7220" vector-effect="non-scaling-stroke" d="
  M 317.44 500.50
  Q 317.06 501.00 316.33 500.87
  Q 315.22 500.67 315.13 500.67
  Q 297.60 500.54 284.74 500.75
  Q 274.06 500.93 270.25 500.79
  Q 265.60 500.63 255.75 500.83
  Q 250.14 500.95 237.50 500.72
  Q 221.49 500.44 209.34 500.80
  A 0.80 0.79 89.3 0 0 208.57 501.60
  C 208.83 539.56 213.44 577.52 223.83 614.43
  Q 224.00 615.03 223.90 615.47"
/>
<path stroke="#1a3d4f" vector-effect="non-scaling-stroke" d="
  M 223.90 615.47
  C 222.56 616.39 222.04 615.88 220.71 615.88
  Q 214.44 615.93 208.20 615.86"
/>
<path stroke="#2c7220" vector-effect="non-scaling-stroke" d="
  M 208.20 615.86
  Q 207.85 615.24 207.67 614.71
  Q 188.77 559.64 188.06 501.35
  Q 188.05 501.00 187.86 500.93
  Q 187.67 500.87 187.35 500.92"
/>
<path stroke="#5f6b0a" vector-effect="non-scaling-stroke" d="
  M 207.53 499.50
  L 188.47 499.51"
/>
<path stroke="#449d93" vector-effect="non-scaling-stroke" d="
  M 365.24 616.00
  L 362.80 615.94"
/>
<path stroke="#51c23c" vector-effect="non-scaling-stroke" d="
  M 362.80 615.94
  Q 362.72 614.88 362.09 614.15
  Q 337.39 585.76 325.95 549.29
  Q 318.89 526.77 317.38 503.18
  Q 317.30 501.85 317.44 500.50"
/>
<path stroke="#45a22f" vector-effect="non-scaling-stroke" d="
  M 772.24 500.19
  Q 772.33 500.63 771.83 500.86"
/>
<path stroke="#2c7220" vector-effect="non-scaling-stroke" d="
  M 771.83 500.86
  L 640.85 500.81"
/>
<path stroke="#45a22f" vector-effect="non-scaling-stroke" d="
  M 640.85 500.81
  Q 640.72 500.52 640.35 500.40"
/>
<path stroke="#e44e22" vector-effect="non-scaling-stroke" d="
  M 765.06 383.87
  Q 765.57 382.83 763.50 382.84
  Q 690.63 383.07 617.61 383.03
  A 0.46 0.46 0.0 0 0 617.21 383.71
  Q 617.42 384.09 618.97 383.96"
/>
<path stroke="#e44e22" vector-effect="non-scaling-stroke" d="
  M 347.63 383.60
  Q 347.46 382.83 346.01 382.84
  Q 288.61 383.18 231.23 383.00"
/>
<path stroke="#449d93" vector-effect="non-scaling-stroke" d="
  M 744.77 615.98
  Q 744.42 616.05 743.89 615.88"
/>
<path stroke="#51c23c" vector-effect="non-scaling-stroke" d="
  M 743.89 615.88
  Q 752.28 594.26 757.20 577.65
  Q 768.05 541.07 771.83 500.86"
/>
<path stroke="#10290a" vector-effect="non-scaling-stroke" d="
  M 640.36 500.15
  Q 640.36 500.28 640.35 500.40"
/>
<path stroke="#357925" vector-effect="non-scaling-stroke" d="
  M 640.35 500.40
  Q 634.00 550.39 604.50 591.25
  Q 594.93 604.51 582.91 615.74"
/>
<path stroke="#10246e" vector-effect="non-scaling-stroke" d="
  M 582.91 615.74
  Q 576.16 621.24 569.27 626.74
  Q 554.21 638.77 537.98 646.66
  C 496.80 666.65 447.25 667.47 406.23 646.51
  C 394.23 640.38 382.92 632.89 373.14 623.60
  Q 369.16 619.82 365.24 616.00"
/>
<path stroke="#357925" vector-effect="non-scaling-stroke" d="
  M 365.24 616.00
  Q 346.42 595.71 335.11 570.37
  C 325.03 547.78 319.84 524.97 318.03 500.27"
/>
<path stroke="#265d5c" vector-effect="non-scaling-stroke" d="
  M 208.20 615.86
  L 208.17 616.31"
/>
<path stroke="#4f5372" vector-effect="non-scaling-stroke" d="
  M 208.17 616.31
  Q 207.95 616.50 207.52 616.62"
/>
<path stroke="#1938b4" vector-effect="non-scaling-stroke" d="
  M 224.81 615.94
  Q 224.15 616.54 224.32 616.99
  Q 232.40 639.00 239.87 655.21
  Q 250.47 678.20 266.16 701.84
  C 271.62 710.08 279.16 719.63 285.01 727.41
  Q 285.71 728.34 286.95 729.61
  Q 288.31 731.01 288.90 731.82"
/>
<path stroke="#3c1ea1" vector-effect="non-scaling-stroke" d="
  M 288.90 731.82
  Q 298.96 743.36 308.01 753.56
  Q 313.82 760.11 326.79 771.69
  A 0.18 0.18 0.0 0 1 326.76 771.99
  L 326.44 772.17
  A 0.29 0.28 46.0 0 1 326.14 772.16
  Q 310.82 761.05 305.29 756.69
  Q 300.63 753.00 290.68 743.84
  Q 283.67 737.38 277.06 729.93
  Q 260.95 711.79 251.83 698.71
  Q 237.23 677.76 225.19 655.10
  Q 219.23 643.86 209.84 621.29
  C 209.23 619.81 208.87 617.95 208.17 616.31"
/>
<path stroke="#2c6d85" vector-effect="non-scaling-stroke" d="
  M 362.80 615.94
  L 224.81 615.94"
/>
<path stroke="#265d5c" vector-effect="non-scaling-stroke" d="
  M 224.81 615.94
  Q 224.32 616.39 223.90 615.47"
/>
<path stroke="#422ec9" vector-effect="non-scaling-stroke" d="
  M 672.11 730.83
  Q 670.79 731.11 665.50 731.11
  Q 490.63 731.06 315.75 731.11
  Q 298.34 731.11 288.90 731.82"
/>
<path stroke="#51c23c" vector-effect="non-scaling-stroke" d="
  M 640.85 500.81
  Q 640.79 502.90 640.54 505.23
  Q 639.31 516.57 636.03 528.29
  C 627.02 560.48 609.90 590.88 585.72 614.29
  A 1.24 1.21 -20.1 0 0 585.35 615.06
  L 585.31 615.49"
/>
<path stroke="#449d93" vector-effect="non-scaling-stroke" d="
  M 585.31 615.49
  Q 583.19 616.52 582.91 615.74"
/>
<path stroke="#2c6d85" vector-effect="non-scaling-stroke" d="
  M 743.89 615.88
  Q 665.10 616.27 586.00 615.96
  Q 585.50 615.96 585.31 615.49"
/>
<path stroke="#ea7b2b" vector-effect="non-scaling-stroke" d="
  M 785.06 383.53
  Q 801.74 384.30 817.72 383.86
  Q 818.14 383.85 818.39 383.65
  A 0.35 0.35 0.0 0 0 818.36 383.07
  Q 817.77 382.70 817.63 383.04"
/>
<path stroke="#fab630" vector-effect="non-scaling-stroke" d="
  M 817.63 383.04
  Q 817.59 380.09 816.60 376.23
  Q 813.73 365.05 810.74 353.91
  C 808.46 345.45 805.94 338.46 803.64 331.04
  Q 802.34 326.85 798.29 316.44
  C 790.20 295.63 780.47 275.42 769.06 256.36
  A 2.13 2.13 0.0 0 0 767.23 255.32
  L 732.82 255.32
  A 0.50 0.49 75.4 0 0 732.39 256.06
  Q 733.94 258.82 736.71 263.24
  Q 754.73 291.97 766.48 322.21
  Q 774.23 342.15 776.21 349.46
  Q 779.02 359.83 781.67 368.27
  Q 782.72 371.63 785.06 383.53"
/>
<path stroke="#e44e22" vector-effect="non-scaling-stroke" d="
  M 817.63 383.04
  Q 801.35 382.40 785.06 383.53"
/>
<path stroke="#ea7b2b" vector-effect="non-scaling-stroke" d="
  M 153.68 383.11
  L 153.64 383.61
  A 0.34 0.34 0.0 0 0 153.99 383.98
  L 181.00 383.66"
/>
<path stroke="#fab630" vector-effect="non-scaling-stroke" d="
  M 181.00 383.66
  Q 181.22 383.63 181.32 383.24
  Q 184.23 372.22 188.46 360.18
  Q 204.48 314.55 232.42 272.91
  Q 232.72 272.45 233.09 271.56
  A 0.52 0.52 0.0 0 0 232.59 270.84
  Q 222.53 271.05 214.00 271.58
  Q 208.69 271.92 203.59 270.98
  A 1.05 1.05 0.0 0 0 202.49 271.47
  Q 186.20 298.36 173.19 327.72
  Q 169.70 335.61 165.43 347.20
  Q 159.42 363.50 158.39 366.98
  Q 155.99 375.05 153.68 383.11"
/>
<path stroke="#e44e22" vector-effect="non-scaling-stroke" d="
  M 181.00 383.66
  Q 181.06 383.09 180.59 383.09
  Q 167.29 382.93 153.68 383.11"
/>
<path stroke="#357925" vector-effect="non-scaling-stroke" d="
  M 374.54 500.11
  Q 374.31 500.48 374.45 500.83"
/>
<path stroke="#1c4917" vector-effect="non-scaling-stroke" d="
  M 374.45 500.83
  L 337.41 500.92"
/>
<path stroke="#357925" vector-effect="non-scaling-stroke" d="
  M 337.41 500.92
  Q 337.57 514.68 341.84 531.68
  Q 353.97 579.97 391.01 610.73
  Q 396.11 614.96 398.58 616.59"
/>
<path stroke="#10246e" vector-effect="non-scaling-stroke" d="
  M 398.58 616.59
  Q 400.81 618.54 403.27 620.23
  C 421.84 632.95 445.37 640.98 467.75 640.53
  Q 506.24 639.75 537.04 616.38"
/>
<path stroke="#357925" vector-effect="non-scaling-stroke" d="
  M 537.04 616.38
  Q 537.93 615.58 538.87 614.85
  Q 557.21 600.63 570.98 581.99
  Q 596.25 547.79 603.29 505.78
  Q 603.75 503.02 603.93 500.29"
/>
<path stroke="#80721c" vector-effect="non-scaling-stroke" d="
  M 603.93 500.29
  Q 604.68 498.42 604.71 497.73
  Q 605.23 486.53 605.62 479.83
  C 605.98 473.58 605.32 469.51 604.95 462.52
  Q 604.61 456.20 603.50 449.61
  Q 598.57 420.30 584.03 393.84
  Q 575.17 377.73 564.80 366.33
  C 545.63 345.29 521.76 330.16 493.26 326.53
  Q 464.85 322.92 439.10 332.16
  C 403.35 344.98 374.37 374.37 356.51 407.33
  Q 341.45 435.11 337.63 466.91
  Q 335.63 483.57 336.37 499.33
  A 0.86 0.86 0.0 0 0 337.78 499.95
  Q 337.94 499.82 338.75 499.79
  Q 347.08 499.54 373.75 499.77
  Q 374.26 499.78 374.54 500.11"
/>
<path stroke="#b4eb41" vector-effect="non-scaling-stroke" d="
  M 603.93 500.29
  Q 603.55 500.21 603.29 500.27"
/>
<path stroke="#909b26" vector-effect="non-scaling-stroke" d="
  M 603.29 500.27
  Q 602.97 499.69 602.46 499.69
  Q 592.70 499.56 567.26 499.75
  Q 565.96 499.76 566.35 500.83"
/>
<path stroke="#9cbb33" vector-effect="non-scaling-stroke" d="
  M 566.35 500.83
  L 565.25 506.46"
/>
<path stroke="#b4eb41" vector-effect="non-scaling-stroke" d="
  M 565.25 506.46
  Q 564.65 506.69 564.36 506.45"
/>
<path stroke="#80721c" vector-effect="non-scaling-stroke" d="
  M 564.36 506.45
  Q 568.27 486.93 566.77 469.00
  C 564.28 439.34 549.81 410.25 525.19 392.49
  Q 517.96 387.27 515.23 385.82
  C 477.68 365.82 434.51 374.54 406.22 405.71
  C 385.39 428.67 374.18 457.31 374.88 488.31
  Q 375.01 494.20 375.23 499.93"
/>
<path stroke="#b4eb41" vector-effect="non-scaling-stroke" d="
  M 375.23 499.93
  Q 374.68 500.17 374.54 500.11"
/>
<path stroke="#45a22f" vector-effect="non-scaling-stroke" d="
  M 603.29 500.27
  Q 603.43 501.03 602.69 501.16"
/>
<path stroke="#2c7220" vector-effect="non-scaling-stroke" d="
  M 602.69 501.16
  L 566.35 500.83"
/>
<path stroke="#357925" vector-effect="non-scaling-stroke" d="
  M 564.36 506.45
  Q 556.08 541.26 531.87 565.87
  Q 522.39 575.50 508.47 583.07
  C 486.43 595.07 458.50 595.70 435.71 586.77
  Q 402.44 573.72 386.62 541.11
  Q 377.62 522.55 375.23 499.93"
/>
<path stroke="#51c23c" vector-effect="non-scaling-stroke" d="
  M 565.25 506.46
  Q 559.31 532.93 543.05 554.50
  Q 532.32 568.73 516.26 579.49
  C 490.56 596.72 458.50 598.04 430.37 585.64
  C 406.89 575.28 389.56 554.53 381.14 530.41
  C 378.40 522.54 375.89 513.86 375.13 505.60
  Q 374.91 503.12 374.45 500.83"
/>
<path stroke="#449d93" vector-effect="non-scaling-stroke" d="
  M 537.04 616.38
  Q 536.90 615.83 535.88 615.75"
/>
<path stroke="#51c23c" vector-effect="non-scaling-stroke" d="
  M 535.88 615.75
  Q 540.56 612.62 544.72 608.97
  Q 573.95 583.34 589.83 547.80
  Q 596.93 531.90 600.91 512.48
  Q 602.44 505.02 602.69 501.16"
/>
<path stroke="#2c6d85" vector-effect="non-scaling-stroke" d="
  M 535.88 615.75
  L 399.65 616.24"
/>
<path stroke="#51c23c" vector-effect="non-scaling-stroke" d="
  M 337.41 500.92
  Q 340.55 529.09 348.51 550.25
  Q 363.53 590.19 399.65 616.24"
/>
<path stroke="#449d93" vector-effect="non-scaling-stroke" d="
  M 399.65 616.24
  Q 398.86 615.84 398.58 616.59"
/>
<path stroke="#1c4917" vector-effect="non-scaling-stroke" d="
  M 624.11 500.21
  Q 616.99 554.81 582.53 597.31
  Q 579.31 601.27 573.42 608.68
  A 0.17 0.17 0.0 0 0 573.66 608.92
  C 577.06 606.33 581.16 603.98 584.02 601.20
  C 610.96 574.97 626.65 537.18 632.12 500.28"
/>
<path stroke="#7a4514" vector-effect="non-scaling-stroke" d="
  M 632.12 500.28
  Q 632.70 499.58 632.80 498.75
  Q 635.12 479.83 633.29 461.25
  C 630.90 436.98 624.23 412.23 611.13 392.12
  Q 608.85 388.63 607.53 387.25
  A 0.33 0.33 0.0 0 0 606.99 387.61
  Q 608.57 391.07 609.93 396.38
  C 612.93 408.06 617.98 420.98 619.64 427.87
  Q 626.81 457.66 624.65 489.73
  Q 624.29 495.01 624.11 500.21"
/>
<path stroke="#968e2a" vector-effect="non-scaling-stroke" d="
  M 632.12 500.28
  Q 631.78 500.01 631.98 499.78"
/>
<path stroke="#8a6e1d" vector-effect="non-scaling-stroke" d="
  M 631.98 499.78
  Q 628.27 499.03 625.12 499.62
  Q 624.71 499.70 624.39 500.25"
/>
<path stroke="#968e2a" vector-effect="non-scaling-stroke" d="
  M 624.39 500.25
  L 624.11 500.21"
/>
<path stroke="#2c7220" vector-effect="non-scaling-stroke" d="
  M 631.98 499.78
  Q 631.19 501.81 630.93 503.43
  Q 626.28 532.12 613.55 558.55
  Q 605.52 575.21 593.86 589.70
  Q 590.77 593.53 587.23 596.90
  C 584.90 599.11 580.53 603.96 578.33 604.25
  A 0.20 0.20 0.0 0 1 578.16 603.92
  Q 580.67 601.24 581.13 600.63
  Q 589.07 590.08 590.28 588.42
  Q 594.79 582.27 598.72 575.72
  Q 617.69 544.02 624.06 506.30
  Q 624.64 502.88 624.39 500.25"
/>
<path stroke="#fab630" vector-effect="non-scaling-stroke" d="
  M 373.61 384.03
  L 430.38 384.03
  A 8.63 8.59 -58.1 0 0 434.23 383.12
  Q 449.03 375.68 466.06 374.14
  Q 467.39 374.02 477.82 374.18
  Q 484.46 374.29 489.46 375.41
  Q 502.56 378.36 512.71 383.18
  A 8.06 8.06 0.0 0 0 516.19 383.97
  L 576.64 383.97
  A 0.18 0.18 0.0 0 0 576.79 383.69
  Q 572.29 376.83 567.85 371.42
  Q 561.63 363.85 550.64 354.14
  Q 537.34 342.41 520.41 334.96
  C 505.31 328.31 487.22 325.70 471.26 326.71
  Q 436.41 328.90 407.26 350.05
  Q 388.20 363.88 373.31 383.43
  A 0.38 0.37 18.6 0 0 373.61 384.03"
/>
<path stroke="#330a5b" vector-effect="non-scaling-stroke" d="
  M 487.04 397.00
  Q 467.59 393.76 450.84 399.91
  C 437.31 404.88 424.69 415.36 415.85 427.09
  Q 394.99 454.76 395.17 489.50
  C 395.30 513.66 402.61 536.98 418.95 553.79
  C 433.05 568.30 455.60 578.16 476.04 575.44
  Q 479.98 574.92 484.12 574.89
  A 0.23 0.23 0.0 0 0 484.21 574.45
  Q 458.16 563.09 444.68 537.77
  Q 429.80 509.84 433.67 477.67
  Q 436.73 452.21 448.86 433.69
  C 459.09 418.09 470.73 406.31 487.15 397.69
  A 0.37 0.37 0.0 0 0 487.04 397.00"
/>
<path stroke="#c86516" vector-effect="non-scaling-stroke" d="
  M 610.72 393.72
  Q 610.68 394.27 610.75 394.45
  A 0.34 0.34 0.0 0 0 611.39 394.44
  Q 611.48 394.18 611.14 393.62
  A 0.23 0.23 0.0 0 0 610.72 393.72"
/>
<path stroke="#c98714" vector-effect="non-scaling-stroke" d="
  M 611.25 395.33
  Q 613.25 402.25 618.00 417.78
  C 621.94 430.64 624.98 444.57 625.81 458.32
  Q 626.68 472.51 626.66 476.25
  Q 626.65 482.02 625.48 497.50
  A 0.83 0.82 -87.7 0 0 626.30 498.39
  L 630.52 498.39
  A 1.12 1.11 -85.8 0 0 631.62 497.43
  Q 633.33 485.61 633.01 472.55
  Q 632.94 469.80 632.40 465.93
  Q 632.00 463.03 631.65 459.29
  Q 630.14 442.95 624.07 422.71
  Q 620.38 410.43 613.38 398.74
  Q 612.32 396.97 611.97 395.03
  A 0.11 0.10 82.8 0 0 611.87 394.95
  L 611.53 394.95
  A 0.30 0.29 81.8 0 0 611.25 395.33"
/>
<path stroke="#581795" vector-effect="non-scaling-stroke" d="
  M 484.33 397.94
  Q 478.54 396.36 471.50 396.81
  C 458.58 397.65 447.12 400.96 436.42 408.48
  Q 425.04 416.49 417.46 426.50
  Q 408.04 438.93 403.52 450.50
  Q 398.30 463.85 396.73 476.40
  Q 395.88 483.14 396.22 494.79
  Q 396.46 502.99 398.34 511.54
  C 402.49 530.46 411.35 547.18 426.50 559.36
  Q 441.90 571.74 462.81 574.64
  Q 471.32 575.82 479.37 573.90
  A 0.31 0.31 0.0 0 0 479.43 573.32
  Q 471.89 569.61 465.67 564.59
  Q 455.14 556.08 448.25 545.55
  Q 439.25 531.81 434.93 515.48
  Q 432.42 505.98 432.09 495.35
  Q 431.74 484.28 433.01 474.99
  Q 436.08 452.70 447.80 433.83
  Q 448.51 432.68 452.19 427.57
  Q 456.12 422.12 456.68 421.42
  C 460.13 417.06 464.12 413.41 468.78 409.20
  Q 475.52 403.11 484.38 398.34
  A 0.22 0.21 38.6 0 0 484.33 397.94"
/>
</g>
<path fill="#000000" d="
  M 151.96 327.27
  Q 151.99 326.88 152.11 326.57
  Q 156.08 316.50 161.06 306.04
  Q 166.75 294.09 170.40 287.16
  Q 185.02 259.48 202.77 235.01
  Q 206.23 230.25 215.49 218.23
  Q 220.49 211.73 235.19 195.73
  Q 285.01 141.50 351.52 109.29
  Q 361.60 104.41 381.84 96.68
  Q 419.53 82.30 459.50 76.65
  Q 463.86 76.04 464.13 76.03
  Q 467.12 76.01 468.80 75.61
  C 472.32 74.78 475.91 75.31 479.08 74.37
  A 5.22 5.00 34.9 0 1 480.50 74.15
  C 492.98 73.84 504.72 72.86 516.65 73.40
  Q 523.18 73.70 534.47 74.07
  C 538.30 74.20 542.21 75.06 546.54 75.06
  A 10.38 10.18 50.5 0 1 548.70 75.29
  Q 552.25 76.05 556.33 76.05
  A 5.86 5.63 -35.9 0 1 557.91 76.27
  C 560.10 76.90 562.18 76.92 564.34 77.25
  C 588.35 80.85 611.86 86.81 635.14 94.63
  Q 644.25 97.69 646.76 98.66
  Q 680.73 111.70 712.43 130.81
  Q 735.59 144.77 755.26 160.98
  Q 778.88 180.44 797.75 201.76
  Q 835.89 244.84 860.00 297.21
  Q 888.69 359.55 896.62 429.26
  Q 896.97 432.36 897.03 434.76
  C 897.09 437.44 897.95 439.84 897.93 442.09
  C 897.85 448.06 898.94 455.14 899.01 462.37
  Q 899.28 488.36 898.71 496.02
  Q 897.69 509.76 897.81 511.22
  A 7.33 7.26 48.6 0 1 897.69 513.30
  C 896.93 516.95 897.00 520.65 896.53 524.38
  Q 895.55 532.22 894.90 536.50
  Q 888.18 581.06 871.88 625.61
  Q 860.27 657.31 843.42 687.13
  Q 826.73 716.66 805.75 743.50
  Q 799.00 752.15 788.76 763.64
  C 765.56 789.69 738.48 812.41 709.58 831.06
  C 666.37 858.97 616.69 877.14 565.92 885.65
  Q 563.93 885.99 562.56 886.07
  C 560.79 886.17 559.28 886.91 557.53 886.95
  Q 554.13 887.02 551.98 887.73
  A 4.12 4.07 -54.3 0 1 550.75 887.94
  Q 547.15 887.99 545.90 888.29
  C 541.80 889.25 537.78 888.93 533.63 889.72
  A 9.48 9.28 38.9 0 1 531.85 889.89
  C 525.29 889.92 519.68 890.86 513.72 890.93
  Q 492.18 891.18 477.27 890.96
  Q 470.36 890.85 467.63 890.53
  C 462.52 889.92 459.30 890.24 454.81 889.54
  Q 454.09 889.42 444.27 888.46
  Q 437.43 887.79 433.76 887.25
  Q 409.55 883.68 386.86 877.39
  Q 383.89 876.57 371.76 872.54
  Q 364.76 870.21 356.85 867.13
  Q 293.72 842.53 242.76 793.75
  Q 220.64 772.57 204.55 751.45
  Q 173.21 710.29 152.90 662.36
  Q 129.82 607.87 121.91 544.64
  Q 121.24 539.27 120.40 527.85
  Q 120.11 523.79 119.55 516.62
  C 118.66 505.24 118.96 494.39 119.10 482.17
  Q 119.15 478.18 119.48 475.33
  C 120.07 470.23 119.76 464.41 120.50 460.01
  C 121.14 456.28 120.99 453.06 121.47 448.70
  Q 124.69 419.37 131.59 390.06
  Q 138.83 359.33 150.67 330.23
  C 151.00 329.42 151.07 328.32 151.63 327.89
  A 0.86 0.83 -18.1 0 0 151.96 327.27
  Z
  M 202.20 270.07
  Q 186.17 296.23 174.48 322.21
  Q 136.43 406.72 136.68 500.17
  Q 137.89 559.46 154.47 616.29
  Q 173.10 678.68 211.66 731.55
  Q 237.46 766.45 268.51 793.25
  Q 329.18 845.62 407.77 861.59
  Q 432.94 866.70 459.94 868.04
  Q 484.02 869.24 512.44 865.61
  Q 551.91 860.55 585.39 847.39
  Q 640.69 825.64 686.01 786.52
  Q 712.50 763.66 737.27 730.96
  Q 752.07 711.43 764.34 690.06
  Q 784.55 654.82 798.86 616.80
  Q 819.70 560.45 825.43 500.27
  Q 828.12 469.92 826.80 444.50
  Q 821.49 342.45 768.86 253.64
  Q 767.98 252.47 767.40 251.40
  Q 766.18 249.17 766.11 249.06
  Q 738.79 206.01 702.76 173.71
  C 646.79 123.54 572.62 94.80 497.24 94.26
  Q 483.48 94.16 471.19 95.47
  Q 430.62 99.79 392.12 114.14
  Q 362.45 125.20 335.81 140.32
  Q 267.20 179.26 220.60 243.11
  Q 211.00 256.27 202.20 270.07
  Z
  M 790.96 253.56
  Q 795.44 261.99 799.78 270.36
  Q 827.68 324.12 839.70 383.59
  Q 851.03 441.11 846.82 499.77
  Q 842.52 559.80 821.83 616.21
  Q 808.72 651.47 790.53 684.33
  Q 759.39 740.61 712.97 785.96
  Q 690.13 808.26 663.59 826.56
  Q 642.34 841.21 619.71 851.39
  A 0.30 0.30 0.0 0 0 619.58 851.81
  L 619.74 852.08
  A 0.17 0.17 0.0 0 0 619.95 852.16
  L 633.50 847.08
  Q 642.32 844.85 649.78 841.27
  Q 664.45 835.45 676.81 828.83
  Q 723.90 803.58 761.44 764.68
  Q 773.91 751.76 790.05 730.95
  Q 817.29 694.02 836.34 653.35
  Q 844.47 636.01 851.58 616.06
  Q 871.38 560.07 875.19 500.74
  L 875.28 499.74
  Q 875.73 499.31 875.76 498.77
  Q 876.83 474.14 875.81 449.50
  Q 874.65 421.87 867.82 388.80
  Q 867.29 386.26 866.93 383.71
  Q 859.62 352.79 848.03 323.16
  Q 833.70 286.52 812.60 253.80
  Q 807.55 245.67 799.64 235.11
  Q 782.30 211.96 764.71 194.05
  Q 750.63 179.72 731.11 164.69
  Q 730.20 163.99 720.58 157.51
  C 713.12 152.48 705.67 148.82 697.96 144.05
  A 0.42 0.41 -43.9 0 0 697.53 144.05
  L 697.23 144.22
  A 0.44 0.43 48.4 0 0 697.19 144.95
  Q 703.41 149.60 704.95 150.80
  Q 706.73 152.19 720.49 164.57
  Q 727.72 171.07 735.30 179.10
  Q 767.40 213.15 790.96 253.56
  Z"
/>
<path fill="#d4121d" d="
  M 768.86 253.64
  L 729.85 254.24
  Q 721.22 241.92 717.55 237.20
  C 676.68 184.74 617.20 147.40 551.72 135.36
  Q 520.93 129.69 490.75 130.46
  C 480.33 130.73 470.99 131.01 462.20 132.11
  Q 436.16 135.35 416.19 140.96
  Q 370.96 153.67 329.99 179.24
  Q 306.73 193.76 284.26 214.50
  Q 262.66 234.43 246.37 255.37
  Q 243.96 258.47 235.84 269.66
  L 202.20 270.07
  Q 211.00 256.27 220.60 243.11
  Q 267.20 179.26 335.81 140.32
  Q 362.45 125.20 392.12 114.14
  Q 430.62 99.79 471.19 95.47
  Q 483.48 94.16 497.24 94.26
  C 572.62 94.80 646.79 123.54 702.76 173.71
  Q 738.79 206.01 766.11 249.06
  Q 766.18 249.17 767.40 251.40
  Q 767.98 252.47 768.86 253.64
  Z"
/>
<path fill="#000000" d="
  M 729.85 254.24
  Q 773.50 320.78 786.97 398.51
  Q 794.16 440.03 792.95 483.52
  Q 792.92 484.77 792.39 491.97
  Q 792.07 496.21 792.24 500.44
  Q 787.54 560.04 765.64 616.03
  Q 760.43 628.65 758.74 632.49
  Q 736.50 682.92 701.15 725.16
  Q 698.74 728.05 696.37 730.97
  Q 669.10 760.09 633.92 783.65
  Q 586.82 815.21 534.11 827.06
  Q 498.44 835.08 460.08 833.64
  C 416.10 831.98 374.21 819.96 335.61 799.40
  Q 285.96 772.96 250.25 730.49
  C 221.05 696.46 200.91 658.66 187.01 616.41
  Q 168.05 559.92 166.22 500.01
  C 166.31 466.56 169.87 432.19 177.93 400.15
  Q 181.94 384.18 184.19 376.69
  C 195.73 338.36 213.25 302.69 235.84 269.66
  Q 243.96 258.47 246.37 255.37
  Q 262.66 234.43 284.26 214.50
  Q 306.73 193.76 329.99 179.24
  Q 370.96 153.67 416.19 140.96
  Q 436.16 135.35 462.20 132.11
  C 470.99 131.01 480.33 130.73 490.75 130.46
  Q 520.93 129.69 551.72 135.36
  C 617.20 147.40 676.68 184.74 717.55 237.20
  Q 721.22 241.92 729.85 254.24
  Z
  M 263.39 266.44
  Q 261.62 268.52 259.99 270.74
  C 234.30 305.77 215.01 345.81 202.69 386.90
  C 191.84 423.05 186.25 461.30 187.04 499.21
  A 1.02 0.98 26.3 0 0 187.25 499.79
  L 187.44 500.04
  Q 187.58 500.73 187.35 500.92
  Q 187.74 560.49 207.52 616.62
  Q 208.25 618.93 209.11 621.18
  C 220.16 650.06 234.80 676.28 252.35 700.92
  Q 264.96 718.64 281.08 735.43
  Q 316.61 772.44 362.73 794.49
  C 402.02 813.28 447.44 822.48 490.75 819.45
  Q 518.51 817.51 545.26 809.75
  C 593.48 795.78 637.39 767.30 672.11 730.83
  C 703.74 697.67 727.43 658.37 744.77 615.98
  Q 767.46 560.25 772.88 500.21
  C 773.88 491.26 774.18 481.48 774.67 473.26
  C 775.33 462.10 774.80 453.77 774.03 439.99
  Q 773.48 430.14 772.81 423.51
  Q 763.46 330.14 709.18 253.61
  Q 706.22 249.21 703.05 245.19
  Q 683.89 220.91 660.32 201.95
  C 616.35 166.58 565.85 146.09 508.86 144.31
  C 501.30 144.08 495.00 144.75 488.41 144.94
  C 469.73 145.50 450.17 148.67 433.03 153.09
  C 380.46 166.64 330.64 195.84 292.33 233.32
  Q 278.51 246.83 263.39 266.44
  Z"
/>
<path fill="#d4121d" d="
  M 709.18 253.61
  Q 703.49 254.65 699.69 254.71
  Q 674.56 255.16 650.61 256.00
  C 645.32 256.18 639.53 255.97 635.19 256.18
  Q 616.26 257.06 601.89 257.03
  C 591.49 257.00 579.04 258.09 567.08 258.10
  C 559.56 258.10 549.95 258.90 543.50 258.96
  Q 528.97 259.10 515.58 259.77
  C 507.53 260.18 498.33 259.77 492.25 260.21
  C 479.43 261.12 466.00 260.77 452.40 261.64
  C 443.48 262.22 433.69 261.89 424.63 262.45
  C 414.03 263.10 402.78 263.11 392.66 263.49
  Q 364.28 264.56 336.26 265.46
  Q 315.34 266.13 294.34 266.59
  Q 294.71 265.43 295.37 264.63
  C 313.94 242.22 333.46 221.94 355.87 204.87
  Q 392.06 177.30 434.64 160.40
  Q 456.29 151.80 478.05 147.76
  A 0.41 0.41 0.0 0 0 478.10 146.96
  Q 477.45 146.76 476.75 146.89
  Q 469.66 148.20 462.45 148.98
  Q 456.27 149.65 453.09 150.16
  Q 444.37 151.58 443.78 151.71
  Q 407.21 159.90 374.67 176.19
  Q 337.63 194.72 305.40 222.73
  Q 297.53 229.57 289.82 237.48
  C 280.72 246.81 272.00 256.56 264.04 267.10
  Q 264.46 266.79 263.99 267.18
  Q 264.40 266.80 263.39 266.44
  Q 278.51 246.83 292.33 233.32
  C 330.64 195.84 380.46 166.64 433.03 153.09
  C 450.17 148.67 469.73 145.50 488.41 144.94
  C 495.00 144.75 501.30 144.08 508.86 144.31
  C 565.85 146.09 616.35 166.58 660.32 201.95
  Q 683.89 220.91 703.05 245.19
  Q 706.22 249.21 709.18 253.61
  Z"
/>
<path fill="#860005" d="
  M 812.60 253.80
  L 798.04 254.41
  Q 795.75 253.90 792.49 254.31
  Q 791.45 253.02 790.96 253.56
  Q 767.40 213.15 735.30 179.10
  Q 727.72 171.07 720.49 164.57
  Q 706.73 152.19 704.95 150.80
  Q 703.41 149.60 697.19 144.95
  A 0.44 0.43 48.4 0 1 697.23 144.22
  L 697.53 144.05
  A 0.42 0.41 -43.9 0 1 697.96 144.05
  C 705.67 148.82 713.12 152.48 720.58 157.51
  Q 730.20 163.99 731.11 164.69
  Q 750.63 179.72 764.71 194.05
  Q 782.30 211.96 799.64 235.11
  Q 807.55 245.67 812.60 253.80
  Z"
/>
<path fill="#860005" d="
  M 294.34 266.59
  Q 293.26 266.93 292.99 267.25
  Q 276.00 288.12 264.65 306.64
  Q 243.41 341.30 229.14 382.75
  Q 229.06 382.98 229.35 383.27
  L 229.31 383.66
  Q 228.51 383.93 228.30 384.51
  Q 220.75 405.61 215.90 429.94
  C 212.07 449.15 209.75 468.38 208.93 487.95
  Q 208.69 493.71 208.18 499.44
  Q 207.70 499.31 207.53 499.50
  Q 207.84 492.27 208.14 485.17
  Q 208.49 476.66 209.03 470.85
  Q 211.26 447.12 216.28 423.50
  C 217.41 418.17 218.69 414.07 219.93 408.58
  Q 220.59 405.65 226.19 387.80
  C 226.50 386.82 226.47 386.14 227.25 385.31
  A 0.81 0.80 -68.7 0 0 226.66 383.95
  L 205.45 384.30
  Q 204.84 383.95 204.89 383.55
  Q 204.95 383.11 205.46 382.53
  L 207.12 383.10
  A 1.10 0.99 -34.1 0 0 207.41 383.14
  L 226.96 383.07
  A 1.17 1.17 0.0 0 0 228.06 382.30
  Q 234.11 365.79 240.31 351.54
  Q 253.51 321.19 271.95 294.17
  Q 278.57 284.46 286.15 274.38
  Q 288.18 271.67 290.21 269.47
  A 1.60 1.58 73.8 0 0 290.59 268.77
  Q 290.80 267.96 291.46 267.65
  A 0.57 0.57 0.0 0 0 291.21 266.57
  L 264.04 267.10
  C 272.00 256.56 280.72 246.81 289.82 237.48
  Q 297.53 229.57 305.40 222.73
  Q 337.63 194.72 374.67 176.19
  Q 407.21 159.90 443.78 151.71
  Q 444.37 151.58 453.09 150.16
  Q 456.27 149.65 462.45 148.98
  Q 469.66 148.20 476.75 146.89
  Q 477.45 146.76 478.10 146.96
  A 0.41 0.41 0.0 0 1 478.05 147.76
  Q 456.29 151.80 434.64 160.40
  Q 392.06 177.30 355.87 204.87
  C 333.46 221.94 313.94 242.22 295.37 264.63
  Q 294.71 265.43 294.34 266.59
  Z"
/>
<path fill="#ffe338" d="
  M 768.86 253.64
  Q 821.49 342.45 826.80 444.50
  Q 828.12 469.92 825.43 500.27
  Q 824.83 500.53 824.72 500.33
  Q 824.45 499.74 823.99 499.74
  Q 808.73 499.71 793.47 499.73
  Q 792.99 499.73 792.72 500.17
  L 792.24 500.44
  Q 792.07 496.21 792.39 491.97
  Q 792.92 484.77 792.95 483.52
  Q 794.16 440.03 786.97 398.51
  Q 773.50 320.78 729.85 254.24
  L 768.86 253.64
  Z
  M 785.06 383.53
  Q 801.74 384.30 817.72 383.86
  Q 818.14 383.85 818.39 383.65
  A 0.35 0.35 0.0 0 0 818.36 383.07
  Q 817.77 382.70 817.63 383.04
  Q 817.59 380.09 816.60 376.23
  Q 813.73 365.05 810.74 353.91
  C 808.46 345.45 805.94 338.46 803.64 331.04
  Q 802.34 326.85 798.29 316.44
  C 790.20 295.63 780.47 275.42 769.06 256.36
  A 2.13 2.13 0.0 0 0 767.23 255.32
  L 732.82 255.32
  A 0.50 0.49 75.4 0 0 732.39 256.06
  Q 733.94 258.82 736.71 263.24
  Q 754.73 291.97 766.48 322.21
  Q 774.23 342.15 776.21 349.46
  Q 779.02 359.83 781.67 368.27
  Q 782.72 371.63 785.06 383.53
  Z"
/>
<path fill="#f48927" d="
  M 792.49 254.31
  Q 803.95 274.54 813.39 295.87
  Q 821.60 314.43 828.25 335.50
  Q 835.87 359.64 840.39 382.45
  Q 840.50 383.05 840.38 383.61
  Q 839.63 383.82 839.70 383.59
  Q 827.68 324.12 799.78 270.36
  Q 795.44 261.99 790.96 253.56
  Q 791.45 253.02 792.49 254.31
  Z"
/>
<path fill="#ffe338" d="
  M 709.18 253.61
  Q 763.46 330.14 772.81 423.51
  Q 773.48 430.14 774.03 439.99
  C 774.80 453.77 775.33 462.10 774.67 473.26
  C 774.18 481.48 773.88 491.26 772.88 500.21
  L 772.24 500.19
  Q 771.97 499.75 771.53 499.75
  Q 727.67 499.62 641.47 499.71
  A 1.47 1.42 28.2 0 0 640.70 499.93
  L 640.36 500.15
  Q 639.94 499.89 639.99 499.24
  C 640.22 496.10 640.88 492.26 640.94 488.66
  Q 641.19 472.97 640.84 466.02
  Q 639.75 444.44 632.83 423.19
  Q 616.56 373.22 575.65 340.13
  C 550.42 319.72 518.26 306.62 486.00 306.14
  Q 460.70 305.77 439.06 312.92
  C 410.33 322.42 386.64 338.83 366.51 361.02
  C 338.47 391.93 321.66 431.94 318.45 473.26
  C 317.80 481.65 317.97 491.27 318.03 500.27
  Q 317.88 500.31 317.73 500.36
  Q 316.86 499.73 316.25 499.73
  Q 293.31 499.62 210.82 499.70
  C 209.86 499.70 209.21 500.21 208.18 499.44
  Q 208.69 493.71 208.93 487.95
  C 209.75 468.38 212.07 449.15 215.90 429.94
  Q 220.75 405.61 228.30 384.51
  Q 228.51 383.93 229.31 383.66
  L 347.63 383.60
  Q 347.95 383.61 348.31 383.02
  Q 355.77 371.05 363.26 362.99
  Q 373.31 352.18 379.25 346.74
  Q 403.39 324.68 432.84 313.87
  Q 462.11 303.14 493.40 305.39
  Q 512.03 306.73 530.86 313.55
  Q 548.92 320.09 565.03 331.00
  Q 595.45 351.61 615.12 382.88
  Q 616.05 384.36 618.97 383.96
  L 765.06 383.87
  Q 765.02 383.92 765.29 383.91
  A 0.35 0.35 0.0 0 0 765.62 383.53
  C 765.53 382.40 764.94 381.34 764.62 379.76
  Q 762.31 368.54 758.93 357.82
  C 756.99 351.68 753.78 341.13 750.82 333.49
  Q 736.12 295.57 713.85 262.14
  Q 713.33 261.34 708.73 254.95
  A 0.86 0.85 61.8 0 0 707.75 254.65
  L 705.63 255.40
  A 1.09 0.92 -50.0 0 1 705.29 255.46
  Q 689.34 255.73 682.29 256.07
  Q 670.90 256.62 659.84 256.71
  Q 655.00 256.74 636.65 257.42
  Q 628.33 257.72 617.72 257.85
  Q 600.78 258.05 598.77 258.25
  Q 595.04 258.63 589.19 258.59
  Q 576.86 258.49 567.03 259.19
  Q 556.43 259.95 546.44 259.85
  Q 542.36 259.80 525.81 260.49
  Q 510.19 261.15 443.91 262.81
  Q 435.98 263.00 429.16 263.43
  Q 421.13 263.94 414.38 263.87
  C 407.06 263.80 400.54 264.65 392.90 264.62
  Q 387.96 264.60 376.78 265.07
  Q 356.81 265.91 318.68 266.78
  C 311.35 266.94 303.20 267.81 294.99 267.60
  A 1.33 1.32 25.3 0 0 294.11 267.91
  Q 292.39 269.33 288.41 274.44
  C 284.42 279.56 280.09 286.41 276.56 291.25
  Q 267.79 303.27 262.57 312.33
  Q 243.98 344.61 231.17 379.97
  Q 230.84 380.88 231.23 383.00
  Q 230.22 382.87 229.35 383.27
  Q 229.06 382.98 229.14 382.75
  Q 243.41 341.30 264.65 306.64
  Q 276.00 288.12 292.99 267.25
  Q 293.26 266.93 294.34 266.59
  Q 315.34 266.13 336.26 265.46
  Q 364.28 264.56 392.66 263.49
  C 402.78 263.11 414.03 263.10 424.63 262.45
  C 433.69 261.89 443.48 262.22 452.40 261.64
  C 466.00 260.77 479.43 261.12 492.25 260.21
  C 498.33 259.77 507.53 260.18 515.58 259.77
  Q 528.97 259.10 543.50 258.96
  C 549.95 258.90 559.56 258.10 567.08 258.10
  C 579.04 258.09 591.49 257.00 601.89 257.03
  Q 616.26 257.06 635.19 256.18
  C 639.53 255.97 645.32 256.18 650.61 256.00
  Q 674.56 255.16 699.69 254.71
  Q 703.49 254.65 709.18 253.61
  Z"
/>
<path fill="#f48927" d="
  M 812.60 253.80
  Q 833.70 286.52 848.03 323.16
  Q 859.62 352.79 866.93 383.71
  L 866.05 383.94
  C 865.22 382.50 865.24 380.62 864.93 379.43
  Q 862.88 371.64 857.99 355.27
  Q 842.01 301.79 812.25 255.43
  A 1.54 1.53 -23.1 0 0 810.59 254.77
  Q 809.02 255.15 807.20 255.01
  Q 805.90 254.90 803.80 255.13
  Q 800.69 255.47 798.04 254.41
  L 812.60 253.80
  Z"
/>
<path fill="#9c4005" d="
  M 798.04 254.41
  Q 800.69 255.47 803.80 255.13
  Q 805.90 254.90 807.20 255.01
  Q 809.02 255.15 810.59 254.77
  A 1.54 1.53 -23.1 0 1 812.25 255.43
  Q 842.01 301.79 857.99 355.27
  Q 862.88 371.64 864.93 379.43
  C 865.24 380.62 865.22 382.50 866.05 383.94
  L 865.73 384.22
  L 841.22 384.37
  L 840.38 383.61
  Q 840.50 383.05 840.39 382.45
  Q 835.87 359.64 828.25 335.50
  Q 821.60 314.43 813.39 295.87
  Q 803.95 274.54 792.49 254.31
  Q 795.75 253.90 798.04 254.41
  Z"
/>
<path fill="#f48927" d="
  M 765.06 383.87
  Q 765.57 382.83 763.50 382.84
  Q 690.63 383.07 617.61 383.03
  A 0.46 0.46 0.0 0 0 617.21 383.71
  Q 617.42 384.09 618.97 383.96
  Q 616.05 384.36 615.12 382.88
  Q 595.45 351.61 565.03 331.00
  Q 548.92 320.09 530.86 313.55
  Q 512.03 306.73 493.40 305.39
  Q 462.11 303.14 432.84 313.87
  Q 403.39 324.68 379.25 346.74
  Q 373.31 352.18 363.26 362.99
  Q 355.77 371.05 348.31 383.02
  Q 347.95 383.61 347.63 383.60
  Q 347.46 382.83 346.01 382.84
  Q 288.61 383.18 231.23 383.00
  Q 230.84 380.88 231.17 379.97
  Q 243.98 344.61 262.57 312.33
  Q 267.79 303.27 276.56 291.25
  C 280.09 286.41 284.42 279.56 288.41 274.44
  Q 292.39 269.33 294.11 267.91
  A 1.33 1.32 25.3 0 1 294.99 267.60
  C 303.20 267.81 311.35 266.94 318.68 266.78
  Q 356.81 265.91 376.78 265.07
  Q 387.96 264.60 392.90 264.62
  C 400.54 264.65 407.06 263.80 414.38 263.87
  Q 421.13 263.94 429.16 263.43
  Q 435.98 263.00 443.91 262.81
  Q 510.19 261.15 525.81 260.49
  Q 542.36 259.80 546.44 259.85
  Q 556.43 259.95 567.03 259.19
  Q 576.86 258.49 589.19 258.59
  Q 595.04 258.63 598.77 258.25
  Q 600.78 258.05 617.72 257.85
  Q 628.33 257.72 636.65 257.42
  Q 655.00 256.74 659.84 256.71
  Q 670.90 256.62 682.29 256.07
  Q 689.34 255.73 705.29 255.46
  A 1.09 0.92 -50.0 0 0 705.63 255.40
  L 707.75 254.65
  A 0.86 0.85 61.8 0 1 708.73 254.95
  Q 713.33 261.34 713.85 262.14
  Q 736.12 295.57 750.82 333.49
  C 753.78 341.13 756.99 351.68 758.93 357.82
  Q 762.31 368.54 764.62 379.76
  C 764.94 381.34 765.53 382.40 765.62 383.53
  A 0.35 0.35 0.0 0 1 765.29 383.91
  Q 765.02 383.92 765.06 383.87
  Z"
/>
<path fill="#f48927" d="
  M 817.63 383.04
  Q 801.35 382.40 785.06 383.53
  Q 782.72 371.63 781.67 368.27
  Q 779.02 359.83 776.21 349.46
  Q 774.23 342.15 766.48 322.21
  Q 754.73 291.97 736.71 263.24
  Q 733.94 258.82 732.39 256.06
  A 0.50 0.49 75.4 0 1 732.82 255.32
  L 767.23 255.32
  A 2.13 2.13 0.0 0 1 769.06 256.36
  C 780.47 275.42 790.20 295.63 798.29 316.44
  Q 802.34 326.85 803.64 331.04
  C 805.94 338.46 808.46 345.45 810.74 353.91
  Q 813.73 365.05 816.60 376.23
  Q 817.59 380.09 817.63 383.04
  Z"
/>
<path fill="#f48927" d="
  M 263.39 266.44
  Q 264.40 266.80 263.99 267.18
  Q 241.34 297.02 225.41 330.95
  Q 214.58 354.01 205.92 379.99
  Q 205.38 381.61 205.46 382.53
  Q 204.95 383.11 204.89 383.55
  Q 204.84 383.95 205.45 384.30
  Q 204.22 386.18 202.84 391.27
  Q 190.98 434.82 189.31 468.78
  Q 189.14 472.31 188.38 485.27
  Q 188.25 487.62 188.29 497.69
  A 0.60 0.59 12.4 0 0 188.64 498.23
  Q 188.71 498.27 188.74 498.29
  A 0.58 0.55 40.5 0 1 188.83 499.14
  L 188.47 499.51
  Q 187.92 499.64 187.44 500.04
  L 187.25 499.79
  A 1.02 0.98 26.3 0 1 187.04 499.21
  C 186.25 461.30 191.84 423.05 202.69 386.90
  C 215.01 345.81 234.30 305.77 259.99 270.74
  Q 261.62 268.52 263.39 266.44
  Z"
/>
<path fill="#9c4005" d="
  M 205.46 382.53
  Q 205.38 381.61 205.92 379.99
  Q 214.58 354.01 225.41 330.95
  Q 241.34 297.02 263.99 267.18
  Q 264.46 266.79 264.04 267.10
  L 291.21 266.57
  A 0.57 0.57 0.0 0 1 291.46 267.65
  Q 290.80 267.96 290.59 268.77
  A 1.60 1.58 73.8 0 1 290.21 269.47
  Q 288.18 271.67 286.15 274.38
  Q 278.57 284.46 271.95 294.17
  Q 253.51 321.19 240.31 351.54
  Q 234.11 365.79 228.06 382.30
  A 1.17 1.17 0.0 0 1 226.96 383.07
  L 207.41 383.14
  A 1.10 0.99 -34.1 0 1 207.12 383.10
  L 205.46 382.53
  Z"
/>
<path fill="#ffe338" d="
  M 235.84 269.66
  C 213.25 302.69 195.73 338.36 184.19 376.69
  Q 181.94 384.18 177.93 400.15
  C 169.87 432.19 166.31 466.56 166.22 500.01
  L 165.44 500.20
  Q 164.93 499.75 164.47 499.75
  Q 155.37 499.58 138.75 499.63
  Q 137.58 499.64 137.23 500.46
  L 136.68 500.17
  Q 136.43 406.72 174.48 322.21
  Q 186.17 296.23 202.20 270.07
  L 235.84 269.66
  Z
  M 153.68 383.11
  L 153.64 383.61
  A 0.34 0.34 0.0 0 0 153.99 383.98
  L 181.00 383.66
  Q 181.22 383.63 181.32 383.24
  Q 184.23 372.22 188.46 360.18
  Q 204.48 314.55 232.42 272.91
  Q 232.72 272.45 233.09 271.56
  A 0.52 0.52 0.0 0 0 232.59 270.84
  Q 222.53 271.05 214.00 271.58
  Q 208.69 271.92 203.59 270.98
  A 1.05 1.05 0.0 0 0 202.49 271.47
  Q 186.20 298.36 173.19 327.72
  Q 169.70 335.61 165.43 347.20
  Q 159.42 363.50 158.39 366.98
  Q 155.99 375.05 153.68 383.11
  Z"
/>
<path fill="#f48927" d="
  M 181.00 383.66
  Q 181.06 383.09 180.59 383.09
  Q 167.29 382.93 153.68 383.11
  Q 155.99 375.05 158.39 366.98
  Q 159.42 363.50 165.43 347.20
  Q 169.70 335.61 173.19 327.72
  Q 186.20 298.36 202.49 271.47
  A 1.05 1.05 0.0 0 1 203.59 270.98
  Q 208.69 271.92 214.00 271.58
  Q 222.53 271.05 232.59 270.84
  A 0.52 0.52 0.0 0 1 233.09 271.56
  Q 232.72 272.45 232.42 272.91
  Q 204.48 314.55 188.46 360.18
  Q 184.23 372.22 181.32 383.24
  Q 181.22 383.63 181.00 383.66
  Z"
/>
<path fill="#000000" d="
  M 640.36 500.15
  Q 640.36 500.28 640.35 500.40
  Q 634.00 550.39 604.50 591.25
  Q 594.93 604.51 582.91 615.74
  Q 576.16 621.24 569.27 626.74
  Q 554.21 638.77 537.98 646.66
  C 496.80 666.65 447.25 667.47 406.23 646.51
  C 394.23 640.38 382.92 632.89 373.14 623.60
  Q 369.16 619.82 365.24 616.00
  Q 346.42 595.71 335.11 570.37
  C 325.03 547.78 319.84 524.97 318.03 500.27
  C 317.97 491.27 317.80 481.65 318.45 473.26
  C 321.66 431.94 338.47 391.93 366.51 361.02
  C 386.64 338.83 410.33 322.42 439.06 312.92
  Q 460.70 305.77 486.00 306.14
  C 518.26 306.62 550.42 319.72 575.65 340.13
  Q 616.56 373.22 632.83 423.19
  Q 639.75 444.44 640.84 466.02
  Q 641.19 472.97 640.94 488.66
  C 640.88 492.26 640.22 496.10 639.99 499.24
  Q 639.94 499.89 640.36 500.15
  Z
  M 374.54 500.11
  Q 374.31 500.48 374.45 500.83
  L 337.41 500.92
  Q 337.57 514.68 341.84 531.68
  Q 353.97 579.97 391.01 610.73
  Q 396.11 614.96 398.58 616.59
  Q 400.81 618.54 403.27 620.23
  C 421.84 632.95 445.37 640.98 467.75 640.53
  Q 506.24 639.75 537.04 616.38
  Q 537.93 615.58 538.87 614.85
  Q 557.21 600.63 570.98 581.99
  Q 596.25 547.79 603.29 505.78
  Q 603.75 503.02 603.93 500.29
  Q 604.68 498.42 604.71 497.73
  Q 605.23 486.53 605.62 479.83
  C 605.98 473.58 605.32 469.51 604.95 462.52
  Q 604.61 456.20 603.50 449.61
  Q 598.57 420.30 584.03 393.84
  Q 575.17 377.73 564.80 366.33
  C 545.63 345.29 521.76 330.16 493.26 326.53
  Q 464.85 322.92 439.10 332.16
  C 403.35 344.98 374.37 374.37 356.51 407.33
  Q 341.45 435.11 337.63 466.91
  Q 335.63 483.57 336.37 499.33
  A 0.86 0.86 0.0 0 0 337.78 499.95
  Q 337.94 499.82 338.75 499.79
  Q 347.08 499.54 373.75 499.77
  Q 374.26 499.78 374.54 500.11
  Z
  M 624.11 500.21
  Q 616.99 554.81 582.53 597.31
  Q 579.31 601.27 573.42 608.68
  A 0.17 0.17 0.0 0 0 573.66 608.92
  C 577.06 606.33 581.16 603.98 584.02 601.20
  C 610.96 574.97 626.65 537.18 632.12 500.28
  Q 632.70 499.58 632.80 498.75
  Q 635.12 479.83 633.29 461.25
  C 630.90 436.98 624.23 412.23 611.13 392.12
  Q 608.85 388.63 607.53 387.25
  A 0.33 0.33 0.0 0 0 606.99 387.61
  Q 608.57 391.07 609.93 396.38
  C 612.93 408.06 617.98 420.98 619.64 427.87
  Q 626.81 457.66 624.65 489.73
  Q 624.29 495.01 624.11 500.21
  Z"
/>
<path fill="#ffe338" d="
  M 603.93 500.29
  Q 603.55 500.21 603.29 500.27
  Q 602.97 499.69 602.46 499.69
  Q 592.70 499.56 567.26 499.75
  Q 565.96 499.76 566.35 500.83
  L 565.25 506.46
  Q 564.65 506.69 564.36 506.45
  Q 568.27 486.93 566.77 469.00
  C 564.28 439.34 549.81 410.25 525.19 392.49
  Q 517.96 387.27 515.23 385.82
  C 477.68 365.82 434.51 374.54 406.22 405.71
  C 385.39 428.67 374.18 457.31 374.88 488.31
  Q 375.01 494.20 375.23 499.93
  Q 374.68 500.17 374.54 500.11
  Q 374.26 499.78 373.75 499.77
  Q 347.08 499.54 338.75 499.79
  Q 337.94 499.82 337.78 499.95
  A 0.86 0.86 0.0 0 1 336.37 499.33
  Q 335.63 483.57 337.63 466.91
  Q 341.45 435.11 356.51 407.33
  C 374.37 374.37 403.35 344.98 439.10 332.16
  Q 464.85 322.92 493.26 326.53
  C 521.76 330.16 545.63 345.29 564.80 366.33
  Q 575.17 377.73 584.03 393.84
  Q 598.57 420.30 603.50 449.61
  Q 604.61 456.20 604.95 462.52
  C 605.32 469.51 605.98 473.58 605.62 479.83
  Q 605.23 486.53 604.71 497.73
  Q 604.68 498.42 603.93 500.29
  Z
  M 373.61 384.03
  L 430.38 384.03
  A 8.63 8.59 -58.1 0 0 434.23 383.12
  Q 449.03 375.68 466.06 374.14
  Q 467.39 374.02 477.82 374.18
  Q 484.46 374.29 489.46 375.41
  Q 502.56 378.36 512.71 383.18
  A 8.06 8.06 0.0 0 0 516.19 383.97
  L 576.64 383.97
  A 0.18 0.18 0.0 0 0 576.79 383.69
  Q 572.29 376.83 567.85 371.42
  Q 561.63 363.85 550.64 354.14
  Q 537.34 342.41 520.41 334.96
  C 505.31 328.31 487.22 325.70 471.26 326.71
  Q 436.41 328.90 407.26 350.05
  Q 388.20 363.88 373.31 383.43
  A 0.38 0.37 18.6 0 0 373.61 384.03
  Z"
/>
<path fill="#f48927" d="
  M 373.31 383.43
  Q 388.20 363.88 407.26 350.05
  Q 436.41 328.90 471.26 326.71
  C 487.22 325.70 505.31 328.31 520.41 334.96
  Q 537.34 342.41 550.64 354.14
  Q 561.63 363.85 567.85 371.42
  Q 572.29 376.83 576.79 383.69
  A 0.18 0.18 0.0 0 1 576.64 383.97
  L 516.19 383.97
  A 8.06 8.06 0.0 0 1 512.71 383.18
  Q 502.56 378.36 489.46 375.41
  Q 484.46 374.29 477.82 374.18
  Q 467.39 374.02 466.06 374.14
  Q 449.03 375.68 434.23 383.12
  A 8.63 8.59 -58.1 0 1 430.38 384.03
  L 373.61 384.03
  A 0.38 0.37 18.6 0 1 373.31 383.43
  Z"
/>
<path fill="#000000" d="
  M 564.36 506.45
  Q 556.08 541.26 531.87 565.87
  Q 522.39 575.50 508.47 583.07
  C 486.43 595.07 458.50 595.70 435.71 586.77
  Q 402.44 573.72 386.62 541.11
  Q 377.62 522.55 375.23 499.93
  Q 375.01 494.20 374.88 488.31
  C 374.18 457.31 385.39 428.67 406.22 405.71
  C 434.51 374.54 477.68 365.82 515.23 385.82
  Q 517.96 387.27 525.19 392.49
  C 549.81 410.25 564.28 439.34 566.77 469.00
  Q 568.27 486.93 564.36 506.45
  Z
  M 487.04 397.00
  Q 467.59 393.76 450.84 399.91
  C 437.31 404.88 424.69 415.36 415.85 427.09
  Q 394.99 454.76 395.17 489.50
  C 395.30 513.66 402.61 536.98 418.95 553.79
  C 433.05 568.30 455.60 578.16 476.04 575.44
  Q 479.98 574.92 484.12 574.89
  A 0.23 0.23 0.0 0 0 484.21 574.45
  Q 458.16 563.09 444.68 537.77
  Q 429.80 509.84 433.67 477.67
  Q 436.73 452.21 448.86 433.69
  C 459.09 418.09 470.73 406.31 487.15 397.69
  A 0.37 0.37 0.0 0 0 487.04 397.00
  Z
  M 507.56 405.45
  Q 501.45 407.89 492.90 412.65
  Q 482.54 418.42 473.72 427.99
  Q 458.03 445.02 452.19 467.50
  Q 449.18 479.09 449.46 489.72
  Q 449.74 500.66 452.55 511.97
  Q 455.60 524.27 463.79 536.44
  Q 477.07 556.18 498.59 565.52
  A 1.25 1.24 40.6 0 0 499.74 565.44
  C 520.74 552.43 537.25 534.37 544.54 511.08
  Q 552.00 487.29 547.44 463.16
  C 543.22 440.88 529.34 417.67 509.34 405.59
  A 2.02 2.00 -40.2 0 0 507.56 405.45
  Z"
/>
<path fill="#d4121d" d="
  M 817.63 383.04
  Q 817.77 382.70 818.36 383.07
  A 0.35 0.35 0.0 0 1 818.39 383.65
  Q 818.14 383.85 817.72 383.86
  Q 801.74 384.30 785.06 383.53
  Q 801.35 382.40 817.63 383.04
  Z"
/>
<path fill="#d4121d" d="
  M 181.00 383.66
  L 153.99 383.98
  A 0.34 0.34 0.0 0 1 153.64 383.61
  L 153.68 383.11
  Q 167.29 382.93 180.59 383.09
  Q 181.06 383.09 181.00 383.66
  Z"
/>
<path fill="#d4121d" d="
  M 347.63 383.60
  L 229.31 383.66
  L 229.35 383.27
  Q 230.22 382.87 231.23 383.00
  Q 288.61 383.18 346.01 382.84
  Q 347.46 382.83 347.63 383.60
  Z"
/>
<path fill="#d4121d" d="
  M 765.06 383.87
  L 618.97 383.96
  Q 617.42 384.09 617.21 383.71
  A 0.46 0.46 0.0 0 1 617.61 383.03
  Q 690.63 383.07 763.50 382.84
  Q 765.57 382.83 765.06 383.87
  Z"
/>
<path fill="#ffe338" d="
  M 840.38 383.61
  L 841.22 384.37
  Q 847.89 419.46 848.91 448.50
  Q 849.10 453.92 848.95 488.34
  C 848.94 491.40 848.29 494.71 848.35 497.89
  A 0.31 0.30 -0.0 0 0 848.66 498.19
  L 873.68 498.19
  A 0.73 0.73 0.0 0 0 874.40 497.56
  Q 874.78 494.72 874.81 492.50
  Q 875.05 475.20 874.91 458.41
  Q 874.88 454.83 874.41 448.62
  Q 874.27 446.70 873.84 438.82
  Q 872.60 416.25 865.73 384.22
  L 866.05 383.94
  L 866.93 383.71
  Q 867.29 386.26 867.82 388.80
  Q 874.65 421.87 875.81 449.50
  Q 876.83 474.14 875.76 498.77
  Q 875.73 499.31 875.28 499.74
  L 848.62 499.39
  A 1.53 1.48 26.9 0 0 847.77 499.65
  L 847.20 500.03
  L 846.82 499.77
  Q 851.03 441.11 839.70 383.59
  Q 839.63 383.82 840.38 383.61
  Z"
/>
<path fill="#9e8400" d="
  M 207.53 499.50
  L 188.47 499.51
  L 188.83 499.14
  A 0.58 0.55 40.5 0 0 188.74 498.29
  Q 188.71 498.27 188.64 498.23
  A 0.60 0.59 12.4 0 1 188.29 497.69
  Q 188.25 487.62 188.38 485.27
  Q 189.14 472.31 189.31 468.78
  Q 190.98 434.82 202.84 391.27
  Q 204.22 386.18 205.45 384.30
  L 226.66 383.95
  A 0.81 0.80 -68.7 0 1 227.25 385.31
  C 226.47 386.14 226.50 386.82 226.19 387.80
  Q 220.59 405.65 219.93 408.58
  C 218.69 414.07 217.41 418.17 216.28 423.50
  Q 211.26 447.12 209.03 470.85
  Q 208.49 476.66 208.14 485.17
  Q 207.84 492.27 207.53 499.50
  Z"
/>
<path fill="#9e8400" d="
  M 865.73 384.22
  Q 872.60 416.25 873.84 438.82
  Q 874.27 446.70 874.41 448.62
  Q 874.88 454.83 874.91 458.41
  Q 875.05 475.20 874.81 492.50
  Q 874.78 494.72 874.40 497.56
  A 0.73 0.73 0.0 0 1 873.68 498.19
  L 848.66 498.19
  A 0.31 0.30 -0.0 0 1 848.35 497.89
  C 848.29 494.71 848.94 491.40 848.95 488.34
  Q 849.10 453.92 848.91 448.50
  Q 847.89 419.46 841.22 384.37
  L 865.73 384.22
  Z"
/>
<path fill="#f48927" d="
  M 632.12 500.28
  Q 631.78 500.01 631.98 499.78
  Q 628.27 499.03 625.12 499.62
  Q 624.71 499.70 624.39 500.25
  L 624.11 500.21
  Q 624.29 495.01 624.65 489.73
  Q 626.81 457.66 619.64 427.87
  C 617.98 420.98 612.93 408.06 609.93 396.38
  Q 608.57 391.07 606.99 387.61
  A 0.33 0.33 0.0 0 1 607.53 387.25
  Q 608.85 388.63 611.13 392.12
  C 624.23 412.23 630.90 436.98 633.29 461.25
  Q 635.12 479.83 632.80 498.75
  Q 632.70 499.58 632.12 500.28
  Z
  M 610.72 393.72
  Q 610.68 394.27 610.75 394.45
  A 0.34 0.34 0.0 0 0 611.39 394.44
  Q 611.48 394.18 611.14 393.62
  A 0.23 0.23 0.0 0 0 610.72 393.72
  Z
  M 611.25 395.33
  Q 613.25 402.25 618.00 417.78
  C 621.94 430.64 624.98 444.57 625.81 458.32
  Q 626.68 472.51 626.66 476.25
  Q 626.65 482.02 625.48 497.50
  A 0.83 0.82 -87.7 0 0 626.30 498.39
  L 630.52 498.39
  A 1.12 1.11 -85.8 0 0 631.62 497.43
  Q 633.33 485.61 633.01 472.55
  Q 632.94 469.80 632.40 465.93
  Q 632.00 463.03 631.65 459.29
  Q 630.14 442.95 624.07 422.71
  Q 620.38 410.43 613.38 398.74
  Q 612.32 396.97 611.97 395.03
  A 0.11 0.10 82.8 0 0 611.87 394.95
  L 611.53 394.95
  A 0.30 0.29 81.8 0 0 611.25 395.33
  Z"
/>
<path fill="#9c4005" d="
  M 611.14 393.62
  Q 611.48 394.18 611.39 394.44
  A 0.34 0.34 0.0 0 1 610.75 394.45
  Q 610.68 394.27 610.72 393.72
  A 0.23 0.23 0.0 0 1 611.14 393.62
  Z"
/>
<path fill="#9e8400" d="
  M 611.25 395.33
  A 0.30 0.29 81.8 0 1 611.53 394.95
  L 611.87 394.95
  A 0.11 0.10 82.8 0 1 611.97 395.03
  Q 612.32 396.97 613.38 398.74
  Q 620.38 410.43 624.07 422.71
  Q 630.14 442.95 631.65 459.29
  Q 632.00 463.03 632.40 465.93
  Q 632.94 469.80 633.01 472.55
  Q 633.33 485.61 631.62 497.43
  A 1.12 1.11 -85.8 0 1 630.52 498.39
  L 626.30 498.39
  A 0.83 0.82 -87.7 0 1 625.48 497.50
  Q 626.65 482.02 626.66 476.25
  Q 626.68 472.51 625.81 458.32
  C 624.98 444.57 621.94 430.64 618.00 417.78
  Q 613.25 402.25 611.25 395.33
  Z"
/>
<path fill="#6514b6" d="
  M 487.04 397.00
  A 0.37 0.37 0.0 0 1 487.15 397.69
  C 470.73 406.31 459.09 418.09 448.86 433.69
  Q 436.73 452.21 433.67 477.67
  Q 429.80 509.84 444.68 537.77
  Q 458.16 563.09 484.21 574.45
  A 0.23 0.23 0.0 0 1 484.12 574.89
  Q 479.98 574.92 476.04 575.44
  C 455.60 578.16 433.05 568.30 418.95 553.79
  C 402.61 536.98 395.30 513.66 395.17 489.50
  Q 394.99 454.76 415.85 427.09
  C 424.69 415.36 437.31 404.88 450.84 399.91
  Q 467.59 393.76 487.04 397.00
  Z
  M 484.33 397.94
  Q 478.54 396.36 471.50 396.81
  C 458.58 397.65 447.12 400.96 436.42 408.48
  Q 425.04 416.49 417.46 426.50
  Q 408.04 438.93 403.52 450.50
  Q 398.30 463.85 396.73 476.40
  Q 395.88 483.14 396.22 494.79
  Q 396.46 502.99 398.34 511.54
  C 402.49 530.46 411.35 547.18 426.50 559.36
  Q 441.90 571.74 462.81 574.64
  Q 471.32 575.82 479.37 573.90
  A 0.31 0.31 0.0 0 0 479.43 573.32
  Q 471.89 569.61 465.67 564.59
  Q 455.14 556.08 448.25 545.55
  Q 439.25 531.81 434.93 515.48
  Q 432.42 505.98 432.09 495.35
  Q 431.74 484.28 433.01 474.99
  Q 436.08 452.70 447.80 433.83
  Q 448.51 432.68 452.19 427.57
  Q 456.12 422.12 456.68 421.42
  C 460.13 417.06 464.12 413.41 468.78 409.20
  Q 475.52 403.11 484.38 398.34
  A 0.22 0.21 38.6 0 0 484.33 397.94
  Z"
/>
<path fill="#4b1973" d="
  M 484.33 397.94
  A 0.22 0.21 38.6 0 1 484.38 398.34
  Q 475.52 403.11 468.78 409.20
  C 464.12 413.41 460.13 417.06 456.68 421.42
  Q 456.12 422.12 452.19 427.57
  Q 448.51 432.68 447.80 433.83
  Q 436.08 452.70 433.01 474.99
  Q 431.74 484.28 432.09 495.35
  Q 432.42 505.98 434.93 515.48
  Q 439.25 531.81 448.25 545.55
  Q 455.14 556.08 465.67 564.59
  Q 471.89 569.61 479.43 573.32
  A 0.31 0.31 0.0 0 1 479.37 573.90
  Q 471.32 575.82 462.81 574.64
  Q 441.90 571.74 426.50 559.36
  C 411.35 547.18 402.49 530.46 398.34 511.54
  Q 396.46 502.99 396.22 494.79
  Q 395.88 483.14 396.73 476.40
  Q 398.30 463.85 403.52 450.50
  Q 408.04 438.93 417.46 426.50
  Q 425.04 416.49 436.42 408.48
  C 447.12 400.96 458.58 397.65 471.50 396.81
  Q 478.54 396.36 484.33 397.94
  Z"
/>
<path fill="#205213" d="
  M 188.47 499.51
  L 207.53 499.50
  Q 207.70 499.31 208.18 499.44
  C 209.21 500.21 209.86 499.70 210.82 499.70
  Q 293.31 499.62 316.25 499.73
  Q 316.86 499.73 317.73 500.36
  L 317.44 500.50
  Q 317.06 501.00 316.33 500.87
  Q 315.22 500.67 315.13 500.67
  Q 297.60 500.54 284.74 500.75
  Q 274.06 500.93 270.25 500.79
  Q 265.60 500.63 255.75 500.83
  Q 250.14 500.95 237.50 500.72
  Q 221.49 500.44 209.34 500.80
  A 0.80 0.79 89.3 0 0 208.57 501.60
  C 208.83 539.56 213.44 577.52 223.83 614.43
  Q 224.00 615.03 223.90 615.47
  C 222.56 616.39 222.04 615.88 220.71 615.88
  Q 214.44 615.93 208.20 615.86
  Q 207.85 615.24 207.67 614.71
  Q 188.77 559.64 188.06 501.35
  Q 188.05 501.00 187.86 500.93
  Q 187.67 500.87 187.35 500.92
  Q 187.58 500.73 187.44 500.04
  Q 187.92 499.64 188.47 499.51
  Z"
/>
<path fill="#205213" d="
  M 631.98 499.78
  Q 631.19 501.81 630.93 503.43
  Q 626.28 532.12 613.55 558.55
  Q 605.52 575.21 593.86 589.70
  Q 590.77 593.53 587.23 596.90
  C 584.90 599.11 580.53 603.96 578.33 604.25
  A 0.20 0.20 0.0 0 1 578.16 603.92
  Q 580.67 601.24 581.13 600.63
  Q 589.07 590.08 590.28 588.42
  Q 594.79 582.27 598.72 575.72
  Q 617.69 544.02 624.06 506.30
  Q 624.64 502.88 624.39 500.25
  Q 624.71 499.70 625.12 499.62
  Q 628.27 499.03 631.98 499.78
  Z"
/>
<path fill="#205213" d="
  M 875.28 499.74
  L 875.19 500.74
  Q 875.01 500.73 874.87 500.73
  A 0.42 0.42 0.0 0 0 874.45 501.12
  Q 870.40 559.99 850.99 615.69
  L 850.12 616.16
  L 823.28 615.91
  Q 823.21 614.57 823.79 613.04
  Q 827.35 603.73 832.33 586.37
  Q 835.63 574.87 838.54 562.25
  Q 840.41 554.16 842.21 543.30
  Q 844.87 527.21 845.19 524.25
  Q 846.74 510.01 847.37 504.62
  Q 847.58 502.87 847.20 500.03
  L 847.77 499.65
  A 1.53 1.48 26.9 0 1 848.62 499.39
  L 875.28 499.74
  Z"
/>
<path fill="#205213" d="
  M 165.44 500.20
  Q 165.77 500.42 165.42 500.91
  L 137.57 501.13
  L 137.23 500.46
  Q 137.58 499.64 138.75 499.63
  Q 155.37 499.58 164.47 499.75
  Q 164.93 499.75 165.44 500.20
  Z"
/>
<path fill="#205213" d="
  M 603.29 500.27
  Q 603.43 501.03 602.69 501.16
  L 566.35 500.83
  Q 565.96 499.76 567.26 499.75
  Q 592.70 499.56 602.46 499.69
  Q 602.97 499.69 603.29 500.27
  Z"
/>
<path fill="#205213" d="
  M 772.24 500.19
  Q 772.33 500.63 771.83 500.86
  L 640.85 500.81
  Q 640.72 500.52 640.35 500.40
  Q 640.36 500.28 640.36 500.15
  L 640.70 499.93
  A 1.47 1.42 28.2 0 1 641.47 499.71
  Q 727.67 499.62 771.53 499.75
  Q 771.97 499.75 772.24 500.19
  Z"
/>
<path fill="#205213" d="
  M 824.72 500.33
  L 824.21 500.88
  L 793.37 500.80
  A 0.78 0.76 58.3 0 1 793.01 500.71
  Q 792.88 500.64 792.76 500.57
  L 792.72 500.17
  Q 792.99 499.73 793.47 499.73
  Q 808.73 499.71 823.99 499.74
  Q 824.45 499.74 824.72 500.33
  Z"
/>
<path fill="#38922d" d="
  M 847.20 500.03
  Q 847.58 502.87 847.37 504.62
  Q 846.74 510.01 845.19 524.25
  Q 844.87 527.21 842.21 543.30
  Q 840.41 554.16 838.54 562.25
  Q 835.63 574.87 832.33 586.37
  Q 827.35 603.73 823.79 613.04
  Q 823.21 614.57 823.28 615.91
  Q 822.85 615.55 822.42 616.31
  Q 822.03 616.18 821.83 616.21
  Q 842.52 559.80 846.82 499.77
  L 847.20 500.03
  Z"
/>
<path fill="#69f24a" d="
  M 166.22 500.01
  Q 168.05 559.92 187.01 616.41
  L 185.03 615.81
  Q 185.42 614.59 185.16 613.82
  Q 175.01 583.77 170.17 552.72
  Q 168.93 544.78 167.40 533.02
  C 167.04 530.28 166.87 526.53 166.37 522.89
  Q 165.48 516.53 165.42 500.91
  Q 165.77 500.42 165.44 500.20
  L 166.22 500.01
  Z"
/>
<path fill="#69f24a" d="
  M 375.23 499.93
  Q 377.62 522.55 386.62 541.11
  Q 402.44 573.72 435.71 586.77
  C 458.50 595.70 486.43 595.07 508.47 583.07
  Q 522.39 575.50 531.87 565.87
  Q 556.08 541.26 564.36 506.45
  Q 564.65 506.69 565.25 506.46
  Q 559.31 532.93 543.05 554.50
  Q 532.32 568.73 516.26 579.49
  C 490.56 596.72 458.50 598.04 430.37 585.64
  C 406.89 575.28 389.56 554.53 381.14 530.41
  C 378.40 522.54 375.89 513.86 375.13 505.60
  Q 374.91 503.12 374.45 500.83
  Q 374.31 500.48 374.54 500.11
  Q 374.68 500.17 375.23 499.93
  Z"
/>
<path fill="#38922d" d="
  M 632.12 500.28
  C 626.65 537.18 610.96 574.97 584.02 601.20
  C 581.16 603.98 577.06 606.33 573.66 608.92
  A 0.17 0.17 0.0 0 1 573.42 608.68
  Q 579.31 601.27 582.53 597.31
  Q 616.99 554.81 624.11 500.21
  L 624.39 500.25
  Q 624.64 502.88 624.06 506.30
  Q 617.69 544.02 598.72 575.72
  Q 594.79 582.27 590.28 588.42
  Q 589.07 590.08 581.13 600.63
  Q 580.67 601.24 578.16 603.92
  A 0.20 0.20 0.0 0 0 578.33 604.25
  C 580.53 603.96 584.90 599.11 587.23 596.90
  Q 590.77 593.53 593.86 589.70
  Q 605.52 575.21 613.55 558.55
  Q 626.28 532.12 630.93 503.43
  Q 631.19 501.81 631.98 499.78
  Q 631.78 500.01 632.12 500.28
  Z"
/>
<path fill="#69f24a" d="
  M 772.88 500.21
  Q 767.46 560.25 744.77 615.98
  Q 744.42 616.05 743.89 615.88
  Q 752.28 594.26 757.20 577.65
  Q 768.05 541.07 771.83 500.86
  Q 772.33 500.63 772.24 500.19
  L 772.88 500.21
  Z"
/>
<path fill="#69f24a" d="
  M 137.23 500.46
  L 137.57 501.13
  C 138.15 511.40 138.51 522.41 139.43 531.94
  Q 143.56 574.76 155.46 615.97
  Q 155.26 616.17 154.47 616.29
  Q 137.89 559.46 136.68 500.17
  L 137.23 500.46
  Z"
/>
<path fill="#69f24a" d="
  M 318.03 500.27
  C 319.84 524.97 325.03 547.78 335.11 570.37
  Q 346.42 595.71 365.24 616.00
  L 362.80 615.94
  Q 362.72 614.88 362.09 614.15
  Q 337.39 585.76 325.95 549.29
  Q 318.89 526.77 317.38 503.18
  Q 317.30 501.85 317.44 500.50
  L 317.73 500.36
  Q 317.88 500.31 318.03 500.27
  Z"
/>
<path fill="#69f24a" d="
  M 603.93 500.29
  Q 603.75 503.02 603.29 505.78
  Q 596.25 547.79 570.98 581.99
  Q 557.21 600.63 538.87 614.85
  Q 537.93 615.58 537.04 616.38
  Q 536.90 615.83 535.88 615.75
  Q 540.56 612.62 544.72 608.97
  Q 573.95 583.34 589.83 547.80
  Q 596.93 531.90 600.91 512.48
  Q 602.44 505.02 602.69 501.16
  Q 603.43 501.03 603.29 500.27
  Q 603.55 500.21 603.93 500.29
  Z"
/>
<path fill="#69f24a" d="
  M 792.72 500.17
  L 792.76 500.57
  Q 792.63 512.14 791.66 518.13
  C 790.15 527.52 789.03 537.01 787.31 545.40
  Q 780.63 577.88 770.48 606.02
  Q 767.93 613.09 767.14 615.85
  Q 766.16 616.54 765.64 616.03
  Q 787.54 560.04 792.24 500.44
  L 792.72 500.17
  Z"
/>
<path fill="#69f24a" d="
  M 825.43 500.27
  Q 819.70 560.45 798.86 616.80
  Q 798.04 616.38 798.06 615.78
  Q 815.72 568.24 822.19 518.24
  Q 823.31 509.59 824.21 500.88
  L 824.72 500.33
  Q 824.83 500.53 825.43 500.27
  Z"
/>
<path fill="#38922d" d="
  M 317.44 500.50
  Q 317.30 501.85 317.38 503.18
  Q 318.89 526.77 325.95 549.29
  Q 337.39 585.76 362.09 614.15
  Q 362.72 614.88 362.80 615.94
  L 224.81 615.94
  Q 224.32 616.39 223.90 615.47
  Q 224.00 615.03 223.83 614.43
  C 213.44 577.52 208.83 539.56 208.57 501.60
  A 0.80 0.79 89.3 0 1 209.34 500.80
  Q 221.49 500.44 237.50 500.72
  Q 250.14 500.95 255.75 500.83
  Q 265.60 500.63 270.25 500.79
  Q 274.06 500.93 284.74 500.75
  Q 297.60 500.54 315.13 500.67
  Q 315.22 500.67 316.33 500.87
  Q 317.06 501.00 317.44 500.50
  Z"
/>
<path fill="#69f24a" d="
  M 640.85 500.81
  Q 640.79 502.90 640.54 505.23
  Q 639.31 516.57 636.03 528.29
  C 627.02 560.48 609.90 590.88 585.72 614.29
  A 1.24 1.21 -20.1 0 0 585.35 615.06
  L 585.31 615.49
  Q 583.19 616.52 582.91 615.74
  Q 594.93 604.51 604.50 591.25
  Q 634.00 550.39 640.35 500.40
  Q 640.72 500.52 640.85 500.81
  Z"
/>
<path fill="#38922d" d="
  M 165.42 500.91
  Q 165.48 516.53 166.37 522.89
  C 166.87 526.53 167.04 530.28 167.40 533.02
  Q 168.93 544.78 170.17 552.72
  Q 175.01 583.77 185.16 613.82
  Q 185.42 614.59 185.03 615.81
  L 155.46 615.97
  Q 143.56 574.76 139.43 531.94
  C 138.51 522.41 138.15 511.40 137.57 501.13
  L 165.42 500.91
  Z"
/>
<path fill="#38922d" d="
  M 208.20 615.86
  L 208.17 616.31
  Q 207.95 616.50 207.52 616.62
  Q 187.74 560.49 187.35 500.92
  Q 187.67 500.87 187.86 500.93
  Q 188.05 501.00 188.06 501.35
  Q 188.77 559.64 207.67 614.71
  Q 207.85 615.24 208.20 615.86
  Z"
/>
<path fill="#69f24a" d="
  M 337.41 500.92
  Q 340.55 529.09 348.51 550.25
  Q 363.53 590.19 399.65 616.24
  Q 398.86 615.84 398.58 616.59
  Q 396.11 614.96 391.01 610.73
  Q 353.97 579.97 341.84 531.68
  Q 337.57 514.68 337.41 500.92
  Z"
/>
<path fill="#38922d" d="
  M 374.45 500.83
  Q 374.91 503.12 375.13 505.60
  C 375.89 513.86 378.40 522.54 381.14 530.41
  C 389.56 554.53 406.89 575.28 430.37 585.64
  C 458.50 598.04 490.56 596.72 516.26 579.49
  Q 532.32 568.73 543.05 554.50
  Q 559.31 532.93 565.25 506.46
  L 566.35 500.83
  L 602.69 501.16
  Q 602.44 505.02 600.91 512.48
  Q 596.93 531.90 589.83 547.80
  Q 573.95 583.34 544.72 608.97
  Q 540.56 612.62 535.88 615.75
  L 399.65 616.24
  Q 363.53 590.19 348.51 550.25
  Q 340.55 529.09 337.41 500.92
  L 374.45 500.83
  Z"
/>
<path fill="#38922d" d="
  M 771.83 500.86
  Q 768.05 541.07 757.20 577.65
  Q 752.28 594.26 743.89 615.88
  Q 665.10 616.27 586.00 615.96
  Q 585.50 615.96 585.31 615.49
  L 585.35 615.06
  A 1.24 1.21 -20.1 0 1 585.72 614.29
  C 609.90 590.88 627.02 560.48 636.03 528.29
  Q 639.31 516.57 640.54 505.23
  Q 640.79 502.90 640.85 500.81
  L 771.83 500.86
  Z"
/>
<path fill="#38922d" d="
  M 824.21 500.88
  Q 823.31 509.59 822.19 518.24
  Q 815.72 568.24 798.06 615.78
  L 767.14 615.85
  Q 767.93 613.09 770.48 606.02
  Q 780.63 577.88 787.31 545.40
  C 789.03 537.01 790.15 527.52 791.66 518.13
  Q 792.63 512.14 792.76 500.57
  Q 792.88 500.64 793.01 500.71
  A 0.78 0.76 58.3 0 0 793.37 500.80
  L 824.21 500.88
  Z"
/>
<path fill="#38922d" d="
  M 875.19 500.74
  Q 871.38 560.07 851.58 616.06
  Q 851.01 615.85 850.99 615.69
  Q 870.40 559.99 874.45 501.12
  A 0.42 0.42 0.0 0 1 874.87 500.73
  Q 875.01 500.73 875.19 500.74
  Z"
/>
<path fill="#13278b" d="
  M 223.90 615.47
  Q 224.32 616.39 224.81 615.94
  Q 224.15 616.54 224.32 616.99
  Q 232.40 639.00 239.87 655.21
  Q 250.47 678.20 266.16 701.84
  C 271.62 710.08 279.16 719.63 285.01 727.41
  Q 285.71 728.34 286.95 729.61
  Q 288.31 731.01 288.90 731.82
  Q 298.96 743.36 308.01 753.56
  Q 313.82 760.11 326.79 771.69
  A 0.18 0.18 0.0 0 1 326.76 771.99
  L 326.44 772.17
  A 0.29 0.28 46.0 0 1 326.14 772.16
  Q 310.82 761.05 305.29 756.69
  Q 300.63 753.00 290.68 743.84
  Q 283.67 737.38 277.06 729.93
  Q 260.95 711.79 251.83 698.71
  Q 237.23 677.76 225.19 655.10
  Q 219.23 643.86 209.84 621.29
  C 209.23 619.81 208.87 617.95 208.17 616.31
  L 208.20 615.86
  Q 214.44 615.93 220.71 615.88
  C 222.04 615.88 222.56 616.39 223.90 615.47
  Z"
/>
<path fill="#1f48dc" d="
  M 743.89 615.88
  Q 744.42 616.05 744.77 615.98
  C 727.43 658.37 703.74 697.67 672.11 730.83
  Q 670.79 731.11 665.50 731.11
  Q 490.63 731.06 315.75 731.11
  Q 298.34 731.11 288.90 731.82
  Q 288.31 731.01 286.95 729.61
  Q 285.71 728.34 285.01 727.41
  C 279.16 719.63 271.62 710.08 266.16 701.84
  Q 250.47 678.20 239.87 655.21
  Q 232.40 639.00 224.32 616.99
  Q 224.15 616.54 224.81 615.94
  L 362.80 615.94
  L 365.24 616.00
  Q 369.16 619.82 373.14 623.60
  C 382.92 632.89 394.23 640.38 406.23 646.51
  C 447.25 667.47 496.80 666.65 537.98 646.66
  Q 554.21 638.77 569.27 626.74
  Q 576.16 621.24 582.91 615.74
  Q 583.19 616.52 585.31 615.49
  Q 585.50 615.96 586.00 615.96
  Q 665.10 616.27 743.89 615.88
  Z"
/>
<path fill="#1f48dc" d="
  M 185.03 615.81
  L 187.01 616.41
  C 200.91 658.66 221.05 696.46 250.25 730.49
  L 214.21 731.36
  A 2.11 2.10 55.1 0 1 213.38 731.21
  Q 211.61 730.53 211.66 731.55
  Q 173.10 678.68 154.47 616.29
  Q 155.26 616.17 155.46 615.97
  L 185.03 615.81
  Z"
/>
<path fill="#1f48dc" d="
  M 535.88 615.75
  Q 536.90 615.83 537.04 616.38
  Q 506.24 639.75 467.75 640.53
  C 445.37 640.98 421.84 632.95 403.27 620.23
  Q 400.81 618.54 398.58 616.59
  Q 398.86 615.84 399.65 616.24
  L 535.88 615.75
  Z"
/>
<path fill="#1f48dc" d="
  M 767.14 615.85
  L 798.06 615.78
  Q 798.04 616.38 798.86 616.80
  Q 784.55 654.82 764.34 690.06
  Q 752.07 711.43 737.27 730.96
  Q 737.08 729.73 736.16 730.85
  A 0.88 0.86 19.1 0 1 735.48 731.17
  L 698.00 730.93
  A 0.05 0.03 13.3 0 0 697.97 730.94
  Q 697.22 731.44 696.37 730.97
  Q 698.74 728.05 701.15 725.16
  Q 736.50 682.92 758.74 632.49
  Q 760.43 628.65 765.64 616.03
  Q 766.16 616.54 767.14 615.85
  Z"
/>
<path fill="#13278b" d="
  M 823.28 615.91
  L 850.12 616.16
  Q 849.60 619.28 847.68 624.20
  Q 834.24 658.65 819.53 683.82
  Q 811.03 698.37 806.02 706.05
  Q 803.02 710.66 801.22 713.40
  Q 798.30 717.85 796.29 720.67
  Q 792.86 725.50 789.59 730.46
  L 788.42 731.55
  L 785.15 730.91
  A 1.66 1.12 -29.4 0 0 784.90 730.89
  L 762.16 730.64
  Q 763.96 727.71 768.25 721.78
  Q 775.70 711.48 790.31 686.34
  Q 794.47 679.19 798.80 670.49
  Q 801.18 665.73 806.70 654.31
  Q 807.14 653.42 812.52 641.82
  Q 817.32 631.46 822.42 616.31
  Q 822.85 615.55 823.28 615.91
  Z"
/>
<path fill="#1f48dc" d="
  M 850.99 615.69
  Q 851.01 615.85 851.58 616.06
  Q 844.47 636.01 836.34 653.35
  Q 817.29 694.02 790.05 730.95
  Q 790.02 730.57 789.59 730.46
  Q 792.86 725.50 796.29 720.67
  Q 798.30 717.85 801.22 713.40
  Q 803.02 710.66 806.02 706.05
  Q 811.03 698.37 819.53 683.82
  Q 834.24 658.65 847.68 624.20
  Q 849.60 619.28 850.12 616.16
  L 850.99 615.69
  Z"
/>
<path fill="#6514b6" d="
  M 208.17 616.31
  C 208.87 617.95 209.23 619.81 209.84 621.29
  Q 219.23 643.86 225.19 655.10
  Q 237.23 677.76 251.83 698.71
  Q 260.95 711.79 277.06 729.93
  Q 283.67 737.38 290.68 743.84
  Q 300.63 753.00 305.29 756.69
  Q 310.82 761.05 326.14 772.16
  A 0.29 0.28 46.0 0 0 326.44 772.17
  L 326.76 771.99
  A 0.18 0.18 0.0 0 0 326.79 771.69
  Q 313.82 760.11 308.01 753.56
  Q 298.96 743.36 288.90 731.82
  Q 298.34 731.11 315.75 731.11
  Q 490.63 731.06 665.50 731.11
  Q 670.79 731.11 672.11 730.83
  C 637.39 767.30 593.48 795.78 545.26 809.75
  Q 518.51 817.51 490.75 819.45
  C 447.44 822.48 402.02 813.28 362.73 794.49
  Q 316.61 772.44 281.08 735.43
  Q 264.96 718.64 252.35 700.92
  C 234.80 676.28 220.16 650.06 209.11 621.18
  Q 208.25 618.93 207.52 616.62
  Q 207.95 616.50 208.17 616.31
  Z"
/>
<path fill="#6514b6" d="
  M 821.83 616.21
  Q 822.03 616.18 822.42 616.31
  Q 817.32 631.46 812.52 641.82
  Q 807.14 653.42 806.70 654.31
  Q 801.18 665.73 798.80 670.49
  Q 794.47 679.19 790.31 686.34
  Q 775.70 711.48 768.25 721.78
  Q 763.96 727.71 762.16 730.64
  Q 747.23 750.83 729.81 769.79
  Q 705.21 796.54 676.14 818.51
  Q 673.76 820.31 670.75 822.34
  C 666.12 825.48 661.88 828.89 657.20 831.78
  Q 652.12 834.92 647.10 837.83
  Q 642.70 840.39 640.24 842.11
  A 4.06 4.02 -74.4 0 1 639.45 842.56
  Q 635.65 844.17 633.50 847.08
  L 619.95 852.16
  A 0.17 0.17 0.0 0 1 619.74 852.08
  L 619.58 851.81
  A 0.30 0.30 0.0 0 1 619.71 851.39
  Q 642.34 841.21 663.59 826.56
  Q 690.13 808.26 712.97 785.96
  Q 759.39 740.61 790.53 684.33
  Q 808.72 651.47 821.83 616.21
  Z"
/>
<path fill="#6514b6" d="
  M 696.37 730.97
  Q 697.22 731.44 697.97 730.94
  A 0.05 0.03 13.3 0 1 698.00 730.93
  L 735.48 731.17
  A 0.88 0.86 19.1 0 0 736.16 730.85
  Q 737.08 729.73 737.27 730.96
  Q 712.50 763.66 686.01 786.52
  Q 640.69 825.64 585.39 847.39
  Q 551.91 860.55 512.44 865.61
  Q 484.02 869.24 459.94 868.04
  Q 432.94 866.70 407.77 861.59
  Q 329.18 845.62 268.51 793.25
  Q 237.46 766.45 211.66 731.55
  Q 211.61 730.53 213.38 731.21
  A 2.11 2.10 55.1 0 0 214.21 731.36
  L 250.25 730.49
  Q 285.96 772.96 335.61 799.40
  C 374.21 819.96 416.10 831.98 460.08 833.64
  Q 498.44 835.08 534.11 827.06
  Q 586.82 815.21 633.92 783.65
  Q 669.10 760.09 696.37 730.97
  Z"
/>
<path fill="#4b1973" d="
  M 762.16 730.64
  L 784.90 730.89
  A 1.66 1.12 -29.4 0 1 785.15 730.91
  L 788.42 731.55
  Q 780.87 741.17 772.98 750.48
  Q 754.43 772.36 732.31 790.30
  Q 729.24 792.79 728.11 793.77
  Q 726.02 795.58 723.81 797.07
  C 721.42 798.67 719.09 800.84 716.51 802.75
  Q 696.21 817.76 671.22 830.71
  Q 660.63 836.18 649.08 840.84
  A 0.24 0.24 0.0 0 0 649.02 841.25
  Q 649.26 841.45 649.78 841.27
  Q 642.32 844.85 633.50 847.08
  Q 635.65 844.17 639.45 842.56
  A 4.06 4.02 -74.4 0 0 640.24 842.11
  Q 642.70 840.39 647.10 837.83
  Q 652.12 834.92 657.20 831.78
  C 661.88 828.89 666.12 825.48 670.75 822.34
  Q 673.76 820.31 676.14 818.51
  Q 705.21 796.54 729.81 769.79
  Q 747.23 750.83 762.16 730.64
  Z"
/>
<path fill="#6514b6" d="
  M 790.05 730.95
  Q 773.91 751.76 761.44 764.68
  Q 723.90 803.58 676.81 828.83
  Q 664.45 835.45 649.78 841.27
  Q 649.26 841.45 649.02 841.25
  A 0.24 0.24 0.0 0 1 649.08 840.84
  Q 660.63 836.18 671.22 830.71
  Q 696.21 817.76 716.51 802.75
  C 719.09 800.84 721.42 798.67 723.81 797.07
  Q 726.02 795.58 728.11 793.77
  Q 729.24 792.79 732.31 790.30
  Q 754.43 772.36 772.98 750.48
  Q 780.87 741.17 788.42 731.55
  L 789.59 730.46
  Q 790.02 730.57 790.05 730.95
  Z"
/>
</svg>
