<?xml version="1.0" encoding="UTF-8" standalone="no"?>
<!DOCTYPE svg PUBLIC "-//W3C//DTD SVG 1.1//EN" "http://www.w3.org/Graphics/SVG/1.1/DTD/svg11.dtd">
<svg xmlns="http://www.w3.org/2000/svg" version="1.1" viewBox="0.00 0.00 1024.00 1024.00">
<g stroke-width="2.00" fill="none" stroke-linecap="butt">
<path stroke="#5a0a0c" vector-effect="non-scaling-stroke" d="
  M 879.61 446.48
  L 879.50 470.74"
/>
<path stroke="#6d0d0d" vector-effect="non-scaling-stroke" d="
  M 651.28 751.52
  C 683.13 726.66 712.35 695.66 734.84 661.57
  Q 764.79 616.18 781.56 563.57
  Q 793.26 526.90 797.77 484.48
  Q 807.86 389.67 774.77 302.45
  Q 757.01 255.64 726.89 216.87
  C 671.66 145.76 585.59 102.45 494.25 105.29
  C 465.91 106.17 436.03 110.07 409.12 117.59
  C 371.75 128.03 336.10 144.23 303.72 167.19
  Q 248.06 206.64 209.36 262.67
  Q 197.86 279.30 185.97 301.71
  Q 173.35 325.51 166.73 342.95
  C 153.47 377.87 144.26 414.06 140.65 450.53
  Q 135.90 498.60 141.84 542.99
  C 150.77 609.71 176.67 673.03 220.91 722.89
  Q 266.77 774.58 331.93 801.28
  C 346.72 807.34 364.59 812.76 380.33 816.61
  C 412.72 824.51 445.78 825.68 478.95 822.61
  Q 534.93 817.44 585.79 792.48
  Q 620.88 775.25 651.28 751.52"
/>
<path stroke="#5a0a0c" vector-effect="non-scaling-stroke" d="
  M 671.87 140.52
  A 0.16 0.16 0.0 0 0 671.75 140.81
  Q 680.54 147.03 690.32 154.71
  C 696.61 159.65 700.39 163.37 707.61 169.85
  C 722.68 183.38 735.81 198.34 748.79 215.71
  Q 779.00 256.12 794.65 299.31
  Q 804.83 327.38 809.64 350.57
  Q 815.17 377.28 816.87 390.32
  C 822.78 435.90 820.22 481.86 811.50 527.20
  Q 805.60 557.89 792.53 591.54
  Q 779.06 626.23 763.65 652.20
  C 738.08 695.30 705.58 734.17 666.68 764.89
  Q 633.99 790.72 599.80 807.83
  Q 564.35 825.56 525.09 834.83
  A 0.29 0.29 0.0 0 0 525.16 835.41
  Q 527.95 835.36 530.93 835.06
  Q 543.70 833.79 556.71 831.17
  Q 623.29 817.78 680.18 782.79
  C 711.04 763.81 739.88 740.72 763.54 713.79
  Q 783.59 690.97 798.08 668.80
  Q 822.98 630.72 838.27 585.75
  C 853.18 541.90 861.41 496.69 860.11 450.68
  Q 859.20 418.28 854.75 391.49
  Q 850.35 365.03 839.27 332.51
  C 831.20 308.82 819.53 285.44 807.06 265.20
  C 789.23 236.27 765.50 209.93 740.77 187.74
  Q 713.22 163.01 677.02 142.95
  C 675.39 142.05 673.68 140.87 671.87 140.52"
/>
<path stroke="#6d0d0d" vector-effect="non-scaling-stroke" d="
  M 448.07 137.37
  C 358.31 150.08 280.17 204.47 229.79 279.10
  Q 203.94 317.41 189.64 357.87
  C 178.39 389.68 170.45 422.42 167.15 456.02
  Q 164.22 485.72 166.16 515.05
  Q 169.70 568.55 189.42 618.59
  Q 211.50 674.61 253.49 715.42
  C 287.05 748.02 330.51 772.45 375.36 784.36
  C 424.09 797.29 476.49 796.24 524.75 782.51
  C 564.03 771.33 601.22 753.31 633.57 728.33
  C 713.14 666.89 762.16 575.71 769.57 475.18
  C 771.08 454.65 771.14 438.28 769.69 418.62
  Q 764.18 343.84 729.47 280.72
  Q 712.16 249.24 690.61 225.76
  C 667.64 200.71 639.27 178.93 608.06 164.03
  Q 589.25 155.06 574.64 150.13
  Q 536.57 137.29 494.99 135.28
  Q 471.02 134.12 448.07 137.37"
/>
<path stroke="#6d0d0d" vector-effect="non-scaling-stroke" d="
  M 470.06 158.06
  Q 467.62 156.74 464.05 157.90
  A 3.28 3.26 36.7 0 1 462.92 158.06
  Q 461.01 157.97 459.83 158.15
  C 443.58 160.65 427.75 164.18 411.99 169.84
  Q 400.77 173.87 393.75 176.75
  C 339.20 199.06 292.44 240.59 259.64 290.88
  Q 230.61 335.40 216.41 385.35
  Q 207.33 417.29 203.81 452.12
  Q 203.00 460.09 202.94 463.41
  C 202.76 473.14 202.02 481.26 202.41 491.76
  Q 203.04 508.81 203.21 511.00
  Q 207.34 564.77 230.44 617.09
  Q 232.14 620.95 233.85 622.72"
/>
<path stroke="#807f7c" vector-effect="non-scaling-stroke" d="
  M 233.85 622.72
  Q 235.23 627.42 239.80 635.95
  Q 261.68 676.73 293.76 706.26
  Q 328.68 738.39 370.74 754.82
  Q 428.64 777.43 489.30 770.43
  C 507.13 768.37 523.82 765.01 540.67 759.16
  Q 587.72 742.82 626.66 711.92
  Q 688.29 663.01 721.95 590.96
  Q 724.70 585.08 725.21 581.32"
/>
<path stroke="#6d0d0d" vector-effect="non-scaling-stroke" d="
  M 725.21 581.32
  Q 726.46 580.30 726.65 579.89
  Q 729.97 572.73 732.67 564.94
  Q 748.31 519.76 751.62 473.74
  Q 752.90 455.92 752.76 442.76
  Q 752.42 411.49 746.87 382.35
  Q 741.59 354.60 729.59 324.00
  Q 729.38 323.47 728.65 322.28
  Q 728.12 321.44 727.76 320.53"
/>
<path stroke="#807f7c" vector-effect="non-scaling-stroke" d="
  M 727.76 320.53
  Q 698.72 245.36 632.94 199.06
  Q 615.42 186.72 594.79 177.20
  C 571.17 166.30 543.68 160.06 518.15 157.81
  C 508.45 156.95 496.97 156.67 488.50 156.69
  Q 479.97 156.72 470.06 158.06"
/>
<path stroke="#ec8b89" vector-effect="non-scaling-stroke" d="
  M 727.76 320.53
  L 727.10 392.15"
/>
<path stroke="#da8988" vector-effect="non-scaling-stroke" d="
  M 727.10 392.15
  L 726.22 500.48"
/>
<path stroke="#ec8b89" vector-effect="non-scaling-stroke" d="
  M 726.22 500.48
  L 725.21 581.32"
/>
<path stroke="#ec8b89" vector-effect="non-scaling-stroke" d="
  M 233.85 622.72
  L 234.17 597.72"
/>
<path stroke="#807f7c" vector-effect="non-scaling-stroke" d="
  M 234.17 597.72
  C 235.09 551.36 234.98 498.58 235.59 458.76
  Q 236.16 421.76 236.18 384.75
  Q 236.18 373.77 237.11 371.17
  Q 255.06 320.49 285.51 276.17"
/>
<path stroke="#ec8b89" vector-effect="non-scaling-stroke" d="
  M 285.51 276.17
  L 302.30 254.02"
/>
<path stroke="#da8988" vector-effect="non-scaling-stroke" d="
  M 302.30 254.02
  Q 318.02 236.08 335.91 220.24"
/>
<path stroke="#ec8b89" vector-effect="non-scaling-stroke" d="
  M 335.91 220.24
  L 351.99 207.82"
/>
<path stroke="#807f7c" vector-effect="non-scaling-stroke" d="
  M 351.99 207.82
  Q 395.14 176.46 447.02 162.74"
/>
<path stroke="#ec8b89" vector-effect="non-scaling-stroke" d="
  M 447.02 162.74
  L 470.06 158.06"
/>
<path stroke="#6d0d0d" vector-effect="non-scaling-stroke" d="
  M 447.02 162.74
  Q 436.51 164.54 422.55 169.64
  Q 383.48 183.93 352.00 207.07
  A 0.49 0.45 -13.4 0 0 351.83 207.32
  Q 351.69 207.75 351.99 207.82"
/>
<path stroke="#c71719" vector-effect="non-scaling-stroke" d="
  M 335.91 220.24
  Q 325.74 227.98 316.69 237.19
  Q 308.83 245.19 302.30 254.02"
/>
<path stroke="#6d0d0d" vector-effect="non-scaling-stroke" d="
  M 285.51 276.17
  Q 285.58 275.87 285.17 275.89
  A 0.36 0.32 13.1 0 0 284.90 276.04
  Q 254.49 320.13 236.58 370.57
  C 235.61 373.30 235.36 375.79 235.36 378.51
  Q 235.39 402.04 235.33 435.39
  Q 235.32 440.75 235.07 448.10
  Q 234.85 454.55 235.39 463.00
  Q 235.59 466.08 234.92 469.15
  A 3.58 3.52 51.6 0 0 234.84 469.90
  Q 234.13 504.37 234.38 541.61
  Q 234.43 549.58 233.73 564.82
  Q 232.93 582.22 233.72 598.74
  A 0.10 0.02 31.7 0 0 233.78 598.80
  Q 233.80 598.81 233.81 598.82
  A 0.03 0.03 0.0 0 0 233.86 598.79
  Q 233.82 598.14 234.17 597.72"
/>
<path stroke="#c71719" vector-effect="non-scaling-stroke" d="
  M 726.22 500.48
  Q 726.99 500.59 727.02 499.30
  Q 728.15 453.75 727.67 393.32
  Q 727.66 392.03 727.10 392.15"
/>
<path stroke="#6d0d0d" vector-effect="non-scaling-stroke" d="
  M 210.01 353.15
  Q 201.58 374.03 196.78 392.26
  Q 189.97 418.10 186.30 444.46
  Q 185.13 452.92 184.23 465.57
  Q 183.19 480.26 183.03 486.76
  Q 182.49 507.78 184.55 529.75
  C 188.83 575.42 204.82 620.65 229.46 658.82
  Q 249.60 690.03 277.10 714.15
  Q 297.44 731.99 322.17 745.50
  A 0.01 0.01 0.0 0 0 322.19 745.49
  Q 322.19 745.31 322.35 745.41
  A 0.11 0.03 47.1 0 0 322.27 745.27
  C 317.38 741.80 311.42 738.37 306.81 734.98
  Q 266.58 705.43 240.54 665.71
  Q 198.70 601.88 189.26 523.98
  Q 188.84 520.54 187.73 507.17
  C 186.76 495.58 187.15 485.20 187.02 473.93
  Q 186.94 466.87 187.62 457.59
  Q 190.11 423.97 198.12 391.82
  Q 202.63 373.73 210.04 353.47
  Q 210.07 353.36 210.10 353.17
  A 0.05 0.04 -30.5 0 0 210.01 353.15"
/>
<path stroke="#ec8b89" vector-effect="non-scaling-stroke" d="
  M 485.23 238.10
  L 483.60 241.23"
/>
<path stroke="#807f7c" vector-effect="non-scaling-stroke" d="
  M 483.60 241.23
  Q 466.54 274.96 450.23 308.92
  Q 449.44 310.57 447.33 313.23
  C 444.33 317.01 439.38 317.04 435.52 314.74
  Q 421.49 306.42 406.80 299.16"
/>
<path stroke="#ec8b89" vector-effect="non-scaling-stroke" d="
  M 406.80 299.16
  Q 405.80 297.73 403.53 297.17
  A 0.39 0.39 0.0 0 0 403.05 297.61
  L 404.20 304.48"
/>
<path stroke="#da8988" vector-effect="non-scaling-stroke" d="
  M 404.20 304.48
  L 412.59 354.41"
/>
<path stroke="#ec8b89" vector-effect="non-scaling-stroke" d="
  M 412.59 354.41
  L 416.84 378.61"
/>
<path stroke="#807f7c" vector-effect="non-scaling-stroke" d="
  M 416.84 378.61
  Q 411.63 382.23 407.99 385.24
  Q 400.84 391.14 394.10 399.09"
/>
<path stroke="#ec8b89" vector-effect="non-scaling-stroke" d="
  M 394.10 399.09
  Q 392.50 396.48 390.42 395.23"
/>
<path stroke="#807f7c" vector-effect="non-scaling-stroke" d="
  M 390.42 395.23
  L 364.84 364.05"
/>
<path stroke="#ec8b89" vector-effect="non-scaling-stroke" d="
  M 364.84 364.05
  Q 363.78 361.61 361.81 359.50
  A 0.32 0.31 -63.1 0 0 361.27 359.68
  L 360.78 363.27"
/>
<path stroke="#da8988" vector-effect="non-scaling-stroke" d="
  M 360.78 363.27
  Q 357.30 374.70 353.70 386.02
  Q 352.68 389.23 351.13 390.92
  Q 347.95 394.38 342.73 393.13
  Q 319.16 387.52 295.16 383.09"
/>
<path stroke="#ec8b89" vector-effect="non-scaling-stroke" d="
  M 295.16 383.09
  Q 293.27 382.15 290.69 381.92
  A 0.36 0.36 0.0 0 0 290.31 382.37
  L 292.01 388.81"
/>
<path stroke="#da8988" vector-effect="non-scaling-stroke" d="
  M 292.01 388.81
  Q 297.79 415.87 303.45 442.02
  Q 304.21 445.49 304.19 451.49"
/>
<path stroke="#ec8b89" vector-effect="non-scaling-stroke" d="
  M 304.19 451.49
  L 300.08 455.68"
/>
<path stroke="#da8988" vector-effect="non-scaling-stroke" d="
  M 300.08 455.68
  L 279.76 464.36
  A 0.56 0.56 0.0 0 0 279.46 465.09
  Q 279.82 465.97 281.11 466.54"
/>
<path stroke="#ec8b89" vector-effect="non-scaling-stroke" d="
  M 281.11 466.54
  Q 281.25 467.24 281.95 467.15"
/>
<path stroke="#807f7c" vector-effect="non-scaling-stroke" d="
  M 281.95 467.15
  L 306.05 488.51"
/>
<path stroke="#ec8b89" vector-effect="non-scaling-stroke" d="
  M 306.05 488.51
  Q 307.77 490.78 310.02 491.98"
/>
<path stroke="#da8988" vector-effect="non-scaling-stroke" d="
  M 310.02 491.98
  Q 323.43 504.62 337.81 516.21"
/>
<path stroke="#ec8b89" vector-effect="non-scaling-stroke" d="
  M 337.81 516.21
  Q 339.53 518.55 342.04 519.92"
/>
<path stroke="#da8988" vector-effect="non-scaling-stroke" d="
  M 342.04 519.92
  L 361.66 536.83"
/>
<path stroke="#ec8b89" vector-effect="non-scaling-stroke" d="
  M 361.66 536.83
  Q 362.89 538.70 365.13 540.03"
/>
<path stroke="#da8988" vector-effect="non-scaling-stroke" d="
  M 365.13 540.03
  L 368.46 543.03"
/>
<path stroke="#ec8b89" vector-effect="non-scaling-stroke" d="
  M 368.46 543.03
  Q 372.19 546.48 376.12 550.13
  Q 378.97 552.78 379.45 559.07"
/>
<path stroke="#807f7c" vector-effect="non-scaling-stroke" d="
  M 379.45 559.07
  L 368.85 589.69"
/>
<path stroke="#ec8b89" vector-effect="non-scaling-stroke" d="
  M 368.85 589.69
  Q 368.10 589.99 367.79 592.52"
/>
<path stroke="#807f7c" vector-effect="non-scaling-stroke" d="
  M 367.79 592.52
  Q 367.15 592.98 367.33 593.54
  A 0.46 0.46 0.0 0 0 367.83 593.87
  L 420.78 586.95"
/>
<path stroke="#ec8b89" vector-effect="non-scaling-stroke" d="
  M 420.78 586.95
  L 428.61 585.85"
/>
<path stroke="#807f7c" vector-effect="non-scaling-stroke" d="
  M 428.61 585.85
  Q 430.89 585.94 432.99 585.09"
/>
<path stroke="#ec8b89" vector-effect="non-scaling-stroke" d="
  M 432.99 585.09
  Q 435.32 585.32 438.87 584.28"
/>
<path stroke="#807f7c" vector-effect="non-scaling-stroke" d="
  M 438.87 584.28
  Q 446.10 585.62 451.75 585.85
  Q 461.08 586.22 470.72 585.72
  A 0.91 0.88 78.1 0 1 471.61 586.32
  C 473.22 590.93 472.84 594.84 472.57 599.67
  Q 468.63 667.95 467.13 694.41
  A 0.61 0.61 0.0 0 0 467.74 695.05
  L 485.03 695.05
  A 0.69 0.69 0.0 0 0 485.72 694.35
  C 485.72 693.69 485.33 692.71 485.32 691.97
  Q 484.84 633.75 484.44 592.25
  Q 484.40 588.51 486.39 584.65"
/>
<path stroke="#ec8b89" vector-effect="non-scaling-stroke" d="
  M 486.39 584.65
  Q 487.18 584.57 487.82 583.37"
/>
<path stroke="#807f7c" vector-effect="non-scaling-stroke" d="
  M 487.82 583.37
  Q 490.71 581.41 494.60 580.67"
/>
<path stroke="#da8988" vector-effect="non-scaling-stroke" d="
  M 494.60 580.67
  Q 501.06 580.95 503.25 581.27
  Q 544.14 587.25 588.24 593.88
  A 0.39 0.39 0.0 0 0 588.67 593.38
  Q 583.73 577.52 580.31 563.50
  C 578.73 557.02 581.66 553.39 586.28 549.53
  Q 613.56 526.72 641.28 502.79
  Q 669.62 478.31 684.21 466.06
  A 0.48 0.47 -53.6 0 0 684.09 465.26
  Q 671.08 459.88 664.66 456.86
  C 659.53 454.45 659.36 449.85 660.66 444.93
  Q 670.22 408.54 677.30 382.44
  A 0.59 0.59 0.0 0 0 676.60 381.71
  Q 634.56 391.10 623.94 393.42
  C 615.68 395.21 613.38 389.67 611.99 382.27
  Q 609.92 371.25 608.05 361.53
  A 0.31 0.31 0.0 0 0 607.50 361.41
  L 605.99 363.47"
/>
<path stroke="#ec8b89" vector-effect="non-scaling-stroke" d="
  M 605.99 363.47
  L 603.74 365.88"
/>
<path stroke="#da8988" vector-effect="non-scaling-stroke" d="
  M 603.74 365.88
  L 598.87 371.81"
/>
<path stroke="#ec8b89" vector-effect="non-scaling-stroke" d="
  M 598.87 371.81
  L 585.86 386.13"
/>
<path stroke="#807f7c" vector-effect="non-scaling-stroke" d="
  M 585.86 386.13
  L 580.32 392.07"
/>
<path stroke="#ec8b89" vector-effect="non-scaling-stroke" d="
  M 580.32 392.07
  L 555.46 418.83"
/>
<path stroke="#807f7c" vector-effect="non-scaling-stroke" d="
  M 555.46 418.83
  Q 552.12 411.95 547.49 404.26
  Q 546.87 403.24 547.02 402.09"
/>
<path stroke="#ec8b89" vector-effect="non-scaling-stroke" d="
  M 547.02 402.09
  L 548.65 394.34"
/>
<path stroke="#807f7c" vector-effect="non-scaling-stroke" d="
  M 548.65 394.34
  L 568.22 297.69
  A 0.47 0.47 0.0 0 0 567.53 297.18
  L 565.93 298.07"
/>
<path stroke="#ec8b89" vector-effect="non-scaling-stroke" d="
  M 565.93 298.07
  L 554.95 304.04"
/>
<path stroke="#da8988" vector-effect="non-scaling-stroke" d="
  M 554.95 304.04
  Q 544.33 309.47 534.14 315.15
  Q 533.38 315.58 530.85 316.25"
/>
<path stroke="#ec8b89" vector-effect="non-scaling-stroke" d="
  M 530.85 316.25
  Q 529.68 316.03 528.77 316.43"
/>
<path stroke="#da8988" vector-effect="non-scaling-stroke" d="
  M 528.77 316.43
  C 524.58 315.08 522.43 312.35 520.50 308.48
  Q 516.89 301.23 515.18 297.55
  Q 500.83 266.59 486.87 236.68
  A 0.50 0.50 0.0 0 0 486.12 236.49
  Q 485.57 236.91 485.23 238.10"
/>
<path stroke="#c71719" vector-effect="non-scaling-stroke" d="
  M 528.77 316.43
  Q 525.75 316.54 523.52 313.98
  Q 521.13 311.23 519.38 307.64
  Q 513.58 295.78 507.41 282.33
  Q 499.93 266.03 486.78 238.14
  A 0.68 0.68 0.0 0 0 485.89 237.81
  L 485.23 238.10"
/>
<path stroke="#c71719" vector-effect="non-scaling-stroke" d="
  M 530.85 316.25
  Q 532.16 316.94 533.34 316.36
  Q 542.46 311.95 554.95 304.04"
/>
<path stroke="#6d0d0d" vector-effect="non-scaling-stroke" d="
  M 565.93 298.07
  L 566.88 298.52
  A 0.65 0.62 18.9 0 1 567.24 299.22
  Q 558.48 342.24 549.76 385.25
  Q 548.56 391.21 548.65 394.34"
/>
<path stroke="#6d0d0d" vector-effect="non-scaling-stroke" d="
  M 547.02 402.09
  Q 546.72 402.17 546.38 402.05
  Q 546.14 401.97 545.95 401.74
  Q 540.88 395.58 538.64 393.07
  C 523.60 376.27 502.36 364.38 479.81 362.47
  C 463.30 361.07 447.61 362.98 432.51 369.99
  Q 424.62 373.65 416.84 378.61"
/>
<path stroke="#c71719" vector-effect="non-scaling-stroke" d="
  M 412.59 354.41
  Q 409.26 329.72 404.86 305.27
  Q 404.56 303.65 404.20 304.48"
/>
<path stroke="#6d0d0d" vector-effect="non-scaling-stroke" d="
  M 406.80 299.16
  Q 420.81 307.44 435.01 315.26
  Q 441.12 318.63 445.60 315.75
  Q 448.25 314.04 451.80 306.92
  Q 462.07 286.29 476.20 257.06
  Q 476.25 256.96 479.84 250.11
  Q 482.11 245.78 483.60 241.23"
/>
<path stroke="#6d0d0d" vector-effect="non-scaling-stroke" d="
  M 555.46 418.83
  Q 563.32 436.29 564.90 456.01
  Q 566.43 474.96 563.43 490.97
  Q 553.03 546.61 503.31 575.59
  Q 501.83 576.46 495.90 579.43
  A 0.22 0.21 76.2 0 0 495.78 579.64
  Q 495.81 579.88 495.92 579.90"
/>
<path stroke="#6d0d0d" vector-effect="non-scaling-stroke" d="
  M 487.82 583.37
  Q 488.06 582.75 487.67 582.42
  Q 487.33 582.14 486.72 582.31
  Q 479.41 584.45 472.40 585.17
  A 0.54 0.54 0.0 0 0 471.94 585.86
  L 473.35 590.65
  A 1.44 1.41 -53.9 0 1 473.41 591.06
  Q 473.48 598.91 472.83 605.83
  C 472.52 609.14 472.74 612.16 472.48 615.53
  Q 472.44 615.99 470.94 638.01
  Q 470.63 642.55 470.58 644.91
  Q 470.51 648.26 470.26 651.82
  Q 468.87 671.53 467.99 694.05
  A 0.59 0.59 0.0 0 0 468.58 694.66
  L 484.15 694.66
  A 0.72 0.71 -0.8 0 0 484.87 693.93
  Q 484.29 660.98 483.85 611.02
  C 483.81 606.20 483.26 597.37 483.73 590.98
  Q 484.01 587.14 486.39 584.65"
/>
<path stroke="#5a0a0c" vector-effect="non-scaling-stroke" d="
  M 494.60 580.67
  L 495.92 579.90"
/>
<path stroke="#c71719" vector-effect="non-scaling-stroke" d="
  M 495.92 579.90
  C 498.74 580.31 501.77 580.37 504.34 580.74
  Q 538.68 585.67 575.51 591.43
  A 1.51 0.11 22.0 0 1 576.44 591.73
  C 577.38 592.09 578.61 591.77 579.69 591.94
  Q 585.43 592.86 586.76 593.08
  A 0.75 0.74 86.5 0 0 587.59 592.13
  Q 582.83 576.50 579.58 564.00
  Q 579.06 561.99 579.65 556.60
  A 2.37 2.36 -25.8 0 1 580.00 555.60
  Q 582.54 551.60 586.57 548.32
  Q 600.01 537.41 611.34 527.54
  C 614.87 524.46 617.99 522.11 621.01 519.45
  Q 627.02 514.14 628.13 513.21
  C 633.99 508.32 639.01 503.64 643.75 499.73
  Q 650.95 493.79 660.31 485.57
  C 662.31 483.81 664.53 482.40 666.22 480.54
  Q 667.65 478.94 670.57 476.73
  Q 676.09 472.55 682.74 466.14
  A 0.43 0.43 0.0 0 0 682.61 465.43
  Q 669.86 459.96 666.85 458.67
  C 662.89 456.97 659.19 454.63 659.37 450.06
  Q 659.51 446.38 659.63 445.93
  Q 669.87 407.11 676.36 383.38
  A 0.60 0.59 1.8 0 0 675.66 382.64
  Q 663.99 385.01 649.68 388.44
  Q 643.52 389.92 635.34 391.51
  Q 634.85 391.60 634.66 391.73
  Q 634.22 392.02 633.92 391.86
  A 1.59 0.69 38.3 0 0 632.98 391.61
  Q 632.45 391.68 631.44 392.44
  A 1.52 1.48 25.5 0 1 630.58 392.73
  Q 629.51 392.77 625.37 393.86
  C 620.31 395.19 615.76 394.44 613.39 389.35
  Q 612.20 386.80 611.90 385.17
  Q 610.00 375.08 607.68 363.78
  A 0.48 0.48 0.0 0 0 607.07 363.42
  Q 606.42 363.61 605.99 363.47"
/>
<path stroke="#6d0d0d" vector-effect="non-scaling-stroke" d="
  M 364.84 364.05
  Q 376.59 380.50 390.42 395.23"
/>
<path stroke="#6d0d0d" vector-effect="non-scaling-stroke" d="
  M 394.10 399.09
  C 380.45 416.40 371.09 435.08 366.55 456.64
  C 363.02 473.39 363.40 491.01 366.89 507.37
  C 372.38 533.08 386.93 556.53 409.00 571.02
  Q 422.45 579.85 438.87 584.28"
/>
<path stroke="#6d0d0d" vector-effect="non-scaling-stroke" d="
  M 432.99 585.09
  Q 430.53 584.39 428.61 585.85"
/>
<path stroke="#6d0d0d" vector-effect="non-scaling-stroke" d="
  M 420.78 586.95
  Q 420.17 586.44 418.43 586.67
  Q 409.15 587.90 399.68 589.16
  Q 396.00 589.65 395.18 589.65
  A 6.33 6.26 -52.9 0 0 393.26 589.93
  Q 390.98 590.63 388.24 590.74
  C 385.46 590.85 383.81 591.68 381.35 591.59
  Q 380.02 591.55 376.21 592.32
  Q 371.91 593.20 367.79 592.52"
/>
<path stroke="#6d0d0d" vector-effect="non-scaling-stroke" d="
  M 368.85 589.69
  Q 375.52 574.62 379.45 559.07"
/>
<path stroke="#c71719" vector-effect="non-scaling-stroke" d="
  M 368.46 543.03
  Q 367.64 540.57 365.13 540.03"
/>
<path stroke="#c71719" vector-effect="non-scaling-stroke" d="
  M 361.66 536.83
  Q 352.40 527.75 342.04 519.92"
/>
<path stroke="#c71719" vector-effect="non-scaling-stroke" d="
  M 337.81 516.21
  Q 324.43 503.46 310.02 491.98"
/>
<path stroke="#6d0d0d" vector-effect="non-scaling-stroke" d="
  M 306.05 488.51
  Q 306.07 488.05 305.60 487.64
  Q 294.21 477.58 282.78 467.54
  Q 282.38 467.19 281.95 467.15"
/>
<path stroke="#c71719" vector-effect="non-scaling-stroke" d="
  M 281.11 466.54
  L 280.73 465.32
  A 0.61 0.60 69.0 0 1 281.05 464.59
  L 300.08 455.68"
/>
<path stroke="#c71719" vector-effect="non-scaling-stroke" d="
  M 304.19 451.49
  Q 305.17 446.37 303.32 437.97
  Q 300.54 425.31 297.93 412.62
  Q 295.53 400.96 292.01 388.81"
/>
<path stroke="#c71719" vector-effect="non-scaling-stroke" d="
  M 295.16 383.09
  Q 311.23 387.17 327.33 390.61
  Q 334.63 392.17 341.99 393.60
  Q 346.45 394.47 348.46 393.63
  C 352.21 392.07 353.83 388.07 355.11 384.44
  Q 358.41 374.99 360.78 363.27"
/>
<path stroke="#6d0d0d" vector-effect="non-scaling-stroke" d="
  M 580.32 392.07
  Q 584.26 390.35 585.86 386.13"
/>
<path stroke="#c71719" vector-effect="non-scaling-stroke" d="
  M 598.87 371.81
  Q 602.46 370.01 603.74 365.88"
/>
<path stroke="#6d0d0d" vector-effect="non-scaling-stroke" d="
  M 391.25 525.40
  C 414.39 574.12 475.69 581.60 514.05 547.04
  C 537.77 525.68 549.33 494.38 547.84 462.72
  Q 546.27 429.59 526.82 406.24
  C 513.91 390.74 494.37 379.64 473.63 379.03
  C 446.29 378.22 421.28 392.13 404.98 413.47
  C 391.03 431.73 382.64 451.60 381.66 474.98
  Q 380.50 502.76 391.25 525.40"
/>
<path stroke="#6d0d0d" vector-effect="non-scaling-stroke" d="
  M 490.4873 403.9915
  A 74.51 63.67 -73.6 0 0 408.3705 457.4933
  A 74.51 63.67 -73.6 0 0 448.4127 546.9485
  A 74.51 63.67 -73.6 0 0 530.5295 493.4467
  A 74.51 63.67 -73.6 0 0 490.4873 403.9915"
/>
<path stroke="#5a0a0c" vector-effect="non-scaling-stroke" d="
  M 463.86 531.19
  A 0.32 0.32 0.0 0 0 464.14 530.69
  C 454.69 516.96 449.14 502.20 450.24 485.21
  C 451.86 460.12 466.09 434.41 488.26 422.07
  A 0.43 0.43 0.0 0 0 488.18 421.28
  C 466.91 414.92 445.11 426.19 433.83 444.46
  C 424.32 459.86 420.29 477.30 423.86 495.11
  C 426.58 508.64 434.80 522.84 448.03 527.95
  Q 455.83 530.97 463.86 531.19"
/>
</g>
<path fill="#000000" d="
  M 879.61 446.48
  L 879.50 470.74
  Q 878.85 485.11 877.91 494.43
  Q 872.53 548.23 854.36 598.17
  Q 828.26 669.90 777.88 726.14
  Q 765.11 740.39 746.34 757.33
  Q 723.60 777.86 690.87 798.61
  Q 684.92 802.38 669.40 810.65
  Q 605.84 844.48 535.01 852.76
  Q 487.80 858.27 441.18 850.81
  Q 429.86 849.00 418.18 846.52
  Q 411.93 845.20 398.04 842.40
  C 358.95 834.53 321.33 820.52 287.11 800.91
  Q 248.63 778.85 216.77 746.49
  Q 185.57 714.81 164.11 675.13
  Q 145.19 640.15 134.56 602.67
  Q 123.25 562.78 120.11 523.85
  Q 116.94 484.51 121.98 443.74
  Q 130.29 376.36 157.24 315.99
  Q 158.96 312.15 165.07 299.06
  Q 170.25 287.97 183.43 266.66
  Q 199.94 239.93 220.93 215.45
  Q 227.05 208.31 234.98 200.43
  C 246.56 188.93 250.81 184.23 260.84 175.59
  Q 266.69 170.55 272.59 165.85
  Q 287.84 153.73 306.91 141.39
  C 342.76 118.20 383.20 101.61 425.38 92.70
  Q 481.23 80.91 537.92 85.14
  Q 587.61 88.85 635.30 105.71
  Q 675.76 120.02 714.35 144.57
  Q 752.07 168.56 782.09 200.74
  C 818.23 239.50 845.01 285.62 861.42 336.47
  Q 865.70 349.73 868.84 363.67
  Q 878.04 404.56 879.61 446.48
  Z
  M 651.28 751.52
  C 683.13 726.66 712.35 695.66 734.84 661.57
  Q 764.79 616.18 781.56 563.57
  Q 793.26 526.90 797.77 484.48
  Q 807.86 389.67 774.77 302.45
  Q 757.01 255.64 726.89 216.87
  C 671.66 145.76 585.59 102.45 494.25 105.29
  C 465.91 106.17 436.03 110.07 409.12 117.59
  C 371.75 128.03 336.10 144.23 303.72 167.19
  Q 248.06 206.64 209.36 262.67
  Q 197.86 279.30 185.97 301.71
  Q 173.35 325.51 166.73 342.95
  C 153.47 377.87 144.26 414.06 140.65 450.53
  Q 135.90 498.60 141.84 542.99
  C 150.77 609.71 176.67 673.03 220.91 722.89
  Q 266.77 774.58 331.93 801.28
  C 346.72 807.34 364.59 812.76 380.33 816.61
  C 412.72 824.51 445.78 825.68 478.95 822.61
  Q 534.93 817.44 585.79 792.48
  Q 620.88 775.25 651.28 751.52
  Z
  M 671.87 140.52
  A 0.16 0.16 0.0 0 0 671.75 140.81
  Q 680.54 147.03 690.32 154.71
  C 696.61 159.65 700.39 163.37 707.61 169.85
  C 722.68 183.38 735.81 198.34 748.79 215.71
  Q 779.00 256.12 794.65 299.31
  Q 804.83 327.38 809.64 350.57
  Q 815.17 377.28 816.87 390.32
  C 822.78 435.90 820.22 481.86 811.50 527.20
  Q 805.60 557.89 792.53 591.54
  Q 779.06 626.23 763.65 652.20
  C 738.08 695.30 705.58 734.17 666.68 764.89
  Q 633.99 790.72 599.80 807.83
  Q 564.35 825.56 525.09 834.83
  A 0.29 0.29 0.0 0 0 525.16 835.41
  Q 527.95 835.36 530.93 835.06
  Q 543.70 833.79 556.71 831.17
  Q 623.29 817.78 680.18 782.79
  C 711.04 763.81 739.88 740.72 763.54 713.79
  Q 783.59 690.97 798.08 668.80
  Q 822.98 630.72 838.27 585.75
  C 853.18 541.90 861.41 496.69 860.11 450.68
  Q 859.20 418.28 854.75 391.49
  Q 850.35 365.03 839.27 332.51
  C 831.20 308.82 819.53 285.44 807.06 265.20
  C 789.23 236.27 765.50 209.93 740.77 187.74
  Q 713.22 163.01 677.02 142.95
  C 675.39 142.05 673.68 140.87 671.87 140.52
  Z"
/>
<path fill="#d9191a" d="
  M 651.28 751.52
  Q 620.88 775.25 585.79 792.48
  Q 534.93 817.44 478.95 822.61
  C 445.78 825.68 412.72 824.51 380.33 816.61
  C 364.59 812.76 346.72 807.34 331.93 801.28
  Q 266.77 774.58 220.91 722.89
  C 176.67 673.03 150.77 609.71 141.84 542.99
  Q 135.90 498.60 140.65 450.53
  C 144.26 414.06 153.47 377.87 166.73 342.95
  Q 173.35 325.51 185.97 301.71
  Q 197.86 279.30 209.36 262.67
  Q 248.06 206.64 303.72 167.19
  C 336.10 144.23 371.75 128.03 409.12 117.59
  C 436.03 110.07 465.91 106.17 494.25 105.29
  C 585.59 102.45 671.66 145.76 726.89 216.87
  Q 757.01 255.64 774.77 302.45
  Q 807.86 389.67 797.77 484.48
  Q 793.26 526.90 781.56 563.57
  Q 764.79 616.18 734.84 661.57
  C 712.35 695.66 683.13 726.66 651.28 751.52
  Z
  M 448.07 137.37
  C 358.31 150.08 280.17 204.47 229.79 279.10
  Q 203.94 317.41 189.64 357.87
  C 178.39 389.68 170.45 422.42 167.15 456.02
  Q 164.22 485.72 166.16 515.05
  Q 169.70 568.55 189.42 618.59
  Q 211.50 674.61 253.49 715.42
  C 287.05 748.02 330.51 772.45 375.36 784.36
  C 424.09 797.29 476.49 796.24 524.75 782.51
  C 564.03 771.33 601.22 753.31 633.57 728.33
  C 713.14 666.89 762.16 575.71 769.57 475.18
  C 771.08 454.65 771.14 438.28 769.69 418.62
  Q 764.18 343.84 729.47 280.72
  Q 712.16 249.24 690.61 225.76
  C 667.64 200.71 639.27 178.93 608.06 164.03
  Q 589.25 155.06 574.64 150.13
  Q 536.57 137.29 494.99 135.28
  Q 471.02 134.12 448.07 137.37
  Z"
/>
<path fill="#000000" d="
  M 229.79 279.10
  C 280.17 204.47 358.31 150.08 448.07 137.37
  Q 471.02 134.12 494.99 135.28
  Q 536.57 137.29 574.64 150.13
  Q 589.25 155.06 608.06 164.03
  C 639.27 178.93 667.64 200.71 690.61 225.76
  Q 712.16 249.24 729.47 280.72
  Q 764.18 343.84 769.69 418.62
  C 771.14 438.28 771.08 454.65 769.57 475.18
  C 762.16 575.71 713.14 666.89 633.57 728.33
  C 601.22 753.31 564.03 771.33 524.75 782.51
  C 476.49 796.24 424.09 797.29 375.36 784.36
  C 330.51 772.45 287.05 748.02 253.49 715.42
  Q 211.50 674.61 189.42 618.59
  Q 169.70 568.55 166.16 515.05
  Q 164.22 485.72 167.15 456.02
  C 170.45 422.42 178.39 389.68 189.64 357.87
  Q 203.94 317.41 229.79 279.10
  Z
  M 470.06 158.06
  Q 467.62 156.74 464.05 157.90
  A 3.28 3.26 36.7 0 1 462.92 158.06
  Q 461.01 157.97 459.83 158.15
  C 443.58 160.65 427.75 164.18 411.99 169.84
  Q 400.77 173.87 393.75 176.75
  C 339.20 199.06 292.44 240.59 259.64 290.88
  Q 230.61 335.40 216.41 385.35
  Q 207.33 417.29 203.81 452.12
  Q 203.00 460.09 202.94 463.41
  C 202.76 473.14 202.02 481.26 202.41 491.76
  Q 203.04 508.81 203.21 511.00
  Q 207.34 564.77 230.44 617.09
  Q 232.14 620.95 233.85 622.72
  Q 235.23 627.42 239.80 635.95
  Q 261.68 676.73 293.76 706.26
  Q 328.68 738.39 370.74 754.82
  Q 428.64 777.43 489.30 770.43
  C 507.13 768.37 523.82 765.01 540.67 759.16
  Q 587.72 742.82 626.66 711.92
  Q 688.29 663.01 721.95 590.96
  Q 724.70 585.08 725.21 581.32
  Q 726.46 580.30 726.65 579.89
  Q 729.97 572.73 732.67 564.94
  Q 748.31 519.76 751.62 473.74
  Q 752.90 455.92 752.76 442.76
  Q 752.42 411.49 746.87 382.35
  Q 741.59 354.60 729.59 324.00
  Q 729.38 323.47 728.65 322.28
  Q 728.12 321.44 727.76 320.53
  Q 698.72 245.36 632.94 199.06
  Q 615.42 186.72 594.79 177.20
  C 571.17 166.30 543.68 160.06 518.15 157.81
  C 508.45 156.95 496.97 156.67 488.50 156.69
  Q 479.97 156.72 470.06 158.06
  Z
  M 210.01 353.15
  Q 201.58 374.03 196.78 392.26
  Q 189.97 418.10 186.30 444.46
  Q 185.13 452.92 184.23 465.57
  Q 183.19 480.26 183.03 486.76
  Q 182.49 507.78 184.55 529.75
  C 188.83 575.42 204.82 620.65 229.46 658.82
  Q 249.60 690.03 277.10 714.15
  Q 297.44 731.99 322.17 745.50
  A 0.01 0.01 0.0 0 0 322.19 745.49
  Q 322.19 745.31 322.35 745.41
  A 0.11 0.03 47.1 0 0 322.27 745.27
  C 317.38 741.80 311.42 738.37 306.81 734.98
  Q 266.58 705.43 240.54 665.71
  Q 198.70 601.88 189.26 523.98
  Q 188.84 520.54 187.73 507.17
  C 186.76 495.58 187.15 485.20 187.02 473.93
  Q 186.94 466.87 187.62 457.59
  Q 190.11 423.97 198.12 391.82
  Q 202.63 373.73 210.04 353.47
  Q 210.07 353.36 210.10 353.17
  A 0.05 0.04 -30.5 0 0 210.01 353.15
  Z"
/>
<path fill="#b41417" d="
  M 671.87 140.52
  C 673.68 140.87 675.39 142.05 677.02 142.95
  Q 713.22 163.01 740.77 187.74
  C 765.50 209.93 789.23 236.27 807.06 265.20
  C 819.53 285.44 831.20 308.82 839.27 332.51
  Q 850.35 365.03 854.75 391.49
  Q 859.20 418.28 860.11 450.68
  C 861.41 496.69 853.18 541.90 838.27 585.75
  Q 822.98 630.72 798.08 668.80
  Q 783.59 690.97 763.54 713.79
  C 739.88 740.72 711.04 763.81 680.18 782.79
  Q 623.29 817.78 556.71 831.17
  Q 543.70 833.79 530.93 835.06
  Q 527.95 835.36 525.16 835.41
  A 0.29 0.29 0.0 0 1 525.09 834.83
  Q 564.35 825.56 599.80 807.83
  Q 633.99 790.72 666.68 764.89
  C 705.58 734.17 738.08 695.30 763.65 652.20
  Q 779.06 626.23 792.53 591.54
  Q 805.60 557.89 811.50 527.20
  C 820.22 481.86 822.78 435.90 816.87 390.32
  Q 815.17 377.28 809.64 350.57
  Q 804.83 327.38 794.65 299.31
  Q 779.00 256.12 748.79 215.71
  C 735.81 198.34 722.68 183.38 707.61 169.85
  C 700.39 163.37 696.61 159.65 690.32 154.71
  Q 680.54 147.03 671.75 140.81
  A 0.16 0.16 0.0 0 1 671.87 140.52
  Z"
/>
<path fill="#fffdf8" d="
  M 727.76 320.53
  L 727.10 392.15
  L 726.22 500.48
  L 725.21 581.32
  Q 724.70 585.08 721.95 590.96
  Q 688.29 663.01 626.66 711.92
  Q 587.72 742.82 540.67 759.16
  C 523.82 765.01 507.13 768.37 489.30 770.43
  Q 428.64 777.43 370.74 754.82
  Q 328.68 738.39 293.76 706.26
  Q 261.68 676.73 239.80 635.95
  Q 235.23 627.42 233.85 622.72
  L 234.17 597.72
  C 235.09 551.36 234.98 498.58 235.59 458.76
  Q 236.16 421.76 236.18 384.75
  Q 236.18 373.77 237.11 371.17
  Q 255.06 320.49 285.51 276.17
  L 302.30 254.02
  Q 318.02 236.08 335.91 220.24
  L 351.99 207.82
  Q 395.14 176.46 447.02 162.74
  L 470.06 158.06
  Q 479.97 156.72 488.50 156.69
  C 496.97 156.67 508.45 156.95 518.15 157.81
  C 543.68 160.06 571.17 166.30 594.79 177.20
  Q 615.42 186.72 632.94 199.06
  Q 698.72 245.36 727.76 320.53
  Z
  M 485.23 238.10
  L 483.60 241.23
  Q 466.54 274.96 450.23 308.92
  Q 449.44 310.57 447.33 313.23
  C 444.33 317.01 439.38 317.04 435.52 314.74
  Q 421.49 306.42 406.80 299.16
  Q 405.80 297.73 403.53 297.17
  A 0.39 0.39 0.0 0 0 403.05 297.61
  L 404.20 304.48
  L 412.59 354.41
  L 416.84 378.61
  Q 411.63 382.23 407.99 385.24
  Q 400.84 391.14 394.10 399.09
  Q 392.50 396.48 390.42 395.23
  L 364.84 364.05
  Q 363.78 361.61 361.81 359.50
  A 0.32 0.31 -63.1 0 0 361.27 359.68
  L 360.78 363.27
  Q 357.30 374.70 353.70 386.02
  Q 352.68 389.23 351.13 390.92
  Q 347.95 394.38 342.73 393.13
  Q 319.16 387.52 295.16 383.09
  Q 293.27 382.15 290.69 381.92
  A 0.36 0.36 0.0 0 0 290.31 382.37
  L 292.01 388.81
  Q 297.79 415.87 303.45 442.02
  Q 304.21 445.49 304.19 451.49
  L 300.08 455.68
  L 279.76 464.36
  A 0.56 0.56 0.0 0 0 279.46 465.09
  Q 279.82 465.97 281.11 466.54
  Q 281.25 467.24 281.95 467.15
  L 306.05 488.51
  Q 307.77 490.78 310.02 491.98
  Q 323.43 504.62 337.81 516.21
  Q 339.53 518.55 342.04 519.92
  L 361.66 536.83
  Q 362.89 538.70 365.13 540.03
  L 368.46 543.03
  Q 372.19 546.48 376.12 550.13
  Q 378.97 552.78 379.45 559.07
  L 368.85 589.69
  Q 368.10 589.99 367.79 592.52
  Q 367.15 592.98 367.33 593.54
  A 0.46 0.46 0.0 0 0 367.83 593.87
  L 420.78 586.95
  L 428.61 585.85
  Q 430.89 585.94 432.99 585.09
  Q 435.32 585.32 438.87 584.28
  Q 446.10 585.62 451.75 585.85
  Q 461.08 586.22 470.72 585.72
  A 0.91 0.88 78.1 0 1 471.61 586.32
  C 473.22 590.93 472.84 594.84 472.57 599.67
  Q 468.63 667.95 467.13 694.41
  A 0.61 0.61 0.0 0 0 467.74 695.05
  L 485.03 695.05
  A 0.69 0.69 0.0 0 0 485.72 694.35
  C 485.72 693.69 485.33 692.71 485.32 691.97
  Q 484.84 633.75 484.44 592.25
  Q 484.40 588.51 486.39 584.65
  Q 487.18 584.57 487.82 583.37
  Q 490.71 581.41 494.60 580.67
  Q 501.06 580.95 503.25 581.27
  Q 544.14 587.25 588.24 593.88
  A 0.39 0.39 0.0 0 0 588.67 593.38
  Q 583.73 577.52 580.31 563.50
  C 578.73 557.02 581.66 553.39 586.28 549.53
  Q 613.56 526.72 641.28 502.79
  Q 669.62 478.31 684.21 466.06
  A 0.48 0.47 -53.6 0 0 684.09 465.26
  Q 671.08 459.88 664.66 456.86
  C 659.53 454.45 659.36 449.85 660.66 444.93
  Q 670.22 408.54 677.30 382.44
  A 0.59 0.59 0.0 0 0 676.60 381.71
  Q 634.56 391.10 623.94 393.42
  C 615.68 395.21 613.38 389.67 611.99 382.27
  Q 609.92 371.25 608.05 361.53
  A 0.31 0.31 0.0 0 0 607.50 361.41
  L 605.99 363.47
  L 603.74 365.88
  L 598.87 371.81
  L 585.86 386.13
  L 580.32 392.07
  L 555.46 418.83
  Q 552.12 411.95 547.49 404.26
  Q 546.87 403.24 547.02 402.09
  L 548.65 394.34
  L 568.22 297.69
  A 0.47 0.47 0.0 0 0 567.53 297.18
  L 565.93 298.07
  L 554.95 304.04
  Q 544.33 309.47 534.14 315.15
  Q 533.38 315.58 530.85 316.25
  Q 529.68 316.03 528.77 316.43
  C 524.58 315.08 522.43 312.35 520.50 308.48
  Q 516.89 301.23 515.18 297.55
  Q 500.83 266.59 486.87 236.68
  A 0.50 0.50 0.0 0 0 486.12 236.49
  Q 485.57 236.91 485.23 238.10
  Z"
/>
<path fill="#d9191a" d="
  M 470.06 158.06
  L 447.02 162.74
  Q 436.51 164.54 422.55 169.64
  Q 383.48 183.93 352.00 207.07
  A 0.49 0.45 -13.4 0 0 351.83 207.32
  Q 351.69 207.75 351.99 207.82
  L 335.91 220.24
  Q 325.74 227.98 316.69 237.19
  Q 308.83 245.19 302.30 254.02
  L 285.51 276.17
  Q 285.58 275.87 285.17 275.89
  A 0.36 0.32 13.1 0 0 284.90 276.04
  Q 254.49 320.13 236.58 370.57
  C 235.61 373.30 235.36 375.79 235.36 378.51
  Q 235.39 402.04 235.33 435.39
  Q 235.32 440.75 235.07 448.10
  Q 234.85 454.55 235.39 463.00
  Q 235.59 466.08 234.92 469.15
  A 3.58 3.52 51.6 0 0 234.84 469.90
  Q 234.13 504.37 234.38 541.61
  Q 234.43 549.58 233.73 564.82
  Q 232.93 582.22 233.72 598.74
  A 0.10 0.02 31.7 0 0 233.78 598.80
  Q 233.80 598.81 233.81 598.82
  A 0.03 0.03 0.0 0 0 233.86 598.79
  Q 233.82 598.14 234.17 597.72
  L 233.85 622.72
  Q 232.14 620.95 230.44 617.09
  Q 207.34 564.77 203.21 511.00
  Q 203.04 508.81 202.41 491.76
  C 202.02 481.26 202.76 473.14 202.94 463.41
  Q 203.00 460.09 203.81 452.12
  Q 207.33 417.29 216.41 385.35
  Q 230.61 335.40 259.64 290.88
  C 292.44 240.59 339.20 199.06 393.75 176.75
  Q 400.77 173.87 411.99 169.84
  C 427.75 164.18 443.58 160.65 459.83 158.15
  Q 461.01 157.97 462.92 158.06
  A 3.28 3.26 36.7 0 0 464.05 157.90
  Q 467.62 156.74 470.06 158.06
  Z"
/>
<path fill="#000000" d="
  M 447.02 162.74
  Q 395.14 176.46 351.99 207.82
  Q 351.69 207.75 351.83 207.32
  A 0.49 0.45 -13.4 0 1 352.00 207.07
  Q 383.48 183.93 422.55 169.64
  Q 436.51 164.54 447.02 162.74
  Z"
/>
<path fill="#b41417" d="
  M 335.91 220.24
  Q 318.02 236.08 302.30 254.02
  Q 308.83 245.19 316.69 237.19
  Q 325.74 227.98 335.91 220.24
  Z"
/>
<path fill="#b41417" d="
  M 528.77 316.43
  Q 525.75 316.54 523.52 313.98
  Q 521.13 311.23 519.38 307.64
  Q 513.58 295.78 507.41 282.33
  Q 499.93 266.03 486.78 238.14
  A 0.68 0.68 0.0 0 0 485.89 237.81
  L 485.23 238.10
  Q 485.57 236.91 486.12 236.49
  A 0.50 0.50 0.0 0 1 486.87 236.68
  Q 500.83 266.59 515.18 297.55
  Q 516.89 301.23 520.50 308.48
  C 522.43 312.35 524.58 315.08 528.77 316.43
  Z"
/>
<path fill="#d9191a" d="
  M 528.77 316.43
  Q 529.68 316.03 530.85 316.25
  Q 532.16 316.94 533.34 316.36
  Q 542.46 311.95 554.95 304.04
  L 565.93 298.07
  L 566.88 298.52
  A 0.65 0.62 18.9 0 1 567.24 299.22
  Q 558.48 342.24 549.76 385.25
  Q 548.56 391.21 548.65 394.34
  L 547.02 402.09
  Q 546.72 402.17 546.38 402.05
  Q 546.14 401.97 545.95 401.74
  Q 540.88 395.58 538.64 393.07
  C 523.60 376.27 502.36 364.38 479.81 362.47
  C 463.30 361.07 447.61 362.98 432.51 369.99
  Q 424.62 373.65 416.84 378.61
  L 412.59 354.41
  Q 409.26 329.72 404.86 305.27
  Q 404.56 303.65 404.20 304.48
  L 403.05 297.61
  A 0.39 0.39 0.0 0 1 403.53 297.17
  Q 405.80 297.73 406.80 299.16
  Q 420.81 307.44 435.01 315.26
  Q 441.12 318.63 445.60 315.75
  Q 448.25 314.04 451.80 306.92
  Q 462.07 286.29 476.20 257.06
  Q 476.25 256.96 479.84 250.11
  Q 482.11 245.78 483.60 241.23
  L 485.23 238.10
  L 485.89 237.81
  A 0.68 0.68 0.0 0 1 486.78 238.14
  Q 499.93 266.03 507.41 282.33
  Q 513.58 295.78 519.38 307.64
  Q 521.13 311.23 523.52 313.98
  Q 525.75 316.54 528.77 316.43
  Z"
/>
<path fill="#000000" d="
  M 406.80 299.16
  Q 421.49 306.42 435.52 314.74
  C 439.38 317.04 444.33 317.01 447.33 313.23
  Q 449.44 310.57 450.23 308.92
  Q 466.54 274.96 483.60 241.23
  Q 482.11 245.78 479.84 250.11
  Q 476.25 256.96 476.20 257.06
  Q 462.07 286.29 451.80 306.92
  Q 448.25 314.04 445.60 315.75
  Q 441.12 318.63 435.01 315.26
  Q 420.81 307.44 406.80 299.16
  Z"
/>
<path fill="#000000" d="
  M 285.51 276.17
  Q 255.06 320.49 237.11 371.17
  Q 236.18 373.77 236.18 384.75
  Q 236.16 421.76 235.59 458.76
  C 234.98 498.58 235.09 551.36 234.17 597.72
  Q 233.82 598.14 233.86 598.79
  A 0.03 0.03 0.0 0 1 233.81 598.82
  Q 233.80 598.81 233.78 598.80
  A 0.10 0.02 31.7 0 1 233.72 598.74
  Q 232.93 582.22 233.73 564.82
  Q 234.43 549.58 234.38 541.61
  Q 234.13 504.37 234.84 469.90
  A 3.58 3.52 51.6 0 1 234.92 469.15
  Q 235.59 466.08 235.39 463.00
  Q 234.85 454.55 235.07 448.10
  Q 235.32 440.75 235.33 435.39
  Q 235.39 402.04 235.36 378.51
  C 235.36 375.79 235.61 373.30 236.58 370.57
  Q 254.49 320.13 284.90 276.04
  A 0.36 0.32 13.1 0 1 285.17 275.89
  Q 285.58 275.87 285.51 276.17
  Z"
/>
<path fill="#000000" d="
  M 548.65 394.34
  Q 548.56 391.21 549.76 385.25
  Q 558.48 342.24 567.24 299.22
  A 0.65 0.62 18.9 0 0 566.88 298.52
  L 565.93 298.07
  L 567.53 297.18
  A 0.47 0.47 0.0 0 1 568.22 297.69
  L 548.65 394.34
  Z"
/>
<path fill="#b41417" d="
  M 554.95 304.04
  Q 542.46 311.95 533.34 316.36
  Q 532.16 316.94 530.85 316.25
  Q 533.38 315.58 534.14 315.15
  Q 544.33 309.47 554.95 304.04
  Z"
/>
<path fill="#b41417" d="
  M 412.59 354.41
  L 404.20 304.48
  Q 404.56 303.65 404.86 305.27
  Q 409.26 329.72 412.59 354.41
  Z"
/>
<path fill="#d9191a" d="
  M 725.21 581.32
  L 726.22 500.48
  Q 726.99 500.59 727.02 499.30
  Q 728.15 453.75 727.67 393.32
  Q 727.66 392.03 727.10 392.15
  L 727.76 320.53
  Q 728.12 321.44 728.65 322.28
  Q 729.38 323.47 729.59 324.00
  Q 741.59 354.60 746.87 382.35
  Q 752.42 411.49 752.76 442.76
  Q 752.90 455.92 751.62 473.74
  Q 748.31 519.76 732.67 564.94
  Q 729.97 572.73 726.65 579.89
  Q 726.46 580.30 725.21 581.32
  Z"
/>
<path fill="#d9191a" d="
  M 210.10 353.17
  Q 210.07 353.36 210.04 353.47
  Q 202.63 373.73 198.12 391.82
  Q 190.11 423.97 187.62 457.59
  Q 186.94 466.87 187.02 473.93
  C 187.15 485.20 186.76 495.58 187.73 507.17
  Q 188.84 520.54 189.26 523.98
  Q 198.70 601.88 240.54 665.71
  Q 266.58 705.43 306.81 734.98
  C 311.42 738.37 317.38 741.80 322.27 745.27
  A 0.11 0.03 47.1 0 1 322.35 745.41
  Q 322.19 745.31 322.19 745.49
  A 0.01 0.01 0.0 0 1 322.17 745.50
  Q 297.44 731.99 277.10 714.15
  Q 249.60 690.03 229.46 658.82
  C 204.82 620.65 188.83 575.42 184.55 529.75
  Q 182.49 507.78 183.03 486.76
  Q 183.19 480.26 184.23 465.57
  Q 185.13 452.92 186.30 444.46
  Q 189.97 418.10 196.78 392.26
  Q 201.58 374.03 210.01 353.15
  A 0.05 0.04 -30.5 0 1 210.10 353.17
  Z"
/>
<path fill="#d9191a" d="
  M 364.84 364.05
  Q 376.59 380.50 390.42 395.23
  Q 392.50 396.48 394.10 399.09
  C 380.45 416.40 371.09 435.08 366.55 456.64
  C 363.02 473.39 363.40 491.01 366.89 507.37
  C 372.38 533.08 386.93 556.53 409.00 571.02
  Q 422.45 579.85 438.87 584.28
  Q 435.32 585.32 432.99 585.09
  Q 430.53 584.39 428.61 585.85
  L 420.78 586.95
  Q 420.17 586.44 418.43 586.67
  Q 409.15 587.90 399.68 589.16
  Q 396.00 589.65 395.18 589.65
  A 6.33 6.26 -52.9 0 0 393.26 589.93
  Q 390.98 590.63 388.24 590.74
  C 385.46 590.85 383.81 591.68 381.35 591.59
  Q 380.02 591.55 376.21 592.32
  Q 371.91 593.20 367.79 592.52
  Q 368.10 589.99 368.85 589.69
  Q 375.52 574.62 379.45 559.07
  Q 378.97 552.78 376.12 550.13
  Q 372.19 546.48 368.46 543.03
  Q 367.64 540.57 365.13 540.03
  Q 362.89 538.70 361.66 536.83
  Q 352.40 527.75 342.04 519.92
  Q 339.53 518.55 337.81 516.21
  Q 324.43 503.46 310.02 491.98
  Q 307.77 490.78 306.05 488.51
  Q 306.07 488.05 305.60 487.64
  Q 294.21 477.58 282.78 467.54
  Q 282.38 467.19 281.95 467.15
  Q 281.25 467.24 281.11 466.54
  L 280.73 465.32
  A 0.61 0.60 69.0 0 1 281.05 464.59
  L 300.08 455.68
  L 304.19 451.49
  Q 305.17 446.37 303.32 437.97
  Q 300.54 425.31 297.93 412.62
  Q 295.53 400.96 292.01 388.81
  L 290.31 382.37
  A 0.36 0.36 0.0 0 1 290.69 381.92
  Q 293.27 382.15 295.16 383.09
  Q 311.23 387.17 327.33 390.61
  Q 334.63 392.17 341.99 393.60
  Q 346.45 394.47 348.46 393.63
  C 352.21 392.07 353.83 388.07 355.11 384.44
  Q 358.41 374.99 360.78 363.27
  L 361.27 359.68
  A 0.32 0.31 -63.1 0 1 361.81 359.50
  Q 363.78 361.61 364.84 364.05
  Z"
/>
<path fill="#b41417" d="
  M 494.60 580.67
  L 495.92 579.90
  C 498.74 580.31 501.77 580.37 504.34 580.74
  Q 538.68 585.67 575.51 591.43
  A 1.51 0.11 22.0 0 1 576.44 591.73
  C 577.38 592.09 578.61 591.77 579.69 591.94
  Q 585.43 592.86 586.76 593.08
  A 0.75 0.74 86.5 0 0 587.59 592.13
  Q 582.83 576.50 579.58 564.00
  Q 579.06 561.99 579.65 556.60
  A 2.37 2.36 -25.8 0 1 580.00 555.60
  Q 582.54 551.60 586.57 548.32
  Q 600.01 537.41 611.34 527.54
  C 614.87 524.46 617.99 522.11 621.01 519.45
  Q 627.02 514.14 628.13 513.21
  C 633.99 508.32 639.01 503.64 643.75 499.73
  Q 650.95 493.79 660.31 485.57
  C 662.31 483.81 664.53 482.40 666.22 480.54
  Q 667.65 478.94 670.57 476.73
  Q 676.09 472.55 682.74 466.14
  A 0.43 0.43 0.0 0 0 682.61 465.43
  Q 669.86 459.96 666.85 458.67
  C 662.89 456.97 659.19 454.63 659.37 450.06
  Q 659.51 446.38 659.63 445.93
  Q 669.87 407.11 676.36 383.38
  A 0.60 0.59 1.8 0 0 675.66 382.64
  Q 663.99 385.01 649.68 388.44
  Q 643.52 389.92 635.34 391.51
  Q 634.85 391.60 634.66 391.73
  Q 634.22 392.02 633.92 391.86
  A 1.59 0.69 38.3 0 0 632.98 391.61
  Q 632.45 391.68 631.44 392.44
  A 1.52 1.48 25.5 0 1 630.58 392.73
  Q 629.51 392.77 625.37 393.86
  C 620.31 395.19 615.76 394.44 613.39 389.35
  Q 612.20 386.80 611.90 385.17
  Q 610.00 375.08 607.68 363.78
  A 0.48 0.48 0.0 0 0 607.07 363.42
  Q 606.42 363.61 605.99 363.47
  L 607.50 361.41
  A 0.31 0.31 0.0 0 1 608.05 361.53
  Q 609.92 371.25 611.99 382.27
  C 613.38 389.67 615.68 395.21 623.94 393.42
  Q 634.56 391.10 676.60 381.71
  A 0.59 0.59 0.0 0 1 677.30 382.44
  Q 670.22 408.54 660.66 444.93
  C 659.36 449.85 659.53 454.45 664.66 456.86
  Q 671.08 459.88 684.09 465.26
  A 0.48 0.47 -53.6 0 1 684.21 466.06
  Q 669.62 478.31 641.28 502.79
  Q 613.56 526.72 586.28 549.53
  C 581.66 553.39 578.73 557.02 580.31 563.50
  Q 583.73 577.52 588.67 593.38
  A 0.39 0.39 0.0 0 1 588.24 593.88
  Q 544.14 587.25 503.25 581.27
  Q 501.06 580.95 494.60 580.67
  Z"
/>
<path fill="#000000" d="
  M 547.02 402.09
  Q 546.87 403.24 547.49 404.26
  Q 552.12 411.95 555.46 418.83
  Q 563.32 436.29 564.90 456.01
  Q 566.43 474.96 563.43 490.97
  Q 553.03 546.61 503.31 575.59
  Q 501.83 576.46 495.90 579.43
  A 0.22 0.21 76.2 0 0 495.78 579.64
  Q 495.81 579.88 495.92 579.90
  L 494.60 580.67
  Q 490.71 581.41 487.82 583.37
  Q 488.06 582.75 487.67 582.42
  Q 487.33 582.14 486.72 582.31
  Q 479.41 584.45 472.40 585.17
  A 0.54 0.54 0.0 0 0 471.94 585.86
  L 473.35 590.65
  A 1.44 1.41 -53.9 0 1 473.41 591.06
  Q 473.48 598.91 472.83 605.83
  C 472.52 609.14 472.74 612.16 472.48 615.53
  Q 472.44 615.99 470.94 638.01
  Q 470.63 642.55 470.58 644.91
  Q 470.51 648.26 470.26 651.82
  Q 468.87 671.53 467.99 694.05
  A 0.59 0.59 0.0 0 0 468.58 694.66
  L 484.15 694.66
  A 0.72 0.71 -0.8 0 0 484.87 693.93
  Q 484.29 660.98 483.85 611.02
  C 483.81 606.20 483.26 597.37 483.73 590.98
  Q 484.01 587.14 486.39 584.65
  Q 484.40 588.51 484.44 592.25
  Q 484.84 633.75 485.32 691.97
  C 485.33 692.71 485.72 693.69 485.72 694.35
  A 0.69 0.69 0.0 0 1 485.03 695.05
  L 467.74 695.05
  A 0.61 0.61 0.0 0 1 467.13 694.41
  Q 468.63 667.95 472.57 599.67
  C 472.84 594.84 473.22 590.93 471.61 586.32
  A 0.91 0.88 78.1 0 0 470.72 585.72
  Q 461.08 586.22 451.75 585.85
  Q 446.10 585.62 438.87 584.28
  Q 422.45 579.85 409.00 571.02
  C 386.93 556.53 372.38 533.08 366.89 507.37
  C 363.40 491.01 363.02 473.39 366.55 456.64
  C 371.09 435.08 380.45 416.40 394.10 399.09
  Q 400.84 391.14 407.99 385.24
  Q 411.63 382.23 416.84 378.61
  Q 424.62 373.65 432.51 369.99
  C 447.61 362.98 463.30 361.07 479.81 362.47
  C 502.36 364.38 523.60 376.27 538.64 393.07
  Q 540.88 395.58 545.95 401.74
  Q 546.14 401.97 546.38 402.05
  Q 546.72 402.17 547.02 402.09
  Z
  M 391.25 525.40
  C 414.39 574.12 475.69 581.60 514.05 547.04
  C 537.77 525.68 549.33 494.38 547.84 462.72
  Q 546.27 429.59 526.82 406.24
  C 513.91 390.74 494.37 379.64 473.63 379.03
  C 446.29 378.22 421.28 392.13 404.98 413.47
  C 391.03 431.73 382.64 451.60 381.66 474.98
  Q 380.50 502.76 391.25 525.40
  Z"
/>
<path fill="#b41417" d="
  M 295.16 383.09
  Q 319.16 387.52 342.73 393.13
  Q 347.95 394.38 351.13 390.92
  Q 352.68 389.23 353.70 386.02
  Q 357.30 374.70 360.78 363.27
  Q 358.41 374.99 355.11 384.44
  C 353.83 388.07 352.21 392.07 348.46 393.63
  Q 346.45 394.47 341.99 393.60
  Q 334.63 392.17 327.33 390.61
  Q 311.23 387.17 295.16 383.09
  Z"
/>
<path fill="#d9191a" d="
  M 495.92 579.90
  Q 495.81 579.88 495.78 579.64
  A 0.22 0.21 76.2 0 1 495.90 579.43
  Q 501.83 576.46 503.31 575.59
  Q 553.03 546.61 563.43 490.97
  Q 566.43 474.96 564.90 456.01
  Q 563.32 436.29 555.46 418.83
  L 580.32 392.07
  Q 584.26 390.35 585.86 386.13
  L 598.87 371.81
  Q 602.46 370.01 603.74 365.88
  L 605.99 363.47
  Q 606.42 363.61 607.07 363.42
  A 0.48 0.48 0.0 0 1 607.68 363.78
  Q 610.00 375.08 611.90 385.17
  Q 612.20 386.80 613.39 389.35
  C 615.76 394.44 620.31 395.19 625.37 393.86
  Q 629.51 392.77 630.58 392.73
  A 1.52 1.48 25.5 0 0 631.44 392.44
  Q 632.45 391.68 632.98 391.61
  A 1.59 0.69 38.3 0 1 633.92 391.86
  Q 634.22 392.02 634.66 391.73
  Q 634.85 391.60 635.34 391.51
  Q 643.52 389.92 649.68 388.44
  Q 663.99 385.01 675.66 382.64
  A 0.60 0.59 1.8 0 1 676.36 383.38
  Q 669.87 407.11 659.63 445.93
  Q 659.51 446.38 659.37 450.06
  C 659.19 454.63 662.89 456.97 666.85 458.67
  Q 669.86 459.96 682.61 465.43
  A 0.43 0.43 0.0 0 1 682.74 466.14
  Q 676.09 472.55 670.57 476.73
  Q 667.65 478.94 666.22 480.54
  C 664.53 482.40 662.31 483.81 660.31 485.57
  Q 650.95 493.79 643.75 499.73
  C 639.01 503.64 633.99 508.32 628.13 513.21
  Q 627.02 514.14 621.01 519.45
  C 617.99 522.11 614.87 524.46 611.34 527.54
  Q 600.01 537.41 586.57 548.32
  Q 582.54 551.60 580.00 555.60
  A 2.37 2.36 -25.8 0 0 579.65 556.60
  Q 579.06 561.99 579.58 564.00
  Q 582.83 576.50 587.59 592.13
  A 0.75 0.74 86.5 0 1 586.76 593.08
  Q 585.43 592.86 579.69 591.94
  C 578.61 591.77 577.38 592.09 576.44 591.73
  A 1.51 0.11 22.0 0 0 575.51 591.43
  Q 538.68 585.67 504.34 580.74
  C 501.77 580.37 498.74 580.31 495.92 579.90
  Z"
/>
<path fill="#000000" d="
  M 390.42 395.23
  Q 376.59 380.50 364.84 364.05
  L 390.42 395.23
  Z"
/>
<path fill="#b41417" d="
  M 603.74 365.88
  Q 602.46 370.01 598.87 371.81
  L 603.74 365.88
  Z"
/>
<path fill="#d9191a" d="
  M 514.05 547.04
  C 475.69 581.60 414.39 574.12 391.25 525.40
  Q 380.50 502.76 381.66 474.98
  C 382.64 451.60 391.03 431.73 404.98 413.47
  C 421.28 392.13 446.29 378.22 473.63 379.03
  C 494.37 379.64 513.91 390.74 526.82 406.24
  Q 546.27 429.59 547.84 462.72
  C 549.33 494.38 537.77 525.68 514.05 547.04
  Z
  M 490.4873 403.9915
  A 74.51 63.67 -73.6 0 0 408.3705 457.4933
  A 74.51 63.67 -73.6 0 0 448.4127 546.9485
  A 74.51 63.67 -73.6 0 0 530.5295 493.4467
  A 74.51 63.67 -73.6 0 0 490.4873 403.9915
  Z"
/>
<path fill="#000000" d="
  M 585.86 386.13
  Q 584.26 390.35 580.32 392.07
  L 585.86 386.13
  Z"
/>
<path fill="#b41417" d="
  M 304.19 451.49
  Q 304.21 445.49 303.45 442.02
  Q 297.79 415.87 292.01 388.81
  Q 295.53 400.96 297.93 412.62
  Q 300.54 425.31 303.32 437.97
  Q 305.17 446.37 304.19 451.49
  Z"
/>
<path fill="#b41417" d="
  M 726.22 500.48
  L 727.10 392.15
  Q 727.66 392.03 727.67 393.32
  Q 728.15 453.75 727.02 499.30
  Q 726.99 500.59 726.22 500.48
  Z"
/>
<path fill="#000000" d="
  M 490.4873 403.9915
  A 74.51 63.67 -73.6 0 1 530.5295 493.4467
  A 74.51 63.67 -73.6 0 1 448.4127 546.9485
  A 74.51 63.67 -73.6 0 1 408.3705 457.4933
  A 74.51 63.67 -73.6 0 1 490.4873 403.9915
  Z
  M 463.86 531.19
  A 0.32 0.32 0.0 0 0 464.14 530.69
  C 454.69 516.96 449.14 502.20 450.24 485.21
  C 451.86 460.12 466.09 434.41 488.26 422.07
  A 0.43 0.43 0.0 0 0 488.18 421.28
  C 466.91 414.92 445.11 426.19 433.83 444.46
  C 424.32 459.86 420.29 477.30 423.86 495.11
  C 426.58 508.64 434.80 522.84 448.03 527.95
  Q 455.83 530.97 463.86 531.19
  Z
  M 483.50 525.44
  Q 485.76 524.96 488.21 523.20
  C 491.50 520.81 495.46 517.85 498.64 514.45
  Q 515.84 496.04 516.08 471.14
  Q 516.23 455.93 510.30 442.75
  C 509.34 440.61 507.84 438.69 506.50 436.32
  A 2.77 2.77 0.0 0 0 503.45 434.98
  C 497.14 436.47 490.29 441.27 485.82 445.91
  Q 468.64 463.80 467.96 489.23
  C 467.62 502.17 472.72 516.35 482.67 525.23
  A 0.97 0.96 -30.4 0 0 483.50 525.44
  Z"
/>
<path fill="#b41417" d="
  M 463.86 531.19
  Q 455.83 530.97 448.03 527.95
  C 434.80 522.84 426.58 508.64 423.86 495.11
  C 420.29 477.30 424.32 459.86 433.83 444.46
  C 445.11 426.19 466.91 414.92 488.18 421.28
  A 0.43 0.43 0.0 0 1 488.26 422.07
  C 466.09 434.41 451.86 460.12 450.24 485.21
  C 449.14 502.20 454.69 516.96 464.14 530.69
  A 0.32 0.32 0.0 0 1 463.86 531.19
  Z"
/>
<path fill="#b41417" d="
  M 879.61 446.48
  Q 880.58 458.63 879.50 470.74
  L 879.61 446.48
  Z"
/>
<path fill="#b41417" d="
  M 300.08 455.68
  L 281.05 464.59
  A 0.61 0.60 69.0 0 0 280.73 465.32
  L 281.11 466.54
  Q 279.82 465.97 279.46 465.09
  A 0.56 0.56 0.0 0 1 279.76 464.36
  L 300.08 455.68
  Z"
/>
<path fill="#000000" d="
  M 306.05 488.51
  L 281.95 467.15
  Q 282.38 467.19 282.78 467.54
  Q 294.21 477.58 305.60 487.64
  Q 306.07 488.05 306.05 488.51
  Z"
/>
<path fill="#b41417" d="
  M 337.81 516.21
  Q 323.43 504.62 310.02 491.98
  Q 324.43 503.46 337.81 516.21
  Z"
/>
<path fill="#b41417" d="
  M 361.66 536.83
  L 342.04 519.92
  Q 352.40 527.75 361.66 536.83
  Z"
/>
<path fill="#b41417" d="
  M 368.46 543.03
  L 365.13 540.03
  Q 367.64 540.57 368.46 543.03
  Z"
/>
<path fill="#000000" d="
  M 368.85 589.69
  L 379.45 559.07
  Q 375.52 574.62 368.85 589.69
  Z"
/>
<path fill="#d9191a" d="
  M 487.82 583.37
  Q 487.18 584.57 486.39 584.65
  Q 484.01 587.14 483.73 590.98
  C 483.26 597.37 483.81 606.20 483.85 611.02
  Q 484.29 660.98 484.87 693.93
  A 0.72 0.71 -0.8 0 1 484.15 694.66
  L 468.58 694.66
  A 0.59 0.59 0.0 0 1 467.99 694.05
  Q 468.87 671.53 470.26 651.82
  Q 470.51 648.26 470.58 644.91
  Q 470.63 642.55 470.94 638.01
  Q 472.44 615.99 472.48 615.53
  C 472.74 612.16 472.52 609.14 472.83 605.83
  Q 473.48 598.91 473.41 591.06
  A 1.44 1.41 -53.9 0 0 473.35 590.65
  L 471.94 585.86
  A 0.54 0.54 0.0 0 1 472.40 585.17
  Q 479.41 584.45 486.72 582.31
  Q 487.33 582.14 487.67 582.42
  Q 488.06 582.75 487.82 583.37
  Z"
/>
<path fill="#000000" d="
  M 432.99 585.09
  Q 430.89 585.94 428.61 585.85
  Q 430.53 584.39 432.99 585.09
  Z"
/>
<path fill="#000000" d="
  M 420.78 586.95
  L 367.83 593.87
  A 0.46 0.46 0.0 0 1 367.33 593.54
  Q 367.15 592.98 367.79 592.52
  Q 371.91 593.20 376.21 592.32
  Q 380.02 591.55 381.35 591.59
  C 383.81 591.68 385.46 590.85 388.24 590.74
  Q 390.98 590.63 393.26 589.93
  A 6.33 6.26 -52.9 0 1 395.18 589.65
  Q 396.00 589.65 399.68 589.16
  Q 409.15 587.90 418.43 586.67
  Q 420.17 586.44 420.78 586.95
  Z"
/>
</svg>
