<?xml version="1.0" encoding="UTF-8" standalone="no"?>
<!DOCTYPE svg PUBLIC "-//W3C//DTD SVG 1.1//EN" "http://www.w3.org/Graphics/SVG/1.1/DTD/svg11.dtd">
<svg xmlns="http://www.w3.org/2000/svg" version="1.1" viewBox="0.00 0.00 1024.00 1024.00">
<g stroke-width="2.00" fill="none" stroke-linecap="butt">
<path stroke="#641013" vector-effect="non-scaling-stroke" d="
  M 135.38 357.97
  Q 134.61 358.19 134.21 359.52
  Q 101.18 471.02 132.53 583.44
  Q 135.37 593.61 141.64 610.09"
/>
<path stroke="#7a6215" vector-effect="non-scaling-stroke" d="
  M 141.64 610.09
  Q 144.38 617.73 147.39 624.82
  C 170.67 679.60 207.16 727.99 254.02 764.57
  C 300.21 800.63 355.30 824.91 413.43 833.72
  C 418.70 834.52 423.48 834.78 428.76 835.38
  Q 433.30 835.89 440.28 836.16
  Q 453.77 836.68 469.54 836.11
  C 478.93 835.77 490.35 834.34 498.26 833.25
  Q 564.58 824.17 622.95 790.68
  C 646.60 777.11 669.00 761.29 688.79 743.28
  C 708.13 725.70 726.45 706.54 740.86 687.11
  Q 766.59 652.42 785.73 610.97"
/>
<path stroke="#641013" vector-effect="non-scaling-stroke" d="
  M 785.73 610.97
  Q 810.86 555.99 818.17 494.00
  Q 825.76 429.60 813.82 368.05
  Q 812.79 362.72 811.93 357.96"
/>
<path stroke="#171717" vector-effect="non-scaling-stroke" d="
  M 811.93 357.96
  Q 808.38 342.61 805.56 333.00
  C 787.11 269.98 751.29 212.71 703.70 168.53
  Q 672.55 139.62 636.32 120.99
  Q 616.94 111.02 605.09 106.20
  C 578.68 95.46 548.65 88.36 518.67 86.15
  Q 503.96 85.06 500.51 84.95
  Q 439.36 82.99 380.23 102.56
  Q 361.28 108.83 349.47 114.22
  C 331.94 122.22 312.93 131.68 296.43 142.34
  C 261.59 164.85 230.53 192.48 205.01 225.01
  Q 188.07 246.61 174.67 268.68
  Q 157.03 297.72 144.76 329.76
  Q 142.92 334.56 136.09 354.75
  Q 135.65 356.04 135.38 357.97"
/>
<path stroke="#7a272a" vector-effect="non-scaling-stroke" d="
  M 811.93 357.96
  L 779.27 358.00"
/>
<path stroke="#171717" vector-effect="non-scaling-stroke" d="
  M 779.27 358.00
  Q 779.13 357.07 778.85 356.27
  Q 778.47 355.14 778.36 354.57
  Q 777.15 348.47 774.65 340.86
  C 763.56 307.13 748.85 275.30 728.38 246.87
  Q 715.70 229.24 704.78 217.45
  Q 693.65 205.44 677.93 191.57
  Q 649.15 166.20 615.65 149.10
  Q 563.73 122.59 505.26 119.29
  Q 476.16 117.64 450.59 120.62
  Q 395.32 127.04 345.18 152.34
  Q 317.34 166.38 295.96 182.22
  Q 205.01 249.56 167.05 358.01"
/>
<path stroke="#7a272a" vector-effect="non-scaling-stroke" d="
  M 167.05 358.01
  L 135.38 357.97"
/>
<path stroke="#dd7228" vector-effect="non-scaling-stroke" d="
  M 785.73 610.97
  L 751.12 610.95"
/>
<path stroke="#641013" vector-effect="non-scaling-stroke" d="
  M 779.27 358.00
  Q 787.13 390.67 788.73 424.76
  Q 789.89 449.22 788.90 469.25
  Q 785.71 533.83 759.02 593.78
  Q 755.20 602.33 751.12 610.95"
/>
<path stroke="#7a6215" vector-effect="non-scaling-stroke" d="
  M 751.12 610.95
  Q 745.11 622.52 738.32 633.84
  C 707.43 685.37 665.30 727.63 614.14 758.88
  C 576.22 782.05 534.71 797.38 490.66 802.15
  Q 480.91 803.20 465.85 803.31
  Q 452.53 803.40 441.01 802.79
  Q 387.73 799.97 338.85 778.39
  C 271.08 748.47 216.50 694.06 182.81 627.48
  Q 178.46 618.89 174.66 610.75"
/>
<path stroke="#641013" vector-effect="non-scaling-stroke" d="
  M 174.66 610.75
  Q 171.58 603.08 168.90 595.97
  Q 158.20 567.52 153.25 537.55
  Q 138.10 445.82 167.05 358.01"
/>
<path stroke="#dd7228" vector-effect="non-scaling-stroke" d="
  M 174.66 610.75
  Q 160.49 610.97 146.75 610.93
  Q 144.09 610.92 141.64 610.09"
/>
<path stroke="#641013" vector-effect="non-scaling-stroke" d="
  M 830.94 357.96
  Q 833.17 370.25 835.11 382.53
  Q 840.38 415.81 839.82 448.74
  Q 838.46 528.64 809.02 601.25
  C 789.22 650.08 759.41 696.04 723.18 734.22
  Q 671.87 788.30 601.09 821.61
  C 586.99 828.24 569.42 834.34 555.55 838.56
  Q 543.31 842.28 538.06 843.08
  Q 530.97 844.16 526.37 845.28
  A 0.17 0.17 0.0 0 0 526.43 845.61
  Q 550.61 843.97 573.74 838.99
  Q 665.81 819.18 737.67 759.86
  C 751.78 748.22 764.43 735.78 776.48 722.73
  C 804.81 692.06 827.44 656.03 844.56 617.56
  C 864.58 572.53 875.32 523.58 877.58 474.35"
/>
<path stroke="#3f0609" vector-effect="non-scaling-stroke" d="
  M 877.58 474.35
  Q 880.50 416.44 864.74 360.29
  Q 864.25 358.53 863.60 357.93"
/>
<path stroke="#0e0e0e" vector-effect="non-scaling-stroke" d="
  M 863.60 357.93
  L 863.69 356.35
  A 2.20 2.16 -52.0 0 0 863.60 355.55
  Q 856.89 332.14 848.76 312.47
  Q 826.07 257.51 784.76 209.50
  C 765.80 187.45 743.95 168.94 719.82 152.50
  Q 701.79 140.22 672.44 124.56
  A 0.30 0.29 -59.7 0 0 672.05 124.67
  L 672.03 124.71
  A 0.30 0.29 32.9 0 0 672.12 125.11
  Q 676.85 128.16 681.37 131.45
  Q 704.15 148.05 721.98 165.23
  Q 722.73 165.96 728.89 171.50
  Q 731.93 174.23 735.46 178.05
  Q 745.51 188.91 755.17 200.82
  Q 788.70 242.14 809.53 290.67
  Q 823.40 322.97 830.34 355.86
  Q 830.57 356.97 830.94 357.96"
/>
<path stroke="#4d1316" vector-effect="non-scaling-stroke" d="
  M 863.60 357.93
  L 831.73 358.07"
/>
<path stroke="#711e21" vector-effect="non-scaling-stroke" d="
  M 831.73 358.07
  L 830.94 357.96"
/>
<path stroke="#a3161c" vector-effect="non-scaling-stroke" d="
  M 877.58 474.35
  Q 875.85 488.77 874.22 503.11
  Q 872.26 520.31 870.09 531.76
  Q 866.91 548.53 863.28 562.04
  Q 851.67 605.33 829.66 645.88
  Q 827.93 649.08 819.28 664.26
  Q 814.44 672.75 800.77 691.78
  Q 799.68 693.29 798.64 694.81
  Q 797.66 696.27 796.41 697.73
  Q 793.03 701.67 789.88 706.07
  A 4.78 4.78 0.0 0 1 789.17 706.87
  Q 786.96 708.89 785.31 711.65
  A 3.14 2.99 84.8 0 1 784.81 712.28
  Q 782.55 714.46 780.69 716.70
  Q 777.49 720.56 776.77 721.29
  C 768.74 729.42 765.19 733.91 757.72 740.53
  Q 757.34 740.87 747.75 749.99
  Q 744.66 752.93 726.10 767.84
  Q 724.00 769.52 715.20 775.85
  C 693.14 791.71 669.14 805.12 643.40 816.11
  Q 619.11 826.47 585.81 835.35
  Q 577.45 837.58 568.00 839.16
  Q 559.33 840.62 549.97 842.13
  A 0.39 0.38 -10.7 0 1 549.54 841.84
  L 549.54 841.83
  A 0.37 0.37 0.0 0 1 549.80 841.39
  Q 565.06 836.86 580.60 831.11
  C 603.51 822.63 624.76 811.28 645.49 798.48
  Q 669.26 783.81 690.52 766.03
  Q 699.60 758.43 700.04 758.03
  C 705.08 753.28 710.54 748.76 714.77 744.41
  Q 744.45 713.91 764.57 684.84
  Q 774.94 669.85 787.64 647.85
  Q 794.04 636.78 798.71 626.75
  Q 805.76 611.64 808.54 605.05
  Q 819.06 580.14 827.08 549.86
  Q 829.13 542.13 832.41 527.21
  Q 835.04 515.29 838.38 488.85
  C 839.26 481.95 839.27 475.46 840.02 468.41
  Q 840.57 463.23 840.74 453.07
  Q 841.17 428.83 839.48 409.77
  Q 837.38 386.06 832.50 361.23
  Q 832.44 360.94 832.45 359.52
  Q 832.46 358.50 831.73 358.07"
/>
<path stroke="#641013" vector-effect="non-scaling-stroke" d="
  M 186.31 357.92
  C 185.95 358.15 185.57 358.46 185.41 358.90
  Q 182.09 367.81 179.37 377.37
  Q 168.17 416.68 166.23 454.50
  Q 165.04 477.56 166.04 496.49
  Q 168.24 537.96 180.32 577.69
  Q 184.48 591.37 192.90 610.49"
/>
<path stroke="#7a6215" vector-effect="non-scaling-stroke" d="
  M 192.90 610.49
  Q 202.93 632.86 214.70 651.04
  C 238.69 688.09 271.67 721.06 309.21 744.46
  Q 364.56 778.95 431.25 786.22
  Q 447.51 787.99 463.18 788.03
  C 469.56 788.05 475.28 787.30 482.43 786.77
  Q 490.10 786.20 496.80 785.18
  C 541.12 778.45 583.13 761.22 620.02 736.30
  Q 692.06 687.65 732.47 610.54"
/>
<path stroke="#641013" vector-effect="non-scaling-stroke" d="
  M 732.47 610.54
  Q 736.60 603.03 741.86 591.38
  Q 764.09 542.15 770.30 489.52
  Q 778.29 421.69 761.70 357.97"
/>
<path stroke="#171717" vector-effect="non-scaling-stroke" d="
  M 761.70 357.97
  Q 756.16 338.64 753.83 332.19
  Q 740.73 295.97 719.56 262.71
  C 693.27 221.42 655.43 187.89 612.27 165.04
  Q 594.41 155.58 572.25 147.99
  C 564.48 145.33 554.74 143.22 545.33 140.63
  Q 540.84 139.39 524.69 136.98"
/>
<path stroke="#0e0e0e" vector-effect="non-scaling-stroke" d="
  M 524.69 136.98
  Q 513.96 134.92 504.51 134.27
  Q 445.81 130.24 391.27 149.39
  C 353.59 162.62 317.54 182.81 287.02 209.26
  Q 217.57 269.44 186.32 355.78
  Q 186.02 356.60 186.31 357.92"
/>
<path stroke="#242525" vector-effect="non-scaling-stroke" d="
  M 524.69 136.98
  Q 529.58 139.51 534.48 140.22
  Q 545.16 141.75 548.09 142.44
  A 0.23 0.22 19.8 0 1 548.24 142.75
  L 548.00 143.29
  A 0.04 0.04 0.0 0 1 547.96 143.32
  Q 539.55 142.18 530.00 141.88
  C 503.86 141.07 476.09 142.13 450.98 147.81
  Q 415.86 155.74 388.23 168.56
  Q 345.59 188.36 309.16 220.69
  Q 280.48 246.14 260.85 272.48
  Q 254.61 280.86 247.72 291.44
  Q 237.19 307.62 235.44 310.95
  Q 222.87 334.88 215.43 354.49
  Q 214.90 355.88 216.04 356.37
  A 0.51 0.50 -65.1 0 1 216.29 357.06
  Q 216.05 357.53 215.53 357.97"
/>
<path stroke="#711e21" vector-effect="non-scaling-stroke" d="
  M 215.53 357.97
  Q 214.21 357.95 213.88 358.14"
/>
<path stroke="#4d1316" vector-effect="non-scaling-stroke" d="
  M 213.88 358.14
  L 186.70 358.02"
/>
<path stroke="#711e21" vector-effect="non-scaling-stroke" d="
  M 186.70 358.02
  Q 186.50 358.02 186.31 357.92"
/>
<path stroke="#dd7228" vector-effect="non-scaling-stroke" d="
  M 732.47 610.54
  Q 730.94 611.06 729.59 611.06
  Q 563.17 611.13 396.75 610.87
  Q 283.06 610.69 239.00 610.61
  Q 223.62 610.59 213.94 610.87"
/>
<path stroke="#a3161c" vector-effect="non-scaling-stroke" d="
  M 213.94 610.87
  Q 213.06 608.25 212.03 605.53
  Q 200.06 573.97 195.53 540.01
  C 193.13 522.06 191.07 501.91 191.48 482.53
  Q 191.82 466.22 192.19 461.63
  Q 195.01 426.21 202.77 394.26
  Q 206.81 377.60 213.88 358.14"
/>
<path stroke="#a3161c" vector-effect="non-scaling-stroke" d="
  M 186.70 358.02
  Q 186.81 358.14 186.91 358.23
  A 0.37 0.36 34.8 0 1 186.99 358.67
  Q 185.06 362.50 183.98 365.75
  Q 179.77 378.54 175.61 395.78
  Q 174.22 401.57 172.49 411.13
  Q 170.16 424.05 169.84 426.57
  Q 167.98 440.84 166.90 458.44
  Q 166.26 468.91 167.02 496.02
  Q 167.38 509.09 171.08 533.51
  Q 172.77 544.63 175.42 555.50
  Q 179.21 571.03 181.14 577.16
  Q 183.46 584.52 190.01 601.82
  C 190.92 604.22 192.51 607.31 193.35 610.23"
/>
<path stroke="#dd7228" vector-effect="non-scaling-stroke" d="
  M 193.35 610.23
  Q 193.01 610.37 192.90 610.49"
/>
<path stroke="#7a272a" vector-effect="non-scaling-stroke" d="
  M 761.70 357.97
  Q 670.60 357.97 579.75 358.00
  Q 577.27 358.00 575.26 356.95"
/>
<path stroke="#171717" vector-effect="non-scaling-stroke" d="
  M 575.26 356.95
  C 550.91 332.63 518.65 319.02 484.46 318.94
  C 464.39 318.90 443.27 322.86 424.98 331.52
  Q 402.95 341.94 385.58 358.01"
/>
<path stroke="#7a272a" vector-effect="non-scaling-stroke" d="
  M 385.58 358.01
  L 215.53 357.97"
/>
<path stroke="#b9681e" vector-effect="non-scaling-stroke" d="
  M 213.94 610.87
  Q 200.61 611.19 194.75 611.02
  Q 193.90 611.00 193.35 610.23"
/>
<path stroke="#641013" vector-effect="non-scaling-stroke" d="
  M 575.26 356.95
  Q 576.54 358.60 581.96 364.77
  Q 589.01 372.80 594.75 383.47
  Q 613.85 418.96 612.14 459.49
  Q 611.40 477.21 607.20 492.22
  C 592.71 544.03 551.42 586.66 498.25 598.50
  Q 462.74 606.42 425.94 593.78
  C 389.51 581.28 361.45 552.73 348.07 516.94
  C 333.28 477.41 336.59 433.01 356.59 396.07
  Q 367.68 375.57 385.58 358.01"
/>
<path stroke="#171717" vector-effect="non-scaling-stroke" d="
  M 367.24 520.98
  C 372.90 532.67 381.22 545.36 391.35 554.75
  Q 416.24 577.83 449.22 584.08
  Q 466.86 587.42 482.24 585.40
  Q 504.33 582.50 526.18 570.52
  Q 546.16 559.57 562.15 541.14
  Q 589.02 510.16 594.49 467.72
  Q 598.00 440.49 589.70 414.03
  C 578.43 378.09 550.53 348.94 513.73 339.79
  C 488.88 333.61 462.54 334.91 438.87 343.94
  C 369.57 370.38 334.16 452.74 367.24 520.98"
/>
<path stroke="#171717" vector-effect="non-scaling-stroke" d="
  M 410.09 515.24
  Q 429.98 540.55 463.43 544.26
  C 470.92 545.09 480.17 544.24 487.75 542.74
  C 507.56 538.85 525.49 526.06 537.84 510.36
  Q 546.65 499.16 550.39 487.17
  C 560.38 455.19 554.71 417.27 528.25 394.93
  C 516.37 384.91 501.93 379.95 486.49 377.77
  C 471.41 375.63 455.12 379.07 441.75 385.66
  C 418.73 396.99 400.85 419.68 394.43 444.38
  C 388.07 468.84 394.60 495.54 410.09 515.24"
/>
<path stroke="#a3161c" vector-effect="non-scaling-stroke" d="
  M 489.40 602.00
  A 0.21 0.20 -1.4 0 0 489.62 602.20
  Q 506.44 601.49 520.98 596.96
  Q 553.63 586.81 578.41 561.66
  Q 585.64 554.32 588.97 549.94
  Q 611.44 520.39 617.36 483.79
  Q 619.39 471.22 619.29 459.50
  C 619.07 432.85 612.25 406.36 596.99 383.86
  A 0.34 0.34 0.0 0 0 596.70 383.70
  L 596.26 383.70
  A 0.43 0.43 0.0 0 0 595.91 384.38
  Q 600.08 390.26 603.25 398.44
  Q 609.02 413.30 611.37 428.26
  Q 615.36 453.63 611.33 476.99
  Q 610.88 479.55 609.79 485.84
  Q 609.21 489.19 607.64 494.57
  Q 599.29 523.37 580.71 546.82
  C 577.93 550.33 575.18 552.84 572.50 556.26
  Q 570.55 558.75 564.37 564.60
  Q 558.70 569.96 546.32 578.78
  Q 533.05 588.23 513.56 595.27
  Q 508.72 597.02 499.38 599.77
  C 496.05 600.76 492.28 601.04 489.47 601.65
  A 0.09 0.08 86.4 0 0 489.40 601.74
  L 489.40 602.00"
/>
<path stroke="#0e0e0e" vector-effect="non-scaling-stroke" d="
  M 452.36 524.79
  A 0.29 0.29 0.0 0 0 452.65 524.32
  Q 438.02 506.01 436.34 482.72
  Q 435.14 466.24 439.30 451.75
  C 444.91 432.17 458.50 414.74 475.03 403.29
  C 478.64 400.78 483.20 398.72 486.67 397.17
  A 2.39 2.33 6.4 0 0 487.57 396.47
  Q 487.99 395.92 489.27 395.86
  A 1.78 1.76 -72.6 0 0 490.63 395.14
  L 490.68 395.06
  A 0.49 0.49 0.0 0 0 490.34 394.29
  Q 480.64 393.27 471.50 393.72
  C 445.37 395.00 423.93 415.38 414.02 438.82
  Q 409.70 449.03 409.43 460.27
  Q 408.76 489.28 427.46 511.27
  A 8.36 8.12 -0.8 0 0 428.86 512.59
  Q 435.75 517.76 444.71 522.08
  Q 448.80 524.06 452.36 524.79"
/>
<path stroke="#d3aa23" vector-effect="non-scaling-stroke" d="
  M 353.92 765.43
  A 0.27 0.27 0.0 0 0 353.80 765.07
  C 340.34 757.72 329.00 749.53 315.96 740.20
  Q 304.65 732.10 295.24 724.03
  Q 241.71 678.16 214.36 612.36
  A 1.02 1.02 0.0 0 0 213.42 611.73
  L 195.53 611.73
  A 0.54 0.53 -12.1 0 0 195.04 612.48
  C 214.57 655.91 245.02 694.09 282.30 724.05
  C 296.80 735.71 312.19 745.44 328.61 754.13
  Q 335.42 757.74 353.54 765.58
  A 0.29 0.28 -65.3 0 0 353.91 765.44
  L 353.92 765.43"
/>
</g>
<path fill="#000000" d="
  M 660.49 98.70
  Q 685.28 109.47 703.18 120.10
  C 719.89 130.02 735.82 140.86 750.62 152.92
  Q 773.94 171.91 795.24 195.02
  Q 801.68 202.01 810.46 213.06
  Q 819.12 223.96 824.67 231.87
  Q 890.58 325.71 895.92 442.00
  Q 896.22 448.56 895.93 476.44
  C 895.87 482.34 894.86 488.03 894.94 493.64
  A 7.85 7.78 50.5 0 1 894.78 495.40
  Q 893.93 499.54 893.92 504.23
  A 8.51 8.30 -39.9 0 1 893.77 505.70
  Q 893.29 508.14 892.93 511.23
  Q 885.73 573.56 859.01 630.77
  Q 822.69 708.52 760.72 764.20
  Q 727.66 793.91 686.28 817.00
  Q 642.82 841.25 595.72 852.94
  Q 567.71 859.89 534.21 862.58
  Q 532.42 862.72 531.75 862.76
  Q 508.62 864.01 484.32 862.89
  Q 480.79 862.73 477.69 862.40
  C 472.82 861.88 469.32 862.19 464.93 861.39
  Q 462.77 861.00 458.36 860.93
  A 3.77 3.71 -36.0 0 1 457.42 860.79
  Q 456.30 860.46 450.55 859.78
  Q 434.47 857.86 411.47 853.29
  C 376.88 846.41 343.21 836.88 312.23 821.73
  Q 275.51 803.76 243.75 778.74
  Q 240.40 776.11 228.70 766.05
  Q 220.01 758.58 214.33 752.89
  Q 194.97 733.48 178.00 711.27
  Q 134.96 654.94 114.71 585.47
  Q 106.97 558.93 103.56 531.98
  Q 102.51 523.71 101.74 516.39
  Q 100.94 508.74 100.91 505.70
  C 100.87 500.86 100.13 496.96 100.04 491.42
  Q 99.60 465.82 100.17 454.26
  Q 100.96 438.18 104.07 414.51
  Q 107.53 388.02 115.03 361.51
  Q 122.96 333.48 135.29 305.29
  Q 149.67 272.43 170.25 241.98
  Q 192.15 209.58 219.11 181.61
  Q 232.10 168.13 247.20 155.47
  Q 286.09 122.87 334.21 100.47
  Q 353.23 91.61 377.99 83.48
  Q 396.39 77.43 419.43 72.62
  Q 431.28 70.14 441.52 69.00
  Q 444.36 68.69 445.62 68.29
  A 4.94 4.86 -53.2 0 1 447.07 68.07
  Q 451.57 68.07 455.16 67.24
  A 7.21 7.20 -51.4 0 1 456.76 67.06
  C 460.59 67.05 463.89 66.35 467.45 66.14
  Q 495.65 64.51 524.47 66.14
  C 528.94 66.39 532.90 67.16 537.53 67.07
  A 4.81 4.75 51.7 0 1 538.83 67.23
  C 541.81 68.01 544.70 67.92 548.06 68.34
  Q 593.80 74.04 636.57 89.55
  Q 642.10 91.55 648.62 93.92
  Q 653.94 95.85 660.49 98.70
  Z
  M 135.38 357.97
  Q 134.61 358.19 134.21 359.52
  Q 101.18 471.02 132.53 583.44
  Q 135.37 593.61 141.64 610.09
  Q 144.38 617.73 147.39 624.82
  C 170.67 679.60 207.16 727.99 254.02 764.57
  C 300.21 800.63 355.30 824.91 413.43 833.72
  C 418.70 834.52 423.48 834.78 428.76 835.38
  Q 433.30 835.89 440.28 836.16
  Q 453.77 836.68 469.54 836.11
  C 478.93 835.77 490.35 834.34 498.26 833.25
  Q 564.58 824.17 622.95 790.68
  C 646.60 777.11 669.00 761.29 688.79 743.28
  C 708.13 725.70 726.45 706.54 740.86 687.11
  Q 766.59 652.42 785.73 610.97
  Q 810.86 555.99 818.17 494.00
  Q 825.76 429.60 813.82 368.05
  Q 812.79 362.72 811.93 357.96
  Q 808.38 342.61 805.56 333.00
  C 787.11 269.98 751.29 212.71 703.70 168.53
  Q 672.55 139.62 636.32 120.99
  Q 616.94 111.02 605.09 106.20
  C 578.68 95.46 548.65 88.36 518.67 86.15
  Q 503.96 85.06 500.51 84.95
  Q 439.36 82.99 380.23 102.56
  Q 361.28 108.83 349.47 114.22
  C 331.94 122.22 312.93 131.68 296.43 142.34
  C 261.59 164.85 230.53 192.48 205.01 225.01
  Q 188.07 246.61 174.67 268.68
  Q 157.03 297.72 144.76 329.76
  Q 142.92 334.56 136.09 354.75
  Q 135.65 356.04 135.38 357.97
  Z
  M 830.94 357.96
  Q 833.17 370.25 835.11 382.53
  Q 840.38 415.81 839.82 448.74
  Q 838.46 528.64 809.02 601.25
  C 789.22 650.08 759.41 696.04 723.18 734.22
  Q 671.87 788.30 601.09 821.61
  C 586.99 828.24 569.42 834.34 555.55 838.56
  Q 543.31 842.28 538.06 843.08
  Q 530.97 844.16 526.37 845.28
  A 0.17 0.17 0.0 0 0 526.43 845.61
  Q 550.61 843.97 573.74 838.99
  Q 665.81 819.18 737.67 759.86
  C 751.78 748.22 764.43 735.78 776.48 722.73
  C 804.81 692.06 827.44 656.03 844.56 617.56
  C 864.58 572.53 875.32 523.58 877.58 474.35
  Q 880.50 416.44 864.74 360.29
  Q 864.25 358.53 863.60 357.93
  L 863.69 356.35
  A 2.20 2.16 -52.0 0 0 863.60 355.55
  Q 856.89 332.14 848.76 312.47
  Q 826.07 257.51 784.76 209.50
  C 765.80 187.45 743.95 168.94 719.82 152.50
  Q 701.79 140.22 672.44 124.56
  A 0.30 0.29 -59.7 0 0 672.05 124.67
  L 672.03 124.71
  A 0.30 0.29 32.9 0 0 672.12 125.11
  Q 676.85 128.16 681.37 131.45
  Q 704.15 148.05 721.98 165.23
  Q 722.73 165.96 728.89 171.50
  Q 731.93 174.23 735.46 178.05
  Q 745.51 188.91 755.17 200.82
  Q 788.70 242.14 809.53 290.67
  Q 823.40 322.97 830.34 355.86
  Q 830.57 356.97 830.94 357.96
  Z"
/>
<path fill="#2d2e2e" d="
  M 811.93 357.96
  L 779.27 358.00
  Q 779.13 357.07 778.85 356.27
  Q 778.47 355.14 778.36 354.57
  Q 777.15 348.47 774.65 340.86
  C 763.56 307.13 748.85 275.30 728.38 246.87
  Q 715.70 229.24 704.78 217.45
  Q 693.65 205.44 677.93 191.57
  Q 649.15 166.20 615.65 149.10
  Q 563.73 122.59 505.26 119.29
  Q 476.16 117.64 450.59 120.62
  Q 395.32 127.04 345.18 152.34
  Q 317.34 166.38 295.96 182.22
  Q 205.01 249.56 167.05 358.01
  L 135.38 357.97
  Q 135.65 356.04 136.09 354.75
  Q 142.92 334.56 144.76 329.76
  Q 157.03 297.72 174.67 268.68
  Q 188.07 246.61 205.01 225.01
  C 230.53 192.48 261.59 164.85 296.43 142.34
  C 312.93 131.68 331.94 122.22 349.47 114.22
  Q 361.28 108.83 380.23 102.56
  Q 439.36 82.99 500.51 84.95
  Q 503.96 85.06 518.67 86.15
  C 548.65 88.36 578.68 95.46 605.09 106.20
  Q 616.94 111.02 636.32 120.99
  Q 672.55 139.62 703.70 168.53
  C 751.29 212.71 787.11 269.98 805.56 333.00
  Q 808.38 342.61 811.93 357.96
  Z"
/>
<path fill="#000000" d="
  M 779.27 358.00
  Q 787.13 390.67 788.73 424.76
  Q 789.89 449.22 788.90 469.25
  Q 785.71 533.83 759.02 593.78
  Q 755.20 602.33 751.12 610.95
  Q 745.11 622.52 738.32 633.84
  C 707.43 685.37 665.30 727.63 614.14 758.88
  C 576.22 782.05 534.71 797.38 490.66 802.15
  Q 480.91 803.20 465.85 803.31
  Q 452.53 803.40 441.01 802.79
  Q 387.73 799.97 338.85 778.39
  C 271.08 748.47 216.50 694.06 182.81 627.48
  Q 178.46 618.89 174.66 610.75
  Q 171.58 603.08 168.90 595.97
  Q 158.20 567.52 153.25 537.55
  Q 138.10 445.82 167.05 358.01
  Q 205.01 249.56 295.96 182.22
  Q 317.34 166.38 345.18 152.34
  Q 395.32 127.04 450.59 120.62
  Q 476.16 117.64 505.26 119.29
  Q 563.73 122.59 615.65 149.10
  Q 649.15 166.20 677.93 191.57
  Q 693.65 205.44 704.78 217.45
  Q 715.70 229.24 728.38 246.87
  C 748.85 275.30 763.56 307.13 774.65 340.86
  Q 777.15 348.47 778.36 354.57
  Q 778.47 355.14 778.85 356.27
  Q 779.13 357.07 779.27 358.00
  Z
  M 186.31 357.92
  C 185.95 358.15 185.57 358.46 185.41 358.90
  Q 182.09 367.81 179.37 377.37
  Q 168.17 416.68 166.23 454.50
  Q 165.04 477.56 166.04 496.49
  Q 168.24 537.96 180.32 577.69
  Q 184.48 591.37 192.90 610.49
  Q 202.93 632.86 214.70 651.04
  C 238.69 688.09 271.67 721.06 309.21 744.46
  Q 364.56 778.95 431.25 786.22
  Q 447.51 787.99 463.18 788.03
  C 469.56 788.05 475.28 787.30 482.43 786.77
  Q 490.10 786.20 496.80 785.18
  C 541.12 778.45 583.13 761.22 620.02 736.30
  Q 692.06 687.65 732.47 610.54
  Q 736.60 603.03 741.86 591.38
  Q 764.09 542.15 770.30 489.52
  Q 778.29 421.69 761.70 357.97
  Q 756.16 338.64 753.83 332.19
  Q 740.73 295.97 719.56 262.71
  C 693.27 221.42 655.43 187.89 612.27 165.04
  Q 594.41 155.58 572.25 147.99
  C 564.48 145.33 554.74 143.22 545.33 140.63
  Q 540.84 139.39 524.69 136.98
  Q 513.96 134.92 504.51 134.27
  Q 445.81 130.24 391.27 149.39
  C 353.59 162.62 317.54 182.81 287.02 209.26
  Q 217.57 269.44 186.32 355.78
  Q 186.02 356.60 186.31 357.92
  Z"
/>
<path fill="#1b1b1b" d="
  M 863.60 357.93
  L 831.73 358.07
  L 830.94 357.96
  Q 830.57 356.97 830.34 355.86
  Q 823.40 322.97 809.53 290.67
  Q 788.70 242.14 755.17 200.82
  Q 745.51 188.91 735.46 178.05
  Q 731.93 174.23 728.89 171.50
  Q 722.73 165.96 721.98 165.23
  Q 704.15 148.05 681.37 131.45
  Q 676.85 128.16 672.12 125.11
  A 0.30 0.29 32.9 0 1 672.03 124.71
  L 672.05 124.67
  A 0.30 0.29 -59.7 0 1 672.44 124.56
  Q 701.79 140.22 719.82 152.50
  C 743.95 168.94 765.80 187.45 784.76 209.50
  Q 826.07 257.51 848.76 312.47
  Q 856.89 332.14 863.60 355.55
  A 2.20 2.16 -52.0 0 1 863.69 356.35
  L 863.60 357.93
  Z"
/>
<path fill="#1b1b1b" d="
  M 524.69 136.98
  Q 529.58 139.51 534.48 140.22
  Q 545.16 141.75 548.09 142.44
  A 0.23 0.22 19.8 0 1 548.24 142.75
  L 548.00 143.29
  A 0.04 0.04 0.0 0 1 547.96 143.32
  Q 539.55 142.18 530.00 141.88
  C 503.86 141.07 476.09 142.13 450.98 147.81
  Q 415.86 155.74 388.23 168.56
  Q 345.59 188.36 309.16 220.69
  Q 280.48 246.14 260.85 272.48
  Q 254.61 280.86 247.72 291.44
  Q 237.19 307.62 235.44 310.95
  Q 222.87 334.88 215.43 354.49
  Q 214.90 355.88 216.04 356.37
  A 0.51 0.50 -65.1 0 1 216.29 357.06
  Q 216.05 357.53 215.53 357.97
  Q 214.21 357.95 213.88 358.14
  L 186.70 358.02
  Q 186.50 358.02 186.31 357.92
  Q 186.02 356.60 186.32 355.78
  Q 217.57 269.44 287.02 209.26
  C 317.54 182.81 353.59 162.62 391.27 149.39
  Q 445.81 130.24 504.51 134.27
  Q 513.96 134.92 524.69 136.98
  Z"
/>
<path fill="#2d2e2e" d="
  M 524.69 136.98
  Q 540.84 139.39 545.33 140.63
  C 554.74 143.22 564.48 145.33 572.25 147.99
  Q 594.41 155.58 612.27 165.04
  C 655.43 187.89 693.27 221.42 719.56 262.71
  Q 740.73 295.97 753.83 332.19
  Q 756.16 338.64 761.70 357.97
  Q 670.60 357.97 579.75 358.00
  Q 577.27 358.00 575.26 356.95
  C 550.91 332.63 518.65 319.02 484.46 318.94
  C 464.39 318.90 443.27 322.86 424.98 331.52
  Q 402.95 341.94 385.58 358.01
  L 215.53 357.97
  Q 216.05 357.53 216.29 357.06
  A 0.51 0.50 -65.1 0 0 216.04 356.37
  Q 214.90 355.88 215.43 354.49
  Q 222.87 334.88 235.44 310.95
  Q 237.19 307.62 247.72 291.44
  Q 254.61 280.86 260.85 272.48
  Q 280.48 246.14 309.16 220.69
  Q 345.59 188.36 388.23 168.56
  Q 415.86 155.74 450.98 147.81
  C 476.09 142.13 503.86 141.07 530.00 141.88
  Q 539.55 142.18 547.96 143.32
  A 0.04 0.04 0.0 0 0 548.00 143.29
  L 548.24 142.75
  A 0.23 0.22 19.8 0 0 548.09 142.44
  Q 545.16 141.75 534.48 140.22
  Q 529.58 139.51 524.69 136.98
  Z"
/>
<path fill="#000000" d="
  M 575.26 356.95
  Q 576.54 358.60 581.96 364.77
  Q 589.01 372.80 594.75 383.47
  Q 613.85 418.96 612.14 459.49
  Q 611.40 477.21 607.20 492.22
  C 592.71 544.03 551.42 586.66 498.25 598.50
  Q 462.74 606.42 425.94 593.78
  C 389.51 581.28 361.45 552.73 348.07 516.94
  C 333.28 477.41 336.59 433.01 356.59 396.07
  Q 367.68 375.57 385.58 358.01
  Q 402.95 341.94 424.98 331.52
  C 443.27 322.86 464.39 318.90 484.46 318.94
  C 518.65 319.02 550.91 332.63 575.26 356.95
  Z
  M 367.24 520.98
  C 372.90 532.67 381.22 545.36 391.35 554.75
  Q 416.24 577.83 449.22 584.08
  Q 466.86 587.42 482.24 585.40
  Q 504.33 582.50 526.18 570.52
  Q 546.16 559.57 562.15 541.14
  Q 589.02 510.16 594.49 467.72
  Q 598.00 440.49 589.70 414.03
  C 578.43 378.09 550.53 348.94 513.73 339.79
  C 488.88 333.61 462.54 334.91 438.87 343.94
  C 369.57 370.38 334.16 452.74 367.24 520.98
  Z"
/>
<path fill="#2d2e2e" d="
  M 391.35 554.75
  C 381.22 545.36 372.90 532.67 367.24 520.98
  C 334.16 452.74 369.57 370.38 438.87 343.94
  C 462.54 334.91 488.88 333.61 513.73 339.79
  C 550.53 348.94 578.43 378.09 589.70 414.03
  Q 598.00 440.49 594.49 467.72
  Q 589.02 510.16 562.15 541.14
  Q 546.16 559.57 526.18 570.52
  Q 504.33 582.50 482.24 585.40
  Q 466.86 587.42 449.22 584.08
  Q 416.24 577.83 391.35 554.75
  Z
  M 410.09 515.24
  Q 429.98 540.55 463.43 544.26
  C 470.92 545.09 480.17 544.24 487.75 542.74
  C 507.56 538.85 525.49 526.06 537.84 510.36
  Q 546.65 499.16 550.39 487.17
  C 560.38 455.19 554.71 417.27 528.25 394.93
  C 516.37 384.91 501.93 379.95 486.49 377.77
  C 471.41 375.63 455.12 379.07 441.75 385.66
  C 418.73 396.99 400.85 419.68 394.43 444.38
  C 388.07 468.84 394.60 495.54 410.09 515.24
  Z"
/>
<path fill="#c72026" d="
  M 761.70 357.97
  Q 778.29 421.69 770.30 489.52
  Q 764.09 542.15 741.86 591.38
  Q 736.60 603.03 732.47 610.54
  Q 730.94 611.06 729.59 611.06
  Q 563.17 611.13 396.75 610.87
  Q 283.06 610.69 239.00 610.61
  Q 223.62 610.59 213.94 610.87
  Q 213.06 608.25 212.03 605.53
  Q 200.06 573.97 195.53 540.01
  C 193.13 522.06 191.07 501.91 191.48 482.53
  Q 191.82 466.22 192.19 461.63
  Q 195.01 426.21 202.77 394.26
  Q 206.81 377.60 213.88 358.14
  Q 214.21 357.95 215.53 357.97
  L 385.58 358.01
  Q 367.68 375.57 356.59 396.07
  C 336.59 433.01 333.28 477.41 348.07 516.94
  C 361.45 552.73 389.51 581.28 425.94 593.78
  Q 462.74 606.42 498.25 598.50
  C 551.42 586.66 592.71 544.03 607.20 492.22
  Q 611.40 477.21 612.14 459.49
  Q 613.85 418.96 594.75 383.47
  Q 589.01 372.80 581.96 364.77
  Q 576.54 358.60 575.26 356.95
  Q 577.27 358.00 579.75 358.00
  Q 670.60 357.97 761.70 357.97
  Z
  M 489.40 602.00
  A 0.21 0.20 -1.4 0 0 489.62 602.20
  Q 506.44 601.49 520.98 596.96
  Q 553.63 586.81 578.41 561.66
  Q 585.64 554.32 588.97 549.94
  Q 611.44 520.39 617.36 483.79
  Q 619.39 471.22 619.29 459.50
  C 619.07 432.85 612.25 406.36 596.99 383.86
  A 0.34 0.34 0.0 0 0 596.70 383.70
  L 596.26 383.70
  A 0.43 0.43 0.0 0 0 595.91 384.38
  Q 600.08 390.26 603.25 398.44
  Q 609.02 413.30 611.37 428.26
  Q 615.36 453.63 611.33 476.99
  Q 610.88 479.55 609.79 485.84
  Q 609.21 489.19 607.64 494.57
  Q 599.29 523.37 580.71 546.82
  C 577.93 550.33 575.18 552.84 572.50 556.26
  Q 570.55 558.75 564.37 564.60
  Q 558.70 569.96 546.32 578.78
  Q 533.05 588.23 513.56 595.27
  Q 508.72 597.02 499.38 599.77
  C 496.05 600.76 492.28 601.04 489.47 601.65
  A 0.09 0.08 86.4 0 0 489.40 601.74
  L 489.40 602.00
  Z"
/>
<path fill="#c72026" d="
  M 167.05 358.01
  Q 138.10 445.82 153.25 537.55
  Q 158.20 567.52 168.90 595.97
  Q 171.58 603.08 174.66 610.75
  Q 160.49 610.97 146.75 610.93
  Q 144.09 610.92 141.64 610.09
  Q 135.37 593.61 132.53 583.44
  Q 101.18 471.02 134.21 359.52
  Q 134.61 358.19 135.38 357.97
  L 167.05 358.01
  Z"
/>
<path fill="#c72026" d="
  M 779.27 358.00
  L 811.93 357.96
  Q 812.79 362.72 813.82 368.05
  Q 825.76 429.60 818.17 494.00
  Q 810.86 555.99 785.73 610.97
  L 751.12 610.95
  Q 755.20 602.33 759.02 593.78
  Q 785.71 533.83 788.90 469.25
  Q 789.89 449.22 788.73 424.76
  Q 787.13 390.67 779.27 358.00
  Z"
/>
<path fill="#7e0b11" d="
  M 863.60 357.93
  Q 864.25 358.53 864.74 360.29
  Q 880.50 416.44 877.58 474.35
  Q 875.85 488.77 874.22 503.11
  Q 872.26 520.31 870.09 531.76
  Q 866.91 548.53 863.28 562.04
  Q 851.67 605.33 829.66 645.88
  Q 827.93 649.08 819.28 664.26
  Q 814.44 672.75 800.77 691.78
  Q 799.68 693.29 798.64 694.81
  Q 797.66 696.27 796.41 697.73
  Q 793.03 701.67 789.88 706.07
  A 4.78 4.78 0.0 0 1 789.17 706.87
  Q 786.96 708.89 785.31 711.65
  A 3.14 2.99 84.8 0 1 784.81 712.28
  Q 782.55 714.46 780.69 716.70
  Q 777.49 720.56 776.77 721.29
  C 768.74 729.42 765.19 733.91 757.72 740.53
  Q 757.34 740.87 747.75 749.99
  Q 744.66 752.93 726.10 767.84
  Q 724.00 769.52 715.20 775.85
  C 693.14 791.71 669.14 805.12 643.40 816.11
  Q 619.11 826.47 585.81 835.35
  Q 577.45 837.58 568.00 839.16
  Q 559.33 840.62 549.97 842.13
  A 0.39 0.38 -10.7 0 1 549.54 841.84
  L 549.54 841.83
  A 0.37 0.37 0.0 0 1 549.80 841.39
  Q 565.06 836.86 580.60 831.11
  C 603.51 822.63 624.76 811.28 645.49 798.48
  Q 669.26 783.81 690.52 766.03
  Q 699.60 758.43 700.04 758.03
  C 705.08 753.28 710.54 748.76 714.77 744.41
  Q 744.45 713.91 764.57 684.84
  Q 774.94 669.85 787.64 647.85
  Q 794.04 636.78 798.71 626.75
  Q 805.76 611.64 808.54 605.05
  Q 819.06 580.14 827.08 549.86
  Q 829.13 542.13 832.41 527.21
  Q 835.04 515.29 838.38 488.85
  C 839.26 481.95 839.27 475.46 840.02 468.41
  Q 840.57 463.23 840.74 453.07
  Q 841.17 428.83 839.48 409.77
  Q 837.38 386.06 832.50 361.23
  Q 832.44 360.94 832.45 359.52
  Q 832.46 358.50 831.73 358.07
  L 863.60 357.93
  Z"
/>
<path fill="#c72026" d="
  M 186.31 357.92
  Q 186.50 358.02 186.70 358.02
  Q 186.81 358.14 186.91 358.23
  A 0.37 0.36 34.8 0 1 186.99 358.67
  Q 185.06 362.50 183.98 365.75
  Q 179.77 378.54 175.61 395.78
  Q 174.22 401.57 172.49 411.13
  Q 170.16 424.05 169.84 426.57
  Q 167.98 440.84 166.90 458.44
  Q 166.26 468.91 167.02 496.02
  Q 167.38 509.09 171.08 533.51
  Q 172.77 544.63 175.42 555.50
  Q 179.21 571.03 181.14 577.16
  Q 183.46 584.52 190.01 601.82
  C 190.92 604.22 192.51 607.31 193.35 610.23
  Q 193.01 610.37 192.90 610.49
  Q 184.48 591.37 180.32 577.69
  Q 168.24 537.96 166.04 496.49
  Q 165.04 477.56 166.23 454.50
  Q 168.17 416.68 179.37 377.37
  Q 182.09 367.81 185.41 358.90
  C 185.57 358.46 185.95 358.15 186.31 357.92
  Z"
/>
<path fill="#7e0b11" d="
  M 213.88 358.14
  Q 206.81 377.60 202.77 394.26
  Q 195.01 426.21 192.19 461.63
  Q 191.82 466.22 191.48 482.53
  C 191.07 501.91 193.13 522.06 195.53 540.01
  Q 200.06 573.97 212.03 605.53
  Q 213.06 608.25 213.94 610.87
  Q 200.61 611.19 194.75 611.02
  Q 193.90 611.00 193.35 610.23
  C 192.51 607.31 190.92 604.22 190.01 601.82
  Q 183.46 584.52 181.14 577.16
  Q 179.21 571.03 175.42 555.50
  Q 172.77 544.63 171.08 533.51
  Q 167.38 509.09 167.02 496.02
  Q 166.26 468.91 166.90 458.44
  Q 167.98 440.84 169.84 426.57
  Q 170.16 424.05 172.49 411.13
  Q 174.22 401.57 175.61 395.78
  Q 179.77 378.54 183.98 365.75
  Q 185.06 362.50 186.99 358.67
  A 0.37 0.36 34.8 0 0 186.91 358.23
  Q 186.81 358.14 186.70 358.02
  L 213.88 358.14
  Z"
/>
<path fill="#c72026" d="
  M 831.73 358.07
  Q 832.46 358.50 832.45 359.52
  Q 832.44 360.94 832.50 361.23
  Q 837.38 386.06 839.48 409.77
  Q 841.17 428.83 840.74 453.07
  Q 840.57 463.23 840.02 468.41
  C 839.27 475.46 839.26 481.95 838.38 488.85
  Q 835.04 515.29 832.41 527.21
  Q 829.13 542.13 827.08 549.86
  Q 819.06 580.14 808.54 605.05
  Q 805.76 611.64 798.71 626.75
  Q 794.04 636.78 787.64 647.85
  Q 774.94 669.85 764.57 684.84
  Q 744.45 713.91 714.77 744.41
  C 710.54 748.76 705.08 753.28 700.04 758.03
  Q 699.60 758.43 690.52 766.03
  Q 669.26 783.81 645.49 798.48
  C 624.76 811.28 603.51 822.63 580.60 831.11
  Q 565.06 836.86 549.80 841.39
  A 0.37 0.37 0.0 0 0 549.54 841.83
  L 549.54 841.84
  A 0.39 0.38 -10.7 0 0 549.97 842.13
  Q 559.33 840.62 568.00 839.16
  Q 577.45 837.58 585.81 835.35
  Q 619.11 826.47 643.40 816.11
  C 669.14 805.12 693.14 791.71 715.20 775.85
  Q 724.00 769.52 726.10 767.84
  Q 744.66 752.93 747.75 749.99
  Q 757.34 740.87 757.72 740.53
  C 765.19 733.91 768.74 729.42 776.77 721.29
  Q 777.49 720.56 780.69 716.70
  Q 782.55 714.46 784.81 712.28
  A 3.14 2.99 84.8 0 0 785.31 711.65
  Q 786.96 708.89 789.17 706.87
  A 4.78 4.78 0.0 0 0 789.88 706.07
  Q 793.03 701.67 796.41 697.73
  Q 797.66 696.27 798.64 694.81
  Q 799.68 693.29 800.77 691.78
  Q 814.44 672.75 819.28 664.26
  Q 827.93 649.08 829.66 645.88
  Q 851.67 605.33 863.28 562.04
  Q 866.91 548.53 870.09 531.76
  Q 872.26 520.31 874.22 503.11
  Q 875.85 488.77 877.58 474.35
  C 875.32 523.58 864.58 572.53 844.56 617.56
  C 827.44 656.03 804.81 692.06 776.48 722.73
  C 764.43 735.78 751.78 748.22 737.67 759.86
  Q 665.81 819.18 573.74 838.99
  Q 550.61 843.97 526.43 845.61
  A 0.17 0.17 0.0 0 1 526.37 845.28
  Q 530.97 844.16 538.06 843.08
  Q 543.31 842.28 555.55 838.56
  C 569.42 834.34 586.99 828.24 601.09 821.61
  Q 671.87 788.30 723.18 734.22
  C 759.41 696.04 789.22 650.08 809.02 601.25
  Q 838.46 528.64 839.82 448.74
  Q 840.38 415.81 835.11 382.53
  Q 833.17 370.25 830.94 357.96
  L 831.73 358.07
  Z"
/>
<path fill="#000000" d="
  M 410.09 515.24
  C 394.60 495.54 388.07 468.84 394.43 444.38
  C 400.85 419.68 418.73 396.99 441.75 385.66
  C 455.12 379.07 471.41 375.63 486.49 377.77
  C 501.93 379.95 516.37 384.91 528.25 394.93
  C 554.71 417.27 560.38 455.19 550.39 487.17
  Q 546.65 499.16 537.84 510.36
  C 525.49 526.06 507.56 538.85 487.75 542.74
  C 480.17 544.24 470.92 545.09 463.43 544.26
  Q 429.98 540.55 410.09 515.24
  Z
  M 452.36 524.79
  A 0.29 0.29 0.0 0 0 452.65 524.32
  Q 438.02 506.01 436.34 482.72
  Q 435.14 466.24 439.30 451.75
  C 444.91 432.17 458.50 414.74 475.03 403.29
  C 478.64 400.78 483.20 398.72 486.67 397.17
  A 2.39 2.33 6.4 0 0 487.57 396.47
  Q 487.99 395.92 489.27 395.86
  A 1.78 1.76 -72.6 0 0 490.63 395.14
  L 490.68 395.06
  A 0.49 0.49 0.0 0 0 490.34 394.29
  Q 480.64 393.27 471.50 393.72
  C 445.37 395.00 423.93 415.38 414.02 438.82
  Q 409.70 449.03 409.43 460.27
  Q 408.76 489.28 427.46 511.27
  A 8.36 8.12 -0.8 0 0 428.86 512.59
  Q 435.75 517.76 444.71 522.08
  Q 448.80 524.06 452.36 524.79
  Z
  M 532.40 484.55
  Q 535.41 476.60 535.91 471.99
  Q 536.07 470.55 536.85 467.34
  A 3.39 3.26 53.3 0 0 536.93 466.71
  Q 537.38 454.47 536.91 449.78
  C 535.65 436.97 527.22 411.67 511.26 410.01
  Q 504.84 409.34 497.83 411.56
  Q 486.43 415.17 477.24 423.24
  Q 459.40 438.89 455.10 461.80
  Q 453.82 468.64 454.00 474.31
  Q 454.18 479.78 455.49 486.81
  Q 458.34 502.26 467.81 513.88
  Q 475.32 523.10 486.41 523.16
  C 491.46 523.19 497.55 521.26 501.89 518.87
  C 515.59 511.33 526.84 499.21 532.40 484.55
  Z"
/>
<path fill="#7e0b11" d="
  M 489.47 601.65
  C 492.28 601.04 496.05 600.76 499.38 599.77
  Q 508.72 597.02 513.56 595.27
  Q 533.05 588.23 546.32 578.78
  Q 558.70 569.96 564.37 564.60
  Q 570.55 558.75 572.50 556.26
  C 575.18 552.84 577.93 550.33 580.71 546.82
  Q 599.29 523.37 607.64 494.57
  Q 609.21 489.19 609.79 485.84
  Q 610.88 479.55 611.33 476.99
  Q 615.36 453.63 611.37 428.26
  Q 609.02 413.30 603.25 398.44
  Q 600.08 390.26 595.91 384.38
  A 0.43 0.43 0.0 0 1 596.26 383.70
  L 596.70 383.70
  A 0.34 0.34 0.0 0 1 596.99 383.86
  C 612.25 406.36 619.07 432.85 619.29 459.50
  Q 619.39 471.22 617.36 483.79
  Q 611.44 520.39 588.97 549.94
  Q 585.64 554.32 578.41 561.66
  Q 553.63 586.81 520.98 596.96
  Q 506.44 601.49 489.62 602.20
  A 0.21 0.20 -1.4 0 1 489.40 602.00
  L 489.40 601.74
  A 0.09 0.08 86.4 0 1 489.47 601.65
  Z"
/>
<path fill="#1b1b1b" d="
  M 452.36 524.79
  Q 448.80 524.06 444.71 522.08
  Q 435.75 517.76 428.86 512.59
  A 8.36 8.12 -0.8 0 1 427.46 511.27
  Q 408.76 489.28 409.43 460.27
  Q 409.70 449.03 414.02 438.82
  C 423.93 415.38 445.37 395.00 471.50 393.72
  Q 480.64 393.27 490.34 394.29
  A 0.49 0.49 0.0 0 1 490.68 395.06
  L 490.63 395.14
  A 1.78 1.76 -72.6 0 1 489.27 395.86
  Q 487.99 395.92 487.57 396.47
  A 2.39 2.33 6.4 0 1 486.67 397.17
  C 483.20 398.72 478.64 400.78 475.03 403.29
  C 458.50 414.74 444.91 432.17 439.30 451.75
  Q 435.14 466.24 436.34 482.72
  Q 438.02 506.01 452.65 524.32
  A 0.29 0.29 0.0 0 1 452.36 524.79
  Z"
/>
<path fill="#f3c42a" d="
  M 174.66 610.75
  Q 178.46 618.89 182.81 627.48
  C 216.50 694.06 271.08 748.47 338.85 778.39
  Q 387.73 799.97 441.01 802.79
  Q 452.53 803.40 465.85 803.31
  Q 480.91 803.20 490.66 802.15
  C 534.71 797.38 576.22 782.05 614.14 758.88
  C 665.30 727.63 707.43 685.37 738.32 633.84
  Q 745.11 622.52 751.12 610.95
  L 785.73 610.97
  Q 766.59 652.42 740.86 687.11
  C 726.45 706.54 708.13 725.70 688.79 743.28
  C 669.00 761.29 646.60 777.11 622.95 790.68
  Q 564.58 824.17 498.26 833.25
  C 490.35 834.34 478.93 835.77 469.54 836.11
  Q 453.77 836.68 440.28 836.16
  Q 433.30 835.89 428.76 835.38
  C 423.48 834.78 418.70 834.52 413.43 833.72
  C 355.30 824.91 300.21 800.63 254.02 764.57
  C 207.16 727.99 170.67 679.60 147.39 624.82
  Q 144.38 617.73 141.64 610.09
  Q 144.09 610.92 146.75 610.93
  Q 160.49 610.97 174.66 610.75
  Z"
/>
<path fill="#f3c42a" d="
  M 193.35 610.23
  Q 193.90 611.00 194.75 611.02
  Q 200.61 611.19 213.94 610.87
  Q 223.62 610.59 239.00 610.61
  Q 283.06 610.69 396.75 610.87
  Q 563.17 611.13 729.59 611.06
  Q 730.94 611.06 732.47 610.54
  Q 692.06 687.65 620.02 736.30
  C 583.13 761.22 541.12 778.45 496.80 785.18
  Q 490.10 786.20 482.43 786.77
  C 475.28 787.30 469.56 788.05 463.18 788.03
  Q 447.51 787.99 431.25 786.22
  Q 364.56 778.95 309.21 744.46
  C 271.67 721.06 238.69 688.09 214.70 651.04
  Q 202.93 632.86 192.90 610.49
  Q 193.01 610.37 193.35 610.23
  Z
  M 353.92 765.43
  A 0.27 0.27 0.0 0 0 353.80 765.07
  C 340.34 757.72 329.00 749.53 315.96 740.20
  Q 304.65 732.10 295.24 724.03
  Q 241.71 678.16 214.36 612.36
  A 1.02 1.02 0.0 0 0 213.42 611.73
  L 195.53 611.73
  A 0.54 0.53 -12.1 0 0 195.04 612.48
  C 214.57 655.91 245.02 694.09 282.30 724.05
  C 296.80 735.71 312.19 745.44 328.61 754.13
  Q 335.42 757.74 353.54 765.58
  A 0.29 0.28 -65.3 0 0 353.91 765.44
  L 353.92 765.43
  Z"
/>
<path fill="#b38f1b" d="
  M 353.92 765.43
  L 353.91 765.44
  A 0.29 0.28 -65.3 0 1 353.54 765.58
  Q 335.42 757.74 328.61 754.13
  C 312.19 745.44 296.80 735.71 282.30 724.05
  C 245.02 694.09 214.57 655.91 195.04 612.48
  A 0.54 0.53 -12.1 0 1 195.53 611.73
  L 213.42 611.73
  A 1.02 1.02 0.0 0 1 214.36 612.36
  Q 241.71 678.16 295.24 724.03
  Q 304.65 732.10 315.96 740.20
  C 329.00 749.53 340.34 757.72 353.80 765.07
  A 0.27 0.27 0.0 0 1 353.92 765.43
  Z"
/>
</svg>
