<?xml version="1.0" encoding="UTF-8" standalone="no"?>
<!DOCTYPE svg PUBLIC "-//W3C//DTD SVG 1.1//EN" "http://www.w3.org/Graphics/SVG/1.1/DTD/svg11.dtd">
<svg xmlns="http://www.w3.org/2000/svg" version="1.1" viewBox="0.00 0.00 1024.00 1024.00">
<g stroke-width="2.00" fill="none" stroke-linecap="butt">
<path stroke="#7e7c76" vector-effect="non-scaling-stroke" d="
  M 268.93 188.44
  Q 211.09 239.93 175.07 309.35
  C 171.91 315.44 168.95 322.40 165.85 328.86
  Q 162.49 335.87 159.35 343.65
  C 140.16 391.16 129.94 441.61 129.93 492.58
  Q 129.92 510.13 130.19 516.23
  Q 133.47 591.50 164.87 660.14
  Q 181.57 696.63 207.38 729.90
  Q 249.78 784.54 310.65 815.17
  Q 348.47 834.19 387.68 841.26
  Q 428.86 848.69 469.01 844.77
  C 524.93 839.30 577.91 818.67 624.69 787.38
  Q 680.84 749.81 721.31 698.06
  C 755.94 653.77 781.44 602.31 795.85 548.21
  Q 804.44 515.94 806.81 484.74
  Q 807.51 475.47 808.22 466.19
  Q 809.04 455.51 809.04 447.64
  Q 809.07 411.09 802.96 376.72
  Q 797.42 345.57 785.97 314.00
  Q 761.12 245.55 711.63 192.38
  C 668.55 146.09 612.43 114.55 550.38 103.65
  Q 512.70 97.04 480.51 99.18
  Q 403.57 104.30 334.62 142.15
  Q 298.92 161.75 268.93 188.44"
/>
<path stroke="#1e3b49" vector-effect="non-scaling-stroke" d="
  M 536.06 854.55
  Q 538.92 855.46 541.77 854.34"
/>
<path stroke="#304a59" vector-effect="non-scaling-stroke" d="
  M 541.77 854.34
  Q 630.95 841.87 703.85 789.58
  Q 739.28 764.16 765.63 733.41
  Q 779.26 717.51 785.29 709.29
  C 830.58 647.60 858.62 574.65 864.23 498.37
  Q 867.62 452.22 861.80 409.96
  C 854.55 357.30 837.25 307.01 809.75 261.75
  Q 778.24 209.89 730.95 173.07
  Q 713.76 159.69 684.67 143.24
  A 0.25 0.25 0.0 0 0 684.34 143.59
  Q 684.42 143.71 684.66 143.86
  C 688.06 146.00 694.38 150.34 699.15 154.42
  Q 710.23 163.89 712.58 166.17
  Q 730.11 183.18 745.38 201.87
  C 792.70 259.78 820.24 330.83 827.13 405.76
  C 833.97 480.18 822.91 555.06 790.89 622.69
  Q 767.66 671.76 738.96 708.48
  Q 717.68 735.70 695.63 756.88
  Q 653.74 797.11 600.37 826.11
  Q 579.62 837.39 558.13 845.37
  Q 557.64 845.55 539.25 851.79
  C 532.96 853.92 527.09 854.81 520.99 856.53
  A 0.23 0.22 35.0 0 0 521.07 856.97
  Q 529.22 856.49 536.06 854.55"
/>
<path stroke="#4d85a1" vector-effect="non-scaling-stroke" d="
  M 541.77 854.34
  Q 541.49 854.46 541.21 854.20
  A 0.37 0.37 0.0 0 1 541.41 853.57
  C 575.69 848.49 609.88 838.95 641.18 824.72
  Q 713.87 791.68 766.38 731.15
  Q 785.30 709.34 800.76 685.03
  Q 825.10 646.78 840.44 604.48
  Q 858.49 554.72 862.97 502.19
  Q 863.33 498.04 863.47 493.29
  C 863.69 485.87 864.40 478.06 864.33 471.07
  Q 864.31 469.11 864.32 457.69
  Q 864.32 450.97 863.99 444.32
  Q 861.87 401.44 851.57 363.39
  Q 843.39 333.14 833.93 311.04
  Q 824.25 288.46 812.01 267.48
  Q 780.49 213.46 732.02 175.26
  Q 720.63 166.28 709.79 159.53
  Q 702.71 155.13 701.38 153.99
  A 0.23 0.23 0.0 0 0 701.04 154.03
  L 700.77 154.42
  A 0.23 0.23 0.0 0 0 700.83 154.74
  Q 704.04 156.92 708.20 160.79
  Q 717.53 169.47 720.71 172.79
  C 738.57 191.43 754.06 209.74 767.68 230.54
  Q 812.10 298.36 824.89 379.62
  Q 827.13 393.80 828.05 403.98
  Q 831.34 440.08 829.08 477.00
  Q 825.48 536.00 805.14 591.16
  Q 783.34 650.25 742.86 705.13
  Q 726.62 727.14 701.11 752.95
  C 689.27 764.93 675.79 776.29 663.62 785.84
  Q 627.05 814.58 583.76 835.45
  Q 567.63 843.23 560.25 845.52
  Q 548.14 849.27 536.06 854.55"
/>
<path stroke="#f8c7ca" vector-effect="non-scaling-stroke" d="
  M 164.32 334.88
  A 0.46 0.45 -77.5 0 0 164.73 335.53
  L 190.39 335.53
  A 1.90 1.88 -77.4 0 0 192.10 334.43
  Q 206.80 302.74 227.16 274.60
  Q 242.88 252.89 255.71 239.19
  Q 264.14 230.20 274.13 220.38
  Q 306.40 188.69 345.54 167.59
  Q 377.32 150.45 410.78 140.86
  Q 432.09 134.74 460.28 131.43
  C 464.90 130.89 469.43 131.14 474.18 130.64
  C 482.72 129.75 492.03 129.85 499.96 130.49
  Q 506.31 131.01 512.25 131.09
  C 515.13 131.12 517.31 131.89 520.47 131.98
  Q 521.99 132.02 526.57 132.77
  Q 543.85 135.59 547.87 136.48
  Q 568.09 140.97 589.03 148.76
  Q 612.62 157.54 636.37 172.16
  Q 651.60 181.53 663.20 191.31
  Q 674.83 201.12 676.33 202.52
  C 685.10 210.66 693.55 219.01 701.46 228.43
  Q 737.73 271.63 757.93 325.80
  Q 759.86 330.96 760.61 333.83
  A 2.18 2.17 82.5 0 0 762.71 335.45
  L 790.83 335.45
  A 0.77 0.77 0.0 0 0 791.57 334.46
  Q 772.03 268.61 729.44 214.80
  Q 725.84 210.24 718.79 201.97
  Q 712.42 194.50 707.52 189.65
  C 701.11 183.31 695.55 177.34 688.43 171.29
  Q 681.01 164.99 677.53 162.23
  Q 640.73 133.01 596.74 117.13
  C 587.65 113.85 576.07 110.45 568.47 108.57
  Q 542.20 102.06 508.76 100.17
  Q 493.23 99.29 476.75 100.66
  Q 471.22 101.12 471.05 101.14
  Q 448.27 103.66 436.50 106.02
  C 371.16 119.13 311.52 150.01 262.40 195.67
  Q 224.49 230.92 195.12 276.62
  Q 182.09 296.88 172.51 317.22
  Q 170.13 322.28 164.32 334.88"
/>
<path stroke="#7e7c76" vector-effect="non-scaling-stroke" d="
  M 708.10 665.88
  Q 753.75 602.14 771.37 521.92
  Q 775.05 505.17 777.43 478.89
  Q 778.07 471.81 778.06 469.57
  Q 778.04 465.51 778.56 460.24
  C 779.10 454.74 778.87 450.09 778.89 444.26
  Q 778.92 439.34 777.56 420.77
  Q 774.74 382.21 762.05 341.46
  C 740.89 273.56 697.59 212.03 637.92 174.34
  C 597.16 148.58 547.94 133.04 498.30 131.75
  Q 483.91 131.38 472.51 131.97
  Q 431.88 134.07 393.57 147.56
  Q 357.57 160.24 325.31 180.90
  Q 295.02 200.30 266.71 229.24
  Q 191.90 305.75 166.56 411.03
  C 160.59 435.82 157.01 464.27 156.88 491.34
  Q 156.79 510.83 157.06 516.50
  Q 157.76 531.34 160.18 549.27
  C 165.95 592.11 180.81 633.69 202.03 671.24
  Q 221.13 705.05 249.01 733.48
  C 254.87 739.46 261.54 745.12 267.87 750.60
  C 310.65 787.65 364.53 809.44 420.75 813.75
  Q 425.34 814.11 436.75 814.65
  C 444.74 815.02 451.01 814.46 459.75 813.95
  Q 483.76 812.55 509.39 806.13
  Q 562.59 792.79 608.20 762.45
  Q 666.86 723.43 708.10 665.88"
/>
<path stroke="#f8c7ca" vector-effect="non-scaling-stroke" d="
  M 146.95 609.71
  Q 148.20 613.62 149.44 617.52
  Q 165.74 668.85 196.13 712.96
  C 201.95 721.41 209.58 730.71 214.68 737.38
  A 2.57 2.56 71.2 0 0 216.71 738.38
  L 251.69 738.38
  A 0.41 0.41 0.0 0 0 251.99 737.69
  Q 251.38 737.05 250.59 736.56
  A 4.13 4.13 0.0 0 1 249.79 735.92
  Q 219.56 704.86 201.76 672.99
  Q 189.57 651.16 181.41 631.37
  Q 177.80 622.61 172.92 608.52"
/>
<path stroke="#d0e3e9" vector-effect="non-scaling-stroke" d="
  M 172.92 608.52
  Q 162.61 577.75 159.35 552.49
  Q 157.35 537.01 156.42 525.74
  Q 155.29 512.04 155.30 490.32
  C 155.30 483.52 156.42 476.21 156.10 469.84
  A 0.66 0.65 88.1 0 0 155.45 469.22
  L 133.39 469.22
  A 1.69 1.68 87.9 0 0 131.72 471.03
  Q 131.97 474.42 131.87 475.68
  Q 130.97 487.50 130.81 498.78
  C 130.71 506.24 131.77 516.22 131.70 522.67
  Q 131.68 524.77 132.30 529.34
  Q 132.42 530.29 132.91 536.00
  C 135.02 560.91 140.05 585.74 146.95 609.71"
/>
<path stroke="#ccb3c7" vector-effect="non-scaling-stroke" d="
  M 172.92 608.52
  Q 159.95 608.42 147.50 608.37
  Q 146.59 608.37 146.95 609.71"
/>
<path stroke="#f8c7ca" vector-effect="non-scaling-stroke" d="
  M 743.78 608.41
  Q 743.15 608.45 742.76 609.26
  Q 718.73 659.52 682.51 699.52
  Q 663.72 720.26 643.10 737.56
  A 0.40 0.40 0.0 0 0 643.35 738.27
  L 681.72 738.54
  A 0.69 0.61 -48.6 0 0 681.88 738.52
  Q 683.95 738.10 685.27 736.79
  Q 695.35 726.73 701.21 719.95
  C 704.29 716.40 706.74 713.99 709.83 710.27
  Q 730.98 684.82 744.79 662.78
  Q 760.02 638.46 773.55 608.39"
/>
<path stroke="#d0e3e9" vector-effect="non-scaling-stroke" d="
  M 773.55 608.39
  Q 775.67 603.48 777.74 598.52
  Q 797.92 550.32 804.12 498.44
  Q 805.01 490.99 805.03 489.83
  Q 805.05 487.65 805.83 481.20
  Q 806.24 477.78 806.42 469.85
  A 0.52 0.51 1.1 0 0 805.90 469.32
  L 780.32 469.32
  A 1.06 1.06 0.0 0 0 779.26 470.32
  Q 776.81 513.32 764.07 554.60
  Q 755.71 581.69 744.11 606.83
  Q 743.88 607.33 743.78 608.41"
/>
<path stroke="#ccb3c7" vector-effect="non-scaling-stroke" d="
  M 773.55 608.39
  L 743.78 608.41"
/>
<path stroke="#7e7c76" vector-effect="non-scaling-stroke" d="
  M 684.41 241.09
  C 659.56 212.44 627.33 188.06 592.41 173.37
  C 539.92 151.29 481.40 145.87 425.89 159.18
  Q 373.71 171.70 329.85 201.86
  Q 298.69 223.30 274.06 249.80
  C 255.62 269.62 237.64 293.18 223.64 318.06
  Q 215.12 333.21 212.83 337.87
  Q 179.63 405.47 176.21 480.74
  Q 174.47 519.11 180.45 554.96
  Q 188.51 603.35 212.13 648.88
  Q 233.50 690.10 267.46 723.29
  C 307.66 762.59 359.64 787.61 414.90 793.28
  C 421.74 793.98 430.09 794.22 435.34 794.66
  Q 442.14 795.22 450.67 794.66
  Q 465.68 793.68 470.23 793.19
  C 516.57 788.11 561.40 770.08 600.37 743.84
  C 645.65 713.34 684.25 672.47 711.14 625.00
  C 733.80 584.98 750.44 539.73 755.89 494.72
  Q 757.38 482.35 758.59 459.92
  C 759.35 445.55 758.44 430.76 757.32 417.24
  C 751.96 352.44 727.10 290.29 684.41 241.09"
/>
<path stroke="#dddad3" vector-effect="non-scaling-stroke" d="
  M 215.67 335.27
  Q 215.39 335.88 215.08 336.49
  Q 202.38 361.91 194.69 385.64
  Q 186.35 411.37 182.12 437.02
  Q 179.41 453.45 178.57 467.53
  A 0.84 0.84 0.0 0 0 179.41 468.42
  L 202.52 468.42
  A 0.43 0.41 -7.0 0 1 202.93 468.73
  Q 202.98 468.90 202.97 469.16"
/>
<path stroke="#aec6cf" vector-effect="non-scaling-stroke" d="
  M 202.97 469.16
  L 179.03 469.14
  A 1.22 1.22 0.0 0 0 177.81 470.35
  Q 177.74 476.91 177.19 482.77
  C 176.49 490.13 176.96 497.95 176.85 506.43
  Q 176.80 510.42 177.39 517.03
  Q 177.86 522.33 178.26 527.62
  Q 181.38 569.49 195.52 608.78"
/>
<path stroke="#dcb4b7" vector-effect="non-scaling-stroke" d="
  M 195.52 608.78
  Q 211.25 652.22 238.65 689.11
  Q 250.28 704.76 264.46 719.00
  Q 267.31 721.86 269.31 723.70
  Q 272.52 726.65 274.08 728.23
  Q 279.98 734.20 286.84 738.72"
/>
<path stroke="#dddad3" vector-effect="non-scaling-stroke" d="
  M 286.84 738.72
  Q 296.99 746.58 303.42 750.84
  Q 309.04 754.56 322.26 762.22
  Q 331.38 767.51 341.71 771.97
  A 0.17 0.16 -65.1 0 0 341.92 771.89
  L 341.92 771.88
  A 0.16 0.16 0.0 0 0 341.85 771.67
  Q 319.50 759.74 304.72 747.04
  Q 297.03 740.44 294.70 738.64"
/>
<path stroke="#dcb4b7" vector-effect="non-scaling-stroke" d="
  M 294.70 738.64
  L 594.46 738.34"
/>
<path stroke="#f8c7ca" vector-effect="non-scaling-stroke" d="
  M 594.46 738.34
  Q 602.03 738.66 604.23 738.49
  Q 606.36 738.32 607.81 737.30
  Q 624.12 725.79 641.06 710.31
  Q 654.69 697.84 665.14 686.37
  Q 680.60 669.38 694.71 649.22
  Q 706.06 632.99 718.81 608.52"
/>
<path stroke="#d0e3e9" vector-effect="non-scaling-stroke" d="
  M 718.81 608.52
  Q 723.09 599.99 728.39 587.92
  Q 745.51 548.97 752.80 508.13
  Q 754.31 499.66 755.25 489.30
  Q 756.36 477.15 756.81 470.34
  A 1.07 1.06 -88.0 0 0 755.75 469.20
  L 629.37 469.20
  A 1.39 1.39 0.0 0 0 627.98 470.55
  Q 627.44 486.68 623.88 502.20
  Q 611.91 554.30 574.03 592.54
  Q 566.01 600.65 557.11 608.03"
/>
<path stroke="#f8c7ca" vector-effect="non-scaling-stroke" d="
  M 557.11 608.03
  Q 555.31 609.12 553.45 610.49
  Q 533.65 625.03 509.37 633.36
  C 485.65 641.50 458.50 643.11 434.30 638.41
  Q 399.15 631.59 371.63 608.94
  A 1.92 1.88 -11.9 0 0 371.19 608.66
  L 369.88 608.08"
/>
<path stroke="#d0e3e9" vector-effect="non-scaling-stroke" d="
  M 369.88 608.08
  C 365.03 603.15 359.70 598.09 355.60 593.10
  Q 338.75 572.61 329.94 549.08
  Q 315.80 511.35 318.63 470.35
  A 1.08 1.08 0.0 0 0 317.55 469.20
  L 205.51 469.20
  A 0.90 0.89 -13.4 0 0 204.71 470.50
  Q 205.01 471.09 204.85 471.94
  Q 204.15 475.69 203.62 482.50
  C 202.50 496.97 202.64 509.39 202.91 525.25
  Q 203.00 530.51 203.55 535.05
  C 204.04 539.13 203.63 543.57 204.76 547.83
  A 3.51 3.46 -51.3 0 1 204.87 548.91
  Q 204.70 552.41 205.73 556.15
  A 3.26 3.08 39.3 0 1 205.85 557.08
  Q 205.81 558.62 206.12 560.56
  Q 208.28 574.05 210.23 584.04
  Q 212.73 596.84 216.87 608.61"
/>
<path stroke="#f8c7ca" vector-effect="non-scaling-stroke" d="
  M 216.87 608.61
  Q 217.52 608.65 216.04 609.03"
/>
<path stroke="#dcb4b7" vector-effect="non-scaling-stroke" d="
  M 216.04 609.03
  L 215.24 608.25"
/>
<path stroke="#aec6cf" vector-effect="non-scaling-stroke" d="
  M 215.24 608.25
  L 214.98 607.55"
/>
<path stroke="#9cb7bf" vector-effect="non-scaling-stroke" d="
  M 214.98 607.55
  Q 215.11 607.33 215.04 607.10
  Q 203.40 568.29 201.98 527.78"
/>
<path stroke="#aec6cf" vector-effect="non-scaling-stroke" d="
  M 201.98 527.78
  Q 201.33 509.24 202.15 490.73
  Q 202.32 486.76 203.03 479.85
  Q 203.58 474.42 203.92 468.95"
/>
<path stroke="#dddad3" vector-effect="non-scaling-stroke" d="
  M 203.92 468.95
  Q 206.30 453.70 209.68 438.45
  Q 221.55 384.76 247.95 336.98
  Q 248.09 336.73 248.10 336.70
  A 0.25 0.25 0.0 0 0 247.68 336.46
  Q 246.65 337.51 245.75 336.92
  A 2.18 2.17 61.2 0 0 244.52 336.56
  Q 229.51 336.70 216.50 336.38
  Q 216.04 336.37 216.04 335.58"
/>
<path stroke="#dcb4b7" vector-effect="non-scaling-stroke" d="
  M 216.04 335.58
  L 249.49 335.51"
/>
<path stroke="#f8c7ca" vector-effect="non-scaling-stroke" d="
  M 249.49 335.51
  Q 253.28 335.55 256.25 335.54
  Q 295.88 335.51 339.84 335.39
  Q 350.18 335.37 363.66 335.51
  Q 383.36 335.72 387.48 335.47
  Q 389.61 335.34 391.10 334.37
  C 395.15 331.73 401.40 327.20 406.36 324.40
  Q 428.80 311.75 453.27 307.14
  Q 456.97 306.44 461.74 305.76
  Q 465.77 305.18 470.29 304.96
  Q 479.60 304.51 481.73 304.51
  Q 485.18 304.50 496.60 305.46
  Q 503.99 306.09 511.30 307.77
  C 532.42 312.63 550.82 320.61 567.92 333.74
  C 569.58 335.01 570.79 335.56 572.75 335.56
  Q 651.44 335.27 737.44 335.55
  A 0.72 0.72 0.0 0 0 738.12 334.58
  Q 725.27 299.20 704.32 268.52
  Q 698.25 259.64 691.59 251.45
  Q 683.23 241.17 677.84 235.27
  Q 661.89 217.82 638.93 200.81
  Q 635.87 198.54 628.21 193.73
  Q 623.41 190.71 617.51 186.75
  Q 617.21 186.55 617.01 186.66"
/>
<path stroke="#dcb4b7" vector-effect="non-scaling-stroke" d="
  M 617.01 186.66
  C 606.12 181.15 594.51 175.19 583.75 171.10
  Q 519.69 146.76 452.83 155.38
  Q 420.21 159.59 388.40 171.96
  Q 357.10 184.13 329.61 203.10
  Q 301.78 222.30 277.36 247.69
  Q 274.41 250.75 270.35 255.51
  Q 269.21 256.84 263.47 263.46
  Q 248.80 280.42 233.90 303.14
  Q 224.70 317.18 217.00 332.23
  Q 216.24 333.73 215.67 335.27"
/>
<path stroke="#d88495" vector-effect="non-scaling-stroke" d="
  M 617.01 186.66
  Q 616.98 187.03 617.09 187.14
  A 0.19 0.19 0.0 0 1 616.88 187.46
  C 579.70 171.68 538.96 163.26 498.58 165.17
  Q 471.42 166.46 448.78 172.10
  Q 444.34 173.21 438.92 174.67
  Q 433.09 176.24 429.12 177.58
  Q 401.76 186.80 375.86 202.42
  Q 370.56 205.62 365.26 208.76"
/>
<path stroke="#7c7489" vector-effect="non-scaling-stroke" d="
  M 365.26 208.76
  Q 356.31 214.05 348.40 220.79"
/>
<path stroke="#d88495" vector-effect="non-scaling-stroke" d="
  M 348.40 220.79
  Q 294.78 261.75 257.82 320.81
  Q 251.80 330.43 249.49 335.51"
/>
<path stroke="#bd979e" vector-effect="non-scaling-stroke" d="
  M 216.04 335.58
  Q 216.12 335.96 215.67 335.27"
/>
<path stroke="#98869d" vector-effect="non-scaling-stroke" d="
  M 348.40 220.79
  L 365.26 208.76"
/>
<path stroke="#8fa9b6" vector-effect="non-scaling-stroke" d="
  M 203.92 468.95
  Q 202.92 469.02 202.97 469.16"
/>
<path stroke="#4d85a1" vector-effect="non-scaling-stroke" d="
  M 201.98 527.78
  Q 201.61 527.38 201.29 527.60
  Q 200.71 528.00 200.74 528.71
  Q 202.16 568.53 213.66 606.91
  A 1.10 1.00 17.7 0 0 213.91 607.34
  Q 214.44 607.88 214.98 607.55"
/>
<path stroke="#8e8399" vector-effect="non-scaling-stroke" d="
  M 215.24 608.25
  Q 207.49 608.31 199.75 608.18
  Q 198.24 608.16 195.52 608.78"
/>
<path stroke="#d88495" vector-effect="non-scaling-stroke" d="
  M 216.04 609.03
  Q 215.99 610.31 216.32 611.43
  Q 224.05 637.21 237.40 663.37
  Q 257.85 703.41 292.37 736.37
  Q 293.96 737.89 296.25 737.61
  Q 302.06 736.89 310.58 737.12
  C 326.37 737.55 340.26 737.33 360.82 737.34
  Q 416.99 737.35 467.24 737.38
  C 468.80 737.38 469.93 737.74 471.26 737.56
  Q 472.63 737.37 474.26 737.37
  Q 553.13 737.38 557.04 737.37
  C 558.95 737.36 560.38 737.70 562.76 737.64
  Q 573.57 737.34 601.10 737.20
  Q 601.75 737.20 601.66 737.76
  A 0.48 0.47 3.6 0 1 601.20 738.16
  L 594.46 738.34"
/>
<path stroke="#bd979e" vector-effect="non-scaling-stroke" d="
  M 294.70 738.64
  Q 290.96 737.77 286.84 738.72"
/>
<path stroke="#ccb3c7" vector-effect="non-scaling-stroke" d="
  M 369.88 608.08
  Q 368.86 608.45 368.00 608.45
  Q 292.86 608.46 216.87 608.61"
/>
<path stroke="#ccb3c7" vector-effect="non-scaling-stroke" d="
  M 718.81 608.52
  Q 639.77 608.51 561.25 608.60
  Q 559.74 608.60 557.11 608.03"
/>
<path stroke="#7e7c76" vector-effect="non-scaling-stroke" d="
  M 386.82 618.66
  Q 417.78 637.96 455.25 639.68
  Q 485.02 641.05 511.72 631.48
  Q 547.28 618.74 573.95 591.21
  C 601.62 562.64 620.56 525.81 625.48 486.25
  C 631.24 439.95 621.54 392.26 590.58 356.49
  Q 561.75 323.19 521.69 311.67
  C 465.88 295.62 407.65 313.48 368.48 356.22
  Q 330.90 397.22 321.90 451.94
  Q 320.19 462.36 319.35 479.41
  C 318.92 488.14 319.70 498.02 320.72 506.75
  C 325.92 551.17 348.04 594.48 386.82 618.66"
/>
<path stroke="#7e7c76" vector-effect="non-scaling-stroke" d="
  M 539.46 589.73
  C 571.41 564.37 591.96 527.97 598.16 487.69
  Q 600.18 474.56 600.53 461.51
  C 601.70 418.96 586.83 378.83 553.04 351.95
  C 521.82 327.12 482.11 320.06 443.87 331.20
  Q 409.42 341.23 383.62 368.36
  Q 346.06 407.86 339.49 461.76
  C 334.09 506.14 344.84 554.50 377.75 586.31
  C 401.27 609.04 432.21 619.60 464.73 617.91
  Q 506.72 615.73 539.46 589.73"
/>
<path stroke="#7e7c76" vector-effect="non-scaling-stroke" d="
  M 528.21 537.98
  Q 550.92 511.86 555.07 477.11
  Q 558.50 448.36 546.98 421.00
  C 535.92 394.76 513.24 376.89 484.77 373.49
  C 452.64 369.65 423.13 384.14 403.81 409.81
  Q 377.47 444.82 380.19 488.91
  Q 380.84 499.35 383.67 508.78
  C 392.62 538.50 412.94 560.56 442.72 567.54
  Q 460.99 571.82 478.91 568.12
  C 497.91 564.19 515.34 552.78 528.21 537.98"
/>
<path stroke="#d0e3e9" vector-effect="non-scaling-stroke" d="
  M 339.73 470.17
  L 340.10 493.33
  A 1.93 1.53 56.8 0 1 340.07 493.66
  Q 339.79 494.87 339.89 496.50
  Q 340.47 505.76 342.40 515.90
  Q 347.56 543.08 362.19 565.79
  Q 366.31 572.19 371.66 578.37
  Q 377.45 585.05 382.58 589.42
  Q 384.85 591.35 390.52 595.47
  C 406.26 606.90 425.09 614.48 444.39 615.96
  C 450.90 616.46 457.70 617.17 464.32 616.54
  Q 467.45 616.24 471.62 616.00
  Q 479.59 615.54 490.28 612.80
  Q 511.92 607.24 529.14 595.63
  Q 540.33 588.09 544.97 583.71
  C 551.17 577.84 557.58 571.81 562.82 565.28
  Q 592.56 528.20 597.90 480.22
  Q 598.29 476.76 598.54 472.00
  Q 598.57 471.39 598.90 470.81
  Q 599.37 469.95 598.67 469.38
  A 0.74 0.71 -23.9 0 0 598.20 469.21
  L 558.51 469.21
  A 1.77 1.77 0.0 0 0 556.74 470.97
  C 556.67 478.67 555.16 484.96 552.96 493.76
  Q 548.21 512.87 536.65 528.93
  Q 530.83 537.02 526.89 541.16
  C 505.37 563.77 477.30 575.43 445.81 569.42
  Q 431.59 566.71 419.50 559.49
  Q 417.66 558.39 411.28 553.60
  Q 406.57 550.06 403.71 546.93
  C 384.43 525.80 376.65 498.33 379.08 469.92
  A 0.69 0.69 0.0 0 0 378.39 469.17
  L 340.71 469.17
  A 0.99 0.98 89.7 0 0 339.73 470.17"
/>
<path stroke="#304a59" vector-effect="non-scaling-stroke" d="
  M 452.21 549.26
  C 426.06 520.67 425.38 472.08 444.73 439.72
  C 455.10 422.38 470.94 407.41 490.11 400.08
  Q 493.05 398.96 496.78 398.77
  A 0.42 0.42 0.0 0 0 496.90 397.95
  Q 472.90 389.25 449.64 399.17
  C 432.22 406.60 417.55 421.86 409.30 438.47
  Q 397.25 462.75 399.97 488.93
  C 403.12 519.16 421.55 543.12 451.91 549.78
  A 0.31 0.31 0.0 0 0 452.21 549.26"
/>
<path stroke="#304a59" vector-effect="non-scaling-stroke" d="
  M 451.00 484.53
  Q 449.53 490.24 450.88 495.88"
/>
<path stroke="#1e3b49" vector-effect="non-scaling-stroke" d="
  M 536.19 472.23
  Q 536.88 470.92 536.60 469.18"
/>
<path stroke="#4d85a1" vector-effect="non-scaling-stroke" d="
  M 449.03 547.66
  A 0.21 0.20 69.3 0 0 449.18 547.32
  Q 444.23 541.52 440.89 534.91
  Q 429.08 511.60 430.47 485.52
  C 432.34 450.68 449.78 421.45 480.03 403.58
  Q 486.13 399.97 492.44 398.24
  A 0.33 0.33 0.0 0 0 492.57 397.67
  Q 492.31 397.43 491.94 397.33
  Q 490.03 396.79 483.00 395.60
  C 463.10 392.23 442.09 400.98 427.98 414.71
  C 405.66 436.42 395.44 468.88 402.81 499.48
  C 408.37 522.55 423.34 540.12 446.22 547.32
  Q 447.51 547.72 449.03 547.66"
/>
</g>
<path fill="#000000" d="
  M 380.59 98.18
  C 403.10 90.22 425.64 84.46 449.33 80.53
  Q 452.34 80.03 455.60 79.53
  Q 458.80 79.03 460.96 78.94
  C 463.42 78.82 465.51 78.01 468.11 78.02
  Q 470.94 78.04 473.56 77.61
  C 478.71 76.76 482.73 76.96 488.98 76.40
  Q 494.19 75.92 499.02 75.92
  Q 533.62 75.93 562.28 80.00
  Q 657.58 93.53 735.20 150.83
  C 758.81 168.25 780.20 187.99 799.05 210.97
  Q 841.07 262.22 863.32 325.17
  Q 876.53 362.53 882.49 401.52
  Q 883.32 407.00 883.97 412.31
  C 884.35 415.49 885.08 418.02 885.00 421.14
  C 884.94 423.66 885.84 426.32 885.90 428.57
  C 886.05 434.87 887.07 440.07 886.98 445.63
  Q 886.96 447.52 887.46 458.72
  C 887.94 469.47 887.35 477.74 886.95 490.33
  Q 886.83 494.07 886.28 497.66
  C 885.79 500.86 886.11 503.99 885.73 507.46
  Q 884.41 519.57 883.88 523.77
  Q 877.74 572.17 860.32 617.77
  Q 845.73 655.97 825.26 689.25
  Q 789.34 747.62 738.11 790.09
  Q 695.24 825.65 645.01 847.31
  Q 597.90 867.62 547.59 874.35
  Q 542.13 875.08 536.98 875.66
  Q 502.47 879.53 464.38 877.05
  Q 426.65 874.60 392.45 866.89
  Q 350.43 857.43 312.09 839.41
  Q 282.92 825.71 255.25 804.98
  Q 207.66 769.33 173.82 717.40
  Q 149.20 679.62 135.35 640.53
  C 127.13 617.34 120.61 594.21 116.54 569.99
  Q 114.62 558.58 113.19 545.20
  Q 113.14 544.75 111.72 526.25
  Q 111.02 517.18 111.00 507.24
  Q 110.94 480.90 111.18 477.25
  Q 112.57 456.28 113.06 451.51
  Q 120.54 378.14 152.72 310.99
  Q 162.14 291.33 169.68 278.69
  Q 195.09 236.02 227.23 200.73
  Q 257.17 167.86 295.98 141.20
  Q 335.21 114.24 380.59 98.18
  Z
  M 268.93 188.44
  Q 211.09 239.93 175.07 309.35
  C 171.91 315.44 168.95 322.40 165.85 328.86
  Q 162.49 335.87 159.35 343.65
  C 140.16 391.16 129.94 441.61 129.93 492.58
  Q 129.92 510.13 130.19 516.23
  Q 133.47 591.50 164.87 660.14
  Q 181.57 696.63 207.38 729.90
  Q 249.78 784.54 310.65 815.17
  Q 348.47 834.19 387.68 841.26
  Q 428.86 848.69 469.01 844.77
  C 524.93 839.30 577.91 818.67 624.69 787.38
  Q 680.84 749.81 721.31 698.06
  C 755.94 653.77 781.44 602.31 795.85 548.21
  Q 804.44 515.94 806.81 484.74
  Q 807.51 475.47 808.22 466.19
  Q 809.04 455.51 809.04 447.64
  Q 809.07 411.09 802.96 376.72
  Q 797.42 345.57 785.97 314.00
  Q 761.12 245.55 711.63 192.38
  C 668.55 146.09 612.43 114.55 550.38 103.65
  Q 512.70 97.04 480.51 99.18
  Q 403.57 104.30 334.62 142.15
  Q 298.92 161.75 268.93 188.44
  Z
  M 536.06 854.55
  Q 538.92 855.46 541.77 854.34
  Q 630.95 841.87 703.85 789.58
  Q 739.28 764.16 765.63 733.41
  Q 779.26 717.51 785.29 709.29
  C 830.58 647.60 858.62 574.65 864.23 498.37
  Q 867.62 452.22 861.80 409.96
  C 854.55 357.30 837.25 307.01 809.75 261.75
  Q 778.24 209.89 730.95 173.07
  Q 713.76 159.69 684.67 143.24
  A 0.25 0.25 0.0 0 0 684.34 143.59
  Q 684.42 143.71 684.66 143.86
  C 688.06 146.00 694.38 150.34 699.15 154.42
  Q 710.23 163.89 712.58 166.17
  Q 730.11 183.18 745.38 201.87
  C 792.70 259.78 820.24 330.83 827.13 405.76
  C 833.97 480.18 822.91 555.06 790.89 622.69
  Q 767.66 671.76 738.96 708.48
  Q 717.68 735.70 695.63 756.88
  Q 653.74 797.11 600.37 826.11
  Q 579.62 837.39 558.13 845.37
  Q 557.64 845.55 539.25 851.79
  C 532.96 853.92 527.09 854.81 520.99 856.53
  A 0.23 0.22 35.0 0 0 521.07 856.97
  Q 529.22 856.49 536.06 854.55
  Z"
/>
<path fill="#fcf7ec" d="
  M 268.93 188.44
  Q 298.92 161.75 334.62 142.15
  Q 403.57 104.30 480.51 99.18
  Q 512.70 97.04 550.38 103.65
  C 612.43 114.55 668.55 146.09 711.63 192.38
  Q 761.12 245.55 785.97 314.00
  Q 797.42 345.57 802.96 376.72
  Q 809.07 411.09 809.04 447.64
  Q 809.04 455.51 808.22 466.19
  Q 807.51 475.47 806.81 484.74
  Q 804.44 515.94 795.85 548.21
  C 781.44 602.31 755.94 653.77 721.31 698.06
  Q 680.84 749.81 624.69 787.38
  C 577.91 818.67 524.93 839.30 469.01 844.77
  Q 428.86 848.69 387.68 841.26
  Q 348.47 834.19 310.65 815.17
  Q 249.78 784.54 207.38 729.90
  Q 181.57 696.63 164.87 660.14
  Q 133.47 591.50 130.19 516.23
  Q 129.92 510.13 129.93 492.58
  C 129.94 441.61 140.16 391.16 159.35 343.65
  Q 162.49 335.87 165.85 328.86
  C 168.95 322.40 171.91 315.44 175.07 309.35
  Q 211.09 239.93 268.93 188.44
  Z
  M 164.32 334.88
  A 0.46 0.45 -77.5 0 0 164.73 335.53
  L 190.39 335.53
  A 1.90 1.88 -77.4 0 0 192.10 334.43
  Q 206.80 302.74 227.16 274.60
  Q 242.88 252.89 255.71 239.19
  Q 264.14 230.20 274.13 220.38
  Q 306.40 188.69 345.54 167.59
  Q 377.32 150.45 410.78 140.86
  Q 432.09 134.74 460.28 131.43
  C 464.90 130.89 469.43 131.14 474.18 130.64
  C 482.72 129.75 492.03 129.85 499.96 130.49
  Q 506.31 131.01 512.25 131.09
  C 515.13 131.12 517.31 131.89 520.47 131.98
  Q 521.99 132.02 526.57 132.77
  Q 543.85 135.59 547.87 136.48
  Q 568.09 140.97 589.03 148.76
  Q 612.62 157.54 636.37 172.16
  Q 651.60 181.53 663.20 191.31
  Q 674.83 201.12 676.33 202.52
  C 685.10 210.66 693.55 219.01 701.46 228.43
  Q 737.73 271.63 757.93 325.80
  Q 759.86 330.96 760.61 333.83
  A 2.18 2.17 82.5 0 0 762.71 335.45
  L 790.83 335.45
  A 0.77 0.77 0.0 0 0 791.57 334.46
  Q 772.03 268.61 729.44 214.80
  Q 725.84 210.24 718.79 201.97
  Q 712.42 194.50 707.52 189.65
  C 701.11 183.31 695.55 177.34 688.43 171.29
  Q 681.01 164.99 677.53 162.23
  Q 640.73 133.01 596.74 117.13
  C 587.65 113.85 576.07 110.45 568.47 108.57
  Q 542.20 102.06 508.76 100.17
  Q 493.23 99.29 476.75 100.66
  Q 471.22 101.12 471.05 101.14
  Q 448.27 103.66 436.50 106.02
  C 371.16 119.13 311.52 150.01 262.40 195.67
  Q 224.49 230.92 195.12 276.62
  Q 182.09 296.88 172.51 317.22
  Q 170.13 322.28 164.32 334.88
  Z
  M 708.10 665.88
  Q 753.75 602.14 771.37 521.92
  Q 775.05 505.17 777.43 478.89
  Q 778.07 471.81 778.06 469.57
  Q 778.04 465.51 778.56 460.24
  C 779.10 454.74 778.87 450.09 778.89 444.26
  Q 778.92 439.34 777.56 420.77
  Q 774.74 382.21 762.05 341.46
  C 740.89 273.56 697.59 212.03 637.92 174.34
  C 597.16 148.58 547.94 133.04 498.30 131.75
  Q 483.91 131.38 472.51 131.97
  Q 431.88 134.07 393.57 147.56
  Q 357.57 160.24 325.31 180.90
  Q 295.02 200.30 266.71 229.24
  Q 191.90 305.75 166.56 411.03
  C 160.59 435.82 157.01 464.27 156.88 491.34
  Q 156.79 510.83 157.06 516.50
  Q 157.76 531.34 160.18 549.27
  C 165.95 592.11 180.81 633.69 202.03 671.24
  Q 221.13 705.05 249.01 733.48
  C 254.87 739.46 261.54 745.12 267.87 750.60
  C 310.65 787.65 364.53 809.44 420.75 813.75
  Q 425.34 814.11 436.75 814.65
  C 444.74 815.02 451.01 814.46 459.75 813.95
  Q 483.76 812.55 509.39 806.13
  Q 562.59 792.79 608.20 762.45
  Q 666.86 723.43 708.10 665.88
  Z
  M 146.95 609.71
  Q 148.20 613.62 149.44 617.52
  Q 165.74 668.85 196.13 712.96
  C 201.95 721.41 209.58 730.71 214.68 737.38
  A 2.57 2.56 71.2 0 0 216.71 738.38
  L 251.69 738.38
  A 0.41 0.41 0.0 0 0 251.99 737.69
  Q 251.38 737.05 250.59 736.56
  A 4.13 4.13 0.0 0 1 249.79 735.92
  Q 219.56 704.86 201.76 672.99
  Q 189.57 651.16 181.41 631.37
  Q 177.80 622.61 172.92 608.52
  Q 162.61 577.75 159.35 552.49
  Q 157.35 537.01 156.42 525.74
  Q 155.29 512.04 155.30 490.32
  C 155.30 483.52 156.42 476.21 156.10 469.84
  A 0.66 0.65 88.1 0 0 155.45 469.22
  L 133.39 469.22
  A 1.69 1.68 87.9 0 0 131.72 471.03
  Q 131.97 474.42 131.87 475.68
  Q 130.97 487.50 130.81 498.78
  C 130.71 506.24 131.77 516.22 131.70 522.67
  Q 131.68 524.77 132.30 529.34
  Q 132.42 530.29 132.91 536.00
  C 135.02 560.91 140.05 585.74 146.95 609.71
  Z
  M 743.78 608.41
  Q 743.15 608.45 742.76 609.26
  Q 718.73 659.52 682.51 699.52
  Q 663.72 720.26 643.10 737.56
  A 0.40 0.40 0.0 0 0 643.35 738.27
  L 681.72 738.54
  A 0.69 0.61 -48.6 0 0 681.88 738.52
  Q 683.95 738.10 685.27 736.79
  Q 695.35 726.73 701.21 719.95
  C 704.29 716.40 706.74 713.99 709.83 710.27
  Q 730.98 684.82 744.79 662.78
  Q 760.02 638.46 773.55 608.39
  Q 775.67 603.48 777.74 598.52
  Q 797.92 550.32 804.12 498.44
  Q 805.01 490.99 805.03 489.83
  Q 805.05 487.65 805.83 481.20
  Q 806.24 477.78 806.42 469.85
  A 0.52 0.51 1.1 0 0 805.90 469.32
  L 780.32 469.32
  A 1.06 1.06 0.0 0 0 779.26 470.32
  Q 776.81 513.32 764.07 554.60
  Q 755.71 581.69 744.11 606.83
  Q 743.88 607.33 743.78 608.41
  Z"
/>
<path fill="#f496a8" d="
  M 164.32 334.88
  Q 170.13 322.28 172.51 317.22
  Q 182.09 296.88 195.12 276.62
  Q 224.49 230.92 262.40 195.67
  C 311.52 150.01 371.16 119.13 436.50 106.02
  Q 448.27 103.66 471.05 101.14
  Q 471.22 101.12 476.75 100.66
  Q 493.23 99.29 508.76 100.17
  Q 542.20 102.06 568.47 108.57
  C 576.07 110.45 587.65 113.85 596.74 117.13
  Q 640.73 133.01 677.53 162.23
  Q 681.01 164.99 688.43 171.29
  C 695.55 177.34 701.11 183.31 707.52 189.65
  Q 712.42 194.50 718.79 201.97
  Q 725.84 210.24 729.44 214.80
  Q 772.03 268.61 791.57 334.46
  A 0.77 0.77 0.0 0 1 790.83 335.45
  L 762.71 335.45
  A 2.18 2.17 82.5 0 1 760.61 333.83
  Q 759.86 330.96 757.93 325.80
  Q 737.73 271.63 701.46 228.43
  C 693.55 219.01 685.10 210.66 676.33 202.52
  Q 674.83 201.12 663.20 191.31
  Q 651.60 181.53 636.37 172.16
  Q 612.62 157.54 589.03 148.76
  Q 568.09 140.97 547.87 136.48
  Q 543.85 135.59 526.57 132.77
  Q 521.99 132.02 520.47 131.98
  C 517.31 131.89 515.13 131.12 512.25 131.09
  Q 506.31 131.01 499.96 130.49
  C 492.03 129.85 482.72 129.75 474.18 130.64
  C 469.43 131.14 464.90 130.89 460.28 131.43
  Q 432.09 134.74 410.78 140.86
  Q 377.32 150.45 345.54 167.59
  Q 306.40 188.69 274.13 220.38
  Q 264.14 230.20 255.71 239.19
  Q 242.88 252.89 227.16 274.60
  Q 206.80 302.74 192.10 334.43
  A 1.90 1.88 -77.4 0 1 190.39 335.53
  L 164.73 335.53
  A 0.46 0.45 -77.5 0 1 164.32 334.88
  Z"
/>
<path fill="#000000" d="
  M 708.10 665.88
  Q 666.86 723.43 608.20 762.45
  Q 562.59 792.79 509.39 806.13
  Q 483.76 812.55 459.75 813.95
  C 451.01 814.46 444.74 815.02 436.75 814.65
  Q 425.34 814.11 420.75 813.75
  C 364.53 809.44 310.65 787.65 267.87 750.60
  C 261.54 745.12 254.87 739.46 249.01 733.48
  Q 221.13 705.05 202.03 671.24
  C 180.81 633.69 165.95 592.11 160.18 549.27
  Q 157.76 531.34 157.06 516.50
  Q 156.79 510.83 156.88 491.34
  C 157.01 464.27 160.59 435.82 166.56 411.03
  Q 191.90 305.75 266.71 229.24
  Q 295.02 200.30 325.31 180.90
  Q 357.57 160.24 393.57 147.56
  Q 431.88 134.07 472.51 131.97
  Q 483.91 131.38 498.30 131.75
  C 547.94 133.04 597.16 148.58 637.92 174.34
  C 697.59 212.03 740.89 273.56 762.05 341.46
  Q 774.74 382.21 777.56 420.77
  Q 778.92 439.34 778.89 444.26
  C 778.87 450.09 779.10 454.74 778.56 460.24
  Q 778.04 465.51 778.06 469.57
  Q 778.07 471.81 777.43 478.89
  Q 775.05 505.17 771.37 521.92
  Q 753.75 602.14 708.10 665.88
  Z
  M 684.41 241.09
  C 659.56 212.44 627.33 188.06 592.41 173.37
  C 539.92 151.29 481.40 145.87 425.89 159.18
  Q 373.71 171.70 329.85 201.86
  Q 298.69 223.30 274.06 249.80
  C 255.62 269.62 237.64 293.18 223.64 318.06
  Q 215.12 333.21 212.83 337.87
  Q 179.63 405.47 176.21 480.74
  Q 174.47 519.11 180.45 554.96
  Q 188.51 603.35 212.13 648.88
  Q 233.50 690.10 267.46 723.29
  C 307.66 762.59 359.64 787.61 414.90 793.28
  C 421.74 793.98 430.09 794.22 435.34 794.66
  Q 442.14 795.22 450.67 794.66
  Q 465.68 793.68 470.23 793.19
  C 516.57 788.11 561.40 770.08 600.37 743.84
  C 645.65 713.34 684.25 672.47 711.14 625.00
  C 733.80 584.98 750.44 539.73 755.89 494.72
  Q 757.38 482.35 758.59 459.92
  C 759.35 445.55 758.44 430.76 757.32 417.24
  C 751.96 352.44 727.10 290.29 684.41 241.09
  Z"
/>
<path fill="#5f94b1" d="
  M 541.77 854.34
  Q 541.49 854.46 541.21 854.20
  A 0.37 0.37 0.0 0 1 541.41 853.57
  C 575.69 848.49 609.88 838.95 641.18 824.72
  Q 713.87 791.68 766.38 731.15
  Q 785.30 709.34 800.76 685.03
  Q 825.10 646.78 840.44 604.48
  Q 858.49 554.72 862.97 502.19
  Q 863.33 498.04 863.47 493.29
  C 863.69 485.87 864.40 478.06 864.33 471.07
  Q 864.31 469.11 864.32 457.69
  Q 864.32 450.97 863.99 444.32
  Q 861.87 401.44 851.57 363.39
  Q 843.39 333.14 833.93 311.04
  Q 824.25 288.46 812.01 267.48
  Q 780.49 213.46 732.02 175.26
  Q 720.63 166.28 709.79 159.53
  Q 702.71 155.13 701.38 153.99
  A 0.23 0.23 0.0 0 0 701.04 154.03
  L 700.77 154.42
  A 0.23 0.23 0.0 0 0 700.83 154.74
  Q 704.04 156.92 708.20 160.79
  Q 717.53 169.47 720.71 172.79
  C 738.57 191.43 754.06 209.74 767.68 230.54
  Q 812.10 298.36 824.89 379.62
  Q 827.13 393.80 828.05 403.98
  Q 831.34 440.08 829.08 477.00
  Q 825.48 536.00 805.14 591.16
  Q 783.34 650.25 742.86 705.13
  Q 726.62 727.14 701.11 752.95
  C 689.27 764.93 675.79 776.29 663.62 785.84
  Q 627.05 814.58 583.76 835.45
  Q 567.63 843.23 560.25 845.52
  Q 548.14 849.27 536.06 854.55
  Q 529.22 856.49 521.07 856.97
  A 0.23 0.22 35.0 0 1 520.99 856.53
  C 527.09 854.81 532.96 853.92 539.25 851.79
  Q 557.64 845.55 558.13 845.37
  Q 579.62 837.39 600.37 826.11
  Q 653.74 797.11 695.63 756.88
  Q 717.68 735.70 738.96 708.48
  Q 767.66 671.76 790.89 622.69
  C 822.91 555.06 833.97 480.18 827.13 405.76
  C 820.24 330.83 792.70 259.78 745.38 201.87
  Q 730.11 183.18 712.58 166.17
  Q 710.23 163.89 699.15 154.42
  C 694.38 150.34 688.06 146.00 684.66 143.86
  Q 684.42 143.71 684.34 143.59
  A 0.25 0.25 0.0 0 1 684.67 143.24
  Q 713.76 159.69 730.95 173.07
  Q 778.24 209.89 809.75 261.75
  C 837.25 307.01 854.55 357.30 861.80 409.96
  Q 867.62 452.22 864.23 498.37
  C 858.62 574.65 830.58 647.60 785.29 709.29
  Q 779.26 717.51 765.63 733.41
  Q 739.28 764.16 703.85 789.58
  Q 630.95 841.87 541.77 854.34
  Z"
/>
<path fill="#fcf7ec" d="
  M 592.41 173.37
  C 627.33 188.06 659.56 212.44 684.41 241.09
  C 727.10 290.29 751.96 352.44 757.32 417.24
  C 758.44 430.76 759.35 445.55 758.59 459.92
  Q 757.38 482.35 755.89 494.72
  C 750.44 539.73 733.80 584.98 711.14 625.00
  C 684.25 672.47 645.65 713.34 600.37 743.84
  C 561.40 770.08 516.57 788.11 470.23 793.19
  Q 465.68 793.68 450.67 794.66
  Q 442.14 795.22 435.34 794.66
  C 430.09 794.22 421.74 793.98 414.90 793.28
  C 359.64 787.61 307.66 762.59 267.46 723.29
  Q 233.50 690.10 212.13 648.88
  Q 188.51 603.35 180.45 554.96
  Q 174.47 519.11 176.21 480.74
  Q 179.63 405.47 212.83 337.87
  Q 215.12 333.21 223.64 318.06
  C 237.64 293.18 255.62 269.62 274.06 249.80
  Q 298.69 223.30 329.85 201.86
  Q 373.71 171.70 425.89 159.18
  C 481.40 145.87 539.92 151.29 592.41 173.37
  Z
  M 215.67 335.27
  Q 215.39 335.88 215.08 336.49
  Q 202.38 361.91 194.69 385.64
  Q 186.35 411.37 182.12 437.02
  Q 179.41 453.45 178.57 467.53
  A 0.84 0.84 0.0 0 0 179.41 468.42
  L 202.52 468.42
  A 0.43 0.41 -7.0 0 1 202.93 468.73
  Q 202.98 468.90 202.97 469.16
  L 179.03 469.14
  A 1.22 1.22 0.0 0 0 177.81 470.35
  Q 177.74 476.91 177.19 482.77
  C 176.49 490.13 176.96 497.95 176.85 506.43
  Q 176.80 510.42 177.39 517.03
  Q 177.86 522.33 178.26 527.62
  Q 181.38 569.49 195.52 608.78
  Q 211.25 652.22 238.65 689.11
  Q 250.28 704.76 264.46 719.00
  Q 267.31 721.86 269.31 723.70
  Q 272.52 726.65 274.08 728.23
  Q 279.98 734.20 286.84 738.72
  Q 296.99 746.58 303.42 750.84
  Q 309.04 754.56 322.26 762.22
  Q 331.38 767.51 341.71 771.97
  A 0.17 0.16 -65.1 0 0 341.92 771.89
  L 341.92 771.88
  A 0.16 0.16 0.0 0 0 341.85 771.67
  Q 319.50 759.74 304.72 747.04
  Q 297.03 740.44 294.70 738.64
  L 594.46 738.34
  Q 602.03 738.66 604.23 738.49
  Q 606.36 738.32 607.81 737.30
  Q 624.12 725.79 641.06 710.31
  Q 654.69 697.84 665.14 686.37
  Q 680.60 669.38 694.71 649.22
  Q 706.06 632.99 718.81 608.52
  Q 723.09 599.99 728.39 587.92
  Q 745.51 548.97 752.80 508.13
  Q 754.31 499.66 755.25 489.30
  Q 756.36 477.15 756.81 470.34
  A 1.07 1.06 -88.0 0 0 755.75 469.20
  L 629.37 469.20
  A 1.39 1.39 0.0 0 0 627.98 470.55
  Q 627.44 486.68 623.88 502.20
  Q 611.91 554.30 574.03 592.54
  Q 566.01 600.65 557.11 608.03
  Q 555.31 609.12 553.45 610.49
  Q 533.65 625.03 509.37 633.36
  C 485.65 641.50 458.50 643.11 434.30 638.41
  Q 399.15 631.59 371.63 608.94
  A 1.92 1.88 -11.9 0 0 371.19 608.66
  L 369.88 608.08
  C 365.03 603.15 359.70 598.09 355.60 593.10
  Q 338.75 572.61 329.94 549.08
  Q 315.80 511.35 318.63 470.35
  A 1.08 1.08 0.0 0 0 317.55 469.20
  L 205.51 469.20
  A 0.90 0.89 -13.4 0 0 204.71 470.50
  Q 205.01 471.09 204.85 471.94
  Q 204.15 475.69 203.62 482.50
  C 202.50 496.97 202.64 509.39 202.91 525.25
  Q 203.00 530.51 203.55 535.05
  C 204.04 539.13 203.63 543.57 204.76 547.83
  A 3.51 3.46 -51.3 0 1 204.87 548.91
  Q 204.70 552.41 205.73 556.15
  A 3.26 3.08 39.3 0 1 205.85 557.08
  Q 205.81 558.62 206.12 560.56
  Q 208.28 574.05 210.23 584.04
  Q 212.73 596.84 216.87 608.61
  Q 217.52 608.65 216.04 609.03
  L 215.24 608.25
  L 214.98 607.55
  Q 215.11 607.33 215.04 607.10
  Q 203.40 568.29 201.98 527.78
  Q 201.33 509.24 202.15 490.73
  Q 202.32 486.76 203.03 479.85
  Q 203.58 474.42 203.92 468.95
  Q 206.30 453.70 209.68 438.45
  Q 221.55 384.76 247.95 336.98
  Q 248.09 336.73 248.10 336.70
  A 0.25 0.25 0.0 0 0 247.68 336.46
  Q 246.65 337.51 245.75 336.92
  A 2.18 2.17 61.2 0 0 244.52 336.56
  Q 229.51 336.70 216.50 336.38
  Q 216.04 336.37 216.04 335.58
  L 249.49 335.51
  Q 253.28 335.55 256.25 335.54
  Q 295.88 335.51 339.84 335.39
  Q 350.18 335.37 363.66 335.51
  Q 383.36 335.72 387.48 335.47
  Q 389.61 335.34 391.10 334.37
  C 395.15 331.73 401.40 327.20 406.36 324.40
  Q 428.80 311.75 453.27 307.14
  Q 456.97 306.44 461.74 305.76
  Q 465.77 305.18 470.29 304.96
  Q 479.60 304.51 481.73 304.51
  Q 485.18 304.50 496.60 305.46
  Q 503.99 306.09 511.30 307.77
  C 532.42 312.63 550.82 320.61 567.92 333.74
  C 569.58 335.01 570.79 335.56 572.75 335.56
  Q 651.44 335.27 737.44 335.55
  A 0.72 0.72 0.0 0 0 738.12 334.58
  Q 725.27 299.20 704.32 268.52
  Q 698.25 259.64 691.59 251.45
  Q 683.23 241.17 677.84 235.27
  Q 661.89 217.82 638.93 200.81
  Q 635.87 198.54 628.21 193.73
  Q 623.41 190.71 617.51 186.75
  Q 617.21 186.55 617.01 186.66
  C 606.12 181.15 594.51 175.19 583.75 171.10
  Q 519.69 146.76 452.83 155.38
  Q 420.21 159.59 388.40 171.96
  Q 357.10 184.13 329.61 203.10
  Q 301.78 222.30 277.36 247.69
  Q 274.41 250.75 270.35 255.51
  Q 269.21 256.84 263.47 263.46
  Q 248.80 280.42 233.90 303.14
  Q 224.70 317.18 217.00 332.23
  Q 216.24 333.73 215.67 335.27
  Z
  M 386.82 618.66
  Q 417.78 637.96 455.25 639.68
  Q 485.02 641.05 511.72 631.48
  Q 547.28 618.74 573.95 591.21
  C 601.62 562.64 620.56 525.81 625.48 486.25
  C 631.24 439.95 621.54 392.26 590.58 356.49
  Q 561.75 323.19 521.69 311.67
  C 465.88 295.62 407.65 313.48 368.48 356.22
  Q 330.90 397.22 321.90 451.94
  Q 320.19 462.36 319.35 479.41
  C 318.92 488.14 319.70 498.02 320.72 506.75
  C 325.92 551.17 348.04 594.48 386.82 618.66
  Z"
/>
<path fill="#bc7181" d="
  M 617.01 186.66
  Q 616.98 187.03 617.09 187.14
  A 0.19 0.19 0.0 0 1 616.88 187.46
  C 579.70 171.68 538.96 163.26 498.58 165.17
  Q 471.42 166.46 448.78 172.10
  Q 444.34 173.21 438.92 174.67
  Q 433.09 176.24 429.12 177.58
  Q 401.76 186.80 375.86 202.42
  Q 370.56 205.62 365.26 208.76
  Q 356.31 214.05 348.40 220.79
  Q 294.78 261.75 257.82 320.81
  Q 251.80 330.43 249.49 335.51
  L 216.04 335.58
  Q 216.12 335.96 215.67 335.27
  Q 216.24 333.73 217.00 332.23
  Q 224.70 317.18 233.90 303.14
  Q 248.80 280.42 263.47 263.46
  Q 269.21 256.84 270.35 255.51
  Q 274.41 250.75 277.36 247.69
  Q 301.78 222.30 329.61 203.10
  Q 357.10 184.13 388.40 171.96
  Q 420.21 159.59 452.83 155.38
  Q 519.69 146.76 583.75 171.10
  C 594.51 175.19 606.12 181.15 617.01 186.66
  Z"
/>
<path fill="#3b7691" d="
  M 541.77 854.34
  Q 538.92 855.46 536.06 854.55
  Q 548.14 849.27 560.25 845.52
  Q 567.63 843.23 583.76 835.45
  Q 627.05 814.58 663.62 785.84
  C 675.79 776.29 689.27 764.93 701.11 752.95
  Q 726.62 727.14 742.86 705.13
  Q 783.34 650.25 805.14 591.16
  Q 825.48 536.00 829.08 477.00
  Q 831.34 440.08 828.05 403.98
  Q 827.13 393.80 824.89 379.62
  Q 812.10 298.36 767.68 230.54
  C 754.06 209.74 738.57 191.43 720.71 172.79
  Q 717.53 169.47 708.20 160.79
  Q 704.04 156.92 700.83 154.74
  A 0.23 0.23 0.0 0 1 700.77 154.42
  L 701.04 154.03
  A 0.23 0.23 0.0 0 1 701.38 153.99
  Q 702.71 155.13 709.79 159.53
  Q 720.63 166.28 732.02 175.26
  Q 780.49 213.46 812.01 267.48
  Q 824.25 288.46 833.93 311.04
  Q 843.39 333.14 851.57 363.39
  Q 861.87 401.44 863.99 444.32
  Q 864.32 450.97 864.32 457.69
  Q 864.31 469.11 864.33 471.07
  C 864.40 478.06 863.69 485.87 863.47 493.29
  Q 863.33 498.04 862.97 502.19
  Q 858.49 554.72 840.44 604.48
  Q 825.10 646.78 800.76 685.03
  Q 785.30 709.34 766.38 731.15
  Q 713.87 791.68 641.18 824.72
  C 609.88 838.95 575.69 848.49 541.41 853.57
  A 0.37 0.37 0.0 0 0 541.21 854.20
  Q 541.49 854.46 541.77 854.34
  Z"
/>
<path fill="#f496a8" d="
  M 617.01 186.66
  Q 617.21 186.55 617.51 186.75
  Q 623.41 190.71 628.21 193.73
  Q 635.87 198.54 638.93 200.81
  Q 661.89 217.82 677.84 235.27
  Q 683.23 241.17 691.59 251.45
  Q 698.25 259.64 704.32 268.52
  Q 725.27 299.20 738.12 334.58
  A 0.72 0.72 0.0 0 1 737.44 335.55
  Q 651.44 335.27 572.75 335.56
  C 570.79 335.56 569.58 335.01 567.92 333.74
  C 550.82 320.61 532.42 312.63 511.30 307.77
  Q 503.99 306.09 496.60 305.46
  Q 485.18 304.50 481.73 304.51
  Q 479.60 304.51 470.29 304.96
  Q 465.77 305.18 461.74 305.76
  Q 456.97 306.44 453.27 307.14
  Q 428.80 311.75 406.36 324.40
  C 401.40 327.20 395.15 331.73 391.10 334.37
  Q 389.61 335.34 387.48 335.47
  Q 383.36 335.72 363.66 335.51
  Q 350.18 335.37 339.84 335.39
  Q 295.88 335.51 256.25 335.54
  Q 253.28 335.55 249.49 335.51
  Q 251.80 330.43 257.82 320.81
  Q 294.78 261.75 348.40 220.79
  L 365.26 208.76
  Q 370.56 205.62 375.86 202.42
  Q 401.76 186.80 429.12 177.58
  Q 433.09 176.24 438.92 174.67
  Q 444.34 173.21 448.78 172.10
  Q 471.42 166.46 498.58 165.17
  C 538.96 163.26 579.70 171.68 616.88 187.46
  A 0.19 0.19 0.0 0 0 617.09 187.14
  Q 616.98 187.03 617.01 186.66
  Z"
/>
<path fill="#3b7691" d="
  M 365.26 208.76
  L 348.40 220.79
  Q 356.31 214.05 365.26 208.76
  Z"
/>
<path fill="#000000" d="
  M 386.82 618.66
  C 348.04 594.48 325.92 551.17 320.72 506.75
  C 319.70 498.02 318.92 488.14 319.35 479.41
  Q 320.19 462.36 321.90 451.94
  Q 330.90 397.22 368.48 356.22
  C 407.65 313.48 465.88 295.62 521.69 311.67
  Q 561.75 323.19 590.58 356.49
  C 621.54 392.26 631.24 439.95 625.48 486.25
  C 620.56 525.81 601.62 562.64 573.95 591.21
  Q 547.28 618.74 511.72 631.48
  Q 485.02 641.05 455.25 639.68
  Q 417.78 637.96 386.82 618.66
  Z
  M 539.46 589.73
  C 571.41 564.37 591.96 527.97 598.16 487.69
  Q 600.18 474.56 600.53 461.51
  C 601.70 418.96 586.83 378.83 553.04 351.95
  C 521.82 327.12 482.11 320.06 443.87 331.20
  Q 409.42 341.23 383.62 368.36
  Q 346.06 407.86 339.49 461.76
  C 334.09 506.14 344.84 554.50 377.75 586.31
  C 401.27 609.04 432.21 619.60 464.73 617.91
  Q 506.72 615.73 539.46 589.73
  Z"
/>
<path fill="#fcf7ec" d="
  M 598.16 487.69
  C 591.96 527.97 571.41 564.37 539.46 589.73
  Q 506.72 615.73 464.73 617.91
  C 432.21 619.60 401.27 609.04 377.75 586.31
  C 344.84 554.50 334.09 506.14 339.49 461.76
  Q 346.06 407.86 383.62 368.36
  Q 409.42 341.23 443.87 331.20
  C 482.11 320.06 521.82 327.12 553.04 351.95
  C 586.83 378.83 601.70 418.96 600.53 461.51
  Q 600.18 474.56 598.16 487.69
  Z
  M 528.21 537.98
  Q 550.92 511.86 555.07 477.11
  Q 558.50 448.36 546.98 421.00
  C 535.92 394.76 513.24 376.89 484.77 373.49
  C 452.64 369.65 423.13 384.14 403.81 409.81
  Q 377.47 444.82 380.19 488.91
  Q 380.84 499.35 383.67 508.78
  C 392.62 538.50 412.94 560.56 442.72 567.54
  Q 460.99 571.82 478.91 568.12
  C 497.91 564.19 515.34 552.78 528.21 537.98
  Z
  M 339.73 470.17
  L 340.10 493.33
  A 1.93 1.53 56.8 0 1 340.07 493.66
  Q 339.79 494.87 339.89 496.50
  Q 340.47 505.76 342.40 515.90
  Q 347.56 543.08 362.19 565.79
  Q 366.31 572.19 371.66 578.37
  Q 377.45 585.05 382.58 589.42
  Q 384.85 591.35 390.52 595.47
  C 406.26 606.90 425.09 614.48 444.39 615.96
  C 450.90 616.46 457.70 617.17 464.32 616.54
  Q 467.45 616.24 471.62 616.00
  Q 479.59 615.54 490.28 612.80
  Q 511.92 607.24 529.14 595.63
  Q 540.33 588.09 544.97 583.71
  C 551.17 577.84 557.58 571.81 562.82 565.28
  Q 592.56 528.20 597.90 480.22
  Q 598.29 476.76 598.54 472.00
  Q 598.57 471.39 598.90 470.81
  Q 599.37 469.95 598.67 469.38
  A 0.74 0.71 -23.9 0 0 598.20 469.21
  L 558.51 469.21
  A 1.77 1.77 0.0 0 0 556.74 470.97
  C 556.67 478.67 555.16 484.96 552.96 493.76
  Q 548.21 512.87 536.65 528.93
  Q 530.83 537.02 526.89 541.16
  C 505.37 563.77 477.30 575.43 445.81 569.42
  Q 431.59 566.71 419.50 559.49
  Q 417.66 558.39 411.28 553.60
  Q 406.57 550.06 403.71 546.93
  C 384.43 525.80 376.65 498.33 379.08 469.92
  A 0.69 0.69 0.0 0 0 378.39 469.17
  L 340.71 469.17
  A 0.99 0.98 89.7 0 0 339.73 470.17
  Z"
/>
<path fill="#bebdba" d="
  M 215.67 335.27
  Q 216.12 335.96 216.04 335.58
  Q 216.04 336.37 216.50 336.38
  Q 229.51 336.70 244.52 336.56
  A 2.18 2.17 61.2 0 1 245.75 336.92
  Q 246.65 337.51 247.68 336.46
  A 0.25 0.25 0.0 0 1 248.10 336.70
  Q 248.09 336.73 247.95 336.98
  Q 221.55 384.76 209.68 438.45
  Q 206.30 453.70 203.92 468.95
  Q 202.92 469.02 202.97 469.16
  Q 202.98 468.90 202.93 468.73
  A 0.43 0.41 -7.0 0 0 202.52 468.42
  L 179.41 468.42
  A 0.84 0.84 0.0 0 1 178.57 467.53
  Q 179.41 453.45 182.12 437.02
  Q 186.35 411.37 194.69 385.64
  Q 202.38 361.91 215.08 336.49
  Q 215.39 335.88 215.67 335.27
  Z"
/>
<path fill="#000000" d="
  M 528.21 537.98
  C 515.34 552.78 497.91 564.19 478.91 568.12
  Q 460.99 571.82 442.72 567.54
  C 412.94 560.56 392.62 538.50 383.67 508.78
  Q 380.84 499.35 380.19 488.91
  Q 377.47 444.82 403.81 409.81
  C 423.13 384.14 452.64 369.65 484.77 373.49
  C 513.24 376.89 535.92 394.76 546.98 421.00
  Q 558.50 448.36 555.07 477.11
  Q 550.92 511.86 528.21 537.98
  Z
  M 452.21 549.26
  C 426.06 520.67 425.38 472.08 444.73 439.72
  C 455.10 422.38 470.94 407.41 490.11 400.08
  Q 493.05 398.96 496.78 398.77
  A 0.42 0.42 0.0 0 0 496.90 397.95
  Q 472.90 389.25 449.64 399.17
  C 432.22 406.60 417.55 421.86 409.30 438.47
  Q 397.25 462.75 399.97 488.93
  C 403.12 519.16 421.55 543.12 451.91 549.78
  A 0.31 0.31 0.0 0 0 452.21 549.26
  Z
  M 451.00 484.53
  Q 449.53 490.24 450.88 495.88
  Q 451.66 522.84 470.22 541.77
  Q 473.22 544.83 477.53 547.43
  A 1.33 1.29 53.8 0 0 478.46 547.59
  C 481.41 546.99 483.14 546.78 485.59 545.82
  Q 495.74 541.87 501.80 537.02
  Q 502.82 536.20 505.85 533.90
  C 513.37 528.21 519.70 520.24 524.47 511.72
  Q 534.75 493.34 536.19 472.23
  Q 536.88 470.92 536.60 469.18
  C 537.14 451.02 532.97 431.62 522.01 417.21
  Q 520.36 415.03 518.00 414.45
  C 509.37 412.35 498.44 415.03 490.85 419.15
  Q 482.37 423.75 479.13 426.65
  Q 465.32 439.01 459.08 453.09
  Q 454.59 463.22 452.78 470.53
  Q 451.37 476.24 451.00 484.53
  Z"
/>
<path fill="#5f94b1" d="
  M 452.21 549.26
  A 0.31 0.31 0.0 0 1 451.91 549.78
  C 421.55 543.12 403.12 519.16 399.97 488.93
  Q 397.25 462.75 409.30 438.47
  C 417.55 421.86 432.22 406.60 449.64 399.17
  Q 472.90 389.25 496.90 397.95
  A 0.42 0.42 0.0 0 1 496.78 398.77
  Q 493.05 398.96 490.11 400.08
  C 470.94 407.41 455.10 422.38 444.73 439.72
  C 425.38 472.08 426.06 520.67 452.21 549.26
  Z
  M 449.03 547.66
  A 0.21 0.20 69.3 0 0 449.18 547.32
  Q 444.23 541.52 440.89 534.91
  Q 429.08 511.60 430.47 485.52
  C 432.34 450.68 449.78 421.45 480.03 403.58
  Q 486.13 399.97 492.44 398.24
  A 0.33 0.33 0.0 0 0 492.57 397.67
  Q 492.31 397.43 491.94 397.33
  Q 490.03 396.79 483.00 395.60
  C 463.10 392.23 442.09 400.98 427.98 414.71
  C 405.66 436.42 395.44 468.88 402.81 499.48
  C 408.37 522.55 423.34 540.12 446.22 547.32
  Q 447.51 547.72 449.03 547.66
  Z"
/>
<path fill="#3b7691" d="
  M 449.03 547.66
  Q 447.51 547.72 446.22 547.32
  C 423.34 540.12 408.37 522.55 402.81 499.48
  C 395.44 468.88 405.66 436.42 427.98 414.71
  C 442.09 400.98 463.10 392.23 483.00 395.60
  Q 490.03 396.79 491.94 397.33
  Q 492.31 397.43 492.57 397.67
  A 0.33 0.33 0.0 0 1 492.44 398.24
  Q 486.13 399.97 480.03 403.58
  C 449.78 421.45 432.34 450.68 430.47 485.52
  Q 429.08 511.60 440.89 534.91
  Q 444.23 541.52 449.18 547.32
  A 0.21 0.20 69.3 0 1 449.03 547.66
  Z"
/>
<path fill="#5f94b1" d="
  M 202.97 469.16
  Q 202.92 469.02 203.92 468.95
  Q 203.58 474.42 203.03 479.85
  Q 202.32 486.76 202.15 490.73
  Q 201.33 509.24 201.98 527.78
  Q 201.61 527.38 201.29 527.60
  Q 200.71 528.00 200.74 528.71
  Q 202.16 568.53 213.66 606.91
  A 1.10 1.00 17.7 0 0 213.91 607.34
  Q 214.44 607.88 214.98 607.55
  L 215.24 608.25
  Q 207.49 608.31 199.75 608.18
  Q 198.24 608.16 195.52 608.78
  Q 181.38 569.49 178.26 527.62
  Q 177.86 522.33 177.39 517.03
  Q 176.80 510.42 176.85 506.43
  C 176.96 497.95 176.49 490.13 177.19 482.77
  Q 177.74 476.91 177.81 470.35
  A 1.22 1.22 0.0 0 1 179.03 469.14
  L 202.97 469.16
  Z"
/>
<path fill="#a4cfe5" d="
  M 339.73 470.17
  A 0.99 0.98 89.7 0 1 340.71 469.17
  L 378.39 469.17
  A 0.69 0.69 0.0 0 1 379.08 469.92
  C 376.65 498.33 384.43 525.80 403.71 546.93
  Q 406.57 550.06 411.28 553.60
  Q 417.66 558.39 419.50 559.49
  Q 431.59 566.71 445.81 569.42
  C 477.30 575.43 505.37 563.77 526.89 541.16
  Q 530.83 537.02 536.65 528.93
  Q 548.21 512.87 552.96 493.76
  C 555.16 484.96 556.67 478.67 556.74 470.97
  A 1.77 1.77 0.0 0 1 558.51 469.21
  L 598.20 469.21
  A 0.74 0.71 -23.9 0 1 598.67 469.38
  Q 599.37 469.95 598.90 470.81
  Q 598.57 471.39 598.54 472.00
  Q 598.29 476.76 597.90 480.22
  Q 592.56 528.20 562.82 565.28
  C 557.58 571.81 551.17 577.84 544.97 583.71
  Q 540.33 588.09 529.14 595.63
  Q 511.92 607.24 490.28 612.80
  Q 479.59 615.54 471.62 616.00
  Q 467.45 616.24 464.32 616.54
  C 457.70 617.17 450.90 616.46 444.39 615.96
  C 425.09 614.48 406.26 606.90 390.52 595.47
  Q 384.85 591.35 382.58 589.42
  Q 377.45 585.05 371.66 578.37
  Q 366.31 572.19 362.19 565.79
  Q 347.56 543.08 342.40 515.90
  Q 340.47 505.76 339.89 496.50
  Q 339.79 494.87 340.07 493.66
  A 1.93 1.53 56.8 0 0 340.10 493.33
  L 339.73 470.17
  Z"
/>
<path fill="#a4cfe5" d="
  M 172.92 608.52
  Q 159.95 608.42 147.50 608.37
  Q 146.59 608.37 146.95 609.71
  C 140.05 585.74 135.02 560.91 132.91 536.00
  Q 132.42 530.29 132.30 529.34
  Q 131.68 524.77 131.70 522.67
  C 131.77 516.22 130.71 506.24 130.81 498.78
  Q 130.97 487.50 131.87 475.68
  Q 131.97 474.42 131.72 471.03
  A 1.69 1.68 87.9 0 1 133.39 469.22
  L 155.45 469.22
  A 0.66 0.65 88.1 0 1 156.10 469.84
  C 156.42 476.21 155.30 483.52 155.30 490.32
  Q 155.29 512.04 156.42 525.74
  Q 157.35 537.01 159.35 552.49
  Q 162.61 577.75 172.92 608.52
  Z"
/>
<path fill="#a4cfe5" d="
  M 369.88 608.08
  Q 368.86 608.45 368.00 608.45
  Q 292.86 608.46 216.87 608.61
  Q 212.73 596.84 210.23 584.04
  Q 208.28 574.05 206.12 560.56
  Q 205.81 558.62 205.85 557.08
  A 3.26 3.08 39.3 0 0 205.73 556.15
  Q 204.70 552.41 204.87 548.91
  A 3.51 3.46 -51.3 0 0 204.76 547.83
  C 203.63 543.57 204.04 539.13 203.55 535.05
  Q 203.00 530.51 202.91 525.25
  C 202.64 509.39 202.50 496.97 203.62 482.50
  Q 204.15 475.69 204.85 471.94
  Q 205.01 471.09 204.71 470.50
  A 0.90 0.89 -13.4 0 1 205.51 469.20
  L 317.55 469.20
  A 1.08 1.08 0.0 0 1 318.63 470.35
  Q 315.80 511.35 329.94 549.08
  Q 338.75 572.61 355.60 593.10
  C 359.70 598.09 365.03 603.15 369.88 608.08
  Z"
/>
<path fill="#3b7691" d="
  M 536.60 469.18
  Q 536.88 470.92 536.19 472.23
  Q 536.02 470.56 536.60 469.18
  Z"
/>
<path fill="#a4cfe5" d="
  M 718.81 608.52
  Q 639.77 608.51 561.25 608.60
  Q 559.74 608.60 557.11 608.03
  Q 566.01 600.65 574.03 592.54
  Q 611.91 554.30 623.88 502.20
  Q 627.44 486.68 627.98 470.55
  A 1.39 1.39 0.0 0 1 629.37 469.20
  L 755.75 469.20
  A 1.07 1.06 -88.0 0 1 756.81 470.34
  Q 756.36 477.15 755.25 489.30
  Q 754.31 499.66 752.80 508.13
  Q 745.51 548.97 728.39 587.92
  Q 723.09 599.99 718.81 608.52
  Z"
/>
<path fill="#a4cfe5" d="
  M 773.55 608.39
  L 743.78 608.41
  Q 743.88 607.33 744.11 606.83
  Q 755.71 581.69 764.07 554.60
  Q 776.81 513.32 779.26 470.32
  A 1.06 1.06 0.0 0 1 780.32 469.32
  L 805.90 469.32
  A 0.52 0.51 1.1 0 1 806.42 469.85
  Q 806.24 477.78 805.83 481.20
  Q 805.05 487.65 805.03 489.83
  Q 805.01 490.99 804.12 498.44
  Q 797.92 550.32 777.74 598.52
  Q 775.67 603.48 773.55 608.39
  Z"
/>
<path fill="#5f94b1" d="
  M 451.00 484.53
  L 450.88 495.88
  Q 449.53 490.24 451.00 484.53
  Z"
/>
<path fill="#3b7691" d="
  M 201.98 527.78
  Q 203.40 568.29 215.04 607.10
  Q 215.11 607.33 214.98 607.55
  Q 214.44 607.88 213.91 607.34
  A 1.10 1.00 17.7 0 1 213.66 606.91
  Q 202.16 568.53 200.74 528.71
  Q 200.71 528.00 201.29 527.60
  Q 201.61 527.38 201.98 527.78
  Z"
/>
<path fill="#f496a8" d="
  M 172.92 608.52
  Q 177.80 622.61 181.41 631.37
  Q 189.57 651.16 201.76 672.99
  Q 219.56 704.86 249.79 735.92
  A 4.13 4.13 0.0 0 0 250.59 736.56
  Q 251.38 737.05 251.99 737.69
  A 0.41 0.41 0.0 0 1 251.69 738.38
  L 216.71 738.38
  A 2.57 2.56 71.2 0 1 214.68 737.38
  C 209.58 730.71 201.95 721.41 196.13 712.96
  Q 165.74 668.85 149.44 617.52
  Q 148.20 613.62 146.95 609.71
  Q 146.59 608.37 147.50 608.37
  Q 159.95 608.42 172.92 608.52
  Z"
/>
<path fill="#bc7181" d="
  M 215.24 608.25
  L 216.04 609.03
  Q 215.99 610.31 216.32 611.43
  Q 224.05 637.21 237.40 663.37
  Q 257.85 703.41 292.37 736.37
  Q 293.96 737.89 296.25 737.61
  Q 302.06 736.89 310.58 737.12
  C 326.37 737.55 340.26 737.33 360.82 737.34
  Q 416.99 737.35 467.24 737.38
  C 468.80 737.38 469.93 737.74 471.26 737.56
  Q 472.63 737.37 474.26 737.37
  Q 553.13 737.38 557.04 737.37
  C 558.95 737.36 560.38 737.70 562.76 737.64
  Q 573.57 737.34 601.10 737.20
  Q 601.75 737.20 601.66 737.76
  A 0.48 0.47 3.6 0 1 601.20 738.16
  L 594.46 738.34
  L 294.70 738.64
  Q 290.96 737.77 286.84 738.72
  Q 279.98 734.20 274.08 728.23
  Q 272.52 726.65 269.31 723.70
  Q 267.31 721.86 264.46 719.00
  Q 250.28 704.76 238.65 689.11
  Q 211.25 652.22 195.52 608.78
  Q 198.24 608.16 199.75 608.18
  Q 207.49 608.31 215.24 608.25
  Z"
/>
<path fill="#f496a8" d="
  M 369.88 608.08
  L 371.19 608.66
  A 1.92 1.88 -11.9 0 1 371.63 608.94
  Q 399.15 631.59 434.30 638.41
  C 458.50 643.11 485.65 641.50 509.37 633.36
  Q 533.65 625.03 553.45 610.49
  Q 555.31 609.12 557.11 608.03
  Q 559.74 608.60 561.25 608.60
  Q 639.77 608.51 718.81 608.52
  Q 706.06 632.99 694.71 649.22
  Q 680.60 669.38 665.14 686.37
  Q 654.69 697.84 641.06 710.31
  Q 624.12 725.79 607.81 737.30
  Q 606.36 738.32 604.23 738.49
  Q 602.03 738.66 594.46 738.34
  L 601.20 738.16
  A 0.48 0.47 3.6 0 0 601.66 737.76
  Q 601.75 737.20 601.10 737.20
  Q 573.57 737.34 562.76 737.64
  C 560.38 737.70 558.95 737.36 557.04 737.37
  Q 553.13 737.38 474.26 737.37
  Q 472.63 737.37 471.26 737.56
  C 469.93 737.74 468.80 737.38 467.24 737.38
  Q 416.99 737.35 360.82 737.34
  C 340.26 737.33 326.37 737.55 310.58 737.12
  Q 302.06 736.89 296.25 737.61
  Q 293.96 737.89 292.37 736.37
  Q 257.85 703.41 237.40 663.37
  Q 224.05 637.21 216.32 611.43
  Q 215.99 610.31 216.04 609.03
  Q 217.52 608.65 216.87 608.61
  Q 292.86 608.46 368.00 608.45
  Q 368.86 608.45 369.88 608.08
  Z"
/>
<path fill="#f496a8" d="
  M 773.55 608.39
  Q 760.02 638.46 744.79 662.78
  Q 730.98 684.82 709.83 710.27
  C 706.74 713.99 704.29 716.40 701.21 719.95
  Q 695.35 726.73 685.27 736.79
  Q 683.95 738.10 681.88 738.52
  A 0.69 0.61 -48.6 0 1 681.72 738.54
  L 643.35 738.27
  A 0.40 0.40 0.0 0 1 643.10 737.56
  Q 663.72 720.26 682.51 699.52
  Q 718.73 659.52 742.76 609.26
  Q 743.15 608.45 743.78 608.41
  L 773.55 608.39
  Z"
/>
<path fill="#bebdba" d="
  M 294.70 738.64
  Q 297.03 740.44 304.72 747.04
  Q 319.50 759.74 341.85 771.67
  A 0.16 0.16 0.0 0 1 341.92 771.88
  L 341.92 771.89
  A 0.17 0.16 -65.1 0 1 341.71 771.97
  Q 331.38 767.51 322.26 762.22
  Q 309.04 754.56 303.42 750.84
  Q 296.99 746.58 286.84 738.72
  Q 290.96 737.77 294.70 738.64
  Z"
/>
</svg>
