<?xml version="1.0" encoding="UTF-8" standalone="no"?>
<!DOCTYPE svg PUBLIC "-//W3C//DTD SVG 1.1//EN" "http://www.w3.org/Graphics/SVG/1.1/DTD/svg11.dtd">
<svg xmlns="http://www.w3.org/2000/svg" version="1.1" viewBox="0.00 0.00 1024.00 1024.00">
<g stroke-width="2.00" fill="none" stroke-linecap="butt">
<path stroke="#6d7d6c" vector-effect="non-scaling-stroke" d="
  M 887.31 732.95
  A 0.33 0.33 0.0 0 0 887.61 732.41
  C 886.31 730.81 883.69 729.27 882.07 727.61
  C 864.63 709.78 858.19 686.44 854.45 662.28
  Q 852.63 650.54 850.31 633.30
  C 848.62 620.67 846.29 610.67 842.03 600.47
  C 829.60 570.70 804.68 555.24 774.48 547.26
  Q 752.04 541.33 730.24 540.28
  Q 721.64 539.86 711.76 540.03
  C 706.80 540.11 702.17 538.76 700.29 533.58
  C 698.52 528.70 704.34 525.99 707.88 525.05
  Q 735.17 517.74 769.61 505.83
  C 808.63 492.34 844.16 470.03 870.43 439.66
  Q 897.53 408.33 907.89 364.66
  Q 912.25 346.27 913.75 330.60
  Q 915.42 313.11 917.69 276.03
  C 920.01 238.02 923.16 206.82 929.85 175.82
  Q 938.20 137.09 940.22 125.49
  C 941.13 120.25 942.75 108.39 935.24 107.83
  C 928.39 107.33 920.20 109.88 913.71 112.46
  C 889.12 122.24 866.48 137.37 846.15 154.16
  Q 785.29 204.42 739.07 269.57
  C 704.47 318.36 678.06 373.22 664.54 431.01
  Q 658.45 457.01 656.61 489.52
  C 655.56 508.20 656.76 527.51 659.73 544.28
  C 668.31 592.67 699.63 635.97 737.59 665.93
  Q 760.50 684.02 787.71 694.29
  C 799.18 698.61 817.65 702.84 830.88 709.37
  Q 859.77 723.62 865.11 726.14
  Q 876.02 731.30 887.31 732.95"
/>
<path stroke="#6d7d6c" vector-effect="non-scaling-stroke" d="
  M 696.35 305.79
  L 718.55 268.85
  A 0.60 0.57 47.2 0 0 718.56 268.27
  Q 697.48 228.21 667.64 196.36
  Q 648.44 175.86 623.15 158.11
  Q 586.48 132.37 544.16 122.14
  Q 486.19 108.13 425.65 117.44
  Q 368.01 126.31 313.00 156.06
  Q 251.76 189.18 207.81 241.09
  C 137.03 324.69 98.28 434.75 103.59 543.68
  C 105.23 577.27 110.78 610.07 120.49 640.80
  Q 145.67 720.53 206.68 780.07
  Q 222.46 795.47 243.89 810.58
  Q 305.57 854.07 380.46 858.84
  Q 471.91 864.67 551.87 820.37
  Q 583.80 802.69 611.40 780.14
  C 650.89 747.88 684.30 709.46 708.59 664.04
  A 2.01 2.01 0.0 0 0 708.21 661.65
  C 700.40 654.11 692.91 646.59 686.65 638.17
  A 0.31 0.31 0.0 0 0 686.13 638.21
  Q 677.84 653.52 669.04 667.54
  C 641.22 711.87 602.06 750.74 558.29 778.12
  C 525.45 798.68 490.09 813.48 451.71 820.52
  C 384.80 832.79 314.41 817.25 258.74 778.23
  Q 213.64 746.62 183.59 700.42
  Q 155.27 656.89 142.39 606.67
  Q 126.98 546.60 132.10 485.75
  C 138.39 411.16 166.23 341.12 211.16 281.35
  Q 242.30 239.92 283.81 208.55
  Q 323.96 178.20 372.65 161.65
  Q 407.84 149.69 442.44 147.27
  Q 451.70 146.62 459.75 146.48
  C 515.69 145.53 571.49 162.07 615.41 196.84
  C 651.02 225.02 678.73 263.84 695.89 305.76
  A 0.26 0.26 0.0 0 0 696.35 305.79"
/>
<path stroke="#22412b" vector-effect="non-scaling-stroke" d="
  M 567.41 115.98
  Q 571.67 117.76 579.06 119.99
  Q 583.29 121.27 590.12 124.33
  C 617.94 136.80 643.44 154.31 666.01 174.75
  C 690.80 197.20 710.96 225.31 727.07 254.56
  A 0.56 0.56 0.0 0 0 728.01 254.63
  L 741.51 236.96
  A 1.65 1.65 0.0 0 0 741.56 235.02
  C 726.78 213.41 709.57 193.23 689.79 176.50
  Q 680.06 168.27 674.64 164.36
  Q 648.49 145.50 617.75 131.76
  Q 603.76 125.50 589.26 121.60
  Q 580.00 119.11 578.42 118.55
  Q 573.04 116.62 567.56 115.49
  A 0.26 0.26 0.0 0 0 567.41 115.98"
/>
<path stroke="#6d7d6c" vector-effect="non-scaling-stroke" d="
  M 318.59 791.09
  Q 352.86 805.49 390.26 807.73
  Q 409.18 808.86 424.24 807.65
  C 480.59 803.10 534.18 779.75 578.72 744.22
  Q 604.41 723.73 625.64 699.65
  C 645.14 677.54 661.36 652.24 675.45 625.13
  A 2.42 2.41 41.4 0 0 675.29 622.64
  Q 654.11 592.32 645.43 556.23
  Q 639.77 532.68 639.67 504.92
  Q 639.57 477.93 643.40 453.33
  Q 647.34 428.02 655.63 401.34
  Q 667.21 364.06 685.44 325.93
  Q 686.32 324.09 685.57 322.15
  Q 672.49 287.99 651.23 258.03
  Q 641.93 244.93 631.18 233.54"
/>
<path stroke="#466647" vector-effect="non-scaling-stroke" d="
  M 631.18 233.54
  Q 622.15 223.21 615.70 217.55
  Q 591.33 196.19 558.11 181.38
  Q 537.30 172.10 512.25 167.47
  Q 472.48 160.12 433.39 165.38
  Q 392.48 170.88 355.55 187.13
  C 315.81 204.61 279.50 230.10 249.55 262.32
  Q 208.87 306.09 183.31 361.08
  Q 157.21 417.21 150.24 473.35
  Q 147.66 494.13 147.33 510.74
  Q 146.95 530.17 148.42 548.23
  C 153.81 614.77 180.54 678.81 225.97 728.23
  Q 262.22 767.67 312.17 789.10
  C 314.33 790.03 316.37 790.51 318.59 791.09"
/>
<path stroke="#b0daae" vector-effect="non-scaling-stroke" d="
  M 631.18 233.54
  Q 628.30 233.23 625.23 229.72"
/>
<path stroke="#659e6d" vector-effect="non-scaling-stroke" d="
  M 625.23 229.72
  Q 625.64 229.95 625.99 229.88
  A 0.29 0.28 62.8 0 0 626.14 229.40
  Q 621.25 224.50 617.32 220.30
  C 614.20 216.97 611.71 215.34 607.53 211.82
  Q 603.66 208.56 599.67 205.73
  Q 587.71 197.25 572.74 189.25
  Q 541.14 172.39 504.28 166.94
  C 455.42 159.71 404.81 167.03 359.52 186.35
  Q 317.76 204.16 285.18 230.52
  Q 256.69 253.57 234.80 280.54
  Q 183.81 343.35 161.43 422.66
  Q 153.55 450.56 150.12 482.26
  Q 144.59 533.30 154.29 582.98
  Q 165.32 639.50 195.79 687.58
  Q 201.30 696.28 209.75 707.40
  Q 218.61 719.06 224.97 726.04
  Q 248.16 751.50 280.51 771.99
  Q 287.84 776.64 299.12 781.82
  Q 299.15 781.83 306.28 785.49
  Q 310.58 787.70 315.33 788.90"
/>
<path stroke="#b0daae" vector-effect="non-scaling-stroke" d="
  M 315.33 788.90
  Q 317.39 788.90 318.59 791.09"
/>
<path stroke="#8cb592" vector-effect="non-scaling-stroke" d="
  M 625.23 229.72
  L 616.33 223.31
  A 0.80 0.67 88.8 0 1 616.13 223.08
  Q 615.91 222.70 615.57 222.44
  C 583.38 198.49 545.81 181.90 505.97 176.62
  C 463.51 170.98 419.56 178.93 379.73 193.87
  Q 363.57 199.93 346.64 209.15
  C 316.50 225.57 289.06 246.14 266.26 270.93
  C 254.43 283.80 243.76 296.71 235.58 308.59
  Q 179.93 389.40 171.22 486.02
  Q 166.80 535.05 173.74 580.36
  Q 181.85 633.33 207.62 681.69
  C 223.53 711.54 246.22 739.52 272.77 760.73
  Q 286.70 771.87 302.79 781.72
  Q 305.30 783.25 309.07 785.27
  Q 312.18 786.94 315.33 788.90"
/>
<path stroke="#22412b" vector-effect="non-scaling-stroke" d="
  M 758.21 527.44
  A 0.22 0.22 0.0 0 0 758.39 527.75
  Q 777.45 529.78 796.00 536.71
  A 0.53 0.53 0.0 0 0 796.71 536.28
  L 799.43 512.26
  A 0.41 0.40 -8.9 0 0 798.86 511.85
  Q 778.38 521.12 758.34 527.25
  A 0.18 0.09 -14.2 0 0 758.22 527.35
  Q 758.22 527.41 758.21 527.44"
/>
<path stroke="#22412b" vector-effect="non-scaling-stroke" d="
  M 412.89 874.62
  Q 440.85 875.69 467.23 874.52
  Q 495.59 873.26 519.99 867.44
  Q 539.73 862.73 555.11 857.57
  Q 582.19 848.48 609.40 833.38
  Q 698.79 783.77 751.52 695.98
  A 0.42 0.41 31.7 0 0 751.38 695.42
  Q 735.24 685.45 720.77 672.72
  A 0.27 0.27 0.0 0 0 720.35 672.80
  C 701.66 708.24 676.59 740.65 647.64 768.31
  Q 637.15 778.32 631.04 783.54
  Q 609.63 801.84 585.30 818.05
  Q 564.19 832.12 535.86 845.61
  C 508.51 858.63 477.56 867.12 447.75 871.22
  Q 435.43 872.92 414.88 874.21
  Q 414.04 874.26 412.88 874.51
  A 0.06 0.06 0.0 0 0 412.89 874.62"
/>
<path stroke="#b0daae" vector-effect="non-scaling-stroke" d="
  M 850.03 717.19
  L 859.75 722.20
  A 0.35 0.35 0.0 0 0 860.12 721.62
  Q 857.10 719.28 853.86 716.62
  C 848.96 712.59 841.15 708.51 837.63 706.17
  Q 835.22 704.56 827.84 701.06
  Q 819.40 697.05 803.48 691.74
  Q 787.33 686.34 766.75 675.23
  Q 757.24 670.09 743.82 659.79
  Q 732.93 651.43 723.25 641.25
  Q 706.34 623.47 694.51 604.73
  Q 685.95 591.18 682.08 574.45"
/>
<path stroke="#bde2c6" vector-effect="non-scaling-stroke" d="
  M 682.08 574.45
  L 681.59 564.49
  A 0.77 0.77 0.0 0 1 682.54 563.71
  Q 685.53 564.45 689.04 566.15
  C 700.25 571.57 708.73 575.79 717.72 583.64
  C 735.69 599.35 750.51 615.88 771.29 637.66
  C 774.24 640.75 778.51 644.70 781.39 647.61
  Q 783.49 649.73 786.08 650.95
  A 1.05 1.05 0.0 0 0 787.58 650.02
  C 787.65 646.48 784.28 642.15 782.73 640.37
  Q 776.16 632.79 773.54 629.99
  C 767.74 623.82 761.26 616.02 754.25 608.75
  Q 743.64 597.77 734.17 587.61
  C 731.20 584.42 727.11 580.83 724.43 578.30
  Q 720.62 574.72 716.53 571.89
  Q 713.77 569.98 705.22 563.92
  A 0.42 0.41 66.9 0 1 705.52 563.17
  Q 714.07 564.48 719.52 565.45
  C 730.92 567.47 742.44 572.15 754.34 577.67
  C 766.54 583.33 777.88 591.45 787.75 600.17
  C 792.97 604.78 797.36 607.81 803.42 610.02
  A 1.61 1.61 0.0 0 0 805.54 608.12
  Q 804.89 605.50 802.98 603.68
  Q 788.59 590.02 769.04 577.12
  Q 766.33 575.33 760.69 572.38
  C 754.70 569.24 750.46 566.79 743.56 564.39
  Q 729.63 559.54 718.39 556.83
  C 710.83 555.02 701.99 554.06 693.90 551.99
  Q 691.46 551.36 689.82 550.46
  A 3.20 2.48 23.0 0 1 688.12 547.42
  Q 688.78 544.61 691.33 543.33
  Q 696.82 540.58 702.97 539.92
  A 0.45 0.45 0.0 0 0 703.15 539.09
  Q 697.92 535.99 699.08 530.05
  A 2.53 2.43 -23.0 0 1 699.49 529.09
  Q 701.79 525.88 704.11 525.07
  Q 707.63 523.85 729.16 517.55
  Q 744.43 513.08 770.22 504.21
  Q 809.98 490.55 842.83 464.62
  Q 849.54 459.33 857.46 451.63
  Q 866.88 442.49 870.99 437.49
  Q 897.19 405.69 906.48 365.76
  Q 911.52 344.09 912.63 326.28
  Q 912.94 321.26 913.76 316.79
  Q 914.05 315.19 913.97 312.37
  A 0.25 0.24 -25.5 0 0 913.54 312.22
  Q 913.49 312.27 913.19 313.84
  Q 912.91 315.30 912.78 315.72
  Q 907.78 332.78 903.77 348.05
  C 900.49 360.53 896.56 372.53 892.76 382.04
  C 886.52 397.69 877.87 413.79 867.04 427.01
  Q 846.63 451.94 819.55 469.30
  Q 799.07 482.42 776.26 491.99
  Q 745.91 504.72 713.21 515.92
  Q 711.61 516.47 700.51 521.47
  Q 697.15 522.98 695.54 524.19
  C 692.47 526.49 688.60 529.02 684.56 528.90
  A 0.49 0.48 -85.3 0 1 684.09 528.34
  C 685.65 517.52 691.90 509.41 699.05 499.64
  Q 702.06 495.52 706.08 491.41
  Q 712.96 484.37 713.75 483.75
  Q 741.08 462.08 772.34 444.81
  Q 779.65 440.78 790.61 435.88
  Q 799.28 432.02 809.11 427.36
  Q 816.23 423.99 820.19 420.92
  Q 821.76 419.70 822.08 417.89
  A 0.90 0.89 -87.2 0 0 821.13 416.84
  Q 813.88 417.35 807.33 419.92
  A 0.34 0.34 0.0 0 1 806.93 419.39
  Q 807.59 418.53 809.53 416.52
  Q 821.42 404.20 834.78 388.03
  C 839.24 382.64 844.90 376.04 849.19 370.14
  Q 861.49 353.22 873.01 332.64
  C 882.72 315.28 891.43 298.03 891.92 279.57
  C 892.20 268.75 886.87 257.55 876.49 253.50
  C 868.52 250.39 860.29 250.80 851.26 252.15
  C 835.76 254.45 820.26 260.92 806.54 268.85
  Q 794.30 275.91 783.18 283.40
  A 0.25 0.25 0.0 0 1 782.82 283.07
  C 792.47 265.77 805.34 250.61 819.64 236.64
  Q 837.13 219.54 854.31 205.57
  Q 866.35 195.78 869.67 193.28
  C 871.97 191.55 873.47 189.48 874.49 186.86
  A 0.58 0.58 0.0 0 0 873.75 186.10
  Q 868.58 187.99 863.73 191.23
  Q 843.16 204.92 826.72 220.23
  C 816.94 229.33 808.99 236.12 800.71 245.54
  Q 787.46 260.62 775.28 278.78
  Q 764.94 294.21 759.59 303.21
  C 754.53 311.73 750.45 317.06 744.39 325.89
  C 734.34 340.51 725.38 356.65 717.26 372.18
  C 709.03 387.91 702.68 400.16 696.56 414.87
  Q 694.52 419.77 689.98 434.41
  Q 685.43 449.02 682.84 456.44
  C 676.18 475.50 672.19 495.11 669.03 514.27
  C 666.90 527.24 665.82 536.43 663.93 545.69
  Q 662.60 552.25 664.29 558.50
  Q 670.29 580.71 682.14 600.90
  Q 699.86 631.09 725.95 654.67
  C 729.15 657.56 732.12 659.60 735.04 662.41
  Q 737.32 664.60 741.90 667.90
  Q 764.63 684.27 787.00 692.75
  Q 791.74 694.54 814.01 701.35
  C 826.51 705.18 838.13 711.72 850.03 717.19"
/>
<path stroke="#96cba1" vector-effect="non-scaling-stroke" d="
  M 682.08 574.45
  L 681.77 573.49
  A 0.21 0.21 0.0 0 0 681.36 573.54
  Q 681.24 574.90 681.54 576.05
  Q 683.99 585.52 688.28 594.99
  C 690.18 599.18 692.07 601.81 694.19 605.55
  Q 695.91 608.59 699.16 613.18
  Q 712.55 632.12 728.81 648.28
  C 732.40 651.85 736.36 654.79 741.01 658.72
  Q 748.20 664.80 760.27 672.44
  Q 768.65 677.74 780.51 683.37
  Q 790.50 688.10 797.36 690.52
  Q 812.12 695.71 814.64 696.65
  Q 827.61 701.50 833.51 705.01
  Q 844.82 711.72 848.79 714.48
  Q 849.74 715.14 850.03 717.19"
/>
<path stroke="#b0daae" vector-effect="non-scaling-stroke" d="
  M 686.05 640.55
  Q 672.61 665.82 655.63 689.35
  C 651.85 694.58 646.22 701.41 643.12 705.13
  Q 601.84 754.64 545.92 786.65
  C 516.43 803.54 484.98 815.57 451.51 821.72
  Q 415.45 828.35 380.15 824.56
  C 335.48 819.76 291.88 803.61 255.48 777.22
  Q 238.51 764.92 225.28 752.46
  Q 216.28 743.97 206.63 732.91
  Q 197.49 722.42 189.89 711.68
  Q 148.63 653.36 135.89 582.41
  Q 131.60 558.54 130.46 540.02
  Q 129.48 524.26 130.08 501.49
  Q 130.59 482.22 133.45 463.16
  Q 143.35 397.15 173.72 338.74
  Q 200.14 287.93 238.42 247.42
  Q 255.76 229.05 277.48 211.96
  Q 331.80 169.20 398.75 152.81
  Q 410.07 150.04 429.51 147.26
  C 431.53 146.97 433.44 147.21 435.48 146.78
  Q 436.99 146.46 439.93 146.21
  Q 466.82 143.92 489.91 146.51
  Q 495.04 147.09 497.75 147.40
  Q 510.46 148.86 526.35 152.67
  Q 566.26 162.26 600.36 184.63
  Q 612.41 192.53 626.72 204.94
  C 633.20 210.56 638.08 215.77 645.22 222.88
  Q 646.05 223.71 648.57 226.84
  Q 649.09 227.49 653.26 232.47
  Q 659.02 239.36 667.31 250.92
  C 672.93 258.78 677.65 266.88 682.82 275.90
  Q 689.78 288.06 695.55 302.10
  A 1.06 1.06 0.0 0 0 697.46 302.21
  Q 705.67 287.52 716.18 271.15
  Q 717.60 268.94 716.89 267.61
  Q 700.98 237.39 678.33 210.16
  Q 655.27 182.45 625.06 160.74
  Q 581.68 129.58 528.99 120.09
  C 494.98 113.97 461.45 113.18 427.07 118.39
  Q 380.85 125.40 336.83 145.37
  Q 299.30 162.40 267.58 186.34
  Q 242.08 205.57 224.90 223.91
  Q 211.41 238.32 205.71 245.19
  C 168.08 290.57 140.16 343.46 122.79 399.99
  Q 110.25 440.77 106.07 485.76
  Q 105.86 487.93 105.52 492.50
  C 104.83 501.55 104.23 514.68 104.55 525.24
  C 104.87 535.93 104.78 546.26 105.63 557.24
  Q 108.22 590.52 116.99 624.25
  Q 135.19 694.31 180.52 749.89
  C 182.27 752.04 184.13 753.73 185.64 756.16
  A 2.74 2.68 3.8 0 0 186.30 756.90
  Q 187.05 757.50 195.09 766.62
  Q 201.32 773.67 220.17 791.08
  Q 221.57 792.38 223.01 793.26
  C 225.39 794.72 227.02 796.70 229.57 798.69
  Q 247.24 812.44 264.51 822.51
  Q 319.33 854.46 383.81 857.91
  Q 386.24 858.04 408.53 858.08
  Q 419.33 858.09 427.95 857.22
  Q 442.92 855.71 447.28 855.04
  Q 496.63 847.52 541.31 824.54
  Q 585.23 801.95 619.78 771.52
  Q 630.80 761.81 631.34 761.35
  Q 633.92 759.11 648.19 744.52
  Q 657.85 734.64 664.32 727.03
  Q 688.46 698.68 706.21 666.12
  C 706.99 664.68 708.08 663.19 706.59 661.75
  Q 698.15 653.56 689.51 643.74
  Q 688.28 642.34 687.09 640.50
  A 0.60 0.60 0.0 0 0 686.05 640.55"
/>
<path stroke="#b0daae" vector-effect="non-scaling-stroke" d="
  M 276.91 261.15
  C 258.74 278.88 241.91 299.40 227.78 321.93
  Q 182.37 394.33 173.33 479.01
  Q 173.28 479.48 172.57 484.50
  C 171.83 489.76 172.13 494.61 171.50 499.80
  Q 170.98 504.07 170.95 509.26
  Q 170.85 526.32 170.97 540.00
  C 171.00 543.82 171.99 548.53 171.93 553.01
  Q 171.86 557.29 172.81 561.43
  A 5.04 4.89 40.0 0 1 172.93 562.60
  Q 172.87 566.14 173.72 569.76
  A 4.60 4.04 41.3 0 1 173.84 570.68
  Q 173.91 573.25 174.39 576.57
  Q 180.96 621.98 200.07 663.96
  Q 215.74 698.38 235.95 722.53
  C 243.11 731.07 246.80 735.86 252.91 741.63
  Q 265.88 753.88 269.17 756.60
  Q 285.55 770.11 305.34 782.02
  Q 310.15 784.91 311.89 785.76
  Q 316.32 787.91 318.12 789.53
  A 3.16 3.04 -12.4 0 0 319.10 790.13
  Q 340.77 798.54 353.05 801.14
  Q 371.38 805.02 379.32 805.65
  Q 386.35 806.21 390.35 806.58
  C 398.59 807.35 402.75 807.20 412.80 807.13
  Q 418.29 807.09 424.19 806.49
  Q 438.87 804.98 440.27 804.76
  Q 479.41 798.45 513.00 783.20
  Q 553.10 765.00 589.38 733.89
  Q 642.28 688.51 673.85 625.46
  A 3.10 3.10 0.0 0 0 673.64 622.32
  Q 647.24 583.76 640.76 537.29
  Q 638.14 518.48 638.35 506.50
  Q 638.79 482.25 639.30 477.51
  C 640.55 466.08 641.44 456.50 643.60 445.41
  Q 646.09 432.58 646.52 430.78
  C 655.17 394.56 668.39 359.07 684.53 325.52
  A 3.29 3.28 47.5 0 0 684.64 322.91
  Q 667.36 277.54 636.26 240.75
  C 634.61 238.79 631.33 235.54 628.44 233.61
  C 625.37 231.56 622.90 229.04 619.51 226.46
  C 584.15 199.50 543.05 181.07 498.44 177.01
  Q 486.64 175.93 480.75 175.74
  Q 476.50 175.60 462.97 176.52
  C 454.39 177.11 448.41 177.47 440.75 178.69
  Q 422.10 181.66 402.61 187.29
  Q 382.46 193.10 365.86 200.58
  Q 336.03 214.03 308.98 234.02
  Q 299.31 241.16 292.39 246.93
  Q 286.09 252.19 276.91 261.15"
/>
<path stroke="#b0daae" vector-effect="non-scaling-stroke" d="
  M 361.64 647.66
  Q 373.88 653.77 377.50 655.24
  Q 391.05 660.76 408.99 662.43
  C 429.28 664.32 447.88 662.32 466.53 656.21
  Q 477.07 652.75 480.06 651.30
  Q 511.13 636.29 533.65 613.39
  Q 560.83 585.74 576.54 548.56
  Q 582.46 534.55 586.34 516.59
  Q 589.20 503.39 589.72 496.23
  Q 590.49 485.66 590.88 480.68
  Q 591.13 477.45 590.42 467.98
  Q 589.33 453.52 587.24 443.78
  Q 584.86 432.71 581.60 424.31
  Q 576.63 411.50 573.51 405.68
  Q 569.24 397.74 561.88 386.87
  Q 559.18 382.88 555.72 379.49
  A 10.33 10.21 4.9 0 1 554.56 378.13
  Q 545.35 364.86 541.45 360.54
  Q 533.12 351.30 527.67 346.32
  Q 510.92 331.01 489.54 322.47
  Q 480.14 318.71 463.62 315.62
  C 460.01 314.95 456.53 315.08 453.11 314.50
  Q 449.94 313.95 445.88 313.98
  Q 438.98 314.04 438.61 314.11
  Q 435.95 314.60 430.54 314.86
  C 424.60 315.14 420.45 316.08 413.76 317.30
  C 386.35 322.31 360.55 336.72 340.16 355.65
  Q 297.71 395.05 281.83 450.46
  Q 279.35 459.12 277.71 468.22
  Q 275.83 478.65 275.17 486.26
  Q 271.59 527.06 286.13 565.61
  Q 298.77 599.10 324.32 622.45
  Q 338.75 635.64 359.30 645.37
  Q 359.91 645.66 360.85 646.99
  A 2.20 2.14 -3.9 0 0 361.64 647.66"
/>
<path stroke="#b0daae" vector-effect="non-scaling-stroke" d="
  M 580.4833 647.5673
  A 33.00 32.60 -72.5 0 0 539.4688 669.2370
  A 33.00 32.60 -72.5 0 0 560.6367 710.5127
  A 33.00 32.60 -72.5 0 0 601.6512 688.8430
  A 33.00 32.60 -72.5 0 0 580.4833 647.5673"
/>
<path stroke="#b0daae" vector-effect="non-scaling-stroke" d="
  M 521.9272 704.8008
  A 31.66 30.63 -58.0 0 0 479.1743 715.4186
  A 31.66 30.63 -58.0 0 0 488.3728 758.4992
  A 31.66 30.63 -58.0 0 0 531.1257 747.8814
  A 31.66 30.63 -58.0 0 0 521.9272 704.8008"
/>
<path stroke="#b0daae" vector-effect="non-scaling-stroke" d="
  M 441.1499 740.2687
  A 22.20 21.90 -88.4 0 0 418.6385 761.8485
  A 22.20 21.90 -88.4 0 0 439.9101 784.6513
  A 22.20 21.90 -88.4 0 0 462.4215 763.0715
  A 22.20 21.90 -88.4 0 0 441.1499 740.2687"
/>
<path stroke="#bde2c6" vector-effect="non-scaling-stroke" d="
  M 682.19 504.28
  Q 689.49 494.71 699.85 483.85
  Q 703.90 479.62 709.82 475.34
  Q 738.41 454.73 767.10 438.40
  C 778.69 431.80 786.86 426.34 795.07 418.31
  C 814.42 399.41 832.73 378.60 848.53 356.03
  Q 852.92 349.76 860.96 337.76
  C 865.91 330.38 870.40 321.75 874.75 313.78
  C 880.96 302.45 886.33 288.27 885.37 274.88
  C 884.62 264.44 875.05 258.56 865.27 258.42
  C 855.92 258.28 848.16 260.77 838.79 263.92
  C 823.74 268.97 808.81 276.44 795.37 285.84
  Q 786.98 291.71 785.18 293.19
  Q 776.09 300.67 767.88 310.13
  Q 758.50 320.95 754.13 327.13
  C 740.90 345.83 729.25 367.22 718.51 387.48
  Q 707.54 408.20 700.17 428.68
  C 695.10 442.76 690.31 456.86 686.39 471.10
  Q 682.08 486.73 681.97 504.21
  A 0.12 0.12 0.0 0 0 682.19 504.28"
/>
<path stroke="#b0daae" vector-effect="non-scaling-stroke" d="
  M 359.64 644.44
  Q 360.05 645.58 361.10 646.15"
/>
<path stroke="#8cb592" vector-effect="non-scaling-stroke" d="
  M 361.10 646.15
  C 371.82 651.85 380.29 655.94 390.87 658.35
  C 425.49 666.24 461.17 661.50 492.07 644.10
  C 527.84 623.96 555.52 592.37 572.49 555.30
  Q 580.07 538.73 584.15 521.08
  Q 588.65 501.59 589.25 485.25
  C 590.61 447.95 580.94 412.66 557.60 383.22"
/>
<path stroke="#b0daae" vector-effect="non-scaling-stroke" d="
  M 557.60 383.22
  Q 557.30 381.83 555.75 382.03"
/>
<path stroke="#6d7d6c" vector-effect="non-scaling-stroke" d="
  M 555.75 382.03
  Q 545.41 365.80 532.75 352.75
  Q 498.07 317.01 447.49 315.67
  Q 411.54 314.72 380.63 329.47
  C 348.57 344.78 321.74 372.06 303.40 402.74
  Q 281.70 439.04 276.73 482.62
  Q 275.95 489.43 275.82 496.51
  Q 275.62 507.36 275.76 510.51
  C 277.95 560.06 301.24 610.32 345.51 636.73
  Q 352.53 640.93 359.64 644.44"
/>
<path stroke="#466647" vector-effect="non-scaling-stroke" d="
  M 555.75 382.03
  Q 558.32 387.24 560.77 392.42
  Q 570.88 413.85 574.83 437.42
  C 584.85 497.20 566.35 556.66 525.19 601.15
  Q 507.11 620.71 486.89 632.69
  Q 434.48 663.74 374.90 648.94
  C 370.01 647.73 364.76 645.94 359.64 644.44"
/>
<path stroke="#659e6d" vector-effect="non-scaling-stroke" d="
  M 557.60 383.22
  L 563.28 394.12
  A 1.47 1.44 -55.8 0 1 563.43 394.95
  Q 563.36 395.49 563.53 395.89
  Q 572.38 416.74 575.67 437.28
  Q 578.09 452.35 578.52 465.01
  Q 579.13 483.00 575.48 502.81
  Q 567.52 545.96 542.62 581.30
  Q 538.40 587.29 531.66 595.07
  Q 523.63 604.34 519.81 608.07
  Q 506.60 620.95 490.19 631.65
  C 466.47 647.12 435.27 656.00 406.13 654.51
  Q 400.66 654.23 396.41 653.62
  Q 388.84 652.53 386.76 652.24
  Q 382.37 651.63 375.46 649.84
  Q 375.37 649.81 369.46 648.53
  Q 366.34 647.85 363.43 646.40
  Q 361.09 645.22 361.10 646.15"
/>
<path stroke="#6d7d6c" vector-effect="non-scaling-stroke" d="
  M 531.16 377.39
  C 512.60 352.87 485.66 337.35 455.20 334.16
  Q 441.89 332.77 429.92 333.55
  C 399.32 335.53 371.00 349.54 348.62 370.87
  Q 315.53 402.43 300.51 445.20
  C 284.51 490.76 287.37 541.97 313.41 582.87
  C 328.78 607.01 350.75 624.31 377.69 632.57
  C 409.86 642.44 446.46 636.96 475.49 619.84
  C 509.26 599.93 534.84 568.22 548.85 532.25
  C 568.37 482.16 564.39 421.31 531.16 377.39"
/>
<path stroke="#b0daae" vector-effect="non-scaling-stroke" d="
  M 530.42 378.32
  C 512.03 353.98 485.31 338.56 455.10 335.37
  Q 441.89 333.98 430.02 334.74
  C 399.66 336.67 371.55 350.55 349.32 371.69
  Q 316.47 402.97 301.53 445.39
  C 285.61 490.57 288.40 541.38 314.20 581.98
  C 329.43 605.95 351.21 623.13 377.93 631.35
  C 409.83 641.17 446.15 635.77 474.97 618.81
  C 508.49 599.09 533.89 567.65 547.83 531.98
  C 567.24 482.30 563.35 421.93 530.42 378.32"
/>
<path stroke="#b0daae" vector-effect="non-scaling-stroke" d="
  M 466.6425 384.3141
  A 109.86 93.27 -67.2 0 0 338.0878 449.4464
  A 109.86 93.27 -67.2 0 0 381.4975 586.8659
  A 109.86 93.27 -67.2 0 0 510.0522 521.7336
  A 109.86 93.27 -67.2 0 0 466.6425 384.3141"
/>
<path stroke="#6d7d6c" vector-effect="non-scaling-stroke" d="
  M 466.1946 385.3858
  A 108.73 92.16 -67.2 0 0 339.1011 449.9066
  A 108.73 92.16 -67.2 0 0 381.9254 585.8542
  A 108.73 92.16 -67.2 0 0 509.0189 521.3334
  A 108.73 92.16 -67.2 0 0 466.1946 385.3858"
/>
<path stroke="#22412b" vector-effect="non-scaling-stroke" d="
  M 465.14 402.03
  A 0.20 0.20 0.0 0 0 465.23 401.64
  Q 438.71 389.57 411.30 399.25
  Q 398.42 403.80 388.29 411.77
  C 361.31 432.97 344.90 465.28 345.20 499.61
  Q 345.43 525.07 358.97 546.93
  C 370.85 566.11 391.55 578.97 414.43 577.74
  A 0.27 0.27 0.0 0 0 414.54 577.24
  C 410.73 575.23 407.22 573.85 403.80 571.14
  C 388.14 558.70 378.79 537.67 377.04 518.27
  C 374.60 491.07 380.40 465.04 396.63 443.09
  C 410.45 424.39 428.48 410.92 450.57 404.06
  Q 457.81 401.81 465.14 402.03"
/>
<path stroke="#6d7d6c" vector-effect="non-scaling-stroke" d="
  M 581.0148 648.9172
  A 31.92 31.55 -70.9 0 0 540.7569 668.7563
  A 31.92 31.55 -70.9 0 0 560.1252 709.2428
  A 31.92 31.55 -70.9 0 0 600.3831 689.4037
  A 31.92 31.55 -70.9 0 0 581.0148 648.9172"
/>
<path stroke="#6d7d6c" vector-effect="non-scaling-stroke" d="
  M 588.40 679.33
  A 18.03 18.03 0.0 0 0 570.37 661.30
  A 18.03 18.03 0.0 0 0 552.34 679.33
  A 18.03 18.03 0.0 0 0 570.37 697.36
  A 18.03 18.03 0.0 0 0 588.40 679.33"
/>
<path stroke="#e7d8c4" vector-effect="non-scaling-stroke" d="
  M 587.15 679.38
  A 16.82 16.82 0.0 0 0 570.33 662.56
  A 16.82 16.82 0.0 0 0 553.51 679.38
  A 16.82 16.82 0.0 0 0 570.33 696.20
  A 16.82 16.82 0.0 0 0 587.15 679.38"
/>
<path stroke="#6d7d6c" vector-effect="non-scaling-stroke" d="
  M 521.7385 706.0480
  A 30.54 29.54 -57.1 0 0 480.3476 715.6446
  A 30.54 29.54 -57.1 0 0 488.5615 757.3320
  A 30.54 29.54 -57.1 0 0 529.9524 747.7354
  A 30.54 29.54 -57.1 0 0 521.7385 706.0480"
/>
<path stroke="#806639" vector-effect="non-scaling-stroke" d="
  M 515.0109 718.3809
  A 17.18 16.37 -54.4 0 0 491.6995 722.8206
  A 17.18 16.37 -54.4 0 0 495.0091 746.3191
  A 17.18 16.37 -54.4 0 0 518.3205 741.8794
  A 17.18 16.37 -54.4 0 0 515.0109 718.3809"
/>
<path stroke="#6d7d6c" vector-effect="non-scaling-stroke" d="
  M 442.1280 741.4622
  A 21.09 20.84 -85.6 0 0 419.7314 760.8912
  A 21.09 20.84 -85.6 0 0 438.8920 783.5178
  A 21.09 20.84 -85.6 0 0 461.2886 764.0888
  A 21.09 20.84 -85.6 0 0 442.1280 741.4622"
/>
<path stroke="#6d7d6c" vector-effect="non-scaling-stroke" d="
  M 446.5190 757.1051
  A 8.44 8.21 -40.8 0 0 434.7654 756.4051
  A 8.44 8.21 -40.8 0 0 433.7410 768.1349
  A 8.44 8.21 -40.8 0 0 445.4946 768.8349
  A 8.44 8.21 -40.8 0 0 446.5190 757.1051"
/>
<path stroke="#e7d8c4" vector-effect="non-scaling-stroke" d="
  M 447.04 762.69
  A 7.01 7.01 0.0 0 0 440.03 755.68
  A 7.01 7.01 0.0 0 0 433.02 762.69
  A 7.01 7.01 0.0 0 0 440.03 769.70
  A 7.01 7.01 0.0 0 0 447.04 762.69"
/>
</g>
<path fill="#030805" d="
  M 753.42 221.78
  A 0.35 0.35 0.0 0 0 753.98 221.79
  Q 792.49 174.12 840.24 135.25
  Q 851.21 126.32 867.48 115.49
  C 882.02 105.80 897.83 97.53 914.50 92.01
  Q 923.85 88.91 932.26 88.04
  Q 939.27 87.31 945.26 90.27
  C 953.79 94.49 957.90 105.15 958.06 114.25
  Q 958.28 126.97 955.54 140.02
  C 948.13 175.25 942.38 200.68 938.55 230.53
  Q 936.99 242.66 937.00 243.86
  Q 937.01 246.01 936.29 250.12
  Q 935.96 252.04 935.93 256.84
  A 6.47 6.43 -39.1 0 1 935.81 257.97
  C 934.86 262.45 935.31 266.60 934.73 270.22
  C 933.87 275.66 934.11 277.92 933.94 282.74
  C 933.77 287.41 932.86 292.15 933.00 296.45
  Q 933.09 299.51 932.34 306.04
  Q 931.88 310.03 931.88 315.66
  A 8.79 8.54 51.3 0 1 931.72 317.32
  Q 931.00 321.16 930.94 325.60
  Q 930.89 329.26 930.35 331.39
  C 929.75 333.76 930.04 336.38 929.60 339.17
  Q 928.12 348.49 927.57 351.59
  Q 923.68 373.28 916.62 392.41
  C 899.17 439.66 863.81 477.38 819.80 501.71
  A 1.60 1.60 0.0 0 0 818.96 503.23
  Q 819.08 504.95 818.48 507.70
  Q 817.82 510.72 816.02 525.84
  C 815.64 528.99 814.97 531.51 814.94 534.68
  A 8.27 8.08 51.9 0 1 814.77 536.24
  Q 813.88 540.34 813.83 543.59
  A 2.24 2.22 16.5 0 0 814.89 545.52
  C 820.13 548.76 823.75 550.65 828.18 554.13
  Q 847.19 569.03 856.83 591.91
  C 863.41 607.51 865.72 622.63 868.01 639.99
  Q 869.70 652.77 872.56 667.97
  Q 874.56 678.63 878.17 688.84
  C 883.35 703.47 892.35 715.62 904.22 725.51
  Q 907.96 728.62 908.94 730.99
  C 912.21 738.92 907.48 746.72 899.98 749.52
  Q 898.52 750.07 894.04 750.80
  Q 891.68 751.18 888.01 750.50
  Q 880.37 749.06 879.34 748.70
  Q 862.64 742.80 852.47 737.53
  Q 831.20 726.50 812.15 719.60
  Q 804.79 716.93 790.27 712.18
  Q 779.46 708.65 769.76 703.95
  Q 768.91 703.53 768.41 703.02
  A 1.23 1.22 38.6 0 0 766.48 703.23
  Q 739.88 747.39 704.71 782.70
  Q 695.81 791.64 679.81 805.08
  Q 630.10 846.88 570.02 870.00
  Q 545.93 879.28 517.74 884.99
  Q 511.62 886.23 495.96 888.62
  C 492.99 889.08 489.73 888.84 487.08 889.73
  A 3.29 3.26 34.6 0 1 486.07 889.91
  C 482.52 890.02 480.22 889.88 477.73 890.32
  Q 473.99 890.99 467.25 890.99
  Q 441.57 891.02 439.14 890.98
  C 433.78 890.89 428.96 890.00 423.71 890.00
  Q 421.88 889.99 417.56 889.45
  Q 413.44 888.94 408.24 888.35
  Q 402.32 887.68 398.91 887.16
  Q 360.24 881.23 323.00 868.98
  C 281.08 855.19 241.80 833.28 208.29 803.83
  Q 177.73 776.97 156.44 747.81
  Q 116.09 692.56 98.99 626.50
  Q 92.64 602.00 89.32 574.97
  Q 88.99 572.28 88.89 569.54
  C 88.80 567.27 87.98 564.66 88.02 562.31
  C 88.11 557.58 87.27 553.23 87.11 548.54
  Q 86.34 526.02 86.27 523.67
  Q 86.05 516.47 86.44 509.85
  C 86.99 500.59 86.65 495.87 87.70 489.01
  Q 88.06 486.70 88.00 481.98
  C 87.99 480.50 88.54 478.84 88.71 477.26
  Q 89.98 465.28 91.57 455.08
  Q 94.37 437.06 99.06 417.77
  Q 104.83 394.07 114.92 366.65
  Q 130.05 325.52 154.13 286.11
  Q 187.92 230.80 236.00 188.18
  Q 261.76 165.33 288.34 149.33
  C 321.79 129.18 357.83 114.65 395.63 104.88
  Q 412.17 100.61 433.49 97.50
  Q 446.95 95.53 449.52 95.32
  Q 453.98 94.96 456.66 94.60
  C 462.86 93.78 467.06 93.97 474.59 93.44
  C 483.74 92.78 490.07 93.12 501.50 93.10
  Q 506.56 93.09 510.31 93.55
  C 514.85 94.11 518.60 93.57 523.11 94.42
  Q 526.74 95.10 530.61 95.08
  A 7.42 7.36 -38.1 0 1 532.48 95.30
  C 535.80 96.13 538.94 95.59 541.93 96.51
  C 544.06 97.17 547.37 96.68 549.32 97.50
  C 550.63 98.06 552.28 97.94 553.89 98.20
  Q 580.26 102.46 607.76 111.96
  Q 622.56 117.07 634.04 122.53
  C 655.34 132.65 675.22 144.12 693.53 158.71
  Q 728.08 186.23 753.42 221.78
  Z
  M 887.31 732.95
  A 0.33 0.33 0.0 0 0 887.61 732.41
  C 886.31 730.81 883.69 729.27 882.07 727.61
  C 864.63 709.78 858.19 686.44 854.45 662.28
  Q 852.63 650.54 850.31 633.30
  C 848.62 620.67 846.29 610.67 842.03 600.47
  C 829.60 570.70 804.68 555.24 774.48 547.26
  Q 752.04 541.33 730.24 540.28
  Q 721.64 539.86 711.76 540.03
  C 706.80 540.11 702.17 538.76 700.29 533.58
  C 698.52 528.70 704.34 525.99 707.88 525.05
  Q 735.17 517.74 769.61 505.83
  C 808.63 492.34 844.16 470.03 870.43 439.66
  Q 897.53 408.33 907.89 364.66
  Q 912.25 346.27 913.75 330.60
  Q 915.42 313.11 917.69 276.03
  C 920.01 238.02 923.16 206.82 929.85 175.82
  Q 938.20 137.09 940.22 125.49
  C 941.13 120.25 942.75 108.39 935.24 107.83
  C 928.39 107.33 920.20 109.88 913.71 112.46
  C 889.12 122.24 866.48 137.37 846.15 154.16
  Q 785.29 204.42 739.07 269.57
  C 704.47 318.36 678.06 373.22 664.54 431.01
  Q 658.45 457.01 656.61 489.52
  C 655.56 508.20 656.76 527.51 659.73 544.28
  C 668.31 592.67 699.63 635.97 737.59 665.93
  Q 760.50 684.02 787.71 694.29
  C 799.18 698.61 817.65 702.84 830.88 709.37
  Q 859.77 723.62 865.11 726.14
  Q 876.02 731.30 887.31 732.95
  Z
  M 696.35 305.79
  L 718.55 268.85
  A 0.60 0.57 47.2 0 0 718.56 268.27
  Q 697.48 228.21 667.64 196.36
  Q 648.44 175.86 623.15 158.11
  Q 586.48 132.37 544.16 122.14
  Q 486.19 108.13 425.65 117.44
  Q 368.01 126.31 313.00 156.06
  Q 251.76 189.18 207.81 241.09
  C 137.03 324.69 98.28 434.75 103.59 543.68
  C 105.23 577.27 110.78 610.07 120.49 640.80
  Q 145.67 720.53 206.68 780.07
  Q 222.46 795.47 243.89 810.58
  Q 305.57 854.07 380.46 858.84
  Q 471.91 864.67 551.87 820.37
  Q 583.80 802.69 611.40 780.14
  C 650.89 747.88 684.30 709.46 708.59 664.04
  A 2.01 2.01 0.0 0 0 708.21 661.65
  C 700.40 654.11 692.91 646.59 686.65 638.17
  A 0.31 0.31 0.0 0 0 686.13 638.21
  Q 677.84 653.52 669.04 667.54
  C 641.22 711.87 602.06 750.74 558.29 778.12
  C 525.45 798.68 490.09 813.48 451.71 820.52
  C 384.80 832.79 314.41 817.25 258.74 778.23
  Q 213.64 746.62 183.59 700.42
  Q 155.27 656.89 142.39 606.67
  Q 126.98 546.60 132.10 485.75
  C 138.39 411.16 166.23 341.12 211.16 281.35
  Q 242.30 239.92 283.81 208.55
  Q 323.96 178.20 372.65 161.65
  Q 407.84 149.69 442.44 147.27
  Q 451.70 146.62 459.75 146.48
  C 515.69 145.53 571.49 162.07 615.41 196.84
  C 651.02 225.02 678.73 263.84 695.89 305.76
  A 0.26 0.26 0.0 0 0 696.35 305.79
  Z
  M 567.41 115.98
  Q 571.67 117.76 579.06 119.99
  Q 583.29 121.27 590.12 124.33
  C 617.94 136.80 643.44 154.31 666.01 174.75
  C 690.80 197.20 710.96 225.31 727.07 254.56
  A 0.56 0.56 0.0 0 0 728.01 254.63
  L 741.51 236.96
  A 1.65 1.65 0.0 0 0 741.56 235.02
  C 726.78 213.41 709.57 193.23 689.79 176.50
  Q 680.06 168.27 674.64 164.36
  Q 648.49 145.50 617.75 131.76
  Q 603.76 125.50 589.26 121.60
  Q 580.00 119.11 578.42 118.55
  Q 573.04 116.62 567.56 115.49
  A 0.26 0.26 0.0 0 0 567.41 115.98
  Z
  M 318.59 791.09
  Q 352.86 805.49 390.26 807.73
  Q 409.18 808.86 424.24 807.65
  C 480.59 803.10 534.18 779.75 578.72 744.22
  Q 604.41 723.73 625.64 699.65
  C 645.14 677.54 661.36 652.24 675.45 625.13
  A 2.42 2.41 41.4 0 0 675.29 622.64
  Q 654.11 592.32 645.43 556.23
  Q 639.77 532.68 639.67 504.92
  Q 639.57 477.93 643.40 453.33
  Q 647.34 428.02 655.63 401.34
  Q 667.21 364.06 685.44 325.93
  Q 686.32 324.09 685.57 322.15
  Q 672.49 287.99 651.23 258.03
  Q 641.93 244.93 631.18 233.54
  Q 622.15 223.21 615.70 217.55
  Q 591.33 196.19 558.11 181.38
  Q 537.30 172.10 512.25 167.47
  Q 472.48 160.12 433.39 165.38
  Q 392.48 170.88 355.55 187.13
  C 315.81 204.61 279.50 230.10 249.55 262.32
  Q 208.87 306.09 183.31 361.08
  Q 157.21 417.21 150.24 473.35
  Q 147.66 494.13 147.33 510.74
  Q 146.95 530.17 148.42 548.23
  C 153.81 614.77 180.54 678.81 225.97 728.23
  Q 262.22 767.67 312.17 789.10
  C 314.33 790.03 316.37 790.51 318.59 791.09
  Z
  M 758.21 527.44
  A 0.22 0.22 0.0 0 0 758.39 527.75
  Q 777.45 529.78 796.00 536.71
  A 0.53 0.53 0.0 0 0 796.71 536.28
  L 799.43 512.26
  A 0.41 0.40 -8.9 0 0 798.86 511.85
  Q 778.38 521.12 758.34 527.25
  A 0.18 0.09 -14.2 0 0 758.22 527.35
  Q 758.22 527.41 758.21 527.44
  Z
  M 412.89 874.62
  Q 440.85 875.69 467.23 874.52
  Q 495.59 873.26 519.99 867.44
  Q 539.73 862.73 555.11 857.57
  Q 582.19 848.48 609.40 833.38
  Q 698.79 783.77 751.52 695.98
  A 0.42 0.41 31.7 0 0 751.38 695.42
  Q 735.24 685.45 720.77 672.72
  A 0.27 0.27 0.0 0 0 720.35 672.80
  C 701.66 708.24 676.59 740.65 647.64 768.31
  Q 637.15 778.32 631.04 783.54
  Q 609.63 801.84 585.30 818.05
  Q 564.19 832.12 535.86 845.61
  C 508.51 858.63 477.56 867.12 447.75 871.22
  Q 435.43 872.92 414.88 874.21
  Q 414.04 874.26 412.88 874.51
  A 0.06 0.06 0.0 0 0 412.89 874.62
  Z"
/>
<path fill="#d7f1d2" d="
  M 887.31 732.95
  Q 876.02 731.30 865.11 726.14
  Q 859.77 723.62 830.88 709.37
  C 817.65 702.84 799.18 698.61 787.71 694.29
  Q 760.50 684.02 737.59 665.93
  C 699.63 635.97 668.31 592.67 659.73 544.28
  C 656.76 527.51 655.56 508.20 656.61 489.52
  Q 658.45 457.01 664.54 431.01
  C 678.06 373.22 704.47 318.36 739.07 269.57
  Q 785.29 204.42 846.15 154.16
  C 866.48 137.37 889.12 122.24 913.71 112.46
  C 920.20 109.88 928.39 107.33 935.24 107.83
  C 942.75 108.39 941.13 120.25 940.22 125.49
  Q 938.20 137.09 929.85 175.82
  C 923.16 206.82 920.01 238.02 917.69 276.03
  Q 915.42 313.11 913.75 330.60
  Q 912.25 346.27 907.89 364.66
  Q 897.53 408.33 870.43 439.66
  C 844.16 470.03 808.63 492.34 769.61 505.83
  Q 735.17 517.74 707.88 525.05
  C 704.34 525.99 698.52 528.70 700.29 533.58
  C 702.17 538.76 706.80 540.11 711.76 540.03
  Q 721.64 539.86 730.24 540.28
  Q 752.04 541.33 774.48 547.26
  C 804.68 555.24 829.60 570.70 842.03 600.47
  C 846.29 610.67 848.62 620.67 850.31 633.30
  Q 852.63 650.54 854.45 662.28
  C 858.19 686.44 864.63 709.78 882.07 727.61
  C 883.69 729.27 886.31 730.81 887.61 732.41
  A 0.33 0.33 0.0 0 1 887.31 732.95
  Z
  M 850.03 717.19
  L 859.75 722.20
  A 0.35 0.35 0.0 0 0 860.12 721.62
  Q 857.10 719.28 853.86 716.62
  C 848.96 712.59 841.15 708.51 837.63 706.17
  Q 835.22 704.56 827.84 701.06
  Q 819.40 697.05 803.48 691.74
  Q 787.33 686.34 766.75 675.23
  Q 757.24 670.09 743.82 659.79
  Q 732.93 651.43 723.25 641.25
  Q 706.34 623.47 694.51 604.73
  Q 685.95 591.18 682.08 574.45
  L 681.59 564.49
  A 0.77 0.77 0.0 0 1 682.54 563.71
  Q 685.53 564.45 689.04 566.15
  C 700.25 571.57 708.73 575.79 717.72 583.64
  C 735.69 599.35 750.51 615.88 771.29 637.66
  C 774.24 640.75 778.51 644.70 781.39 647.61
  Q 783.49 649.73 786.08 650.95
  A 1.05 1.05 0.0 0 0 787.58 650.02
  C 787.65 646.48 784.28 642.15 782.73 640.37
  Q 776.16 632.79 773.54 629.99
  C 767.74 623.82 761.26 616.02 754.25 608.75
  Q 743.64 597.77 734.17 587.61
  C 731.20 584.42 727.11 580.83 724.43 578.30
  Q 720.62 574.72 716.53 571.89
  Q 713.77 569.98 705.22 563.92
  A 0.42 0.41 66.9 0 1 705.52 563.17
  Q 714.07 564.48 719.52 565.45
  C 730.92 567.47 742.44 572.15 754.34 577.67
  C 766.54 583.33 777.88 591.45 787.75 600.17
  C 792.97 604.78 797.36 607.81 803.42 610.02
  A 1.61 1.61 0.0 0 0 805.54 608.12
  Q 804.89 605.50 802.98 603.68
  Q 788.59 590.02 769.04 577.12
  Q 766.33 575.33 760.69 572.38
  C 754.70 569.24 750.46 566.79 743.56 564.39
  Q 729.63 559.54 718.39 556.83
  C 710.83 555.02 701.99 554.06 693.90 551.99
  Q 691.46 551.36 689.82 550.46
  A 3.20 2.48 23.0 0 1 688.12 547.42
  Q 688.78 544.61 691.33 543.33
  Q 696.82 540.58 702.97 539.92
  A 0.45 0.45 0.0 0 0 703.15 539.09
  Q 697.92 535.99 699.08 530.05
  A 2.53 2.43 -23.0 0 1 699.49 529.09
  Q 701.79 525.88 704.11 525.07
  Q 707.63 523.85 729.16 517.55
  Q 744.43 513.08 770.22 504.21
  Q 809.98 490.55 842.83 464.62
  Q 849.54 459.33 857.46 451.63
  Q 866.88 442.49 870.99 437.49
  Q 897.19 405.69 906.48 365.76
  Q 911.52 344.09 912.63 326.28
  Q 912.94 321.26 913.76 316.79
  Q 914.05 315.19 913.97 312.37
  A 0.25 0.24 -25.5 0 0 913.54 312.22
  Q 913.49 312.27 913.19 313.84
  Q 912.91 315.30 912.78 315.72
  Q 907.78 332.78 903.77 348.05
  C 900.49 360.53 896.56 372.53 892.76 382.04
  C 886.52 397.69 877.87 413.79 867.04 427.01
  Q 846.63 451.94 819.55 469.30
  Q 799.07 482.42 776.26 491.99
  Q 745.91 504.72 713.21 515.92
  Q 711.61 516.47 700.51 521.47
  Q 697.15 522.98 695.54 524.19
  C 692.47 526.49 688.60 529.02 684.56 528.90
  A 0.49 0.48 -85.3 0 1 684.09 528.34
  C 685.65 517.52 691.90 509.41 699.05 499.64
  Q 702.06 495.52 706.08 491.41
  Q 712.96 484.37 713.75 483.75
  Q 741.08 462.08 772.34 444.81
  Q 779.65 440.78 790.61 435.88
  Q 799.28 432.02 809.11 427.36
  Q 816.23 423.99 820.19 420.92
  Q 821.76 419.70 822.08 417.89
  A 0.90 0.89 -87.2 0 0 821.13 416.84
  Q 813.88 417.35 807.33 419.92
  A 0.34 0.34 0.0 0 1 806.93 419.39
  Q 807.59 418.53 809.53 416.52
  Q 821.42 404.20 834.78 388.03
  C 839.24 382.64 844.90 376.04 849.19 370.14
  Q 861.49 353.22 873.01 332.64
  C 882.72 315.28 891.43 298.03 891.92 279.57
  C 892.20 268.75 886.87 257.55 876.49 253.50
  C 868.52 250.39 860.29 250.80 851.26 252.15
  C 835.76 254.45 820.26 260.92 806.54 268.85
  Q 794.30 275.91 783.18 283.40
  A 0.25 0.25 0.0 0 1 782.82 283.07
  C 792.47 265.77 805.34 250.61 819.64 236.64
  Q 837.13 219.54 854.31 205.57
  Q 866.35 195.78 869.67 193.28
  C 871.97 191.55 873.47 189.48 874.49 186.86
  A 0.58 0.58 0.0 0 0 873.75 186.10
  Q 868.58 187.99 863.73 191.23
  Q 843.16 204.92 826.72 220.23
  C 816.94 229.33 808.99 236.12 800.71 245.54
  Q 787.46 260.62 775.28 278.78
  Q 764.94 294.21 759.59 303.21
  C 754.53 311.73 750.45 317.06 744.39 325.89
  C 734.34 340.51 725.38 356.65 717.26 372.18
  C 709.03 387.91 702.68 400.16 696.56 414.87
  Q 694.52 419.77 689.98 434.41
  Q 685.43 449.02 682.84 456.44
  C 676.18 475.50 672.19 495.11 669.03 514.27
  C 666.90 527.24 665.82 536.43 663.93 545.69
  Q 662.60 552.25 664.29 558.50
  Q 670.29 580.71 682.14 600.90
  Q 699.86 631.09 725.95 654.67
  C 729.15 657.56 732.12 659.60 735.04 662.41
  Q 737.32 664.60 741.90 667.90
  Q 764.63 684.27 787.00 692.75
  Q 791.74 694.54 814.01 701.35
  C 826.51 705.18 838.13 711.72 850.03 717.19
  Z"
/>
<path fill="#d7f1d2" d="
  M 696.35 305.79
  A 0.26 0.26 0.0 0 1 695.89 305.76
  C 678.73 263.84 651.02 225.02 615.41 196.84
  C 571.49 162.07 515.69 145.53 459.75 146.48
  Q 451.70 146.62 442.44 147.27
  Q 407.84 149.69 372.65 161.65
  Q 323.96 178.20 283.81 208.55
  Q 242.30 239.92 211.16 281.35
  C 166.23 341.12 138.39 411.16 132.10 485.75
  Q 126.98 546.60 142.39 606.67
  Q 155.27 656.89 183.59 700.42
  Q 213.64 746.62 258.74 778.23
  C 314.41 817.25 384.80 832.79 451.71 820.52
  C 490.09 813.48 525.45 798.68 558.29 778.12
  C 602.06 750.74 641.22 711.87 669.04 667.54
  Q 677.84 653.52 686.13 638.21
  A 0.31 0.31 0.0 0 1 686.65 638.17
  C 692.91 646.59 700.40 654.11 708.21 661.65
  A 2.01 2.01 0.0 0 1 708.59 664.04
  C 684.30 709.46 650.89 747.88 611.40 780.14
  Q 583.80 802.69 551.87 820.37
  Q 471.91 864.67 380.46 858.84
  Q 305.57 854.07 243.89 810.58
  Q 222.46 795.47 206.68 780.07
  Q 145.67 720.53 120.49 640.80
  C 110.78 610.07 105.23 577.27 103.59 543.68
  C 98.28 434.75 137.03 324.69 207.81 241.09
  Q 251.76 189.18 313.00 156.06
  Q 368.01 126.31 425.65 117.44
  Q 486.19 108.13 544.16 122.14
  Q 586.48 132.37 623.15 158.11
  Q 648.44 175.86 667.64 196.36
  Q 697.48 228.21 718.56 268.27
  A 0.60 0.57 47.2 0 1 718.55 268.85
  L 696.35 305.79
  Z
  M 686.05 640.55
  Q 672.61 665.82 655.63 689.35
  C 651.85 694.58 646.22 701.41 643.12 705.13
  Q 601.84 754.64 545.92 786.65
  C 516.43 803.54 484.98 815.57 451.51 821.72
  Q 415.45 828.35 380.15 824.56
  C 335.48 819.76 291.88 803.61 255.48 777.22
  Q 238.51 764.92 225.28 752.46
  Q 216.28 743.97 206.63 732.91
  Q 197.49 722.42 189.89 711.68
  Q 148.63 653.36 135.89 582.41
  Q 131.60 558.54 130.46 540.02
  Q 129.48 524.26 130.08 501.49
  Q 130.59 482.22 133.45 463.16
  Q 143.35 397.15 173.72 338.74
  Q 200.14 287.93 238.42 247.42
  Q 255.76 229.05 277.48 211.96
  Q 331.80 169.20 398.75 152.81
  Q 410.07 150.04 429.51 147.26
  C 431.53 146.97 433.44 147.21 435.48 146.78
  Q 436.99 146.46 439.93 146.21
  Q 466.82 143.92 489.91 146.51
  Q 495.04 147.09 497.75 147.40
  Q 510.46 148.86 526.35 152.67
  Q 566.26 162.26 600.36 184.63
  Q 612.41 192.53 626.72 204.94
  C 633.20 210.56 638.08 215.77 645.22 222.88
  Q 646.05 223.71 648.57 226.84
  Q 649.09 227.49 653.26 232.47
  Q 659.02 239.36 667.31 250.92
  C 672.93 258.78 677.65 266.88 682.82 275.90
  Q 689.78 288.06 695.55 302.10
  A 1.06 1.06 0.0 0 0 697.46 302.21
  Q 705.67 287.52 716.18 271.15
  Q 717.60 268.94 716.89 267.61
  Q 700.98 237.39 678.33 210.16
  Q 655.27 182.45 625.06 160.74
  Q 581.68 129.58 528.99 120.09
  C 494.98 113.97 461.45 113.18 427.07 118.39
  Q 380.85 125.40 336.83 145.37
  Q 299.30 162.40 267.58 186.34
  Q 242.08 205.57 224.90 223.91
  Q 211.41 238.32 205.71 245.19
  C 168.08 290.57 140.16 343.46 122.79 399.99
  Q 110.25 440.77 106.07 485.76
  Q 105.86 487.93 105.52 492.50
  C 104.83 501.55 104.23 514.68 104.55 525.24
  C 104.87 535.93 104.78 546.26 105.63 557.24
  Q 108.22 590.52 116.99 624.25
  Q 135.19 694.31 180.52 749.89
  C 182.27 752.04 184.13 753.73 185.64 756.16
  A 2.74 2.68 3.8 0 0 186.30 756.90
  Q 187.05 757.50 195.09 766.62
  Q 201.32 773.67 220.17 791.08
  Q 221.57 792.38 223.01 793.26
  C 225.39 794.72 227.02 796.70 229.57 798.69
  Q 247.24 812.44 264.51 822.51
  Q 319.33 854.46 383.81 857.91
  Q 386.24 858.04 408.53 858.08
  Q 419.33 858.09 427.95 857.22
  Q 442.92 855.71 447.28 855.04
  Q 496.63 847.52 541.31 824.54
  Q 585.23 801.95 619.78 771.52
  Q 630.80 761.81 631.34 761.35
  Q 633.92 759.11 648.19 744.52
  Q 657.85 734.64 664.32 727.03
  Q 688.46 698.68 706.21 666.12
  C 706.99 664.68 708.08 663.19 706.59 661.75
  Q 698.15 653.56 689.51 643.74
  Q 688.28 642.34 687.09 640.50
  A 0.60 0.60 0.0 0 0 686.05 640.55
  Z"
/>
<path fill="#89c389" d="
  M 686.05 640.55
  A 0.60 0.60 0.0 0 1 687.09 640.50
  Q 688.28 642.34 689.51 643.74
  Q 698.15 653.56 706.59 661.75
  C 708.08 663.19 706.99 664.68 706.21 666.12
  Q 688.46 698.68 664.32 727.03
  Q 657.85 734.64 648.19 744.52
  Q 633.92 759.11 631.34 761.35
  Q 630.80 761.81 619.78 771.52
  Q 585.23 801.95 541.31 824.54
  Q 496.63 847.52 447.28 855.04
  Q 442.92 855.71 427.95 857.22
  Q 419.33 858.09 408.53 858.08
  Q 386.24 858.04 383.81 857.91
  Q 319.33 854.46 264.51 822.51
  Q 247.24 812.44 229.57 798.69
  C 227.02 796.70 225.39 794.72 223.01 793.26
  Q 221.57 792.38 220.17 791.08
  Q 201.32 773.67 195.09 766.62
  Q 187.05 757.50 186.30 756.90
  A 2.74 2.68 3.8 0 1 185.64 756.16
  C 184.13 753.73 182.27 752.04 180.52 749.89
  Q 135.19 694.31 116.99 624.25
  Q 108.22 590.52 105.63 557.24
  C 104.78 546.26 104.87 535.93 104.55 525.24
  C 104.23 514.68 104.83 501.55 105.52 492.50
  Q 105.86 487.93 106.07 485.76
  Q 110.25 440.77 122.79 399.99
  C 140.16 343.46 168.08 290.57 205.71 245.19
  Q 211.41 238.32 224.90 223.91
  Q 242.08 205.57 267.58 186.34
  Q 299.30 162.40 336.83 145.37
  Q 380.85 125.40 427.07 118.39
  C 461.45 113.18 494.98 113.97 528.99 120.09
  Q 581.68 129.58 625.06 160.74
  Q 655.27 182.45 678.33 210.16
  Q 700.98 237.39 716.89 267.61
  Q 717.60 268.94 716.18 271.15
  Q 705.67 287.52 697.46 302.21
  A 1.06 1.06 0.0 0 1 695.55 302.10
  Q 689.78 288.06 682.82 275.90
  C 677.65 266.88 672.93 258.78 667.31 250.92
  Q 659.02 239.36 653.26 232.47
  Q 649.09 227.49 648.57 226.84
  Q 646.05 223.71 645.22 222.88
  C 638.08 215.77 633.20 210.56 626.72 204.94
  Q 612.41 192.53 600.36 184.63
  Q 566.26 162.26 526.35 152.67
  Q 510.46 148.86 497.75 147.40
  Q 495.04 147.09 489.91 146.51
  Q 466.82 143.92 439.93 146.21
  Q 436.99 146.46 435.48 146.78
  C 433.44 147.21 431.53 146.97 429.51 147.26
  Q 410.07 150.04 398.75 152.81
  Q 331.80 169.20 277.48 211.96
  Q 255.76 229.05 238.42 247.42
  Q 200.14 287.93 173.72 338.74
  Q 143.35 397.15 133.45 463.16
  Q 130.59 482.22 130.08 501.49
  Q 129.48 524.26 130.46 540.02
  Q 131.60 558.54 135.89 582.41
  Q 148.63 653.36 189.89 711.68
  Q 197.49 722.42 206.63 732.91
  Q 216.28 743.97 225.28 752.46
  Q 238.51 764.92 255.48 777.22
  C 291.88 803.61 335.48 819.76 380.15 824.56
  Q 415.45 828.35 451.51 821.72
  C 484.98 815.57 516.43 803.54 545.92 786.65
  Q 601.84 754.64 643.12 705.13
  C 646.22 701.41 651.85 694.58 655.63 689.35
  Q 672.61 665.82 686.05 640.55
  Z"
/>
<path fill="#407951" d="
  M 567.56 115.49
  Q 573.04 116.62 578.42 118.55
  Q 580.00 119.11 589.26 121.60
  Q 603.76 125.50 617.75 131.76
  Q 648.49 145.50 674.64 164.36
  Q 680.06 168.27 689.79 176.50
  C 709.57 193.23 726.78 213.41 741.56 235.02
  A 1.65 1.65 0.0 0 1 741.51 236.96
  L 728.01 254.63
  A 0.56 0.56 0.0 0 1 727.07 254.56
  C 710.96 225.31 690.80 197.20 666.01 174.75
  C 643.44 154.31 617.94 136.80 590.12 124.33
  Q 583.29 121.27 579.06 119.99
  Q 571.67 117.76 567.41 115.98
  A 0.26 0.26 0.0 0 1 567.56 115.49
  Z"
/>
<path fill="#89c389" d="
  M 631.18 233.54
  Q 628.30 233.23 625.23 229.72
  Q 625.64 229.95 625.99 229.88
  A 0.29 0.28 62.8 0 0 626.14 229.40
  Q 621.25 224.50 617.32 220.30
  C 614.20 216.97 611.71 215.34 607.53 211.82
  Q 603.66 208.56 599.67 205.73
  Q 587.71 197.25 572.74 189.25
  Q 541.14 172.39 504.28 166.94
  C 455.42 159.71 404.81 167.03 359.52 186.35
  Q 317.76 204.16 285.18 230.52
  Q 256.69 253.57 234.80 280.54
  Q 183.81 343.35 161.43 422.66
  Q 153.55 450.56 150.12 482.26
  Q 144.59 533.30 154.29 582.98
  Q 165.32 639.50 195.79 687.58
  Q 201.30 696.28 209.75 707.40
  Q 218.61 719.06 224.97 726.04
  Q 248.16 751.50 280.51 771.99
  Q 287.84 776.64 299.12 781.82
  Q 299.15 781.83 306.28 785.49
  Q 310.58 787.70 315.33 788.90
  Q 317.39 788.90 318.59 791.09
  C 316.37 790.51 314.33 790.03 312.17 789.10
  Q 262.22 767.67 225.97 728.23
  C 180.54 678.81 153.81 614.77 148.42 548.23
  Q 146.95 530.17 147.33 510.74
  Q 147.66 494.13 150.24 473.35
  Q 157.21 417.21 183.31 361.08
  Q 208.87 306.09 249.55 262.32
  C 279.50 230.10 315.81 204.61 355.55 187.13
  Q 392.48 170.88 433.39 165.38
  Q 472.48 160.12 512.25 167.47
  Q 537.30 172.10 558.11 181.38
  Q 591.33 196.19 615.70 217.55
  Q 622.15 223.21 631.18 233.54
  Z"
/>
<path fill="#407951" d="
  M 625.23 229.72
  L 616.33 223.31
  A 0.80 0.67 88.8 0 1 616.13 223.08
  Q 615.91 222.70 615.57 222.44
  C 583.38 198.49 545.81 181.90 505.97 176.62
  C 463.51 170.98 419.56 178.93 379.73 193.87
  Q 363.57 199.93 346.64 209.15
  C 316.50 225.57 289.06 246.14 266.26 270.93
  C 254.43 283.80 243.76 296.71 235.58 308.59
  Q 179.93 389.40 171.22 486.02
  Q 166.80 535.05 173.74 580.36
  Q 181.85 633.33 207.62 681.69
  C 223.53 711.54 246.22 739.52 272.77 760.73
  Q 286.70 771.87 302.79 781.72
  Q 305.30 783.25 309.07 785.27
  Q 312.18 786.94 315.33 788.90
  Q 310.58 787.70 306.28 785.49
  Q 299.15 781.83 299.12 781.82
  Q 287.84 776.64 280.51 771.99
  Q 248.16 751.50 224.97 726.04
  Q 218.61 719.06 209.75 707.40
  Q 201.30 696.28 195.79 687.58
  Q 165.32 639.50 154.29 582.98
  Q 144.59 533.30 150.12 482.26
  Q 153.55 450.56 161.43 422.66
  Q 183.81 343.35 234.80 280.54
  Q 256.69 253.57 285.18 230.52
  Q 317.76 204.16 359.52 186.35
  C 404.81 167.03 455.42 159.71 504.28 166.94
  Q 541.14 172.39 572.74 189.25
  Q 587.71 197.25 599.67 205.73
  Q 603.66 208.56 607.53 211.82
  C 611.71 215.34 614.20 216.97 617.32 220.30
  Q 621.25 224.50 626.14 229.40
  A 0.29 0.28 62.8 0 1 625.99 229.88
  Q 625.64 229.95 625.23 229.72
  Z"
/>
<path fill="#d7f1d2" d="
  M 625.23 229.72
  Q 628.30 233.23 631.18 233.54
  Q 641.93 244.93 651.23 258.03
  Q 672.49 287.99 685.57 322.15
  Q 686.32 324.09 685.44 325.93
  Q 667.21 364.06 655.63 401.34
  Q 647.34 428.02 643.40 453.33
  Q 639.57 477.93 639.67 504.92
  Q 639.77 532.68 645.43 556.23
  Q 654.11 592.32 675.29 622.64
  A 2.42 2.41 41.4 0 1 675.45 625.13
  C 661.36 652.24 645.14 677.54 625.64 699.65
  Q 604.41 723.73 578.72 744.22
  C 534.18 779.75 480.59 803.10 424.24 807.65
  Q 409.18 808.86 390.26 807.73
  Q 352.86 805.49 318.59 791.09
  Q 317.39 788.90 315.33 788.90
  Q 312.18 786.94 309.07 785.27
  Q 305.30 783.25 302.79 781.72
  Q 286.70 771.87 272.77 760.73
  C 246.22 739.52 223.53 711.54 207.62 681.69
  Q 181.85 633.33 173.74 580.36
  Q 166.80 535.05 171.22 486.02
  Q 179.93 389.40 235.58 308.59
  C 243.76 296.71 254.43 283.80 266.26 270.93
  C 289.06 246.14 316.50 225.57 346.64 209.15
  Q 363.57 199.93 379.73 193.87
  C 419.56 178.93 463.51 170.98 505.97 176.62
  C 545.81 181.90 583.38 198.49 615.57 222.44
  Q 615.91 222.70 616.13 223.08
  A 0.80 0.67 88.8 0 0 616.33 223.31
  L 625.23 229.72
  Z
  M 276.91 261.15
  C 258.74 278.88 241.91 299.40 227.78 321.93
  Q 182.37 394.33 173.33 479.01
  Q 173.28 479.48 172.57 484.50
  C 171.83 489.76 172.13 494.61 171.50 499.80
  Q 170.98 504.07 170.95 509.26
  Q 170.85 526.32 170.97 540.00
  C 171.00 543.82 171.99 548.53 171.93 553.01
  Q 171.86 557.29 172.81 561.43
  A 5.04 4.89 40.0 0 1 172.93 562.60
  Q 172.87 566.14 173.72 569.76
  A 4.60 4.04 41.3 0 1 173.84 570.68
  Q 173.91 573.25 174.39 576.57
  Q 180.96 621.98 200.07 663.96
  Q 215.74 698.38 235.95 722.53
  C 243.11 731.07 246.80 735.86 252.91 741.63
  Q 265.88 753.88 269.17 756.60
  Q 285.55 770.11 305.34 782.02
  Q 310.15 784.91 311.89 785.76
  Q 316.32 787.91 318.12 789.53
  A 3.16 3.04 -12.4 0 0 319.10 790.13
  Q 340.77 798.54 353.05 801.14
  Q 371.38 805.02 379.32 805.65
  Q 386.35 806.21 390.35 806.58
  C 398.59 807.35 402.75 807.20 412.80 807.13
  Q 418.29 807.09 424.19 806.49
  Q 438.87 804.98 440.27 804.76
  Q 479.41 798.45 513.00 783.20
  Q 553.10 765.00 589.38 733.89
  Q 642.28 688.51 673.85 625.46
  A 3.10 3.10 0.0 0 0 673.64 622.32
  Q 647.24 583.76 640.76 537.29
  Q 638.14 518.48 638.35 506.50
  Q 638.79 482.25 639.30 477.51
  C 640.55 466.08 641.44 456.50 643.60 445.41
  Q 646.09 432.58 646.52 430.78
  C 655.17 394.56 668.39 359.07 684.53 325.52
  A 3.29 3.28 47.5 0 0 684.64 322.91
  Q 667.36 277.54 636.26 240.75
  C 634.61 238.79 631.33 235.54 628.44 233.61
  C 625.37 231.56 622.90 229.04 619.51 226.46
  C 584.15 199.50 543.05 181.07 498.44 177.01
  Q 486.64 175.93 480.75 175.74
  Q 476.50 175.60 462.97 176.52
  C 454.39 177.11 448.41 177.47 440.75 178.69
  Q 422.10 181.66 402.61 187.29
  Q 382.46 193.10 365.86 200.58
  Q 336.03 214.03 308.98 234.02
  Q 299.31 241.16 292.39 246.93
  Q 286.09 252.19 276.91 261.15
  Z"
/>
<path fill="#89c389" d="
  M 276.91 261.15
  Q 286.09 252.19 292.39 246.93
  Q 299.31 241.16 308.98 234.02
  Q 336.03 214.03 365.86 200.58
  Q 382.46 193.10 402.61 187.29
  Q 422.10 181.66 440.75 178.69
  C 448.41 177.47 454.39 177.11 462.97 176.52
  Q 476.50 175.60 480.75 175.74
  Q 486.64 175.93 498.44 177.01
  C 543.05 181.07 584.15 199.50 619.51 226.46
  C 622.90 229.04 625.37 231.56 628.44 233.61
  C 631.33 235.54 634.61 238.79 636.26 240.75
  Q 667.36 277.54 684.64 322.91
  A 3.29 3.28 47.5 0 1 684.53 325.52
  C 668.39 359.07 655.17 394.56 646.52 430.78
  Q 646.09 432.58 643.60 445.41
  C 641.44 456.50 640.55 466.08 639.30 477.51
  Q 638.79 482.25 638.35 506.50
  Q 638.14 518.48 640.76 537.29
  Q 647.24 583.76 673.64 622.32
  A 3.10 3.10 0.0 0 1 673.85 625.46
  Q 642.28 688.51 589.38 733.89
  Q 553.10 765.00 513.00 783.20
  Q 479.41 798.45 440.27 804.76
  Q 438.87 804.98 424.19 806.49
  Q 418.29 807.09 412.80 807.13
  C 402.75 807.20 398.59 807.35 390.35 806.58
  Q 386.35 806.21 379.32 805.65
  Q 371.38 805.02 353.05 801.14
  Q 340.77 798.54 319.10 790.13
  A 3.16 3.04 -12.4 0 1 318.12 789.53
  Q 316.32 787.91 311.89 785.76
  Q 310.15 784.91 305.34 782.02
  Q 285.55 770.11 269.17 756.60
  Q 265.88 753.88 252.91 741.63
  C 246.80 735.86 243.11 731.07 235.95 722.53
  Q 215.74 698.38 200.07 663.96
  Q 180.96 621.98 174.39 576.57
  Q 173.91 573.25 173.84 570.68
  A 4.60 4.04 41.3 0 0 173.72 569.76
  Q 172.87 566.14 172.93 562.60
  A 5.04 4.89 40.0 0 0 172.81 561.43
  Q 171.86 557.29 171.93 553.01
  C 171.99 548.53 171.00 543.82 170.97 540.00
  Q 170.85 526.32 170.95 509.26
  Q 170.98 504.07 171.50 499.80
  C 172.13 494.61 171.83 489.76 172.57 484.50
  Q 173.28 479.48 173.33 479.01
  Q 182.37 394.33 227.78 321.93
  C 241.91 299.40 258.74 278.88 276.91 261.15
  Z
  M 361.64 647.66
  Q 373.88 653.77 377.50 655.24
  Q 391.05 660.76 408.99 662.43
  C 429.28 664.32 447.88 662.32 466.53 656.21
  Q 477.07 652.75 480.06 651.30
  Q 511.13 636.29 533.65 613.39
  Q 560.83 585.74 576.54 548.56
  Q 582.46 534.55 586.34 516.59
  Q 589.20 503.39 589.72 496.23
  Q 590.49 485.66 590.88 480.68
  Q 591.13 477.45 590.42 467.98
  Q 589.33 453.52 587.24 443.78
  Q 584.86 432.71 581.60 424.31
  Q 576.63 411.50 573.51 405.68
  Q 569.24 397.74 561.88 386.87
  Q 559.18 382.88 555.72 379.49
  A 10.33 10.21 4.9 0 1 554.56 378.13
  Q 545.35 364.86 541.45 360.54
  Q 533.12 351.30 527.67 346.32
  Q 510.92 331.01 489.54 322.47
  Q 480.14 318.71 463.62 315.62
  C 460.01 314.95 456.53 315.08 453.11 314.50
  Q 449.94 313.95 445.88 313.98
  Q 438.98 314.04 438.61 314.11
  Q 435.95 314.60 430.54 314.86
  C 424.60 315.14 420.45 316.08 413.76 317.30
  C 386.35 322.31 360.55 336.72 340.16 355.65
  Q 297.71 395.05 281.83 450.46
  Q 279.35 459.12 277.71 468.22
  Q 275.83 478.65 275.17 486.26
  Q 271.59 527.06 286.13 565.61
  Q 298.77 599.10 324.32 622.45
  Q 338.75 635.64 359.30 645.37
  Q 359.91 645.66 360.85 646.99
  A 2.20 2.14 -3.9 0 0 361.64 647.66
  Z
  M 580.4833 647.5673
  A 33.00 32.60 -72.5 0 0 539.4688 669.2370
  A 33.00 32.60 -72.5 0 0 560.6367 710.5127
  A 33.00 32.60 -72.5 0 0 601.6512 688.8430
  A 33.00 32.60 -72.5 0 0 580.4833 647.5673
  Z
  M 521.9272 704.8008
  A 31.66 30.63 -58.0 0 0 479.1743 715.4186
  A 31.66 30.63 -58.0 0 0 488.3728 758.4992
  A 31.66 30.63 -58.0 0 0 531.1257 747.8814
  A 31.66 30.63 -58.0 0 0 521.9272 704.8008
  Z
  M 441.1499 740.2687
  A 22.20 21.90 -88.4 0 0 418.6385 761.8485
  A 22.20 21.90 -88.4 0 0 439.9101 784.6513
  A 22.20 21.90 -88.4 0 0 462.4215 763.0715
  A 22.20 21.90 -88.4 0 0 441.1499 740.2687
  Z"
/>
<path fill="#a2d3b9" d="
  M 682.08 574.45
  L 681.77 573.49
  A 0.21 0.21 0.0 0 0 681.36 573.54
  Q 681.24 574.90 681.54 576.05
  Q 683.99 585.52 688.28 594.99
  C 690.18 599.18 692.07 601.81 694.19 605.55
  Q 695.91 608.59 699.16 613.18
  Q 712.55 632.12 728.81 648.28
  C 732.40 651.85 736.36 654.79 741.01 658.72
  Q 748.20 664.80 760.27 672.44
  Q 768.65 677.74 780.51 683.37
  Q 790.50 688.10 797.36 690.52
  Q 812.12 695.71 814.64 696.65
  Q 827.61 701.50 833.51 705.01
  Q 844.82 711.72 848.79 714.48
  Q 849.74 715.14 850.03 717.19
  C 838.13 711.72 826.51 705.18 814.01 701.35
  Q 791.74 694.54 787.00 692.75
  Q 764.63 684.27 741.90 667.90
  Q 737.32 664.60 735.04 662.41
  C 732.12 659.60 729.15 657.56 725.95 654.67
  Q 699.86 631.09 682.14 600.90
  Q 670.29 580.71 664.29 558.50
  Q 662.60 552.25 663.93 545.69
  C 665.82 536.43 666.90 527.24 669.03 514.27
  C 672.19 495.11 676.18 475.50 682.84 456.44
  Q 685.43 449.02 689.98 434.41
  Q 694.52 419.77 696.56 414.87
  C 702.68 400.16 709.03 387.91 717.26 372.18
  C 725.38 356.65 734.34 340.51 744.39 325.89
  C 750.45 317.06 754.53 311.73 759.59 303.21
  Q 764.94 294.21 775.28 278.78
  Q 787.46 260.62 800.71 245.54
  C 808.99 236.12 816.94 229.33 826.72 220.23
  Q 843.16 204.92 863.73 191.23
  Q 868.58 187.99 873.75 186.10
  A 0.58 0.58 0.0 0 1 874.49 186.86
  C 873.47 189.48 871.97 191.55 869.67 193.28
  Q 866.35 195.78 854.31 205.57
  Q 837.13 219.54 819.64 236.64
  C 805.34 250.61 792.47 265.77 782.82 283.07
  A 0.25 0.25 0.0 0 0 783.18 283.40
  Q 794.30 275.91 806.54 268.85
  C 820.26 260.92 835.76 254.45 851.26 252.15
  C 860.29 250.80 868.52 250.39 876.49 253.50
  C 886.87 257.55 892.20 268.75 891.92 279.57
  C 891.43 298.03 882.72 315.28 873.01 332.64
  Q 861.49 353.22 849.19 370.14
  C 844.90 376.04 839.24 382.64 834.78 388.03
  Q 821.42 404.20 809.53 416.52
  Q 807.59 418.53 806.93 419.39
  A 0.34 0.34 0.0 0 0 807.33 419.92
  Q 813.88 417.35 821.13 416.84
  A 0.90 0.89 -87.2 0 1 822.08 417.89
  Q 821.76 419.70 820.19 420.92
  Q 816.23 423.99 809.11 427.36
  Q 799.28 432.02 790.61 435.88
  Q 779.65 440.78 772.34 444.81
  Q 741.08 462.08 713.75 483.75
  Q 712.96 484.37 706.08 491.41
  Q 702.06 495.52 699.05 499.64
  C 691.90 509.41 685.65 517.52 684.09 528.34
  A 0.49 0.48 -85.3 0 0 684.56 528.90
  C 688.60 529.02 692.47 526.49 695.54 524.19
  Q 697.15 522.98 700.51 521.47
  Q 711.61 516.47 713.21 515.92
  Q 745.91 504.72 776.26 491.99
  Q 799.07 482.42 819.55 469.30
  Q 846.63 451.94 867.04 427.01
  C 877.87 413.79 886.52 397.69 892.76 382.04
  C 896.56 372.53 900.49 360.53 903.77 348.05
  Q 907.78 332.78 912.78 315.72
  Q 912.91 315.30 913.19 313.84
  Q 913.49 312.27 913.54 312.22
  A 0.25 0.24 -25.5 0 1 913.97 312.37
  Q 914.05 315.19 913.76 316.79
  Q 912.94 321.26 912.63 326.28
  Q 911.52 344.09 906.48 365.76
  Q 897.19 405.69 870.99 437.49
  Q 866.88 442.49 857.46 451.63
  Q 849.54 459.33 842.83 464.62
  Q 809.98 490.55 770.22 504.21
  Q 744.43 513.08 729.16 517.55
  Q 707.63 523.85 704.11 525.07
  Q 701.79 525.88 699.49 529.09
  A 2.53 2.43 -23.0 0 0 699.08 530.05
  Q 697.92 535.99 703.15 539.09
  A 0.45 0.45 0.0 0 1 702.97 539.92
  Q 696.82 540.58 691.33 543.33
  Q 688.78 544.61 688.12 547.42
  A 3.20 2.48 23.0 0 0 689.82 550.46
  Q 691.46 551.36 693.90 551.99
  C 701.99 554.06 710.83 555.02 718.39 556.83
  Q 729.63 559.54 743.56 564.39
  C 750.46 566.79 754.70 569.24 760.69 572.38
  Q 766.33 575.33 769.04 577.12
  Q 788.59 590.02 802.98 603.68
  Q 804.89 605.50 805.54 608.12
  A 1.61 1.61 0.0 0 1 803.42 610.02
  C 797.36 607.81 792.97 604.78 787.75 600.17
  C 777.88 591.45 766.54 583.33 754.34 577.67
  C 742.44 572.15 730.92 567.47 719.52 565.45
  Q 714.07 564.48 705.52 563.17
  A 0.42 0.41 66.9 0 0 705.22 563.92
  Q 713.77 569.98 716.53 571.89
  Q 720.62 574.72 724.43 578.30
  C 727.11 580.83 731.20 584.42 734.17 587.61
  Q 743.64 597.77 754.25 608.75
  C 761.26 616.02 767.74 623.82 773.54 629.99
  Q 776.16 632.79 782.73 640.37
  C 784.28 642.15 787.65 646.48 787.58 650.02
  A 1.05 1.05 0.0 0 1 786.08 650.95
  Q 783.49 649.73 781.39 647.61
  C 778.51 644.70 774.24 640.75 771.29 637.66
  C 750.51 615.88 735.69 599.35 717.72 583.64
  C 708.73 575.79 700.25 571.57 689.04 566.15
  Q 685.53 564.45 682.54 563.71
  A 0.77 0.77 0.0 0 0 681.59 564.49
  L 682.08 574.45
  Z
  M 682.19 504.28
  Q 689.49 494.71 699.85 483.85
  Q 703.90 479.62 709.82 475.34
  Q 738.41 454.73 767.10 438.40
  C 778.69 431.80 786.86 426.34 795.07 418.31
  C 814.42 399.41 832.73 378.60 848.53 356.03
  Q 852.92 349.76 860.96 337.76
  C 865.91 330.38 870.40 321.75 874.75 313.78
  C 880.96 302.45 886.33 288.27 885.37 274.88
  C 884.62 264.44 875.05 258.56 865.27 258.42
  C 855.92 258.28 848.16 260.77 838.79 263.92
  C 823.74 268.97 808.81 276.44 795.37 285.84
  Q 786.98 291.71 785.18 293.19
  Q 776.09 300.67 767.88 310.13
  Q 758.50 320.95 754.13 327.13
  C 740.90 345.83 729.25 367.22 718.51 387.48
  Q 707.54 408.20 700.17 428.68
  C 695.10 442.76 690.31 456.86 686.39 471.10
  Q 682.08 486.73 681.97 504.21
  A 0.12 0.12 0.0 0 0 682.19 504.28
  Z"
/>
<path fill="#d7f1d2" d="
  M 682.19 504.28
  A 0.12 0.12 0.0 0 1 681.97 504.21
  Q 682.08 486.73 686.39 471.10
  C 690.31 456.86 695.10 442.76 700.17 428.68
  Q 707.54 408.20 718.51 387.48
  C 729.25 367.22 740.90 345.83 754.13 327.13
  Q 758.50 320.95 767.88 310.13
  Q 776.09 300.67 785.18 293.19
  Q 786.98 291.71 795.37 285.84
  C 808.81 276.44 823.74 268.97 838.79 263.92
  C 848.16 260.77 855.92 258.28 865.27 258.42
  C 875.05 258.56 884.62 264.44 885.37 274.88
  C 886.33 288.27 880.96 302.45 874.75 313.78
  C 870.40 321.75 865.91 330.38 860.96 337.76
  Q 852.92 349.76 848.53 356.03
  C 832.73 378.60 814.42 399.41 795.07 418.31
  C 786.86 426.34 778.69 431.80 767.10 438.40
  Q 738.41 454.73 709.82 475.34
  Q 703.90 479.62 699.85 483.85
  Q 689.49 494.71 682.19 504.28
  Z"
/>
<path fill="#d7f1d2" d="
  M 360.85 646.99
  Q 359.91 645.66 359.30 645.37
  Q 338.75 635.64 324.32 622.45
  Q 298.77 599.10 286.13 565.61
  Q 271.59 527.06 275.17 486.26
  Q 275.83 478.65 277.71 468.22
  Q 279.35 459.12 281.83 450.46
  Q 297.71 395.05 340.16 355.65
  C 360.55 336.72 386.35 322.31 413.76 317.30
  C 420.45 316.08 424.60 315.14 430.54 314.86
  Q 435.95 314.60 438.61 314.11
  Q 438.98 314.04 445.88 313.98
  Q 449.94 313.95 453.11 314.50
  C 456.53 315.08 460.01 314.95 463.62 315.62
  Q 480.14 318.71 489.54 322.47
  Q 510.92 331.01 527.67 346.32
  Q 533.12 351.30 541.45 360.54
  Q 545.35 364.86 554.56 378.13
  A 10.33 10.21 4.9 0 0 555.72 379.49
  Q 559.18 382.88 561.88 386.87
  Q 569.24 397.74 573.51 405.68
  Q 576.63 411.50 581.60 424.31
  Q 584.86 432.71 587.24 443.78
  Q 589.33 453.52 590.42 467.98
  Q 591.13 477.45 590.88 480.68
  Q 590.49 485.66 589.72 496.23
  Q 589.20 503.39 586.34 516.59
  Q 582.46 534.55 576.54 548.56
  Q 560.83 585.74 533.65 613.39
  Q 511.13 636.29 480.06 651.30
  Q 477.07 652.75 466.53 656.21
  C 447.88 662.32 429.28 664.32 408.99 662.43
  Q 391.05 660.76 377.50 655.24
  Q 373.88 653.77 361.64 647.66
  A 2.20 2.14 -3.9 0 1 360.85 646.99
  Z
  M 359.64 644.44
  Q 360.05 645.58 361.10 646.15
  C 371.82 651.85 380.29 655.94 390.87 658.35
  C 425.49 666.24 461.17 661.50 492.07 644.10
  C 527.84 623.96 555.52 592.37 572.49 555.30
  Q 580.07 538.73 584.15 521.08
  Q 588.65 501.59 589.25 485.25
  C 590.61 447.95 580.94 412.66 557.60 383.22
  Q 557.30 381.83 555.75 382.03
  Q 545.41 365.80 532.75 352.75
  Q 498.07 317.01 447.49 315.67
  Q 411.54 314.72 380.63 329.47
  C 348.57 344.78 321.74 372.06 303.40 402.74
  Q 281.70 439.04 276.73 482.62
  Q 275.95 489.43 275.82 496.51
  Q 275.62 507.36 275.76 510.51
  C 277.95 560.06 301.24 610.32 345.51 636.73
  Q 352.53 640.93 359.64 644.44
  Z"
/>
<path fill="#030805" d="
  M 555.75 382.03
  Q 558.32 387.24 560.77 392.42
  Q 570.88 413.85 574.83 437.42
  C 584.85 497.20 566.35 556.66 525.19 601.15
  Q 507.11 620.71 486.89 632.69
  Q 434.48 663.74 374.90 648.94
  C 370.01 647.73 364.76 645.94 359.64 644.44
  Q 352.53 640.93 345.51 636.73
  C 301.24 610.32 277.95 560.06 275.76 510.51
  Q 275.62 507.36 275.82 496.51
  Q 275.95 489.43 276.73 482.62
  Q 281.70 439.04 303.40 402.74
  C 321.74 372.06 348.57 344.78 380.63 329.47
  Q 411.54 314.72 447.49 315.67
  Q 498.07 317.01 532.75 352.75
  Q 545.41 365.80 555.75 382.03
  Z
  M 531.16 377.39
  C 512.60 352.87 485.66 337.35 455.20 334.16
  Q 441.89 332.77 429.92 333.55
  C 399.32 335.53 371.00 349.54 348.62 370.87
  Q 315.53 402.43 300.51 445.20
  C 284.51 490.76 287.37 541.97 313.41 582.87
  C 328.78 607.01 350.75 624.31 377.69 632.57
  C 409.86 642.44 446.46 636.96 475.49 619.84
  C 509.26 599.93 534.84 568.22 548.85 532.25
  C 568.37 482.16 564.39 421.31 531.16 377.39
  Z"
/>
<path fill="#d7f1d2" d="
  M 455.20 334.16
  C 485.66 337.35 512.60 352.87 531.16 377.39
  C 564.39 421.31 568.37 482.16 548.85 532.25
  C 534.84 568.22 509.26 599.93 475.49 619.84
  C 446.46 636.96 409.86 642.44 377.69 632.57
  C 350.75 624.31 328.78 607.01 313.41 582.87
  C 287.37 541.97 284.51 490.76 300.51 445.20
  Q 315.53 402.43 348.62 370.87
  C 371.00 349.54 399.32 335.53 429.92 333.55
  Q 441.89 332.77 455.20 334.16
  Z
  M 530.42 378.32
  C 512.03 353.98 485.31 338.56 455.10 335.37
  Q 441.89 333.98 430.02 334.74
  C 399.66 336.67 371.55 350.55 349.32 371.69
  Q 316.47 402.97 301.53 445.39
  C 285.61 490.57 288.40 541.38 314.20 581.98
  C 329.43 605.95 351.21 623.13 377.93 631.35
  C 409.83 641.17 446.15 635.77 474.97 618.81
  C 508.49 599.09 533.89 567.65 547.83 531.98
  C 567.24 482.30 563.35 421.93 530.42 378.32
  Z"
/>
<path fill="#89c389" d="
  M 530.42 378.32
  C 563.35 421.93 567.24 482.30 547.83 531.98
  C 533.89 567.65 508.49 599.09 474.97 618.81
  C 446.15 635.77 409.83 641.17 377.93 631.35
  C 351.21 623.13 329.43 605.95 314.20 581.98
  C 288.40 541.38 285.61 490.57 301.53 445.39
  Q 316.47 402.97 349.32 371.69
  C 371.55 350.55 399.66 336.67 430.02 334.74
  Q 441.89 333.98 455.10 335.37
  C 485.31 338.56 512.03 353.98 530.42 378.32
  Z
  M 466.6425 384.3141
  A 109.86 93.27 -67.2 0 0 338.0878 449.4464
  A 109.86 93.27 -67.2 0 0 381.4975 586.8659
  A 109.86 93.27 -67.2 0 0 510.0522 521.7336
  A 109.86 93.27 -67.2 0 0 466.6425 384.3141
  Z"
/>
<path fill="#d7f1d2" d="
  M 466.6425 384.3141
  A 109.86 93.27 -67.2 0 1 510.0522 521.7336
  A 109.86 93.27 -67.2 0 1 381.4975 586.8659
  A 109.86 93.27 -67.2 0 1 338.0878 449.4464
  A 109.86 93.27 -67.2 0 1 466.6425 384.3141
  Z
  M 466.1946 385.3858
  A 108.73 92.16 -67.2 0 0 339.1011 449.9066
  A 108.73 92.16 -67.2 0 0 381.9254 585.8542
  A 108.73 92.16 -67.2 0 0 509.0189 521.3334
  A 108.73 92.16 -67.2 0 0 466.1946 385.3858
  Z"
/>
<path fill="#030805" d="
  M 466.1946 385.3858
  A 108.73 92.16 -67.2 0 1 509.0189 521.3334
  A 108.73 92.16 -67.2 0 1 381.9254 585.8542
  A 108.73 92.16 -67.2 0 1 339.1011 449.9066
  A 108.73 92.16 -67.2 0 1 466.1946 385.3858
  Z
  M 465.14 402.03
  A 0.20 0.20 0.0 0 0 465.23 401.64
  Q 438.71 389.57 411.30 399.25
  Q 398.42 403.80 388.29 411.77
  C 361.31 432.97 344.90 465.28 345.20 499.61
  Q 345.43 525.07 358.97 546.93
  C 370.85 566.11 391.55 578.97 414.43 577.74
  A 0.27 0.27 0.0 0 0 414.54 577.24
  C 410.73 575.23 407.22 573.85 403.80 571.14
  C 388.14 558.70 378.79 537.67 377.04 518.27
  C 374.60 491.07 380.40 465.04 396.63 443.09
  C 410.45 424.39 428.48 410.92 450.57 404.06
  Q 457.81 401.81 465.14 402.03
  Z
  M 403.24 540.56
  Q 409.87 555.88 422.98 565.98
  Q 427.98 569.84 432.69 571.80
  A 3.58 3.56 -42.8 0 0 435.21 571.89
  Q 439.98 570.29 446.78 567.48
  Q 450.08 566.12 453.74 563.85
  Q 460.39 559.72 460.42 559.70
  C 485.15 541.10 501.21 513.79 503.67 482.97
  Q 504.73 469.73 502.56 457.37
  Q 499.98 442.72 491.87 428.87
  Q 491.38 428.04 486.93 422.46
  A 1.37 1.34 -13.6 0 0 486.09 421.96
  Q 477.27 420.41 470.50 421.12
  C 444.73 423.79 422.40 439.83 409.03 462.05
  C 401.48 474.60 397.22 489.91 396.98 505.42
  Q 396.86 513.46 397.05 515.27
  Q 398.56 529.75 403.24 540.56
  Z"
/>
<path fill="#89c389" d="
  M 557.60 383.22
  L 563.28 394.12
  A 1.47 1.44 -55.8 0 1 563.43 394.95
  Q 563.36 395.49 563.53 395.89
  Q 572.38 416.74 575.67 437.28
  Q 578.09 452.35 578.52 465.01
  Q 579.13 483.00 575.48 502.81
  Q 567.52 545.96 542.62 581.30
  Q 538.40 587.29 531.66 595.07
  Q 523.63 604.34 519.81 608.07
  Q 506.60 620.95 490.19 631.65
  C 466.47 647.12 435.27 656.00 406.13 654.51
  Q 400.66 654.23 396.41 653.62
  Q 388.84 652.53 386.76 652.24
  Q 382.37 651.63 375.46 649.84
  Q 375.37 649.81 369.46 648.53
  Q 366.34 647.85 363.43 646.40
  Q 361.09 645.22 361.10 646.15
  Q 360.05 645.58 359.64 644.44
  C 364.76 645.94 370.01 647.73 374.90 648.94
  Q 434.48 663.74 486.89 632.69
  Q 507.11 620.71 525.19 601.15
  C 566.35 556.66 584.85 497.20 574.83 437.42
  Q 570.88 413.85 560.77 392.42
  Q 558.32 387.24 555.75 382.03
  Q 557.30 381.83 557.60 383.22
  Z"
/>
<path fill="#407951" d="
  M 557.60 383.22
  C 580.94 412.66 590.61 447.95 589.25 485.25
  Q 588.65 501.59 584.15 521.08
  Q 580.07 538.73 572.49 555.30
  C 555.52 592.37 527.84 623.96 492.07 644.10
  C 461.17 661.50 425.49 666.24 390.87 658.35
  C 380.29 655.94 371.82 651.85 361.10 646.15
  Q 361.09 645.22 363.43 646.40
  Q 366.34 647.85 369.46 648.53
  Q 375.37 649.81 375.46 649.84
  Q 382.37 651.63 386.76 652.24
  Q 388.84 652.53 396.41 653.62
  Q 400.66 654.23 406.13 654.51
  C 435.27 656.00 466.47 647.12 490.19 631.65
  Q 506.60 620.95 519.81 608.07
  Q 523.63 604.34 531.66 595.07
  Q 538.40 587.29 542.62 581.30
  Q 567.52 545.96 575.48 502.81
  Q 579.13 483.00 578.52 465.01
  Q 578.09 452.35 575.67 437.28
  Q 572.38 416.74 563.53 395.89
  Q 563.36 395.49 563.43 394.95
  A 1.47 1.44 -55.8 0 0 563.28 394.12
  L 557.60 383.22
  Z"
/>
<path fill="#407951" d="
  M 465.14 402.03
  Q 457.81 401.81 450.57 404.06
  C 428.48 410.92 410.45 424.39 396.63 443.09
  C 380.40 465.04 374.60 491.07 377.04 518.27
  C 378.79 537.67 388.14 558.70 403.80 571.14
  C 407.22 573.85 410.73 575.23 414.54 577.24
  A 0.27 0.27 0.0 0 1 414.43 577.74
  C 391.55 578.97 370.85 566.11 358.97 546.93
  Q 345.43 525.07 345.20 499.61
  C 344.90 465.28 361.31 432.97 388.29 411.77
  Q 398.42 403.80 411.30 399.25
  Q 438.71 389.57 465.23 401.64
  A 0.20 0.20 0.0 0 1 465.14 402.03
  Z"
/>
<path fill="#407951" d="
  M 758.21 527.44
  Q 758.22 527.41 758.22 527.35
  A 0.18 0.09 -14.2 0 1 758.34 527.25
  Q 778.38 521.12 798.86 511.85
  A 0.41 0.40 -8.9 0 1 799.43 512.26
  L 796.71 536.28
  A 0.53 0.53 0.0 0 1 796.00 536.71
  Q 777.45 529.78 758.39 527.75
  A 0.22 0.22 0.0 0 1 758.21 527.44
  Z"
/>
<path fill="#89c389" d="
  M 682.08 574.45
  Q 685.95 591.18 694.51 604.73
  Q 706.34 623.47 723.25 641.25
  Q 732.93 651.43 743.82 659.79
  Q 757.24 670.09 766.75 675.23
  Q 787.33 686.34 803.48 691.74
  Q 819.40 697.05 827.84 701.06
  Q 835.22 704.56 837.63 706.17
  C 841.15 708.51 848.96 712.59 853.86 716.62
  Q 857.10 719.28 860.12 721.62
  A 0.35 0.35 0.0 0 1 859.75 722.20
  L 850.03 717.19
  Q 849.74 715.14 848.79 714.48
  Q 844.82 711.72 833.51 705.01
  Q 827.61 701.50 814.64 696.65
  Q 812.12 695.71 797.36 690.52
  Q 790.50 688.10 780.51 683.37
  Q 768.65 677.74 760.27 672.44
  Q 748.20 664.80 741.01 658.72
  C 736.36 654.79 732.40 651.85 728.81 648.28
  Q 712.55 632.12 699.16 613.18
  Q 695.91 608.59 694.19 605.55
  C 692.07 601.81 690.18 599.18 688.28 594.99
  Q 683.99 585.52 681.54 576.05
  Q 681.24 574.90 681.36 573.54
  A 0.21 0.21 0.0 0 1 681.77 573.49
  L 682.08 574.45
  Z"
/>
<path fill="#d7f1d2" d="
  M 580.4833 647.5673
  A 33.00 32.60 -72.5 0 1 601.6512 688.8430
  A 33.00 32.60 -72.5 0 1 560.6367 710.5127
  A 33.00 32.60 -72.5 0 1 539.4688 669.2370
  A 33.00 32.60 -72.5 0 1 580.4833 647.5673
  Z
  M 581.0148 648.9172
  A 31.92 31.55 -70.9 0 0 540.7569 668.7563
  A 31.92 31.55 -70.9 0 0 560.1252 709.2428
  A 31.92 31.55 -70.9 0 0 600.3831 689.4037
  A 31.92 31.55 -70.9 0 0 581.0148 648.9172
  Z"
/>
<path fill="#030805" d="
  M 581.0148 648.9172
  A 31.92 31.55 -70.9 0 1 600.3831 689.4037
  A 31.92 31.55 -70.9 0 1 560.1252 709.2428
  A 31.92 31.55 -70.9 0 1 540.7569 668.7563
  A 31.92 31.55 -70.9 0 1 581.0148 648.9172
  Z
  M 588.40 679.33
  A 18.03 18.03 0.0 0 0 570.37 661.30
  A 18.03 18.03 0.0 0 0 552.34 679.33
  A 18.03 18.03 0.0 0 0 570.37 697.36
  A 18.03 18.03 0.0 0 0 588.40 679.33
  Z"
/>
<path fill="#d7f1d2" d="
  M 588.40 679.33
  A 18.03 18.03 0.0 0 1 570.37 697.36
  A 18.03 18.03 0.0 0 1 552.34 679.33
  A 18.03 18.03 0.0 0 1 570.37 661.30
  A 18.03 18.03 0.0 0 1 588.40 679.33
  Z
  M 587.15 679.38
  A 16.82 16.82 0.0 0 0 570.33 662.56
  A 16.82 16.82 0.0 0 0 553.51 679.38
  A 16.82 16.82 0.0 0 0 570.33 696.20
  A 16.82 16.82 0.0 0 0 587.15 679.38
  Z"
/>
<circle fill="#f7beb5" cx="570.33" cy="679.38" r="16.82"/>
<path fill="#407951" d="
  M 412.88 874.51
  Q 414.04 874.26 414.88 874.21
  Q 435.43 872.92 447.75 871.22
  C 477.56 867.12 508.51 858.63 535.86 845.61
  Q 564.19 832.12 585.30 818.05
  Q 609.63 801.84 631.04 783.54
  Q 637.15 778.32 647.64 768.31
  C 676.59 740.65 701.66 708.24 720.35 672.80
  A 0.27 0.27 0.0 0 1 720.77 672.72
  Q 735.24 685.45 751.38 695.42
  A 0.42 0.41 31.7 0 1 751.52 695.98
  Q 698.79 783.77 609.40 833.38
  Q 582.19 848.48 555.11 857.57
  Q 539.73 862.73 519.99 867.44
  Q 495.59 873.26 467.23 874.52
  Q 440.85 875.69 412.89 874.62
  A 0.06 0.06 0.0 0 1 412.88 874.51
  Z"
/>
<path fill="#d7f1d2" d="
  M 521.9272 704.8008
  A 31.66 30.63 -58.0 0 1 531.1257 747.8814
  A 31.66 30.63 -58.0 0 1 488.3728 758.4992
  A 31.66 30.63 -58.0 0 1 479.1743 715.4186
  A 31.66 30.63 -58.0 0 1 521.9272 704.8008
  Z
  M 521.7385 706.0480
  A 30.54 29.54 -57.1 0 0 480.3476 715.6446
  A 30.54 29.54 -57.1 0 0 488.5615 757.3320
  A 30.54 29.54 -57.1 0 0 529.9524 747.7354
  A 30.54 29.54 -57.1 0 0 521.7385 706.0480
  Z"
/>
<path fill="#030805" d="
  M 521.7385 706.0480
  A 30.54 29.54 -57.1 0 1 529.9524 747.7354
  A 30.54 29.54 -57.1 0 1 488.5615 757.3320
  A 30.54 29.54 -57.1 0 1 480.3476 715.6446
  A 30.54 29.54 -57.1 0 1 521.7385 706.0480
  Z
  M 515.0109 718.3809
  A 17.18 16.37 -54.4 0 0 491.6995 722.8206
  A 17.18 16.37 -54.4 0 0 495.0091 746.3191
  A 17.18 16.37 -54.4 0 0 518.3205 741.8794
  A 17.18 16.37 -54.4 0 0 515.0109 718.3809
  Z"
/>
<ellipse fill="#fcc46d" cx="0.00" cy="0.00" transform="translate(505.01,732.35) rotate(-54.4)" rx="17.18" ry="16.37"/>
<path fill="#d7f1d2" d="
  M 441.1499 740.2687
  A 22.20 21.90 -88.4 0 1 462.4215 763.0715
  A 22.20 21.90 -88.4 0 1 439.9101 784.6513
  A 22.20 21.90 -88.4 0 1 418.6385 761.8485
  A 22.20 21.90 -88.4 0 1 441.1499 740.2687
  Z
  M 442.1280 741.4622
  A 21.09 20.84 -85.6 0 0 419.7314 760.8912
  A 21.09 20.84 -85.6 0 0 438.8920 783.5178
  A 21.09 20.84 -85.6 0 0 461.2886 764.0888
  A 21.09 20.84 -85.6 0 0 442.1280 741.4622
  Z"
/>
<path fill="#030805" d="
  M 442.1280 741.4622
  A 21.09 20.84 -85.6 0 1 461.2886 764.0888
  A 21.09 20.84 -85.6 0 1 438.8920 783.5178
  A 21.09 20.84 -85.6 0 1 419.7314 760.8912
  A 21.09 20.84 -85.6 0 1 442.1280 741.4622
  Z
  M 446.5190 757.1051
  A 8.44 8.21 -40.8 0 0 434.7654 756.4051
  A 8.44 8.21 -40.8 0 0 433.7410 768.1349
  A 8.44 8.21 -40.8 0 0 445.4946 768.8349
  A 8.44 8.21 -40.8 0 0 446.5190 757.1051
  Z"
/>
<path fill="#d7f1d2" d="
  M 446.5190 757.1051
  A 8.44 8.21 -40.8 0 1 445.4946 768.8349
  A 8.44 8.21 -40.8 0 1 433.7410 768.1349
  A 8.44 8.21 -40.8 0 1 434.7654 756.4051
  A 8.44 8.21 -40.8 0 1 446.5190 757.1051
  Z
  M 447.04 762.69
  A 7.01 7.01 0.0 0 0 440.03 755.68
  A 7.01 7.01 0.0 0 0 433.02 762.69
  A 7.01 7.01 0.0 0 0 440.03 769.70
  A 7.01 7.01 0.0 0 0 447.04 762.69
  Z"
/>
<circle fill="#f7beb5" cx="440.03" cy="762.69" r="7.01"/>
</svg>
