<?xml version="1.0" encoding="UTF-8" standalone="no"?>
<!DOCTYPE svg PUBLIC "-//W3C//DTD SVG 1.1//EN" "http://www.w3.org/Graphics/SVG/1.1/DTD/svg11.dtd">
<svg xmlns="http://www.w3.org/2000/svg" version="1.1" viewBox="0.00 0.00 1024.00 1024.00">
<g stroke-width="2.00" fill="none" stroke-linecap="butt">
<path stroke="#234b7b" vector-effect="non-scaling-stroke" d="
  M 237.41 743.13
  Q 286.09 791.63 349.50 814.26
  Q 422.01 840.14 498.98 829.87
  Q 556.25 822.21 606.67 795.35
  C 642.23 776.41 675.18 750.78 703.21 720.12
  C 719.08 702.78 733.67 683.86 745.84 664.15
  Q 769.69 625.53 784.86 581.81
  C 800.12 537.83 806.46 490.44 805.63 443.73
  Q 804.58 384.80 785.18 326.94
  Q 775.62 298.41 758.86 267.55
  Q 730.16 214.70 688.51 177.61
  C 640.97 135.30 581.75 109.53 519.18 103.69
  Q 474.47 99.51 427.89 109.28
  C 384.46 118.38 342.67 135.49 306.20 160.30
  Q 280.44 177.83 259.26 198.21
  Q 244.24 212.67 236.56 221.44
  Q 166.78 301.08 144.65 403.96
  C 139.68 427.02 136.54 452.37 135.76 475.98
  Q 133.58 542.24 153.90 605.84
  C 170.70 658.42 198.58 704.44 237.41 743.13"
/>
<path stroke="#08172f" vector-effect="non-scaling-stroke" d="
  M 737.95 716.29
  Q 723.35 733.38 713.84 743.33
  Q 699.38 758.46 680.14 774.06"
/>
<path stroke="#021845" vector-effect="non-scaling-stroke" d="
  M 680.14 774.06
  Q 646.83 800.87 608.78 820.30
  C 601.89 823.82 596.91 825.85 588.59 829.67
  C 582.20 832.62 575.12 834.91 568.37 837.44
  A 0.24 0.24 0.0 0 0 568.23 837.73
  L 568.23 837.74
  A 0.23 0.22 -15.0 0 0 568.50 837.89
  Q 591.26 832.44 595.42 831.38
  C 644.93 818.78 691.33 793.58 730.03 760.01
  C 789.10 708.76 830.87 638.77 849.96 562.74
  C 861.13 518.23 865.51 470.11 861.16 423.96
  Q 857.86 389.01 849.41 356.84
  Q 825.83 267.13 762.57 199.69
  C 738.75 174.29 711.79 153.84 680.98 136.84
  C 673.42 132.67 664.03 128.56 657.26 125.56
  A 0.25 0.25 0.0 0 0 656.94 125.67
  L 656.93 125.69
  A 0.24 0.23 30.1 0 0 657.02 126.00
  Q 666.98 131.95 677.38 139.63
  C 709.21 163.11 737.15 191.23 758.94 223.30
  Q 777.60 250.76 791.11 280.65
  Q 826.62 359.25 828.09 446.74
  C 828.79 488.08 824.77 527.94 813.60 567.64
  Q 790.66 649.16 737.95 716.29"
/>
<path stroke="#0a2f73" vector-effect="non-scaling-stroke" d="
  M 680.14 774.06
  Q 680.40 774.07 680.59 774.11
  A 0.38 0.37 -58.2 0 1 680.74 774.77
  Q 644.16 803.84 602.57 824.38
  A 2.85 2.65 23.9 0 1 601.96 824.59
  Q 600.53 824.90 598.48 826.25
  A 1.36 1.16 -68.0 0 1 598.23 826.38
  L 587.17 831.27
  A 0.26 0.26 0.0 0 0 587.22 831.77
  Q 588.85 832.13 590.13 831.81
  Q 624.68 823.35 655.50 808.18
  Q 681.34 795.47 706.45 777.64
  C 712.30 773.48 717.25 768.97 723.07 764.49
  Q 727.54 761.05 735.14 754.17
  Q 776.69 716.57 805.64 667.90
  Q 811.08 658.76 813.74 653.78
  Q 828.24 626.68 837.24 601.06
  Q 838.34 597.92 841.30 589.17
  Q 848.69 567.37 852.76 546.52
  Q 852.82 546.22 853.19 544.40
  Q 855.24 534.28 857.24 521.75
  Q 857.85 517.92 860.34 493.86
  Q 861.81 479.60 861.90 468.10
  Q 862.04 450.02 861.62 442.25
  Q 859.83 408.54 852.49 373.97
  C 839.22 311.49 810.14 253.87 767.82 207.48
  Q 762.33 201.47 760.20 199.03
  C 752.37 190.07 740.68 180.23 729.44 170.56
  Q 721.20 163.48 711.03 156.73
  Q 698.32 148.30 681.72 138.28
  Q 678.86 136.55 672.50 133.59
  Q 672.33 133.51 672.04 133.64
  Q 671.74 133.77 671.65 133.92
  A 0.42 0.41 32.9 0 0 671.77 134.46
  Q 680.82 140.70 692.46 149.64
  Q 700.83 156.08 709.30 164.20
  Q 723.59 177.92 725.29 179.70
  Q 748.92 204.41 767.59 234.39
  Q 792.14 273.81 806.76 317.15
  Q 812.81 335.10 817.55 354.17
  C 822.55 374.34 825.43 395.52 827.55 417.27
  C 828.46 426.61 828.29 434.33 828.96 442.73
  C 829.80 453.41 828.54 464.88 828.61 475.76
  Q 828.65 482.00 827.90 490.71
  Q 826.27 509.45 824.00 524.22
  Q 822.00 537.27 820.60 543.34
  C 817.01 558.87 813.09 574.06 807.93 589.19
  Q 789.02 644.62 755.87 693.63
  Q 748.30 704.82 738.77 716.80
  Q 738.49 717.15 738.12 716.89
  Q 737.90 716.72 737.95 716.29"
/>
<path stroke="#3b79d1" vector-effect="non-scaling-stroke" d="
  M 238.16 742.33
  Q 286.70 790.68 349.92 813.23
  Q 422.22 839.02 498.96 828.76
  Q 556.05 821.12 606.32 794.33
  C 641.77 775.44 674.61 749.88 702.55 719.31
  C 718.37 702.01 732.91 683.15 745.04 663.50
  Q 768.81 624.99 783.93 581.40
  C 799.14 537.54 805.45 490.30 804.61 443.73
  Q 803.55 384.97 784.20 327.29
  Q 774.66 298.85 757.95 268.08
  Q 729.33 215.40 687.79 178.43
  C 640.39 136.25 581.34 110.57 518.96 104.76
  Q 474.38 100.60 427.94 110.35
  C 384.65 119.43 342.98 136.50 306.63 161.24
  Q 280.95 178.72 259.84 199.05
  Q 244.87 213.47 237.21 222.21
  Q 167.65 301.63 145.61 404.20
  C 140.66 427.19 137.53 452.47 136.76 476.01
  Q 134.60 542.07 154.87 605.47
  C 171.63 657.89 199.44 703.77 238.16 742.33"
/>
<path stroke="#3b79d1" vector-effect="non-scaling-stroke" d="
  M 262.77 729.44
  Q 313.04 775.18 378.94 793.58
  Q 423.67 806.06 471.00 804.39
  Q 497.06 803.46 520.33 798.30
  C 559.59 789.58 595.96 773.36 629.61 749.50
  Q 663.73 725.32 691.40 693.65
  Q 723.05 657.45 743.29 616.08
  C 759.73 582.47 771.32 547.88 776.71 511.36
  Q 781.16 481.29 780.96 451.25
  Q 780.52 386.94 757.87 327.11
  Q 731.55 257.58 678.27 206.14
  Q 676.50 204.43 674.14 202.50
  C 670.59 199.60 667.71 196.65 663.76 193.41
  Q 620.00 157.41 566.99 141.67
  C 509.69 124.66 447.72 127.30 390.93 147.41
  Q 320.13 172.48 268.26 225.74
  Q 236.16 258.70 214.40 294.90
  Q 185.10 343.64 170.92 402.15
  C 158.35 454.04 158.25 509.73 169.11 561.90
  C 178.70 607.95 197.61 651.85 226.58 689.50
  Q 244.58 712.89 262.77 729.44"
/>
<path stroke="#234b7b" vector-effect="non-scaling-stroke" d="
  M 263.51 728.65
  Q 313.62 774.23 379.31 792.56
  Q 423.90 804.99 471.07 803.32
  Q 497.05 802.39 520.24 797.24
  C 559.37 788.54 595.62 772.36 629.15 748.57
  Q 663.16 724.47 690.73 692.89
  Q 722.27 656.81 742.44 615.57
  C 758.82 582.06 770.36 547.58 775.73 511.18
  Q 780.16 481.21 779.95 451.27
  Q 779.50 387.17 756.91 327.54
  Q 730.66 258.24 677.55 206.98
  Q 675.78 205.27 673.43 203.35
  C 669.89 200.46 667.02 197.52 663.08 194.29
  Q 619.46 158.42 566.62 142.74
  C 509.50 125.79 447.73 128.44 391.13 148.49
  Q 320.57 173.50 268.88 226.59
  Q 236.89 259.45 215.21 295.54
  Q 186.01 344.13 171.89 402.45
  C 159.37 454.17 159.28 509.68 170.12 561.68
  C 179.69 607.58 198.54 651.33 227.43 688.85
  Q 245.37 712.16 263.51 728.65"
/>
<path stroke="#808080" vector-effect="non-scaling-stroke" d="
  M 475.44 157.40
  L 473.02 157.49"
/>
<path stroke="#808080" vector-effect="non-scaling-stroke" d="
  M 470.44 157.83
  L 463.98 158.36"
/>
<path stroke="#808080" vector-effect="non-scaling-stroke" d="
  M 462.53 158.42
  L 447.88 160.38"
/>
<path stroke="#808080" vector-effect="non-scaling-stroke" d="
  M 445.13 160.73
  Q 444.35 161.30 443.06 161.19"
/>
<path stroke="#808080" vector-effect="non-scaling-stroke" d="
  M 440.48 161.64
  Q 439.00 162.29 437.53 162.33"
/>
<path stroke="#808080" vector-effect="non-scaling-stroke" d="
  M 435.11 162.76
  Q 434.25 163.27 433.07 163.19"
/>
<path stroke="#808080" vector-effect="non-scaling-stroke" d="
  M 430.45 163.75
  Q 429.40 164.37 428.01 164.36"
/>
<path stroke="#808080" vector-effect="non-scaling-stroke" d="
  M 426.41 164.74
  Q 425.81 165.15 425.05 165.19"
/>
<path stroke="#808080" vector-effect="non-scaling-stroke" d="
  M 422.93 165.66
  Q 422.00 166.28 421.06 166.16"
/>
<path stroke="#808080" vector-effect="non-scaling-stroke" d="
  M 419.00 166.72
  Q 418.11 167.28 417.04 167.26"
/>
<path stroke="#808080" vector-effect="non-scaling-stroke" d="
  M 415.44 167.74
  Q 414.89 168.25 414.04 168.21"
/>
<path stroke="#808080" vector-effect="non-scaling-stroke" d="
  M 412.43 168.71
  Q 411.81 169.15 411.05 169.17"
/>
<path stroke="#808080" vector-effect="non-scaling-stroke" d="
  M 408.93 169.72
  Q 408.11 170.29 406.96 170.41"
/>
<path stroke="#808080" vector-effect="non-scaling-stroke" d="
  M 405.57 170.74
  Q 404.86 171.29 404.02 171.25"
/>
<path stroke="#808080" vector-effect="non-scaling-stroke" d="
  M 402.66 171.85
  L 400.99 172.43"
/>
<path stroke="#808080" vector-effect="non-scaling-stroke" d="
  M 399.94 172.76
  Q 399.68 173.00 399.28 173.09"
/>
<path stroke="#808080" vector-effect="non-scaling-stroke" d="
  M 397.19 173.80
  Q 396.80 174.19 395.98 174.26"
/>
<path stroke="#808080" vector-effect="non-scaling-stroke" d="
  M 394.51 174.77
  Q 393.84 175.25 392.99 175.40"
/>
<path stroke="#808080" vector-effect="non-scaling-stroke" d="
  M 391.99 175.86
  L 391.28 176.11"
/>
<path stroke="#808080" vector-effect="non-scaling-stroke" d="
  M 388.95 176.97
  Q 388.38 177.46 388.08 177.20"
/>
<path stroke="#808080" vector-effect="non-scaling-stroke" d="
  M 386.23 177.88
  Q 385.31 177.98 384.79 178.89"
/>
<path stroke="#021845" vector-effect="non-scaling-stroke" d="
  M 384.41 178.87
  Q 384.70 178.48 384.21 178.23
  A 0.52 0.51 45.7 0 0 383.77 178.22
  C 368.74 184.76 354.15 191.76 339.79 201.05
  C 302.55 225.15 270.50 255.60 246.07 292.35
  Q 229.67 317.02 216.43 346.70
  Q 191.55 402.48 186.67 461.73"
/>
<path stroke="#08172f" vector-effect="non-scaling-stroke" d="
  M 186.67 461.73
  Q 183.98 488.54 186.43 515.50
  Q 186.71 518.55 187.21 521.54"
/>
<path stroke="#021845" vector-effect="non-scaling-stroke" d="
  M 187.21 521.54
  Q 188.52 537.30 192.13 554.43
  Q 208.50 632.02 260.60 690.68
  C 285.30 718.48 316.10 741.77 350.43 756.23
  C 360.58 760.51 373.18 765.85 383.74 768.83
  Q 384.15 768.95 384.76 768.52"
/>
<path stroke="#808080" vector-effect="non-scaling-stroke" d="
  M 385.98 768.86
  Q 387.44 768.87 387.27 769.28"
/>
<path stroke="#808080" vector-effect="non-scaling-stroke" d="
  M 389.04 769.63
  Q 390.32 769.75 391.45 770.34"
/>
<path stroke="#808080" vector-effect="non-scaling-stroke" d="
  M 392.80 770.62
  L 395.01 771.22"
/>
<path stroke="#808080" vector-effect="non-scaling-stroke" d="
  M 396.81 771.62
  Q 398.02 771.72 399.09 772.20"
/>
<path stroke="#808080" vector-effect="non-scaling-stroke" d="
  M 401.09 772.58
  L 408.16 774.15"
/>
<path stroke="#808080" vector-effect="non-scaling-stroke" d="
  M 411.02 774.79
  Q 412.84 774.59 413.81 775.26"
/>
<path stroke="#808080" vector-effect="non-scaling-stroke" d="
  M 416.87 775.71
  Q 418.42 775.58 419.96 776.11"
/>
<path stroke="#808080" vector-effect="non-scaling-stroke" d="
  M 424.01 776.79
  Q 425.80 776.63 427.52 777.18"
/>
<path stroke="#808080" vector-effect="non-scaling-stroke" d="
  M 431.16 777.64
  L 438.52 778.18"
/>
<path stroke="#808080" vector-effect="non-scaling-stroke" d="
  M 442.39 778.61
  L 458.29 779.18"
/>
<path stroke="#808080" vector-effect="non-scaling-stroke" d="
  M 465.42 779.11
  L 478.04 778.59"
/>
<path stroke="#808080" vector-effect="non-scaling-stroke" d="
  M 480.42 778.18
  L 501.45 775.57"
/>
<path stroke="#808080" vector-effect="non-scaling-stroke" d="
  M 504.44 775.28
  Q 505.80 774.56 507.42 774.76"
/>
<path stroke="#808080" vector-effect="non-scaling-stroke" d="
  M 509.83 774.29
  Q 510.81 773.64 512.46 773.65"
/>
<path stroke="#808080" vector-effect="non-scaling-stroke" d="
  M 514.72 773.29
  Q 515.56 772.62 517.21 772.70"
/>
<path stroke="#808080" vector-effect="non-scaling-stroke" d="
  M 518.54 772.32
  L 521.21 771.61"
/>
<path stroke="#808080" vector-effect="non-scaling-stroke" d="
  M 522.86 771.23
  Q 523.86 770.74 525.23 770.61"
/>
<path stroke="#808080" vector-effect="non-scaling-stroke" d="
  M 526.53 770.25
  Q 527.46 769.76 528.51 769.78"
/>
<path stroke="#808080" vector-effect="non-scaling-stroke" d="
  M 530.40 769.29
  Q 531.24 768.70 532.44 768.62"
/>
<path stroke="#808080" vector-effect="non-scaling-stroke" d="
  M 533.91 768.28
  Q 534.81 767.69 536.05 767.57"
/>
<path stroke="#808080" vector-effect="non-scaling-stroke" d="
  M 537.04 767.29
  Q 538.00 766.83 539.03 766.76"
/>
<path stroke="#808080" vector-effect="non-scaling-stroke" d="
  M 540.44 766.26
  Q 541.19 765.76 542.24 765.60"
/>
<path stroke="#808080" vector-effect="non-scaling-stroke" d="
  M 543.50 765.23
  L 548.19 763.58"
/>
<path stroke="#808080" vector-effect="non-scaling-stroke" d="
  M 549.51 763.21
  Q 550.26 762.81 551.24 762.71"
/>
<path stroke="#808080" vector-effect="non-scaling-stroke" d="
  M 552.45 762.24
  Q 553.26 761.72 554.19 761.59"
/>
<path stroke="#808080" vector-effect="non-scaling-stroke" d="
  M 555.31 761.18
  L 557.04 760.57"
/>
<path stroke="#808080" vector-effect="non-scaling-stroke" d="
  M 558.00 760.27
  Q 558.53 759.83 559.29 759.71"
/>
<path stroke="#808080" vector-effect="non-scaling-stroke" d="
  M 560.46 759.24
  Q 561.16 758.76 562.04 758.59"
/>
<path stroke="#808080" vector-effect="non-scaling-stroke" d="
  M 562.99 758.20
  Q 563.69 757.71 564.26 757.78"
/>
<path stroke="#808080" vector-effect="non-scaling-stroke" d="
  M 565.47 757.23
  Q 566.16 756.76 567.04 756.56"
/>
<path stroke="#808080" vector-effect="non-scaling-stroke" d="
  M 567.88 756.28
  Q 568.44 755.79 569.22 755.58"
/>
<path stroke="#808080" vector-effect="non-scaling-stroke" d="
  M 570.16 755.26
  Q 570.65 754.86 571.29 754.71"
/>
<path stroke="#808080" vector-effect="non-scaling-stroke" d="
  M 572.45 754.23
  Q 573.18 753.65 574.03 753.53"
/>
<path stroke="#808080" vector-effect="non-scaling-stroke" d="
  M 574.73 753.26
  Q 575.29 752.69 576.22 752.55"
/>
<path stroke="#808080" vector-effect="non-scaling-stroke" d="
  M 576.90 752.29
  Q 577.30 751.83 577.99 751.65"
/>
<path stroke="#808080" vector-effect="non-scaling-stroke" d="
  M 579.00 751.27
  Q 579.65 750.66 580.21 750.76"
/>
<path stroke="#808080" vector-effect="non-scaling-stroke" d="
  M 581.15 750.27
  Q 581.53 749.87 582.02 749.79"
/>
<path stroke="#808080" vector-effect="non-scaling-stroke" d="
  M 583.28 749.06
  L 584.20 748.58"
/>
<path stroke="#808080" vector-effect="non-scaling-stroke" d="
  M 585.02 748.27
  Q 585.41 747.86 586.02 747.78"
/>
<path stroke="#808080" vector-effect="non-scaling-stroke" d="
  M 587.29 747.04
  L 588.22 746.54"
/>
<path stroke="#6e171d" vector-effect="non-scaling-stroke" d="
  M 588.71 746.12
  Q 588.86 746.13 589.01 746.16
  A 0.95 0.95 0.0 0 0 589.53 746.09
  Q 597.85 742.12 605.29 737.56
  Q 645.18 713.10 675.28 678.04
  Q 734.81 608.71 751.68 520.53
  C 758.68 483.91 759.55 445.19 754.58 407.70
  C 745.65 340.26 715.36 275.71 666.91 227.62
  Q 633.64 194.60 589.67 176.34
  A 0.78 0.78 0.0 0 0 588.59 177.06
  L 588.63 190.96"
/>
<path stroke="#808080" vector-effect="non-scaling-stroke" d="
  M 588.21 190.20
  L 588.02 176.75
  A 0.72 0.71 8.8 0 0 587.53 176.09
  L 583.77 174.83"
/>
<path stroke="#808080" vector-effect="non-scaling-stroke" d="
  M 582.95 174.48
  Q 581.93 174.32 581.28 173.79"
/>
<path stroke="#808080" vector-effect="non-scaling-stroke" d="
  M 580.02 173.26
  Q 579.12 173.27 578.47 172.80"
/>
<path stroke="#808080" vector-effect="non-scaling-stroke" d="
  M 577.02 172.34
  L 573.14 170.88"
/>
<path stroke="#808080" vector-effect="non-scaling-stroke" d="
  M 571.86 170.41
  L 560.40 166.86"
/>
<path stroke="#808080" vector-effect="non-scaling-stroke" d="
  M 558.98 166.41
  L 544.55 162.74"
/>
<path stroke="#808080" vector-effect="non-scaling-stroke" d="
  M 542.97 162.42
  Q 526.70 158.86 510.44 157.85"
/>
<path stroke="#808080" vector-effect="non-scaling-stroke" d="
  M 507.91 157.53
  Q 492.45 156.49 477.00 157.40"
/>
<path stroke="#808080" vector-effect="non-scaling-stroke" d="
  M 588.25 191.80
  L 588.20 198.96"
/>
<path stroke="#808080" vector-effect="non-scaling-stroke" d="
  M 588.24 199.77
  L 588.28 204.92"
/>
<path stroke="#808080" vector-effect="non-scaling-stroke" d="
  M 588.32 206.55
  L 588.16 210.96"
/>
<path stroke="#808080" vector-effect="non-scaling-stroke" d="
  M 588.23 216.02
  Q 588.17 216.59 588.30 216.90"
/>
<path stroke="#808080" vector-effect="non-scaling-stroke" d="
  M 588.32 220.58
  Q 588.30 221.12 588.17 220.96"
/>
<path stroke="#808080" vector-effect="non-scaling-stroke" d="
  M 588.17 266.00
  L 588.26 266.95"
/>
<path stroke="#ee979d" vector-effect="non-scaling-stroke" d="
  M 588.35 272.56
  Q 588.08 272.96 588.27 273.45"
/>
<path stroke="#808080" vector-effect="non-scaling-stroke" d="
  M 588.24 304.04
  Q 588.08 304.85 588.25 305.71"
/>
<path stroke="#808080" vector-effect="non-scaling-stroke" d="
  M 588.32 308.06
  Q 587.99 308.94 588.27 309.93"
/>
<path stroke="#808080" vector-effect="non-scaling-stroke" d="
  M 588.29 311.81
  Q 588.01 313.07 588.24 314.49"
/>
<path stroke="#808080" vector-effect="non-scaling-stroke" d="
  M 588.25 319.80
  L 588.23 325.48"
/>
<path stroke="#808080" vector-effect="non-scaling-stroke" d="
  M 588.28 327.54
  L 588.24 345.95"
/>
<path stroke="#ee979d" vector-effect="non-scaling-stroke" d="
  M 588.21 346.80
  Q 588.05 347.11 587.72 347.43"
/>
<path stroke="#808080" vector-effect="non-scaling-stroke" d="
  M 586.06 345.81
  Q 586.28 345.50 585.95 345.37"
/>
<path stroke="#808080" vector-effect="non-scaling-stroke" d="
  M 581.81 341.26
  Q 580.62 339.34 578.99 338.82"
/>
<path stroke="#808080" vector-effect="non-scaling-stroke" d="
  M 574.00 334.22
  Q 573.17 333.00 572.00 332.61"
/>
<path stroke="#808080" vector-effect="non-scaling-stroke" d="
  M 568.76 329.82
  Q 567.56 328.57 566.06 327.89"
/>
<path stroke="#808080" vector-effect="non-scaling-stroke" d="
  M 564.03 326.27
  Q 563.54 325.62 562.98 325.54"
/>
<path stroke="#808080" vector-effect="non-scaling-stroke" d="
  M 561.01 324.17
  Q 560.23 323.36 559.04 322.84"
/>
<path stroke="#808080" vector-effect="non-scaling-stroke" d="
  M 558.05 322.21
  Q 557.65 321.55 556.98 321.53"
/>
<path stroke="#808080" vector-effect="non-scaling-stroke" d="
  M 554.96 320.18
  Q 554.61 319.57 553.98 319.66"
/>
<path stroke="#808080" vector-effect="non-scaling-stroke" d="
  M 549.67 317.12
  Q 549.67 316.87 549.04 316.74"
/>
<path stroke="#808080" vector-effect="non-scaling-stroke" d="
  M 547.96 316.21
  Q 547.65 315.77 547.04 315.62"
/>
<path stroke="#808080" vector-effect="non-scaling-stroke" d="
  M 546.04 315.08
  Q 545.58 314.74 545.04 314.62"
/>
<path stroke="#808080" vector-effect="non-scaling-stroke" d="
  M 544.11 314.21
  Q 543.66 313.70 542.98 313.60"
/>
<path stroke="#808080" vector-effect="non-scaling-stroke" d="
  M 542.20 313.22
  Q 541.70 312.75 540.97 312.71"
/>
<path stroke="#808080" vector-effect="non-scaling-stroke" d="
  M 540.09 312.23
  Q 539.58 311.79 538.99 311.77"
/>
<path stroke="#808080" vector-effect="non-scaling-stroke" d="
  M 535.47 310.21
  Q 534.81 309.68 533.96 309.61"
/>
<path stroke="#808080" vector-effect="non-scaling-stroke" d="
  M 532.98 309.22
  Q 532.34 308.79 531.54 308.60"
/>
<path stroke="#808080" vector-effect="non-scaling-stroke" d="
  M 530.29 308.21
  Q 529.71 307.72 528.97 307.83"
/>
<path stroke="#808080" vector-effect="non-scaling-stroke" d="
  M 527.60 307.22
  Q 526.85 306.71 525.98 306.74"
/>
<path stroke="#808080" vector-effect="non-scaling-stroke" d="
  M 524.61 306.21
  Q 523.76 305.73 522.82 305.57"
/>
<path stroke="#808080" vector-effect="non-scaling-stroke" d="
  M 521.57 305.23
  Q 520.81 304.70 519.75 304.73"
/>
<path stroke="#808080" vector-effect="non-scaling-stroke" d="
  M 518.23 304.22
  Q 517.21 303.70 516.08 303.65"
/>
<path stroke="#808080" vector-effect="non-scaling-stroke" d="
  M 514.16 303.25
  Q 513.98 302.80 512.98 302.83"
/>
<path stroke="#808080" vector-effect="non-scaling-stroke" d="
  M 510.18 302.27
  Q 509.46 301.59 507.98 301.80"
/>
<path stroke="#808080" vector-effect="non-scaling-stroke" d="
  M 505.28 301.28
  Q 504.12 300.51 502.01 300.71"
/>
<path stroke="#808080" vector-effect="non-scaling-stroke" d="
  M 498.51 300.14
  Q 495.98 299.45 493.70 299.76"
/>
<path stroke="#808080" vector-effect="non-scaling-stroke" d="
  M 485.66 299.27
  L 477.94 299.25"
/>
<path stroke="#808080" vector-effect="non-scaling-stroke" d="
  M 468.52 299.81
  Q 465.71 299.59 462.99 300.29"
/>
<path stroke="#808080" vector-effect="non-scaling-stroke" d="
  M 460.43 300.67
  Q 458.37 300.62 456.88 301.28"
/>
<path stroke="#808080" vector-effect="non-scaling-stroke" d="
  M 454.21 301.63
  Q 452.62 301.65 450.96 302.30"
/>
<path stroke="#808080" vector-effect="non-scaling-stroke" d="
  M 449.41 302.64
  Q 447.99 302.67 446.79 303.23"
/>
<path stroke="#808080" vector-effect="non-scaling-stroke" d="
  M 445.12 303.64
  Q 444.05 303.63 442.83 304.24"
/>
<path stroke="#808080" vector-effect="non-scaling-stroke" d="
  M 441.43 304.62
  L 439.31 305.18"
/>
<path stroke="#808080" vector-effect="non-scaling-stroke" d="
  M 438.02 305.58
  Q 436.89 305.67 435.93 306.28"
/>
<path stroke="#808080" vector-effect="non-scaling-stroke" d="
  M 434.53 306.80
  Q 433.60 306.76 432.88 307.29"
/>
<path stroke="#808080" vector-effect="non-scaling-stroke" d="
  M 432.04 307.52
  Q 431.08 307.69 430.28 308.22"
/>
<path stroke="#808080" vector-effect="non-scaling-stroke" d="
  M 429.23 308.59
  Q 428.14 308.75 427.39 309.28"
/>
<path stroke="#808080" vector-effect="non-scaling-stroke" d="
  M 426.03 309.78
  Q 425.28 309.82 424.54 310.26"
/>
<path stroke="#808080" vector-effect="non-scaling-stroke" d="
  M 423.95 310.53
  L 422.29 311.16"
/>
<path stroke="#808080" vector-effect="non-scaling-stroke" d="
  M 421.03 311.80
  L 417.88 313.26"
/>
<path stroke="#808080" vector-effect="non-scaling-stroke" d="
  M 416.96 313.63
  Q 416.30 313.80 415.88 314.29"
/>
<path stroke="#808080" vector-effect="non-scaling-stroke" d="
  M 414.96 314.63
  Q 414.16 314.83 413.84 315.28"
/>
<path stroke="#808080" vector-effect="non-scaling-stroke" d="
  M 413.00 315.58
  L 411.79 316.20"
/>
<path stroke="#808080" vector-effect="non-scaling-stroke" d="
  M 410.96 316.63
  Q 410.31 316.82 409.89 317.29"
/>
<path stroke="#808080" vector-effect="non-scaling-stroke" d="
  M 408.97 317.64
  Q 408.38 317.84 407.97 318.27"
/>
<path stroke="#808080" vector-effect="non-scaling-stroke" d="
  M 407.21 318.78
  Q 406.50 318.81 406.11 319.29"
/>
<path stroke="#808080" vector-effect="non-scaling-stroke" d="
  M 404.01 320.56
  Q 403.52 320.55 402.98 321.05"
/>
<path stroke="#808080" vector-effect="non-scaling-stroke" d="
  M 401.98 321.79
  Q 401.45 321.85 401.06 322.26"
/>
<path stroke="#808080" vector-effect="non-scaling-stroke" d="
  M 399.04 323.56
  Q 398.29 323.74 397.73 324.49"
/>
<path stroke="#808080" vector-effect="non-scaling-stroke" d="
  M 395.97 325.66
  Q 394.94 326.19 394.13 327.02"
/>
<path stroke="#808080" vector-effect="non-scaling-stroke" d="
  M 393.04 327.81
  Q 391.80 328.36 390.96 329.26"
/>
<path stroke="#808080" vector-effect="non-scaling-stroke" d="
  M 388.73 331.06
  L 387.01 332.08"
/>
<path stroke="#808080" vector-effect="non-scaling-stroke" d="
  M 385.95 333.03
  L 385.66 333.21"
/>
<path stroke="#8298c4" vector-effect="non-scaling-stroke" d="
  M 384.81 332.79
  Q 385.09 331.13 384.53 330.01"
/>
<path stroke="#8896ae" vector-effect="non-scaling-stroke" d="
  M 384.78 288.20
  L 384.85 282.74"
/>
<path stroke="#8896ae" vector-effect="non-scaling-stroke" d="
  M 384.83 278.21
  L 384.85 276.71"
/>
<path stroke="#8896ae" vector-effect="non-scaling-stroke" d="
  M 384.83 276.21
  L 384.85 274.71"
/>
<path stroke="#8896ae" vector-effect="non-scaling-stroke" d="
  M 384.84 252.21
  L 384.84 250.71"
/>
<path stroke="#6e171d" vector-effect="non-scaling-stroke" d="
  M 588.68 745.72
  L 588.51 703.22"
/>
<path stroke="#6e171d" vector-effect="non-scaling-stroke" d="
  M 588.60 702.96
  Q 588.67 702.59 588.57 702.21"
/>
<path stroke="#6e171d" vector-effect="non-scaling-stroke" d="
  M 588.57 701.96
  Q 588.79 701.07 588.55 700.27"
/>
<path stroke="#6e171d" vector-effect="non-scaling-stroke" d="
  M 588.57 699.96
  Q 588.69 699.61 588.57 699.21"
/>
<path stroke="#6e171d" vector-effect="non-scaling-stroke" d="
  M 588.58 698.96
  Q 588.73 698.09 588.58 697.21"
/>
<path stroke="#6e171d" vector-effect="non-scaling-stroke" d="
  M 588.57 696.96
  Q 588.68 696.61 588.58 696.21"
/>
<path stroke="#6e171d" vector-effect="non-scaling-stroke" d="
  M 588.59 696.04
  Q 588.86 694.66 588.57 693.21"
/>
<path stroke="#6e171d" vector-effect="non-scaling-stroke" d="
  M 588.57 692.96
  Q 588.70 692.62 588.58 692.21"
/>
<path stroke="#6e171d" vector-effect="non-scaling-stroke" d="
  M 588.58 691.96
  Q 588.69 691.64 588.59 691.21"
/>
<path stroke="#6e171d" vector-effect="non-scaling-stroke" d="
  M 588.59 690.96
  Q 588.68 690.61 588.58 690.21"
/>
<path stroke="#6e171d" vector-effect="non-scaling-stroke" d="
  M 588.61 688.96
  L 588.60 682.49"
/>
<path stroke="#6e171d" vector-effect="non-scaling-stroke" d="
  M 588.56 673.47
  L 588.59 663.46"
/>
<path stroke="#6e171d" vector-effect="non-scaling-stroke" d="
  M 588.52 658.47
  Q 588.78 657.25 588.52 656.03"
/>
<path stroke="#6e171d" vector-effect="non-scaling-stroke" d="
  M 588.52 656.03
  Q 588.81 654.79 588.57 653.45"
/>
<path stroke="#6e171d" vector-effect="non-scaling-stroke" d="
  M 588.58 653.00
  L 588.58 649.46"
/>
<path stroke="#6e171d" vector-effect="non-scaling-stroke" d="
  M 588.58 645.96
  Q 588.76 645.08 588.56 644.21"
/>
<path stroke="#6e171d" vector-effect="non-scaling-stroke" d="
  M 588.50 641.46
  Q 588.82 640.73 588.50 640.03"
/>
<path stroke="#6e171d" vector-effect="non-scaling-stroke" d="
  M 588.49 635.48
  Q 588.81 633.80 588.55 632.02"
/>
<path stroke="#6e171d" vector-effect="non-scaling-stroke" d="
  M 588.55 618.04
  Q 588.83 616.75 588.58 615.46"
/>
<path stroke="#6e171d" vector-effect="non-scaling-stroke" d="
  M 588.57 610.96
  Q 588.69 610.61 588.57 610.21"
/>
<path stroke="#6e171d" vector-effect="non-scaling-stroke" d="
  M 588.58 607.96
  Q 588.68 607.62 588.58 607.21"
/>
<path stroke="#6e171d" vector-effect="non-scaling-stroke" d="
  M 588.58 606.96
  Q 588.68 606.62 588.57 606.21"
/>
<path stroke="#6e171d" vector-effect="non-scaling-stroke" d="
  M 588.57 606.00
  Q 588.69 605.63 588.57 605.21"
/>
<path stroke="#6e171d" vector-effect="non-scaling-stroke" d="
  M 588.58 604.96
  Q 588.68 604.62 588.58 604.21"
/>
<path stroke="#6e171d" vector-effect="non-scaling-stroke" d="
  M 588.65 603.00
  L 588.62 587.47"
/>
<path stroke="#6e171d" vector-effect="non-scaling-stroke" d="
  M 588.51 587.01
  L 588.32 572.97"
/>
<path stroke="#ee979d" vector-effect="non-scaling-stroke" d="
  M 588.32 572.97
  L 587.69 567.22"
/>
<path stroke="#6e171d" vector-effect="non-scaling-stroke" d="
  M 587.69 567.22
  Q 592.63 559.89 597.64 551.97
  Q 626.63 506.10 625.53 451.51
  Q 624.79 414.59 609.84 382.15
  Q 601.62 364.29 588.05 348.02"
/>
<path stroke="#6e171d" vector-effect="non-scaling-stroke" d="
  M 588.58 345.86
  L 588.68 327.25"
/>
<path stroke="#6e171d" vector-effect="non-scaling-stroke" d="
  M 588.59 326.96
  Q 588.67 326.59 588.58 326.21"
/>
<path stroke="#6e171d" vector-effect="non-scaling-stroke" d="
  M 588.64 325.93
  L 588.62 319.51"
/>
<path stroke="#6e171d" vector-effect="non-scaling-stroke" d="
  M 588.60 318.95
  Q 588.68 318.59 588.57 318.21"
/>
<path stroke="#6e171d" vector-effect="non-scaling-stroke" d="
  M 588.57 317.96
  Q 588.70 317.63 588.57 317.21"
/>
<path stroke="#6e171d" vector-effect="non-scaling-stroke" d="
  M 588.58 316.96
  Q 588.74 316.23 588.59 315.46"
/>
<path stroke="#6e171d" vector-effect="non-scaling-stroke" d="
  M 588.55 314.48
  L 588.59 306.20"
/>
<path stroke="#6e171d" vector-effect="non-scaling-stroke" d="
  M 588.58 306.00
  L 588.58 303.20"
/>
<path stroke="#6e171d" vector-effect="non-scaling-stroke" d="
  M 588.58 302.96
  Q 588.70 302.62 588.57 302.21"
/>
<path stroke="#6e171d" vector-effect="non-scaling-stroke" d="
  M 588.59 302.00
  Q 588.68 301.61 588.58 301.21"
/>
<path stroke="#6e171d" vector-effect="non-scaling-stroke" d="
  M 588.59 301.00
  Q 588.69 300.62 588.57 300.21"
/>
<path stroke="#6e171d" vector-effect="non-scaling-stroke" d="
  M 588.59 299.96
  Q 588.68 299.61 588.58 299.21"
/>
<path stroke="#6e171d" vector-effect="non-scaling-stroke" d="
  M 588.59 298.96
  Q 588.68 298.60 588.57 298.21"
/>
<path stroke="#6e171d" vector-effect="non-scaling-stroke" d="
  M 588.57 297.00
  Q 588.69 296.61 588.57 296.21"
/>
<path stroke="#6e171d" vector-effect="non-scaling-stroke" d="
  M 588.58 295.97
  L 588.62 293.45"
/>
<path stroke="#6e171d" vector-effect="non-scaling-stroke" d="
  M 588.58 293.00
  Q 588.72 292.22 588.58 291.46"
/>
<path stroke="#6e171d" vector-effect="non-scaling-stroke" d="
  M 588.58 290.02
  L 588.55 284.48"
/>
<path stroke="#6e171d" vector-effect="non-scaling-stroke" d="
  M 588.47 267.01
  Q 588.80 266.76 588.49 266.00"
/>
<path stroke="#6e171d" vector-effect="non-scaling-stroke" d="
  M 588.56 262.96
  Q 588.75 262.23 588.57 261.46"
/>
<path stroke="#6e171d" vector-effect="non-scaling-stroke" d="
  M 588.57 255.96
  Q 588.72 255.21 588.56 254.46"
/>
<path stroke="#6e171d" vector-effect="non-scaling-stroke" d="
  M 588.57 231.96
  Q 588.74 231.22 588.57 230.46"
/>
<path stroke="#6e171d" vector-effect="non-scaling-stroke" d="
  M 588.57 222.01
  L 588.57 215.46"
/>
<path stroke="#6e171d" vector-effect="non-scaling-stroke" d="
  M 588.47 210.96
  L 588.54 205.23"
/>
<path stroke="#6e171d" vector-effect="non-scaling-stroke" d="
  M 588.61 205.05
  L 588.60 199.53"
/>
<path stroke="#6e171d" vector-effect="non-scaling-stroke" d="
  M 588.58 198.95
  L 588.61 191.22"
/>
<path stroke="#808080" vector-effect="non-scaling-stroke" d="
  M 587.69 567.22
  L 585.91 569.74"
/>
<path stroke="#808080" vector-effect="non-scaling-stroke" d="
  M 582.53 573.76
  Q 582.33 574.79 581.04 575.72"
/>
<path stroke="#808080" vector-effect="non-scaling-stroke" d="
  M 577.08 580.24
  Q 569.15 589.18 560.07 596.99"
/>
<path stroke="#808080" vector-effect="non-scaling-stroke" d="
  M 558.07 598.72
  Q 557.19 599.73 556.03 600.35"
/>
<path stroke="#808080" vector-effect="non-scaling-stroke" d="
  M 554.10 601.75
  Q 553.11 603.04 551.89 603.33"
/>
<path stroke="#808080" vector-effect="non-scaling-stroke" d="
  M 548.88 605.73
  L 544.57 608.83"
/>
<path stroke="#808080" vector-effect="non-scaling-stroke" d="
  M 543.05 609.77
  Q 542.42 610.57 541.55 610.80"
/>
<path stroke="#808080" vector-effect="non-scaling-stroke" d="
  M 540.04 611.80
  L 535.97 614.42"
/>
<path stroke="#808080" vector-effect="non-scaling-stroke" d="
  M 534.49 615.28
  Q 533.09 616.40 531.48 616.94"
/>
<path stroke="#808080" vector-effect="non-scaling-stroke" d="
  M 529.94 617.77
  Q 529.56 618.21 529.00 618.37"
/>
<path stroke="#808080" vector-effect="non-scaling-stroke" d="
  M 528.01 618.79
  Q 527.60 619.24 526.99 619.39"
/>
<path stroke="#808080" vector-effect="non-scaling-stroke" d="
  M 526.18 619.85
  L 524.98 620.42"
/>
<path stroke="#808080" vector-effect="non-scaling-stroke" d="
  M 524.07 620.79
  Q 523.55 621.22 522.98 621.39"
/>
<path stroke="#808080" vector-effect="non-scaling-stroke" d="
  M 522.04 621.77
  Q 521.39 622.40 521.01 622.15"
/>
<path stroke="#808080" vector-effect="non-scaling-stroke" d="
  M 517.41 623.74
  Q 516.98 624.31 516.05 624.27"
/>
<path stroke="#808080" vector-effect="non-scaling-stroke" d="
  M 514.68 624.88
  L 508.09 627.31"
/>
<path stroke="#808080" vector-effect="non-scaling-stroke" d="
  M 506.64 627.85
  Q 505.92 628.23 505.06 628.28"
/>
<path stroke="#808080" vector-effect="non-scaling-stroke" d="
  M 503.51 628.74
  Q 502.88 629.30 502.05 629.21"
/>
<path stroke="#808080" vector-effect="non-scaling-stroke" d="
  M 500.05 629.71
  Q 499.07 630.33 498.02 630.33"
/>
<path stroke="#808080" vector-effect="non-scaling-stroke" d="
  M 495.76 630.77
  Q 495.28 631.33 494.08 631.23"
/>
<path stroke="#808080" vector-effect="non-scaling-stroke" d="
  M 491.45 631.76
  L 483.07 633.37"
/>
<path stroke="#808080" vector-effect="non-scaling-stroke" d="
  M 480.45 633.71
  L 473.48 634.46"
/>
<path stroke="#808080" vector-effect="non-scaling-stroke" d="
  M 470.91 634.77
  L 451.08 634.82"
/>
<path stroke="#808080" vector-effect="non-scaling-stroke" d="
  M 448.42 634.46
  Q 447.75 634.59 447.04 634.43"
/>
<path stroke="#808080" vector-effect="non-scaling-stroke" d="
  M 446.01 634.47
  Q 431.84 633.10 418.32 628.81"
/>
<path stroke="#808080" vector-effect="non-scaling-stroke" d="
  M 416.94 628.38
  L 412.48 626.83"
/>
<path stroke="#808080" vector-effect="non-scaling-stroke" d="
  M 411.46 626.45
  Q 410.59 626.26 410.03 625.79"
/>
<path stroke="#808080" vector-effect="non-scaling-stroke" d="
  M 409.00 625.42
  Q 408.15 625.32 407.45 624.79"
/>
<path stroke="#808080" vector-effect="non-scaling-stroke" d="
  M 406.45 624.46
  L 394.93 618.82"
/>
<path stroke="#808080" vector-effect="non-scaling-stroke" d="
  M 394.04 618.35
  L 392.98 617.76"
/>
<path stroke="#808080" vector-effect="non-scaling-stroke" d="
  M 392.00 617.20
  L 387.78 614.79"
/>
<path stroke="#808080" vector-effect="non-scaling-stroke" d="
  M 387.03 614.26
  Q 386.52 614.08 386.30 613.77"
/>
<path stroke="#021845" vector-effect="non-scaling-stroke" d="
  M 384.86 334.04
  C 382.29 336.39 379.18 338.76 376.93 340.87
  Q 338.94 376.38 323.64 425.89
  Q 317.65 445.26 316.27 469.24
  C 313.40 519.18 331.69 568.26 369.55 600.99
  Q 371.86 602.99 377.42 607.02
  Q 381.47 609.96 385.32 613.08"
/>
<path stroke="#8298c4" vector-effect="non-scaling-stroke" d="
  M 385.18 613.37
  L 384.67 615.05"
/>
<path stroke="#8298c4" vector-effect="non-scaling-stroke" d="
  M 384.82 764.78
  L 384.87 766.79"
/>
<path stroke="#0a2f73" vector-effect="non-scaling-stroke" d="
  M 187.21 521.54
  L 187.48 519.63
  A 0.03 0.03 0.0 0 1 187.54 519.63
  C 190.04 536.90 190.71 544.11 193.51 556.30
  Q 194.85 562.09 196.89 569.86
  Q 207.85 611.48 229.49 647.06
  Q 235.24 656.51 248.35 674.21
  Q 252.44 679.74 255.40 682.91
  Q 259.06 686.82 262.24 691.05
  Q 262.86 691.89 272.83 702.21
  C 275.19 704.66 277.96 706.82 279.92 708.99
  Q 282.18 711.50 284.72 713.28
  Q 286.08 714.23 290.95 718.70
  Q 293.22 720.78 297.71 724.19
  Q 316.44 738.38 337.79 749.08
  C 343.53 751.96 350.01 754.30 355.76 757.46
  A 0.47 0.46 28.5 0 0 356.39 757.28
  L 356.40 757.26
  A 0.45 0.44 29.5 0 0 356.23 756.66
  Q 347.26 751.47 335.48 743.04
  Q 288.63 709.51 258.57 662.66
  C 254.79 656.77 250.51 649.15 246.81 642.75
  Q 241.31 633.23 237.45 624.06
  C 230.95 608.59 225.19 594.49 220.65 578.18
  Q 211.19 544.26 208.38 508.82
  Q 208.06 504.86 207.87 497.67
  Q 207.72 492.04 207.59 486.50
  Q 205.11 381.18 260.73 292.51
  Q 266.16 283.86 274.55 272.18
  Q 283.76 259.36 289.25 252.48
  Q 293.42 247.24 299.53 240.21
  Q 303.74 235.37 306.55 232.42
  Q 310.21 228.59 313.81 224.84
  Q 316.77 221.75 325.18 214.46
  Q 329.74 210.51 333.85 207.67
  Q 337.77 204.97 343.06 201.22
  A 0.07 0.07 0.0 0 0 343.08 201.13
  L 342.95 200.83
  A 0.26 0.25 -28.3 0 0 342.58 200.72
  Q 329.73 208.99 317.48 218.97
  Q 316.60 219.69 314.21 222.29
  A 8.32 8.13 -83.5 0 1 312.38 223.78
  Q 308.42 226.12 307.10 227.08
  Q 303.87 229.43 291.00 240.63
  C 285.70 245.24 281.64 250.17 276.84 254.95
  Q 272.27 259.51 266.88 266.27
  Q 255.81 280.15 254.94 281.46
  Q 254.04 282.81 251.17 286.66
  C 244.11 296.15 235.51 311.09 228.13 324.65
  Q 224.30 331.68 222.33 336.15
  Q 214.92 352.95 209.79 365.28
  C 206.17 373.98 205.14 378.29 201.90 387.93
  Q 198.79 397.17 196.98 405.21
  Q 191.37 430.10 190.49 436.31
  C 189.44 443.76 188.92 453.45 187.11 462.63
  A 0.16 0.16 0.0 0 1 186.80 462.62
  L 186.67 461.73"
/>
<path stroke="#808080" vector-effect="non-scaling-stroke" d="
  M 588.32 572.97
  L 588.22 586.99"
/>
<path stroke="#808080" vector-effect="non-scaling-stroke" d="
  M 588.20 588.52
  L 588.22 601.94"
/>
<path stroke="#808080" vector-effect="non-scaling-stroke" d="
  M 588.22 616.02
  L 588.20 617.45"
/>
<path stroke="#808080" vector-effect="non-scaling-stroke" d="
  M 588.21 632.03
  L 588.21 635.46"
/>
<path stroke="#808080" vector-effect="non-scaling-stroke" d="
  M 588.26 640.04
  L 588.21 641.47"
/>
<path stroke="#808080" vector-effect="non-scaling-stroke" d="
  M 588.21 656.05
  L 588.24 658.47"
/>
<path stroke="#808080" vector-effect="non-scaling-stroke" d="
  M 588.27 664.03
  Q 587.96 665.34 588.33 666.40"
/>
<path stroke="#808080" vector-effect="non-scaling-stroke" d="
  M 588.35 672.08
  Q 588.07 672.77 588.20 673.47"
/>
<path stroke="#808080" vector-effect="non-scaling-stroke" d="
  M 588.22 700.51
  L 588.24 701.46"
/>
<path stroke="#808080" vector-effect="non-scaling-stroke" d="
  M 588.35 704.31
  L 588.31 707.93"
/>
<path stroke="#808080" vector-effect="non-scaling-stroke" d="
  M 588.31 712.07
  Q 588.03 712.97 588.26 713.93"
/>
<path stroke="#808080" vector-effect="non-scaling-stroke" d="
  M 588.27 715.56
  L 588.25 718.94"
/>
<path stroke="#808080" vector-effect="non-scaling-stroke" d="
  M 588.28 720.06
  L 588.24 722.93"
/>
<path stroke="#808080" vector-effect="non-scaling-stroke" d="
  M 588.20 724.56
  L 588.13 740.92"
/>
<path stroke="#808080" vector-effect="non-scaling-stroke" d="
  M 588.16 741.52
  Q 588.15 741.61 588.14 741.71"
/>
<path stroke="#808080" vector-effect="non-scaling-stroke" d="
  M 588.17 742.54
  L 588.19 745.29"
/>
<path stroke="#8896ae" vector-effect="non-scaling-stroke" d="
  M 384.86 744.21
  L 384.86 742.71"
/>
<path stroke="#8896ae" vector-effect="non-scaling-stroke" d="
  M 384.84 740.21
  L 384.85 738.71"
/>
<path stroke="#8896ae" vector-effect="non-scaling-stroke" d="
  M 384.85 728.21
  L 384.85 726.71"
/>
<path stroke="#8896ae" vector-effect="non-scaling-stroke" d="
  M 384.79 616.96
  Q 385.01 616.27 384.81 615.51"
/>
<path stroke="#234b7b" vector-effect="non-scaling-stroke" d="
  M 523.2805 332.6455
  A 145.46 130.61 -67.6 0 0 347.0950 417.3584
  A 145.46 130.61 -67.6 0 0 412.4195 601.6145
  A 145.46 130.61 -67.6 0 0 588.6050 516.9016
  A 145.46 130.61 -67.6 0 0 523.2805 332.6455"
/>
<path stroke="#3b79d1" vector-effect="non-scaling-stroke" d="
  M 372.83 573.38
  Q 392.19 593.15 420.08 603.10
  Q 434.14 608.11 450.57 608.94
  Q 467.92 609.82 481.56 607.04
  Q 526.35 597.90 557.69 563.70
  Q 594.91 523.07 599.20 466.01
  Q 599.48 462.29 599.28 447.36
  C 599.23 443.83 598.74 437.99 598.02 433.08
  Q 592.36 394.30 566.53 365.05
  Q 559.06 356.59 550.76 350.25
  Q 511.95 320.61 463.87 325.31
  C 450.04 326.67 436.50 330.52 423.80 336.78
  Q 408.18 344.47 395.81 354.10
  C 390.50 358.24 385.45 363.38 381.78 367.05
  C 358.90 389.92 342.95 421.17 338.13 453.61
  C 334.44 478.44 335.85 503.47 344.22 527.26
  Q 353.51 553.65 372.83 573.38"
/>
<path stroke="#3b79d1" vector-effect="non-scaling-stroke" d="
  M 503.1899 367.4608
  A 103.67 92.94 -67.4 0 0 377.5468 427.4536
  A 103.67 92.94 -67.4 0 0 423.5101 558.8792
  A 103.67 92.94 -67.4 0 0 549.1532 498.8864
  A 103.67 92.94 -67.4 0 0 503.1899 367.4608"
/>
<path stroke="#234b7b" vector-effect="non-scaling-stroke" d="
  M 502.4378 368.3316
  A 102.60 91.91 -67.6 0 0 378.3650 428.1658
  A 102.60 91.91 -67.6 0 0 424.2422 558.0484
  A 102.60 91.91 -67.6 0 0 548.3150 498.2142
  A 102.60 91.91 -67.6 0 0 502.4378 368.3316"
/>
<path stroke="#08172f" vector-effect="non-scaling-stroke" d="
  M 446.97 538.47
  A 0.39 0.38 68.2 0 0 447.26 537.79
  Q 444.79 535.77 442.68 533.11
  C 425.82 511.92 420.83 486.17 425.33 459.69
  C 428.99 438.12 441.36 419.24 458.76 405.12
  Q 472.99 393.57 490.06 390.36
  A 0.35 0.35 0.0 0 0 490.08 389.67
  Q 458.28 381.52 431.86 400.20
  Q 419.50 408.94 410.42 421.45
  Q 393.70 444.50 394.84 474.80
  C 395.91 503.31 411.31 530.49 440.70 537.68
  A 0.20 0.17 49.7 0 0 440.76 537.69
  L 446.97 538.47"
/>
</g>
<path fill="#000000" d="
  M 635.62 839.78
  C 625.13 843.71 614.41 847.33 603.09 850.33
  Q 572.67 858.38 541.91 861.64
  Q 537.74 862.08 536.55 862.06
  C 534.08 862.02 531.97 862.68 529.46 862.84
  Q 514.56 863.80 512.79 863.84
  Q 481.98 864.53 457.25 862.78
  C 453.49 862.52 449.20 861.88 445.12 861.88
  A 10.17 10.02 -38.3 0 1 442.93 861.64
  C 439.64 860.93 436.45 861.07 433.07 860.56
  Q 423.65 859.15 419.21 858.48
  Q 372.45 851.36 330.75 834.00
  Q 274.94 810.78 232.04 772.17
  Q 189.02 733.45 160.53 682.96
  Q 142.21 650.49 129.87 610.06
  Q 120.96 580.85 117.03 552.25
  Q 116.20 546.13 115.88 543.74
  Q 114.97 536.83 114.94 535.22
  C 114.88 530.96 114.00 528.10 113.99 523.60
  C 113.98 518.17 113.11 511.47 113.03 505.10
  Q 112.84 488.89 113.08 474.31
  Q 113.14 470.45 113.55 466.20
  C 114.08 460.66 113.77 456.49 114.60 451.43
  Q 115.06 448.64 115.06 444.67
  A 8.69 8.51 52.5 0 1 115.29 442.78
  C 116.06 439.69 115.71 436.48 116.41 434.13
  Q 116.61 433.46 117.61 425.78
  Q 118.18 421.43 118.75 418.25
  Q 120.06 410.97 120.10 410.77
  Q 124.99 383.12 133.00 357.75
  Q 138.20 341.30 146.00 322.24
  C 161.86 283.49 183.15 248.24 209.66 215.79
  Q 228.35 192.91 248.59 174.42
  Q 315.54 113.27 404.29 88.62
  Q 435.44 79.96 474.42 76.47
  Q 494.88 74.64 515.63 75.38
  Q 538.85 76.22 556.75 78.51
  Q 563.09 79.32 564.14 79.50
  Q 567.55 80.11 568.45 80.04
  C 570.26 79.89 572.34 80.73 574.19 81.01
  Q 616.02 87.50 656.74 104.01
  Q 699.41 121.32 736.03 147.95
  Q 780.90 180.58 813.61 224.41
  Q 829.25 245.36 842.49 268.99
  Q 855.17 291.61 864.88 317.13
  Q 877.39 350.01 884.41 387.12
  Q 886.48 398.11 887.48 405.91
  Q 887.70 407.57 887.71 407.75
  Q 888.30 413.40 889.02 419.60
  Q 889.97 427.70 890.03 431.46
  C 890.14 437.27 890.88 442.39 890.97 448.92
  Q 891.14 460.70 890.93 473.91
  Q 890.84 479.58 890.42 483.07
  C 889.92 487.17 890.10 491.13 889.67 495.31
  Q 887.72 514.27 887.07 518.78
  Q 870.55 633.83 798.69 723.19
  Q 788.18 736.26 774.29 750.42
  Q 761.55 763.41 747.33 775.11
  Q 696.29 817.11 635.62 839.78
  Z
  M 237.41 743.13
  Q 286.09 791.63 349.50 814.26
  Q 422.01 840.14 498.98 829.87
  Q 556.25 822.21 606.67 795.35
  C 642.23 776.41 675.18 750.78 703.21 720.12
  C 719.08 702.78 733.67 683.86 745.84 664.15
  Q 769.69 625.53 784.86 581.81
  C 800.12 537.83 806.46 490.44 805.63 443.73
  Q 804.58 384.80 785.18 326.94
  Q 775.62 298.41 758.86 267.55
  Q 730.16 214.70 688.51 177.61
  C 640.97 135.30 581.75 109.53 519.18 103.69
  Q 474.47 99.51 427.89 109.28
  C 384.46 118.38 342.67 135.49 306.20 160.30
  Q 280.44 177.83 259.26 198.21
  Q 244.24 212.67 236.56 221.44
  Q 166.78 301.08 144.65 403.96
  C 139.68 427.02 136.54 452.37 135.76 475.98
  Q 133.58 542.24 153.90 605.84
  C 170.70 658.42 198.58 704.44 237.41 743.13
  Z
  M 737.95 716.29
  Q 723.35 733.38 713.84 743.33
  Q 699.38 758.46 680.14 774.06
  Q 646.83 800.87 608.78 820.30
  C 601.89 823.82 596.91 825.85 588.59 829.67
  C 582.20 832.62 575.12 834.91 568.37 837.44
  A 0.24 0.24 0.0 0 0 568.23 837.73
  L 568.23 837.74
  A 0.23 0.22 -15.0 0 0 568.50 837.89
  Q 591.26 832.44 595.42 831.38
  C 644.93 818.78 691.33 793.58 730.03 760.01
  C 789.10 708.76 830.87 638.77 849.96 562.74
  C 861.13 518.23 865.51 470.11 861.16 423.96
  Q 857.86 389.01 849.41 356.84
  Q 825.83 267.13 762.57 199.69
  C 738.75 174.29 711.79 153.84 680.98 136.84
  C 673.42 132.67 664.03 128.56 657.26 125.56
  A 0.25 0.25 0.0 0 0 656.94 125.67
  L 656.93 125.69
  A 0.24 0.23 30.1 0 0 657.02 126.00
  Q 666.98 131.95 677.38 139.63
  C 709.21 163.11 737.15 191.23 758.94 223.30
  Q 777.60 250.76 791.11 280.65
  Q 826.62 359.25 828.09 446.74
  C 828.79 488.08 824.77 527.94 813.60 567.64
  Q 790.66 649.16 737.95 716.29
  Z"
/>
<path fill="#4695f6" d="
  M 237.41 743.13
  C 198.58 704.44 170.70 658.42 153.90 605.84
  Q 133.58 542.24 135.76 475.98
  C 136.54 452.37 139.68 427.02 144.65 403.96
  Q 166.78 301.08 236.56 221.44
  Q 244.24 212.67 259.26 198.21
  Q 280.44 177.83 306.20 160.30
  C 342.67 135.49 384.46 118.38 427.89 109.28
  Q 474.47 99.51 519.18 103.69
  C 581.75 109.53 640.97 135.30 688.51 177.61
  Q 730.16 214.70 758.86 267.55
  Q 775.62 298.41 785.18 326.94
  Q 804.58 384.80 805.63 443.73
  C 806.46 490.44 800.12 537.83 784.86 581.81
  Q 769.69 625.53 745.84 664.15
  C 733.67 683.86 719.08 702.78 703.21 720.12
  C 675.18 750.78 642.23 776.41 606.67 795.35
  Q 556.25 822.21 498.98 829.87
  Q 422.01 840.14 349.50 814.26
  Q 286.09 791.63 237.41 743.13
  Z
  M 238.16 742.33
  Q 286.70 790.68 349.92 813.23
  Q 422.22 839.02 498.96 828.76
  Q 556.05 821.12 606.32 794.33
  C 641.77 775.44 674.61 749.88 702.55 719.31
  C 718.37 702.01 732.91 683.15 745.04 663.50
  Q 768.81 624.99 783.93 581.40
  C 799.14 537.54 805.45 490.30 804.61 443.73
  Q 803.55 384.97 784.20 327.29
  Q 774.66 298.85 757.95 268.08
  Q 729.33 215.40 687.79 178.43
  C 640.39 136.25 581.34 110.57 518.96 104.76
  Q 474.38 100.60 427.94 110.35
  C 384.65 119.43 342.98 136.50 306.63 161.24
  Q 280.95 178.72 259.84 199.05
  Q 244.87 213.47 237.21 222.21
  Q 167.65 301.63 145.61 404.20
  C 140.66 427.19 137.53 452.47 136.76 476.01
  Q 134.60 542.07 154.87 605.47
  C 171.63 657.89 199.44 703.77 238.16 742.33
  Z"
/>
<path fill="#2f5dac" d="
  M 238.16 742.33
  C 199.44 703.77 171.63 657.89 154.87 605.47
  Q 134.60 542.07 136.76 476.01
  C 137.53 452.47 140.66 427.19 145.61 404.20
  Q 167.65 301.63 237.21 222.21
  Q 244.87 213.47 259.84 199.05
  Q 280.95 178.72 306.63 161.24
  C 342.98 136.50 384.65 119.43 427.94 110.35
  Q 474.38 100.60 518.96 104.76
  C 581.34 110.57 640.39 136.25 687.79 178.43
  Q 729.33 215.40 757.95 268.08
  Q 774.66 298.85 784.20 327.29
  Q 803.55 384.97 804.61 443.73
  C 805.45 490.30 799.14 537.54 783.93 581.40
  Q 768.81 624.99 745.04 663.50
  C 732.91 683.15 718.37 702.01 702.55 719.31
  C 674.61 749.88 641.77 775.44 606.32 794.33
  Q 556.05 821.12 498.96 828.76
  Q 422.22 839.02 349.92 813.23
  Q 286.70 790.68 238.16 742.33
  Z
  M 262.77 729.44
  Q 313.04 775.18 378.94 793.58
  Q 423.67 806.06 471.00 804.39
  Q 497.06 803.46 520.33 798.30
  C 559.59 789.58 595.96 773.36 629.61 749.50
  Q 663.73 725.32 691.40 693.65
  Q 723.05 657.45 743.29 616.08
  C 759.73 582.47 771.32 547.88 776.71 511.36
  Q 781.16 481.29 780.96 451.25
  Q 780.52 386.94 757.87 327.11
  Q 731.55 257.58 678.27 206.14
  Q 676.50 204.43 674.14 202.50
  C 670.59 199.60 667.71 196.65 663.76 193.41
  Q 620.00 157.41 566.99 141.67
  C 509.69 124.66 447.72 127.30 390.93 147.41
  Q 320.13 172.48 268.26 225.74
  Q 236.16 258.70 214.40 294.90
  Q 185.10 343.64 170.92 402.15
  C 158.35 454.04 158.25 509.73 169.11 561.90
  C 178.70 607.95 197.61 651.85 226.58 689.50
  Q 244.58 712.89 262.77 729.44
  Z"
/>
<path fill="#043089" d="
  M 680.14 774.06
  Q 680.40 774.07 680.59 774.11
  A 0.38 0.37 -58.2 0 1 680.74 774.77
  Q 644.16 803.84 602.57 824.38
  A 2.85 2.65 23.9 0 1 601.96 824.59
  Q 600.53 824.90 598.48 826.25
  A 1.36 1.16 -68.0 0 1 598.23 826.38
  L 587.17 831.27
  A 0.26 0.26 0.0 0 0 587.22 831.77
  Q 588.85 832.13 590.13 831.81
  Q 624.68 823.35 655.50 808.18
  Q 681.34 795.47 706.45 777.64
  C 712.30 773.48 717.25 768.97 723.07 764.49
  Q 727.54 761.05 735.14 754.17
  Q 776.69 716.57 805.64 667.90
  Q 811.08 658.76 813.74 653.78
  Q 828.24 626.68 837.24 601.06
  Q 838.34 597.92 841.30 589.17
  Q 848.69 567.37 852.76 546.52
  Q 852.82 546.22 853.19 544.40
  Q 855.24 534.28 857.24 521.75
  Q 857.85 517.92 860.34 493.86
  Q 861.81 479.60 861.90 468.10
  Q 862.04 450.02 861.62 442.25
  Q 859.83 408.54 852.49 373.97
  C 839.22 311.49 810.14 253.87 767.82 207.48
  Q 762.33 201.47 760.20 199.03
  C 752.37 190.07 740.68 180.23 729.44 170.56
  Q 721.20 163.48 711.03 156.73
  Q 698.32 148.30 681.72 138.28
  Q 678.86 136.55 672.50 133.59
  Q 672.33 133.51 672.04 133.64
  Q 671.74 133.77 671.65 133.92
  A 0.42 0.41 32.9 0 0 671.77 134.46
  Q 680.82 140.70 692.46 149.64
  Q 700.83 156.08 709.30 164.20
  Q 723.59 177.92 725.29 179.70
  Q 748.92 204.41 767.59 234.39
  Q 792.14 273.81 806.76 317.15
  Q 812.81 335.10 817.55 354.17
  C 822.55 374.34 825.43 395.52 827.55 417.27
  C 828.46 426.61 828.29 434.33 828.96 442.73
  C 829.80 453.41 828.54 464.88 828.61 475.76
  Q 828.65 482.00 827.90 490.71
  Q 826.27 509.45 824.00 524.22
  Q 822.00 537.27 820.60 543.34
  C 817.01 558.87 813.09 574.06 807.93 589.19
  Q 789.02 644.62 755.87 693.63
  Q 748.30 704.82 738.77 716.80
  Q 738.49 717.15 738.12 716.89
  Q 737.90 716.72 737.95 716.29
  Q 790.66 649.16 813.60 567.64
  C 824.77 527.94 828.79 488.08 828.09 446.74
  Q 826.62 359.25 791.11 280.65
  Q 777.60 250.76 758.94 223.30
  C 737.15 191.23 709.21 163.11 677.38 139.63
  Q 666.98 131.95 657.02 126.00
  A 0.24 0.23 30.1 0 1 656.93 125.69
  L 656.94 125.67
  A 0.25 0.25 0.0 0 1 657.26 125.56
  C 664.03 128.56 673.42 132.67 680.98 136.84
  C 711.79 153.84 738.75 174.29 762.57 199.69
  Q 825.83 267.13 849.41 356.84
  Q 857.86 389.01 861.16 423.96
  C 865.51 470.11 861.13 518.23 849.96 562.74
  C 830.87 638.77 789.10 708.76 730.03 760.01
  C 691.33 793.58 644.93 818.78 595.42 831.38
  Q 591.26 832.44 568.50 837.89
  A 0.23 0.22 -15.0 0 1 568.23 837.74
  L 568.23 837.73
  A 0.24 0.24 0.0 0 1 568.37 837.44
  C 575.12 834.91 582.20 832.62 588.59 829.67
  C 596.91 825.85 601.89 823.82 608.78 820.30
  Q 646.83 800.87 680.14 774.06
  Z"
/>
<path fill="#4695f6" d="
  M 262.77 729.44
  Q 244.58 712.89 226.58 689.50
  C 197.61 651.85 178.70 607.95 169.11 561.90
  C 158.25 509.73 158.35 454.04 170.92 402.15
  Q 185.10 343.64 214.40 294.90
  Q 236.16 258.70 268.26 225.74
  Q 320.13 172.48 390.93 147.41
  C 447.72 127.30 509.69 124.66 566.99 141.67
  Q 620.00 157.41 663.76 193.41
  C 667.71 196.65 670.59 199.60 674.14 202.50
  Q 676.50 204.43 678.27 206.14
  Q 731.55 257.58 757.87 327.11
  Q 780.52 386.94 780.96 451.25
  Q 781.16 481.29 776.71 511.36
  C 771.32 547.88 759.73 582.47 743.29 616.08
  Q 723.05 657.45 691.40 693.65
  Q 663.73 725.32 629.61 749.50
  C 595.96 773.36 559.59 789.58 520.33 798.30
  Q 497.06 803.46 471.00 804.39
  Q 423.67 806.06 378.94 793.58
  Q 313.04 775.18 262.77 729.44
  Z
  M 263.51 728.65
  Q 313.62 774.23 379.31 792.56
  Q 423.90 804.99 471.07 803.32
  Q 497.05 802.39 520.24 797.24
  C 559.37 788.54 595.62 772.36 629.15 748.57
  Q 663.16 724.47 690.73 692.89
  Q 722.27 656.81 742.44 615.57
  C 758.82 582.06 770.36 547.58 775.73 511.18
  Q 780.16 481.21 779.95 451.27
  Q 779.50 387.17 756.91 327.54
  Q 730.66 258.24 677.55 206.98
  Q 675.78 205.27 673.43 203.35
  C 669.89 200.46 667.02 197.52 663.08 194.29
  Q 619.46 158.42 566.62 142.74
  C 509.50 125.79 447.73 128.44 391.13 148.49
  Q 320.57 173.50 268.88 226.59
  Q 236.89 259.45 215.21 295.54
  Q 186.01 344.13 171.89 402.45
  C 159.37 454.17 159.28 509.68 170.12 561.68
  C 179.69 607.58 198.54 651.33 227.43 688.85
  Q 245.37 712.16 263.51 728.65
  Z"
/>
<path fill="#000000" d="
  M 263.51 728.65
  Q 245.37 712.16 227.43 688.85
  C 198.54 651.33 179.69 607.58 170.12 561.68
  C 159.28 509.68 159.37 454.17 171.89 402.45
  Q 186.01 344.13 215.21 295.54
  Q 236.89 259.45 268.88 226.59
  Q 320.57 173.50 391.13 148.49
  C 447.73 128.44 509.50 125.79 566.62 142.74
  Q 619.46 158.42 663.08 194.29
  C 667.02 197.52 669.89 200.46 673.43 203.35
  Q 675.78 205.27 677.55 206.98
  Q 730.66 258.24 756.91 327.54
  Q 779.50 387.17 779.95 451.27
  Q 780.16 481.21 775.73 511.18
  C 770.36 547.58 758.82 582.06 742.44 615.57
  Q 722.27 656.81 690.73 692.89
  Q 663.16 724.47 629.15 748.57
  C 595.62 772.36 559.37 788.54 520.24 797.24
  Q 497.05 802.39 471.07 803.32
  Q 423.90 804.99 379.31 792.56
  Q 313.62 774.23 263.51 728.65
  Z
  M 475.44 157.40
  L 473.02 157.49
  Q 470.92 156.98 470.44 157.83
  L 463.98 158.36
  Q 463.59 157.64 462.53 158.42
  L 447.88 160.38
  Q 446.51 159.79 445.13 160.73
  Q 444.35 161.30 443.06 161.19
  Q 441.88 160.60 440.48 161.64
  Q 439.00 162.29 437.53 162.33
  Q 436.12 161.75 435.11 162.76
  Q 434.25 163.27 433.07 163.19
  Q 431.31 162.85 430.45 163.75
  Q 429.40 164.37 428.01 164.36
  Q 427.06 163.66 426.41 164.74
  Q 425.81 165.15 425.05 165.19
  Q 423.82 164.94 422.93 165.66
  Q 422.00 166.28 421.06 166.16
  Q 420.51 165.61 419.00 166.72
  Q 418.11 167.28 417.04 167.26
  Q 415.95 166.75 415.44 167.74
  Q 414.89 168.25 414.04 168.21
  Q 412.88 167.76 412.43 168.71
  Q 411.81 169.15 411.05 169.17
  Q 409.85 168.75 408.93 169.72
  Q 408.11 170.29 406.96 170.41
  Q 406.10 169.94 405.57 170.74
  Q 404.86 171.29 404.02 171.25
  Q 402.56 170.87 402.66 171.85
  L 400.99 172.43
  Q 400.03 171.78 399.94 172.76
  Q 399.68 173.00 399.28 173.09
  Q 397.34 172.96 397.19 173.80
  Q 396.80 174.19 395.98 174.26
  Q 394.54 173.92 394.51 174.77
  Q 393.84 175.25 392.99 175.40
  Q 392.43 174.76 391.66 175.59
  A 0.17 0.12 80.8 0 0 391.62 175.67
  Q 391.61 175.95 391.99 175.86
  L 391.28 176.11
  Q 389.33 175.91 388.95 176.97
  Q 388.38 177.46 388.08 177.20
  Q 385.96 176.89 386.23 177.88
  Q 385.31 177.98 384.79 178.89
  Q 384.59 178.76 384.41 178.87
  Q 384.70 178.48 384.21 178.23
  A 0.52 0.51 45.7 0 0 383.77 178.22
  C 368.74 184.76 354.15 191.76 339.79 201.05
  C 302.55 225.15 270.50 255.60 246.07 292.35
  Q 229.67 317.02 216.43 346.70
  Q 191.55 402.48 186.67 461.73
  Q 183.98 488.54 186.43 515.50
  Q 186.71 518.55 187.21 521.54
  Q 188.52 537.30 192.13 554.43
  Q 208.50 632.02 260.60 690.68
  C 285.30 718.48 316.10 741.77 350.43 756.23
  C 360.58 760.51 373.18 765.85 383.74 768.83
  Q 384.15 768.95 384.76 768.52
  Q 385.20 768.98 385.98 768.86
  Q 387.44 768.87 387.27 769.28
  Q 388.67 770.23 389.04 769.63
  Q 390.32 769.75 391.45 770.34
  Q 392.10 771.18 392.80 770.62
  L 395.01 771.22
  Q 395.80 772.13 396.81 771.62
  Q 398.02 771.72 399.09 772.20
  Q 399.95 773.31 401.09 772.58
  L 408.16 774.15
  Q 408.87 775.22 411.02 774.79
  Q 412.84 774.59 413.81 775.26
  Q 415.12 776.07 416.87 775.71
  Q 418.42 775.58 419.96 776.11
  Q 421.28 777.12 424.01 776.79
  Q 425.80 776.63 427.52 777.18
  Q 429.25 777.87 431.16 777.64
  L 438.52 778.18
  Q 440.36 778.86 442.39 778.61
  L 458.29 779.18
  L 465.42 779.11
  L 478.04 778.59
  Q 479.44 778.89 480.42 778.18
  L 501.45 775.57
  Q 502.84 776.35 504.44 775.28
  Q 505.80 774.56 507.42 774.76
  Q 509.11 775.19 509.83 774.29
  Q 510.81 773.64 512.46 773.65
  Q 513.20 774.21 514.72 773.29
  Q 515.56 772.62 517.21 772.70
  Q 518.27 773.20 518.54 772.32
  L 521.21 771.61
  Q 522.30 772.26 522.86 771.23
  Q 523.86 770.74 525.23 770.61
  Q 525.34 771.04 526.00 770.84
  Q 526.50 770.69 526.53 770.25
  Q 527.46 769.76 528.51 769.78
  Q 529.78 770.05 530.40 769.29
  Q 531.24 768.70 532.44 768.62
  Q 533.04 769.32 533.91 768.28
  Q 534.81 767.69 536.05 767.57
  Q 536.35 767.91 536.74 767.76
  Q 537.22 767.58 537.04 767.29
  Q 538.00 766.83 539.03 766.76
  Q 540.37 767.22 540.44 766.26
  Q 541.19 765.76 542.24 765.60
  Q 542.45 765.92 542.75 765.90
  Q 543.50 765.85 543.50 765.23
  L 548.19 763.58
  Q 549.22 764.37 549.51 763.21
  Q 550.26 762.81 551.24 762.71
  Q 551.79 762.95 552.25 762.71
  Q 552.59 762.53 552.45 762.24
  Q 553.26 761.72 554.19 761.59
  Q 555.33 762.29 555.31 761.18
  L 557.04 760.57
  Q 557.37 760.93 557.74 760.72
  Q 558.03 760.56 558.00 760.27
  Q 558.53 759.83 559.29 759.71
  Q 559.82 759.98 560.25 759.73
  Q 560.59 759.53 560.46 759.24
  Q 561.16 758.76 562.04 758.59
  Q 562.50 759.03 563.00 758.70
  Q 563.24 758.54 562.99 758.20
  Q 563.69 757.71 564.26 757.78
  Q 565.49 758.12 565.47 757.23
  Q 566.16 756.76 567.04 756.56
  C 567.36 756.89 567.95 756.81 567.88 756.28
  Q 568.44 755.79 569.22 755.58
  Q 569.30 756.07 569.99 755.69
  Q 570.26 755.53 570.16 755.26
  Q 570.65 754.86 571.29 754.71
  Q 571.82 754.98 572.25 754.73
  Q 572.62 754.52 572.45 754.23
  Q 573.18 753.65 574.03 753.53
  Q 574.86 753.83 574.73 753.26
  Q 575.29 752.69 576.22 752.55
  Q 576.39 753.10 576.90 752.29
  Q 577.30 751.83 577.99 751.65
  Q 578.41 751.95 578.74 751.76
  Q 579.14 751.55 579.00 751.27
  Q 579.65 750.66 580.21 750.76
  Q 580.71 750.92 581.01 750.72
  Q 581.23 750.57 581.15 750.27
  Q 581.53 749.87 582.02 749.79
  Q 583.16 750.12 583.28 749.06
  L 584.20 748.58
  Q 584.67 749.20 585.02 748.27
  Q 585.41 747.86 586.02 747.78
  Q 586.61 748.02 587.11 747.61
  Q 587.47 747.32 587.29 747.04
  L 588.22 746.54
  Q 588.42 746.56 588.71 746.12
  Q 588.86 746.13 589.01 746.16
  A 0.95 0.95 0.0 0 0 589.53 746.09
  Q 597.85 742.12 605.29 737.56
  Q 645.18 713.10 675.28 678.04
  Q 734.81 608.71 751.68 520.53
  C 758.68 483.91 759.55 445.19 754.58 407.70
  C 745.65 340.26 715.36 275.71 666.91 227.62
  Q 633.64 194.60 589.67 176.34
  A 0.78 0.78 0.0 0 0 588.59 177.06
  L 588.63 190.96
  Q 588.58 190.35 588.21 190.20
  L 588.02 176.75
  A 0.72 0.71 8.8 0 0 587.53 176.09
  L 583.77 174.83
  Q 584.11 174.62 583.69 174.43
  Q 583.06 174.16 582.95 174.48
  Q 581.93 174.32 581.28 173.79
  Q 581.10 172.96 580.02 173.26
  Q 579.12 173.27 578.47 172.80
  Q 578.48 171.96 577.02 172.34
  L 573.14 170.88
  Q 573.45 169.66 571.86 170.41
  L 560.40 166.86
  Q 560.34 166.15 559.60 166.12
  Q 559.19 166.10 558.98 166.41
  L 544.55 162.74
  Q 543.95 161.73 542.97 162.42
  Q 526.70 158.86 510.44 157.85
  Q 509.43 156.63 507.91 157.53
  Q 492.45 156.49 477.00 157.40
  Q 476.29 156.59 475.44 157.40
  Z"
/>
<path fill="#102d5d" d="
  M 680.14 774.06
  Q 699.38 758.46 713.84 743.33
  Q 723.35 733.38 737.95 716.29
  Q 737.90 716.72 738.12 716.89
  Q 738.49 717.15 738.77 716.80
  Q 748.30 704.82 755.87 693.63
  Q 789.02 644.62 807.93 589.19
  C 813.09 574.06 817.01 558.87 820.60 543.34
  Q 822.00 537.27 824.00 524.22
  Q 826.27 509.45 827.90 490.71
  Q 828.65 482.00 828.61 475.76
  C 828.54 464.88 829.80 453.41 828.96 442.73
  C 828.29 434.33 828.46 426.61 827.55 417.27
  C 825.43 395.52 822.55 374.34 817.55 354.17
  Q 812.81 335.10 806.76 317.15
  Q 792.14 273.81 767.59 234.39
  Q 748.92 204.41 725.29 179.70
  Q 723.59 177.92 709.30 164.20
  Q 700.83 156.08 692.46 149.64
  Q 680.82 140.70 671.77 134.46
  A 0.42 0.41 32.9 0 1 671.65 133.92
  Q 671.74 133.77 672.04 133.64
  Q 672.33 133.51 672.50 133.59
  Q 678.86 136.55 681.72 138.28
  Q 698.32 148.30 711.03 156.73
  Q 721.20 163.48 729.44 170.56
  C 740.68 180.23 752.37 190.07 760.20 199.03
  Q 762.33 201.47 767.82 207.48
  C 810.14 253.87 839.22 311.49 852.49 373.97
  Q 859.83 408.54 861.62 442.25
  Q 862.04 450.02 861.90 468.10
  Q 861.81 479.60 860.34 493.86
  Q 857.85 517.92 857.24 521.75
  Q 855.24 534.28 853.19 544.40
  Q 852.82 546.22 852.76 546.52
  Q 848.69 567.37 841.30 589.17
  Q 838.34 597.92 837.24 601.06
  Q 828.24 626.68 813.74 653.78
  Q 811.08 658.76 805.64 667.90
  Q 776.69 716.57 735.14 754.17
  Q 727.54 761.05 723.07 764.49
  C 717.25 768.97 712.30 773.48 706.45 777.64
  Q 681.34 795.47 655.50 808.18
  Q 624.68 823.35 590.13 831.81
  Q 588.85 832.13 587.22 831.77
  A 0.26 0.26 0.0 0 1 587.17 831.27
  L 598.23 826.38
  A 1.36 1.16 -68.0 0 0 598.48 826.25
  Q 600.53 824.90 601.96 824.59
  A 2.85 2.65 23.9 0 0 602.57 824.38
  Q 644.16 803.84 680.74 774.77
  A 0.38 0.37 -58.2 0 0 680.59 774.11
  Q 680.40 774.07 680.14 774.06
  Z"
/>
<path fill="#ffffff" d="
  M 507.91 157.53
  L 510.44 157.85
  Q 526.70 158.86 542.97 162.42
  L 544.55 162.74
  L 558.98 166.41
  L 560.40 166.86
  L 571.86 170.41
  L 573.14 170.88
  L 577.02 172.34
  Q 577.73 172.70 578.47 172.80
  Q 579.12 173.27 580.02 173.26
  Q 580.55 173.66 581.28 173.79
  Q 581.93 174.32 582.95 174.48
  L 583.77 174.83
  L 587.53 176.09
  A 0.72 0.71 8.8 0 1 588.02 176.75
  L 588.21 190.20
  L 588.25 191.80
  L 588.20 198.96
  L 588.24 199.77
  L 588.28 204.92
  Q 588.02 205.70 588.32 206.55
  L 588.16 210.96
  L 588.23 216.02
  Q 588.17 216.59 588.30 216.90
  Q 587.98 218.78 588.32 220.58
  Q 588.30 221.12 588.17 220.96
  L 588.17 266.00
  L 588.26 266.95
  L 588.35 272.56
  Q 588.08 272.96 588.27 273.45
  L 588.24 304.04
  Q 588.08 304.85 588.25 305.71
  Q 588.03 306.90 588.32 308.06
  Q 587.99 308.94 588.27 309.93
  Q 588.05 310.87 588.29 311.81
  Q 588.01 313.07 588.24 314.49
  L 588.25 319.80
  L 588.23 325.48
  Q 588.08 326.53 588.28 327.54
  L 588.24 345.95
  L 588.21 346.80
  Q 588.05 347.11 587.72 347.43
  Q 587.01 346.46 586.06 345.81
  Q 586.28 345.50 585.95 345.37
  Q 584.56 342.64 581.81 341.26
  Q 580.62 339.34 578.99 338.82
  Q 577.02 336.20 574.39 334.74
  Q 574.43 334.46 574.00 334.22
  Q 573.17 333.00 572.00 332.61
  L 568.76 329.82
  Q 567.56 328.57 566.06 327.89
  Q 565.40 327.10 564.49 326.73
  Q 564.33 326.45 564.03 326.27
  Q 563.54 325.62 562.98 325.54
  Q 562.13 324.69 561.01 324.17
  Q 560.23 323.36 559.04 322.84
  Q 558.65 322.38 558.05 322.21
  Q 557.65 321.55 556.98 321.53
  Q 556.13 320.61 554.96 320.18
  Q 554.61 319.57 553.98 319.66
  Q 552.06 318.03 549.67 317.12
  Q 549.67 316.87 549.04 316.74
  Q 548.57 316.33 547.96 316.21
  Q 547.65 315.77 547.04 315.62
  L 546.04 315.08
  Q 545.58 314.74 545.04 314.62
  L 544.11 314.21
  Q 543.66 313.70 542.98 313.60
  Q 542.63 313.35 542.20 313.22
  Q 541.70 312.75 540.97 312.71
  Q 540.64 312.37 540.09 312.23
  Q 539.58 311.79 538.99 311.77
  Q 538.28 311.16 537.25 311.00
  Q 536.47 310.39 535.47 310.21
  Q 534.81 309.68 533.96 309.61
  Q 533.52 309.32 532.98 309.22
  Q 532.34 308.79 531.54 308.60
  Q 530.96 308.27 530.29 308.21
  Q 529.71 307.72 528.97 307.83
  Q 528.43 307.32 527.60 307.22
  Q 526.85 306.71 525.98 306.74
  Q 525.41 306.28 524.61 306.21
  Q 523.76 305.73 522.82 305.57
  Q 522.26 305.28 521.57 305.23
  Q 520.81 304.70 519.75 304.73
  Q 519.12 304.27 518.23 304.22
  Q 517.21 303.70 516.08 303.65
  Q 515.20 303.21 514.16 303.25
  Q 513.98 302.80 512.98 302.83
  Q 511.67 302.28 510.18 302.27
  Q 509.46 301.59 507.98 301.80
  Q 506.93 301.26 505.28 301.28
  Q 504.12 300.51 502.01 300.71
  L 498.51 300.14
  Q 495.98 299.45 493.70 299.76
  L 485.66 299.27
  L 477.94 299.25
  L 468.52 299.81
  Q 465.71 299.59 462.99 300.29
  L 460.43 300.67
  Q 458.37 300.62 456.88 301.28
  L 454.21 301.63
  Q 452.62 301.65 450.96 302.30
  L 449.41 302.64
  Q 447.99 302.67 446.79 303.23
  Q 445.95 303.17 445.12 303.64
  Q 444.05 303.63 442.83 304.24
  Q 442.10 304.31 441.43 304.62
  L 439.31 305.18
  L 438.02 305.58
  Q 436.89 305.67 435.93 306.28
  Q 435.17 306.32 434.53 306.80
  Q 433.60 306.76 432.88 307.29
  Q 432.46 307.29 432.04 307.52
  Q 431.08 307.69 430.28 308.22
  L 429.23 308.59
  Q 428.14 308.75 427.39 309.28
  Q 426.69 309.28 426.03 309.78
  Q 425.28 309.82 424.54 310.26
  L 423.95 310.53
  L 422.29 311.16
  L 421.03 311.80
  L 417.88 313.26
  L 416.96 313.63
  Q 416.30 313.80 415.88 314.29
  Q 415.42 314.35 414.96 314.63
  Q 414.16 314.83 413.84 315.28
  Q 413.33 315.35 413.00 315.58
  L 411.79 316.20
  L 410.96 316.63
  Q 410.31 316.82 409.89 317.29
  Q 409.42 317.36 408.97 317.64
  Q 408.38 317.84 407.97 318.27
  Q 407.47 318.36 407.21 318.78
  Q 406.50 318.81 406.11 319.29
  Q 404.89 319.73 404.01 320.56
  Q 403.52 320.55 402.98 321.05
  Q 402.36 321.29 401.98 321.79
  Q 401.45 321.85 401.06 322.26
  L 399.04 323.56
  Q 398.29 323.74 397.73 324.49
  L 395.97 325.66
  Q 394.94 326.19 394.13 327.02
  Q 393.52 327.20 393.04 327.81
  Q 391.80 328.36 390.96 329.26
  Q 389.63 329.93 388.73 331.06
  L 387.01 332.08
  Q 386.12 332.32 385.95 333.03
  L 385.66 333.21
  Q 385.09 333.11 384.81 332.79
  Q 385.09 331.13 384.53 330.01
  L 384.78 288.20
  L 384.85 282.74
  L 384.83 278.21
  L 384.85 276.71
  L 384.83 276.21
  L 384.85 274.71
  L 384.84 252.21
  L 384.84 250.71
  L 384.79 178.89
  Q 385.31 177.98 386.23 177.88
  Q 387.29 177.78 388.08 177.20
  Q 388.38 177.46 388.95 176.97
  L 391.28 176.11
  L 391.99 175.86
  L 392.99 175.40
  Q 393.84 175.25 394.51 174.77
  Q 395.30 174.70 395.98 174.26
  Q 396.80 174.19 397.19 173.80
  L 399.28 173.09
  Q 399.68 173.00 399.94 172.76
  L 400.99 172.43
  L 402.66 171.85
  Q 403.41 171.66 404.02 171.25
  Q 404.86 171.29 405.57 170.74
  Q 406.26 170.73 406.96 170.41
  Q 408.11 170.29 408.93 169.72
  Q 410.05 169.61 411.05 169.17
  Q 411.81 169.15 412.43 168.71
  Q 413.32 168.66 414.04 168.21
  Q 414.89 168.25 415.44 167.74
  Q 416.29 167.68 417.04 167.26
  Q 418.11 167.28 419.00 166.72
  Q 420.12 166.67 421.06 166.16
  Q 422.00 166.28 422.93 165.66
  L 425.05 165.19
  Q 425.81 165.15 426.41 164.74
  L 428.01 164.36
  Q 429.40 164.37 430.45 163.75
  L 433.07 163.19
  Q 434.25 163.27 435.11 162.76
  L 437.53 162.33
  Q 439.00 162.29 440.48 161.64
  L 443.06 161.19
  Q 444.35 161.30 445.13 160.73
  L 447.88 160.38
  L 462.53 158.42
  L 463.98 158.36
  L 470.44 157.83
  L 473.02 157.49
  L 475.44 157.40
  L 477.00 157.40
  Q 492.45 156.49 507.91 157.53
  Z"
/>
<path fill="#dc2e3a" d="
  M 588.71 746.12
  Q 588.73 745.88 588.68 745.72
  L 588.51 703.22
  Q 588.55 703.09 588.60 702.96
  Q 588.67 702.59 588.57 702.21
  Q 588.57 702.09 588.57 701.96
  Q 588.79 701.07 588.55 700.27
  Q 588.56 700.12 588.57 699.96
  Q 588.69 699.61 588.57 699.21
  Q 588.58 699.09 588.58 698.96
  Q 588.73 698.09 588.58 697.21
  Q 588.57 697.09 588.57 696.96
  Q 588.68 696.61 588.58 696.21
  Q 588.59 696.12 588.59 696.04
  Q 588.86 694.66 588.57 693.21
  Q 588.57 693.09 588.57 692.96
  Q 588.70 692.62 588.58 692.21
  Q 588.58 692.09 588.58 691.96
  Q 588.69 691.64 588.59 691.21
  Q 588.59 691.09 588.59 690.96
  Q 588.68 690.61 588.58 690.21
  L 588.61 688.96
  L 588.60 682.49
  L 588.56 673.47
  L 588.59 663.46
  L 588.52 658.47
  Q 588.78 657.25 588.52 656.03
  Q 588.81 654.79 588.57 653.45
  L 588.58 653.00
  L 588.58 649.46
  L 588.58 645.96
  Q 588.76 645.08 588.56 644.21
  L 588.50 641.46
  Q 588.82 640.73 588.50 640.03
  L 588.49 635.48
  Q 588.81 633.80 588.55 632.02
  L 588.55 618.04
  Q 588.83 616.75 588.58 615.46
  L 588.57 610.96
  Q 588.69 610.61 588.57 610.21
  L 588.58 607.96
  Q 588.68 607.62 588.58 607.21
  Q 588.58 607.09 588.58 606.96
  Q 588.68 606.62 588.57 606.21
  Q 588.57 606.11 588.57 606.00
  Q 588.69 605.63 588.57 605.21
  Q 588.58 605.09 588.58 604.96
  Q 588.68 604.62 588.58 604.21
  L 588.65 603.00
  L 588.62 587.47
  Q 588.50 587.24 588.51 587.01
  L 588.32 572.97
  L 587.69 567.22
  Q 592.63 559.89 597.64 551.97
  Q 626.63 506.10 625.53 451.51
  Q 624.79 414.59 609.84 382.15
  Q 601.62 364.29 588.05 348.02
  L 587.72 347.43
  Q 588.05 347.11 588.21 346.80
  Q 588.60 347.89 588.58 345.86
  L 588.68 327.25
  Q 588.63 327.10 588.59 326.96
  Q 588.67 326.59 588.58 326.21
  Q 588.61 326.07 588.64 325.93
  L 588.62 319.51
  Q 588.56 319.24 588.60 318.95
  Q 588.68 318.59 588.57 318.21
  Q 588.57 318.08 588.57 317.96
  Q 588.70 317.63 588.57 317.21
  Q 588.58 317.09 588.58 316.96
  Q 588.74 316.23 588.59 315.46
  L 588.55 314.48
  L 588.59 306.20
  Q 588.58 306.10 588.58 306.00
  L 588.58 303.20
  Q 588.58 303.08 588.58 302.96
  Q 588.70 302.62 588.57 302.21
  Q 588.58 302.10 588.59 302.00
  Q 588.68 301.61 588.58 301.21
  Q 588.58 301.11 588.59 301.00
  Q 588.69 300.62 588.57 300.21
  Q 588.58 300.09 588.59 299.96
  Q 588.68 299.61 588.58 299.21
  Q 588.58 299.09 588.59 298.96
  Q 588.68 298.60 588.57 298.21
  L 588.57 297.00
  Q 588.69 296.61 588.57 296.21
  Q 588.58 296.09 588.58 295.97
  L 588.62 293.45
  Q 588.55 293.26 588.58 293.00
  Q 588.72 292.22 588.58 291.46
  L 588.58 290.02
  L 588.55 284.48
  L 588.27 273.45
  Q 588.08 272.96 588.35 272.56
  L 588.47 267.01
  Q 588.80 266.76 588.49 266.00
  L 588.56 262.96
  Q 588.75 262.23 588.57 261.46
  L 588.57 255.96
  Q 588.72 255.21 588.56 254.46
  L 588.57 231.96
  Q 588.74 231.22 588.57 230.46
  L 588.57 222.01
  L 588.57 215.46
  L 588.47 210.96
  L 588.54 205.23
  Q 588.57 205.14 588.61 205.05
  L 588.60 199.53
  Q 588.46 199.27 588.58 198.95
  L 588.61 191.22
  Q 588.62 191.09 588.63 190.96
  L 588.59 177.06
  A 0.78 0.78 0.0 0 1 589.67 176.34
  Q 633.64 194.60 666.91 227.62
  C 715.36 275.71 745.65 340.26 754.58 407.70
  C 759.55 445.19 758.68 483.91 751.68 520.53
  Q 734.81 608.71 675.28 678.04
  Q 645.18 713.10 605.29 737.56
  Q 597.85 742.12 589.53 746.09
  A 0.95 0.95 0.0 0 1 589.01 746.16
  Q 588.86 746.13 588.71 746.12
  Z"
/>
<path fill="#043089" d="
  M 384.41 178.87
  L 384.53 330.01
  Q 385.09 331.13 384.81 332.79
  Q 384.60 333.37 384.86 334.04
  C 382.29 336.39 379.18 338.76 376.93 340.87
  Q 338.94 376.38 323.64 425.89
  Q 317.65 445.26 316.27 469.24
  C 313.40 519.18 331.69 568.26 369.55 600.99
  Q 371.86 602.99 377.42 607.02
  Q 381.47 609.96 385.32 613.08
  Q 385.25 613.22 385.18 613.37
  L 384.67 615.05
  L 384.44 766.15
  A 0.14 0.13 -33.7 0 0 384.70 766.20
  Q 384.93 765.68 384.82 764.78
  L 384.87 766.79
  Q 384.46 767.32 384.76 768.52
  Q 384.15 768.95 383.74 768.83
  C 373.18 765.85 360.58 760.51 350.43 756.23
  C 316.10 741.77 285.30 718.48 260.60 690.68
  Q 208.50 632.02 192.13 554.43
  Q 188.52 537.30 187.21 521.54
  L 187.48 519.63
  A 0.03 0.03 0.0 0 1 187.54 519.63
  C 190.04 536.90 190.71 544.11 193.51 556.30
  Q 194.85 562.09 196.89 569.86
  Q 207.85 611.48 229.49 647.06
  Q 235.24 656.51 248.35 674.21
  Q 252.44 679.74 255.40 682.91
  Q 259.06 686.82 262.24 691.05
  Q 262.86 691.89 272.83 702.21
  C 275.19 704.66 277.96 706.82 279.92 708.99
  Q 282.18 711.50 284.72 713.28
  Q 286.08 714.23 290.95 718.70
  Q 293.22 720.78 297.71 724.19
  Q 316.44 738.38 337.79 749.08
  C 343.53 751.96 350.01 754.30 355.76 757.46
  A 0.47 0.46 28.5 0 0 356.39 757.28
  L 356.40 757.26
  A 0.45 0.44 29.5 0 0 356.23 756.66
  Q 347.26 751.47 335.48 743.04
  Q 288.63 709.51 258.57 662.66
  C 254.79 656.77 250.51 649.15 246.81 642.75
  Q 241.31 633.23 237.45 624.06
  C 230.95 608.59 225.19 594.49 220.65 578.18
  Q 211.19 544.26 208.38 508.82
  Q 208.06 504.86 207.87 497.67
  Q 207.72 492.04 207.59 486.50
  Q 205.11 381.18 260.73 292.51
  Q 266.16 283.86 274.55 272.18
  Q 283.76 259.36 289.25 252.48
  Q 293.42 247.24 299.53 240.21
  Q 303.74 235.37 306.55 232.42
  Q 310.21 228.59 313.81 224.84
  Q 316.77 221.75 325.18 214.46
  Q 329.74 210.51 333.85 207.67
  Q 337.77 204.97 343.06 201.22
  A 0.07 0.07 0.0 0 0 343.08 201.13
  L 342.95 200.83
  A 0.26 0.25 -28.3 0 0 342.58 200.72
  Q 329.73 208.99 317.48 218.97
  Q 316.60 219.69 314.21 222.29
  A 8.32 8.13 -83.5 0 1 312.38 223.78
  Q 308.42 226.12 307.10 227.08
  Q 303.87 229.43 291.00 240.63
  C 285.70 245.24 281.64 250.17 276.84 254.95
  Q 272.27 259.51 266.88 266.27
  Q 255.81 280.15 254.94 281.46
  Q 254.04 282.81 251.17 286.66
  C 244.11 296.15 235.51 311.09 228.13 324.65
  Q 224.30 331.68 222.33 336.15
  Q 214.92 352.95 209.79 365.28
  C 206.17 373.98 205.14 378.29 201.90 387.93
  Q 198.79 397.17 196.98 405.21
  Q 191.37 430.10 190.49 436.31
  C 189.44 443.76 188.92 453.45 187.11 462.63
  A 0.16 0.16 0.0 0 1 186.80 462.62
  L 186.67 461.73
  Q 191.55 402.48 216.43 346.70
  Q 229.67 317.02 246.07 292.35
  C 270.50 255.60 302.55 225.15 339.79 201.05
  C 354.15 191.76 368.74 184.76 383.77 178.22
  A 0.52 0.51 45.7 0 1 384.21 178.23
  Q 384.70 178.48 384.41 178.87
  Z"
/>
<path fill="#000000" d="
  M 588.58 198.95
  Q 588.39 198.96 588.20 198.96
  L 588.25 191.80
  Q 588.51 191.62 588.61 191.22
  L 588.58 198.95
  Z"
/>
<path fill="#000000" d="
  M 588.61 205.05
  Q 588.44 204.98 588.28 204.92
  L 588.24 199.77
  Q 588.39 199.52 588.60 199.53
  L 588.61 205.05
  Z"
/>
<path fill="#102d5d" d="
  M 187.21 521.54
  Q 186.71 518.55 186.43 515.50
  Q 183.98 488.54 186.67 461.73
  L 186.80 462.62
  A 0.16 0.16 0.0 0 0 187.11 462.63
  C 188.92 453.45 189.44 443.76 190.49 436.31
  Q 191.37 430.10 196.98 405.21
  Q 198.79 397.17 201.90 387.93
  C 205.14 378.29 206.17 373.98 209.79 365.28
  Q 214.92 352.95 222.33 336.15
  Q 224.30 331.68 228.13 324.65
  C 235.51 311.09 244.11 296.15 251.17 286.66
  Q 254.04 282.81 254.94 281.46
  Q 255.81 280.15 266.88 266.27
  Q 272.27 259.51 276.84 254.95
  C 281.64 250.17 285.70 245.24 291.00 240.63
  Q 303.87 229.43 307.10 227.08
  Q 308.42 226.12 312.38 223.78
  A 8.32 8.13 -83.5 0 0 314.21 222.29
  Q 316.60 219.69 317.48 218.97
  Q 329.73 208.99 342.58 200.72
  A 0.26 0.25 -28.3 0 1 342.95 200.83
  L 343.08 201.13
  A 0.07 0.07 0.0 0 1 343.06 201.22
  Q 337.77 204.97 333.85 207.67
  Q 329.74 210.51 325.18 214.46
  Q 316.77 221.75 313.81 224.84
  Q 310.21 228.59 306.55 232.42
  Q 303.74 235.37 299.53 240.21
  Q 293.42 247.24 289.25 252.48
  Q 283.76 259.36 274.55 272.18
  Q 266.16 283.86 260.73 292.51
  Q 205.11 381.18 207.59 486.50
  Q 207.72 492.04 207.87 497.67
  Q 208.06 504.86 208.38 508.82
  Q 211.19 544.26 220.65 578.18
  C 225.19 594.49 230.95 608.59 237.45 624.06
  Q 241.31 633.23 246.81 642.75
  C 250.51 649.15 254.79 656.77 258.57 662.66
  Q 288.63 709.51 335.48 743.04
  Q 347.26 751.47 356.23 756.66
  A 0.45 0.44 29.5 0 1 356.40 757.26
  L 356.39 757.28
  A 0.47 0.46 28.5 0 1 355.76 757.46
  C 350.01 754.30 343.53 751.96 337.79 749.08
  Q 316.44 738.38 297.71 724.19
  Q 293.22 720.78 290.95 718.70
  Q 286.08 714.23 284.72 713.28
  Q 282.18 711.50 279.92 708.99
  C 277.96 706.82 275.19 704.66 272.83 702.21
  Q 262.86 691.89 262.24 691.05
  Q 259.06 686.82 255.40 682.91
  Q 252.44 679.74 248.35 674.21
  Q 235.24 656.51 229.49 647.06
  Q 207.85 611.48 196.89 569.86
  Q 194.85 562.09 193.51 556.30
  C 190.71 544.11 190.04 536.90 187.54 519.63
  A 0.03 0.03 0.0 0 0 187.48 519.63
  L 187.21 521.54
  Z"
/>
<path fill="#000000" d="
  M 588.47 210.96
  Q 588.32 210.96 588.16 210.96
  L 588.32 206.55
  Q 588.59 206.06 588.54 205.23
  L 588.47 210.96
  Z"
/>
<path fill="#000000" d="
  M 588.57 222.01
  Q 588.68 220.88 588.17 220.96
  Q 588.30 221.12 588.32 220.58
  Q 588.95 218.63 588.30 216.90
  Q 588.17 216.59 588.23 216.02
  Q 588.59 215.90 588.57 215.46
  L 588.57 222.01
  Z"
/>
<path fill="#000000" d="
  M 588.57 231.96
  L 588.57 230.46
  Q 588.74 231.22 588.57 231.96
  Z"
/>
<path fill="#102d5d" d="
  M 384.84 252.21
  L 384.84 250.71
  L 384.84 252.21
  Z"
/>
<path fill="#000000" d="
  M 588.57 255.96
  L 588.56 254.46
  Q 588.72 255.21 588.57 255.96
  Z"
/>
<path fill="#000000" d="
  M 588.56 262.96
  L 588.57 261.46
  Q 588.75 262.23 588.56 262.96
  Z"
/>
<path fill="#000000" d="
  M 588.49 266.00
  Q 588.80 266.76 588.47 267.01
  Q 588.37 266.98 588.26 266.95
  L 588.17 266.00
  Q 588.33 266.00 588.49 266.00
  Z"
/>
<path fill="#102d5d" d="
  M 384.83 276.21
  L 384.85 274.71
  L 384.83 276.21
  Z"
/>
<path fill="#102d5d" d="
  M 384.83 278.21
  L 384.85 276.71
  L 384.83 278.21
  Z"
/>
<path fill="#102d5d" d="
  M 384.78 288.20
  L 384.85 282.74
  L 384.78 288.20
  Z"
/>
<path fill="#000000" d="
  M 588.58 290.02
  L 588.55 284.48
  L 588.58 290.02
  Z"
/>
<path fill="#000000" d="
  M 588.58 293.00
  L 588.58 291.46
  Q 588.72 292.22 588.58 293.00
  Z"
/>
<path fill="#000000" d="
  M 588.58 295.97
  L 588.62 293.45
  L 588.58 295.97
  Z"
/>
<path fill="#000000" d="
  M 588.57 297.00
  L 588.57 296.21
  Q 588.69 296.61 588.57 297.00
  Z"
/>
<path fill="#000000" d="
  M 588.59 298.96
  L 588.57 298.21
  Q 588.68 298.60 588.59 298.96
  Z"
/>
<path fill="#000000" d="
  M 485.66 299.27
  L 493.70 299.76
  Q 495.98 299.45 498.51 300.14
  Q 500.14 301.07 502.01 300.71
  Q 504.12 300.51 505.28 301.28
  Q 506.24 302.12 507.98 301.80
  Q 509.46 301.59 510.18 302.27
  Q 511.10 303.11 512.98 302.83
  Q 513.98 302.80 514.16 303.25
  Q 514.99 304.28 516.08 303.65
  Q 517.21 303.70 518.23 304.22
  Q 518.42 305.09 519.75 304.73
  Q 520.81 304.70 521.57 305.23
  Q 523.01 306.44 522.82 305.57
  Q 523.76 305.73 524.61 306.21
  Q 525.17 307.19 525.98 306.74
  Q 526.85 306.71 527.60 307.22
  Q 527.95 307.99 528.97 307.83
  Q 529.71 307.72 530.29 308.21
  Q 529.92 308.37 530.40 308.55
  Q 530.97 308.76 531.54 308.60
  Q 532.34 308.79 532.98 309.22
  Q 532.70 309.35 533.14 309.62
  Q 533.58 309.89 533.96 309.61
  Q 534.81 309.68 535.47 310.21
  Q 535.33 310.23 535.22 310.30
  A 0.09 0.09 0.0 0 0 535.22 310.44
  Q 536.10 311.05 537.25 311.00
  Q 538.18 312.11 538.99 311.77
  Q 539.58 311.79 540.09 312.23
  Q 540.23 312.68 540.63 312.85
  Q 540.93 312.97 540.97 312.71
  Q 541.70 312.75 542.20 313.22
  Q 541.99 313.51 542.66 313.85
  Q 542.84 313.94 542.98 313.60
  Q 543.66 313.70 544.11 314.21
  C 544.21 314.72 544.59 314.84 545.04 314.62
  Q 545.58 314.74 546.04 315.08
  Q 546.02 315.67 546.62 315.88
  Q 546.90 315.98 547.04 315.62
  Q 547.65 315.77 547.96 316.21
  Q 547.75 316.51 548.50 316.81
  Q 549.06 317.03 549.04 316.74
  Q 549.67 316.87 549.67 317.12
  Q 551.60 318.81 553.98 319.66
  Q 554.61 319.57 554.96 320.18
  Q 556.09 321.82 556.98 321.53
  Q 557.65 321.55 558.05 322.21
  Q 558.83 323.52 559.04 322.84
  Q 560.23 323.36 561.01 324.17
  Q 562.00 325.80 562.98 325.54
  Q 563.54 325.62 564.03 326.27
  Q 564.13 326.68 564.49 326.73
  Q 565.64 328.32 566.06 327.89
  Q 567.56 328.57 568.76 329.82
  Q 569.96 331.86 572.00 332.61
  Q 573.17 333.00 574.00 334.22
  Q 574.10 334.60 574.39 334.74
  L 578.99 338.82
  Q 580.62 339.34 581.81 341.26
  L 585.95 345.37
  Q 586.28 345.50 586.06 345.81
  Q 586.56 347.40 588.05 348.02
  Q 601.62 364.29 609.84 382.15
  Q 624.79 414.59 625.53 451.51
  Q 626.63 506.10 597.64 551.97
  Q 592.63 559.89 587.69 567.22
  L 585.91 569.74
  Q 583.78 571.31 582.53 573.76
  Q 582.33 574.79 581.04 575.72
  Q 578.39 577.45 577.08 580.24
  Q 569.15 589.18 560.07 596.99
  Q 559.33 596.72 558.99 597.73
  Q 558.58 597.82 558.50 598.28
  Q 558.10 598.33 558.07 598.72
  Q 557.19 599.73 556.03 600.35
  Q 554.19 600.49 554.10 601.75
  Q 553.11 603.04 551.89 603.33
  Q 549.98 603.87 548.88 605.73
  L 544.57 608.83
  Q 543.06 608.81 543.05 609.77
  Q 542.42 610.57 541.55 610.80
  Q 539.99 610.90 540.04 611.80
  L 535.97 614.42
  Q 534.99 614.13 534.49 615.28
  Q 533.09 616.40 531.48 616.94
  Q 530.00 616.74 529.94 617.77
  Q 529.56 618.21 529.00 618.37
  Q 528.35 617.60 528.01 618.79
  Q 527.60 619.24 526.99 619.39
  Q 525.82 618.94 526.18 619.85
  L 524.98 620.42
  Q 524.77 620.07 524.26 620.31
  Q 523.93 620.47 524.07 620.79
  Q 523.55 621.22 522.98 621.39
  Q 522.02 620.90 522.04 621.77
  Q 521.39 622.40 521.01 622.15
  Q 519.02 622.45 517.41 623.74
  Q 516.98 624.31 516.05 624.27
  Q 514.56 623.84 514.68 624.88
  L 508.09 627.31
  Q 506.60 626.78 506.64 627.85
  Q 505.92 628.23 505.06 628.28
  Q 503.97 627.77 503.51 628.74
  Q 502.88 629.30 502.05 629.21
  Q 500.96 628.82 500.05 629.71
  Q 499.07 630.33 498.02 630.33
  Q 496.79 629.72 495.76 630.77
  Q 495.28 631.33 494.08 631.23
  Q 492.57 630.80 491.45 631.76
  L 483.07 633.37
  Q 482.14 632.46 480.45 633.71
  L 473.48 634.46
  Q 471.42 634.04 470.91 634.77
  L 451.08 634.82
  Q 450.19 633.93 448.42 634.46
  Q 447.75 634.59 447.04 634.43
  Q 446.99 634.07 446.49 634.05
  Q 446.13 634.03 446.01 634.47
  Q 431.84 633.10 418.32 628.81
  Q 418.51 627.72 416.94 628.38
  L 412.48 626.83
  Q 412.47 626.67 412.45 626.57
  A 0.27 0.26 4.4 0 0 412.28 626.38
  Q 411.45 626.10 411.46 626.45
  Q 410.59 626.26 410.03 625.79
  Q 410.02 625.19 409.37 625.11
  Q 409.09 625.07 409.00 625.42
  Q 408.15 625.32 407.45 624.79
  Q 407.44 624.62 407.42 624.52
  A 0.20 0.19 6.3 0 0 407.30 624.38
  Q 406.45 624.06 406.45 624.46
  L 394.93 618.82
  C 395.00 618.19 394.45 618.17 394.04 618.35
  L 392.98 617.76
  Q 392.82 616.91 392.00 617.20
  L 387.78 614.79
  Q 388.06 614.73 387.68 614.38
  Q 387.21 613.94 387.03 614.26
  Q 386.52 614.08 386.30 613.77
  Q 386.52 613.39 385.32 613.08
  Q 381.47 609.96 377.42 607.02
  Q 371.86 602.99 369.55 600.99
  C 331.69 568.26 313.40 519.18 316.27 469.24
  Q 317.65 445.26 323.64 425.89
  Q 338.94 376.38 376.93 340.87
  C 379.18 338.76 382.29 336.39 384.86 334.04
  Q 385.80 333.65 385.66 333.21
  L 385.95 333.03
  Q 386.95 332.99 387.01 332.08
  L 388.73 331.06
  Q 390.09 330.61 390.96 329.26
  Q 391.80 328.36 393.04 327.81
  Q 393.81 328.01 394.13 327.02
  Q 394.94 326.19 395.97 325.66
  Q 396.88 325.71 397.73 324.49
  Q 398.29 323.74 399.04 323.56
  Q 399.96 323.69 401.06 322.26
  Q 401.45 321.85 401.98 321.79
  Q 402.74 322.08 402.98 321.05
  Q 403.52 320.55 404.01 320.56
  Q 405.16 320.49 406.11 319.29
  Q 406.50 318.81 407.21 318.78
  Q 407.96 318.93 407.97 318.27
  Q 408.38 317.84 408.97 317.64
  Q 409.68 317.94 409.89 317.29
  Q 410.31 316.82 410.96 316.63
  Q 411.38 316.80 411.63 316.63
  Q 412.02 316.37 411.79 316.20
  L 413.00 315.58
  Q 413.48 316.13 413.84 315.28
  Q 414.16 314.83 414.96 314.63
  Q 415.75 314.79 415.88 314.29
  Q 416.30 313.80 416.96 313.63
  Q 417.83 313.94 417.88 313.26
  L 421.03 311.80
  Q 421.66 312.03 422.16 311.65
  Q 422.53 311.37 422.29 311.16
  L 423.95 310.53
  Q 423.95 310.92 424.44 310.64
  Q 424.67 310.51 424.54 310.26
  Q 425.28 309.82 426.03 309.78
  Q 426.92 310.15 427.39 309.28
  Q 428.14 308.75 429.23 308.59
  Q 429.20 308.95 429.72 308.77
  Q 430.56 308.49 430.28 308.22
  Q 431.08 307.69 432.04 307.52
  C 432.26 307.86 432.84 307.74 432.88 307.29
  Q 433.60 306.76 434.53 306.80
  Q 435.52 307.08 435.93 306.28
  Q 436.89 305.67 438.02 305.58
  Q 439.35 306.26 439.31 305.18
  L 441.43 304.62
  Q 442.25 305.27 442.83 304.24
  Q 444.05 303.63 445.12 303.64
  Q 445.71 304.39 446.79 303.23
  Q 447.99 302.67 449.41 302.64
  Q 449.99 303.40 450.96 302.30
  Q 452.62 301.65 454.21 301.63
  Q 455.39 302.21 456.88 301.28
  Q 458.37 300.62 460.43 300.67
  Q 461.61 301.19 462.99 300.29
  Q 465.71 299.59 468.52 299.81
  Q 473.45 299.67 478.36 299.37
  Q 478.05 299.40 477.94 299.25
  L 485.66 299.27
  Z
  M 523.2805 332.6455
  A 145.46 130.61 -67.6 0 0 347.0950 417.3584
  A 145.46 130.61 -67.6 0 0 412.4195 601.6145
  A 145.46 130.61 -67.6 0 0 588.6050 516.9016
  A 145.46 130.61 -67.6 0 0 523.2805 332.6455
  Z"
/>
<path fill="#000000" d="
  M 588.59 299.96
  L 588.58 299.21
  Q 588.68 299.61 588.59 299.96
  Z"
/>
<path fill="#000000" d="
  M 588.59 301.00
  L 588.57 300.21
  Q 588.69 300.62 588.59 301.00
  Z"
/>
<path fill="#000000" d="
  M 588.59 302.00
  L 588.58 301.21
  Q 588.68 301.61 588.59 302.00
  Z"
/>
<path fill="#000000" d="
  M 588.58 302.96
  L 588.57 302.21
  Q 588.70 302.62 588.58 302.96
  Z"
/>
<path fill="#000000" d="
  M 588.58 306.00
  L 588.25 305.71
  Q 588.08 304.85 588.24 304.04
  Q 588.65 304.06 588.58 303.20
  L 588.58 306.00
  Z"
/>
<path fill="#000000" d="
  M 588.55 314.48
  Q 588.39 314.48 588.24 314.49
  Q 588.01 313.07 588.29 311.81
  Q 588.98 310.60 588.27 309.93
  Q 587.99 308.94 588.32 308.06
  Q 588.73 307.55 588.59 306.20
  L 588.55 314.48
  Z"
/>
<path fill="#000000" d="
  M 588.58 316.96
  L 588.59 315.46
  Q 588.74 316.23 588.58 316.96
  Z"
/>
<path fill="#000000" d="
  M 588.57 317.96
  L 588.57 317.21
  Q 588.70 317.63 588.57 317.96
  Z"
/>
<path fill="#000000" d="
  M 588.60 318.95
  L 588.57 318.21
  Q 588.68 318.59 588.60 318.95
  Z"
/>
<path fill="#000000" d="
  M 588.64 325.93
  Q 588.44 325.61 588.23 325.48
  L 588.25 319.80
  Q 588.51 319.83 588.62 319.51
  L 588.64 325.93
  Z"
/>
<path fill="#4695f6" d="
  M 523.2805 332.6455
  A 145.46 130.61 -67.6 0 1 588.6050 516.9016
  A 145.46 130.61 -67.6 0 1 412.4195 601.6145
  A 145.46 130.61 -67.6 0 1 347.0950 417.3584
  A 145.46 130.61 -67.6 0 1 523.2805 332.6455
  Z
  M 372.83 573.38
  Q 392.19 593.15 420.08 603.10
  Q 434.14 608.11 450.57 608.94
  Q 467.92 609.82 481.56 607.04
  Q 526.35 597.90 557.69 563.70
  Q 594.91 523.07 599.20 466.01
  Q 599.48 462.29 599.28 447.36
  C 599.23 443.83 598.74 437.99 598.02 433.08
  Q 592.36 394.30 566.53 365.05
  Q 559.06 356.59 550.76 350.25
  Q 511.95 320.61 463.87 325.31
  C 450.04 326.67 436.50 330.52 423.80 336.78
  Q 408.18 344.47 395.81 354.10
  C 390.50 358.24 385.45 363.38 381.78 367.05
  C 358.90 389.92 342.95 421.17 338.13 453.61
  C 334.44 478.44 335.85 503.47 344.22 527.26
  Q 353.51 553.65 372.83 573.38
  Z"
/>
<path fill="#2f5dac" d="
  M 372.83 573.38
  Q 353.51 553.65 344.22 527.26
  C 335.85 503.47 334.44 478.44 338.13 453.61
  C 342.95 421.17 358.90 389.92 381.78 367.05
  C 385.45 363.38 390.50 358.24 395.81 354.10
  Q 408.18 344.47 423.80 336.78
  C 436.50 330.52 450.04 326.67 463.87 325.31
  Q 511.95 320.61 550.76 350.25
  Q 559.06 356.59 566.53 365.05
  Q 592.36 394.30 598.02 433.08
  C 598.74 437.99 599.23 443.83 599.28 447.36
  Q 599.48 462.29 599.20 466.01
  Q 594.91 523.07 557.69 563.70
  Q 526.35 597.90 481.56 607.04
  Q 467.92 609.82 450.57 608.94
  Q 434.14 608.11 420.08 603.10
  Q 392.19 593.15 372.83 573.38
  Z
  M 503.1899 367.4608
  A 103.67 92.94 -67.4 0 0 377.5468 427.4536
  A 103.67 92.94 -67.4 0 0 423.5101 558.8792
  A 103.67 92.94 -67.4 0 0 549.1532 498.8864
  A 103.67 92.94 -67.4 0 0 503.1899 367.4608
  Z"
/>
<path fill="#000000" d="
  M 588.59 326.96
  L 588.58 326.21
  Q 588.67 326.59 588.59 326.96
  Z"
/>
<path fill="#000000" d="
  M 588.58 345.86
  Q 588.41 345.91 588.24 345.95
  L 588.28 327.54
  Q 588.19 327.29 588.68 327.25
  L 588.58 345.86
  Z"
/>
<path fill="#4695f6" d="
  M 503.1899 367.4608
  A 103.67 92.94 -67.4 0 1 549.1532 498.8864
  A 103.67 92.94 -67.4 0 1 423.5101 558.8792
  A 103.67 92.94 -67.4 0 1 377.5468 427.4536
  A 103.67 92.94 -67.4 0 1 503.1899 367.4608
  Z
  M 502.4378 368.3316
  A 102.60 91.91 -67.6 0 0 378.3650 428.1658
  A 102.60 91.91 -67.6 0 0 424.2422 558.0484
  A 102.60 91.91 -67.6 0 0 548.3150 498.2142
  A 102.60 91.91 -67.6 0 0 502.4378 368.3316
  Z"
/>
<path fill="#000000" d="
  M 502.4378 368.3316
  A 102.60 91.91 -67.6 0 1 548.3150 498.2142
  A 102.60 91.91 -67.6 0 1 424.2422 558.0484
  A 102.60 91.91 -67.6 0 1 378.3650 428.1658
  A 102.60 91.91 -67.6 0 1 502.4378 368.3316
  Z
  M 446.97 538.47
  A 0.39 0.38 68.2 0 0 447.26 537.79
  Q 444.79 535.77 442.68 533.11
  C 425.82 511.92 420.83 486.17 425.33 459.69
  C 428.99 438.12 441.36 419.24 458.76 405.12
  Q 472.99 393.57 490.06 390.36
  A 0.35 0.35 0.0 0 0 490.08 389.67
  Q 458.28 381.52 431.86 400.20
  Q 419.50 408.94 410.42 421.45
  Q 393.70 444.50 394.84 474.80
  C 395.91 503.31 411.31 530.49 440.70 537.68
  A 0.20 0.17 49.7 0 0 440.76 537.69
  L 446.97 538.47
  Z
  M 513.95 407.15
  C 511.97 406.72 510.01 407.54 508.13 407.92
  Q 504.36 408.67 501.65 409.64
  C 475.69 418.84 459.42 440.37 454.28 467.22
  C 453.81 469.69 454.13 472.00 453.59 474.35
  Q 453.06 476.67 453.04 479.66
  C 453.02 481.76 452.86 484.79 453.26 487.12
  C 453.81 490.33 453.86 493.30 454.30 495.96
  Q 457.02 512.39 466.65 526.63
  Q 469.11 530.26 472.49 534.50
  Q 473.98 536.36 476.01 535.78
  C 487.27 532.57 497.46 527.01 506.27 519.03
  Q 526.63 500.60 532.53 472.80
  Q 535.78 457.49 532.52 441.22
  C 530.03 428.80 524.48 415.70 514.84 407.59
  A 2.07 2.06 -18.6 0 0 513.95 407.15
  Z"
/>
<path fill="#102d5d" d="
  M 446.97 538.47
  L 440.76 537.69
  A 0.20 0.17 49.7 0 1 440.70 537.68
  C 411.31 530.49 395.91 503.31 394.84 474.80
  Q 393.70 444.50 410.42 421.45
  Q 419.50 408.94 431.86 400.20
  Q 458.28 381.52 490.08 389.67
  A 0.35 0.35 0.0 0 1 490.06 390.36
  Q 472.99 393.57 458.76 405.12
  C 441.36 419.24 428.99 438.12 425.33 459.69
  C 420.83 486.17 425.82 511.92 442.68 533.11
  Q 444.79 535.77 447.26 537.79
  A 0.39 0.38 68.2 0 1 446.97 538.47
  Z"
/>
<path fill="#ffffff" d="
  M 587.69 567.22
  L 588.32 572.97
  L 588.22 586.99
  L 588.20 588.52
  L 588.22 601.94
  L 588.22 616.02
  L 588.20 617.45
  L 588.21 632.03
  L 588.21 635.46
  L 588.26 640.04
  L 588.21 641.47
  L 588.21 656.05
  L 588.24 658.47
  L 588.27 664.03
  Q 587.96 665.34 588.33 666.40
  L 588.35 672.08
  Q 588.07 672.77 588.20 673.47
  L 588.22 700.51
  L 588.24 701.46
  Q 588.02 702.95 588.35 704.31
  L 588.31 707.93
  Q 587.89 710.01 588.31 712.07
  Q 588.03 712.97 588.26 713.93
  Q 588.04 714.71 588.27 715.56
  L 588.25 718.94
  Q 588.09 719.47 588.28 720.06
  L 588.24 722.93
  Q 588.08 723.69 588.20 724.56
  L 588.13 740.92
  L 588.16 741.52
  Q 588.15 741.61 588.14 741.71
  Q 588.03 742.14 588.17 742.54
  L 588.19 745.29
  L 588.22 746.54
  L 587.29 747.04
  Q 586.47 747.14 586.02 747.78
  Q 585.41 747.86 585.02 748.27
  L 584.20 748.58
  L 583.28 749.06
  Q 582.52 749.23 582.02 749.79
  Q 581.53 749.87 581.15 750.27
  Q 580.59 750.26 580.21 750.76
  Q 579.65 750.66 579.00 751.27
  Q 578.48 751.34 577.99 751.65
  Q 577.30 751.83 576.90 752.29
  Q 576.52 752.33 576.22 752.55
  Q 575.29 752.69 574.73 753.26
  Q 574.35 753.33 574.03 753.53
  Q 573.18 753.65 572.45 754.23
  Q 571.84 754.32 571.29 754.71
  Q 570.65 754.86 570.16 755.26
  Q 569.67 755.28 569.22 755.58
  Q 568.44 755.79 567.88 756.28
  Q 567.45 756.32 567.04 756.56
  Q 566.16 756.76 565.47 757.23
  Q 564.75 757.27 564.26 757.78
  Q 563.69 757.71 562.99 758.20
  L 562.04 758.59
  Q 561.16 758.76 560.46 759.24
  Q 559.83 759.32 559.29 759.71
  Q 558.53 759.83 558.00 760.27
  L 557.04 760.57
  L 555.31 761.18
  L 554.19 761.59
  Q 553.26 761.72 552.45 762.24
  Q 551.79 762.31 551.24 762.71
  Q 550.26 762.81 549.51 763.21
  L 548.19 763.58
  L 543.50 765.23
  L 542.24 765.60
  Q 541.19 765.76 540.44 766.26
  Q 539.73 766.34 539.03 766.76
  Q 538.00 766.83 537.04 767.29
  L 536.05 767.57
  Q 534.81 767.69 533.91 768.28
  Q 533.16 768.27 532.44 768.62
  Q 531.24 768.70 530.40 769.29
  Q 529.36 769.22 528.51 769.78
  Q 527.46 769.76 526.53 770.25
  L 525.23 770.61
  Q 523.86 770.74 522.86 771.23
  Q 521.97 771.29 521.21 771.61
  L 518.54 772.32
  Q 517.82 772.41 517.21 772.70
  Q 515.56 772.62 514.72 773.29
  L 512.46 773.65
  Q 510.81 773.64 509.83 774.29
  Q 508.53 774.33 507.42 774.76
  Q 505.80 774.56 504.44 775.28
  L 501.45 775.57
  L 480.42 778.18
  L 478.04 778.59
  L 465.42 779.11
  L 458.29 779.18
  L 442.39 778.61
  L 438.52 778.18
  L 431.16 777.64
  Q 429.39 777.02 427.52 777.18
  Q 425.80 776.63 424.01 776.79
  L 419.96 776.11
  Q 418.42 775.58 416.87 775.71
  L 413.81 775.26
  Q 412.84 774.59 411.02 774.79
  L 408.16 774.15
  L 401.09 772.58
  L 399.09 772.20
  Q 398.02 771.72 396.81 771.62
  L 395.01 771.22
  L 392.80 770.62
  L 391.45 770.34
  Q 390.32 769.75 389.04 769.63
  Q 388.32 769.21 387.27 769.28
  Q 387.44 768.87 385.98 768.86
  Q 384.89 767.89 384.87 766.79
  L 384.82 764.78
  L 384.86 744.21
  L 384.86 742.71
  L 384.84 740.21
  L 384.85 738.71
  L 384.85 728.21
  L 384.85 726.71
  L 384.79 616.96
  Q 385.01 616.27 384.81 615.51
  Q 384.80 615.25 384.67 615.05
  L 385.18 613.37
  L 386.30 613.77
  Q 386.52 614.08 387.03 614.26
  Q 387.32 614.62 387.78 614.79
  L 392.00 617.20
  L 392.98 617.76
  L 394.04 618.35
  L 394.93 618.82
  L 406.45 624.46
  L 407.45 624.79
  Q 408.15 625.32 409.00 625.42
  L 410.03 625.79
  Q 410.59 626.26 411.46 626.45
  L 412.48 626.83
  L 416.94 628.38
  L 418.32 628.81
  Q 431.84 633.10 446.01 634.47
  L 447.04 634.43
  Q 447.75 634.59 448.42 634.46
  L 451.08 634.82
  L 470.91 634.77
  L 473.48 634.46
  L 480.45 633.71
  L 483.07 633.37
  L 491.45 631.76
  L 494.08 631.23
  Q 495.28 631.33 495.76 630.77
  Q 497.10 630.74 498.02 630.33
  Q 499.07 630.33 500.05 629.71
  Q 501.14 629.71 502.05 629.21
  Q 502.88 629.30 503.51 628.74
  Q 504.33 628.74 505.06 628.28
  Q 505.92 628.23 506.64 627.85
  L 508.09 627.31
  L 514.68 624.88
  L 516.05 624.27
  Q 516.98 624.31 517.41 623.74
  Q 519.36 623.32 521.01 622.15
  Q 521.39 622.40 522.04 621.77
  Q 522.52 621.70 522.98 621.39
  Q 523.55 621.22 524.07 620.79
  Q 524.54 620.69 524.98 620.42
  L 526.18 619.85
  L 526.99 619.39
  Q 527.60 619.24 528.01 618.79
  Q 528.53 618.69 529.00 618.37
  Q 529.56 618.21 529.94 617.77
  Q 530.76 617.49 531.48 616.94
  Q 533.09 616.40 534.49 615.28
  L 535.97 614.42
  L 540.04 611.80
  L 541.55 610.80
  Q 542.42 610.57 543.05 609.77
  L 544.57 608.83
  L 548.88 605.73
  L 551.89 603.33
  Q 553.11 603.04 554.10 601.75
  L 556.03 600.35
  Q 557.19 599.73 558.07 598.72
  Q 558.34 598.56 558.50 598.28
  Q 558.85 598.09 558.99 597.73
  Q 559.56 597.55 560.07 596.99
  Q 569.15 589.18 577.08 580.24
  L 581.04 575.72
  Q 582.33 574.79 582.53 573.76
  Q 584.67 572.08 585.91 569.74
  L 587.69 567.22
  Z"
/>
<path fill="#000000" d="
  M 588.51 587.01
  Q 588.36 587.00 588.22 586.99
  L 588.32 572.97
  L 588.51 587.01
  Z"
/>
<path fill="#000000" d="
  M 588.65 603.00
  Q 588.65 602.00 588.22 601.94
  L 588.20 588.52
  Q 588.59 588.62 588.62 587.47
  L 588.65 603.00
  Z"
/>
<path fill="#000000" d="
  M 588.58 604.96
  L 588.58 604.21
  Q 588.68 604.62 588.58 604.96
  Z"
/>
<path fill="#000000" d="
  M 588.57 606.00
  L 588.57 605.21
  Q 588.69 605.63 588.57 606.00
  Z"
/>
<path fill="#000000" d="
  M 588.58 606.96
  L 588.57 606.21
  Q 588.68 606.62 588.58 606.96
  Z"
/>
<path fill="#000000" d="
  M 588.58 607.96
  L 588.58 607.21
  Q 588.68 607.62 588.58 607.96
  Z"
/>
<path fill="#000000" d="
  M 588.57 610.96
  L 588.57 610.21
  Q 588.69 610.61 588.57 610.96
  Z"
/>
<path fill="#102d5d" d="
  M 384.79 616.96
  L 384.81 615.51
  Q 385.01 616.27 384.79 616.96
  Z"
/>
<path fill="#000000" d="
  M 588.55 618.04
  Q 588.65 617.53 588.20 617.45
  L 588.22 616.02
  Q 588.58 615.96 588.58 615.46
  Q 588.83 616.75 588.55 618.04
  Z"
/>
<path fill="#000000" d="
  M 588.55 632.02
  Q 588.81 633.80 588.49 635.48
  Q 588.35 635.47 588.21 635.46
  L 588.21 632.03
  Q 588.38 632.02 588.55 632.02
  Z"
/>
<path fill="#000000" d="
  M 588.50 640.03
  Q 588.82 640.73 588.50 641.46
  Q 588.36 641.46 588.21 641.47
  L 588.26 640.04
  Q 588.38 640.03 588.50 640.03
  Z"
/>
<path fill="#000000" d="
  M 588.58 645.96
  L 588.56 644.21
  Q 588.76 645.08 588.58 645.96
  Z"
/>
<path fill="#000000" d="
  M 588.58 653.00
  L 588.58 649.46
  L 588.58 653.00
  Z"
/>
<path fill="#000000" d="
  M 588.52 656.03
  L 588.57 653.45
  Q 588.81 654.79 588.52 656.03
  Z"
/>
<path fill="#000000" d="
  M 588.52 656.03
  Q 588.78 657.25 588.52 658.47
  Q 588.38 658.47 588.24 658.47
  L 588.21 656.05
  Q 588.37 656.04 588.52 656.03
  Z"
/>
<path fill="#000000" d="
  M 588.56 673.47
  Q 588.38 673.47 588.20 673.47
  Q 588.07 672.77 588.35 672.08
  Q 588.89 669.21 588.33 666.40
  Q 587.96 665.34 588.27 664.03
  Q 588.63 663.91 588.59 663.46
  L 588.56 673.47
  Z"
/>
<path fill="#000000" d="
  M 588.61 688.96
  L 588.60 682.49
  L 588.61 688.96
  Z"
/>
<path fill="#000000" d="
  M 588.59 690.96
  L 588.58 690.21
  Q 588.68 690.61 588.59 690.96
  Z"
/>
<path fill="#000000" d="
  M 588.58 691.96
  L 588.59 691.21
  Q 588.69 691.64 588.58 691.96
  Z"
/>
<path fill="#000000" d="
  M 588.57 692.96
  L 588.58 692.21
  Q 588.70 692.62 588.57 692.96
  Z"
/>
<path fill="#000000" d="
  M 588.59 696.04
  L 588.57 693.21
  Q 588.86 694.66 588.59 696.04
  Z"
/>
<path fill="#000000" d="
  M 588.57 696.96
  L 588.58 696.21
  Q 588.68 696.61 588.57 696.96
  Z"
/>
<path fill="#000000" d="
  M 588.58 698.96
  L 588.58 697.21
  Q 588.73 698.09 588.58 698.96
  Z"
/>
<path fill="#000000" d="
  M 588.57 699.96
  L 588.57 699.21
  Q 588.69 699.61 588.57 699.96
  Z"
/>
<path fill="#000000" d="
  M 588.57 701.96
  Q 588.49 701.65 588.24 701.46
  L 588.22 700.51
  Q 588.55 700.51 588.55 700.27
  Q 588.79 701.07 588.57 701.96
  Z"
/>
<path fill="#000000" d="
  M 588.60 702.96
  L 588.57 702.21
  Q 588.67 702.59 588.60 702.96
  Z"
/>
<path fill="#000000" d="
  M 588.68 745.72
  Q 588.20 745.81 588.19 745.29
  L 588.17 742.54
  Q 588.54 742.11 588.14 741.71
  Q 588.15 741.61 588.16 741.52
  Q 588.62 740.97 588.13 740.92
  L 588.20 724.56
  Q 588.75 723.78 588.24 722.93
  L 588.28 720.06
  Q 588.68 719.37 588.25 718.94
  L 588.27 715.56
  Q 588.72 714.67 588.26 713.93
  Q 588.03 712.97 588.31 712.07
  Q 588.67 709.99 588.31 707.93
  L 588.35 704.31
  Q 588.61 703.97 588.51 703.22
  L 588.68 745.72
  Z"
/>
<path fill="#102d5d" d="
  M 384.85 728.21
  L 384.85 726.71
  L 384.85 728.21
  Z"
/>
<path fill="#102d5d" d="
  M 384.84 740.21
  L 384.85 738.71
  L 384.84 740.21
  Z"
/>
<path fill="#102d5d" d="
  M 384.86 744.21
  L 384.86 742.71
  L 384.86 744.21
  Z"
/>
</svg>
