<?xml version="1.0" encoding="UTF-8" standalone="no"?>
<!DOCTYPE svg PUBLIC "-//W3C//DTD SVG 1.1//EN" "http://www.w3.org/Graphics/SVG/1.1/DTD/svg11.dtd">
<svg xmlns="http://www.w3.org/2000/svg" version="1.1" viewBox="0.00 0.00 1024.00 1024.00">
<g stroke-width="2.00" fill="none" stroke-linecap="butt">
<path stroke="#082a6d" vector-effect="non-scaling-stroke" d="
  M 145.09 425.75
  Q 140.91 459.95 143.01 496.99
  Q 147.56 577.40 184.65 647.74
  Q 202.67 681.89 229.48 713.05
  Q 256.01 743.87 288.33 766.01
  Q 350.35 808.50 426.32 818.95
  Q 441.95 821.09 458.70 821.33
  Q 476.84 821.58 491.16 820.54
  Q 515.87 818.75 542.04 812.78
  Q 571.38 806.11 597.98 794.38
  Q 648.43 772.16 689.90 735.52
  Q 707.08 720.36 721.36 703.48
  C 729.14 694.28 732.65 690.28 738.88 681.95
  Q 760.13 653.51 778.31 616.25
  Q 792.31 587.56 800.75 559.52
  Q 811.19 524.83 815.62 484.94
  Q 816.06 481.04 816.46 472.95
  C 816.99 462.25 817.80 452.22 817.69 442.88
  Q 817.39 418.86 814.84 397.83
  Q 804.34 311.25 757.87 238.44
  C 743.07 215.27 726.29 195.14 706.74 175.99
  Q 678.04 147.88 643.76 129.64
  Q 613.41 113.47 582.42 104.73
  Q 545.96 94.45 503.23 93.89
  Q 473.26 93.49 446.51 98.22
  C 400.31 106.40 354.71 123.49 315.23 148.76
  Q 260.34 183.89 222.16 234.43
  Q 177.08 294.10 156.13 368.61
  C 151.12 386.43 147.35 407.28 145.09 425.75"
/>
<path stroke="#030d25" vector-effect="non-scaling-stroke" d="
  M 686.53 138.17
  A 0.38 0.38 0.0 0 0 686.65 138.69
  Q 691.14 141.47 694.97 144.93
  Q 698.43 148.05 700.93 150.20
  Q 732.14 177.06 752.33 201.92
  Q 781.70 238.06 802.63 285.09
  Q 808.21 297.61 812.00 308.89
  Q 816.72 322.90 819.69 333.24
  Q 826.90 358.32 831.08 386.33
  Q 836.61 423.44 834.69 463.02
  Q 831.70 524.35 813.24 578.32
  Q 801.66 612.17 784.05 643.55
  Q 772.53 664.10 765.91 674.17
  Q 735.08 721.07 691.77 757.25
  Q 656.02 787.12 610.61 807.85
  C 603.28 811.19 590.41 815.57 580.39 819.49
  Q 573.94 822.01 567.07 823.53
  A 0.20 0.18 81.7 0 0 566.93 823.74
  L 566.93 823.75
  A 0.24 0.23 -6.3 0 0 567.19 823.95
  C 571.97 823.60 577.14 822.21 581.26 821.65
  Q 587.69 820.77 596.63 818.64
  Q 622.89 812.39 646.08 802.54
  Q 664.80 794.59 675.77 788.75
  Q 697.50 777.17 718.62 760.87
  Q 770.86 720.57 806.35 663.11
  Q 817.69 644.76 825.61 628.39
  Q 843.92 590.53 854.40 548.69
  Q 860.39 524.74 863.23 497.09
  Q 866.19 468.26 865.78 444.76
  C 864.76 385.95 850.74 326.79 822.60 274.67
  C 802.79 237.98 777.15 205.12 745.67 178.59
  Q 730.59 165.88 721.64 159.62
  Q 706.61 149.12 700.49 145.79
  Q 693.20 141.81 686.96 138.05
  A 0.31 0.31 0.0 0 0 686.54 138.16
  L 686.53 138.17"
/>
<path stroke="#0e45b7" vector-effect="non-scaling-stroke" d="
  M 146.11 425.72
  Q 141.93 459.81 144.01 496.74
  Q 148.52 576.90 185.48 647.04
  Q 203.43 681.09 230.15 712.17
  Q 256.59 742.90 288.80 764.98
  Q 350.62 807.36 426.36 817.80
  Q 441.94 819.94 458.64 820.18
  Q 476.72 820.44 491.00 819.41
  Q 515.63 817.63 541.72 811.69
  Q 570.98 805.04 597.50 793.36
  Q 647.80 771.22 689.16 734.71
  Q 706.29 719.60 720.53 702.77
  C 728.29 693.60 731.79 689.62 738.00 681.32
  Q 759.20 652.97 777.33 615.83
  Q 791.30 587.23 799.72 559.28
  Q 810.14 524.70 814.57 484.93
  Q 815.01 481.04 815.41 472.98
  C 815.94 462.31 816.75 452.31 816.64 443.00
  Q 816.35 419.05 813.82 398.09
  Q 803.37 311.77 757.07 239.17
  C 742.32 216.06 725.60 195.99 706.11 176.89
  Q 677.51 148.86 643.34 130.66
  Q 613.09 114.53 582.20 105.81
  Q 545.85 95.55 503.25 94.98
  Q 473.37 94.57 446.70 99.28
  C 400.64 107.42 355.18 124.45 315.81 149.63
  Q 261.08 184.63 223.00 235.01
  Q 178.04 294.48 157.13 368.76
  C 152.13 386.52 148.36 407.30 146.11 425.72"
/>
<path stroke="#0e45b7" vector-effect="non-scaling-stroke" d="
  M 775.64 505.90
  C 781.02 470.42 781.18 435.16 776.50 399.34
  C 771.66 362.30 759.32 324.46 742.44 291.98
  Q 722.97 254.50 697.73 225.96
  Q 672.93 197.90 643.07 177.22
  Q 616.12 158.56 582.86 145.62
  C 562.81 137.83 541.54 133.13 520.71 130.41
  Q 508.52 128.81 490.25 128.55
  Q 424.72 127.64 365.94 155.19
  Q 326.29 173.77 294.37 201.62
  C 289.40 205.95 286.74 208.14 283.09 211.70
  Q 270.80 223.69 261.38 234.63
  Q 186.70 321.32 175.78 435.70
  Q 173.27 461.96 174.50 489.25
  C 176.59 535.65 188.14 581.51 208.47 622.51
  C 228.81 663.55 258.67 699.67 294.88 727.85
  C 326.47 752.43 364.96 770.40 404.52 778.81
  Q 434.16 785.11 459.41 785.75
  Q 492.24 786.59 525.85 779.71
  Q 557.76 773.19 589.04 758.45
  Q 643.44 732.82 685.53 689.53
  C 696.49 678.25 705.94 666.31 714.51 654.77
  Q 719.15 648.53 725.32 638.57
  Q 750.23 598.39 764.53 553.55
  Q 771.94 530.30 775.64 505.90"
/>
<path stroke="#082a6d" vector-effect="non-scaling-stroke" d="
  M 774.66 505.99
  C 780.05 470.63 780.23 435.48 775.59 399.78
  C 770.78 362.86 758.51 325.13 741.70 292.75
  Q 722.32 255.38 697.18 226.92
  Q 672.48 198.94 642.73 178.31
  Q 615.88 159.69 582.74 146.77
  C 562.76 139.00 541.56 134.30 520.80 131.58
  Q 508.65 129.97 490.44 129.70
  Q 425.13 128.76 366.52 156.18
  Q 326.99 174.67 295.16 202.41
  C 290.20 206.73 287.55 208.91 283.91 212.45
  Q 271.65 224.40 262.26 235.30
  Q 187.77 321.66 176.82 435.65
  Q 174.30 461.83 175.51 489.03
  C 177.56 535.28 189.05 580.99 209.28 621.87
  C 229.53 662.79 259.27 698.81 295.35 726.92
  C 326.82 751.44 365.17 769.37 404.60 777.78
  Q 434.14 784.07 459.30 784.73
  Q 492.02 785.58 525.53 778.75
  Q 557.34 772.27 588.52 757.60
  Q 642.76 732.08 684.74 688.96
  C 695.67 677.72 705.10 665.83 713.64 654.33
  Q 718.27 648.12 724.43 638.19
  Q 749.28 598.16 763.56 553.47
  Q 770.96 530.31 774.66 505.99"
/>
<path stroke="#061b4a" vector-effect="non-scaling-stroke" d="
  M 370.33 754.94
  L 380.42 758.58"
/>
<path stroke="#082a6d" vector-effect="non-scaling-stroke" d="
  M 380.42 758.58
  Q 385.53 760.50 393.94 762.81
  Q 421.43 770.38 448.36 772.24
  C 511.07 776.56 573.32 758.76 625.10 723.10
  Q 639.13 713.44 647.73 706.21
  Q 675.01 683.31 698.13 653.62
  Q 706.56 642.80 715.83 627.57
  C 731.22 602.29 742.80 578.10 751.43 550.35
  Q 771.17 486.95 765.58 421.91
  Q 760.69 364.96 738.65 315.16
  C 717.25 266.78 682.44 222.25 638.81 191.08"
/>
<path stroke="#061b4a" vector-effect="non-scaling-stroke" d="
  M 638.81 191.08
  L 631.25 186.04"
/>
<path stroke="#030d25" vector-effect="non-scaling-stroke" d="
  M 631.25 186.04
  Q 612.43 173.32 594.36 165.16
  Q 557.27 148.41 514.25 143.19
  Q 465.45 137.28 418.33 150.07
  Q 384.99 159.11 353.27 176.26
  Q 348.46 178.86 338.60 184.99
  Q 315.46 199.36 296.28 217.03
  Q 273.17 238.32 255.22 262.70
  Q 237.33 287.01 222.84 315.86
  Q 209.91 341.61 199.51 376.64
  Q 197.64 382.95 196.74 387.53
  C 195.29 394.85 193.18 402.20 191.97 410.05
  Q 190.27 420.99 190.17 421.69
  C 180.70 486.85 189.24 552.60 217.72 611.78
  C 226.18 629.38 237.06 645.98 247.76 660.78
  C 259.63 677.19 273.68 693.50 289.59 706.63
  Q 303.62 718.21 316.18 726.55
  Q 333.68 738.19 340.65 741.85
  Q 351.86 747.75 365.13 753.36
  Q 367.64 754.41 370.33 754.94"
/>
<path stroke="#08276f" vector-effect="non-scaling-stroke" d="
  M 631.25 186.04
  Q 626.87 186.50 622.46 183.15
  A 4.35 3.79 72.8 0 0 621.70 182.68
  Q 612.97 178.57 600.82 174.40
  Q 569.70 163.74 541.49 160.08
  C 534.14 159.13 526.01 158.09 518.72 157.89
  Q 491.05 157.12 472.84 159.47
  Q 445.97 162.92 417.61 173.04
  Q 397.56 180.19 379.12 190.61
  Q 358.51 202.25 343.50 213.53
  Q 319.62 231.48 296.83 257.07
  C 256.30 302.59 230.81 360.26 219.74 420.26
  Q 215.59 442.78 214.96 466.98
  Q 214.27 493.84 216.29 514.00
  Q 221.56 566.60 242.80 614.13
  Q 254.97 641.38 273.43 666.91
  Q 292.31 693.02 313.42 713.07
  Q 323.83 722.95 339.22 735.04
  Q 342.71 737.78 355.03 745.88"
/>
<path stroke="#030d25" vector-effect="non-scaling-stroke" d="
  M 355.03 745.88
  L 354.46 745.94
  A 0.38 0.38 0.0 0 0 354.34 746.66
  L 365.28 751.91"
/>
<path stroke="#08276f" vector-effect="non-scaling-stroke" d="
  M 365.28 751.91
  Q 368.35 752.64 370.33 754.94"
/>
<path stroke="#0e45b7" vector-effect="non-scaling-stroke" d="
  M 638.81 191.08
  L 638.49 191.26
  A 0.58 0.57 -42.2 0 0 638.44 192.23
  Q 659.39 206.87 676.72 225.03
  Q 740.31 291.72 758.81 381.62
  Q 760.15 388.15 761.73 398.45
  Q 763.72 411.36 764.09 415.39
  Q 765.40 429.39 766.03 445.23
  C 766.34 453.19 765.67 462.17 765.54 471.32
  C 765.49 474.22 764.82 477.60 764.49 481.00
  Q 760.36 522.75 746.64 561.85
  C 738.41 585.30 727.66 606.58 714.72 627.47
  Q 705.31 642.67 698.84 651.24
  Q 696.15 654.80 692.69 658.83
  C 686.76 665.71 682.32 671.46 676.68 677.29
  Q 667.93 686.33 656.92 696.88
  C 652.42 701.19 646.68 705.34 642.93 708.86
  A 1.94 1.94 0.0 0 1 642.04 709.34
  Q 641.23 709.54 640.98 709.97
  Q 640.60 710.61 637.02 713.26
  Q 621.65 724.66 609.82 731.75
  Q 564.46 758.91 513.04 767.73
  Q 462.83 776.35 411.48 766.07
  C 406.00 764.97 398.73 762.85 392.56 761.45
  Q 389.32 760.71 381.46 757.75
  Q 380.49 757.38 380.42 758.58"
/>
<path stroke="#061b4a" vector-effect="non-scaling-stroke" d="
  M 365.28 751.91
  L 355.03 745.88"
/>
<path stroke="#061b4a" vector-effect="non-scaling-stroke" d="
  M 337.17 349.42
  C 337.23 353.17 332.23 359.05 329.78 361.80
  A 3.40 3.38 47.8 0 0 329.58 366.06
  C 330.82 367.74 333.32 368.63 335.77 368.90
  C 337.64 369.10 338.76 369.20 339.23 371.62
  Q 340.25 376.84 343.65 381.08
  C 346.26 384.33 349.48 383.30 351.17 379.88
  Q 353.46 375.25 354.94 369.81
  A 0.86 0.86 0.0 0 1 355.61 369.19
  C 358.34 368.65 361.13 368.58 362.86 366.35
  C 364.77 363.88 363.66 361.90 361.54 359.95
  C 358.14 356.80 354.93 352.35 354.81 347.81
  A 0.88 0.87 89.4 0 1 355.68 346.91
  Q 364.93 346.90 370.46 346.81
  C 373.49 346.76 376.37 347.13 376.55 343.28
  Q 376.65 341.22 376.69 333.98
  A 1.53 1.53 0.0 0 0 375.01 332.45
  L 367.50 333.24
  A 0.69 0.68 -3.9 0 1 366.74 332.58
  C 366.60 327.20 371.37 321.08 375.41 318.22
  C 380.94 314.30 385.33 319.14 384.87 324.73
  Q 384.80 325.52 384.00 329.32
  A 1.31 1.31 0.0 0 0 385.12 330.89
  C 395.34 332.18 403.77 324.84 405.62 314.98
  C 410.01 291.50 383.67 280.08 368.58 298.07
  C 362.83 304.91 360.06 312.76 358.12 321.56
  Q 356.20 330.27 355.96 332.44
  A 1.06 1.04 -83.7 0 1 354.81 333.37
  L 353.81 333.26
  A 1.16 1.15 7.0 0 1 352.79 331.96
  Q 355.04 315.63 357.80 307.51
  Q 365.35 285.28 365.82 283.82
  C 372.58 262.92 361.23 245.09 348.14 229.91
  A 1.79 1.78 48.2 0 0 345.58 229.76
  Q 343.18 231.99 341.19 234.66
  C 331.87 247.14 322.99 263.69 326.57 279.25
  Q 327.95 285.26 333.35 301.14
  Q 338.67 316.81 339.89 332.46
  A 0.91 0.90 -89.0 0 1 338.89 333.43
  L 337.51 333.28
  A 1.33 1.33 0.0 0 1 336.32 332.09
  C 334.90 317.46 331.57 303.25 320.58 294.20
  C 315.25 289.82 306.84 287.63 300.19 290.43
  C 291.98 293.88 287.60 301.46 287.30 310.23
  C 286.90 321.92 295.72 332.19 307.87 330.85
  A 1.51 1.50 85.9 0 0 309.21 329.30
  Q 309.02 324.36 309.01 324.24
  C 308.62 319.64 312.03 316.11 316.68 317.87
  C 322.34 320.01 325.71 327.25 327.04 332.78
  A 0.62 0.62 0.0 0 1 326.37 333.55
  L 318.68 332.73
  A 1.12 1.12 0.0 0 0 317.44 333.84
  L 317.44 344.76
  A 2.22 2.20 14.4 0 0 318.60 346.70
  Q 320.55 347.76 322.27 347.92
  Q 329.34 348.56 336.06 348.36
  A 1.08 1.07 88.4 0 1 337.17 349.42"
/>
<path stroke="#061b4a" vector-effect="non-scaling-stroke" d="
  M 660.55 333.23
  A 0.52 0.52 0.0 0 1 659.99 332.59
  Q 661.47 326.36 665.04 321.66
  C 667.83 318.01 674.85 313.83 677.48 319.81
  C 678.80 322.78 677.83 326.24 677.18 329.14
  A 1.55 1.54 6.8 0 0 678.67 331.03
  Q 690.95 331.12 696.62 321.81
  C 704.55 308.79 697.10 290.68 681.66 289.17
  C 673.64 288.38 665.07 293.41 660.66 299.68
  C 654.30 308.75 650.98 321.16 649.83 332.22
  A 1.01 1.00 -87.2 0 1 648.83 333.13
  L 647.61 333.13
  A 0.86 0.85 -89.7 0 1 646.76 332.26
  Q 646.81 329.56 647.34 326.29
  Q 650.58 306.64 658.10 287.76
  Q 664.90 270.67 657.37 253.46
  Q 651.75 240.61 641.73 230.01
  A 2.19 2.18 -46.2 0 0 638.50 230.08
  C 630.25 239.55 623.48 249.89 620.36 262.35
  C 618.37 270.33 619.21 277.36 621.89 285.13
  Q 626.85 299.47 629.33 307.64
  Q 632.48 318.00 633.44 332.12
  A 0.96 0.95 -1.9 0 1 632.48 333.14
  L 631.47 333.14
  A 1.23 1.22 -3.1 0 1 630.25 332.05
  Q 628.43 315.24 623.22 304.87
  C 617.93 294.32 603.75 284.44 591.51 291.53
  Q 580.75 297.76 580.78 310.46
  C 580.80 322.32 589.12 331.88 601.33 330.99
  A 1.58 1.58 0.0 0 0 602.79 329.30
  C 602.45 324.90 601.83 316.93 608.40 317.56
  Q 611.17 317.82 611.89 318.40
  Q 618.73 323.86 620.84 332.54
  A 0.42 0.42 0.0 0 1 620.43 333.06
  L 611.94 333.06
  A 1.17 1.17 0.0 0 0 610.77 334.31
  Q 611.11 339.86 611.05 342.10
  C 610.98 344.68 611.62 346.32 614.13 346.84
  Q 622.02 348.48 630.56 347.65
  A 0.63 0.63 0.0 0 1 631.24 348.35
  C 630.65 353.08 628.09 356.06 624.44 360.43
  C 623.19 361.93 621.81 365.19 623.86 366.70
  Q 626.78 368.86 631.52 368.91
  A 1.58 1.58 0.0 0 1 633.05 370.20
  C 633.71 373.71 637.10 384.48 642.12 383.02
  C 645.73 381.97 648.16 373.63 648.80 370.10
  A 1.56 1.55 2.2 0 1 650.17 368.84
  Q 655.28 368.32 657.30 365.02
  Q 658.58 362.94 656.75 361.19
  C 652.82 357.44 649.35 353.32 648.63 347.97
  A 0.88 0.88 0.0 0 1 649.48 346.97
  Q 651.35 346.91 664.00 346.83
  Q 667.24 346.81 669.15 345.68
  A 2.21 2.20 -15.3 0 0 670.24 343.78
  L 670.24 334.04
  A 1.65 1.65 0.0 0 0 668.42 332.40
  L 660.55 333.23"
/>
<path stroke="#0e45b7" vector-effect="non-scaling-stroke" d="
  M 574.94 563.94
  Q 586.22 552.70 596.39 537.18
  C 620.52 500.35 626.97 453.75 614.82 411.37
  C 607.01 384.10 589.44 358.79 565.88 342.26
  C 541.13 324.90 511.64 315.67 481.48 317.95
  C 447.72 320.49 416.82 335.78 393.57 360.31
  Q 361.50 394.14 352.57 439.98
  Q 348.39 461.41 350.80 487.48
  C 352.42 505.03 357.95 521.91 365.73 537.32
  C 375.89 557.46 390.97 574.54 410.50 586.37
  Q 446.05 607.90 488.57 604.59
  Q 515.87 602.46 539.91 589.52
  C 552.32 582.84 564.89 573.96 574.94 563.94"
/>
<path stroke="#061b4a" vector-effect="non-scaling-stroke" d="
  M 326.85 657.72
  L 318.89 656.87
  A 1.82 1.82 0.0 0 0 316.88 658.65
  Q 316.82 663.52 317.33 668.71
  Q 317.57 671.12 320.15 671.65
  Q 328.36 673.35 336.98 672.71
  A 0.61 0.61 0.0 0 1 337.61 673.48
  Q 336.62 677.11 334.00 681.03
  C 332.74 682.92 329.43 685.45 328.94 688.82
  C 328.44 692.36 334.67 693.06 336.93 693.15
  A 2.05 2.05 0.0 0 1 338.84 694.71
  C 339.82 698.71 342.23 705.36 345.94 706.94
  A 3.06 3.03 -54.5 0 0 349.18 706.38
  C 352.64 703.24 353.61 698.21 354.67 694.31
  A 1.75 1.74 -82.5 0 1 356.34 693.02
  C 362.03 692.97 367.90 688.85 361.57 683.49
  Q 356.50 679.20 354.81 672.60
  A 0.82 0.82 0.0 0 1 355.60 671.57
  L 374.03 671.57
  A 2.67 2.67 0.0 0 0 376.70 668.90
  L 376.70 658.56
  A 1.33 1.32 -0.0 0 0 375.37 657.24
  L 367.52 657.24
  A 0.76 0.75 7.6 0 1 366.79 656.29
  C 368.51 649.90 372.55 641.66 379.95 641.53
  C 386.81 641.41 384.55 651.46 383.55 655.11
  A 0.53 0.53 0.0 0 0 384.01 655.78
  C 402.31 657.60 412.33 638.10 403.67 623.00
  C 399.25 615.28 389.52 611.67 380.78 614.40
  C 363.47 619.80 358.71 640.28 356.24 656.72
  A 1.05 1.05 0.0 0 1 355.20 657.61
  L 353.82 657.61
  A 1.04 1.03 3.9 0 1 352.79 656.44
  Q 354.57 642.78 357.14 634.11
  Q 358.96 627.96 364.88 611.88
  Q 368.85 601.08 367.43 590.37
  C 365.65 577.00 356.60 563.67 347.07 553.50
  A 1.04 1.03 -45.5 0 0 345.54 553.52
  Q 336.57 563.65 330.90 575.14
  Q 322.52 592.09 328.18 609.80
  Q 329.79 614.86 334.62 628.88
  Q 338.31 639.61 339.96 656.67
  A 1.03 1.03 0.0 0 1 338.93 657.80
  L 338.11 657.80
  A 1.36 1.36 0.0 0 1 336.77 656.65
  Q 335.71 649.79 334.51 643.73
  C 332.19 631.93 325.09 616.91 312.06 614.23
  Q 304.36 612.66 298.53 615.61
  C 288.67 620.61 286.78 630.45 288.26 640.62
  C 289.65 650.17 299.68 657.18 309.54 655.80
  A 0.84 0.84 0.0 0 0 310.25 654.87
  C 309.69 650.34 308.92 647.94 310.60 644.57
  Q 312.63 640.47 317.18 642.29
  C 322.78 644.54 325.95 651.89 327.19 657.34
  A 0.31 0.31 0.0 0 1 326.85 657.72"
/>
<path stroke="#061b4a" vector-effect="non-scaling-stroke" d="
  M 660.57 657.64
  A 0.62 0.62 0.0 0 1 659.87 656.89
  Q 661.70 648.41 668.11 643.35
  C 672.14 640.18 678.39 641.27 678.06 647.49
  Q 677.88 650.71 676.80 654.25
  A 1.28 1.28 0.0 0 0 678.01 655.90
  C 689.52 656.04 698.28 648.99 699.73 637.71
  C 700.91 628.48 697.69 620.24 689.41 615.58
  Q 682.53 611.71 674.73 614.41
  C 657.63 620.33 651.82 640.54 650.10 656.56
  A 1.15 1.15 0.0 0 1 648.84 657.57
  L 647.66 657.45
  A 1.20 1.20 0.0 0 1 646.60 656.13
  Q 648.19 641.72 652.10 629.36
  Q 654.60 621.48 656.95 615.02
  Q 660.16 606.18 660.82 600.47
  C 662.72 583.92 653.04 565.64 641.40 554.05
  A 2.34 2.33 55.6 0 0 638.81 553.56
  Q 638.72 553.60 638.11 554.36
  C 629.76 564.61 622.79 574.83 619.89 587.88
  C 618.06 596.07 619.88 603.49 622.57 611.44
  Q 626.27 622.36 628.24 628.64
  Q 630.06 634.44 630.78 638.15
  C 632.27 645.81 633.18 650.07 633.18 656.97
  A 0.91 0.91 0.0 0 1 632.17 657.88
  L 630.99 657.75
  A 0.93 0.93 0.0 0 1 630.16 656.92
  Q 629.11 647.13 626.51 637.86
  C 622.25 622.62 609.27 608.82 592.60 615.41
  C 583.24 619.12 579.96 629.26 581.23 638.50
  C 582.71 649.24 591.39 655.99 602.28 655.96
  A 1.58 1.58 0.0 0 0 603.82 654.01
  C 602.88 650.17 602.02 643.11 606.75 641.83
  C 608.64 641.32 611.92 642.38 613.19 643.64
  Q 618.76 649.18 620.48 657.33
  A 0.49 0.48 86.9 0 1 619.96 657.92
  L 612.41 657.11
  A 1.94 1.94 0.0 0 0 610.27 658.97
  Q 610.09 663.83 610.83 669.18
  Q 611.14 671.39 613.13 671.72
  Q 621.23 673.05 630.28 672.62
  A 0.86 0.85 -85.8 0 1 631.16 673.65
  C 630.09 678.72 626.48 682.67 622.95 686.71
  A 2.85 2.53 -43.9 0 0 622.68 690.10
  C 624.52 692.51 628.22 693.03 631.53 693.73
  A 1.31 1.31 0.0 0 1 632.53 694.69
  C 633.57 698.85 634.83 703.61 638.81 706.21
  C 644.13 709.67 647.38 696.96 648.06 694.04
  A 1.07 1.06 -84.0 0 1 649.07 693.22
  Q 653.89 693.07 656.06 690.59
  Q 658.26 688.06 656.22 685.76
  C 652.52 681.60 649.29 678.51 648.07 672.69
  A 0.68 0.68 0.0 0 1 648.73 671.86
  Q 659.10 671.81 665.51 671.49
  Q 669.69 671.28 670.04 669.15
  C 670.54 666.09 670.54 662.80 670.56 659.48
  Q 670.58 656.58 667.50 656.88
  Q 662.95 657.31 660.57 657.64"
/>
<path stroke="#7d7d7d" vector-effect="non-scaling-stroke" d="
  M 318.95 334.83
  L 318.95 343.63
  A 2.53 2.52 4.5 0 0 321.08 346.12
  Q 329.75 347.47 339.10 346.65
  A 0.37 0.37 0.0 0 1 339.50 347.07
  C 338.70 353.74 334.76 357.92 330.78 362.92
  A 1.87 1.87 0.0 0 0 331.01 365.49
  C 332.72 366.98 336.86 367.69 339.18 367.91
  A 0.82 0.80 -4.8 0 1 339.87 368.48
  C 341.32 373.31 342.27 377.80 346.22 381.23
  A 1.63 1.63 0.0 0 0 348.65 380.90
  Q 352.61 374.93 353.19 368.27
  A 0.78 0.77 -1.9 0 1 353.85 367.57
  C 356.04 367.27 362.04 367.57 362.13 364.33
  Q 362.18 362.43 360.87 361.34
  Q 353.42 355.15 352.46 345.62
  A 0.37 0.36 -2.8 0 1 352.83 345.22
  L 373.99 345.22
  A 1.17 1.17 0.0 0 0 375.16 344.05
  L 375.16 334.98
  A 0.78 0.78 0.0 0 0 374.30 334.20
  L 366.05 335.07
  A 1.31 1.30 -1.1 0 1 364.61 333.69
  C 364.94 328.22 368.41 322.26 372.20 318.70
  C 381.27 310.16 389.13 318.99 385.65 328.86
  A 0.60 0.60 0.0 0 0 386.26 329.66
  Q 402.53 328.55 404.31 312.32
  Q 405.15 304.66 401.47 298.99
  C 396.56 291.44 386.35 288.94 378.33 292.58
  C 363.65 299.25 359.19 319.37 357.84 333.56
  A 1.61 1.60 2.5 0 1 356.24 335.02
  L 352.34 335.02
  A 1.41 1.41 0.0 0 1 350.94 333.47
  Q 352.82 315.11 358.73 299.19
  Q 362.44 289.20 364.47 282.73
  C 370.36 263.94 360.07 245.48 346.95 231.32
  A 0.58 0.58 0.0 0 0 346.09 231.34
  Q 337.79 241.08 332.52 251.80
  Q 324.17 268.77 330.11 286.36
  C 336.18 304.35 340.69 316.81 341.52 333.91
  A 1.00 0.99 88.6 0 1 340.53 334.96
  L 336.22 334.96
  A 1.14 1.14 0.0 0 1 335.09 333.96
  C 333.28 319.67 328.99 295.82 312.05 291.66
  Q 301.32 289.02 294.43 296.10
  C 289.62 301.03 287.98 309.68 289.73 316.11
  Q 293.18 328.81 306.75 329.76
  A 0.79 0.79 0.0 0 0 307.59 328.87
  C 306.92 323.67 307.10 315.74 314.46 315.81
  C 319.79 315.85 324.26 321.28 326.41 325.89
  Q 328.09 329.50 328.83 334.50
  A 0.65 0.65 0.0 0 1 328.12 335.24
  L 319.52 334.32
  A 0.52 0.51 3.0 0 0 318.95 334.83"
/>
<path stroke="#7d7d7d" vector-effect="non-scaling-stroke" d="
  M 679.02 328.59
  A 0.78 0.78 0.0 0 0 679.84 329.62
  Q 694.17 328.23 697.45 315.72
  C 698.80 310.54 697.77 303.76 695.05 299.25
  C 690.80 292.19 683.74 289.88 675.65 291.37
  C 667.83 292.82 660.94 300.35 657.87 307.40
  Q 652.73 319.17 651.73 333.27
  A 1.82 1.81 2.0 0 1 649.92 334.95
  L 646.55 334.95
  A 1.62 1.61 -89.0 0 1 644.94 333.27
  Q 645.13 327.97 645.68 324.88
  Q 648.62 308.28 654.51 292.65
  C 658.29 282.60 660.64 275.22 659.31 266.50
  C 657.31 253.30 649.85 241.26 640.78 231.19
  A 0.58 0.58 0.0 0 0 639.93 231.18
  Q 631.07 240.82 625.62 252.11
  Q 619.66 264.44 621.55 277.25
  Q 622.18 281.56 625.71 291.35
  Q 628.96 300.36 630.47 305.30
  Q 634.77 319.33 635.15 333.34
  A 1.61 1.61 0.0 0 1 633.54 335.00
  L 630.47 335.00
  A 1.88 1.88 0.0 0 1 628.60 333.28
  Q 627.66 322.42 624.32 312.08
  Q 622.41 306.15 619.59 302.19
  C 613.44 293.51 602.99 287.91 592.88 292.70
  C 587.61 295.19 583.57 300.61 582.61 306.10
  C 581.56 312.09 583.17 319.97 587.52 324.30
  Q 592.51 329.27 600.29 329.74
  A 0.81 0.80 -2.0 0 0 601.14 328.83
  C 600.54 324.43 600.54 317.20 606.00 316.07
  C 611.05 315.03 613.85 317.56 617.07 321.35
  Q 621.78 326.90 622.66 334.56
  A 0.58 0.57 -0.4 0 1 622.03 335.19
  L 612.85 334.21
  A 0.43 0.42 3.1 0 0 612.38 334.63
  L 612.38 343.58
  A 1.35 1.35 0.0 0 0 613.30 344.86
  C 619.25 346.81 628.69 345.97 632.73 346.08
  A 0.45 0.44 2.0 0 1 633.16 346.53
  C 632.99 353.08 629.11 357.31 624.76 362.43
  A 2.42 2.42 0.0 0 0 624.72 365.52
  Q 625.03 365.91 627.13 366.67
  Q 627.66 366.86 633.13 367.62
  A 1.51 1.51 0.0 0 1 634.42 368.89
  Q 635.49 375.99 639.94 381.42
  A 1.40 1.40 0.0 0 0 641.97 381.56
  C 645.21 378.56 646.72 372.70 647.21 368.48
  A 0.77 0.76 86.2 0 1 647.78 367.82
  C 650.31 367.19 653.56 366.90 655.32 365.32
  A 2.31 2.31 0.0 0 0 655.44 362.02
  C 650.34 356.64 647.32 352.91 646.18 345.83
  A 0.53 0.53 0.0 0 1 646.70 345.21
  L 666.96 345.21
  A 1.77 1.76 -0.0 0 0 668.73 343.45
  L 668.73 334.69
  A 0.65 0.64 -3.2 0 0 668.01 334.05
  L 658.91 335.00
  A 0.69 0.69 0.0 0 1 658.15 334.23
  C 658.92 327.04 663.59 317.94 670.86 315.63
  C 679.34 312.92 680.94 322.86 679.02 328.59"
/>
<path stroke="#082a6d" vector-effect="non-scaling-stroke" d="
  M 574.05 563.41
  Q 585.27 552.28 595.40 536.90
  C 619.44 500.39 625.96 454.14 613.99 412.04
  C 606.30 384.95 588.92 359.78 565.56 343.31
  C 541.03 326.02 511.78 316.79 481.83 318.98
  C 448.31 321.43 417.60 336.54 394.46 360.84
  Q 362.54 394.35 353.57 439.84
  Q 349.37 461.10 351.70 486.99
  C 353.27 504.42 358.72 521.19 366.41 536.50
  C 376.45 556.52 391.38 573.51 410.74 585.30
  Q 445.99 606.76 488.21 603.57
  Q 515.31 601.52 539.21 588.73
  C 551.55 582.13 564.05 573.34 574.05 563.41"
/>
<path stroke="#082a6d" vector-effect="non-scaling-stroke" d="
  M 512.60 578.11
  Q 522.14 574.44 529.47 570.22
  Q 547.20 560.00 561.18 544.97
  Q 588.58 515.54 596.36 476.13
  C 603.68 439.06 594.71 400.21 570.30 370.77
  C 552.59 349.41 526.87 336.04 499.82 333.74
  Q 453.30 329.77 417.09 357.85
  Q 374.20 391.11 364.54 446.07
  Q 363.57 451.55 363.25 459.99
  Q 362.88 469.81 363.09 474.01
  Q 365.12 514.69 388.07 544.95
  Q 409.93 573.77 444.89 582.49
  Q 479.03 591.01 512.60 578.11"
/>
<path stroke="#0e45b7" vector-effect="non-scaling-stroke" d="
  M 512.40 577.11
  Q 521.86 573.46 529.13 569.27
  Q 546.71 559.12 560.57 544.21
  Q 587.72 515.00 595.42 475.91
  C 602.65 439.14 593.73 400.61 569.50 371.43
  C 551.92 350.25 526.41 337.01 499.58 334.74
  Q 453.44 330.84 417.54 358.71
  Q 375.02 391.72 365.47 446.24
  Q 364.52 451.67 364.20 460.05
  Q 363.84 469.79 364.05 473.95
  Q 366.09 514.30 388.87 544.29
  Q 410.57 572.87 445.25 581.49
  Q 479.12 589.92 512.40 577.11"
/>
<path stroke="#0e45b7" vector-effect="non-scaling-stroke" d="
  M 549.75 442.31
  Q 545.98 415.35 525.53 395.23
  Q 524.08 393.81 521.38 391.87
  Q 517.98 389.42 517.04 388.78
  Q 493.13 372.56 465.03 378.27
  Q 443.21 382.70 428.44 396.47
  Q 403.86 419.39 399.06 454.30
  Q 398.16 460.83 398.52 468.09
  Q 398.93 476.20 399.97 481.81
  C 403.48 500.74 414.32 519.49 430.39 529.87
  Q 446.43 540.22 466.11 541.28
  Q 484.59 542.28 502.68 533.07
  Q 525.88 521.24 539.28 498.08
  Q 549.03 481.23 550.29 463.26
  Q 551.09 451.92 549.75 442.31"
/>
<path stroke="#082a6d" vector-effect="non-scaling-stroke" d="
  M 404.77 434.48
  Q 397.50 454.81 400.05 476.57
  C 403.17 503.13 420.99 528.53 447.23 536.73
  Q 474.14 545.15 499.89 533.42
  C 520.53 524.02 537.07 505.47 544.58 484.47
  C 552.09 463.46 551.06 438.63 541.06 418.27
  Q 528.58 392.88 502.43 382.33
  C 476.94 372.03 447.06 380.38 427.80 398.94
  Q 412.03 414.15 404.77 434.48"
/>
<path stroke="#030d25" vector-effect="non-scaling-stroke" d="
  M 464.31 524.41
  C 451.47 511.03 443.42 493.42 442.73 474.71
  Q 441.56 443.11 460.93 420.62
  C 471.14 408.76 484.32 401.02 499.70 399.78
  A 0.58 0.57 -33.2 0 0 499.93 398.70
  Q 480.66 388.43 459.77 395.31
  Q 451.27 398.10 443.83 403.60
  C 425.56 417.11 414.77 437.48 413.95 460.19
  C 413.28 478.67 419.71 498.89 433.28 511.80
  Q 439.85 518.04 449.89 521.43
  Q 458.89 524.47 464.07 524.90
  A 0.29 0.29 0.0 0 0 464.31 524.41"
/>
<path stroke="#7d7d7d" vector-effect="non-scaling-stroke" d="
  M 339.90 671.51
  Q 337.96 679.74 332.24 685.46
  Q 331.13 686.57 330.39 688.42
  A 1.69 1.68 16.0 0 0 331.66 690.70
  L 339.26 692.08
  A 0.94 0.94 0.0 0 1 340.01 692.83
  Q 341.28 699.50 345.45 705.04
  A 1.81 1.80 -38.3 0 0 348.06 705.34
  C 351.33 702.60 352.45 696.64 353.12 692.78
  A 0.86 0.85 88.5 0 1 353.76 692.10
  C 356.45 691.47 359.94 691.56 362.28 689.45
  A 2.09 2.09 0.0 0 0 362.38 686.45
  Q 359.14 683.12 358.64 682.62
  Q 353.75 677.82 352.89 670.92
  A 0.85 0.85 0.0 0 1 353.73 669.96
  L 373.87 669.96
  A 1.43 1.43 0.0 0 0 375.30 668.53
  L 375.30 659.23
  A 0.24 0.24 0.0 0 0 375.06 658.99
  L 365.33 658.99
  A 0.50 0.50 0.0 0 1 364.84 658.42
  Q 366.33 647.47 374.04 641.72
  Q 376.20 640.11 378.90 639.88
  C 386.96 639.20 387.28 648.23 385.28 653.45
  A 0.77 0.77 0.0 0 0 386.05 654.49
  Q 402.85 653.28 404.99 636.73
  C 405.78 630.64 403.03 622.23 397.63 618.57
  C 391.35 614.32 383.78 614.04 377.09 617.61
  C 363.32 624.96 359.39 644.05 357.98 658.05
  A 1.29 1.29 0.0 0 1 356.70 659.21
  L 352.07 659.21
  A 1.07 1.07 0.0 0 1 351.00 658.05
  Q 352.53 640.08 358.80 623.55
  Q 364.15 609.48 365.03 605.57
  Q 368.30 591.03 361.66 577.31
  Q 355.82 565.24 346.75 555.58
  A 0.56 0.55 44.0 0 0 345.93 555.59
  C 332.61 570.81 323.46 588.91 329.84 609.39
  Q 331.56 614.90 335.15 625.11
  Q 341.00 641.76 341.65 658.73
  A 0.60 0.59 -0.9 0 1 341.05 659.34
  L 336.18 659.34
  A 0.96 0.95 -4.6 0 1 335.23 658.54
  C 333.16 645.05 331.49 633.42 323.46 623.27
  C 316.22 614.10 302.45 612.23 294.22 620.93
  C 289.59 625.81 288.87 631.88 289.54 638.51
  C 290.55 648.40 298.78 654.55 308.37 654.53
  A 0.29 0.29 0.0 0 0 308.64 654.15
  C 307.17 649.69 307.25 643.80 311.74 641.01
  C 313.50 639.92 315.99 639.96 317.78 640.80
  C 324.52 643.95 328.11 651.59 328.97 658.73
  A 0.71 0.71 0.0 0 1 328.19 659.52
  L 318.93 658.53
  A 0.77 0.77 0.0 0 0 318.09 659.35
  L 318.77 668.74
  A 1.07 1.05 12.5 0 0 319.33 669.60
  Q 321.50 670.77 326.28 670.97
  Q 328.76 671.06 339.42 670.91
  A 0.49 0.48 6.4 0 1 339.90 671.51"
/>
<path stroke="#7d7d7d" vector-effect="non-scaling-stroke" d="
  M 601.63 654.70
  A 0.48 0.48 0.0 0 0 602.17 654.13
  Q 601.57 651.21 601.43 648.51
  C 601.17 643.29 604.74 638.65 610.41 640.43
  C 617.52 642.67 621.66 652.45 622.39 659.28
  A 0.45 0.45 0.0 0 1 621.89 659.77
  L 612.65 658.79
  A 0.59 0.59 0.0 0 0 612.00 659.38
  L 612.00 668.88
  A 1.07 1.06 7.4 0 0 612.80 669.91
  C 618.98 671.55 626.05 671.07 632.47 671.07
  A 0.61 0.60 -86.6 0 1 633.07 671.75
  C 632.32 677.93 628.67 682.80 624.40 687.29
  A 1.74 1.74 0.0 0 0 624.79 690.00
  Q 628.26 692.01 632.94 691.89
  A 0.92 0.91 86.6 0 1 633.87 692.72
  Q 634.54 699.45 638.54 704.24
  A 2.43 2.19 52.9 0 0 641.58 704.82
  C 644.61 702.77 646.06 696.22 646.13 692.80
  A 0.81 0.80 86.7 0 1 646.83 692.01
  C 649.63 691.66 653.64 691.43 655.26 689.36
  A 2.12 2.03 41.9 0 0 655.05 686.62
  C 650.27 681.84 646.60 677.55 646.03 670.76
  A 0.63 0.62 87.5 0 1 646.65 670.08
  Q 658.85 670.09 666.53 669.88
  C 669.32 669.80 668.94 668.23 669.05 665.83
  Q 669.24 662.04 668.97 659.43
  A 1.20 1.19 -5.8 0 0 667.66 658.37
  L 658.63 659.32
  A 0.56 0.56 0.0 0 1 658.02 658.71
  Q 659.04 649.70 665.57 643.39
  C 674.52 634.75 683.59 643.62 678.24 653.62
  A 0.55 0.55 0.0 0 0 678.77 654.43
  Q 696.20 653.29 698.10 636.55
  C 698.77 630.66 696.96 623.78 692.23 619.55
  Q 683.69 611.92 672.16 617.18
  C 657.52 623.86 653.01 643.97 651.77 658.04
  A 1.12 1.12 0.0 0 1 650.65 659.06
  L 645.88 659.06
  A 1.04 1.04 0.0 0 1 644.84 657.97
  C 645.41 645.16 649.05 631.64 653.31 620.06
  Q 657.77 607.96 658.28 605.53
  Q 660.60 594.46 658.26 586.21
  Q 653.27 568.53 640.49 555.49
  A 0.70 0.69 -46.7 0 0 639.48 555.52
  Q 630.65 565.42 625.34 576.56
  C 619.54 588.71 620.08 600.32 624.62 612.65
  C 630.11 627.56 634.49 642.22 635.14 658.09
  A 1.12 1.12 0.0 0 1 634.02 659.26
  L 629.78 659.26
  A 1.31 1.30 -2.7 0 1 628.48 658.08
  Q 627.24 644.39 623.28 633.95
  C 618.03 620.14 604.43 609.66 589.99 618.71
  C 583.63 622.69 582.11 631.21 582.97 638.29
  Q 584.03 646.89 591.58 651.64
  C 594.67 653.59 598.10 654.18 601.63 654.70"
/>
</g>
<path fill="#000000" d="
  M 849.06 292.20
  C 849.12 292.58 849.16 292.66 849.37 292.89
  Q 849.58 293.12 849.60 293.17
  Q 857.72 311.44 863.47 329.81
  Q 872.01 357.11 876.46 383.52
  Q 876.60 384.36 877.89 392.59
  Q 878.74 398.05 879.11 401.71
  Q 879.92 409.64 880.28 412.69
  Q 881.10 419.54 881.01 423.46
  C 880.91 428.31 881.86 432.72 881.92 437.85
  Q 882.07 450.71 881.95 465.24
  C 881.89 471.61 880.80 478.43 880.94 484.51
  A 8.87 8.58 52.2 0 1 880.70 486.71
  C 879.75 490.60 880.34 494.34 879.42 498.45
  Q 878.99 500.38 878.94 503.63
  A 5.26 5.03 -37.7 0 1 878.73 505.01
  Q 878.36 506.23 877.89 509.98
  Q 870.59 568.52 845.94 622.73
  Q 821.30 676.91 782.01 722.28
  Q 760.44 747.19 734.14 768.13
  Q 691.38 802.19 638.63 822.14
  Q 615.69 830.82 591.04 836.11
  Q 583.97 837.63 579.29 838.41
  Q 568.87 840.17 567.04 840.38
  Q 566.56 840.44 565.87 840.54
  Q 557.32 841.80 551.32 842.57
  C 547.80 843.03 544.80 842.78 541.87 843.42
  C 537.91 844.28 533.28 843.96 529.71 844.41
  Q 525.37 844.96 521.30 844.98
  C 504.43 845.07 491.08 845.60 476.18 844.23
  Q 462.80 843.00 461.25 842.97
  C 457.18 842.87 453.59 841.87 449.27 841.91
  A 7.60 7.49 -37.3 0 1 447.23 841.65
  C 443.90 840.75 440.36 841.21 437.09 840.32
  C 435.04 839.76 432.66 839.95 430.00 839.52
  Q 419.35 837.78 414.51 836.92
  Q 388.77 832.33 363.52 823.95
  Q 302.85 803.81 254.93 764.06
  Q 240.88 752.41 224.68 735.27
  Q 209.53 719.26 197.65 703.29
  Q 143.63 630.67 129.03 539.50
  Q 126.83 525.75 125.69 512.27
  Q 125.65 511.79 125.32 510.10
  A 11.44 11.12 -51.6 0 1 125.09 507.83
  C 125.07 500.05 124.18 493.22 124.07 486.38
  Q 123.78 466.97 124.25 458.75
  Q 124.86 447.89 125.09 442.33
  Q 125.20 439.59 125.61 437.20
  C 126.22 433.72 125.79 429.79 126.61 426.30
  C 127.14 424.06 126.94 421.55 127.40 418.62
  Q 128.33 412.65 129.38 404.78
  Q 131.03 392.45 136.12 371.03
  Q 146.83 326.00 169.02 283.04
  Q 205.81 211.82 265.09 160.65
  Q 292.72 136.80 329.73 116.78
  Q 381.12 88.99 444.76 78.23
  C 446.58 77.92 448.55 78.15 450.25 77.52
  C 452.82 76.55 456.21 77.06 458.55 76.33
  A 5.03 4.77 34.0 0 1 459.87 76.11
  Q 461.38 76.08 468.12 75.42
  Q 493.29 72.95 518.82 74.64
  C 523.87 74.98 529.53 74.83 534.06 75.62
  C 537.04 76.14 540.95 75.77 543.94 76.74
  A 2.83 2.71 -36.8 0 0 544.93 76.86
  Q 546.38 76.76 552.01 77.64
  Q 570.88 80.57 578.52 82.21
  Q 607.68 88.46 637.32 98.68
  Q 688.76 116.44 733.32 148.68
  Q 783.88 185.27 818.73 237.29
  Q 835.97 263.05 848.95 291.81
  Q 849.02 291.96 849.06 292.20
  Z
  M 145.09 425.75
  Q 140.91 459.95 143.01 496.99
  Q 147.56 577.40 184.65 647.74
  Q 202.67 681.89 229.48 713.05
  Q 256.01 743.87 288.33 766.01
  Q 350.35 808.50 426.32 818.95
  Q 441.95 821.09 458.70 821.33
  Q 476.84 821.58 491.16 820.54
  Q 515.87 818.75 542.04 812.78
  Q 571.38 806.11 597.98 794.38
  Q 648.43 772.16 689.90 735.52
  Q 707.08 720.36 721.36 703.48
  C 729.14 694.28 732.65 690.28 738.88 681.95
  Q 760.13 653.51 778.31 616.25
  Q 792.31 587.56 800.75 559.52
  Q 811.19 524.83 815.62 484.94
  Q 816.06 481.04 816.46 472.95
  C 816.99 462.25 817.80 452.22 817.69 442.88
  Q 817.39 418.86 814.84 397.83
  Q 804.34 311.25 757.87 238.44
  C 743.07 215.27 726.29 195.14 706.74 175.99
  Q 678.04 147.88 643.76 129.64
  Q 613.41 113.47 582.42 104.73
  Q 545.96 94.45 503.23 93.89
  Q 473.26 93.49 446.51 98.22
  C 400.31 106.40 354.71 123.49 315.23 148.76
  Q 260.34 183.89 222.16 234.43
  Q 177.08 294.10 156.13 368.61
  C 151.12 386.43 147.35 407.28 145.09 425.75
  Z
  M 686.53 138.17
  A 0.38 0.38 0.0 0 0 686.65 138.69
  Q 691.14 141.47 694.97 144.93
  Q 698.43 148.05 700.93 150.20
  Q 732.14 177.06 752.33 201.92
  Q 781.70 238.06 802.63 285.09
  Q 808.21 297.61 812.00 308.89
  Q 816.72 322.90 819.69 333.24
  Q 826.90 358.32 831.08 386.33
  Q 836.61 423.44 834.69 463.02
  Q 831.70 524.35 813.24 578.32
  Q 801.66 612.17 784.05 643.55
  Q 772.53 664.10 765.91 674.17
  Q 735.08 721.07 691.77 757.25
  Q 656.02 787.12 610.61 807.85
  C 603.28 811.19 590.41 815.57 580.39 819.49
  Q 573.94 822.01 567.07 823.53
  A 0.20 0.18 81.7 0 0 566.93 823.74
  L 566.93 823.75
  A 0.24 0.23 -6.3 0 0 567.19 823.95
  C 571.97 823.60 577.14 822.21 581.26 821.65
  Q 587.69 820.77 596.63 818.64
  Q 622.89 812.39 646.08 802.54
  Q 664.80 794.59 675.77 788.75
  Q 697.50 777.17 718.62 760.87
  Q 770.86 720.57 806.35 663.11
  Q 817.69 644.76 825.61 628.39
  Q 843.92 590.53 854.40 548.69
  Q 860.39 524.74 863.23 497.09
  Q 866.19 468.26 865.78 444.76
  C 864.76 385.95 850.74 326.79 822.60 274.67
  C 802.79 237.98 777.15 205.12 745.67 178.59
  Q 730.59 165.88 721.64 159.62
  Q 706.61 149.12 700.49 145.79
  Q 693.20 141.81 686.96 138.05
  A 0.31 0.31 0.0 0 0 686.54 138.16
  L 686.53 138.17
  Z"
/>
<path fill="#1054da" d="
  M 145.09 425.75
  C 147.35 407.28 151.12 386.43 156.13 368.61
  Q 177.08 294.10 222.16 234.43
  Q 260.34 183.89 315.23 148.76
  C 354.71 123.49 400.31 106.40 446.51 98.22
  Q 473.26 93.49 503.23 93.89
  Q 545.96 94.45 582.42 104.73
  Q 613.41 113.47 643.76 129.64
  Q 678.04 147.88 706.74 175.99
  C 726.29 195.14 743.07 215.27 757.87 238.44
  Q 804.34 311.25 814.84 397.83
  Q 817.39 418.86 817.69 442.88
  C 817.80 452.22 816.99 462.25 816.46 472.95
  Q 816.06 481.04 815.62 484.94
  Q 811.19 524.83 800.75 559.52
  Q 792.31 587.56 778.31 616.25
  Q 760.13 653.51 738.88 681.95
  C 732.65 690.28 729.14 694.28 721.36 703.48
  Q 707.08 720.36 689.90 735.52
  Q 648.43 772.16 597.98 794.38
  Q 571.38 806.11 542.04 812.78
  Q 515.87 818.75 491.16 820.54
  Q 476.84 821.58 458.70 821.33
  Q 441.95 821.09 426.32 818.95
  Q 350.35 808.50 288.33 766.01
  Q 256.01 743.87 229.48 713.05
  Q 202.67 681.89 184.65 647.74
  Q 147.56 577.40 143.01 496.99
  Q 140.91 459.95 145.09 425.75
  Z
  M 146.11 425.72
  Q 141.93 459.81 144.01 496.74
  Q 148.52 576.90 185.48 647.04
  Q 203.43 681.09 230.15 712.17
  Q 256.59 742.90 288.80 764.98
  Q 350.62 807.36 426.36 817.80
  Q 441.94 819.94 458.64 820.18
  Q 476.72 820.44 491.00 819.41
  Q 515.63 817.63 541.72 811.69
  Q 570.98 805.04 597.50 793.36
  Q 647.80 771.22 689.16 734.71
  Q 706.29 719.60 720.53 702.77
  C 728.29 693.60 731.79 689.62 738.00 681.32
  Q 759.20 652.97 777.33 615.83
  Q 791.30 587.23 799.72 559.28
  Q 810.14 524.70 814.57 484.93
  Q 815.01 481.04 815.41 472.98
  C 815.94 462.31 816.75 452.31 816.64 443.00
  Q 816.35 419.05 813.82 398.09
  Q 803.37 311.77 757.07 239.17
  C 742.32 216.06 725.60 195.99 706.11 176.89
  Q 677.51 148.86 643.34 130.66
  Q 613.09 114.53 582.20 105.81
  Q 545.85 95.55 503.25 94.98
  Q 473.37 94.57 446.70 99.28
  C 400.64 107.42 355.18 124.45 315.81 149.63
  Q 261.08 184.63 223.00 235.01
  Q 178.04 294.48 157.13 368.76
  C 152.13 386.52 148.36 407.30 146.11 425.72
  Z"
/>
<path fill="#0b3593" d="
  M 146.11 425.72
  C 148.36 407.30 152.13 386.52 157.13 368.76
  Q 178.04 294.48 223.00 235.01
  Q 261.08 184.63 315.81 149.63
  C 355.18 124.45 400.64 107.42 446.70 99.28
  Q 473.37 94.57 503.25 94.98
  Q 545.85 95.55 582.20 105.81
  Q 613.09 114.53 643.34 130.66
  Q 677.51 148.86 706.11 176.89
  C 725.60 195.99 742.32 216.06 757.07 239.17
  Q 803.37 311.77 813.82 398.09
  Q 816.35 419.05 816.64 443.00
  C 816.75 452.31 815.94 462.31 815.41 472.98
  Q 815.01 481.04 814.57 484.93
  Q 810.14 524.70 799.72 559.28
  Q 791.30 587.23 777.33 615.83
  Q 759.20 652.97 738.00 681.32
  C 731.79 689.62 728.29 693.60 720.53 702.77
  Q 706.29 719.60 689.16 734.71
  Q 647.80 771.22 597.50 793.36
  Q 570.98 805.04 541.72 811.69
  Q 515.63 817.63 491.00 819.41
  Q 476.72 820.44 458.64 820.18
  Q 441.94 819.94 426.36 817.80
  Q 350.62 807.36 288.80 764.98
  Q 256.59 742.90 230.15 712.17
  Q 203.43 681.09 185.48 647.04
  Q 148.52 576.90 144.01 496.74
  Q 141.93 459.81 146.11 425.72
  Z
  M 775.64 505.90
  C 781.02 470.42 781.18 435.16 776.50 399.34
  C 771.66 362.30 759.32 324.46 742.44 291.98
  Q 722.97 254.50 697.73 225.96
  Q 672.93 197.90 643.07 177.22
  Q 616.12 158.56 582.86 145.62
  C 562.81 137.83 541.54 133.13 520.71 130.41
  Q 508.52 128.81 490.25 128.55
  Q 424.72 127.64 365.94 155.19
  Q 326.29 173.77 294.37 201.62
  C 289.40 205.95 286.74 208.14 283.09 211.70
  Q 270.80 223.69 261.38 234.63
  Q 186.70 321.32 175.78 435.70
  Q 173.27 461.96 174.50 489.25
  C 176.59 535.65 188.14 581.51 208.47 622.51
  C 228.81 663.55 258.67 699.67 294.88 727.85
  C 326.47 752.43 364.96 770.40 404.52 778.81
  Q 434.16 785.11 459.41 785.75
  Q 492.24 786.59 525.85 779.71
  Q 557.76 773.19 589.04 758.45
  Q 643.44 732.82 685.53 689.53
  C 696.49 678.25 705.94 666.31 714.51 654.77
  Q 719.15 648.53 725.32 638.57
  Q 750.23 598.39 764.53 553.55
  Q 771.94 530.30 775.64 505.90
  Z"
/>
<path fill="#1054da" d="
  M 776.50 399.34
  C 781.18 435.16 781.02 470.42 775.64 505.90
  Q 771.94 530.30 764.53 553.55
  Q 750.23 598.39 725.32 638.57
  Q 719.15 648.53 714.51 654.77
  C 705.94 666.31 696.49 678.25 685.53 689.53
  Q 643.44 732.82 589.04 758.45
  Q 557.76 773.19 525.85 779.71
  Q 492.24 786.59 459.41 785.75
  Q 434.16 785.11 404.52 778.81
  C 364.96 770.40 326.47 752.43 294.88 727.85
  C 258.67 699.67 228.81 663.55 208.47 622.51
  C 188.14 581.51 176.59 535.65 174.50 489.25
  Q 173.27 461.96 175.78 435.70
  Q 186.70 321.32 261.38 234.63
  Q 270.80 223.69 283.09 211.70
  C 286.74 208.14 289.40 205.95 294.37 201.62
  Q 326.29 173.77 365.94 155.19
  Q 424.72 127.64 490.25 128.55
  Q 508.52 128.81 520.71 130.41
  C 541.54 133.13 562.81 137.83 582.86 145.62
  Q 616.12 158.56 643.07 177.22
  Q 672.93 197.90 697.73 225.96
  Q 722.97 254.50 742.44 291.98
  C 759.32 324.46 771.66 362.30 776.50 399.34
  Z
  M 774.66 505.99
  C 780.05 470.63 780.23 435.48 775.59 399.78
  C 770.78 362.86 758.51 325.13 741.70 292.75
  Q 722.32 255.38 697.18 226.92
  Q 672.48 198.94 642.73 178.31
  Q 615.88 159.69 582.74 146.77
  C 562.76 139.00 541.56 134.30 520.80 131.58
  Q 508.65 129.97 490.44 129.70
  Q 425.13 128.76 366.52 156.18
  Q 326.99 174.67 295.16 202.41
  C 290.20 206.73 287.55 208.91 283.91 212.45
  Q 271.65 224.40 262.26 235.30
  Q 187.77 321.66 176.82 435.65
  Q 174.30 461.83 175.51 489.03
  C 177.56 535.28 189.05 580.99 209.28 621.87
  C 229.53 662.79 259.27 698.81 295.35 726.92
  C 326.82 751.44 365.17 769.37 404.60 777.78
  Q 434.14 784.07 459.30 784.73
  Q 492.02 785.58 525.53 778.75
  Q 557.34 772.27 588.52 757.60
  Q 642.76 732.08 684.74 688.96
  C 695.67 677.72 705.10 665.83 713.64 654.33
  Q 718.27 648.12 724.43 638.19
  Q 749.28 598.16 763.56 553.47
  Q 770.96 530.31 774.66 505.99
  Z"
/>
<path fill="#000000" d="
  M 774.66 505.99
  Q 770.96 530.31 763.56 553.47
  Q 749.28 598.16 724.43 638.19
  Q 718.27 648.12 713.64 654.33
  C 705.10 665.83 695.67 677.72 684.74 688.96
  Q 642.76 732.08 588.52 757.60
  Q 557.34 772.27 525.53 778.75
  Q 492.02 785.58 459.30 784.73
  Q 434.14 784.07 404.60 777.78
  C 365.17 769.37 326.82 751.44 295.35 726.92
  C 259.27 698.81 229.53 662.79 209.28 621.87
  C 189.05 580.99 177.56 535.28 175.51 489.03
  Q 174.30 461.83 176.82 435.65
  Q 187.77 321.66 262.26 235.30
  Q 271.65 224.40 283.91 212.45
  C 287.55 208.91 290.20 206.73 295.16 202.41
  Q 326.99 174.67 366.52 156.18
  Q 425.13 128.76 490.44 129.70
  Q 508.65 129.97 520.80 131.58
  C 541.56 134.30 562.76 139.00 582.74 146.77
  Q 615.88 159.69 642.73 178.31
  Q 672.48 198.94 697.18 226.92
  Q 722.32 255.38 741.70 292.75
  C 758.51 325.13 770.78 362.86 775.59 399.78
  C 780.23 435.48 780.05 470.63 774.66 505.99
  Z
  M 370.33 754.94
  L 380.42 758.58
  Q 385.53 760.50 393.94 762.81
  Q 421.43 770.38 448.36 772.24
  C 511.07 776.56 573.32 758.76 625.10 723.10
  Q 639.13 713.44 647.73 706.21
  Q 675.01 683.31 698.13 653.62
  Q 706.56 642.80 715.83 627.57
  C 731.22 602.29 742.80 578.10 751.43 550.35
  Q 771.17 486.95 765.58 421.91
  Q 760.69 364.96 738.65 315.16
  C 717.25 266.78 682.44 222.25 638.81 191.08
  L 631.25 186.04
  Q 612.43 173.32 594.36 165.16
  Q 557.27 148.41 514.25 143.19
  Q 465.45 137.28 418.33 150.07
  Q 384.99 159.11 353.27 176.26
  Q 348.46 178.86 338.60 184.99
  Q 315.46 199.36 296.28 217.03
  Q 273.17 238.32 255.22 262.70
  Q 237.33 287.01 222.84 315.86
  Q 209.91 341.61 199.51 376.64
  Q 197.64 382.95 196.74 387.53
  C 195.29 394.85 193.18 402.20 191.97 410.05
  Q 190.27 420.99 190.17 421.69
  C 180.70 486.85 189.24 552.60 217.72 611.78
  C 226.18 629.38 237.06 645.98 247.76 660.78
  C 259.63 677.19 273.68 693.50 289.59 706.63
  Q 303.62 718.21 316.18 726.55
  Q 333.68 738.19 340.65 741.85
  Q 351.86 747.75 365.13 753.36
  Q 367.64 754.41 370.33 754.94
  Z"
/>
<path fill="#05194a" d="
  M 686.53 138.17
  L 686.54 138.16
  A 0.31 0.31 0.0 0 1 686.96 138.05
  Q 693.20 141.81 700.49 145.79
  Q 706.61 149.12 721.64 159.62
  Q 730.59 165.88 745.67 178.59
  C 777.15 205.12 802.79 237.98 822.60 274.67
  C 850.74 326.79 864.76 385.95 865.78 444.76
  Q 866.19 468.26 863.23 497.09
  Q 860.39 524.74 854.40 548.69
  Q 843.92 590.53 825.61 628.39
  Q 817.69 644.76 806.35 663.11
  Q 770.86 720.57 718.62 760.87
  Q 697.50 777.17 675.77 788.75
  Q 664.80 794.59 646.08 802.54
  Q 622.89 812.39 596.63 818.64
  Q 587.69 820.77 581.26 821.65
  C 577.14 822.21 571.97 823.60 567.19 823.95
  A 0.24 0.23 -6.3 0 1 566.93 823.75
  L 566.93 823.74
  A 0.20 0.18 81.7 0 1 567.07 823.53
  Q 573.94 822.01 580.39 819.49
  C 590.41 815.57 603.28 811.19 610.61 807.85
  Q 656.02 787.12 691.77 757.25
  Q 735.08 721.07 765.91 674.17
  Q 772.53 664.10 784.05 643.55
  Q 801.66 612.17 813.24 578.32
  Q 831.70 524.35 834.69 463.02
  Q 836.61 423.44 831.08 386.33
  Q 826.90 358.32 819.69 333.24
  Q 816.72 322.90 812.00 308.89
  Q 808.21 297.61 802.63 285.09
  Q 781.70 238.06 752.33 201.92
  Q 732.14 177.06 700.93 150.20
  Q 698.43 148.05 694.97 144.93
  Q 691.14 141.47 686.65 138.69
  A 0.38 0.38 0.0 0 1 686.53 138.17
  Z"
/>
<path fill="#05194a" d="
  M 631.25 186.04
  Q 626.87 186.50 622.46 183.15
  A 4.35 3.79 72.8 0 0 621.70 182.68
  Q 612.97 178.57 600.82 174.40
  Q 569.70 163.74 541.49 160.08
  C 534.14 159.13 526.01 158.09 518.72 157.89
  Q 491.05 157.12 472.84 159.47
  Q 445.97 162.92 417.61 173.04
  Q 397.56 180.19 379.12 190.61
  Q 358.51 202.25 343.50 213.53
  Q 319.62 231.48 296.83 257.07
  C 256.30 302.59 230.81 360.26 219.74 420.26
  Q 215.59 442.78 214.96 466.98
  Q 214.27 493.84 216.29 514.00
  Q 221.56 566.60 242.80 614.13
  Q 254.97 641.38 273.43 666.91
  Q 292.31 693.02 313.42 713.07
  Q 323.83 722.95 339.22 735.04
  Q 342.71 737.78 355.03 745.88
  L 354.46 745.94
  A 0.38 0.38 0.0 0 0 354.34 746.66
  L 365.28 751.91
  Q 368.35 752.64 370.33 754.94
  Q 367.64 754.41 365.13 753.36
  Q 351.86 747.75 340.65 741.85
  Q 333.68 738.19 316.18 726.55
  Q 303.62 718.21 289.59 706.63
  C 273.68 693.50 259.63 677.19 247.76 660.78
  C 237.06 645.98 226.18 629.38 217.72 611.78
  C 189.24 552.60 180.70 486.85 190.17 421.69
  Q 190.27 420.99 191.97 410.05
  C 193.18 402.20 195.29 394.85 196.74 387.53
  Q 197.64 382.95 199.51 376.64
  Q 209.91 341.61 222.84 315.86
  Q 237.33 287.01 255.22 262.70
  Q 273.17 238.32 296.28 217.03
  Q 315.46 199.36 338.60 184.99
  Q 348.46 178.86 353.27 176.26
  Q 384.99 159.11 418.33 150.07
  Q 465.45 137.28 514.25 143.19
  Q 557.27 148.41 594.36 165.16
  Q 612.43 173.32 631.25 186.04
  Z"
/>
<path fill="#0b3593" d="
  M 631.25 186.04
  L 638.81 191.08
  L 638.49 191.26
  A 0.58 0.57 -42.2 0 0 638.44 192.23
  Q 659.39 206.87 676.72 225.03
  Q 740.31 291.72 758.81 381.62
  Q 760.15 388.15 761.73 398.45
  Q 763.72 411.36 764.09 415.39
  Q 765.40 429.39 766.03 445.23
  C 766.34 453.19 765.67 462.17 765.54 471.32
  C 765.49 474.22 764.82 477.60 764.49 481.00
  Q 760.36 522.75 746.64 561.85
  C 738.41 585.30 727.66 606.58 714.72 627.47
  Q 705.31 642.67 698.84 651.24
  Q 696.15 654.80 692.69 658.83
  C 686.76 665.71 682.32 671.46 676.68 677.29
  Q 667.93 686.33 656.92 696.88
  C 652.42 701.19 646.68 705.34 642.93 708.86
  A 1.94 1.94 0.0 0 1 642.04 709.34
  Q 641.23 709.54 640.98 709.97
  Q 640.60 710.61 637.02 713.26
  Q 621.65 724.66 609.82 731.75
  Q 564.46 758.91 513.04 767.73
  Q 462.83 776.35 411.48 766.07
  C 406.00 764.97 398.73 762.85 392.56 761.45
  Q 389.32 760.71 381.46 757.75
  Q 380.49 757.38 380.42 758.58
  L 370.33 754.94
  Q 368.35 752.64 365.28 751.91
  L 355.03 745.88
  Q 342.71 737.78 339.22 735.04
  Q 323.83 722.95 313.42 713.07
  Q 292.31 693.02 273.43 666.91
  Q 254.97 641.38 242.80 614.13
  Q 221.56 566.60 216.29 514.00
  Q 214.27 493.84 214.96 466.98
  Q 215.59 442.78 219.74 420.26
  C 230.81 360.26 256.30 302.59 296.83 257.07
  Q 319.62 231.48 343.50 213.53
  Q 358.51 202.25 379.12 190.61
  Q 397.56 180.19 417.61 173.04
  Q 445.97 162.92 472.84 159.47
  Q 491.05 157.12 518.72 157.89
  C 526.01 158.09 534.14 159.13 541.49 160.08
  Q 569.70 163.74 600.82 174.40
  Q 612.97 178.57 621.70 182.68
  A 4.35 3.79 72.8 0 1 622.46 183.15
  Q 626.87 186.50 631.25 186.04
  Z
  M 337.17 349.42
  C 337.23 353.17 332.23 359.05 329.78 361.80
  A 3.40 3.38 47.8 0 0 329.58 366.06
  C 330.82 367.74 333.32 368.63 335.77 368.90
  C 337.64 369.10 338.76 369.20 339.23 371.62
  Q 340.25 376.84 343.65 381.08
  C 346.26 384.33 349.48 383.30 351.17 379.88
  Q 353.46 375.25 354.94 369.81
  A 0.86 0.86 0.0 0 1 355.61 369.19
  C 358.34 368.65 361.13 368.58 362.86 366.35
  C 364.77 363.88 363.66 361.90 361.54 359.95
  C 358.14 356.80 354.93 352.35 354.81 347.81
  A 0.88 0.87 89.4 0 1 355.68 346.91
  Q 364.93 346.90 370.46 346.81
  C 373.49 346.76 376.37 347.13 376.55 343.28
  Q 376.65 341.22 376.69 333.98
  A 1.53 1.53 0.0 0 0 375.01 332.45
  L 367.50 333.24
  A 0.69 0.68 -3.9 0 1 366.74 332.58
  C 366.60 327.20 371.37 321.08 375.41 318.22
  C 380.94 314.30 385.33 319.14 384.87 324.73
  Q 384.80 325.52 384.00 329.32
  A 1.31 1.31 0.0 0 0 385.12 330.89
  C 395.34 332.18 403.77 324.84 405.62 314.98
  C 410.01 291.50 383.67 280.08 368.58 298.07
  C 362.83 304.91 360.06 312.76 358.12 321.56
  Q 356.20 330.27 355.96 332.44
  A 1.06 1.04 -83.7 0 1 354.81 333.37
  L 353.81 333.26
  A 1.16 1.15 7.0 0 1 352.79 331.96
  Q 355.04 315.63 357.80 307.51
  Q 365.35 285.28 365.82 283.82
  C 372.58 262.92 361.23 245.09 348.14 229.91
  A 1.79 1.78 48.2 0 0 345.58 229.76
  Q 343.18 231.99 341.19 234.66
  C 331.87 247.14 322.99 263.69 326.57 279.25
  Q 327.95 285.26 333.35 301.14
  Q 338.67 316.81 339.89 332.46
  A 0.91 0.90 -89.0 0 1 338.89 333.43
  L 337.51 333.28
  A 1.33 1.33 0.0 0 1 336.32 332.09
  C 334.90 317.46 331.57 303.25 320.58 294.20
  C 315.25 289.82 306.84 287.63 300.19 290.43
  C 291.98 293.88 287.60 301.46 287.30 310.23
  C 286.90 321.92 295.72 332.19 307.87 330.85
  A 1.51 1.50 85.9 0 0 309.21 329.30
  Q 309.02 324.36 309.01 324.24
  C 308.62 319.64 312.03 316.11 316.68 317.87
  C 322.34 320.01 325.71 327.25 327.04 332.78
  A 0.62 0.62 0.0 0 1 326.37 333.55
  L 318.68 332.73
  A 1.12 1.12 0.0 0 0 317.44 333.84
  L 317.44 344.76
  A 2.22 2.20 14.4 0 0 318.60 346.70
  Q 320.55 347.76 322.27 347.92
  Q 329.34 348.56 336.06 348.36
  A 1.08 1.07 88.4 0 1 337.17 349.42
  Z
  M 660.55 333.23
  A 0.52 0.52 0.0 0 1 659.99 332.59
  Q 661.47 326.36 665.04 321.66
  C 667.83 318.01 674.85 313.83 677.48 319.81
  C 678.80 322.78 677.83 326.24 677.18 329.14
  A 1.55 1.54 6.8 0 0 678.67 331.03
  Q 690.95 331.12 696.62 321.81
  C 704.55 308.79 697.10 290.68 681.66 289.17
  C 673.64 288.38 665.07 293.41 660.66 299.68
  C 654.30 308.75 650.98 321.16 649.83 332.22
  A 1.01 1.00 -87.2 0 1 648.83 333.13
  L 647.61 333.13
  A 0.86 0.85 -89.7 0 1 646.76 332.26
  Q 646.81 329.56 647.34 326.29
  Q 650.58 306.64 658.10 287.76
  Q 664.90 270.67 657.37 253.46
  Q 651.75 240.61 641.73 230.01
  A 2.19 2.18 -46.2 0 0 638.50 230.08
  C 630.25 239.55 623.48 249.89 620.36 262.35
  C 618.37 270.33 619.21 277.36 621.89 285.13
  Q 626.85 299.47 629.33 307.64
  Q 632.48 318.00 633.44 332.12
  A 0.96 0.95 -1.9 0 1 632.48 333.14
  L 631.47 333.14
  A 1.23 1.22 -3.1 0 1 630.25 332.05
  Q 628.43 315.24 623.22 304.87
  C 617.93 294.32 603.75 284.44 591.51 291.53
  Q 580.75 297.76 580.78 310.46
  C 580.80 322.32 589.12 331.88 601.33 330.99
  A 1.58 1.58 0.0 0 0 602.79 329.30
  C 602.45 324.90 601.83 316.93 608.40 317.56
  Q 611.17 317.82 611.89 318.40
  Q 618.73 323.86 620.84 332.54
  A 0.42 0.42 0.0 0 1 620.43 333.06
  L 611.94 333.06
  A 1.17 1.17 0.0 0 0 610.77 334.31
  Q 611.11 339.86 611.05 342.10
  C 610.98 344.68 611.62 346.32 614.13 346.84
  Q 622.02 348.48 630.56 347.65
  A 0.63 0.63 0.0 0 1 631.24 348.35
  C 630.65 353.08 628.09 356.06 624.44 360.43
  C 623.19 361.93 621.81 365.19 623.86 366.70
  Q 626.78 368.86 631.52 368.91
  A 1.58 1.58 0.0 0 1 633.05 370.20
  C 633.71 373.71 637.10 384.48 642.12 383.02
  C 645.73 381.97 648.16 373.63 648.80 370.10
  A 1.56 1.55 2.2 0 1 650.17 368.84
  Q 655.28 368.32 657.30 365.02
  Q 658.58 362.94 656.75 361.19
  C 652.82 357.44 649.35 353.32 648.63 347.97
  A 0.88 0.88 0.0 0 1 649.48 346.97
  Q 651.35 346.91 664.00 346.83
  Q 667.24 346.81 669.15 345.68
  A 2.21 2.20 -15.3 0 0 670.24 343.78
  L 670.24 334.04
  A 1.65 1.65 0.0 0 0 668.42 332.40
  L 660.55 333.23
  Z
  M 574.94 563.94
  Q 586.22 552.70 596.39 537.18
  C 620.52 500.35 626.97 453.75 614.82 411.37
  C 607.01 384.10 589.44 358.79 565.88 342.26
  C 541.13 324.90 511.64 315.67 481.48 317.95
  C 447.72 320.49 416.82 335.78 393.57 360.31
  Q 361.50 394.14 352.57 439.98
  Q 348.39 461.41 350.80 487.48
  C 352.42 505.03 357.95 521.91 365.73 537.32
  C 375.89 557.46 390.97 574.54 410.50 586.37
  Q 446.05 607.90 488.57 604.59
  Q 515.87 602.46 539.91 589.52
  C 552.32 582.84 564.89 573.96 574.94 563.94
  Z
  M 326.85 657.72
  L 318.89 656.87
  A 1.82 1.82 0.0 0 0 316.88 658.65
  Q 316.82 663.52 317.33 668.71
  Q 317.57 671.12 320.15 671.65
  Q 328.36 673.35 336.98 672.71
  A 0.61 0.61 0.0 0 1 337.61 673.48
  Q 336.62 677.11 334.00 681.03
  C 332.74 682.92 329.43 685.45 328.94 688.82
  C 328.44 692.36 334.67 693.06 336.93 693.15
  A 2.05 2.05 0.0 0 1 338.84 694.71
  C 339.82 698.71 342.23 705.36 345.94 706.94
  A 3.06 3.03 -54.5 0 0 349.18 706.38
  C 352.64 703.24 353.61 698.21 354.67 694.31
  A 1.75 1.74 -82.5 0 1 356.34 693.02
  C 362.03 692.97 367.90 688.85 361.57 683.49
  Q 356.50 679.20 354.81 672.60
  A 0.82 0.82 0.0 0 1 355.60 671.57
  L 374.03 671.57
  A 2.67 2.67 0.0 0 0 376.70 668.90
  L 376.70 658.56
  A 1.33 1.32 -0.0 0 0 375.37 657.24
  L 367.52 657.24
  A 0.76 0.75 7.6 0 1 366.79 656.29
  C 368.51 649.90 372.55 641.66 379.95 641.53
  C 386.81 641.41 384.55 651.46 383.55 655.11
  A 0.53 0.53 0.0 0 0 384.01 655.78
  C 402.31 657.60 412.33 638.10 403.67 623.00
  C 399.25 615.28 389.52 611.67 380.78 614.40
  C 363.47 619.80 358.71 640.28 356.24 656.72
  A 1.05 1.05 0.0 0 1 355.20 657.61
  L 353.82 657.61
  A 1.04 1.03 3.9 0 1 352.79 656.44
  Q 354.57 642.78 357.14 634.11
  Q 358.96 627.96 364.88 611.88
  Q 368.85 601.08 367.43 590.37
  C 365.65 577.00 356.60 563.67 347.07 553.50
  A 1.04 1.03 -45.5 0 0 345.54 553.52
  Q 336.57 563.65 330.90 575.14
  Q 322.52 592.09 328.18 609.80
  Q 329.79 614.86 334.62 628.88
  Q 338.31 639.61 339.96 656.67
  A 1.03 1.03 0.0 0 1 338.93 657.80
  L 338.11 657.80
  A 1.36 1.36 0.0 0 1 336.77 656.65
  Q 335.71 649.79 334.51 643.73
  C 332.19 631.93 325.09 616.91 312.06 614.23
  Q 304.36 612.66 298.53 615.61
  C 288.67 620.61 286.78 630.45 288.26 640.62
  C 289.65 650.17 299.68 657.18 309.54 655.80
  A 0.84 0.84 0.0 0 0 310.25 654.87
  C 309.69 650.34 308.92 647.94 310.60 644.57
  Q 312.63 640.47 317.18 642.29
  C 322.78 644.54 325.95 651.89 327.19 657.34
  A 0.31 0.31 0.0 0 1 326.85 657.72
  Z
  M 660.57 657.64
  A 0.62 0.62 0.0 0 1 659.87 656.89
  Q 661.70 648.41 668.11 643.35
  C 672.14 640.18 678.39 641.27 678.06 647.49
  Q 677.88 650.71 676.80 654.25
  A 1.28 1.28 0.0 0 0 678.01 655.90
  C 689.52 656.04 698.28 648.99 699.73 637.71
  C 700.91 628.48 697.69 620.24 689.41 615.58
  Q 682.53 611.71 674.73 614.41
  C 657.63 620.33 651.82 640.54 650.10 656.56
  A 1.15 1.15 0.0 0 1 648.84 657.57
  L 647.66 657.45
  A 1.20 1.20 0.0 0 1 646.60 656.13
  Q 648.19 641.72 652.10 629.36
  Q 654.60 621.48 656.95 615.02
  Q 660.16 606.18 660.82 600.47
  C 662.72 583.92 653.04 565.64 641.40 554.05
  A 2.34 2.33 55.6 0 0 638.81 553.56
  Q 638.72 553.60 638.11 554.36
  C 629.76 564.61 622.79 574.83 619.89 587.88
  C 618.06 596.07 619.88 603.49 622.57 611.44
  Q 626.27 622.36 628.24 628.64
  Q 630.06 634.44 630.78 638.15
  C 632.27 645.81 633.18 650.07 633.18 656.97
  A 0.91 0.91 0.0 0 1 632.17 657.88
  L 630.99 657.75
  A 0.93 0.93 0.0 0 1 630.16 656.92
  Q 629.11 647.13 626.51 637.86
  C 622.25 622.62 609.27 608.82 592.60 615.41
  C 583.24 619.12 579.96 629.26 581.23 638.50
  C 582.71 649.24 591.39 655.99 602.28 655.96
  A 1.58 1.58 0.0 0 0 603.82 654.01
  C 602.88 650.17 602.02 643.11 606.75 641.83
  C 608.64 641.32 611.92 642.38 613.19 643.64
  Q 618.76 649.18 620.48 657.33
  A 0.49 0.48 86.9 0 1 619.96 657.92
  L 612.41 657.11
  A 1.94 1.94 0.0 0 0 610.27 658.97
  Q 610.09 663.83 610.83 669.18
  Q 611.14 671.39 613.13 671.72
  Q 621.23 673.05 630.28 672.62
  A 0.86 0.85 -85.8 0 1 631.16 673.65
  C 630.09 678.72 626.48 682.67 622.95 686.71
  A 2.85 2.53 -43.9 0 0 622.68 690.10
  C 624.52 692.51 628.22 693.03 631.53 693.73
  A 1.31 1.31 0.0 0 1 632.53 694.69
  C 633.57 698.85 634.83 703.61 638.81 706.21
  C 644.13 709.67 647.38 696.96 648.06 694.04
  A 1.07 1.06 -84.0 0 1 649.07 693.22
  Q 653.89 693.07 656.06 690.59
  Q 658.26 688.06 656.22 685.76
  C 652.52 681.60 649.29 678.51 648.07 672.69
  A 0.68 0.68 0.0 0 1 648.73 671.86
  Q 659.10 671.81 665.51 671.49
  Q 669.69 671.28 670.04 669.15
  C 670.54 666.09 670.54 662.80 670.56 659.48
  Q 670.58 656.58 667.50 656.88
  Q 662.95 657.31 660.57 657.64
  Z"
/>
<path fill="#1054da" d="
  M 380.42 758.58
  Q 380.49 757.38 381.46 757.75
  Q 389.32 760.71 392.56 761.45
  C 398.73 762.85 406.00 764.97 411.48 766.07
  Q 462.83 776.35 513.04 767.73
  Q 564.46 758.91 609.82 731.75
  Q 621.65 724.66 637.02 713.26
  Q 640.60 710.61 640.98 709.97
  Q 641.23 709.54 642.04 709.34
  A 1.94 1.94 0.0 0 0 642.93 708.86
  C 646.68 705.34 652.42 701.19 656.92 696.88
  Q 667.93 686.33 676.68 677.29
  C 682.32 671.46 686.76 665.71 692.69 658.83
  Q 696.15 654.80 698.84 651.24
  Q 705.31 642.67 714.72 627.47
  C 727.66 606.58 738.41 585.30 746.64 561.85
  Q 760.36 522.75 764.49 481.00
  C 764.82 477.60 765.49 474.22 765.54 471.32
  C 765.67 462.17 766.34 453.19 766.03 445.23
  Q 765.40 429.39 764.09 415.39
  Q 763.72 411.36 761.73 398.45
  Q 760.15 388.15 758.81 381.62
  Q 740.31 291.72 676.72 225.03
  Q 659.39 206.87 638.44 192.23
  A 0.58 0.57 -42.2 0 1 638.49 191.26
  L 638.81 191.08
  C 682.44 222.25 717.25 266.78 738.65 315.16
  Q 760.69 364.96 765.58 421.91
  Q 771.17 486.95 751.43 550.35
  C 742.80 578.10 731.22 602.29 715.83 627.57
  Q 706.56 642.80 698.13 653.62
  Q 675.01 683.31 647.73 706.21
  Q 639.13 713.44 625.10 723.10
  C 573.32 758.76 511.07 776.56 448.36 772.24
  Q 421.43 770.38 393.94 762.81
  Q 385.53 760.50 380.42 758.58
  Z"
/>
<path fill="#000000" d="
  M 337.17 349.42
  A 1.08 1.07 88.4 0 0 336.06 348.36
  Q 329.34 348.56 322.27 347.92
  Q 320.55 347.76 318.60 346.70
  A 2.22 2.20 14.4 0 1 317.44 344.76
  L 317.44 333.84
  A 1.12 1.12 0.0 0 1 318.68 332.73
  L 326.37 333.55
  A 0.62 0.62 0.0 0 0 327.04 332.78
  C 325.71 327.25 322.34 320.01 316.68 317.87
  C 312.03 316.11 308.62 319.64 309.01 324.24
  Q 309.02 324.36 309.21 329.30
  A 1.51 1.50 85.9 0 1 307.87 330.85
  C 295.72 332.19 286.90 321.92 287.30 310.23
  C 287.60 301.46 291.98 293.88 300.19 290.43
  C 306.84 287.63 315.25 289.82 320.58 294.20
  C 331.57 303.25 334.90 317.46 336.32 332.09
  A 1.33 1.33 0.0 0 0 337.51 333.28
  L 338.89 333.43
  A 0.91 0.90 -89.0 0 0 339.89 332.46
  Q 338.67 316.81 333.35 301.14
  Q 327.95 285.26 326.57 279.25
  C 322.99 263.69 331.87 247.14 341.19 234.66
  Q 343.18 231.99 345.58 229.76
  A 1.79 1.78 48.2 0 1 348.14 229.91
  C 361.23 245.09 372.58 262.92 365.82 283.82
  Q 365.35 285.28 357.80 307.51
  Q 355.04 315.63 352.79 331.96
  A 1.16 1.15 7.0 0 0 353.81 333.26
  L 354.81 333.37
  A 1.06 1.04 -83.7 0 0 355.96 332.44
  Q 356.20 330.27 358.12 321.56
  C 360.06 312.76 362.83 304.91 368.58 298.07
  C 383.67 280.08 410.01 291.50 405.62 314.98
  C 403.77 324.84 395.34 332.18 385.12 330.89
  A 1.31 1.31 0.0 0 1 384.00 329.32
  Q 384.80 325.52 384.87 324.73
  C 385.33 319.14 380.94 314.30 375.41 318.22
  C 371.37 321.08 366.60 327.20 366.74 332.58
  A 0.69 0.68 -3.9 0 0 367.50 333.24
  L 375.01 332.45
  A 1.53 1.53 0.0 0 1 376.69 333.98
  Q 376.65 341.22 376.55 343.28
  C 376.37 347.13 373.49 346.76 370.46 346.81
  Q 364.93 346.90 355.68 346.91
  A 0.88 0.87 89.4 0 0 354.81 347.81
  C 354.93 352.35 358.14 356.80 361.54 359.95
  C 363.66 361.90 364.77 363.88 362.86 366.35
  C 361.13 368.58 358.34 368.65 355.61 369.19
  A 0.86 0.86 0.0 0 0 354.94 369.81
  Q 353.46 375.25 351.17 379.88
  C 349.48 383.30 346.26 384.33 343.65 381.08
  Q 340.25 376.84 339.23 371.62
  C 338.76 369.20 337.64 369.10 335.77 368.90
  C 333.32 368.63 330.82 367.74 329.58 366.06
  A 3.40 3.38 47.8 0 1 329.78 361.80
  C 332.23 359.05 337.23 353.17 337.17 349.42
  Z
  M 318.95 334.83
  L 318.95 343.63
  A 2.53 2.52 4.5 0 0 321.08 346.12
  Q 329.75 347.47 339.10 346.65
  A 0.37 0.37 0.0 0 1 339.50 347.07
  C 338.70 353.74 334.76 357.92 330.78 362.92
  A 1.87 1.87 0.0 0 0 331.01 365.49
  C 332.72 366.98 336.86 367.69 339.18 367.91
  A 0.82 0.80 -4.8 0 1 339.87 368.48
  C 341.32 373.31 342.27 377.80 346.22 381.23
  A 1.63 1.63 0.0 0 0 348.65 380.90
  Q 352.61 374.93 353.19 368.27
  A 0.78 0.77 -1.9 0 1 353.85 367.57
  C 356.04 367.27 362.04 367.57 362.13 364.33
  Q 362.18 362.43 360.87 361.34
  Q 353.42 355.15 352.46 345.62
  A 0.37 0.36 -2.8 0 1 352.83 345.22
  L 373.99 345.22
  A 1.17 1.17 0.0 0 0 375.16 344.05
  L 375.16 334.98
  A 0.78 0.78 0.0 0 0 374.30 334.20
  L 366.05 335.07
  A 1.31 1.30 -1.1 0 1 364.61 333.69
  C 364.94 328.22 368.41 322.26 372.20 318.70
  C 381.27 310.16 389.13 318.99 385.65 328.86
  A 0.60 0.60 0.0 0 0 386.26 329.66
  Q 402.53 328.55 404.31 312.32
  Q 405.15 304.66 401.47 298.99
  C 396.56 291.44 386.35 288.94 378.33 292.58
  C 363.65 299.25 359.19 319.37 357.84 333.56
  A 1.61 1.60 2.5 0 1 356.24 335.02
  L 352.34 335.02
  A 1.41 1.41 0.0 0 1 350.94 333.47
  Q 352.82 315.11 358.73 299.19
  Q 362.44 289.20 364.47 282.73
  C 370.36 263.94 360.07 245.48 346.95 231.32
  A 0.58 0.58 0.0 0 0 346.09 231.34
  Q 337.79 241.08 332.52 251.80
  Q 324.17 268.77 330.11 286.36
  C 336.18 304.35 340.69 316.81 341.52 333.91
  A 1.00 0.99 88.6 0 1 340.53 334.96
  L 336.22 334.96
  A 1.14 1.14 0.0 0 1 335.09 333.96
  C 333.28 319.67 328.99 295.82 312.05 291.66
  Q 301.32 289.02 294.43 296.10
  C 289.62 301.03 287.98 309.68 289.73 316.11
  Q 293.18 328.81 306.75 329.76
  A 0.79 0.79 0.0 0 0 307.59 328.87
  C 306.92 323.67 307.10 315.74 314.46 315.81
  C 319.79 315.85 324.26 321.28 326.41 325.89
  Q 328.09 329.50 328.83 334.50
  A 0.65 0.65 0.0 0 1 328.12 335.24
  L 319.52 334.32
  A 0.52 0.51 3.0 0 0 318.95 334.83
  Z"
/>
<path fill="#000000" d="
  M 660.55 333.23
  L 668.42 332.40
  A 1.65 1.65 0.0 0 1 670.24 334.04
  L 670.24 343.78
  A 2.21 2.20 -15.3 0 1 669.15 345.68
  Q 667.24 346.81 664.00 346.83
  Q 651.35 346.91 649.48 346.97
  A 0.88 0.88 0.0 0 0 648.63 347.97
  C 649.35 353.32 652.82 357.44 656.75 361.19
  Q 658.58 362.94 657.30 365.02
  Q 655.28 368.32 650.17 368.84
  A 1.56 1.55 2.2 0 0 648.80 370.10
  C 648.16 373.63 645.73 381.97 642.12 383.02
  C 637.10 384.48 633.71 373.71 633.05 370.20
  A 1.58 1.58 0.0 0 0 631.52 368.91
  Q 626.78 368.86 623.86 366.70
  C 621.81 365.19 623.19 361.93 624.44 360.43
  C 628.09 356.06 630.65 353.08 631.24 348.35
  A 0.63 0.63 0.0 0 0 630.56 347.65
  Q 622.02 348.48 614.13 346.84
  C 611.62 346.32 610.98 344.68 611.05 342.10
  Q 611.11 339.86 610.77 334.31
  A 1.17 1.17 0.0 0 1 611.94 333.06
  L 620.43 333.06
  A 0.42 0.42 0.0 0 0 620.84 332.54
  Q 618.73 323.86 611.89 318.40
  Q 611.17 317.82 608.40 317.56
  C 601.83 316.93 602.45 324.90 602.79 329.30
  A 1.58 1.58 0.0 0 1 601.33 330.99
  C 589.12 331.88 580.80 322.32 580.78 310.46
  Q 580.75 297.76 591.51 291.53
  C 603.75 284.44 617.93 294.32 623.22 304.87
  Q 628.43 315.24 630.25 332.05
  A 1.23 1.22 -3.1 0 0 631.47 333.14
  L 632.48 333.14
  A 0.96 0.95 -1.9 0 0 633.44 332.12
  Q 632.48 318.00 629.33 307.64
  Q 626.85 299.47 621.89 285.13
  C 619.21 277.36 618.37 270.33 620.36 262.35
  C 623.48 249.89 630.25 239.55 638.50 230.08
  A 2.19 2.18 -46.2 0 1 641.73 230.01
  Q 651.75 240.61 657.37 253.46
  Q 664.90 270.67 658.10 287.76
  Q 650.58 306.64 647.34 326.29
  Q 646.81 329.56 646.76 332.26
  A 0.86 0.85 -89.7 0 0 647.61 333.13
  L 648.83 333.13
  A 1.01 1.00 -87.2 0 0 649.83 332.22
  C 650.98 321.16 654.30 308.75 660.66 299.68
  C 665.07 293.41 673.64 288.38 681.66 289.17
  C 697.10 290.68 704.55 308.79 696.62 321.81
  Q 690.95 331.12 678.67 331.03
  A 1.55 1.54 6.8 0 1 677.18 329.14
  C 677.83 326.24 678.80 322.78 677.48 319.81
  C 674.85 313.83 667.83 318.01 665.04 321.66
  Q 661.47 326.36 659.99 332.59
  A 0.52 0.52 0.0 0 0 660.55 333.23
  Z
  M 679.02 328.59
  A 0.78 0.78 0.0 0 0 679.84 329.62
  Q 694.17 328.23 697.45 315.72
  C 698.80 310.54 697.77 303.76 695.05 299.25
  C 690.80 292.19 683.74 289.88 675.65 291.37
  C 667.83 292.82 660.94 300.35 657.87 307.40
  Q 652.73 319.17 651.73 333.27
  A 1.82 1.81 2.0 0 1 649.92 334.95
  L 646.55 334.95
  A 1.62 1.61 -89.0 0 1 644.94 333.27
  Q 645.13 327.97 645.68 324.88
  Q 648.62 308.28 654.51 292.65
  C 658.29 282.60 660.64 275.22 659.31 266.50
  C 657.31 253.30 649.85 241.26 640.78 231.19
  A 0.58 0.58 0.0 0 0 639.93 231.18
  Q 631.07 240.82 625.62 252.11
  Q 619.66 264.44 621.55 277.25
  Q 622.18 281.56 625.71 291.35
  Q 628.96 300.36 630.47 305.30
  Q 634.77 319.33 635.15 333.34
  A 1.61 1.61 0.0 0 1 633.54 335.00
  L 630.47 335.00
  A 1.88 1.88 0.0 0 1 628.60 333.28
  Q 627.66 322.42 624.32 312.08
  Q 622.41 306.15 619.59 302.19
  C 613.44 293.51 602.99 287.91 592.88 292.70
  C 587.61 295.19 583.57 300.61 582.61 306.10
  C 581.56 312.09 583.17 319.97 587.52 324.30
  Q 592.51 329.27 600.29 329.74
  A 0.81 0.80 -2.0 0 0 601.14 328.83
  C 600.54 324.43 600.54 317.20 606.00 316.07
  C 611.05 315.03 613.85 317.56 617.07 321.35
  Q 621.78 326.90 622.66 334.56
  A 0.58 0.57 -0.4 0 1 622.03 335.19
  L 612.85 334.21
  A 0.43 0.42 3.1 0 0 612.38 334.63
  L 612.38 343.58
  A 1.35 1.35 0.0 0 0 613.30 344.86
  C 619.25 346.81 628.69 345.97 632.73 346.08
  A 0.45 0.44 2.0 0 1 633.16 346.53
  C 632.99 353.08 629.11 357.31 624.76 362.43
  A 2.42 2.42 0.0 0 0 624.72 365.52
  Q 625.03 365.91 627.13 366.67
  Q 627.66 366.86 633.13 367.62
  A 1.51 1.51 0.0 0 1 634.42 368.89
  Q 635.49 375.99 639.94 381.42
  A 1.40 1.40 0.0 0 0 641.97 381.56
  C 645.21 378.56 646.72 372.70 647.21 368.48
  A 0.77 0.76 86.2 0 1 647.78 367.82
  C 650.31 367.19 653.56 366.90 655.32 365.32
  A 2.31 2.31 0.0 0 0 655.44 362.02
  C 650.34 356.64 647.32 352.91 646.18 345.83
  A 0.53 0.53 0.0 0 1 646.70 345.21
  L 666.96 345.21
  A 1.77 1.76 -0.0 0 0 668.73 343.45
  L 668.73 334.69
  A 0.65 0.64 -3.2 0 0 668.01 334.05
  L 658.91 335.00
  A 0.69 0.69 0.0 0 1 658.15 334.23
  C 658.92 327.04 663.59 317.94 670.86 315.63
  C 679.34 312.92 680.94 322.86 679.02 328.59
  Z"
/>
<path fill="#fafafa" d="
  M 679.02 328.59
  C 680.94 322.86 679.34 312.92 670.86 315.63
  C 663.59 317.94 658.92 327.04 658.15 334.23
  A 0.69 0.69 0.0 0 0 658.91 335.00
  L 668.01 334.05
  A 0.65 0.64 -3.2 0 1 668.73 334.69
  L 668.73 343.45
  A 1.77 1.76 0.0 0 1 666.96 345.21
  L 646.70 345.21
  A 0.53 0.53 0.0 0 0 646.18 345.83
  C 647.32 352.91 650.34 356.64 655.44 362.02
  A 2.31 2.31 0.0 0 1 655.32 365.32
  C 653.56 366.90 650.31 367.19 647.78 367.82
  A 0.77 0.76 86.2 0 0 647.21 368.48
  C 646.72 372.70 645.21 378.56 641.97 381.56
  A 1.40 1.40 0.0 0 1 639.94 381.42
  Q 635.49 375.99 634.42 368.89
  A 1.51 1.51 0.0 0 0 633.13 367.62
  Q 627.66 366.86 627.13 366.67
  Q 625.03 365.91 624.72 365.52
  A 2.42 2.42 0.0 0 1 624.76 362.43
  C 629.11 357.31 632.99 353.08 633.16 346.53
  A 0.45 0.44 2.0 0 0 632.73 346.08
  C 628.69 345.97 619.25 346.81 613.30 344.86
  A 1.35 1.35 0.0 0 1 612.38 343.58
  L 612.38 334.63
  A 0.43 0.42 3.1 0 1 612.85 334.21
  L 622.03 335.19
  A 0.58 0.57 -0.4 0 0 622.66 334.56
  Q 621.78 326.90 617.07 321.35
  C 613.85 317.56 611.05 315.03 606.00 316.07
  C 600.54 317.20 600.54 324.43 601.14 328.83
  A 0.81 0.80 -2.0 0 1 600.29 329.74
  Q 592.51 329.27 587.52 324.30
  C 583.17 319.97 581.56 312.09 582.61 306.10
  C 583.57 300.61 587.61 295.19 592.88 292.70
  C 602.99 287.91 613.44 293.51 619.59 302.19
  Q 622.41 306.15 624.32 312.08
  Q 627.66 322.42 628.60 333.28
  A 1.88 1.88 0.0 0 0 630.47 335.00
  L 633.54 335.00
  A 1.61 1.61 0.0 0 0 635.15 333.34
  Q 634.77 319.33 630.47 305.30
  Q 628.96 300.36 625.71 291.35
  Q 622.18 281.56 621.55 277.25
  Q 619.66 264.44 625.62 252.11
  Q 631.07 240.82 639.93 231.18
  A 0.58 0.58 0.0 0 1 640.78 231.19
  C 649.85 241.26 657.31 253.30 659.31 266.50
  C 660.64 275.22 658.29 282.60 654.51 292.65
  Q 648.62 308.28 645.68 324.88
  Q 645.13 327.97 644.94 333.27
  A 1.62 1.61 -89.0 0 0 646.55 334.95
  L 649.92 334.95
  A 1.82 1.81 2.0 0 0 651.73 333.27
  Q 652.73 319.17 657.87 307.40
  C 660.94 300.35 667.83 292.82 675.65 291.37
  C 683.74 289.88 690.80 292.19 695.05 299.25
  C 697.77 303.76 698.80 310.54 697.45 315.72
  Q 694.17 328.23 679.84 329.62
  A 0.78 0.78 0.0 0 1 679.02 328.59
  Z"
/>
<path fill="#fafafa" d="
  M 318.95 334.83
  A 0.52 0.51 3.0 0 1 319.52 334.32
  L 328.12 335.24
  A 0.65 0.65 0.0 0 0 328.83 334.50
  Q 328.09 329.50 326.41 325.89
  C 324.26 321.28 319.79 315.85 314.46 315.81
  C 307.10 315.74 306.92 323.67 307.59 328.87
  A 0.79 0.79 0.0 0 1 306.75 329.76
  Q 293.18 328.81 289.73 316.11
  C 287.98 309.68 289.62 301.03 294.43 296.10
  Q 301.32 289.02 312.05 291.66
  C 328.99 295.82 333.28 319.67 335.09 333.96
  A 1.14 1.14 0.0 0 0 336.22 334.96
  L 340.53 334.96
  A 1.00 0.99 88.6 0 0 341.52 333.91
  C 340.69 316.81 336.18 304.35 330.11 286.36
  Q 324.17 268.77 332.52 251.80
  Q 337.79 241.08 346.09 231.34
  A 0.58 0.58 0.0 0 1 346.95 231.32
  C 360.07 245.48 370.36 263.94 364.47 282.73
  Q 362.44 289.20 358.73 299.19
  Q 352.82 315.11 350.94 333.47
  A 1.41 1.41 0.0 0 0 352.34 335.02
  L 356.24 335.02
  A 1.61 1.60 2.5 0 0 357.84 333.56
  C 359.19 319.37 363.65 299.25 378.33 292.58
  C 386.35 288.94 396.56 291.44 401.47 298.99
  Q 405.15 304.66 404.31 312.32
  Q 402.53 328.55 386.26 329.66
  A 0.60 0.60 0.0 0 1 385.65 328.86
  C 389.13 318.99 381.27 310.16 372.20 318.70
  C 368.41 322.26 364.94 328.22 364.61 333.69
  A 1.31 1.30 -1.1 0 0 366.05 335.07
  L 374.30 334.20
  A 0.78 0.78 0.0 0 1 375.16 334.98
  L 375.16 344.05
  A 1.17 1.17 0.0 0 1 373.99 345.22
  L 352.83 345.22
  A 0.37 0.36 -2.8 0 0 352.46 345.62
  Q 353.42 355.15 360.87 361.34
  Q 362.18 362.43 362.13 364.33
  C 362.04 367.57 356.04 367.27 353.85 367.57
  A 0.78 0.77 -1.9 0 0 353.19 368.27
  Q 352.61 374.93 348.65 380.90
  A 1.63 1.63 0.0 0 1 346.22 381.23
  C 342.27 377.80 341.32 373.31 339.87 368.48
  A 0.82 0.80 -4.8 0 0 339.18 367.91
  C 336.86 367.69 332.72 366.98 331.01 365.49
  A 1.87 1.87 0.0 0 1 330.78 362.92
  C 334.76 357.92 338.70 353.74 339.50 347.07
  A 0.37 0.37 0.0 0 0 339.10 346.65
  Q 329.75 347.47 321.08 346.12
  A 2.53 2.52 4.5 0 1 318.95 343.63
  L 318.95 334.83
  Z"
/>
<path fill="#1054da" d="
  M 574.94 563.94
  C 564.89 573.96 552.32 582.84 539.91 589.52
  Q 515.87 602.46 488.57 604.59
  Q 446.05 607.90 410.50 586.37
  C 390.97 574.54 375.89 557.46 365.73 537.32
  C 357.95 521.91 352.42 505.03 350.80 487.48
  Q 348.39 461.41 352.57 439.98
  Q 361.50 394.14 393.57 360.31
  C 416.82 335.78 447.72 320.49 481.48 317.95
  C 511.64 315.67 541.13 324.90 565.88 342.26
  C 589.44 358.79 607.01 384.10 614.82 411.37
  C 626.97 453.75 620.52 500.35 596.39 537.18
  Q 586.22 552.70 574.94 563.94
  Z
  M 574.05 563.41
  Q 585.27 552.28 595.40 536.90
  C 619.44 500.39 625.96 454.14 613.99 412.04
  C 606.30 384.95 588.92 359.78 565.56 343.31
  C 541.03 326.02 511.78 316.79 481.83 318.98
  C 448.31 321.43 417.60 336.54 394.46 360.84
  Q 362.54 394.35 353.57 439.84
  Q 349.37 461.10 351.70 486.99
  C 353.27 504.42 358.72 521.19 366.41 536.50
  C 376.45 556.52 391.38 573.51 410.74 585.30
  Q 445.99 606.76 488.21 603.57
  Q 515.31 601.52 539.21 588.73
  C 551.55 582.13 564.05 573.34 574.05 563.41
  Z"
/>
<path fill="#000000" d="
  M 574.05 563.41
  C 564.05 573.34 551.55 582.13 539.21 588.73
  Q 515.31 601.52 488.21 603.57
  Q 445.99 606.76 410.74 585.30
  C 391.38 573.51 376.45 556.52 366.41 536.50
  C 358.72 521.19 353.27 504.42 351.70 486.99
  Q 349.37 461.10 353.57 439.84
  Q 362.54 394.35 394.46 360.84
  C 417.60 336.54 448.31 321.43 481.83 318.98
  C 511.78 316.79 541.03 326.02 565.56 343.31
  C 588.92 359.78 606.30 384.95 613.99 412.04
  C 625.96 454.14 619.44 500.39 595.40 536.90
  Q 585.27 552.28 574.05 563.41
  Z
  M 512.60 578.11
  Q 522.14 574.44 529.47 570.22
  Q 547.20 560.00 561.18 544.97
  Q 588.58 515.54 596.36 476.13
  C 603.68 439.06 594.71 400.21 570.30 370.77
  C 552.59 349.41 526.87 336.04 499.82 333.74
  Q 453.30 329.77 417.09 357.85
  Q 374.20 391.11 364.54 446.07
  Q 363.57 451.55 363.25 459.99
  Q 362.88 469.81 363.09 474.01
  Q 365.12 514.69 388.07 544.95
  Q 409.93 573.77 444.89 582.49
  Q 479.03 591.01 512.60 578.11
  Z"
/>
<path fill="#1054da" d="
  M 512.60 578.11
  Q 479.03 591.01 444.89 582.49
  Q 409.93 573.77 388.07 544.95
  Q 365.12 514.69 363.09 474.01
  Q 362.88 469.81 363.25 459.99
  Q 363.57 451.55 364.54 446.07
  Q 374.20 391.11 417.09 357.85
  Q 453.30 329.77 499.82 333.74
  C 526.87 336.04 552.59 349.41 570.30 370.77
  C 594.71 400.21 603.68 439.06 596.36 476.13
  Q 588.58 515.54 561.18 544.97
  Q 547.20 560.00 529.47 570.22
  Q 522.14 574.44 512.60 578.11
  Z
  M 512.40 577.11
  Q 521.86 573.46 529.13 569.27
  Q 546.71 559.12 560.57 544.21
  Q 587.72 515.00 595.42 475.91
  C 602.65 439.14 593.73 400.61 569.50 371.43
  C 551.92 350.25 526.41 337.01 499.58 334.74
  Q 453.44 330.84 417.54 358.71
  Q 375.02 391.72 365.47 446.24
  Q 364.52 451.67 364.20 460.05
  Q 363.84 469.79 364.05 473.95
  Q 366.09 514.30 388.87 544.29
  Q 410.57 572.87 445.25 581.49
  Q 479.12 589.92 512.40 577.11
  Z"
/>
<path fill="#0b3593" d="
  M 512.40 577.11
  Q 479.12 589.92 445.25 581.49
  Q 410.57 572.87 388.87 544.29
  Q 366.09 514.30 364.05 473.95
  Q 363.84 469.79 364.20 460.05
  Q 364.52 451.67 365.47 446.24
  Q 375.02 391.72 417.54 358.71
  Q 453.44 330.84 499.58 334.74
  C 526.41 337.01 551.92 350.25 569.50 371.43
  C 593.73 400.61 602.65 439.14 595.42 475.91
  Q 587.72 515.00 560.57 544.21
  Q 546.71 559.12 529.13 569.27
  Q 521.86 573.46 512.40 577.11
  Z
  M 549.75 442.31
  Q 545.98 415.35 525.53 395.23
  Q 524.08 393.81 521.38 391.87
  Q 517.98 389.42 517.04 388.78
  Q 493.13 372.56 465.03 378.27
  Q 443.21 382.70 428.44 396.47
  Q 403.86 419.39 399.06 454.30
  Q 398.16 460.83 398.52 468.09
  Q 398.93 476.20 399.97 481.81
  C 403.48 500.74 414.32 519.49 430.39 529.87
  Q 446.43 540.22 466.11 541.28
  Q 484.59 542.28 502.68 533.07
  Q 525.88 521.24 539.28 498.08
  Q 549.03 481.23 550.29 463.26
  Q 551.09 451.92 549.75 442.31
  Z"
/>
<path fill="#1054da" d="
  M 549.75 442.31
  Q 551.09 451.92 550.29 463.26
  Q 549.03 481.23 539.28 498.08
  Q 525.88 521.24 502.68 533.07
  Q 484.59 542.28 466.11 541.28
  Q 446.43 540.22 430.39 529.87
  C 414.32 519.49 403.48 500.74 399.97 481.81
  Q 398.93 476.20 398.52 468.09
  Q 398.16 460.83 399.06 454.30
  Q 403.86 419.39 428.44 396.47
  Q 443.21 382.70 465.03 378.27
  Q 493.13 372.56 517.04 388.78
  Q 517.98 389.42 521.38 391.87
  Q 524.08 393.81 525.53 395.23
  Q 545.98 415.35 549.75 442.31
  Z
  M 404.77 434.48
  Q 397.50 454.81 400.05 476.57
  C 403.17 503.13 420.99 528.53 447.23 536.73
  Q 474.14 545.15 499.89 533.42
  C 520.53 524.02 537.07 505.47 544.58 484.47
  C 552.09 463.46 551.06 438.63 541.06 418.27
  Q 528.58 392.88 502.43 382.33
  C 476.94 372.03 447.06 380.38 427.80 398.94
  Q 412.03 414.15 404.77 434.48
  Z"
/>
<path fill="#000000" d="
  M 544.58 484.47
  C 537.07 505.47 520.53 524.02 499.89 533.42
  Q 474.14 545.15 447.23 536.73
  C 420.99 528.53 403.17 503.13 400.05 476.57
  Q 397.50 454.81 404.77 434.48
  Q 412.03 414.15 427.80 398.94
  C 447.06 380.38 476.94 372.03 502.43 382.33
  Q 528.58 392.88 541.06 418.27
  C 551.06 438.63 552.09 463.46 544.58 484.47
  Z
  M 464.31 524.41
  C 451.47 511.03 443.42 493.42 442.73 474.71
  Q 441.56 443.11 460.93 420.62
  C 471.14 408.76 484.32 401.02 499.70 399.78
  A 0.58 0.57 -33.2 0 0 499.93 398.70
  Q 480.66 388.43 459.77 395.31
  Q 451.27 398.10 443.83 403.60
  C 425.56 417.11 414.77 437.48 413.95 460.19
  C 413.28 478.67 419.71 498.89 433.28 511.80
  Q 439.85 518.04 449.89 521.43
  Q 458.89 524.47 464.07 524.90
  A 0.29 0.29 0.0 0 0 464.31 524.41
  Z
  M 464.38 497.71
  Q 468.24 507.20 475.18 514.54
  Q 479.44 519.05 484.84 520.74
  A 2.29 2.25 45.5 0 0 486.06 520.76
  Q 503.05 516.33 514.43 503.95
  Q 538.50 477.77 532.60 442.18
  Q 530.54 429.76 523.07 418.79
  C 521.48 416.45 519.95 414.19 517.38 413.14
  C 507.24 408.97 493.76 414.42 485.10 420.03
  Q 476.35 425.70 470.05 435.14
  Q 460.58 449.33 459.24 467.20
  C 458.43 477.87 460.60 488.41 464.38 497.71
  Z"
/>
<path fill="#05194a" d="
  M 464.07 524.90
  Q 458.89 524.47 449.89 521.43
  Q 439.85 518.04 433.28 511.80
  C 419.71 498.89 413.28 478.67 413.95 460.19
  C 414.77 437.48 425.56 417.11 443.83 403.60
  Q 451.27 398.10 459.77 395.31
  Q 480.66 388.43 499.93 398.70
  A 0.58 0.57 -33.2 0 1 499.70 399.78
  C 484.32 401.02 471.14 408.76 460.93 420.62
  Q 441.56 443.11 442.73 474.71
  C 443.42 493.42 451.47 511.03 464.31 524.41
  A 0.29 0.29 0.0 0 1 464.07 524.90
  Z"
/>
<path fill="#000000" d="
  M 326.85 657.72
  A 0.31 0.31 0.0 0 0 327.19 657.34
  C 325.95 651.89 322.78 644.54 317.18 642.29
  Q 312.63 640.47 310.60 644.57
  C 308.92 647.94 309.69 650.34 310.25 654.87
  A 0.84 0.84 0.0 0 1 309.54 655.80
  C 299.68 657.18 289.65 650.17 288.26 640.62
  C 286.78 630.45 288.67 620.61 298.53 615.61
  Q 304.36 612.66 312.06 614.23
  C 325.09 616.91 332.19 631.93 334.51 643.73
  Q 335.71 649.79 336.77 656.65
  A 1.36 1.36 0.0 0 0 338.11 657.80
  L 338.93 657.80
  A 1.03 1.03 0.0 0 0 339.96 656.67
  Q 338.31 639.61 334.62 628.88
  Q 329.79 614.86 328.18 609.80
  Q 322.52 592.09 330.90 575.14
  Q 336.57 563.65 345.54 553.52
  A 1.04 1.03 -45.5 0 1 347.07 553.50
  C 356.60 563.67 365.65 577.00 367.43 590.37
  Q 368.85 601.08 364.88 611.88
  Q 358.96 627.96 357.14 634.11
  Q 354.57 642.78 352.79 656.44
  A 1.04 1.03 3.9 0 0 353.82 657.61
  L 355.20 657.61
  A 1.05 1.05 0.0 0 0 356.24 656.72
  C 358.71 640.28 363.47 619.80 380.78 614.40
  C 389.52 611.67 399.25 615.28 403.67 623.00
  C 412.33 638.10 402.31 657.60 384.01 655.78
  A 0.53 0.53 0.0 0 1 383.55 655.11
  C 384.55 651.46 386.81 641.41 379.95 641.53
  C 372.55 641.66 368.51 649.90 366.79 656.29
  A 0.76 0.75 7.6 0 0 367.52 657.24
  L 375.37 657.24
  A 1.33 1.32 0.0 0 1 376.70 658.56
  L 376.70 668.90
  A 2.67 2.67 0.0 0 1 374.03 671.57
  L 355.60 671.57
  A 0.82 0.82 0.0 0 0 354.81 672.60
  Q 356.50 679.20 361.57 683.49
  C 367.90 688.85 362.03 692.97 356.34 693.02
  A 1.75 1.74 -82.5 0 0 354.67 694.31
  C 353.61 698.21 352.64 703.24 349.18 706.38
  A 3.06 3.03 -54.5 0 1 345.94 706.94
  C 342.23 705.36 339.82 698.71 338.84 694.71
  A 2.05 2.05 0.0 0 0 336.93 693.15
  C 334.67 693.06 328.44 692.36 328.94 688.82
  C 329.43 685.45 332.74 682.92 334.00 681.03
  Q 336.62 677.11 337.61 673.48
  A 0.61 0.61 0.0 0 0 336.98 672.71
  Q 328.36 673.35 320.15 671.65
  Q 317.57 671.12 317.33 668.71
  Q 316.82 663.52 316.88 658.65
  A 1.82 1.82 0.0 0 1 318.89 656.87
  L 326.85 657.72
  Z
  M 339.90 671.51
  Q 337.96 679.74 332.24 685.46
  Q 331.13 686.57 330.39 688.42
  A 1.69 1.68 16.0 0 0 331.66 690.70
  L 339.26 692.08
  A 0.94 0.94 0.0 0 1 340.01 692.83
  Q 341.28 699.50 345.45 705.04
  A 1.81 1.80 -38.3 0 0 348.06 705.34
  C 351.33 702.60 352.45 696.64 353.12 692.78
  A 0.86 0.85 88.5 0 1 353.76 692.10
  C 356.45 691.47 359.94 691.56 362.28 689.45
  A 2.09 2.09 0.0 0 0 362.38 686.45
  Q 359.14 683.12 358.64 682.62
  Q 353.75 677.82 352.89 670.92
  A 0.85 0.85 0.0 0 1 353.73 669.96
  L 373.87 669.96
  A 1.43 1.43 0.0 0 0 375.30 668.53
  L 375.30 659.23
  A 0.24 0.24 0.0 0 0 375.06 658.99
  L 365.33 658.99
  A 0.50 0.50 0.0 0 1 364.84 658.42
  Q 366.33 647.47 374.04 641.72
  Q 376.20 640.11 378.90 639.88
  C 386.96 639.20 387.28 648.23 385.28 653.45
  A 0.77 0.77 0.0 0 0 386.05 654.49
  Q 402.85 653.28 404.99 636.73
  C 405.78 630.64 403.03 622.23 397.63 618.57
  C 391.35 614.32 383.78 614.04 377.09 617.61
  C 363.32 624.96 359.39 644.05 357.98 658.05
  A 1.29 1.29 0.0 0 1 356.70 659.21
  L 352.07 659.21
  A 1.07 1.07 0.0 0 1 351.00 658.05
  Q 352.53 640.08 358.80 623.55
  Q 364.15 609.48 365.03 605.57
  Q 368.30 591.03 361.66 577.31
  Q 355.82 565.24 346.75 555.58
  A 0.56 0.55 44.0 0 0 345.93 555.59
  C 332.61 570.81 323.46 588.91 329.84 609.39
  Q 331.56 614.90 335.15 625.11
  Q 341.00 641.76 341.65 658.73
  A 0.60 0.59 -0.9 0 1 341.05 659.34
  L 336.18 659.34
  A 0.96 0.95 -4.6 0 1 335.23 658.54
  C 333.16 645.05 331.49 633.42 323.46 623.27
  C 316.22 614.10 302.45 612.23 294.22 620.93
  C 289.59 625.81 288.87 631.88 289.54 638.51
  C 290.55 648.40 298.78 654.55 308.37 654.53
  A 0.29 0.29 0.0 0 0 308.64 654.15
  C 307.17 649.69 307.25 643.80 311.74 641.01
  C 313.50 639.92 315.99 639.96 317.78 640.80
  C 324.52 643.95 328.11 651.59 328.97 658.73
  A 0.71 0.71 0.0 0 1 328.19 659.52
  L 318.93 658.53
  A 0.77 0.77 0.0 0 0 318.09 659.35
  L 318.77 668.74
  A 1.07 1.05 12.5 0 0 319.33 669.60
  Q 321.50 670.77 326.28 670.97
  Q 328.76 671.06 339.42 670.91
  A 0.49 0.48 6.4 0 1 339.90 671.51
  Z"
/>
<path fill="#000000" d="
  M 660.57 657.64
  Q 662.95 657.31 667.50 656.88
  Q 670.58 656.58 670.56 659.48
  C 670.54 662.80 670.54 666.09 670.04 669.15
  Q 669.69 671.28 665.51 671.49
  Q 659.10 671.81 648.73 671.86
  A 0.68 0.68 0.0 0 0 648.07 672.69
  C 649.29 678.51 652.52 681.60 656.22 685.76
  Q 658.26 688.06 656.06 690.59
  Q 653.89 693.07 649.07 693.22
  A 1.07 1.06 -84.0 0 0 648.06 694.04
  C 647.38 696.96 644.13 709.67 638.81 706.21
  C 634.83 703.61 633.57 698.85 632.53 694.69
  A 1.31 1.31 0.0 0 0 631.53 693.73
  C 628.22 693.03 624.52 692.51 622.68 690.10
  A 2.85 2.53 -43.9 0 1 622.95 686.71
  C 626.48 682.67 630.09 678.72 631.16 673.65
  A 0.86 0.85 -85.8 0 0 630.28 672.62
  Q 621.23 673.05 613.13 671.72
  Q 611.14 671.39 610.83 669.18
  Q 610.09 663.83 610.27 658.97
  A 1.94 1.94 0.0 0 1 612.41 657.11
  L 619.96 657.92
  A 0.49 0.48 86.9 0 0 620.48 657.33
  Q 618.76 649.18 613.19 643.64
  C 611.92 642.38 608.64 641.32 606.75 641.83
  C 602.02 643.11 602.88 650.17 603.82 654.01
  A 1.58 1.58 0.0 0 1 602.28 655.96
  C 591.39 655.99 582.71 649.24 581.23 638.50
  C 579.96 629.26 583.24 619.12 592.60 615.41
  C 609.27 608.82 622.25 622.62 626.51 637.86
  Q 629.11 647.13 630.16 656.92
  A 0.93 0.93 0.0 0 0 630.99 657.75
  L 632.17 657.88
  A 0.91 0.91 0.0 0 0 633.18 656.97
  C 633.18 650.07 632.27 645.81 630.78 638.15
  Q 630.06 634.44 628.24 628.64
  Q 626.27 622.36 622.57 611.44
  C 619.88 603.49 618.06 596.07 619.89 587.88
  C 622.79 574.83 629.76 564.61 638.11 554.36
  Q 638.72 553.60 638.81 553.56
  A 2.34 2.33 55.6 0 1 641.40 554.05
  C 653.04 565.64 662.72 583.92 660.82 600.47
  Q 660.16 606.18 656.95 615.02
  Q 654.60 621.48 652.10 629.36
  Q 648.19 641.72 646.60 656.13
  A 1.20 1.20 0.0 0 0 647.66 657.45
  L 648.84 657.57
  A 1.15 1.15 0.0 0 0 650.10 656.56
  C 651.82 640.54 657.63 620.33 674.73 614.41
  Q 682.53 611.71 689.41 615.58
  C 697.69 620.24 700.91 628.48 699.73 637.71
  C 698.28 648.99 689.52 656.04 678.01 655.90
  A 1.28 1.28 0.0 0 1 676.80 654.25
  Q 677.88 650.71 678.06 647.49
  C 678.39 641.27 672.14 640.18 668.11 643.35
  Q 661.70 648.41 659.87 656.89
  A 0.62 0.62 0.0 0 0 660.57 657.64
  Z
  M 601.63 654.70
  A 0.48 0.48 0.0 0 0 602.17 654.13
  Q 601.57 651.21 601.43 648.51
  C 601.17 643.29 604.74 638.65 610.41 640.43
  C 617.52 642.67 621.66 652.45 622.39 659.28
  A 0.45 0.45 0.0 0 1 621.89 659.77
  L 612.65 658.79
  A 0.59 0.59 0.0 0 0 612.00 659.38
  L 612.00 668.88
  A 1.07 1.06 7.4 0 0 612.80 669.91
  C 618.98 671.55 626.05 671.07 632.47 671.07
  A 0.61 0.60 -86.6 0 1 633.07 671.75
  C 632.32 677.93 628.67 682.80 624.40 687.29
  A 1.74 1.74 0.0 0 0 624.79 690.00
  Q 628.26 692.01 632.94 691.89
  A 0.92 0.91 86.6 0 1 633.87 692.72
  Q 634.54 699.45 638.54 704.24
  A 2.43 2.19 52.9 0 0 641.58 704.82
  C 644.61 702.77 646.06 696.22 646.13 692.80
  A 0.81 0.80 86.7 0 1 646.83 692.01
  C 649.63 691.66 653.64 691.43 655.26 689.36
  A 2.12 2.03 41.9 0 0 655.05 686.62
  C 650.27 681.84 646.60 677.55 646.03 670.76
  A 0.63 0.62 87.5 0 1 646.65 670.08
  Q 658.85 670.09 666.53 669.88
  C 669.32 669.80 668.94 668.23 669.05 665.83
  Q 669.24 662.04 668.97 659.43
  A 1.20 1.19 -5.8 0 0 667.66 658.37
  L 658.63 659.32
  A 0.56 0.56 0.0 0 1 658.02 658.71
  Q 659.04 649.70 665.57 643.39
  C 674.52 634.75 683.59 643.62 678.24 653.62
  A 0.55 0.55 0.0 0 0 678.77 654.43
  Q 696.20 653.29 698.10 636.55
  C 698.77 630.66 696.96 623.78 692.23 619.55
  Q 683.69 611.92 672.16 617.18
  C 657.52 623.86 653.01 643.97 651.77 658.04
  A 1.12 1.12 0.0 0 1 650.65 659.06
  L 645.88 659.06
  A 1.04 1.04 0.0 0 1 644.84 657.97
  C 645.41 645.16 649.05 631.64 653.31 620.06
  Q 657.77 607.96 658.28 605.53
  Q 660.60 594.46 658.26 586.21
  Q 653.27 568.53 640.49 555.49
  A 0.70 0.69 -46.7 0 0 639.48 555.52
  Q 630.65 565.42 625.34 576.56
  C 619.54 588.71 620.08 600.32 624.62 612.65
  C 630.11 627.56 634.49 642.22 635.14 658.09
  A 1.12 1.12 0.0 0 1 634.02 659.26
  L 629.78 659.26
  A 1.31 1.30 -2.7 0 1 628.48 658.08
  Q 627.24 644.39 623.28 633.95
  C 618.03 620.14 604.43 609.66 589.99 618.71
  C 583.63 622.69 582.11 631.21 582.97 638.29
  Q 584.03 646.89 591.58 651.64
  C 594.67 653.59 598.10 654.18 601.63 654.70
  Z"
/>
<path fill="#fafafa" d="
  M 339.42 670.91
  Q 328.76 671.06 326.28 670.97
  Q 321.50 670.77 319.33 669.60
  A 1.07 1.05 12.5 0 1 318.77 668.74
  L 318.09 659.35
  A 0.77 0.77 0.0 0 1 318.93 658.53
  L 328.19 659.52
  A 0.71 0.71 0.0 0 0 328.97 658.73
  C 328.11 651.59 324.52 643.95 317.78 640.80
  C 315.99 639.96 313.50 639.92 311.74 641.01
  C 307.25 643.80 307.17 649.69 308.64 654.15
  A 0.29 0.29 0.0 0 1 308.37 654.53
  C 298.78 654.55 290.55 648.40 289.54 638.51
  C 288.87 631.88 289.59 625.81 294.22 620.93
  C 302.45 612.23 316.22 614.10 323.46 623.27
  C 331.49 633.42 333.16 645.05 335.23 658.54
  A 0.96 0.95 -4.6 0 0 336.18 659.34
  L 341.05 659.34
  A 0.60 0.59 -0.9 0 0 341.65 658.73
  Q 341.00 641.76 335.15 625.11
  Q 331.56 614.90 329.84 609.39
  C 323.46 588.91 332.61 570.81 345.93 555.59
  A 0.56 0.55 44.0 0 1 346.75 555.58
  Q 355.82 565.24 361.66 577.31
  Q 368.30 591.03 365.03 605.57
  Q 364.15 609.48 358.80 623.55
  Q 352.53 640.08 351.00 658.05
  A 1.07 1.07 0.0 0 0 352.07 659.21
  L 356.70 659.21
  A 1.29 1.29 0.0 0 0 357.98 658.05
  C 359.39 644.05 363.32 624.96 377.09 617.61
  C 383.78 614.04 391.35 614.32 397.63 618.57
  C 403.03 622.23 405.78 630.64 404.99 636.73
  Q 402.85 653.28 386.05 654.49
  A 0.77 0.77 0.0 0 1 385.28 653.45
  C 387.28 648.23 386.96 639.20 378.90 639.88
  Q 376.20 640.11 374.04 641.72
  Q 366.33 647.47 364.84 658.42
  A 0.50 0.50 0.0 0 0 365.33 658.99
  L 375.06 658.99
  A 0.24 0.24 0.0 0 1 375.30 659.23
  L 375.30 668.53
  A 1.43 1.43 0.0 0 1 373.87 669.96
  L 353.73 669.96
  A 0.85 0.85 0.0 0 0 352.89 670.92
  Q 353.75 677.82 358.64 682.62
  Q 359.14 683.12 362.38 686.45
  A 2.09 2.09 0.0 0 1 362.28 689.45
  C 359.94 691.56 356.45 691.47 353.76 692.10
  A 0.86 0.85 88.5 0 0 353.12 692.78
  C 352.45 696.64 351.33 702.60 348.06 705.34
  A 1.81 1.80 -38.3 0 1 345.45 705.04
  Q 341.28 699.50 340.01 692.83
  A 0.94 0.94 0.0 0 0 339.26 692.08
  L 331.66 690.70
  A 1.69 1.68 16.0 0 1 330.39 688.42
  Q 331.13 686.57 332.24 685.46
  Q 337.96 679.74 339.90 671.51
  A 0.49 0.48 6.4 0 0 339.42 670.91
  Z"
/>
<path fill="#fafafa" d="
  M 601.63 654.70
  C 598.10 654.18 594.67 653.59 591.58 651.64
  Q 584.03 646.89 582.97 638.29
  C 582.11 631.21 583.63 622.69 589.99 618.71
  C 604.43 609.66 618.03 620.14 623.28 633.95
  Q 627.24 644.39 628.48 658.08
  A 1.31 1.30 -2.7 0 0 629.78 659.26
  L 634.02 659.26
  A 1.12 1.12 0.0 0 0 635.14 658.09
  C 634.49 642.22 630.11 627.56 624.62 612.65
  C 620.08 600.32 619.54 588.71 625.34 576.56
  Q 630.65 565.42 639.48 555.52
  A 0.70 0.69 -46.7 0 1 640.49 555.49
  Q 653.27 568.53 658.26 586.21
  Q 660.60 594.46 658.28 605.53
  Q 657.77 607.96 653.31 620.06
  C 649.05 631.64 645.41 645.16 644.84 657.97
  A 1.04 1.04 0.0 0 0 645.88 659.06
  L 650.65 659.06
  A 1.12 1.12 0.0 0 0 651.77 658.04
  C 653.01 643.97 657.52 623.86 672.16 617.18
  Q 683.69 611.92 692.23 619.55
  C 696.96 623.78 698.77 630.66 698.10 636.55
  Q 696.20 653.29 678.77 654.43
  A 0.55 0.55 0.0 0 1 678.24 653.62
  C 683.59 643.62 674.52 634.75 665.57 643.39
  Q 659.04 649.70 658.02 658.71
  A 0.56 0.56 0.0 0 0 658.63 659.32
  L 667.66 658.37
  A 1.20 1.19 -5.8 0 1 668.97 659.43
  Q 669.24 662.04 669.05 665.83
  C 668.94 668.23 669.32 669.80 666.53 669.88
  Q 658.85 670.09 646.65 670.08
  A 0.63 0.62 87.5 0 0 646.03 670.76
  C 646.60 677.55 650.27 681.84 655.05 686.62
  A 2.12 2.03 41.9 0 1 655.26 689.36
  C 653.64 691.43 649.63 691.66 646.83 692.01
  A 0.81 0.80 86.7 0 0 646.13 692.80
  C 646.06 696.22 644.61 702.77 641.58 704.82
  A 2.43 2.19 52.9 0 1 638.54 704.24
  Q 634.54 699.45 633.87 692.72
  A 0.92 0.91 86.6 0 0 632.94 691.89
  Q 628.26 692.01 624.79 690.00
  A 1.74 1.74 0.0 0 1 624.40 687.29
  C 628.67 682.80 632.32 677.93 633.07 671.75
  A 0.61 0.60 -86.6 0 0 632.47 671.07
  C 626.05 671.07 618.98 671.55 612.80 669.91
  A 1.07 1.06 7.4 0 1 612.00 668.88
  L 612.00 659.38
  A 0.59 0.59 0.0 0 1 612.65 658.79
  L 621.89 659.77
  A 0.45 0.45 0.0 0 0 622.39 659.28
  C 621.66 652.45 617.52 642.67 610.41 640.43
  C 604.74 638.65 601.17 643.29 601.43 648.51
  Q 601.57 651.21 602.17 654.13
  A 0.48 0.48 0.0 0 1 601.63 654.70
  Z"
/>
<path fill="#000000" d="
  M 365.28 751.91
  L 354.34 746.66
  A 0.38 0.38 0.0 0 1 354.46 745.94
  L 355.03 745.88
  L 365.28 751.91
  Z"
/>
</svg>
