<?xml version="1.0" encoding="UTF-8" standalone="no"?>
<!DOCTYPE svg PUBLIC "-//W3C//DTD SVG 1.1//EN" "http://www.w3.org/Graphics/SVG/1.1/DTD/svg11.dtd">
<svg xmlns="http://www.w3.org/2000/svg" version="1.1" viewBox="0.00 0.00 1024.00 1024.00">
<g stroke-width="2.00" fill="none" stroke-linecap="butt">
<path stroke="#347841" vector-effect="non-scaling-stroke" d="
  M 556.23 91.97
  Q 536.00 88.19 514.30 87.22
  C 470.67 85.26 427.06 92.85 385.90 107.86
  Q 328.35 128.85 282.17 167.52
  Q 185.17 248.75 152.10 370.78
  Q 142.23 407.18 138.46 449.86
  Q 138.12 453.69 137.89 460.24
  C 137.58 468.85 136.90 477.70 137.06 486.15
  C 137.67 519.52 141.53 551.95 150.07 584.08
  Q 165.74 643.09 199.72 692.64
  Q 219.72 721.81 242.02 744.36
  C 282.30 785.10 334.37 814.92 390.92 826.48
  Q 421.12 832.65 449.14 833.30
  C 481.78 834.07 514.32 828.76 546.59 819.56
  Q 586.51 808.17 621.07 787.12
  Q 646.62 771.56 668.77 753.37
  Q 684.86 740.16 703.55 721.00
  C 733.94 689.86 759.93 652.71 777.39 615.14
  Q 787.30 593.83 793.82 576.46
  Q 807.99 538.77 814.64 497.57
  Q 818.45 473.96 819.63 452.71
  Q 822.00 410.01 814.74 366.30
  Q 804.51 304.73 772.83 250.73
  C 750.86 213.25 721.32 180.32 687.50 152.77
  C 670.26 138.71 651.21 126.76 632.58 117.42
  Q 596.92 99.55 556.23 91.97"
/>
<path stroke="#0e2f14" vector-effect="non-scaling-stroke" d="
  M 530.94 838.72
  L 529.69 839.12"
/>
<path stroke="#1d4725" vector-effect="non-scaling-stroke" d="
  M 529.69 839.12
  Q 516.36 842.68 502.65 844.05
  A 0.36 0.35 -4.8 0 0 502.32 844.43
  L 502.33 844.45
  A 0.36 0.36 0.0 0 0 502.71 844.78
  Q 521.76 843.62 532.25 843.00
  Q 546.79 842.13 564.11 838.88
  Q 601.46 831.89 636.55 817.10
  C 672.18 802.08 706.90 779.20 735.89 753.14
  C 740.60 748.91 747.57 742.86 753.26 736.83
  Q 773.65 715.21 783.69 702.46
  Q 808.28 671.22 826.68 634.69
  Q 836.83 614.55 842.90 598.94
  Q 853.61 571.41 860.86 541.43
  Q 868.60 509.42 870.74 474.61
  Q 871.15 467.86 871.54 460.67
  C 872.48 443.42 871.82 425.90 869.98 409.00
  Q 863.08 345.36 836.51 286.76
  Q 830.43 273.35 822.26 259.25
  Q 801.69 223.72 774.05 193.71
  Q 753.46 171.36 730.10 154.37
  Q 705.83 136.72 679.54 123.98
  Q 675.86 122.20 657.63 113.96
  A 0.21 0.20 23.4 0 0 657.36 114.06
  L 657.35 114.07
  A 0.25 0.24 26.0 0 0 657.47 114.39
  Q 667.38 119.22 671.16 121.87
  Q 683.09 130.26 688.95 134.56
  Q 721.06 158.07 746.37 188.87
  C 779.45 229.10 805.46 274.77 819.66 324.52
  Q 830.34 361.90 833.46 400.66
  C 834.09 408.56 834.16 416.39 834.57 423.09
  Q 835.00 430.33 834.83 439.92
  Q 834.24 472.58 828.22 505.75
  Q 818.91 557.05 798.37 604.61
  C 788.40 627.71 775.26 651.37 761.74 672.26
  Q 753.88 684.39 748.18 691.20
  Q 718.00 727.26 681.00 758.93
  C 671.07 767.43 659.62 775.87 649.25 783.25
  Q 624.93 800.55 597.98 814.25
  Q 565.95 830.54 530.94 838.72"
/>
<path stroke="#2a7338" vector-effect="non-scaling-stroke" d="
  M 529.69 839.12
  Q 529.87 839.10 530.01 839.11
  A 0.26 0.26 0.0 0 1 530.12 839.61
  Q 527.13 841.11 523.77 841.14
  A 0.32 0.32 0.0 0 0 523.46 841.45
  L 523.46 841.71
  A 0.31 0.31 0.0 0 0 523.78 842.02
  Q 526.56 841.97 529.60 842.22
  Q 531.74 842.40 535.39 842.05
  Q 566.11 839.14 594.62 830.81
  Q 603.05 828.34 612.67 825.12
  C 663.97 807.90 710.76 777.20 749.51 739.40
  C 754.62 734.42 758.38 729.99 762.99 725.29
  Q 765.97 722.25 772.64 714.33
  C 779.25 706.47 783.45 701.77 787.93 695.75
  Q 811.80 663.75 828.44 629.44
  Q 838.24 609.22 843.08 596.40
  Q 851.68 573.61 858.44 547.48
  Q 863.48 528.03 865.56 513.61
  Q 868.37 494.15 869.48 482.25
  Q 869.70 479.87 870.91 455.59
  Q 871.58 442.12 870.75 428.92
  Q 869.58 410.18 868.08 399.39
  Q 864.00 370.01 854.94 338.48
  Q 852.25 329.13 848.12 318.13
  Q 842.03 301.89 840.37 298.15
  Q 830.81 276.61 826.86 269.39
  Q 804.87 229.14 774.00 194.94
  Q 763.43 183.23 751.68 172.80
  Q 749.84 171.16 749.07 170.67
  C 746.77 169.18 745.37 167.17 742.91 165.45
  C 738.33 162.23 731.12 155.93 725.12 151.82
  C 711.77 142.65 697.42 134.34 682.81 126.36
  C 681.09 125.42 679.37 124.81 677.66 123.97
  A 0.59 0.59 0.0 0 0 676.90 124.19
  L 676.89 124.21
  A 0.71 0.70 -56.6 0 0 677.08 125.15
  Q 688.84 133.40 693.53 136.95
  Q 727.16 162.41 751.97 194.52
  Q 766.91 213.85 772.74 222.75
  Q 781.96 236.85 789.64 250.58
  Q 813.16 292.65 824.41 339.39
  Q 831.83 370.21 834.43 403.49
  Q 836.31 427.57 835.39 449.25
  Q 834.21 477.40 829.02 506.05
  Q 827.47 514.59 825.02 525.55
  C 816.16 565.25 801.55 604.87 781.56 640.81
  Q 771.11 659.60 760.43 675.95
  Q 752.65 687.86 743.19 698.44
  Q 726.01 717.68 721.61 722.36
  Q 718.87 725.28 702.82 740.32
  Q 685.74 756.31 678.45 762.19
  Q 658.86 777.97 638.24 791.73
  Q 618.22 805.10 591.95 818.05
  Q 577.16 825.34 562.58 830.35
  Q 547.82 835.43 531.93 839.13
  Q 530.22 839.53 530.94 838.72"
/>
<path stroke="#51bd65" vector-effect="non-scaling-stroke" d="
  M 556.31 92.98
  Q 536.14 89.20 514.50 88.21
  C 470.98 86.22 427.48 93.75 386.42 108.69
  Q 329.01 129.57 282.92 168.10
  Q 186.11 249.03 153.02 370.71
  Q 143.15 407.01 139.35 449.57
  Q 139.01 453.39 138.77 459.92
  C 138.46 468.51 137.77 477.33 137.92 485.76
  C 138.50 519.04 142.33 551.39 150.82 583.44
  Q 166.40 642.31 200.24 691.75
  Q 220.17 720.86 242.39 743.37
  C 282.53 784.04 334.43 813.82 390.82 825.40
  Q 420.94 831.58 448.88 832.25
  C 481.43 833.04 513.89 827.78 546.08 818.63
  Q 585.91 807.30 620.39 786.34
  Q 645.89 770.84 667.99 752.72
  Q 684.05 739.56 702.71 720.46
  C 733.04 689.43 758.99 652.40 776.44 614.95
  Q 786.34 593.70 792.86 576.38
  Q 807.02 538.81 813.69 497.72
  Q 817.51 474.18 818.70 452.98
  Q 821.10 410.40 813.90 366.80
  Q 803.75 305.39 772.20 251.50
  C 750.32 214.10 720.89 181.24 687.18 153.73
  C 670.00 139.70 651.01 127.76 632.43 118.43
  Q 596.88 100.58 556.31 92.98"
/>
<path stroke="#51bd65" vector-effect="non-scaling-stroke" d="
  M 785.13 406.56
  C 780.59 353.65 763.59 301.33 734.71 256.78
  Q 691.04 189.41 619.54 151.73
  C 591.13 136.76 558.65 127.47 526.36 123.66
  Q 511.80 121.95 492.74 121.89
  C 421.48 121.70 352.53 147.35 297.64 192.84
  Q 245.85 235.77 212.22 294.51
  C 192.79 328.44 178.21 367.78 170.21 406.44
  Q 158.51 463.01 165.51 519.88
  C 169.10 549.00 175.61 577.11 185.90 604.59
  Q 204.58 654.48 239.80 696.42
  Q 256.42 716.21 274.28 732.20
  Q 300.74 755.90 333.14 771.84
  Q 358.44 784.29 389.89 791.18
  Q 419.68 797.71 449.41 798.84
  Q 475.41 799.83 501.61 795.62
  Q 527.16 791.51 549.98 783.47
  C 570.27 776.34 591.76 766.12 610.68 753.96
  Q 643.19 733.07 668.71 708.46
  Q 700.38 677.92 725.75 640.48
  Q 751.79 602.04 766.50 561.71
  Q 786.56 506.66 786.91 448.99
  Q 787.03 428.75 785.13 406.56"
/>
<path stroke="#347841" vector-effect="non-scaling-stroke" d="
  M 784.25 406.81
  C 779.74 354.05 762.80 301.88 734.02 257.45
  Q 690.50 190.26 619.22 152.67
  C 590.89 137.73 558.51 128.46 526.31 124.65
  Q 511.80 122.94 492.79 122.87
  C 421.74 122.66 352.98 148.22 298.24 193.56
  Q 246.58 236.35 213.03 294.91
  C 193.65 328.73 179.10 367.96 171.11 406.50
  Q 159.43 462.90 166.39 519.61
  C 169.96 548.65 176.44 576.68 186.69 604.08
  Q 205.31 653.83 240.41 695.66
  Q 256.98 715.40 274.78 731.35
  Q 301.16 754.99 333.46 770.89
  Q 358.68 783.31 390.04 790.19
  Q 419.74 796.71 449.38 797.85
  Q 475.31 798.84 501.43 794.65
  Q 526.91 790.56 549.66 782.55
  C 569.90 775.45 591.33 765.27 610.20 753.15
  Q 642.62 732.33 668.07 707.80
  Q 699.66 677.36 724.97 640.03
  Q 750.94 601.71 765.62 561.50
  Q 785.64 506.62 786.01 449.12
  Q 786.14 428.93 784.25 406.81"
/>
<path stroke="#1d4725" vector-effect="non-scaling-stroke" d="
  M 428.16 144.06
  Q 420.86 144.88 411.82 147.59
  Q 382.78 156.31 359.43 168.69
  Q 324.19 187.37 296.16 212.93
  C 253.26 252.04 220.36 301.30 199.52 355.51
  C 190.18 379.81 183.65 407.77 179.92 433.79
  Q 177.46 450.90 176.92 471.51
  Q 175.94 508.95 182.89 543.63
  Q 188.78 573.07 200.07 601.97
  Q 209.19 625.32 222.97 647.65
  C 240.10 675.41 259.14 699.90 283.66 720.82
  Q 313.95 746.66 349.40 761.08
  C 357.18 764.24 365.71 766.04 373.63 768.68
  Q 379.12 770.52 383.38 771.19
  A 0.17 0.16 -77.8 0 0 383.56 771.07
  L 383.56 771.06
  A 0.17 0.17 0.0 0 0 383.45 770.86
  Q 369.49 766.13 355.18 758.30
  Q 328.28 743.59 306.13 723.89
  Q 284.26 704.42 269.28 684.97
  Q 252.99 663.80 240.55 640.99
  C 223.21 609.22 212.19 575.48 206.72 538.68
  Q 202.92 513.08 202.09 489.25
  Q 199.68 419.56 223.93 354.13
  Q 236.89 319.17 258.72 285.96
  C 278.01 256.61 300.57 230.32 326.48 207.81
  Q 337.35 198.37 339.88 196.38
  Q 358.41 181.85 379.02 170.03
  Q 398.75 158.71 428.21 148.19"
/>
<path stroke="#0e2f14" vector-effect="non-scaling-stroke" d="
  M 428.21 148.19
  Q 436.98 145.80 445.69 143.14
  Q 450.67 141.62 454.04 140.97
  Q 462.24 139.40 462.60 139.13
  A 0.05 0.05 0.0 0 0 462.56 139.04
  Q 462.41 139.09 462.36 138.89
  A 0.01 0.01 0.0 0 0 462.35 138.88
  Q 455.10 139.74 452.54 140.11
  Q 452.44 140.13 442.93 141.03
  Q 435.23 141.77 428.16 144.06"
/>
<path stroke="#2a7338" vector-effect="non-scaling-stroke" d="
  M 428.21 148.19
  Q 397.66 157.37 370.25 174.29
  Q 352.89 185.01 337.27 197.46
  C 334.12 199.97 331.19 203.42 328.61 205.11
  C 325.83 206.93 323.95 209.24 321.08 211.57
  Q 318.66 213.54 315.58 216.60
  Q 305.98 226.13 300.40 231.89
  Q 290.96 241.62 277.05 259.04
  Q 271.64 265.81 266.45 273.39
  Q 258.23 285.39 256.44 288.16
  Q 230.68 328.02 216.71 373.20
  Q 211.82 389.04 207.19 411.19
  C 206.41 414.90 205.95 419.84 205.40 422.42
  C 204.30 427.57 203.90 434.81 203.14 439.54
  Q 202.08 446.05 201.18 476.00
  Q 200.76 490.13 201.96 501.59
  C 202.32 505.08 202.51 509.47 202.82 512.85
  Q 204.99 537.19 209.83 560.18
  Q 215.57 587.41 225.58 611.21
  Q 233.44 629.88 240.05 641.80
  Q 251.00 661.58 266.73 683.10
  C 272.28 690.68 280.86 699.64 285.75 705.27
  Q 290.32 710.53 305.40 724.42
  C 307.16 726.05 309.63 727.56 311.12 729.15
  Q 312.78 730.90 315.49 732.92
  C 323.21 738.68 329.08 743.46 336.57 748.16
  Q 350.64 756.98 363.55 763.58
  A 0.40 0.40 0.0 0 1 363.31 764.33
  Q 356.73 763.37 350.30 760.70
  Q 303.41 741.31 267.68 705.15
  Q 263.80 701.23 258.65 695.33
  Q 251.90 687.61 249.92 685.09
  Q 231.48 661.52 216.69 635.32
  Q 205.92 616.22 198.43 595.59
  Q 192.47 579.19 187.88 562.18
  Q 184.51 549.67 182.48 537.14
  Q 180.35 523.94 178.89 511.73
  Q 178.01 504.40 178.28 502.71
  Q 178.42 501.81 177.88 497.73
  Q 177.53 495.04 177.48 492.75
  Q 176.98 466.84 179.41 444.25
  Q 180.73 431.94 182.39 422.75
  Q 185.57 405.04 189.95 387.95
  Q 193.90 372.52 200.17 356.16
  C 215.04 317.36 236.09 280.72 262.78 249.03
  Q 271.14 239.10 273.64 236.38
  Q 281.27 228.10 296.41 213.68
  Q 305.71 204.81 322.34 192.61
  Q 353.07 170.05 388.38 156.39
  Q 406.51 149.37 428.16 144.06"
/>
<path stroke="#347841" vector-effect="non-scaling-stroke" d="
  M 573.19 155.05
  C 522.34 140.75 469.21 144.82 421.15 166.05
  C 358.55 193.70 304.90 237.58 267.56 294.64
  Q 247.42 325.44 235.86 356.23
  Q 223.50 389.21 218.08 425.00
  Q 214.77 446.96 214.11 463.56
  Q 213.96 467.30 213.95 482.15
  C 213.94 494.46 215.23 508.27 216.25 519.25
  Q 218.40 542.16 224.85 567.53
  Q 236.32 612.52 262.29 652.96
  Q 282.65 684.69 312.18 711.04
  C 347.91 742.92 390.50 763.91 437.49 771.91
  Q 466.02 776.77 492.98 774.18
  Q 534.24 770.20 570.65 754.00
  Q 595.32 743.03 615.98 728.85
  C 666.65 694.07 708.92 646.13 736.43 590.98
  Q 751.03 561.68 758.76 532.98
  C 773.78 477.20 774.35 417.82 761.85 361.52
  Q 749.61 306.41 717.62 260.05
  Q 690.58 220.89 654.62 194.76
  Q 616.85 167.33 573.19 155.05"
/>
<path stroke="#51bd65" vector-effect="non-scaling-stroke" d="
  M 573.03 156.02
  C 522.35 141.75 469.39 145.80 421.47 166.95
  C 359.06 194.49 305.57 238.22 268.34 295.09
  Q 248.25 325.78 236.72 356.47
  Q 224.39 389.34 218.98 425.02
  Q 215.67 446.91 215.01 463.45
  Q 214.86 467.18 214.84 481.99
  C 214.83 494.26 216.11 508.02 217.13 518.97
  Q 219.26 541.81 225.69 567.10
  Q 237.11 611.95 262.98 652.27
  Q 283.27 683.90 312.70 710.17
  C 348.31 741.96 390.76 762.90 437.60 770.89
  Q 466.03 775.74 492.91 773.16
  Q 534.04 769.21 570.34 753.07
  Q 594.93 742.14 615.53 728.01
  C 666.05 693.36 708.20 645.58 735.63 590.61
  Q 750.20 561.41 757.91 532.80
  C 772.90 477.20 773.48 418.01 761.04 361.89
  Q 748.85 306.95 716.97 260.73
  Q 690.03 221.69 654.19 195.63
  Q 616.55 168.28 573.03 156.02"
/>
<path stroke="#51bd65" vector-effect="non-scaling-stroke" d="
  M 616.52 360.09
  C 591.30 325.30 550.70 304.32 507.74 300.38
  Q 494.73 299.19 489.98 299.34
  C 472.14 299.93 454.48 302.86 437.77 309.29
  Q 409.93 320.01 388.38 339.35
  Q 367.02 358.53 353.41 385.23
  Q 333.00 425.28 334.48 471.70
  Q 335.88 515.38 358.31 552.49
  Q 371.33 574.02 391.25 589.28
  Q 422.57 613.26 462.03 618.49
  Q 477.40 620.53 493.60 619.95
  C 500.84 619.70 507.18 618.62 514.86 617.33
  C 542.25 612.72 567.50 599.38 587.92 580.45
  Q 617.27 553.25 631.33 514.64
  Q 638.94 493.73 641.25 471.51
  Q 643.08 453.94 641.38 432.91
  C 639.30 407.12 631.22 380.37 616.52 360.09"
/>
<path stroke="#347841" vector-effect="non-scaling-stroke" d="
  M 404.57 327.84
  Q 383.92 341.99 369.46 361.21
  Q 342.83 396.59 336.96 441.29
  Q 333.55 467.26 337.25 491.79
  C 342.05 523.53 356.57 556.09 380.08 578.47
  Q 416.22 612.85 467.03 618.01
  Q 483.53 619.69 495.94 618.78
  Q 505.24 618.10 517.76 615.75
  C 552.85 609.14 583.82 588.17 605.47 559.97
  Q 628.01 530.59 636.93 492.10
  Q 640.37 477.29 641.00 459.68
  C 642.32 422.78 635.10 384.70 611.64 355.17
  C 588.21 325.67 551.90 307.13 514.45 302.14
  Q 453.88 294.06 404.57 327.84"
/>
<path stroke="#347841" vector-effect="non-scaling-stroke" d="
  M 486.88 592.05
  C 545.17 580.97 586.68 529.64 597.28 473.54
  C 602.52 445.76 599.92 417.61 588.73 391.91
  C 576.76 364.37 559.03 342.51 532.25 329.97
  Q 500.99 315.33 466.34 320.21
  Q 447.06 322.91 431.21 330.86
  Q 398.34 347.34 376.76 377.55
  Q 354.56 408.64 350.62 447.86
  Q 348.81 465.77 351.51 486.09
  Q 356.01 520.03 375.15 547.25
  Q 394.74 575.12 426.48 587.04
  C 442.24 592.96 459.96 595.34 477.22 593.34
  Q 484.56 592.49 486.88 592.05"
/>
<path stroke="#1d4725" vector-effect="non-scaling-stroke" d="
  M 575.91 346.58
  C 592.42 364.14 604.33 384.37 609.15 407.03
  C 615.59 437.25 614.15 470.62 603.92 500.33
  Q 596.76 521.14 585.64 537.48
  C 567.38 564.31 541.90 586.59 511.55 598.77
  Q 497.61 604.37 480.03 606.68
  A 0.17 0.17 0.0 0 0 479.88 606.86
  L 479.88 606.87
  A 0.16 0.16 0.0 0 0 480.05 607.02
  Q 497.14 606.59 504.77 605.46
  Q 539.74 600.26 567.64 578.12
  Q 581.83 566.87 590.28 556.53
  Q 608.49 534.24 618.98 505.99
  C 627.75 482.37 629.89 456.80 627.17 430.95
  Q 625.45 414.51 621.33 400.91
  Q 614.26 377.58 598.17 358.83
  Q 593.31 353.18 585.33 347.32"
/>
<path stroke="#0e2f14" vector-effect="non-scaling-stroke" d="
  M 585.33 347.32
  Q 575.82 338.40 567.72 334.51
  Q 561.12 331.36 555.78 328.56
  A 0.26 0.26 0.0 0 0 555.43 328.65
  L 555.43 328.66
  A 0.30 0.30 0.0 0 0 555.50 329.06
  C 558.86 331.62 562.18 333.65 565.48 336.71
  Q 570.87 341.71 575.91 346.58"
/>
<path stroke="#2a7338" vector-effect="non-scaling-stroke" d="
  M 585.33 347.32
  Q 598.21 358.82 606.45 371.05
  Q 617.16 386.97 622.19 406.79
  Q 624.48 415.78 626.04 426.19
  C 626.80 431.24 626.68 434.81 627.39 440.51
  Q 627.87 444.38 627.70 459.29
  C 627.65 463.51 626.76 466.68 626.66 471.00
  Q 626.62 472.57 625.23 480.27
  Q 624.55 484.10 623.27 489.27
  Q 621.31 497.25 621.00 498.19
  Q 609.71 532.26 588.96 556.97
  Q 581.66 565.67 568.19 576.77
  C 557.55 585.55 544.74 592.62 532.70 597.36
  Q 523.31 601.07 509.41 604.02
  Q 505.89 604.77 503.63 604.86
  Q 498.58 605.08 497.80 605.11
  A 0.36 0.36 0.0 0 1 497.66 604.41
  Q 502.08 602.69 509.52 600.25
  Q 515.64 598.25 521.98 594.97
  Q 536.68 587.37 547.38 579.11
  Q 567.85 563.28 583.28 542.06
  Q 593.41 528.13 598.94 514.96
  Q 604.53 501.64 607.13 492.67
  Q 610.06 482.58 612.26 467.35
  Q 613.39 459.47 613.50 448.69
  Q 613.66 432.62 613.34 429.92
  Q 611.64 415.58 610.29 408.73
  Q 606.46 389.34 595.80 371.43
  Q 591.38 364.00 581.28 351.47
  Q 578.55 348.09 575.91 346.58"
/>
<path stroke="#51bd65" vector-effect="non-scaling-stroke" d="
  M 486.67 591.07
  C 544.56 580.13 585.82 529.20 596.40 473.51
  C 601.63 445.93 599.08 417.98 588.00 392.45
  C 576.14 365.09 558.55 343.37 531.98 330.89
  Q 500.95 316.32 466.54 321.13
  Q 447.39 323.80 431.65 331.67
  Q 398.99 348.01 377.54 377.98
  Q 355.46 408.83 351.51 447.77
  Q 349.70 465.55 352.36 485.73
  Q 356.79 519.43 375.77 546.48
  Q 395.20 574.17 426.70 586.04
  C 442.34 591.93 459.93 594.31 477.07 592.34
  Q 484.36 591.51 486.67 591.07"
/>
<path stroke="#51bd65" vector-effect="non-scaling-stroke" d="
  M 456.32 548.88
  Q 465.57 550.33 471.91 549.87
  Q 509.29 547.16 533.43 521.19
  Q 560.50 492.06 560.70 449.37
  C 560.79 429.89 554.45 407.88 542.71 392.34
  C 523.08 366.38 491.18 357.56 459.84 364.44
  C 433.98 370.12 412.07 388.71 399.82 412.30
  C 385.33 440.21 384.44 472.09 396.67 500.81
  C 407.16 525.44 429.77 544.72 456.32 548.88"
/>
<path stroke="#347841" vector-effect="non-scaling-stroke" d="
  M 456.56 547.95
  Q 465.71 549.38 471.98 548.93
  Q 508.97 546.23 532.84 520.53
  Q 559.61 491.70 559.80 449.46
  C 559.88 430.18 553.60 408.41 541.97 393.04
  C 522.54 367.36 490.98 358.65 459.97 365.47
  C 434.39 371.10 412.72 389.50 400.61 412.84
  C 386.28 440.46 385.41 472.00 397.52 500.42
  C 407.91 524.78 430.29 543.85 456.56 547.95"
/>
<path stroke="#0e2f14" vector-effect="non-scaling-stroke" d="
  M 461.24 530.99
  A 0.19 0.19 0.0 0 0 461.37 530.64
  Q 455.20 527.23 451.47 522.12
  Q 431.16 494.31 434.37 459.53
  C 436.55 436.03 449.68 415.26 467.55 399.83
  Q 480.23 388.88 496.54 382.46
  A 0.33 0.33 0.0 0 0 496.49 381.84
  C 469.88 375.89 445.38 384.62 427.18 404.37
  Q 414.53 418.09 408.88 437.48
  Q 407.23 443.14 406.72 450.64
  Q 406.11 459.55 406.24 463.99
  C 406.48 472.96 409.00 483.46 413.38 492.41
  Q 417.16 500.15 418.89 502.87
  Q 433.86 526.34 461.24 530.99"
/>
</g>
<path fill="#000201" d="
  M 663.43 97.90
  Q 707.02 116.60 744.11 145.93
  Q 763.54 161.29 777.50 175.33
  Q 791.82 189.74 806.83 208.47
  Q 849.43 261.66 869.43 326.54
  Q 879.39 358.84 883.97 391.99
  Q 885.96 406.39 886.02 409.61
  Q 886.07 412.12 886.65 415.36
  C 887.26 418.72 886.89 423.23 887.33 426.70
  C 887.70 429.63 887.92 431.11 887.96 434.11
  Q 888.15 447.99 887.97 464.06
  Q 887.93 467.87 887.50 470.97
  C 886.85 475.68 887.18 481.07 886.45 485.42
  C 885.89 488.78 886.04 491.58 885.53 495.44
  Q 884.02 506.94 883.59 509.87
  Q 876.08 561.38 855.42 610.17
  Q 833.74 661.36 801.85 704.35
  Q 774.29 741.49 741.06 770.08
  Q 707.43 799.02 668.92 819.38
  Q 649.87 829.44 627.04 838.29
  Q 601.13 848.33 571.46 854.48
  Q 561.89 856.46 556.17 857.07
  Q 554.46 857.26 552.52 857.78
  C 551.00 858.19 549.14 857.84 547.56 858.34
  Q 545.51 859.00 542.25 859.01
  C 539.81 859.02 538.58 859.30 536.13 859.77
  A 8.31 8.14 -49.7 0 1 534.62 859.91
  C 529.34 859.87 524.22 860.80 519.12 860.94
  Q 497.72 861.54 478.12 861.01
  C 472.32 860.85 467.01 859.78 461.66 859.89
  A 6.04 5.98 51.9 0 1 459.91 859.67
  Q 458.20 859.20 454.45 859.03
  Q 452.34 858.94 449.09 858.49
  Q 441.99 857.52 435.33 856.77
  A 3.36 3.28 -31.7 0 1 434.61 856.61
  Q 432.47 855.89 430.15 855.95
  A 3.21 3.21 0.0 0 1 428.77 855.68
  Q 428.39 855.52 425.50 855.01
  C 396.77 849.97 368.87 841.93 342.63 830.42
  Q 291.60 808.02 248.87 770.86
  Q 233.69 757.65 219.70 742.04
  Q 183.04 701.18 159.47 651.80
  Q 155.10 642.64 148.50 625.77
  Q 134.37 589.65 127.57 548.16
  Q 125.29 534.27 123.65 517.52
  C 122.95 510.36 122.92 505.94 122.54 498.54
  Q 121.63 480.99 122.11 472.99
  Q 122.88 460.04 123.14 451.12
  A 6.17 5.86 -38.8 0 1 123.30 449.93
  C 124.17 446.40 123.86 442.65 124.42 438.88
  Q 125.35 432.56 126.26 424.79
  Q 126.67 421.28 128.10 412.26
  Q 137.09 355.20 161.59 299.83
  Q 165.83 290.27 174.10 274.81
  Q 199.00 228.31 236.57 188.08
  Q 263.11 159.65 298.25 135.07
  Q 331.83 111.60 369.57 96.04
  Q 411.41 78.81 455.75 71.52
  Q 462.87 70.35 468.64 69.65
  Q 473.76 69.03 475.23 68.97
  Q 478.72 68.84 480.58 68.33
  A 7.46 7.30 38.8 0 1 483.05 68.09
  Q 484.87 68.23 494.63 67.42
  Q 499.86 66.98 517.95 67.06
  C 524.81 67.09 531.22 68.14 537.44 68.04
  C 541.40 67.97 544.48 69.02 548.47 69.00
  Q 549.44 69.00 552.86 69.42
  Q 561.21 70.47 568.27 71.49
  C 600.97 76.22 633.14 84.91 663.43 97.90
  Z
  M 556.23 91.97
  Q 536.00 88.19 514.30 87.22
  C 470.67 85.26 427.06 92.85 385.90 107.86
  Q 328.35 128.85 282.17 167.52
  Q 185.17 248.75 152.10 370.78
  Q 142.23 407.18 138.46 449.86
  Q 138.12 453.69 137.89 460.24
  C 137.58 468.85 136.90 477.70 137.06 486.15
  C 137.67 519.52 141.53 551.95 150.07 584.08
  Q 165.74 643.09 199.72 692.64
  Q 219.72 721.81 242.02 744.36
  C 282.30 785.10 334.37 814.92 390.92 826.48
  Q 421.12 832.65 449.14 833.30
  C 481.78 834.07 514.32 828.76 546.59 819.56
  Q 586.51 808.17 621.07 787.12
  Q 646.62 771.56 668.77 753.37
  Q 684.86 740.16 703.55 721.00
  C 733.94 689.86 759.93 652.71 777.39 615.14
  Q 787.30 593.83 793.82 576.46
  Q 807.99 538.77 814.64 497.57
  Q 818.45 473.96 819.63 452.71
  Q 822.00 410.01 814.74 366.30
  Q 804.51 304.73 772.83 250.73
  C 750.86 213.25 721.32 180.32 687.50 152.77
  C 670.26 138.71 651.21 126.76 632.58 117.42
  Q 596.92 99.55 556.23 91.97
  Z
  M 530.94 838.72
  L 529.69 839.12
  Q 516.36 842.68 502.65 844.05
  A 0.36 0.35 -4.8 0 0 502.32 844.43
  L 502.33 844.45
  A 0.36 0.36 0.0 0 0 502.71 844.78
  Q 521.76 843.62 532.25 843.00
  Q 546.79 842.13 564.11 838.88
  Q 601.46 831.89 636.55 817.10
  C 672.18 802.08 706.90 779.20 735.89 753.14
  C 740.60 748.91 747.57 742.86 753.26 736.83
  Q 773.65 715.21 783.69 702.46
  Q 808.28 671.22 826.68 634.69
  Q 836.83 614.55 842.90 598.94
  Q 853.61 571.41 860.86 541.43
  Q 868.60 509.42 870.74 474.61
  Q 871.15 467.86 871.54 460.67
  C 872.48 443.42 871.82 425.90 869.98 409.00
  Q 863.08 345.36 836.51 286.76
  Q 830.43 273.35 822.26 259.25
  Q 801.69 223.72 774.05 193.71
  Q 753.46 171.36 730.10 154.37
  Q 705.83 136.72 679.54 123.98
  Q 675.86 122.20 657.63 113.96
  A 0.21 0.20 23.4 0 0 657.36 114.06
  L 657.35 114.07
  A 0.25 0.24 26.0 0 0 657.47 114.39
  Q 667.38 119.22 671.16 121.87
  Q 683.09 130.26 688.95 134.56
  Q 721.06 158.07 746.37 188.87
  C 779.45 229.10 805.46 274.77 819.66 324.52
  Q 830.34 361.90 833.46 400.66
  C 834.09 408.56 834.16 416.39 834.57 423.09
  Q 835.00 430.33 834.83 439.92
  Q 834.24 472.58 828.22 505.75
  Q 818.91 557.05 798.37 604.61
  C 788.40 627.71 775.26 651.37 761.74 672.26
  Q 753.88 684.39 748.18 691.20
  Q 718.00 727.26 681.00 758.93
  C 671.07 767.43 659.62 775.87 649.25 783.25
  Q 624.93 800.55 597.98 814.25
  Q 565.95 830.54 530.94 838.72
  Z"
/>
<path fill="#68ee80" d="
  M 556.23 91.97
  Q 596.92 99.55 632.58 117.42
  C 651.21 126.76 670.26 138.71 687.50 152.77
  C 721.32 180.32 750.86 213.25 772.83 250.73
  Q 804.51 304.73 814.74 366.30
  Q 822.00 410.01 819.63 452.71
  Q 818.45 473.96 814.64 497.57
  Q 807.99 538.77 793.82 576.46
  Q 787.30 593.83 777.39 615.14
  C 759.93 652.71 733.94 689.86 703.55 721.00
  Q 684.86 740.16 668.77 753.37
  Q 646.62 771.56 621.07 787.12
  Q 586.51 808.17 546.59 819.56
  C 514.32 828.76 481.78 834.07 449.14 833.30
  Q 421.12 832.65 390.92 826.48
  C 334.37 814.92 282.30 785.10 242.02 744.36
  Q 219.72 721.81 199.72 692.64
  Q 165.74 643.09 150.07 584.08
  C 141.53 551.95 137.67 519.52 137.06 486.15
  C 136.90 477.70 137.58 468.85 137.89 460.24
  Q 138.12 453.69 138.46 449.86
  Q 142.23 407.18 152.10 370.78
  Q 185.17 248.75 282.17 167.52
  Q 328.35 128.85 385.90 107.86
  C 427.06 92.85 470.67 85.26 514.30 87.22
  Q 536.00 88.19 556.23 91.97
  Z
  M 556.31 92.98
  Q 536.14 89.20 514.50 88.21
  C 470.98 86.22 427.48 93.75 386.42 108.69
  Q 329.01 129.57 282.92 168.10
  Q 186.11 249.03 153.02 370.71
  Q 143.15 407.01 139.35 449.57
  Q 139.01 453.39 138.77 459.92
  C 138.46 468.51 137.77 477.33 137.92 485.76
  C 138.50 519.04 142.33 551.39 150.82 583.44
  Q 166.40 642.31 200.24 691.75
  Q 220.17 720.86 242.39 743.37
  C 282.53 784.04 334.43 813.82 390.82 825.40
  Q 420.94 831.58 448.88 832.25
  C 481.43 833.04 513.89 827.78 546.08 818.63
  Q 585.91 807.30 620.39 786.34
  Q 645.89 770.84 667.99 752.72
  Q 684.05 739.56 702.71 720.46
  C 733.04 689.43 758.99 652.40 776.44 614.95
  Q 786.34 593.70 792.86 576.38
  Q 807.02 538.81 813.69 497.72
  Q 817.51 474.18 818.70 452.98
  Q 821.10 410.40 813.90 366.80
  Q 803.75 305.39 772.20 251.50
  C 750.32 214.10 720.89 181.24 687.18 153.73
  C 670.00 139.70 651.01 127.76 632.43 118.43
  Q 596.88 100.58 556.31 92.98
  Z"
/>
<path fill="#398b49" d="
  M 556.31 92.98
  Q 596.88 100.58 632.43 118.43
  C 651.01 127.76 670.00 139.70 687.18 153.73
  C 720.89 181.24 750.32 214.10 772.20 251.50
  Q 803.75 305.39 813.90 366.80
  Q 821.10 410.40 818.70 452.98
  Q 817.51 474.18 813.69 497.72
  Q 807.02 538.81 792.86 576.38
  Q 786.34 593.70 776.44 614.95
  C 758.99 652.40 733.04 689.43 702.71 720.46
  Q 684.05 739.56 667.99 752.72
  Q 645.89 770.84 620.39 786.34
  Q 585.91 807.30 546.08 818.63
  C 513.89 827.78 481.43 833.04 448.88 832.25
  Q 420.94 831.58 390.82 825.40
  C 334.43 813.82 282.53 784.04 242.39 743.37
  Q 220.17 720.86 200.24 691.75
  Q 166.40 642.31 150.82 583.44
  C 142.33 551.39 138.50 519.04 137.92 485.76
  C 137.77 477.33 138.46 468.51 138.77 459.92
  Q 139.01 453.39 139.35 449.57
  Q 143.15 407.01 153.02 370.71
  Q 186.11 249.03 282.92 168.10
  Q 329.01 129.57 386.42 108.69
  C 427.48 93.75 470.98 86.22 514.50 88.21
  Q 536.14 89.20 556.31 92.98
  Z
  M 785.13 406.56
  C 780.59 353.65 763.59 301.33 734.71 256.78
  Q 691.04 189.41 619.54 151.73
  C 591.13 136.76 558.65 127.47 526.36 123.66
  Q 511.80 121.95 492.74 121.89
  C 421.48 121.70 352.53 147.35 297.64 192.84
  Q 245.85 235.77 212.22 294.51
  C 192.79 328.44 178.21 367.78 170.21 406.44
  Q 158.51 463.01 165.51 519.88
  C 169.10 549.00 175.61 577.11 185.90 604.59
  Q 204.58 654.48 239.80 696.42
  Q 256.42 716.21 274.28 732.20
  Q 300.74 755.90 333.14 771.84
  Q 358.44 784.29 389.89 791.18
  Q 419.68 797.71 449.41 798.84
  Q 475.41 799.83 501.61 795.62
  Q 527.16 791.51 549.98 783.47
  C 570.27 776.34 591.76 766.12 610.68 753.96
  Q 643.19 733.07 668.71 708.46
  Q 700.38 677.92 725.75 640.48
  Q 751.79 602.04 766.50 561.71
  Q 786.56 506.66 786.91 448.99
  Q 787.03 428.75 785.13 406.56
  Z"
/>
<path fill="#398b49" d="
  M 529.69 839.12
  Q 529.87 839.10 530.01 839.11
  A 0.26 0.26 0.0 0 1 530.12 839.61
  Q 527.13 841.11 523.77 841.14
  A 0.32 0.32 0.0 0 0 523.46 841.45
  L 523.46 841.71
  A 0.31 0.31 0.0 0 0 523.78 842.02
  Q 526.56 841.97 529.60 842.22
  Q 531.74 842.40 535.39 842.05
  Q 566.11 839.14 594.62 830.81
  Q 603.05 828.34 612.67 825.12
  C 663.97 807.90 710.76 777.20 749.51 739.40
  C 754.62 734.42 758.38 729.99 762.99 725.29
  Q 765.97 722.25 772.64 714.33
  C 779.25 706.47 783.45 701.77 787.93 695.75
  Q 811.80 663.75 828.44 629.44
  Q 838.24 609.22 843.08 596.40
  Q 851.68 573.61 858.44 547.48
  Q 863.48 528.03 865.56 513.61
  Q 868.37 494.15 869.48 482.25
  Q 869.70 479.87 870.91 455.59
  Q 871.58 442.12 870.75 428.92
  Q 869.58 410.18 868.08 399.39
  Q 864.00 370.01 854.94 338.48
  Q 852.25 329.13 848.12 318.13
  Q 842.03 301.89 840.37 298.15
  Q 830.81 276.61 826.86 269.39
  Q 804.87 229.14 774.00 194.94
  Q 763.43 183.23 751.68 172.80
  Q 749.84 171.16 749.07 170.67
  C 746.77 169.18 745.37 167.17 742.91 165.45
  C 738.33 162.23 731.12 155.93 725.12 151.82
  C 711.77 142.65 697.42 134.34 682.81 126.36
  C 681.09 125.42 679.37 124.81 677.66 123.97
  A 0.59 0.59 0.0 0 0 676.90 124.19
  L 676.89 124.21
  A 0.71 0.70 -56.6 0 0 677.08 125.15
  Q 688.84 133.40 693.53 136.95
  Q 727.16 162.41 751.97 194.52
  Q 766.91 213.85 772.74 222.75
  Q 781.96 236.85 789.64 250.58
  Q 813.16 292.65 824.41 339.39
  Q 831.83 370.21 834.43 403.49
  Q 836.31 427.57 835.39 449.25
  Q 834.21 477.40 829.02 506.05
  Q 827.47 514.59 825.02 525.55
  C 816.16 565.25 801.55 604.87 781.56 640.81
  Q 771.11 659.60 760.43 675.95
  Q 752.65 687.86 743.19 698.44
  Q 726.01 717.68 721.61 722.36
  Q 718.87 725.28 702.82 740.32
  Q 685.74 756.31 678.45 762.19
  Q 658.86 777.97 638.24 791.73
  Q 618.22 805.10 591.95 818.05
  Q 577.16 825.34 562.58 830.35
  Q 547.82 835.43 531.93 839.13
  Q 530.22 839.53 530.94 838.72
  Q 565.95 830.54 597.98 814.25
  Q 624.93 800.55 649.25 783.25
  C 659.62 775.87 671.07 767.43 681.00 758.93
  Q 718.00 727.26 748.18 691.20
  Q 753.88 684.39 761.74 672.26
  C 775.26 651.37 788.40 627.71 798.37 604.61
  Q 818.91 557.05 828.22 505.75
  Q 834.24 472.58 834.83 439.92
  Q 835.00 430.33 834.57 423.09
  C 834.16 416.39 834.09 408.56 833.46 400.66
  Q 830.34 361.90 819.66 324.52
  C 805.46 274.77 779.45 229.10 746.37 188.87
  Q 721.06 158.07 688.95 134.56
  Q 683.09 130.26 671.16 121.87
  Q 667.38 119.22 657.47 114.39
  A 0.25 0.24 26.0 0 1 657.35 114.07
  L 657.36 114.06
  A 0.21 0.20 23.4 0 1 657.63 113.96
  Q 675.86 122.20 679.54 123.98
  Q 705.83 136.72 730.10 154.37
  Q 753.46 171.36 774.05 193.71
  Q 801.69 223.72 822.26 259.25
  Q 830.43 273.35 836.51 286.76
  Q 863.08 345.36 869.98 409.00
  C 871.82 425.90 872.48 443.42 871.54 460.67
  Q 871.15 467.86 870.74 474.61
  Q 868.60 509.42 860.86 541.43
  Q 853.61 571.41 842.90 598.94
  Q 836.83 614.55 826.68 634.69
  Q 808.28 671.22 783.69 702.46
  Q 773.65 715.21 753.26 736.83
  C 747.57 742.86 740.60 748.91 735.89 753.14
  C 706.90 779.20 672.18 802.08 636.55 817.10
  Q 601.46 831.89 564.11 838.88
  Q 546.79 842.13 532.25 843.00
  Q 521.76 843.62 502.71 844.78
  A 0.36 0.36 0.0 0 1 502.33 844.45
  L 502.32 844.43
  A 0.36 0.35 -4.8 0 1 502.65 844.05
  Q 516.36 842.68 529.69 839.12
  Z"
/>
<path fill="#68ee80" d="
  M 734.71 256.78
  C 763.59 301.33 780.59 353.65 785.13 406.56
  Q 787.03 428.75 786.91 448.99
  Q 786.56 506.66 766.50 561.71
  Q 751.79 602.04 725.75 640.48
  Q 700.38 677.92 668.71 708.46
  Q 643.19 733.07 610.68 753.96
  C 591.76 766.12 570.27 776.34 549.98 783.47
  Q 527.16 791.51 501.61 795.62
  Q 475.41 799.83 449.41 798.84
  Q 419.68 797.71 389.89 791.18
  Q 358.44 784.29 333.14 771.84
  Q 300.74 755.90 274.28 732.20
  Q 256.42 716.21 239.80 696.42
  Q 204.58 654.48 185.90 604.59
  C 175.61 577.11 169.10 549.00 165.51 519.88
  Q 158.51 463.01 170.21 406.44
  C 178.21 367.78 192.79 328.44 212.22 294.51
  Q 245.85 235.77 297.64 192.84
  C 352.53 147.35 421.48 121.70 492.74 121.89
  Q 511.80 121.95 526.36 123.66
  C 558.65 127.47 591.13 136.76 619.54 151.73
  Q 691.04 189.41 734.71 256.78
  Z
  M 784.25 406.81
  C 779.74 354.05 762.80 301.88 734.02 257.45
  Q 690.50 190.26 619.22 152.67
  C 590.89 137.73 558.51 128.46 526.31 124.65
  Q 511.80 122.94 492.79 122.87
  C 421.74 122.66 352.98 148.22 298.24 193.56
  Q 246.58 236.35 213.03 294.91
  C 193.65 328.73 179.10 367.96 171.11 406.50
  Q 159.43 462.90 166.39 519.61
  C 169.96 548.65 176.44 576.68 186.69 604.08
  Q 205.31 653.83 240.41 695.66
  Q 256.98 715.40 274.78 731.35
  Q 301.16 754.99 333.46 770.89
  Q 358.68 783.31 390.04 790.19
  Q 419.74 796.71 449.38 797.85
  Q 475.31 798.84 501.43 794.65
  Q 526.91 790.56 549.66 782.55
  C 569.90 775.45 591.33 765.27 610.20 753.15
  Q 642.62 732.33 668.07 707.80
  Q 699.66 677.36 724.97 640.03
  Q 750.94 601.71 765.62 561.50
  Q 785.64 506.62 786.01 449.12
  Q 786.14 428.93 784.25 406.81
  Z"
/>
<path fill="#000201" d="
  M 784.25 406.81
  Q 786.14 428.93 786.01 449.12
  Q 785.64 506.62 765.62 561.50
  Q 750.94 601.71 724.97 640.03
  Q 699.66 677.36 668.07 707.80
  Q 642.62 732.33 610.20 753.15
  C 591.33 765.27 569.90 775.45 549.66 782.55
  Q 526.91 790.56 501.43 794.65
  Q 475.31 798.84 449.38 797.85
  Q 419.74 796.71 390.04 790.19
  Q 358.68 783.31 333.46 770.89
  Q 301.16 754.99 274.78 731.35
  Q 256.98 715.40 240.41 695.66
  Q 205.31 653.83 186.69 604.08
  C 176.44 576.68 169.96 548.65 166.39 519.61
  Q 159.43 462.90 171.11 406.50
  C 179.10 367.96 193.65 328.73 213.03 294.91
  Q 246.58 236.35 298.24 193.56
  C 352.98 148.22 421.74 122.66 492.79 122.87
  Q 511.80 122.94 526.31 124.65
  C 558.51 128.46 590.89 137.73 619.22 152.67
  Q 690.50 190.26 734.02 257.45
  C 762.80 301.88 779.74 354.05 784.25 406.81
  Z
  M 428.16 144.06
  Q 420.86 144.88 411.82 147.59
  Q 382.78 156.31 359.43 168.69
  Q 324.19 187.37 296.16 212.93
  C 253.26 252.04 220.36 301.30 199.52 355.51
  C 190.18 379.81 183.65 407.77 179.92 433.79
  Q 177.46 450.90 176.92 471.51
  Q 175.94 508.95 182.89 543.63
  Q 188.78 573.07 200.07 601.97
  Q 209.19 625.32 222.97 647.65
  C 240.10 675.41 259.14 699.90 283.66 720.82
  Q 313.95 746.66 349.40 761.08
  C 357.18 764.24 365.71 766.04 373.63 768.68
  Q 379.12 770.52 383.38 771.19
  A 0.17 0.16 -77.8 0 0 383.56 771.07
  L 383.56 771.06
  A 0.17 0.17 0.0 0 0 383.45 770.86
  Q 369.49 766.13 355.18 758.30
  Q 328.28 743.59 306.13 723.89
  Q 284.26 704.42 269.28 684.97
  Q 252.99 663.80 240.55 640.99
  C 223.21 609.22 212.19 575.48 206.72 538.68
  Q 202.92 513.08 202.09 489.25
  Q 199.68 419.56 223.93 354.13
  Q 236.89 319.17 258.72 285.96
  C 278.01 256.61 300.57 230.32 326.48 207.81
  Q 337.35 198.37 339.88 196.38
  Q 358.41 181.85 379.02 170.03
  Q 398.75 158.71 428.21 148.19
  Q 436.98 145.80 445.69 143.14
  Q 450.67 141.62 454.04 140.97
  Q 462.24 139.40 462.60 139.13
  A 0.05 0.05 0.0 0 0 462.56 139.04
  Q 462.41 139.09 462.36 138.89
  A 0.01 0.01 0.0 0 0 462.35 138.88
  Q 455.10 139.74 452.54 140.11
  Q 452.44 140.13 442.93 141.03
  Q 435.23 141.77 428.16 144.06
  Z
  M 573.19 155.05
  C 522.34 140.75 469.21 144.82 421.15 166.05
  C 358.55 193.70 304.90 237.58 267.56 294.64
  Q 247.42 325.44 235.86 356.23
  Q 223.50 389.21 218.08 425.00
  Q 214.77 446.96 214.11 463.56
  Q 213.96 467.30 213.95 482.15
  C 213.94 494.46 215.23 508.27 216.25 519.25
  Q 218.40 542.16 224.85 567.53
  Q 236.32 612.52 262.29 652.96
  Q 282.65 684.69 312.18 711.04
  C 347.91 742.92 390.50 763.91 437.49 771.91
  Q 466.02 776.77 492.98 774.18
  Q 534.24 770.20 570.65 754.00
  Q 595.32 743.03 615.98 728.85
  C 666.65 694.07 708.92 646.13 736.43 590.98
  Q 751.03 561.68 758.76 532.98
  C 773.78 477.20 774.35 417.82 761.85 361.52
  Q 749.61 306.41 717.62 260.05
  Q 690.58 220.89 654.62 194.76
  Q 616.85 167.33 573.19 155.05
  Z"
/>
<path fill="#1b5b26" d="
  M 529.69 839.12
  L 530.94 838.72
  Q 530.22 839.53 531.93 839.13
  Q 547.82 835.43 562.58 830.35
  Q 577.16 825.34 591.95 818.05
  Q 618.22 805.10 638.24 791.73
  Q 658.86 777.97 678.45 762.19
  Q 685.74 756.31 702.82 740.32
  Q 718.87 725.28 721.61 722.36
  Q 726.01 717.68 743.19 698.44
  Q 752.65 687.86 760.43 675.95
  Q 771.11 659.60 781.56 640.81
  C 801.55 604.87 816.16 565.25 825.02 525.55
  Q 827.47 514.59 829.02 506.05
  Q 834.21 477.40 835.39 449.25
  Q 836.31 427.57 834.43 403.49
  Q 831.83 370.21 824.41 339.39
  Q 813.16 292.65 789.64 250.58
  Q 781.96 236.85 772.74 222.75
  Q 766.91 213.85 751.97 194.52
  Q 727.16 162.41 693.53 136.95
  Q 688.84 133.40 677.08 125.15
  A 0.71 0.70 -56.6 0 1 676.89 124.21
  L 676.90 124.19
  A 0.59 0.59 0.0 0 1 677.66 123.97
  C 679.37 124.81 681.09 125.42 682.81 126.36
  C 697.42 134.34 711.77 142.65 725.12 151.82
  C 731.12 155.93 738.33 162.23 742.91 165.45
  C 745.37 167.17 746.77 169.18 749.07 170.67
  Q 749.84 171.16 751.68 172.80
  Q 763.43 183.23 774.00 194.94
  Q 804.87 229.14 826.86 269.39
  Q 830.81 276.61 840.37 298.15
  Q 842.03 301.89 848.12 318.13
  Q 852.25 329.13 854.94 338.48
  Q 864.00 370.01 868.08 399.39
  Q 869.58 410.18 870.75 428.92
  Q 871.58 442.12 870.91 455.59
  Q 869.70 479.87 869.48 482.25
  Q 868.37 494.15 865.56 513.61
  Q 863.48 528.03 858.44 547.48
  Q 851.68 573.61 843.08 596.40
  Q 838.24 609.22 828.44 629.44
  Q 811.80 663.75 787.93 695.75
  C 783.45 701.77 779.25 706.47 772.64 714.33
  Q 765.97 722.25 762.99 725.29
  C 758.38 729.99 754.62 734.42 749.51 739.40
  C 710.76 777.20 663.97 807.90 612.67 825.12
  Q 603.05 828.34 594.62 830.81
  Q 566.11 839.14 535.39 842.05
  Q 531.74 842.40 529.60 842.22
  Q 526.56 841.97 523.78 842.02
  A 0.31 0.31 0.0 0 1 523.46 841.71
  L 523.46 841.45
  A 0.32 0.32 0.0 0 1 523.77 841.14
  Q 527.13 841.11 530.12 839.61
  A 0.26 0.26 0.0 0 0 530.01 839.11
  Q 529.87 839.10 529.69 839.12
  Z"
/>
<path fill="#1b5b26" d="
  M 428.21 148.19
  Q 397.66 157.37 370.25 174.29
  Q 352.89 185.01 337.27 197.46
  C 334.12 199.97 331.19 203.42 328.61 205.11
  C 325.83 206.93 323.95 209.24 321.08 211.57
  Q 318.66 213.54 315.58 216.60
  Q 305.98 226.13 300.40 231.89
  Q 290.96 241.62 277.05 259.04
  Q 271.64 265.81 266.45 273.39
  Q 258.23 285.39 256.44 288.16
  Q 230.68 328.02 216.71 373.20
  Q 211.82 389.04 207.19 411.19
  C 206.41 414.90 205.95 419.84 205.40 422.42
  C 204.30 427.57 203.90 434.81 203.14 439.54
  Q 202.08 446.05 201.18 476.00
  Q 200.76 490.13 201.96 501.59
  C 202.32 505.08 202.51 509.47 202.82 512.85
  Q 204.99 537.19 209.83 560.18
  Q 215.57 587.41 225.58 611.21
  Q 233.44 629.88 240.05 641.80
  Q 251.00 661.58 266.73 683.10
  C 272.28 690.68 280.86 699.64 285.75 705.27
  Q 290.32 710.53 305.40 724.42
  C 307.16 726.05 309.63 727.56 311.12 729.15
  Q 312.78 730.90 315.49 732.92
  C 323.21 738.68 329.08 743.46 336.57 748.16
  Q 350.64 756.98 363.55 763.58
  A 0.40 0.40 0.0 0 1 363.31 764.33
  Q 356.73 763.37 350.30 760.70
  Q 303.41 741.31 267.68 705.15
  Q 263.80 701.23 258.65 695.33
  Q 251.90 687.61 249.92 685.09
  Q 231.48 661.52 216.69 635.32
  Q 205.92 616.22 198.43 595.59
  Q 192.47 579.19 187.88 562.18
  Q 184.51 549.67 182.48 537.14
  Q 180.35 523.94 178.89 511.73
  Q 178.01 504.40 178.28 502.71
  Q 178.42 501.81 177.88 497.73
  Q 177.53 495.04 177.48 492.75
  Q 176.98 466.84 179.41 444.25
  Q 180.73 431.94 182.39 422.75
  Q 185.57 405.04 189.95 387.95
  Q 193.90 372.52 200.17 356.16
  C 215.04 317.36 236.09 280.72 262.78 249.03
  Q 271.14 239.10 273.64 236.38
  Q 281.27 228.10 296.41 213.68
  Q 305.71 204.81 322.34 192.61
  Q 353.07 170.05 388.38 156.39
  Q 406.51 149.37 428.16 144.06
  Q 435.23 141.77 442.93 141.03
  Q 452.44 140.13 452.54 140.11
  Q 455.10 139.74 462.35 138.88
  A 0.01 0.01 0.0 0 1 462.36 138.89
  Q 462.41 139.09 462.56 139.04
  A 0.05 0.05 0.0 0 1 462.60 139.13
  Q 462.24 139.40 454.04 140.97
  Q 450.67 141.62 445.69 143.14
  Q 436.98 145.80 428.21 148.19
  Z"
/>
<path fill="#398b49" d="
  M 428.16 144.06
  Q 406.51 149.37 388.38 156.39
  Q 353.07 170.05 322.34 192.61
  Q 305.71 204.81 296.41 213.68
  Q 281.27 228.10 273.64 236.38
  Q 271.14 239.10 262.78 249.03
  C 236.09 280.72 215.04 317.36 200.17 356.16
  Q 193.90 372.52 189.95 387.95
  Q 185.57 405.04 182.39 422.75
  Q 180.73 431.94 179.41 444.25
  Q 176.98 466.84 177.48 492.75
  Q 177.53 495.04 177.88 497.73
  Q 178.42 501.81 178.28 502.71
  Q 178.01 504.40 178.89 511.73
  Q 180.35 523.94 182.48 537.14
  Q 184.51 549.67 187.88 562.18
  Q 192.47 579.19 198.43 595.59
  Q 205.92 616.22 216.69 635.32
  Q 231.48 661.52 249.92 685.09
  Q 251.90 687.61 258.65 695.33
  Q 263.80 701.23 267.68 705.15
  Q 303.41 741.31 350.30 760.70
  Q 356.73 763.37 363.31 764.33
  A 0.40 0.40 0.0 0 0 363.55 763.58
  Q 350.64 756.98 336.57 748.16
  C 329.08 743.46 323.21 738.68 315.49 732.92
  Q 312.78 730.90 311.12 729.15
  C 309.63 727.56 307.16 726.05 305.40 724.42
  Q 290.32 710.53 285.75 705.27
  C 280.86 699.64 272.28 690.68 266.73 683.10
  Q 251.00 661.58 240.05 641.80
  Q 233.44 629.88 225.58 611.21
  Q 215.57 587.41 209.83 560.18
  Q 204.99 537.19 202.82 512.85
  C 202.51 509.47 202.32 505.08 201.96 501.59
  Q 200.76 490.13 201.18 476.00
  Q 202.08 446.05 203.14 439.54
  C 203.90 434.81 204.30 427.57 205.40 422.42
  C 205.95 419.84 206.41 414.90 207.19 411.19
  Q 211.82 389.04 216.71 373.20
  Q 230.68 328.02 256.44 288.16
  Q 258.23 285.39 266.45 273.39
  Q 271.64 265.81 277.05 259.04
  Q 290.96 241.62 300.40 231.89
  Q 305.98 226.13 315.58 216.60
  Q 318.66 213.54 321.08 211.57
  C 323.95 209.24 325.83 206.93 328.61 205.11
  C 331.19 203.42 334.12 199.97 337.27 197.46
  Q 352.89 185.01 370.25 174.29
  Q 397.66 157.37 428.21 148.19
  Q 398.75 158.71 379.02 170.03
  Q 358.41 181.85 339.88 196.38
  Q 337.35 198.37 326.48 207.81
  C 300.57 230.32 278.01 256.61 258.72 285.96
  Q 236.89 319.17 223.93 354.13
  Q 199.68 419.56 202.09 489.25
  Q 202.92 513.08 206.72 538.68
  C 212.19 575.48 223.21 609.22 240.55 640.99
  Q 252.99 663.80 269.28 684.97
  Q 284.26 704.42 306.13 723.89
  Q 328.28 743.59 355.18 758.30
  Q 369.49 766.13 383.45 770.86
  A 0.17 0.17 0.0 0 1 383.56 771.06
  L 383.56 771.07
  A 0.17 0.16 -77.8 0 1 383.38 771.19
  Q 379.12 770.52 373.63 768.68
  C 365.71 766.04 357.18 764.24 349.40 761.08
  Q 313.95 746.66 283.66 720.82
  C 259.14 699.90 240.10 675.41 222.97 647.65
  Q 209.19 625.32 200.07 601.97
  Q 188.78 573.07 182.89 543.63
  Q 175.94 508.95 176.92 471.51
  Q 177.46 450.90 179.92 433.79
  C 183.65 407.77 190.18 379.81 199.52 355.51
  C 220.36 301.30 253.26 252.04 296.16 212.93
  Q 324.19 187.37 359.43 168.69
  Q 382.78 156.31 411.82 147.59
  Q 420.86 144.88 428.16 144.06
  Z"
/>
<path fill="#68ee80" d="
  M 573.19 155.05
  Q 616.85 167.33 654.62 194.76
  Q 690.58 220.89 717.62 260.05
  Q 749.61 306.41 761.85 361.52
  C 774.35 417.82 773.78 477.20 758.76 532.98
  Q 751.03 561.68 736.43 590.98
  C 708.92 646.13 666.65 694.07 615.98 728.85
  Q 595.32 743.03 570.65 754.00
  Q 534.24 770.20 492.98 774.18
  Q 466.02 776.77 437.49 771.91
  C 390.50 763.91 347.91 742.92 312.18 711.04
  Q 282.65 684.69 262.29 652.96
  Q 236.32 612.52 224.85 567.53
  Q 218.40 542.16 216.25 519.25
  C 215.23 508.27 213.94 494.46 213.95 482.15
  Q 213.96 467.30 214.11 463.56
  Q 214.77 446.96 218.08 425.00
  Q 223.50 389.21 235.86 356.23
  Q 247.42 325.44 267.56 294.64
  C 304.90 237.58 358.55 193.70 421.15 166.05
  C 469.21 144.82 522.34 140.75 573.19 155.05
  Z
  M 573.03 156.02
  C 522.35 141.75 469.39 145.80 421.47 166.95
  C 359.06 194.49 305.57 238.22 268.34 295.09
  Q 248.25 325.78 236.72 356.47
  Q 224.39 389.34 218.98 425.02
  Q 215.67 446.91 215.01 463.45
  Q 214.86 467.18 214.84 481.99
  C 214.83 494.26 216.11 508.02 217.13 518.97
  Q 219.26 541.81 225.69 567.10
  Q 237.11 611.95 262.98 652.27
  Q 283.27 683.90 312.70 710.17
  C 348.31 741.96 390.76 762.90 437.60 770.89
  Q 466.03 775.74 492.91 773.16
  Q 534.04 769.21 570.34 753.07
  Q 594.93 742.14 615.53 728.01
  C 666.05 693.36 708.20 645.58 735.63 590.61
  Q 750.20 561.41 757.91 532.80
  C 772.90 477.20 773.48 418.01 761.04 361.89
  Q 748.85 306.95 716.97 260.73
  Q 690.03 221.69 654.19 195.63
  Q 616.55 168.28 573.03 156.02
  Z"
/>
<path fill="#398b49" d="
  M 421.47 166.95
  C 469.39 145.80 522.35 141.75 573.03 156.02
  Q 616.55 168.28 654.19 195.63
  Q 690.03 221.69 716.97 260.73
  Q 748.85 306.95 761.04 361.89
  C 773.48 418.01 772.90 477.20 757.91 532.80
  Q 750.20 561.41 735.63 590.61
  C 708.20 645.58 666.05 693.36 615.53 728.01
  Q 594.93 742.14 570.34 753.07
  Q 534.04 769.21 492.91 773.16
  Q 466.03 775.74 437.60 770.89
  C 390.76 762.90 348.31 741.96 312.70 710.17
  Q 283.27 683.90 262.98 652.27
  Q 237.11 611.95 225.69 567.10
  Q 219.26 541.81 217.13 518.97
  C 216.11 508.02 214.83 494.26 214.84 481.99
  Q 214.86 467.18 215.01 463.45
  Q 215.67 446.91 218.98 425.02
  Q 224.39 389.34 236.72 356.47
  Q 248.25 325.78 268.34 295.09
  C 305.57 238.22 359.06 194.49 421.47 166.95
  Z
  M 616.52 360.09
  C 591.30 325.30 550.70 304.32 507.74 300.38
  Q 494.73 299.19 489.98 299.34
  C 472.14 299.93 454.48 302.86 437.77 309.29
  Q 409.93 320.01 388.38 339.35
  Q 367.02 358.53 353.41 385.23
  Q 333.00 425.28 334.48 471.70
  Q 335.88 515.38 358.31 552.49
  Q 371.33 574.02 391.25 589.28
  Q 422.57 613.26 462.03 618.49
  Q 477.40 620.53 493.60 619.95
  C 500.84 619.70 507.18 618.62 514.86 617.33
  C 542.25 612.72 567.50 599.38 587.92 580.45
  Q 617.27 553.25 631.33 514.64
  Q 638.94 493.73 641.25 471.51
  Q 643.08 453.94 641.38 432.91
  C 639.30 407.12 631.22 380.37 616.52 360.09
  Z"
/>
<path fill="#68ee80" d="
  M 507.74 300.38
  C 550.70 304.32 591.30 325.30 616.52 360.09
  C 631.22 380.37 639.30 407.12 641.38 432.91
  Q 643.08 453.94 641.25 471.51
  Q 638.94 493.73 631.33 514.64
  Q 617.27 553.25 587.92 580.45
  C 567.50 599.38 542.25 612.72 514.86 617.33
  C 507.18 618.62 500.84 619.70 493.60 619.95
  Q 477.40 620.53 462.03 618.49
  Q 422.57 613.26 391.25 589.28
  Q 371.33 574.02 358.31 552.49
  Q 335.88 515.38 334.48 471.70
  Q 333.00 425.28 353.41 385.23
  Q 367.02 358.53 388.38 339.35
  Q 409.93 320.01 437.77 309.29
  C 454.48 302.86 472.14 299.93 489.98 299.34
  Q 494.73 299.19 507.74 300.38
  Z
  M 404.57 327.84
  Q 383.92 341.99 369.46 361.21
  Q 342.83 396.59 336.96 441.29
  Q 333.55 467.26 337.25 491.79
  C 342.05 523.53 356.57 556.09 380.08 578.47
  Q 416.22 612.85 467.03 618.01
  Q 483.53 619.69 495.94 618.78
  Q 505.24 618.10 517.76 615.75
  C 552.85 609.14 583.82 588.17 605.47 559.97
  Q 628.01 530.59 636.93 492.10
  Q 640.37 477.29 641.00 459.68
  C 642.32 422.78 635.10 384.70 611.64 355.17
  C 588.21 325.67 551.90 307.13 514.45 302.14
  Q 453.88 294.06 404.57 327.84
  Z"
/>
<path fill="#000201" d="
  M 404.57 327.84
  Q 453.88 294.06 514.45 302.14
  C 551.90 307.13 588.21 325.67 611.64 355.17
  C 635.10 384.70 642.32 422.78 641.00 459.68
  Q 640.37 477.29 636.93 492.10
  Q 628.01 530.59 605.47 559.97
  C 583.82 588.17 552.85 609.14 517.76 615.75
  Q 505.24 618.10 495.94 618.78
  Q 483.53 619.69 467.03 618.01
  Q 416.22 612.85 380.08 578.47
  C 356.57 556.09 342.05 523.53 337.25 491.79
  Q 333.55 467.26 336.96 441.29
  Q 342.83 396.59 369.46 361.21
  Q 383.92 341.99 404.57 327.84
  Z
  M 486.88 592.05
  C 545.17 580.97 586.68 529.64 597.28 473.54
  C 602.52 445.76 599.92 417.61 588.73 391.91
  C 576.76 364.37 559.03 342.51 532.25 329.97
  Q 500.99 315.33 466.34 320.21
  Q 447.06 322.91 431.21 330.86
  Q 398.34 347.34 376.76 377.55
  Q 354.56 408.64 350.62 447.86
  Q 348.81 465.77 351.51 486.09
  Q 356.01 520.03 375.15 547.25
  Q 394.74 575.12 426.48 587.04
  C 442.24 592.96 459.96 595.34 477.22 593.34
  Q 484.56 592.49 486.88 592.05
  Z
  M 575.91 346.58
  C 592.42 364.14 604.33 384.37 609.15 407.03
  C 615.59 437.25 614.15 470.62 603.92 500.33
  Q 596.76 521.14 585.64 537.48
  C 567.38 564.31 541.90 586.59 511.55 598.77
  Q 497.61 604.37 480.03 606.68
  A 0.17 0.17 0.0 0 0 479.88 606.86
  L 479.88 606.87
  A 0.16 0.16 0.0 0 0 480.05 607.02
  Q 497.14 606.59 504.77 605.46
  Q 539.74 600.26 567.64 578.12
  Q 581.83 566.87 590.28 556.53
  Q 608.49 534.24 618.98 505.99
  C 627.75 482.37 629.89 456.80 627.17 430.95
  Q 625.45 414.51 621.33 400.91
  Q 614.26 377.58 598.17 358.83
  Q 593.31 353.18 585.33 347.32
  Q 575.82 338.40 567.72 334.51
  Q 561.12 331.36 555.78 328.56
  A 0.26 0.26 0.0 0 0 555.43 328.65
  L 555.43 328.66
  A 0.30 0.30 0.0 0 0 555.50 329.06
  C 558.86 331.62 562.18 333.65 565.48 336.71
  Q 570.87 341.71 575.91 346.58
  Z"
/>
<path fill="#68ee80" d="
  M 486.88 592.05
  Q 484.56 592.49 477.22 593.34
  C 459.96 595.34 442.24 592.96 426.48 587.04
  Q 394.74 575.12 375.15 547.25
  Q 356.01 520.03 351.51 486.09
  Q 348.81 465.77 350.62 447.86
  Q 354.56 408.64 376.76 377.55
  Q 398.34 347.34 431.21 330.86
  Q 447.06 322.91 466.34 320.21
  Q 500.99 315.33 532.25 329.97
  C 559.03 342.51 576.76 364.37 588.73 391.91
  C 599.92 417.61 602.52 445.76 597.28 473.54
  C 586.68 529.64 545.17 580.97 486.88 592.05
  Z
  M 486.67 591.07
  C 544.56 580.13 585.82 529.20 596.40 473.51
  C 601.63 445.93 599.08 417.98 588.00 392.45
  C 576.14 365.09 558.55 343.37 531.98 330.89
  Q 500.95 316.32 466.54 321.13
  Q 447.39 323.80 431.65 331.67
  Q 398.99 348.01 377.54 377.98
  Q 355.46 408.83 351.51 447.77
  Q 349.70 465.55 352.36 485.73
  Q 356.79 519.43 375.77 546.48
  Q 395.20 574.17 426.70 586.04
  C 442.34 591.93 459.93 594.31 477.07 592.34
  Q 484.36 591.51 486.67 591.07
  Z"
/>
<path fill="#398b49" d="
  M 486.67 591.07
  Q 484.36 591.51 477.07 592.34
  C 459.93 594.31 442.34 591.93 426.70 586.04
  Q 395.20 574.17 375.77 546.48
  Q 356.79 519.43 352.36 485.73
  Q 349.70 465.55 351.51 447.77
  Q 355.46 408.83 377.54 377.98
  Q 398.99 348.01 431.65 331.67
  Q 447.39 323.80 466.54 321.13
  Q 500.95 316.32 531.98 330.89
  C 558.55 343.37 576.14 365.09 588.00 392.45
  C 599.08 417.98 601.63 445.93 596.40 473.51
  C 585.82 529.20 544.56 580.13 486.67 591.07
  Z
  M 456.32 548.88
  Q 465.57 550.33 471.91 549.87
  Q 509.29 547.16 533.43 521.19
  Q 560.50 492.06 560.70 449.37
  C 560.79 429.89 554.45 407.88 542.71 392.34
  C 523.08 366.38 491.18 357.56 459.84 364.44
  C 433.98 370.12 412.07 388.71 399.82 412.30
  C 385.33 440.21 384.44 472.09 396.67 500.81
  C 407.16 525.44 429.77 544.72 456.32 548.88
  Z"
/>
<path fill="#1b5b26" d="
  M 585.33 347.32
  Q 598.21 358.82 606.45 371.05
  Q 617.16 386.97 622.19 406.79
  Q 624.48 415.78 626.04 426.19
  C 626.80 431.24 626.68 434.81 627.39 440.51
  Q 627.87 444.38 627.70 459.29
  C 627.65 463.51 626.76 466.68 626.66 471.00
  Q 626.62 472.57 625.23 480.27
  Q 624.55 484.10 623.27 489.27
  Q 621.31 497.25 621.00 498.19
  Q 609.71 532.26 588.96 556.97
  Q 581.66 565.67 568.19 576.77
  C 557.55 585.55 544.74 592.62 532.70 597.36
  Q 523.31 601.07 509.41 604.02
  Q 505.89 604.77 503.63 604.86
  Q 498.58 605.08 497.80 605.11
  A 0.36 0.36 0.0 0 1 497.66 604.41
  Q 502.08 602.69 509.52 600.25
  Q 515.64 598.25 521.98 594.97
  Q 536.68 587.37 547.38 579.11
  Q 567.85 563.28 583.28 542.06
  Q 593.41 528.13 598.94 514.96
  Q 604.53 501.64 607.13 492.67
  Q 610.06 482.58 612.26 467.35
  Q 613.39 459.47 613.50 448.69
  Q 613.66 432.62 613.34 429.92
  Q 611.64 415.58 610.29 408.73
  Q 606.46 389.34 595.80 371.43
  Q 591.38 364.00 581.28 351.47
  Q 578.55 348.09 575.91 346.58
  Q 570.87 341.71 565.48 336.71
  C 562.18 333.65 558.86 331.62 555.50 329.06
  A 0.30 0.30 0.0 0 1 555.43 328.66
  L 555.43 328.65
  A 0.26 0.26 0.0 0 1 555.78 328.56
  Q 561.12 331.36 567.72 334.51
  Q 575.82 338.40 585.33 347.32
  Z"
/>
<path fill="#398b49" d="
  M 585.33 347.32
  Q 593.31 353.18 598.17 358.83
  Q 614.26 377.58 621.33 400.91
  Q 625.45 414.51 627.17 430.95
  C 629.89 456.80 627.75 482.37 618.98 505.99
  Q 608.49 534.24 590.28 556.53
  Q 581.83 566.87 567.64 578.12
  Q 539.74 600.26 504.77 605.46
  Q 497.14 606.59 480.05 607.02
  A 0.16 0.16 0.0 0 1 479.88 606.87
  L 479.88 606.86
  A 0.17 0.17 0.0 0 1 480.03 606.68
  Q 497.61 604.37 511.55 598.77
  C 541.90 586.59 567.38 564.31 585.64 537.48
  Q 596.76 521.14 603.92 500.33
  C 614.15 470.62 615.59 437.25 609.15 407.03
  C 604.33 384.37 592.42 364.14 575.91 346.58
  Q 578.55 348.09 581.28 351.47
  Q 591.38 364.00 595.80 371.43
  Q 606.46 389.34 610.29 408.73
  Q 611.64 415.58 613.34 429.92
  Q 613.66 432.62 613.50 448.69
  Q 613.39 459.47 612.26 467.35
  Q 610.06 482.58 607.13 492.67
  Q 604.53 501.64 598.94 514.96
  Q 593.41 528.13 583.28 542.06
  Q 567.85 563.28 547.38 579.11
  Q 536.68 587.37 521.98 594.97
  Q 515.64 598.25 509.52 600.25
  Q 502.08 602.69 497.66 604.41
  A 0.36 0.36 0.0 0 0 497.80 605.11
  Q 498.58 605.08 503.63 604.86
  Q 505.89 604.77 509.41 604.02
  Q 523.31 601.07 532.70 597.36
  C 544.74 592.62 557.55 585.55 568.19 576.77
  Q 581.66 565.67 588.96 556.97
  Q 609.71 532.26 621.00 498.19
  Q 621.31 497.25 623.27 489.27
  Q 624.55 484.10 625.23 480.27
  Q 626.62 472.57 626.66 471.00
  C 626.76 466.68 627.65 463.51 627.70 459.29
  Q 627.87 444.38 627.39 440.51
  C 626.68 434.81 626.80 431.24 626.04 426.19
  Q 624.48 415.78 622.19 406.79
  Q 617.16 386.97 606.45 371.05
  Q 598.21 358.82 585.33 347.32
  Z"
/>
<path fill="#68ee80" d="
  M 456.32 548.88
  C 429.77 544.72 407.16 525.44 396.67 500.81
  C 384.44 472.09 385.33 440.21 399.82 412.30
  C 412.07 388.71 433.98 370.12 459.84 364.44
  C 491.18 357.56 523.08 366.38 542.71 392.34
  C 554.45 407.88 560.79 429.89 560.70 449.37
  Q 560.50 492.06 533.43 521.19
  Q 509.29 547.16 471.91 549.87
  Q 465.57 550.33 456.32 548.88
  Z
  M 456.56 547.95
  Q 465.71 549.38 471.98 548.93
  Q 508.97 546.23 532.84 520.53
  Q 559.61 491.70 559.80 449.46
  C 559.88 430.18 553.60 408.41 541.97 393.04
  C 522.54 367.36 490.98 358.65 459.97 365.47
  C 434.39 371.10 412.72 389.50 400.61 412.84
  C 386.28 440.46 385.41 472.00 397.52 500.42
  C 407.91 524.78 430.29 543.85 456.56 547.95
  Z"
/>
<path fill="#000201" d="
  M 456.56 547.95
  C 430.29 543.85 407.91 524.78 397.52 500.42
  C 385.41 472.00 386.28 440.46 400.61 412.84
  C 412.72 389.50 434.39 371.10 459.97 365.47
  C 490.98 358.65 522.54 367.36 541.97 393.04
  C 553.60 408.41 559.88 430.18 559.80 449.46
  Q 559.61 491.70 532.84 520.53
  Q 508.97 546.23 471.98 548.93
  Q 465.71 549.38 456.56 547.95
  Z
  M 461.24 530.99
  A 0.19 0.19 0.0 0 0 461.37 530.64
  Q 455.20 527.23 451.47 522.12
  Q 431.16 494.31 434.37 459.53
  C 436.55 436.03 449.68 415.26 467.55 399.83
  Q 480.23 388.88 496.54 382.46
  A 0.33 0.33 0.0 0 0 496.49 381.84
  C 469.88 375.89 445.38 384.62 427.18 404.37
  Q 414.53 418.09 408.88 437.48
  Q 407.23 443.14 406.72 450.64
  Q 406.11 459.55 406.24 463.99
  C 406.48 472.96 409.00 483.46 413.38 492.41
  Q 417.16 500.15 418.89 502.87
  Q 433.86 526.34 461.24 530.99
  Z
  M 455.22 497.58
  Q 459.39 509.01 467.32 518.41
  Q 473.08 525.25 478.13 528.84
  Q 480.01 530.17 481.59 530.60
  C 484.94 531.51 487.11 530.29 490.01 529.93
  A 4.07 3.61 -54.8 0 0 490.82 529.74
  Q 502.28 525.75 509.96 520.19
  C 528.24 506.94 538.97 487.08 542.69 464.67
  C 543.17 461.74 542.95 458.91 543.41 456.01
  Q 543.78 453.70 543.57 449.52
  Q 543.18 441.82 542.00 435.04
  Q 538.37 414.14 525.34 397.91
  Q 523.77 395.96 519.07 392.38
  A 1.74 1.72 63.8 0 0 518.06 392.03
  Q 512.06 391.96 511.26 392.06
  Q 500.99 393.45 491.27 399.04
  Q 470.19 411.15 458.74 433.25
  Q 449.88 450.36 449.78 469.60
  Q 449.75 477.20 451.25 483.82
  Q 453.00 491.48 455.22 497.58
  Z"
/>
<path fill="#1b5b26" d="
  M 461.24 530.99
  Q 433.86 526.34 418.89 502.87
  Q 417.16 500.15 413.38 492.41
  C 409.00 483.46 406.48 472.96 406.24 463.99
  Q 406.11 459.55 406.72 450.64
  Q 407.23 443.14 408.88 437.48
  Q 414.53 418.09 427.18 404.37
  C 445.38 384.62 469.88 375.89 496.49 381.84
  A 0.33 0.33 0.0 0 1 496.54 382.46
  Q 480.23 388.88 467.55 399.83
  C 449.68 415.26 436.55 436.03 434.37 459.53
  Q 431.16 494.31 451.47 522.12
  Q 455.20 527.23 461.37 530.64
  A 0.19 0.19 0.0 0 1 461.24 530.99
  Z"
/>
</svg>
