<?xml version="1.0" encoding="UTF-8" standalone="no"?>
<!DOCTYPE svg PUBLIC "-//W3C//DTD SVG 1.1//EN" "http://www.w3.org/Graphics/SVG/1.1/DTD/svg11.dtd">
<svg xmlns="http://www.w3.org/2000/svg" version="1.1" viewBox="0.00 0.00 1024.00 1024.00">
<g stroke-width="2.00" fill="none" stroke-linecap="butt">
<path stroke="#7f7f7f" vector-effect="non-scaling-stroke" d="
  M 755.85 224.10
  Q 700.04 144.61 610.79 107.83
  C 586.94 98.00 561.08 91.31 535.14 88.65
  Q 511.16 86.19 498.49 86.44
  Q 490.08 86.61 482.12 86.90
  C 473.03 87.24 463.22 88.54 455.76 89.51
  Q 433.18 92.43 410.25 99.03
  C 340.91 118.96 277.56 160.56 231.46 216.45
  Q 168.30 293.02 146.78 390.01
  Q 140.76 417.10 138.31 444.98
  Q 138.00 448.58 137.96 450.54
  C 137.87 455.16 137.17 459.38 137.05 464.43
  Q 136.72 477.66 136.99 495.19
  C 137.09 501.55 137.85 506.95 138.20 514.15
  Q 138.60 522.47 141.33 541.74
  Q 146.44 577.78 159.11 614.37
  C 172.30 652.45 193.37 687.00 218.73 718.14
  Q 240.42 744.78 263.37 763.79
  Q 288.38 784.51 316.37 799.41
  C 352.19 818.50 393.82 829.88 435.75 831.97
  Q 443.20 832.34 453.50 832.86
  Q 455.14 832.95 469.57 832.24
  Q 486.52 831.42 501.49 829.22
  Q 563.53 820.12 617.44 788.71
  Q 655.62 766.46 686.54 737.54
  C 723.91 702.58 754.84 662.12 776.86 616.17
  Q 793.17 582.13 801.92 552.98
  Q 811.18 522.11 815.46 484.00
  Q 821.40 431.15 814.38 377.79
  C 806.94 321.24 787.97 269.85 755.85 224.10"
/>
<path stroke="#505051" vector-effect="non-scaling-stroke" d="
  M 503.32 843.70
  C 509.35 843.83 515.25 842.63 520.32 842.51
  Q 528.69 842.31 534.17 841.78
  C 589.88 836.45 643.45 818.48 690.82 788.10
  Q 726.68 765.10 754.35 736.34
  Q 774.00 715.92 783.34 703.78
  Q 849.23 618.27 865.57 512.90
  Q 868.99 490.82 870.30 463.61
  Q 870.90 451.13 870.23 436.42
  Q 869.51 420.70 868.44 409.25
  C 865.09 373.32 857.02 337.77 843.79 304.13
  Q 821.83 248.26 781.70 202.11
  Q 759.50 176.57 734.52 157.84
  Q 708.66 138.44 679.39 123.88
  Q 668.22 118.31 656.92 113.41
  A 0.21 0.21 0.0 0 0 656.65 113.51
  L 656.65 113.52
  A 0.24 0.24 0.0 0 0 656.77 113.84
  Q 667.16 118.76 672.78 122.48
  C 708.08 145.91 738.65 174.79 762.27 207.61
  C 791.22 247.83 813.69 294.87 824.28 343.25
  Q 836.86 400.70 833.16 459.00
  Q 831.74 481.30 826.93 509.23
  Q 819.44 552.77 805.18 589.99
  C 795.96 614.04 785.03 634.62 771.61 657.10
  Q 756.02 683.19 736.20 705.44
  C 716.18 727.93 693.54 750.19 669.95 768.38
  Q 632.73 797.09 594.24 815.68
  Q 562.74 830.89 523.45 840.02
  Q 517.47 841.41 513.40 841.91
  Q 504.67 842.98 503.28 843.42
  A 0.14 0.14 0.0 0 0 503.32 843.70"
/>
<path stroke="#cecfd0" vector-effect="non-scaling-stroke" d="
  M 141.84 424.52
  C 141.70 427.06 141.11 429.50 141.32 432.28
  A 1.28 0.99 -81.9 0 1 141.31 432.46
  L 139.16 446.81
  A 5.55 5.40 46.9 0 0 139.13 448.32
  Q 139.50 450.59 138.27 462.01
  Q 137.71 467.25 137.92 489.27
  Q 138.02 500.13 138.69 503.84
  C 139.03 505.68 138.88 507.88 139.09 510.51
  Q 140.93 533.48 144.47 554.09
  Q 149.43 582.93 160.08 613.68
  Q 172.69 650.06 194.15 682.62
  Q 210.62 707.61 222.86 721.59
  C 231.08 730.97 236.24 737.13 242.87 743.75
  Q 274.55 775.36 312.57 796.17
  Q 357.29 820.65 409.03 828.09
  Q 423.64 830.19 426.70 830.11
  C 429.72 830.02 432.99 830.95 435.66 830.95
  C 453.20 830.89 468.83 831.58 485.08 830.02
  Q 559.91 822.83 623.86 783.60
  Q 652.44 766.06 674.78 746.76
  Q 697.96 726.74 719.94 701.20
  Q 748.68 667.82 768.68 629.94
  Q 781.80 605.09 792.26 577.81
  Q 802.56 550.96 808.19 522.94
  Q 818.96 469.28 816.70 417.25
  Q 815.90 399.04 813.52 380.22
  Q 810.95 359.84 806.50 340.53
  Q 795.91 294.48 773.13 253.67
  C 752.92 217.45 725.57 184.27 692.76 157.53
  C 673.64 141.94 652.81 129.03 630.76 118.04
  Q 587.89 96.66 540.26 90.47
  Q 528.83 88.99 522.78 88.93
  C 519.32 88.90 515.14 87.90 511.28 87.98
  Q 495.74 88.26 484.35 88.02
  C 480.72 87.94 476.35 88.71 472.99 88.88
  Q 470.51 89.01 464.74 89.67
  Q 439.38 92.57 420.43 97.46
  Q 358.09 113.51 305.39 150.16
  Q 280.22 167.67 264.45 182.74
  Q 201.18 243.24 167.86 325.39
  Q 157.25 351.54 150.62 378.38
  Q 145.98 397.19 142.40 419.52
  Q 141.96 422.23 141.84 424.52"
/>
<path stroke="#7e7f80" vector-effect="non-scaling-stroke" d="
  M 466.84 799.10
  Q 471.96 800.62 475.98 798.71"
/>
<path stroke="#cecfd0" vector-effect="non-scaling-stroke" d="
  M 475.98 798.71
  Q 482.77 797.93 490.21 796.94
  Q 532.89 791.26 571.24 774.24
  C 601.07 761.00 630.07 742.03 656.55 719.33
  Q 663.85 713.07 669.70 707.45
  Q 716.72 662.32 747.19 605.21
  Q 768.34 565.58 778.51 521.54
  Q 782.06 506.15 784.84 486.44
  C 785.21 483.81 785.04 481.37 785.56 478.64
  Q 785.90 476.79 786.09 472.82
  Q 786.41 466.09 787.07 462.93
  Q 787.39 461.40 787.05 454.00
  Q 786.59 443.79 787.13 425.75
  C 787.26 421.42 786.29 416.45 786.05 412.40
  Q 785.54 403.60 784.60 397.32
  C 784.11 394.05 783.94 391.22 783.59 388.87
  Q 775.47 333.58 750.86 284.13
  Q 743.25 268.83 737.17 258.56
  Q 725.27 238.41 708.94 219.75
  C 703.50 213.53 695.44 206.07 690.02 201.06
  Q 668.14 180.85 643.81 165.97
  Q 622.79 153.11 604.41 144.83
  Q 576.37 132.20 542.51 125.95
  Q 526.31 122.96 513.49 122.18
  Q 492.96 120.94 473.00 122.16
  Q 463.79 122.72 450.81 124.58
  Q 427.92 127.86 407.48 133.98
  C 347.31 151.99 294.54 186.65 253.13 233.64
  Q 235.99 253.09 221.51 274.75
  Q 192.97 317.44 178.58 366.61
  Q 168.28 401.80 164.68 434.06
  Q 163.00 449.07 162.78 464.01
  Q 162.56 479.03 162.92 494.00
  Q 163.84 532.72 173.35 570.24
  Q 195.11 656.11 256.93 717.76
  C 274.11 734.89 294.09 750.11 314.81 762.19
  Q 354.71 785.46 400.51 793.90
  Q 423.47 798.13 440.00 798.91
  Q 445.80 799.19 466.84 799.10"
/>
<path stroke="#adaeaf" vector-effect="non-scaling-stroke" d="
  M 475.98 798.71
  L 466.84 799.10"
/>
<path stroke="#7e7f80" vector-effect="non-scaling-stroke" d="
  M 141.49 430.40
  A 0.10 0.10 0.0 0 0 141.29 430.43
  L 141.44 432.38
  A 0.16 0.15 -42.7 0 0 141.75 432.39
  Q 141.85 431.81 141.49 430.40"
/>
<path stroke="#7e7f80" vector-effect="non-scaling-stroke" d="
  M 787.61 458.24
  A 0.26 0.26 0.0 0 0 787.35 457.98
  A 0.26 0.26 0.0 0 0 787.09 458.24
  A 0.26 0.26 0.0 0 0 787.35 458.50
  A 0.26 0.26 0.0 0 0 787.61 458.24"
/>
<path stroke="#7e7f80" vector-effect="non-scaling-stroke" d="
  M 678.56 124.43
  A 0.26 0.26 0.0 0 0 678.29 124.87
  Q 681.43 127.57 686.09 130.93
  C 695.50 137.73 705.80 145.63 715.34 154.37
  Q 747.29 183.63 769.85 217.38
  C 788.62 245.47 804.52 276.26 815.46 308.52
  Q 821.15 325.28 823.90 337.83
  Q 829.92 365.31 831.53 379.64
  Q 833.05 393.26 833.43 397.56
  Q 833.72 400.85 834.34 414.06
  Q 836.24 454.52 830.28 493.61
  Q 829.04 501.75 828.79 503.36
  Q 822.24 546.24 806.78 587.80
  C 796.59 615.20 782.54 641.41 766.81 666.07
  Q 757.08 681.32 749.94 690.21
  Q 720.00 727.45 681.85 759.58
  Q 655.11 782.11 620.07 802.68
  Q 596.01 816.81 572.49 825.78
  Q 546.86 835.56 521.73 841.10
  A 0.40 0.39 75.6 0 0 521.44 841.60
  L 521.44 841.62
  A 0.56 0.56 0.0 0 0 522.01 842.01
  Q 541.19 840.50 548.76 839.45
  Q 565.61 837.13 587.47 831.71
  C 650.95 815.96 708.10 782.52 753.83 735.84
  Q 792.23 696.65 817.93 649.94
  C 835.85 617.36 848.48 584.64 857.29 549.80
  Q 863.86 523.82 866.69 496.77
  Q 867.78 486.31 868.16 482.24
  Q 868.71 476.22 869.09 467.69
  Q 870.63 433.29 866.52 399.01
  Q 865.70 392.21 863.21 377.03
  Q 860.57 360.98 855.65 342.64
  Q 840.20 285.14 807.52 236.96
  Q 795.46 219.18 782.13 203.61
  Q 755.12 172.05 720.25 148.72
  Q 703.24 137.34 687.26 128.74
  Q 682.08 125.95 678.56 124.43"
/>
<path stroke="#7f7f7f" vector-effect="non-scaling-stroke" d="
  M 337.69 165.27
  C 284.95 195.70 241.45 241.48 210.85 293.84
  Q 197.06 317.45 187.30 344.00
  Q 169.41 392.67 164.91 443.83
  C 163.65 458.17 163.63 474.08 163.84 488.74
  C 164.59 541.67 177.02 595.36 201.85 641.89
  C 227.03 689.07 264.16 729.97 309.53 757.75
  Q 333.81 772.62 358.49 781.42
  Q 382.91 790.14 411.26 794.54
  Q 465.33 802.95 517.43 790.95
  C 587.21 774.89 648.48 733.23 694.94 679.43
  Q 729.86 638.99 752.29 592.56
  Q 780.58 533.99 785.11 469.51
  Q 787.16 440.22 784.71 410.26
  Q 779.37 345.14 750.90 286.69
  Q 742.88 270.22 735.60 258.03
  C 724.27 239.06 710.57 221.46 693.77 205.77
  Q 679.42 192.37 667.30 183.21
  Q 645.88 167.01 619.09 153.14
  C 581.38 133.62 539.05 122.96 496.24 122.89
  Q 480.04 122.87 475.75 123.13
  Q 462.29 123.95 445.51 126.56
  C 407.72 132.46 370.90 146.11 337.69 165.27"
/>
<path stroke="#2f2f30" vector-effect="non-scaling-stroke" d="
  M 369.08 767.22
  Q 371.58 768.72 374.59 768.43"
/>
<path stroke="#7f7f7f" vector-effect="non-scaling-stroke" d="
  M 374.59 768.43
  Q 381.42 770.74 388.63 771.62
  A 0.01 0.01 0.0 0 0 388.63 771.60
  L 376.24 767.46"
/>
<path stroke="#505051" vector-effect="non-scaling-stroke" d="
  M 376.24 767.46
  Q 373.22 765.94 365.88 762.61
  Q 355.10 757.72 343.38 750.36
  Q 319.54 735.39 301.47 718.63
  Q 249.92 670.83 224.35 606.53
  Q 215.62 584.58 211.58 565.46
  Q 201.13 516.02 202.83 464.22
  Q 205.64 378.72 247.24 304.71
  Q 268.37 267.11 293.84 238.48
  Q 349.61 175.81 429.98 146.37
  Q 448.26 139.67 461.47 136.94
  A 0.24 0.23 79.9 0 0 461.65 136.67
  L 461.65 136.66
  A 0.19 0.18 -8.1 0 0 461.44 136.51
  Q 456.45 137.24 450.97 137.79
  Q 445.06 138.39 440.57 139.18
  C 411.24 144.30 384.42 154.62 358.28 168.77
  C 312.46 193.57 273.40 228.49 243.45 271.77
  Q 209.45 320.92 192.82 376.01
  Q 182.81 409.18 178.59 451.15
  Q 178.41 452.97 178.18 459.85
  Q 178.12 461.58 177.79 468.54
  C 177.33 478.33 177.86 486.66 178.33 498.75
  Q 179.54 529.59 187.49 562.18
  Q 195.43 594.73 208.97 622.55
  Q 230.09 665.97 264.21 702.04
  C 273.42 711.79 284.79 721.60 295.08 729.66
  Q 317.81 747.48 344.80 759.19
  Q 356.48 764.26 369.08 767.22"
/>
<path stroke="#cecfd0" vector-effect="non-scaling-stroke" d="
  M 376.24 767.46
  Q 375.19 767.52 374.46 768.04"
/>
<path stroke="#7e7f80" vector-effect="non-scaling-stroke" d="
  M 374.46 768.04
  L 374.50 767.57
  A 0.51 0.50 -76.5 0 0 374.20 767.06
  Q 350.88 757.01 331.64 743.49
  C 323.97 738.10 315.93 732.07 311.41 728.24
  Q 267.86 691.33 240.57 642.42
  C 226.22 616.69 215.33 588.22 209.64 559.45
  Q 205.59 539.03 204.01 522.25
  Q 201.27 493.14 202.26 461.87
  Q 203.25 430.56 209.47 401.98
  Q 220.91 349.43 247.52 302.75
  Q 263.61 274.52 282.76 250.49
  C 306.19 221.10 335.25 195.31 368.01 175.46
  C 388.82 162.84 410.53 152.68 433.14 144.29
  Q 436.42 143.08 438.45 142.61
  Q 441.09 142.00 443.59 140.57
  A 0.45 0.45 0.0 0 0 443.30 139.73
  C 424.16 142.44 405.20 147.93 386.70 155.82
  Q 308.48 189.20 256.20 255.70
  Q 220.52 301.08 199.80 357.20
  Q 193.30 374.83 189.21 392.44
  Q 184.48 412.82 182.14 428.59
  Q 174.45 480.26 182.86 535.22
  Q 184.93 548.81 188.71 563.74
  Q 193.23 581.58 196.85 591.70
  Q 214.83 641.90 249.16 684.10
  Q 267.68 706.88 291.32 725.95
  Q 315.19 745.21 342.55 757.43
  Q 354.39 762.72 362.02 764.73
  Q 367.04 766.05 369.08 767.22"
/>
<path stroke="#adaeaf" vector-effect="non-scaling-stroke" d="
  M 374.46 768.04
  Q 374.47 768.27 374.59 768.43"
/>
<path stroke="#7f7f7f" vector-effect="non-scaling-stroke" d="
  M 322.76 228.81
  C 286.04 263.03 255.12 304.77 237.18 352.37
  Q 220.73 396.04 216.11 440.26
  Q 215.73 443.88 214.66 455.42
  C 213.70 465.85 213.94 476.89 213.96 487.33
  C 213.99 496.64 214.80 504.60 215.61 514.98
  Q 216.85 531.04 221.09 551.74
  Q 231.97 604.83 260.37 649.90
  C 298.15 709.82 357.73 755.39 427.77 769.70
  Q 489.42 782.30 550.20 761.45
  Q 602.64 743.45 646.55 706.55
  Q 657.23 697.57 664.93 689.92
  C 672.40 682.50 681.14 673.31 688.10 665.13
  Q 731.71 613.85 753.48 550.79
  Q 774.32 490.37 770.92 425.17
  Q 768.87 385.84 758.78 349.57
  C 746.99 307.15 725.66 266.12 696.48 232.78
  C 656.15 186.69 597.97 155.06 537.73 148.30
  Q 525.04 146.87 511.21 146.93
  Q 496.54 146.99 484.70 148.49
  Q 450.48 152.85 417.88 166.88
  Q 364.57 189.83 322.76 228.81"
/>
<path stroke="#adaeaf" vector-effect="non-scaling-stroke" d="
  M 217.26 441.72
  L 217.44 446.64"
/>
<path stroke="#cecfd0" vector-effect="non-scaling-stroke" d="
  M 217.44 446.64
  Q 216.61 448.49 216.34 451.07
  Q 214.42 469.45 214.97 490.00
  Q 215.05 493.13 215.68 498.16
  C 216.09 501.45 215.81 505.04 216.33 508.52
  C 216.94 512.56 216.95 515.27 217.15 518.71
  A 5.58 4.86 -57.8 0 0 217.31 519.74
  C 218.00 522.46 217.76 525.03 218.16 527.58
  Q 219.93 538.93 221.48 547.51
  C 226.71 576.34 236.50 603.51 249.98 629.54
  Q 276.15 680.11 320.78 716.98
  Q 355.51 745.67 398.37 760.40
  Q 420.90 768.14 441.88 770.86
  Q 445.93 771.38 447.10 771.69
  A 3.57 3.45 51.2 0 0 447.97 771.80
  Q 453.32 771.83 458.99 772.86
  Q 460.00 773.04 462.02 772.71"
/>
<path stroke="#adaeaf" vector-effect="non-scaling-stroke" d="
  M 462.02 772.71
  L 485.62 772.44"
/>
<path stroke="#cecfd0" vector-effect="non-scaling-stroke" d="
  M 485.62 772.44
  Q 487.53 773.06 490.00 772.79
  Q 503.76 771.28 505.51 771.03
  Q 528.43 767.88 551.18 759.94
  Q 604.10 741.49 648.27 703.78
  Q 658.87 694.73 667.20 686.21
  C 672.83 680.44 679.28 673.66 684.90 667.26
  C 724.86 621.74 753.77 563.60 764.75 503.26
  Q 767.94 485.73 769.46 467.06
  Q 770.25 457.46 770.20 447.42
  Q 770.12 430.19 769.97 427.75
  Q 768.42 401.02 764.14 377.54
  C 751.17 306.43 712.73 237.61 653.33 195.01
  Q 616.54 168.63 573.21 156.33
  Q 559.89 152.54 540.26 149.84
  C 535.11 149.12 531.73 149.24 527.33 148.60
  C 521.55 147.75 516.41 147.95 509.72 147.94
  C 503.21 147.93 497.60 148.89 491.60 149.11
  Q 488.02 149.25 481.43 150.18
  Q 448.87 154.76 418.23 167.98
  Q 369.30 189.10 331.51 222.26
  Q 305.70 244.91 286.52 269.25
  Q 266.21 295.02 254.01 318.03
  Q 223.81 375.02 217.26 441.72"
/>
<path stroke="#7e7f80" vector-effect="non-scaling-stroke" d="
  M 485.62 772.44
  L 461.68 772.26
  A 0.18 0.17 -26.2 0 0 461.57 772.57
  Q 461.73 772.69 462.02 772.71"
/>
<path stroke="#7e7f80" vector-effect="non-scaling-stroke" d="
  M 217.44 446.64
  Q 218.93 443.02 217.26 441.72"
/>
<path stroke="#7e7f80" vector-effect="non-scaling-stroke" d="
  M 643.21 446.92
  Q 644.31 442.82 642.56 440.19"
/>
<path stroke="#cecfd0" vector-effect="non-scaling-stroke" d="
  M 642.56 440.19
  Q 641.91 425.27 638.09 408.70
  Q 627.48 362.55 591.28 333.51
  Q 567.61 314.52 537.70 305.00
  Q 513.39 297.25 488.90 298.01
  Q 463.03 298.82 440.55 307.58
  Q 399.00 323.78 369.89 359.08
  Q 342.26 392.60 334.59 437.71
  Q 334.30 439.39 334.07 443.29
  C 333.80 448.01 333.02 452.00 332.98 457.20
  C 332.94 462.86 332.79 471.63 333.53 478.10
  Q 334.36 485.36 334.75 488.24
  C 339.85 526.44 357.69 562.56 388.15 586.88
  Q 424.81 616.14 472.03 619.85
  Q 475.43 620.12 491.21 620.07
  Q 497.96 620.05 504.23 618.95
  Q 515.03 617.05 517.10 616.57
  Q 539.81 611.31 558.93 599.67
  Q 579.20 587.33 593.06 572.81
  Q 627.39 536.85 639.32 485.70
  C 639.94 483.07 639.98 480.02 640.95 477.88
  A 2.61 2.60 59.6 0 0 641.20 476.91
  C 641.49 472.37 642.14 469.47 642.20 465.02
  Q 642.24 462.36 643.05 458.30
  A 4.07 4.05 51.2 0 0 643.14 457.45
  L 643.21 446.92"
/>
<path stroke="#adaeaf" vector-effect="non-scaling-stroke" d="
  M 642.56 440.19
  L 643.21 446.92"
/>
<path stroke="#7f7f7f" vector-effect="non-scaling-stroke" d="
  M 441.20 308.48
  C 385.64 329.95 343.14 380.77 335.50 440.34
  C 334.97 444.48 334.99 447.79 334.48 451.55
  Q 334.06 454.65 334.01 460.00
  C 333.64 503.49 347.88 548.59 380.43 578.80
  Q 416.63 612.38 465.96 617.99
  Q 521.86 624.36 568.24 592.50
  C 611.12 563.05 639.11 510.81 641.39 458.91
  Q 642.46 434.44 637.39 410.92
  Q 625.98 358.09 581.65 327.64
  Q 546.25 303.32 503.77 299.61
  C 493.03 298.67 483.14 299.31 472.78 300.55
  Q 456.70 302.49 441.20 308.48"
/>
<path stroke="#7f7f7f" vector-effect="non-scaling-stroke" d="
  M 599.51 437.49
  C 596.41 386.23 565.22 338.50 515.33 322.17
  Q 505.57 318.97 492.75 318.01
  Q 459.91 315.55 431.32 330.35
  C 393.33 350.01 364.48 384.80 353.82 426.32
  Q 349.06 444.87 349.49 465.01
  C 350.09 492.79 357.27 519.71 372.31 543.11
  C 389.57 569.96 416.88 587.87 448.29 592.60
  Q 451.68 593.11 453.95 593.49
  C 459.80 594.46 465.84 594.00 472.41 593.98
  C 475.27 593.97 477.84 593.18 480.52 593.07
  Q 483.47 592.94 486.61 592.32
  Q 521.96 585.37 548.66 560.90
  C 579.33 532.80 596.79 495.52 599.69 453.74
  Q 600.12 447.49 599.51 437.49"
/>
<path stroke="#2f2f30" vector-effect="non-scaling-stroke" d="
  M 493.67 605.07
  Q 496.53 606.42 498.78 605.44"
/>
<path stroke="#505051" vector-effect="non-scaling-stroke" d="
  M 498.78 605.44
  Q 520.77 603.62 540.12 594.36
  Q 587.18 571.86 611.04 524.27
  Q 624.08 498.27 627.53 468.52
  C 632.03 429.76 624.53 389.17 598.88 359.65
  Q 580.58 338.60 553.63 326.99
  A 0.17 0.17 0.0 0 0 553.40 327.13
  L 553.34 327.47
  A 0.04 0.03 14.9 0 0 553.36 327.50
  Q 566.48 335.80 578.88 349.90
  Q 603.03 377.36 609.33 410.62
  C 616.08 446.26 611.78 485.17 595.02 518.04
  C 573.36 560.52 531.83 599.99 482.75 605.56
  A 0.19 0.19 0.0 0 0 482.58 605.76
  L 482.58 605.77
  A 0.24 0.21 86.4 0 0 482.81 606.00
  L 493.67 605.07"
/>
<path stroke="#7e7f80" vector-effect="non-scaling-stroke" d="
  M 498.78 605.44
  Q 498.21 605.06 499.51 604.92
  Q 523.03 602.49 544.47 591.44
  Q 555.11 585.95 566.88 577.13
  C 595.55 555.67 614.74 523.32 623.27 488.80
  Q 625.44 480.03 626.67 469.78
  Q 627.96 459.01 628.11 450.50
  Q 628.28 441.18 627.25 431.27
  C 625.71 416.43 622.18 400.67 616.11 387.76
  Q 608.29 371.17 596.86 358.30
  C 593.49 354.50 588.38 350.41 585.80 347.88
  Q 583.41 345.54 578.92 342.49
  C 575.62 340.26 571.12 336.11 566.36 334.35
  A 0.78 0.78 0.0 0 0 565.57 335.67
  C 588.48 355.79 605.09 382.21 610.40 412.30
  Q 612.97 426.84 613.02 447.56
  C 613.02 450.29 612.29 453.90 612.46 456.92
  Q 612.60 459.58 611.93 463.94
  Q 609.28 481.10 608.19 485.21
  Q 596.88 527.63 565.79 560.81
  C 549.19 578.52 528.16 593.67 505.27 601.25
  Q 499.57 603.14 493.67 605.07"
/>
<path stroke="#adaeaf" vector-effect="non-scaling-stroke" d="
  M 350.97 467.26
  Q 351.03 467.41 351.09 467.55"
/>
<path stroke="#cecfd0" vector-effect="non-scaling-stroke" d="
  M 351.09 467.55
  L 351.07 468.24"
/>
<path stroke="#adaeaf" vector-effect="non-scaling-stroke" d="
  M 351.07 468.24
  Q 351.08 468.39 351.09 468.55"
/>
<path stroke="#cecfd0" vector-effect="non-scaling-stroke" d="
  M 351.09 468.55
  Q 350.90 469.95 350.94 470.50
  C 352.43 496.13 359.03 519.89 372.72 541.78
  Q 391.06 571.09 423.05 584.43
  Q 442.84 592.69 466.19 592.93
  Q 470.93 592.98 477.70 592.24
  Q 486.10 591.32 489.12 590.62
  Q 509.65 585.90 524.53 577.24
  C 564.98 553.69 591.29 511.39 597.40 464.85
  Q 597.95 460.73 598.16 457.01
  C 598.42 452.44 599.20 447.42 598.65 442.83
  Q 598.26 439.62 598.18 436.51
  Q 598.08 432.29 597.36 427.03
  Q 591.85 386.79 565.50 356.53
  Q 546.07 334.21 517.03 323.88
  C 509.59 321.23 501.63 319.92 494.06 319.42
  Q 490.80 319.21 481.52 319.06
  Q 474.88 318.96 469.02 319.74
  Q 458.30 321.17 449.13 324.17
  C 416.84 334.72 389.38 358.31 371.65 387.14
  Q 356.84 411.23 352.47 438.68
  C 351.96 441.84 351.94 444.36 351.34 447.15
  A 5.99 5.80 52.2 0 0 351.20 448.43
  L 350.97 467.26"
/>
<path stroke="#7e7f80" vector-effect="non-scaling-stroke" d="
  M 351.09 468.55
  Q 351.65 468.63 351.07 468.24"
/>
<path stroke="#7e7f80" vector-effect="non-scaling-stroke" d="
  M 351.09 467.55
  Q 351.75 467.59 350.97 467.26"
/>
<path stroke="#7e7f80" vector-effect="non-scaling-stroke" d="
  M 561.20 446.82
  Q 561.98 444.71 560.95 443.46"
/>
<path stroke="#cecfd0" vector-effect="non-scaling-stroke" d="
  M 560.95 443.46
  C 560.02 440.09 559.79 435.96 559.32 433.15
  C 556.66 417.40 550.32 401.59 540.17 389.49
  Q 524.70 371.04 500.69 364.50
  C 483.30 359.77 463.66 361.29 446.92 368.20
  Q 426.41 376.67 411.60 394.05
  Q 391.85 417.23 387.51 447.92
  C 386.72 453.51 386.80 462.37 387.11 466.42
  A 11.21 8.10 -89.7 0 0 387.31 467.98
  C 387.91 471.21 387.98 473.79 388.45 476.54
  C 392.92 502.55 406.71 526.11 429.14 540.19
  C 446.51 551.09 468.13 553.78 487.94 549.14
  C 500.56 546.19 511.89 540.08 522.04 532.02
  Q 548.20 511.26 557.14 478.63
  Q 561.21 463.80 561.20 446.82"
/>
<path stroke="#adaeaf" vector-effect="non-scaling-stroke" d="
  M 560.95 443.46
  L 561.20 446.82"
/>
<path stroke="#7f7f7f" vector-effect="non-scaling-stroke" d="
  M 471.44 363.34
  C 448.07 365.45 425.90 377.74 410.95 396.41
  C 392.28 419.74 384.94 446.83 389.56 475.94
  C 393.82 502.71 408.93 527.90 432.47 540.98
  C 455.52 553.78 485.33 552.79 507.71 540.37
  C 540.40 522.23 559.59 488.48 559.46 451.04
  C 559.35 422.09 548.54 393.08 524.89 376.83
  Q 501.33 360.64 471.44 363.34"
/>
<path stroke="#7f7f7f" vector-effect="non-scaling-stroke" d="
  M 430.45 517.61
  Q 440.09 525.63 452.20 528.56
  Q 456.42 529.58 460.62 530.58
  A 0.25 0.25 0.0 0 0 460.92 530.41
  L 460.92 530.40
  A 0.28 0.25 20.6 0 0 460.76 530.09
  L 456.05 527.92"
/>
<path stroke="#505051" vector-effect="non-scaling-stroke" d="
  M 456.05 527.92
  Q 451.99 523.84 448.96 519.05
  Q 431.59 491.67 434.07 459.75
  C 435.74 438.15 445.36 419.23 459.90 403.40
  C 469.26 393.20 482.12 384.09 496.03 382.64
  A 0.10 0.10 0.0 0 0 496.05 382.44
  C 472.10 376.06 449.58 383.45 431.65 399.92
  Q 409.41 420.37 405.57 448.60
  C 402.20 473.40 410.78 501.35 430.45 517.61"
/>
<path stroke="#cecfd0" vector-effect="non-scaling-stroke" d="
  M 456.05 527.92
  Q 455.84 527.94 455.77 528.21
  A 0.34 0.33 -82.8 0 1 455.43 528.48
  L 454.90 528.45"
/>
<path stroke="#7e7f80" vector-effect="non-scaling-stroke" d="
  M 454.90 528.45
  Q 455.45 528.17 455.31 528.03
  Q 451.72 524.56 449.04 520.47
  Q 434.30 498.01 432.95 471.68
  C 431.57 444.80 442.10 421.39 460.33 401.90
  Q 473.04 388.32 490.11 382.73
  A 0.40 0.40 0.0 0 0 490.06 381.96
  C 463.01 376.69 438.26 390.59 421.91 411.59
  Q 412.13 424.16 408.27 439.09
  Q 401.97 463.47 410.83 487.93
  Q 417.07 505.16 430.48 516.92"
/>
<path stroke="#cecfd0" vector-effect="non-scaling-stroke" d="
  M 430.48 516.92
  Q 430.64 517.46 430.45 517.61"
/>
<path stroke="#adaeaf" vector-effect="non-scaling-stroke" d="
  M 454.90 528.45
  Q 441.43 526.04 430.48 516.92"
/>
</g>
<path fill="#000000" d="
  M 831.77 658.32
  Q 824.81 670.90 812.96 688.96
  C 796.30 714.34 775.58 738.41 753.41 760.07
  Q 749.46 763.94 743.67 768.99
  Q 735.70 775.97 733.67 777.66
  Q 718.04 790.68 699.61 802.82
  Q 640.73 841.58 571.72 854.91
  Q 564.07 856.39 562.43 856.61
  Q 550.73 858.17 546.99 858.67
  Q 539.77 859.63 522.27 860.76
  Q 509.15 861.62 476.95 861.01
  C 472.37 860.93 467.39 859.90 463.26 859.95
  C 459.76 859.99 456.96 859.11 453.28 858.99
  Q 452.47 858.96 449.28 858.61
  Q 426.84 856.10 404.50 851.01
  Q 341.65 836.67 288.35 800.90
  Q 272.12 790.02 257.60 777.96
  Q 241.66 764.71 229.39 751.98
  C 198.32 719.71 172.69 682.24 154.76 640.75
  Q 134.34 593.52 127.04 542.25
  Q 126.64 539.44 125.62 532.22
  Q 125.03 528.06 124.94 526.00
  Q 124.78 522.21 124.32 520.55
  A 6.29 6.23 -53.3 0 1 124.10 518.98
  C 124.05 514.65 123.22 510.57 123.13 506.95
  Q 122.90 498.52 122.28 485.03
  C 121.75 473.45 122.76 463.62 123.17 450.30
  A 4.50 4.29 53.9 0 1 123.30 449.32
  C 124.08 446.07 123.86 442.66 124.21 439.46
  Q 128.06 403.42 136.03 372.50
  Q 145.06 337.48 161.93 299.20
  Q 164.97 292.30 173.17 276.87
  Q 188.62 247.78 205.34 225.82
  Q 209.12 220.85 210.19 219.36
  Q 212.82 215.70 215.06 212.87
  Q 273.86 138.86 360.28 100.04
  Q 367.57 96.77 385.52 90.00
  Q 416.40 78.37 455.72 71.65
  Q 460.03 70.92 461.77 70.88
  A 3.83 3.78 -53.5 0 0 462.79 70.72
  L 463.99 70.35
  A 5.70 5.53 -53.6 0 1 465.54 70.09
  Q 469.54 69.97 472.37 69.26
  A 4.46 4.42 38.6 0 1 473.59 69.13
  Q 474.50 69.17 482.38 68.46
  Q 502.84 66.61 520.24 67.31
  Q 532.72 67.82 548.23 69.17
  Q 586.51 72.53 625.60 84.19
  Q 679.81 100.36 725.94 131.86
  Q 748.60 147.35 767.98 165.03
  Q 781.18 177.08 793.21 190.80
  Q 846.43 251.46 869.39 326.08
  Q 880.61 362.54 885.52 403.41
  Q 885.98 407.26 886.09 410.13
  C 886.21 413.37 886.99 416.02 886.98 419.08
  C 886.96 425.04 887.95 430.92 887.99 436.81
  Q 888.10 450.76 887.98 460.80
  C 887.92 466.09 887.06 471.24 887.01 476.28
  Q 886.96 480.46 886.39 483.37
  C 885.87 486.05 886.02 489.12 885.62 492.84
  Q 885.29 495.88 883.56 508.37
  Q 875.16 569.14 849.07 624.31
  Q 848.83 624.83 847.87 626.98
  Q 842.58 638.80 831.77 658.32
  Z
  M 755.85 224.10
  Q 700.04 144.61 610.79 107.83
  C 586.94 98.00 561.08 91.31 535.14 88.65
  Q 511.16 86.19 498.49 86.44
  Q 490.08 86.61 482.12 86.90
  C 473.03 87.24 463.22 88.54 455.76 89.51
  Q 433.18 92.43 410.25 99.03
  C 340.91 118.96 277.56 160.56 231.46 216.45
  Q 168.30 293.02 146.78 390.01
  Q 140.76 417.10 138.31 444.98
  Q 138.00 448.58 137.96 450.54
  C 137.87 455.16 137.17 459.38 137.05 464.43
  Q 136.72 477.66 136.99 495.19
  C 137.09 501.55 137.85 506.95 138.20 514.15
  Q 138.60 522.47 141.33 541.74
  Q 146.44 577.78 159.11 614.37
  C 172.30 652.45 193.37 687.00 218.73 718.14
  Q 240.42 744.78 263.37 763.79
  Q 288.38 784.51 316.37 799.41
  C 352.19 818.50 393.82 829.88 435.75 831.97
  Q 443.20 832.34 453.50 832.86
  Q 455.14 832.95 469.57 832.24
  Q 486.52 831.42 501.49 829.22
  Q 563.53 820.12 617.44 788.71
  Q 655.62 766.46 686.54 737.54
  C 723.91 702.58 754.84 662.12 776.86 616.17
  Q 793.17 582.13 801.92 552.98
  Q 811.18 522.11 815.46 484.00
  Q 821.40 431.15 814.38 377.79
  C 806.94 321.24 787.97 269.85 755.85 224.10
  Z
  M 503.32 843.70
  C 509.35 843.83 515.25 842.63 520.32 842.51
  Q 528.69 842.31 534.17 841.78
  C 589.88 836.45 643.45 818.48 690.82 788.10
  Q 726.68 765.10 754.35 736.34
  Q 774.00 715.92 783.34 703.78
  Q 849.23 618.27 865.57 512.90
  Q 868.99 490.82 870.30 463.61
  Q 870.90 451.13 870.23 436.42
  Q 869.51 420.70 868.44 409.25
  C 865.09 373.32 857.02 337.77 843.79 304.13
  Q 821.83 248.26 781.70 202.11
  Q 759.50 176.57 734.52 157.84
  Q 708.66 138.44 679.39 123.88
  Q 668.22 118.31 656.92 113.41
  A 0.21 0.21 0.0 0 0 656.65 113.51
  L 656.65 113.52
  A 0.24 0.24 0.0 0 0 656.77 113.84
  Q 667.16 118.76 672.78 122.48
  C 708.08 145.91 738.65 174.79 762.27 207.61
  C 791.22 247.83 813.69 294.87 824.28 343.25
  Q 836.86 400.70 833.16 459.00
  Q 831.74 481.30 826.93 509.23
  Q 819.44 552.77 805.18 589.99
  C 795.96 614.04 785.03 634.62 771.61 657.10
  Q 756.02 683.19 736.20 705.44
  C 716.18 727.93 693.54 750.19 669.95 768.38
  Q 632.73 797.09 594.24 815.68
  Q 562.74 830.89 523.45 840.02
  Q 517.47 841.41 513.40 841.91
  Q 504.67 842.98 503.28 843.42
  A 0.14 0.14 0.0 0 0 503.32 843.70
  Z"
/>
<path fill="#fefeff" fill-opacity="0.996" d="
  M 755.85 224.10
  C 787.97 269.85 806.94 321.24 814.38 377.79
  Q 821.40 431.15 815.46 484.00
  Q 811.18 522.11 801.92 552.98
  Q 793.17 582.13 776.86 616.17
  C 754.84 662.12 723.91 702.58 686.54 737.54
  Q 655.62 766.46 617.44 788.71
  Q 563.53 820.12 501.49 829.22
  Q 486.52 831.42 469.57 832.24
  Q 455.14 832.95 453.50 832.86
  Q 443.20 832.34 435.75 831.97
  C 393.82 829.88 352.19 818.50 316.37 799.41
  Q 288.38 784.51 263.37 763.79
  Q 240.42 744.78 218.73 718.14
  C 193.37 687.00 172.30 652.45 159.11 614.37
  Q 146.44 577.78 141.33 541.74
  Q 138.60 522.47 138.20 514.15
  C 137.85 506.95 137.09 501.55 136.99 495.19
  Q 136.72 477.66 137.05 464.43
  C 137.17 459.38 137.87 455.16 137.96 450.54
  Q 138.00 448.58 138.31 444.98
  Q 140.76 417.10 146.78 390.01
  Q 168.30 293.02 231.46 216.45
  C 277.56 160.56 340.91 118.96 410.25 99.03
  Q 433.18 92.43 455.76 89.51
  C 463.22 88.54 473.03 87.24 482.12 86.90
  Q 490.08 86.61 498.49 86.44
  Q 511.16 86.19 535.14 88.65
  C 561.08 91.31 586.94 98.00 610.79 107.83
  Q 700.04 144.61 755.85 224.10
  Z
  M 141.84 424.52
  C 141.70 427.06 141.11 429.50 141.32 432.28
  A 1.28 0.99 -81.9 0 1 141.31 432.46
  L 139.16 446.81
  A 5.55 5.40 46.9 0 0 139.13 448.32
  Q 139.50 450.59 138.27 462.01
  Q 137.71 467.25 137.92 489.27
  Q 138.02 500.13 138.69 503.84
  C 139.03 505.68 138.88 507.88 139.09 510.51
  Q 140.93 533.48 144.47 554.09
  Q 149.43 582.93 160.08 613.68
  Q 172.69 650.06 194.15 682.62
  Q 210.62 707.61 222.86 721.59
  C 231.08 730.97 236.24 737.13 242.87 743.75
  Q 274.55 775.36 312.57 796.17
  Q 357.29 820.65 409.03 828.09
  Q 423.64 830.19 426.70 830.11
  C 429.72 830.02 432.99 830.95 435.66 830.95
  C 453.20 830.89 468.83 831.58 485.08 830.02
  Q 559.91 822.83 623.86 783.60
  Q 652.44 766.06 674.78 746.76
  Q 697.96 726.74 719.94 701.20
  Q 748.68 667.82 768.68 629.94
  Q 781.80 605.09 792.26 577.81
  Q 802.56 550.96 808.19 522.94
  Q 818.96 469.28 816.70 417.25
  Q 815.90 399.04 813.52 380.22
  Q 810.95 359.84 806.50 340.53
  Q 795.91 294.48 773.13 253.67
  C 752.92 217.45 725.57 184.27 692.76 157.53
  C 673.64 141.94 652.81 129.03 630.76 118.04
  Q 587.89 96.66 540.26 90.47
  Q 528.83 88.99 522.78 88.93
  C 519.32 88.90 515.14 87.90 511.28 87.98
  Q 495.74 88.26 484.35 88.02
  C 480.72 87.94 476.35 88.71 472.99 88.88
  Q 470.51 89.01 464.74 89.67
  Q 439.38 92.57 420.43 97.46
  Q 358.09 113.51 305.39 150.16
  Q 280.22 167.67 264.45 182.74
  Q 201.18 243.24 167.86 325.39
  Q 157.25 351.54 150.62 378.38
  Q 145.98 397.19 142.40 419.52
  Q 141.96 422.23 141.84 424.52
  Z"
/>
<path fill="#9fa0a1" d="
  M 141.32 432.28
  C 141.11 429.50 141.70 427.06 141.84 424.52
  Q 141.96 422.23 142.40 419.52
  Q 145.98 397.19 150.62 378.38
  Q 157.25 351.54 167.86 325.39
  Q 201.18 243.24 264.45 182.74
  Q 280.22 167.67 305.39 150.16
  Q 358.09 113.51 420.43 97.46
  Q 439.38 92.57 464.74 89.67
  Q 470.51 89.01 472.99 88.88
  C 476.35 88.71 480.72 87.94 484.35 88.02
  Q 495.74 88.26 511.28 87.98
  C 515.14 87.90 519.32 88.90 522.78 88.93
  Q 528.83 88.99 540.26 90.47
  Q 587.89 96.66 630.76 118.04
  C 652.81 129.03 673.64 141.94 692.76 157.53
  C 725.57 184.27 752.92 217.45 773.13 253.67
  Q 795.91 294.48 806.50 340.53
  Q 810.95 359.84 813.52 380.22
  Q 815.90 399.04 816.70 417.25
  Q 818.96 469.28 808.19 522.94
  Q 802.56 550.96 792.26 577.81
  Q 781.80 605.09 768.68 629.94
  Q 748.68 667.82 719.94 701.20
  Q 697.96 726.74 674.78 746.76
  Q 652.44 766.06 623.86 783.60
  Q 559.91 822.83 485.08 830.02
  C 468.83 831.58 453.20 830.89 435.66 830.95
  C 432.99 830.95 429.72 830.02 426.70 830.11
  Q 423.64 830.19 409.03 828.09
  Q 357.29 820.65 312.57 796.17
  Q 274.55 775.36 242.87 743.75
  C 236.24 737.13 231.08 730.97 222.86 721.59
  Q 210.62 707.61 194.15 682.62
  Q 172.69 650.06 160.08 613.68
  Q 149.43 582.93 144.47 554.09
  Q 140.93 533.48 139.09 510.51
  C 138.88 507.88 139.03 505.68 138.69 503.84
  Q 138.02 500.13 137.92 489.27
  Q 137.71 467.25 138.27 462.01
  Q 139.50 450.59 139.13 448.32
  A 5.55 5.40 46.9 0 1 139.16 446.81
  L 141.31 432.46
  A 1.28 0.99 -81.9 0 0 141.32 432.28
  Z
  M 466.84 799.10
  Q 471.96 800.62 475.98 798.71
  Q 482.77 797.93 490.21 796.94
  Q 532.89 791.26 571.24 774.24
  C 601.07 761.00 630.07 742.03 656.55 719.33
  Q 663.85 713.07 669.70 707.45
  Q 716.72 662.32 747.19 605.21
  Q 768.34 565.58 778.51 521.54
  Q 782.06 506.15 784.84 486.44
  C 785.21 483.81 785.04 481.37 785.56 478.64
  Q 785.90 476.79 786.09 472.82
  Q 786.41 466.09 787.07 462.93
  Q 787.39 461.40 787.05 454.00
  Q 786.59 443.79 787.13 425.75
  C 787.26 421.42 786.29 416.45 786.05 412.40
  Q 785.54 403.60 784.60 397.32
  C 784.11 394.05 783.94 391.22 783.59 388.87
  Q 775.47 333.58 750.86 284.13
  Q 743.25 268.83 737.17 258.56
  Q 725.27 238.41 708.94 219.75
  C 703.50 213.53 695.44 206.07 690.02 201.06
  Q 668.14 180.85 643.81 165.97
  Q 622.79 153.11 604.41 144.83
  Q 576.37 132.20 542.51 125.95
  Q 526.31 122.96 513.49 122.18
  Q 492.96 120.94 473.00 122.16
  Q 463.79 122.72 450.81 124.58
  Q 427.92 127.86 407.48 133.98
  C 347.31 151.99 294.54 186.65 253.13 233.64
  Q 235.99 253.09 221.51 274.75
  Q 192.97 317.44 178.58 366.61
  Q 168.28 401.80 164.68 434.06
  Q 163.00 449.07 162.78 464.01
  Q 162.56 479.03 162.92 494.00
  Q 163.84 532.72 173.35 570.24
  Q 195.11 656.11 256.93 717.76
  C 274.11 734.89 294.09 750.11 314.81 762.19
  Q 354.71 785.46 400.51 793.90
  Q 423.47 798.13 440.00 798.91
  Q 445.80 799.19 466.84 799.10
  Z
  M 141.49 430.40
  A 0.10 0.10 0.0 0 0 141.29 430.43
  L 141.44 432.38
  A 0.16 0.15 -42.7 0 0 141.75 432.39
  Q 141.85 431.81 141.49 430.40
  Z
  M 787.61 458.24
  A 0.26 0.26 0.0 0 0 787.35 457.98
  A 0.26 0.26 0.0 0 0 787.09 458.24
  A 0.26 0.26 0.0 0 0 787.35 458.50
  A 0.26 0.26 0.0 0 0 787.61 458.24
  Z"
/>
<path fill="#9fa0a1" d="
  M 503.28 843.42
  Q 504.67 842.98 513.40 841.91
  Q 517.47 841.41 523.45 840.02
  Q 562.74 830.89 594.24 815.68
  Q 632.73 797.09 669.95 768.38
  C 693.54 750.19 716.18 727.93 736.20 705.44
  Q 756.02 683.19 771.61 657.10
  C 785.03 634.62 795.96 614.04 805.18 589.99
  Q 819.44 552.77 826.93 509.23
  Q 831.74 481.30 833.16 459.00
  Q 836.86 400.70 824.28 343.25
  C 813.69 294.87 791.22 247.83 762.27 207.61
  C 738.65 174.79 708.08 145.91 672.78 122.48
  Q 667.16 118.76 656.77 113.84
  A 0.24 0.24 0.0 0 1 656.65 113.52
  L 656.65 113.51
  A 0.21 0.21 0.0 0 1 656.92 113.41
  Q 668.22 118.31 679.39 123.88
  Q 708.66 138.44 734.52 157.84
  Q 759.50 176.57 781.70 202.11
  Q 821.83 248.26 843.79 304.13
  C 857.02 337.77 865.09 373.32 868.44 409.25
  Q 869.51 420.70 870.23 436.42
  Q 870.90 451.13 870.30 463.61
  Q 868.99 490.82 865.57 512.90
  Q 849.23 618.27 783.34 703.78
  Q 774.00 715.92 754.35 736.34
  Q 726.68 765.10 690.82 788.10
  C 643.45 818.48 589.88 836.45 534.17 841.78
  Q 528.69 842.31 520.32 842.51
  C 515.25 842.63 509.35 843.83 503.32 843.70
  A 0.14 0.14 0.0 0 1 503.28 843.42
  Z
  M 678.56 124.43
  A 0.26 0.26 0.0 0 0 678.29 124.87
  Q 681.43 127.57 686.09 130.93
  C 695.50 137.73 705.80 145.63 715.34 154.37
  Q 747.29 183.63 769.85 217.38
  C 788.62 245.47 804.52 276.26 815.46 308.52
  Q 821.15 325.28 823.90 337.83
  Q 829.92 365.31 831.53 379.64
  Q 833.05 393.26 833.43 397.56
  Q 833.72 400.85 834.34 414.06
  Q 836.24 454.52 830.28 493.61
  Q 829.04 501.75 828.79 503.36
  Q 822.24 546.24 806.78 587.80
  C 796.59 615.20 782.54 641.41 766.81 666.07
  Q 757.08 681.32 749.94 690.21
  Q 720.00 727.45 681.85 759.58
  Q 655.11 782.11 620.07 802.68
  Q 596.01 816.81 572.49 825.78
  Q 546.86 835.56 521.73 841.10
  A 0.40 0.39 75.6 0 0 521.44 841.60
  L 521.44 841.62
  A 0.56 0.56 0.0 0 0 522.01 842.01
  Q 541.19 840.50 548.76 839.45
  Q 565.61 837.13 587.47 831.71
  C 650.95 815.96 708.10 782.52 753.83 735.84
  Q 792.23 696.65 817.93 649.94
  C 835.85 617.36 848.48 584.64 857.29 549.80
  Q 863.86 523.82 866.69 496.77
  Q 867.78 486.31 868.16 482.24
  Q 868.71 476.22 869.09 467.69
  Q 870.63 433.29 866.52 399.01
  Q 865.70 392.21 863.21 377.03
  Q 860.57 360.98 855.65 342.64
  Q 840.20 285.14 807.52 236.96
  Q 795.46 219.18 782.13 203.61
  Q 755.12 172.05 720.25 148.72
  Q 703.24 137.34 687.26 128.74
  Q 682.08 125.95 678.56 124.43
  Z"
/>
<path fill="#fefeff" fill-opacity="0.996" d="
  M 475.98 798.71
  L 466.84 799.10
  Q 445.80 799.19 440.00 798.91
  Q 423.47 798.13 400.51 793.90
  Q 354.71 785.46 314.81 762.19
  C 294.09 750.11 274.11 734.89 256.93 717.76
  Q 195.11 656.11 173.35 570.24
  Q 163.84 532.72 162.92 494.00
  Q 162.56 479.03 162.78 464.01
  Q 163.00 449.07 164.68 434.06
  Q 168.28 401.80 178.58 366.61
  Q 192.97 317.44 221.51 274.75
  Q 235.99 253.09 253.13 233.64
  C 294.54 186.65 347.31 151.99 407.48 133.98
  Q 427.92 127.86 450.81 124.58
  Q 463.79 122.72 473.00 122.16
  Q 492.96 120.94 513.49 122.18
  Q 526.31 122.96 542.51 125.95
  Q 576.37 132.20 604.41 144.83
  Q 622.79 153.11 643.81 165.97
  Q 668.14 180.85 690.02 201.06
  C 695.44 206.07 703.50 213.53 708.94 219.75
  Q 725.27 238.41 737.17 258.56
  Q 743.25 268.83 750.86 284.13
  Q 775.47 333.58 783.59 388.87
  C 783.94 391.22 784.11 394.05 784.60 397.32
  Q 785.54 403.60 786.05 412.40
  C 786.29 416.45 787.26 421.42 787.13 425.75
  Q 786.59 443.79 787.05 454.00
  Q 787.39 461.40 787.07 462.93
  Q 786.41 466.09 786.09 472.82
  Q 785.90 476.79 785.56 478.64
  C 785.04 481.37 785.21 483.81 784.84 486.44
  Q 782.06 506.15 778.51 521.54
  Q 768.34 565.58 747.19 605.21
  Q 716.72 662.32 669.70 707.45
  Q 663.85 713.07 656.55 719.33
  C 630.07 742.03 601.07 761.00 571.24 774.24
  Q 532.89 791.26 490.21 796.94
  Q 482.77 797.93 475.98 798.71
  Z
  M 337.69 165.27
  C 284.95 195.70 241.45 241.48 210.85 293.84
  Q 197.06 317.45 187.30 344.00
  Q 169.41 392.67 164.91 443.83
  C 163.65 458.17 163.63 474.08 163.84 488.74
  C 164.59 541.67 177.02 595.36 201.85 641.89
  C 227.03 689.07 264.16 729.97 309.53 757.75
  Q 333.81 772.62 358.49 781.42
  Q 382.91 790.14 411.26 794.54
  Q 465.33 802.95 517.43 790.95
  C 587.21 774.89 648.48 733.23 694.94 679.43
  Q 729.86 638.99 752.29 592.56
  Q 780.58 533.99 785.11 469.51
  Q 787.16 440.22 784.71 410.26
  Q 779.37 345.14 750.90 286.69
  Q 742.88 270.22 735.60 258.03
  C 724.27 239.06 710.57 221.46 693.77 205.77
  Q 679.42 192.37 667.30 183.21
  Q 645.88 167.01 619.09 153.14
  C 581.38 133.62 539.05 122.96 496.24 122.89
  Q 480.04 122.87 475.75 123.13
  Q 462.29 123.95 445.51 126.56
  C 407.72 132.46 370.90 146.11 337.69 165.27
  Z"
/>
<path fill="#000000" d="
  M 337.69 165.27
  C 370.90 146.11 407.72 132.46 445.51 126.56
  Q 462.29 123.95 475.75 123.13
  Q 480.04 122.87 496.24 122.89
  C 539.05 122.96 581.38 133.62 619.09 153.14
  Q 645.88 167.01 667.30 183.21
  Q 679.42 192.37 693.77 205.77
  C 710.57 221.46 724.27 239.06 735.60 258.03
  Q 742.88 270.22 750.90 286.69
  Q 779.37 345.14 784.71 410.26
  Q 787.16 440.22 785.11 469.51
  Q 780.58 533.99 752.29 592.56
  Q 729.86 638.99 694.94 679.43
  C 648.48 733.23 587.21 774.89 517.43 790.95
  Q 465.33 802.95 411.26 794.54
  Q 382.91 790.14 358.49 781.42
  Q 333.81 772.62 309.53 757.75
  C 264.16 729.97 227.03 689.07 201.85 641.89
  C 177.02 595.36 164.59 541.67 163.84 488.74
  C 163.63 474.08 163.65 458.17 164.91 443.83
  Q 169.41 392.67 187.30 344.00
  Q 197.06 317.45 210.85 293.84
  C 241.45 241.48 284.95 195.70 337.69 165.27
  Z
  M 369.08 767.22
  Q 371.58 768.72 374.59 768.43
  Q 381.42 770.74 388.63 771.62
  A 0.01 0.01 0.0 0 0 388.63 771.60
  L 376.24 767.46
  Q 373.22 765.94 365.88 762.61
  Q 355.10 757.72 343.38 750.36
  Q 319.54 735.39 301.47 718.63
  Q 249.92 670.83 224.35 606.53
  Q 215.62 584.58 211.58 565.46
  Q 201.13 516.02 202.83 464.22
  Q 205.64 378.72 247.24 304.71
  Q 268.37 267.11 293.84 238.48
  Q 349.61 175.81 429.98 146.37
  Q 448.26 139.67 461.47 136.94
  A 0.24 0.23 79.9 0 0 461.65 136.67
  L 461.65 136.66
  A 0.19 0.18 -8.1 0 0 461.44 136.51
  Q 456.45 137.24 450.97 137.79
  Q 445.06 138.39 440.57 139.18
  C 411.24 144.30 384.42 154.62 358.28 168.77
  C 312.46 193.57 273.40 228.49 243.45 271.77
  Q 209.45 320.92 192.82 376.01
  Q 182.81 409.18 178.59 451.15
  Q 178.41 452.97 178.18 459.85
  Q 178.12 461.58 177.79 468.54
  C 177.33 478.33 177.86 486.66 178.33 498.75
  Q 179.54 529.59 187.49 562.18
  Q 195.43 594.73 208.97 622.55
  Q 230.09 665.97 264.21 702.04
  C 273.42 711.79 284.79 721.60 295.08 729.66
  Q 317.81 747.48 344.80 759.19
  Q 356.48 764.26 369.08 767.22
  Z
  M 322.76 228.81
  C 286.04 263.03 255.12 304.77 237.18 352.37
  Q 220.73 396.04 216.11 440.26
  Q 215.73 443.88 214.66 455.42
  C 213.70 465.85 213.94 476.89 213.96 487.33
  C 213.99 496.64 214.80 504.60 215.61 514.98
  Q 216.85 531.04 221.09 551.74
  Q 231.97 604.83 260.37 649.90
  C 298.15 709.82 357.73 755.39 427.77 769.70
  Q 489.42 782.30 550.20 761.45
  Q 602.64 743.45 646.55 706.55
  Q 657.23 697.57 664.93 689.92
  C 672.40 682.50 681.14 673.31 688.10 665.13
  Q 731.71 613.85 753.48 550.79
  Q 774.32 490.37 770.92 425.17
  Q 768.87 385.84 758.78 349.57
  C 746.99 307.15 725.66 266.12 696.48 232.78
  C 656.15 186.69 597.97 155.06 537.73 148.30
  Q 525.04 146.87 511.21 146.93
  Q 496.54 146.99 484.70 148.49
  Q 450.48 152.85 417.88 166.88
  Q 364.57 189.83 322.76 228.81
  Z"
/>
<path fill="#5d5e5f" d="
  M 678.56 124.43
  Q 682.08 125.95 687.26 128.74
  Q 703.24 137.34 720.25 148.72
  Q 755.12 172.05 782.13 203.61
  Q 795.46 219.18 807.52 236.96
  Q 840.20 285.14 855.65 342.64
  Q 860.57 360.98 863.21 377.03
  Q 865.70 392.21 866.52 399.01
  Q 870.63 433.29 869.09 467.69
  Q 868.71 476.22 868.16 482.24
  Q 867.78 486.31 866.69 496.77
  Q 863.86 523.82 857.29 549.80
  C 848.48 584.64 835.85 617.36 817.93 649.94
  Q 792.23 696.65 753.83 735.84
  C 708.10 782.52 650.95 815.96 587.47 831.71
  Q 565.61 837.13 548.76 839.45
  Q 541.19 840.50 522.01 842.01
  A 0.56 0.56 0.0 0 1 521.44 841.62
  L 521.44 841.60
  A 0.40 0.39 75.6 0 1 521.73 841.10
  Q 546.86 835.56 572.49 825.78
  Q 596.01 816.81 620.07 802.68
  Q 655.11 782.11 681.85 759.58
  Q 720.00 727.45 749.94 690.21
  Q 757.08 681.32 766.81 666.07
  C 782.54 641.41 796.59 615.20 806.78 587.80
  Q 822.24 546.24 828.79 503.36
  Q 829.04 501.75 830.28 493.61
  Q 836.24 454.52 834.34 414.06
  Q 833.72 400.85 833.43 397.56
  Q 833.05 393.26 831.53 379.64
  Q 829.92 365.31 823.90 337.83
  Q 821.15 325.28 815.46 308.52
  C 804.52 276.26 788.62 245.47 769.85 217.38
  Q 747.29 183.63 715.34 154.37
  C 705.80 145.63 695.50 137.73 686.09 130.93
  Q 681.43 127.57 678.29 124.87
  A 0.26 0.26 0.0 0 1 678.56 124.43
  Z"
/>
<path fill="#9fa0a1" d="
  M 376.24 767.46
  Q 375.19 767.52 374.46 768.04
  L 374.50 767.57
  A 0.51 0.50 -76.5 0 0 374.20 767.06
  Q 350.88 757.01 331.64 743.49
  C 323.97 738.10 315.93 732.07 311.41 728.24
  Q 267.86 691.33 240.57 642.42
  C 226.22 616.69 215.33 588.22 209.64 559.45
  Q 205.59 539.03 204.01 522.25
  Q 201.27 493.14 202.26 461.87
  Q 203.25 430.56 209.47 401.98
  Q 220.91 349.43 247.52 302.75
  Q 263.61 274.52 282.76 250.49
  C 306.19 221.10 335.25 195.31 368.01 175.46
  C 388.82 162.84 410.53 152.68 433.14 144.29
  Q 436.42 143.08 438.45 142.61
  Q 441.09 142.00 443.59 140.57
  A 0.45 0.45 0.0 0 0 443.30 139.73
  C 424.16 142.44 405.20 147.93 386.70 155.82
  Q 308.48 189.20 256.20 255.70
  Q 220.52 301.08 199.80 357.20
  Q 193.30 374.83 189.21 392.44
  Q 184.48 412.82 182.14 428.59
  Q 174.45 480.26 182.86 535.22
  Q 184.93 548.81 188.71 563.74
  Q 193.23 581.58 196.85 591.70
  Q 214.83 641.90 249.16 684.10
  Q 267.68 706.88 291.32 725.95
  Q 315.19 745.21 342.55 757.43
  Q 354.39 762.72 362.02 764.73
  Q 367.04 766.05 369.08 767.22
  Q 356.48 764.26 344.80 759.19
  Q 317.81 747.48 295.08 729.66
  C 284.79 721.60 273.42 711.79 264.21 702.04
  Q 230.09 665.97 208.97 622.55
  Q 195.43 594.73 187.49 562.18
  Q 179.54 529.59 178.33 498.75
  C 177.86 486.66 177.33 478.33 177.79 468.54
  Q 178.12 461.58 178.18 459.85
  Q 178.41 452.97 178.59 451.15
  Q 182.81 409.18 192.82 376.01
  Q 209.45 320.92 243.45 271.77
  C 273.40 228.49 312.46 193.57 358.28 168.77
  C 384.42 154.62 411.24 144.30 440.57 139.18
  Q 445.06 138.39 450.97 137.79
  Q 456.45 137.24 461.44 136.51
  A 0.19 0.18 -8.1 0 1 461.65 136.66
  L 461.65 136.67
  A 0.24 0.23 79.9 0 1 461.47 136.94
  Q 448.26 139.67 429.98 146.37
  Q 349.61 175.81 293.84 238.48
  Q 268.37 267.11 247.24 304.71
  Q 205.64 378.72 202.83 464.22
  Q 201.13 516.02 211.58 565.46
  Q 215.62 584.58 224.35 606.53
  Q 249.92 670.83 301.47 718.63
  Q 319.54 735.39 343.38 750.36
  Q 355.10 757.72 365.88 762.61
  Q 373.22 765.94 376.24 767.46
  Z"
/>
<path fill="#5d5e5f" d="
  M 374.46 768.04
  Q 374.47 768.27 374.59 768.43
  Q 371.58 768.72 369.08 767.22
  Q 367.04 766.05 362.02 764.73
  Q 354.39 762.72 342.55 757.43
  Q 315.19 745.21 291.32 725.95
  Q 267.68 706.88 249.16 684.10
  Q 214.83 641.90 196.85 591.70
  Q 193.23 581.58 188.71 563.74
  Q 184.93 548.81 182.86 535.22
  Q 174.45 480.26 182.14 428.59
  Q 184.48 412.82 189.21 392.44
  Q 193.30 374.83 199.80 357.20
  Q 220.52 301.08 256.20 255.70
  Q 308.48 189.20 386.70 155.82
  C 405.20 147.93 424.16 142.44 443.30 139.73
  A 0.45 0.45 0.0 0 1 443.59 140.57
  Q 441.09 142.00 438.45 142.61
  Q 436.42 143.08 433.14 144.29
  C 410.53 152.68 388.82 162.84 368.01 175.46
  C 335.25 195.31 306.19 221.10 282.76 250.49
  Q 263.61 274.52 247.52 302.75
  Q 220.91 349.43 209.47 401.98
  Q 203.25 430.56 202.26 461.87
  Q 201.27 493.14 204.01 522.25
  Q 205.59 539.03 209.64 559.45
  C 215.33 588.22 226.22 616.69 240.57 642.42
  Q 267.86 691.33 311.41 728.24
  C 315.93 732.07 323.97 738.10 331.64 743.49
  Q 350.88 757.01 374.20 767.06
  A 0.51 0.50 -76.5 0 1 374.50 767.57
  L 374.46 768.04
  Z"
/>
<path fill="#fefeff" fill-opacity="0.996" d="
  M 237.18 352.37
  C 255.12 304.77 286.04 263.03 322.76 228.81
  Q 364.57 189.83 417.88 166.88
  Q 450.48 152.85 484.70 148.49
  Q 496.54 146.99 511.21 146.93
  Q 525.04 146.87 537.73 148.30
  C 597.97 155.06 656.15 186.69 696.48 232.78
  C 725.66 266.12 746.99 307.15 758.78 349.57
  Q 768.87 385.84 770.92 425.17
  Q 774.32 490.37 753.48 550.79
  Q 731.71 613.85 688.10 665.13
  C 681.14 673.31 672.40 682.50 664.93 689.92
  Q 657.23 697.57 646.55 706.55
  Q 602.64 743.45 550.20 761.45
  Q 489.42 782.30 427.77 769.70
  C 357.73 755.39 298.15 709.82 260.37 649.90
  Q 231.97 604.83 221.09 551.74
  Q 216.85 531.04 215.61 514.98
  C 214.80 504.60 213.99 496.64 213.96 487.33
  C 213.94 476.89 213.70 465.85 214.66 455.42
  Q 215.73 443.88 216.11 440.26
  Q 220.73 396.04 237.18 352.37
  Z
  M 217.26 441.72
  L 217.44 446.64
  Q 216.61 448.49 216.34 451.07
  Q 214.42 469.45 214.97 490.00
  Q 215.05 493.13 215.68 498.16
  C 216.09 501.45 215.81 505.04 216.33 508.52
  C 216.94 512.56 216.95 515.27 217.15 518.71
  A 5.58 4.86 -57.8 0 0 217.31 519.74
  C 218.00 522.46 217.76 525.03 218.16 527.58
  Q 219.93 538.93 221.48 547.51
  C 226.71 576.34 236.50 603.51 249.98 629.54
  Q 276.15 680.11 320.78 716.98
  Q 355.51 745.67 398.37 760.40
  Q 420.90 768.14 441.88 770.86
  Q 445.93 771.38 447.10 771.69
  A 3.57 3.45 51.2 0 0 447.97 771.80
  Q 453.32 771.83 458.99 772.86
  Q 460.00 773.04 462.02 772.71
  L 485.62 772.44
  Q 487.53 773.06 490.00 772.79
  Q 503.76 771.28 505.51 771.03
  Q 528.43 767.88 551.18 759.94
  Q 604.10 741.49 648.27 703.78
  Q 658.87 694.73 667.20 686.21
  C 672.83 680.44 679.28 673.66 684.90 667.26
  C 724.86 621.74 753.77 563.60 764.75 503.26
  Q 767.94 485.73 769.46 467.06
  Q 770.25 457.46 770.20 447.42
  Q 770.12 430.19 769.97 427.75
  Q 768.42 401.02 764.14 377.54
  C 751.17 306.43 712.73 237.61 653.33 195.01
  Q 616.54 168.63 573.21 156.33
  Q 559.89 152.54 540.26 149.84
  C 535.11 149.12 531.73 149.24 527.33 148.60
  C 521.55 147.75 516.41 147.95 509.72 147.94
  C 503.21 147.93 497.60 148.89 491.60 149.11
  Q 488.02 149.25 481.43 150.18
  Q 448.87 154.76 418.23 167.98
  Q 369.30 189.10 331.51 222.26
  Q 305.70 244.91 286.52 269.25
  Q 266.21 295.02 254.01 318.03
  Q 223.81 375.02 217.26 441.72
  Z"
/>
<path fill="#9fa0a1" d="
  M 485.62 772.44
  L 461.68 772.26
  A 0.18 0.17 -26.2 0 0 461.57 772.57
  Q 461.73 772.69 462.02 772.71
  Q 460.00 773.04 458.99 772.86
  Q 453.32 771.83 447.97 771.80
  A 3.57 3.45 51.2 0 1 447.10 771.69
  Q 445.93 771.38 441.88 770.86
  Q 420.90 768.14 398.37 760.40
  Q 355.51 745.67 320.78 716.98
  Q 276.15 680.11 249.98 629.54
  C 236.50 603.51 226.71 576.34 221.48 547.51
  Q 219.93 538.93 218.16 527.58
  C 217.76 525.03 218.00 522.46 217.31 519.74
  A 5.58 4.86 -57.8 0 1 217.15 518.71
  C 216.95 515.27 216.94 512.56 216.33 508.52
  C 215.81 505.04 216.09 501.45 215.68 498.16
  Q 215.05 493.13 214.97 490.00
  Q 214.42 469.45 216.34 451.07
  Q 216.61 448.49 217.44 446.64
  Q 218.93 443.02 217.26 441.72
  Q 223.81 375.02 254.01 318.03
  Q 266.21 295.02 286.52 269.25
  Q 305.70 244.91 331.51 222.26
  Q 369.30 189.10 418.23 167.98
  Q 448.87 154.76 481.43 150.18
  Q 488.02 149.25 491.60 149.11
  C 497.60 148.89 503.21 147.93 509.72 147.94
  C 516.41 147.95 521.55 147.75 527.33 148.60
  C 531.73 149.24 535.11 149.12 540.26 149.84
  Q 559.89 152.54 573.21 156.33
  Q 616.54 168.63 653.33 195.01
  C 712.73 237.61 751.17 306.43 764.14 377.54
  Q 768.42 401.02 769.97 427.75
  Q 770.12 430.19 770.20 447.42
  Q 770.25 457.46 769.46 467.06
  Q 767.94 485.73 764.75 503.26
  C 753.77 563.60 724.86 621.74 684.90 667.26
  C 679.28 673.66 672.83 680.44 667.20 686.21
  Q 658.87 694.73 648.27 703.78
  Q 604.10 741.49 551.18 759.94
  Q 528.43 767.88 505.51 771.03
  Q 503.76 771.28 490.00 772.79
  Q 487.53 773.06 485.62 772.44
  Z
  M 643.21 446.92
  Q 644.31 442.82 642.56 440.19
  Q 641.91 425.27 638.09 408.70
  Q 627.48 362.55 591.28 333.51
  Q 567.61 314.52 537.70 305.00
  Q 513.39 297.25 488.90 298.01
  Q 463.03 298.82 440.55 307.58
  Q 399.00 323.78 369.89 359.08
  Q 342.26 392.60 334.59 437.71
  Q 334.30 439.39 334.07 443.29
  C 333.80 448.01 333.02 452.00 332.98 457.20
  C 332.94 462.86 332.79 471.63 333.53 478.10
  Q 334.36 485.36 334.75 488.24
  C 339.85 526.44 357.69 562.56 388.15 586.88
  Q 424.81 616.14 472.03 619.85
  Q 475.43 620.12 491.21 620.07
  Q 497.96 620.05 504.23 618.95
  Q 515.03 617.05 517.10 616.57
  Q 539.81 611.31 558.93 599.67
  Q 579.20 587.33 593.06 572.81
  Q 627.39 536.85 639.32 485.70
  C 639.94 483.07 639.98 480.02 640.95 477.88
  A 2.61 2.60 59.6 0 0 641.20 476.91
  C 641.49 472.37 642.14 469.47 642.20 465.02
  Q 642.24 462.36 643.05 458.30
  A 4.07 4.05 51.2 0 0 643.14 457.45
  L 643.21 446.92
  Z"
/>
<path fill="#fefeff" fill-opacity="0.996" d="
  M 642.56 440.19
  L 643.21 446.92
  L 643.14 457.45
  A 4.07 4.05 51.2 0 1 643.05 458.30
  Q 642.24 462.36 642.20 465.02
  C 642.14 469.47 641.49 472.37 641.20 476.91
  A 2.61 2.60 59.6 0 1 640.95 477.88
  C 639.98 480.02 639.94 483.07 639.32 485.70
  Q 627.39 536.85 593.06 572.81
  Q 579.20 587.33 558.93 599.67
  Q 539.81 611.31 517.10 616.57
  Q 515.03 617.05 504.23 618.95
  Q 497.96 620.05 491.21 620.07
  Q 475.43 620.12 472.03 619.85
  Q 424.81 616.14 388.15 586.88
  C 357.69 562.56 339.85 526.44 334.75 488.24
  Q 334.36 485.36 333.53 478.10
  C 332.79 471.63 332.94 462.86 332.98 457.20
  C 333.02 452.00 333.80 448.01 334.07 443.29
  Q 334.30 439.39 334.59 437.71
  Q 342.26 392.60 369.89 359.08
  Q 399.00 323.78 440.55 307.58
  Q 463.03 298.82 488.90 298.01
  Q 513.39 297.25 537.70 305.00
  Q 567.61 314.52 591.28 333.51
  Q 627.48 362.55 638.09 408.70
  Q 641.91 425.27 642.56 440.19
  Z
  M 441.20 308.48
  C 385.64 329.95 343.14 380.77 335.50 440.34
  C 334.97 444.48 334.99 447.79 334.48 451.55
  Q 334.06 454.65 334.01 460.00
  C 333.64 503.49 347.88 548.59 380.43 578.80
  Q 416.63 612.38 465.96 617.99
  Q 521.86 624.36 568.24 592.50
  C 611.12 563.05 639.11 510.81 641.39 458.91
  Q 642.46 434.44 637.39 410.92
  Q 625.98 358.09 581.65 327.64
  Q 546.25 303.32 503.77 299.61
  C 493.03 298.67 483.14 299.31 472.78 300.55
  Q 456.70 302.49 441.20 308.48
  Z"
/>
<path fill="#000000" d="
  M 335.50 440.34
  C 343.14 380.77 385.64 329.95 441.20 308.48
  Q 456.70 302.49 472.78 300.55
  C 483.14 299.31 493.03 298.67 503.77 299.61
  Q 546.25 303.32 581.65 327.64
  Q 625.98 358.09 637.39 410.92
  Q 642.46 434.44 641.39 458.91
  C 639.11 510.81 611.12 563.05 568.24 592.50
  Q 521.86 624.36 465.96 617.99
  Q 416.63 612.38 380.43 578.80
  C 347.88 548.59 333.64 503.49 334.01 460.00
  Q 334.06 454.65 334.48 451.55
  C 334.99 447.79 334.97 444.48 335.50 440.34
  Z
  M 599.51 437.49
  C 596.41 386.23 565.22 338.50 515.33 322.17
  Q 505.57 318.97 492.75 318.01
  Q 459.91 315.55 431.32 330.35
  C 393.33 350.01 364.48 384.80 353.82 426.32
  Q 349.06 444.87 349.49 465.01
  C 350.09 492.79 357.27 519.71 372.31 543.11
  C 389.57 569.96 416.88 587.87 448.29 592.60
  Q 451.68 593.11 453.95 593.49
  C 459.80 594.46 465.84 594.00 472.41 593.98
  C 475.27 593.97 477.84 593.18 480.52 593.07
  Q 483.47 592.94 486.61 592.32
  Q 521.96 585.37 548.66 560.90
  C 579.33 532.80 596.79 495.52 599.69 453.74
  Q 600.12 447.49 599.51 437.49
  Z
  M 493.67 605.07
  Q 496.53 606.42 498.78 605.44
  Q 520.77 603.62 540.12 594.36
  Q 587.18 571.86 611.04 524.27
  Q 624.08 498.27 627.53 468.52
  C 632.03 429.76 624.53 389.17 598.88 359.65
  Q 580.58 338.60 553.63 326.99
  A 0.17 0.17 0.0 0 0 553.40 327.13
  L 553.34 327.47
  A 0.04 0.03 14.9 0 0 553.36 327.50
  Q 566.48 335.80 578.88 349.90
  Q 603.03 377.36 609.33 410.62
  C 616.08 446.26 611.78 485.17 595.02 518.04
  C 573.36 560.52 531.83 599.99 482.75 605.56
  A 0.19 0.19 0.0 0 0 482.58 605.76
  L 482.58 605.77
  A 0.24 0.21 86.4 0 0 482.81 606.00
  L 493.67 605.07
  Z"
/>
<path fill="#fefeff" fill-opacity="0.996" d="
  M 515.33 322.17
  C 565.22 338.50 596.41 386.23 599.51 437.49
  Q 600.12 447.49 599.69 453.74
  C 596.79 495.52 579.33 532.80 548.66 560.90
  Q 521.96 585.37 486.61 592.32
  Q 483.47 592.94 480.52 593.07
  C 477.84 593.18 475.27 593.97 472.41 593.98
  C 465.84 594.00 459.80 594.46 453.95 593.49
  Q 451.68 593.11 448.29 592.60
  C 416.88 587.87 389.57 569.96 372.31 543.11
  C 357.27 519.71 350.09 492.79 349.49 465.01
  Q 349.06 444.87 353.82 426.32
  C 364.48 384.80 393.33 350.01 431.32 330.35
  Q 459.91 315.55 492.75 318.01
  Q 505.57 318.97 515.33 322.17
  Z
  M 350.97 467.26
  Q 351.03 467.41 351.09 467.55
  L 351.07 468.24
  Q 351.08 468.39 351.09 468.55
  Q 350.90 469.95 350.94 470.50
  C 352.43 496.13 359.03 519.89 372.72 541.78
  Q 391.06 571.09 423.05 584.43
  Q 442.84 592.69 466.19 592.93
  Q 470.93 592.98 477.70 592.24
  Q 486.10 591.32 489.12 590.62
  Q 509.65 585.90 524.53 577.24
  C 564.98 553.69 591.29 511.39 597.40 464.85
  Q 597.95 460.73 598.16 457.01
  C 598.42 452.44 599.20 447.42 598.65 442.83
  Q 598.26 439.62 598.18 436.51
  Q 598.08 432.29 597.36 427.03
  Q 591.85 386.79 565.50 356.53
  Q 546.07 334.21 517.03 323.88
  C 509.59 321.23 501.63 319.92 494.06 319.42
  Q 490.80 319.21 481.52 319.06
  Q 474.88 318.96 469.02 319.74
  Q 458.30 321.17 449.13 324.17
  C 416.84 334.72 389.38 358.31 371.65 387.14
  Q 356.84 411.23 352.47 438.68
  C 351.96 441.84 351.94 444.36 351.34 447.15
  A 5.99 5.80 52.2 0 0 351.20 448.43
  L 350.97 467.26
  Z"
/>
<path fill="#9fa0a1" d="
  M 351.09 468.55
  Q 351.65 468.63 351.07 468.24
  L 351.09 467.55
  Q 351.75 467.59 350.97 467.26
  L 351.20 448.43
  A 5.99 5.80 52.2 0 1 351.34 447.15
  C 351.94 444.36 351.96 441.84 352.47 438.68
  Q 356.84 411.23 371.65 387.14
  C 389.38 358.31 416.84 334.72 449.13 324.17
  Q 458.30 321.17 469.02 319.74
  Q 474.88 318.96 481.52 319.06
  Q 490.80 319.21 494.06 319.42
  C 501.63 319.92 509.59 321.23 517.03 323.88
  Q 546.07 334.21 565.50 356.53
  Q 591.85 386.79 597.36 427.03
  Q 598.08 432.29 598.18 436.51
  Q 598.26 439.62 598.65 442.83
  C 599.20 447.42 598.42 452.44 598.16 457.01
  Q 597.95 460.73 597.40 464.85
  C 591.29 511.39 564.98 553.69 524.53 577.24
  Q 509.65 585.90 489.12 590.62
  Q 486.10 591.32 477.70 592.24
  Q 470.93 592.98 466.19 592.93
  Q 442.84 592.69 423.05 584.43
  Q 391.06 571.09 372.72 541.78
  C 359.03 519.89 352.43 496.13 350.94 470.50
  Q 350.90 469.95 351.09 468.55
  Z
  M 561.20 446.82
  Q 561.98 444.71 560.95 443.46
  C 560.02 440.09 559.79 435.96 559.32 433.15
  C 556.66 417.40 550.32 401.59 540.17 389.49
  Q 524.70 371.04 500.69 364.50
  C 483.30 359.77 463.66 361.29 446.92 368.20
  Q 426.41 376.67 411.60 394.05
  Q 391.85 417.23 387.51 447.92
  C 386.72 453.51 386.80 462.37 387.11 466.42
  A 11.21 8.10 -89.7 0 0 387.31 467.98
  C 387.91 471.21 387.98 473.79 388.45 476.54
  C 392.92 502.55 406.71 526.11 429.14 540.19
  C 446.51 551.09 468.13 553.78 487.94 549.14
  C 500.56 546.19 511.89 540.08 522.04 532.02
  Q 548.20 511.26 557.14 478.63
  Q 561.21 463.80 561.20 446.82
  Z"
/>
<path fill="#9fa0a1" d="
  M 498.78 605.44
  Q 498.21 605.06 499.51 604.92
  Q 523.03 602.49 544.47 591.44
  Q 555.11 585.95 566.88 577.13
  C 595.55 555.67 614.74 523.32 623.27 488.80
  Q 625.44 480.03 626.67 469.78
  Q 627.96 459.01 628.11 450.50
  Q 628.28 441.18 627.25 431.27
  C 625.71 416.43 622.18 400.67 616.11 387.76
  Q 608.29 371.17 596.86 358.30
  C 593.49 354.50 588.38 350.41 585.80 347.88
  Q 583.41 345.54 578.92 342.49
  C 575.62 340.26 571.12 336.11 566.36 334.35
  A 0.78 0.78 0.0 0 0 565.57 335.67
  C 588.48 355.79 605.09 382.21 610.40 412.30
  Q 612.97 426.84 613.02 447.56
  C 613.02 450.29 612.29 453.90 612.46 456.92
  Q 612.60 459.58 611.93 463.94
  Q 609.28 481.10 608.19 485.21
  Q 596.88 527.63 565.79 560.81
  C 549.19 578.52 528.16 593.67 505.27 601.25
  Q 499.57 603.14 493.67 605.07
  L 482.81 606.00
  A 0.24 0.21 86.4 0 1 482.58 605.77
  L 482.58 605.76
  A 0.19 0.19 0.0 0 1 482.75 605.56
  C 531.83 599.99 573.36 560.52 595.02 518.04
  C 611.78 485.17 616.08 446.26 609.33 410.62
  Q 603.03 377.36 578.88 349.90
  Q 566.48 335.80 553.36 327.50
  A 0.04 0.03 14.9 0 1 553.34 327.47
  L 553.40 327.13
  A 0.17 0.17 0.0 0 1 553.63 326.99
  Q 580.58 338.60 598.88 359.65
  C 624.53 389.17 632.03 429.76 627.53 468.52
  Q 624.08 498.27 611.04 524.27
  Q 587.18 571.86 540.12 594.36
  Q 520.77 603.62 498.78 605.44
  Z"
/>
<path fill="#5d5e5f" d="
  M 498.78 605.44
  Q 496.53 606.42 493.67 605.07
  Q 499.57 603.14 505.27 601.25
  C 528.16 593.67 549.19 578.52 565.79 560.81
  Q 596.88 527.63 608.19 485.21
  Q 609.28 481.10 611.93 463.94
  Q 612.60 459.58 612.46 456.92
  C 612.29 453.90 613.02 450.29 613.02 447.56
  Q 612.97 426.84 610.40 412.30
  C 605.09 382.21 588.48 355.79 565.57 335.67
  A 0.78 0.78 0.0 0 1 566.36 334.35
  C 571.12 336.11 575.62 340.26 578.92 342.49
  Q 583.41 345.54 585.80 347.88
  C 588.38 350.41 593.49 354.50 596.86 358.30
  Q 608.29 371.17 616.11 387.76
  C 622.18 400.67 625.71 416.43 627.25 431.27
  Q 628.28 441.18 628.11 450.50
  Q 627.96 459.01 626.67 469.78
  Q 625.44 480.03 623.27 488.80
  C 614.74 523.32 595.55 555.67 566.88 577.13
  Q 555.11 585.95 544.47 591.44
  Q 523.03 602.49 499.51 604.92
  Q 498.21 605.06 498.78 605.44
  Z"
/>
<path fill="#fefeff" fill-opacity="0.996" d="
  M 560.95 443.46
  L 561.20 446.82
  Q 561.21 463.80 557.14 478.63
  Q 548.20 511.26 522.04 532.02
  C 511.89 540.08 500.56 546.19 487.94 549.14
  C 468.13 553.78 446.51 551.09 429.14 540.19
  C 406.71 526.11 392.92 502.55 388.45 476.54
  C 387.98 473.79 387.91 471.21 387.31 467.98
  A 11.21 8.10 -89.7 0 1 387.11 466.42
  C 386.80 462.37 386.72 453.51 387.51 447.92
  Q 391.85 417.23 411.60 394.05
  Q 426.41 376.67 446.92 368.20
  C 463.66 361.29 483.30 359.77 500.69 364.50
  Q 524.70 371.04 540.17 389.49
  C 550.32 401.59 556.66 417.40 559.32 433.15
  C 559.79 435.96 560.02 440.09 560.95 443.46
  Z
  M 471.44 363.34
  C 448.07 365.45 425.90 377.74 410.95 396.41
  C 392.28 419.74 384.94 446.83 389.56 475.94
  C 393.82 502.71 408.93 527.90 432.47 540.98
  C 455.52 553.78 485.33 552.79 507.71 540.37
  C 540.40 522.23 559.59 488.48 559.46 451.04
  C 559.35 422.09 548.54 393.08 524.89 376.83
  Q 501.33 360.64 471.44 363.34
  Z"
/>
<path fill="#000000" d="
  M 410.95 396.41
  C 425.90 377.74 448.07 365.45 471.44 363.34
  Q 501.33 360.64 524.89 376.83
  C 548.54 393.08 559.35 422.09 559.46 451.04
  C 559.59 488.48 540.40 522.23 507.71 540.37
  C 485.33 552.79 455.52 553.78 432.47 540.98
  C 408.93 527.90 393.82 502.71 389.56 475.94
  C 384.94 446.83 392.28 419.74 410.95 396.41
  Z
  M 430.45 517.61
  Q 440.09 525.63 452.20 528.56
  Q 456.42 529.58 460.62 530.58
  A 0.25 0.25 0.0 0 0 460.92 530.41
  L 460.92 530.40
  A 0.28 0.25 20.6 0 0 460.76 530.09
  L 456.05 527.92
  Q 451.99 523.84 448.96 519.05
  Q 431.59 491.67 434.07 459.75
  C 435.74 438.15 445.36 419.23 459.90 403.40
  C 469.26 393.20 482.12 384.09 496.03 382.64
  A 0.10 0.10 0.0 0 0 496.05 382.44
  C 472.10 376.06 449.58 383.45 431.65 399.92
  Q 409.41 420.37 405.57 448.60
  C 402.20 473.40 410.78 501.35 430.45 517.61
  Z
  M 459.27 508.64
  Q 464.27 517.83 468.69 522.81
  Q 473.10 527.78 476.57 529.71
  Q 480.38 531.83 484.76 530.90
  Q 507.92 526.03 523.31 508.03
  Q 535.27 494.04 540.01 476.25
  Q 543.58 462.84 542.90 449.75
  Q 542.17 435.49 537.43 422.29
  Q 532.74 409.26 523.40 399.70
  Q 518.83 395.02 515.01 393.74
  Q 510.68 392.29 504.66 393.62
  Q 485.41 397.86 472.22 412.49
  Q 453.76 432.97 450.24 460.04
  Q 448.86 470.60 450.86 482.80
  C 451.44 486.30 452.42 489.80 453.32 493.23
  Q 454.21 496.63 455.90 500.95
  Q 457.97 506.24 459.27 508.64
  Z"
/>
<path fill="#9fa0a1" d="
  M 456.05 527.92
  Q 455.84 527.94 455.77 528.21
  A 0.34 0.33 -82.8 0 1 455.43 528.48
  L 454.90 528.45
  Q 455.45 528.17 455.31 528.03
  Q 451.72 524.56 449.04 520.47
  Q 434.30 498.01 432.95 471.68
  C 431.57 444.80 442.10 421.39 460.33 401.90
  Q 473.04 388.32 490.11 382.73
  A 0.40 0.40 0.0 0 0 490.06 381.96
  C 463.01 376.69 438.26 390.59 421.91 411.59
  Q 412.13 424.16 408.27 439.09
  Q 401.97 463.47 410.83 487.93
  Q 417.07 505.16 430.48 516.92
  Q 430.64 517.46 430.45 517.61
  C 410.78 501.35 402.20 473.40 405.57 448.60
  Q 409.41 420.37 431.65 399.92
  C 449.58 383.45 472.10 376.06 496.05 382.44
  A 0.10 0.10 0.0 0 1 496.03 382.64
  C 482.12 384.09 469.26 393.20 459.90 403.40
  C 445.36 419.23 435.74 438.15 434.07 459.75
  Q 431.59 491.67 448.96 519.05
  Q 451.99 523.84 456.05 527.92
  Z"
/>
<path fill="#5d5e5f" d="
  M 454.90 528.45
  Q 441.43 526.04 430.48 516.92
  Q 417.07 505.16 410.83 487.93
  Q 401.97 463.47 408.27 439.09
  Q 412.13 424.16 421.91 411.59
  C 438.26 390.59 463.01 376.69 490.06 381.96
  A 0.40 0.40 0.0 0 1 490.11 382.73
  Q 473.04 388.32 460.33 401.90
  C 442.10 421.39 431.57 444.80 432.95 471.68
  Q 434.30 498.01 449.04 520.47
  Q 451.72 524.56 455.31 528.03
  Q 455.45 528.17 454.90 528.45
  Z"
/>
<path fill="#5d5e5f" d="
  M 141.49 430.40
  Q 141.85 431.81 141.75 432.39
  A 0.16 0.15 -42.7 0 1 141.44 432.38
  L 141.29 430.43
  A 0.10 0.10 0.0 0 1 141.49 430.40
  Z"
/>
<path fill="#5d5e5f" d="
  M 643.21 446.92
  L 642.56 440.19
  Q 644.31 442.82 643.21 446.92
  Z"
/>
<path fill="#5d5e5f" d="
  M 217.44 446.64
  L 217.26 441.72
  Q 218.93 443.02 217.44 446.64
  Z"
/>
<path fill="#5d5e5f" d="
  M 561.20 446.82
  L 560.95 443.46
  Q 561.98 444.71 561.20 446.82
  Z"
/>
<circle fill="#5d5e5f" cx="787.35" cy="458.24" r="0.26"/>
<path fill="#5d5e5f" d="
  M 351.09 467.55
  Q 351.03 467.41 350.97 467.26
  Q 351.75 467.59 351.09 467.55
  Z"
/>
<path fill="#5d5e5f" d="
  M 351.09 468.55
  Q 351.08 468.39 351.07 468.24
  Q 351.65 468.63 351.09 468.55
  Z"
/>
<path fill="#fefeff" fill-opacity="0.996" d="
  M 454.90 528.45
  L 455.43 528.48
  A 0.34 0.33 -82.8 0 0 455.77 528.21
  Q 455.84 527.94 456.05 527.92
  L 460.76 530.09
  A 0.28 0.25 20.6 0 1 460.92 530.40
  L 460.92 530.41
  A 0.25 0.25 0.0 0 1 460.62 530.58
  Q 456.42 529.58 452.20 528.56
  Q 440.09 525.63 430.45 517.61
  Q 430.64 517.46 430.48 516.92
  Q 441.43 526.04 454.90 528.45
  Z"
/>
<path fill="#fefeff" fill-opacity="0.996" d="
  M 376.24 767.46
  L 388.63 771.60
  A 0.01 0.01 0.0 0 1 388.63 771.62
  Q 381.42 770.74 374.59 768.43
  Q 374.47 768.27 374.46 768.04
  Q 375.19 767.52 376.24 767.46
  Z"
/>
<path fill="#5d5e5f" d="
  M 485.62 772.44
  L 462.02 772.71
  Q 461.73 772.69 461.57 772.57
  A 0.18 0.17 -26.2 0 1 461.68 772.26
  L 485.62 772.44
  Z"
/>
<path fill="#5d5e5f" d="
  M 475.98 798.71
  Q 471.96 800.62 466.84 799.10
  L 475.98 798.71
  Z"
/>
</svg>
