<?xml version="1.0" encoding="UTF-8" standalone="no"?>
<!DOCTYPE svg PUBLIC "-//W3C//DTD SVG 1.1//EN" "http://www.w3.org/Graphics/SVG/1.1/DTD/svg11.dtd">
<svg xmlns="http://www.w3.org/2000/svg" version="1.1" viewBox="0.00 0.00 1024.00 1024.00">
<g stroke-width="2.00" fill="none" stroke-linecap="butt">
<path stroke="#0a1c33" vector-effect="non-scaling-stroke" d="
  M 272.72 179.46
  L 264.67 185.78"
/>
<path stroke="#631418" vector-effect="non-scaling-stroke" d="
  M 264.67 185.78
  L 258.29 190.97"
/>
<path stroke="#777778" vector-effect="non-scaling-stroke" d="
  M 258.29 190.97
  Q 249.41 198.92 241.02 207.44
  C 239.85 208.63 237.63 210.57 237.64 212.03
  Q 237.67 223.21 237.70 249.44
  A 0.86 0.86 0.0 0 1 236.84 250.30
  L 221.89 250.30
  A 0.44 0.44 0.0 0 1 221.45 249.85
  L 221.63 241.04"
/>
<path stroke="#0a1c33" vector-effect="non-scaling-stroke" d="
  M 221.63 241.04
  L 221.65 233.50
  A 0.34 0.34 0.0 0 1 221.99 233.16
  L 222.34 233.16
  A 0.42 0.42 0.0 0 1 222.76 233.58
  L 222.76 248.17
  A 0.99 0.99 0.0 0 0 223.75 249.16
  L 235.28 249.16
  A 1.10 1.10 0.0 0 0 236.38 248.06
  L 236.38 213.88
  A 0.45 0.45 0.0 0 0 235.63 213.54
  Q 233.20 215.66 231.86 218.21"
/>
<path stroke="#0f3158" vector-effect="non-scaling-stroke" d="
  M 231.86 218.21
  L 222.43 228.86"
/>
<path stroke="#777778" vector-effect="non-scaling-stroke" d="
  M 222.43 228.86
  Q 205.35 248.31 191.18 270.64"
/>
<path stroke="#631418" vector-effect="non-scaling-stroke" d="
  M 191.18 270.64
  Q 176.34 293.52 164.64 318.93"
/>
<path stroke="#777778" vector-effect="non-scaling-stroke" d="
  M 164.64 318.93
  Q 158.56 331.60 154.18 345.28"
/>
<path stroke="#0f3158" vector-effect="non-scaling-stroke" d="
  M 154.18 345.28
  L 149.81 357.75
  A 0.29 0.28 -67.6 0 0 149.95 358.10
  L 150.24 358.24
  A 0.03 0.02 -58.3 0 0 150.26 358.23
  L 154.50 350.39
  A 2.64 2.27 -14.2 0 1 154.88 349.85
  Q 157.43 347.07 157.91 343.51"
/>
<path stroke="#777778" vector-effect="non-scaling-stroke" d="
  M 157.91 343.51
  Q 158.70 343.08 159.58 343.18
  A 0.59 0.59 0.0 0 1 160.03 344.04
  Q 155.18 353.17 149.84 361.81
  C 144.18 370.97 142.60 379.15 139.72 391.37"
/>
<path stroke="#631418" vector-effect="non-scaling-stroke" d="
  M 139.72 391.37
  Q 136.66 403.23 134.99 415.96"
/>
<path stroke="#777778" vector-effect="non-scaling-stroke" d="
  M 134.99 415.96
  Q 134.05 418.13 133.60 421.28
  Q 133.17 424.24 132.75 427.20"
/>
<path stroke="#0f3158" vector-effect="non-scaling-stroke" d="
  M 132.75 427.20
  Q 129.36 453.93 128.91 472.00
  Q 128.61 484.43 129.84 510.33
  C 130.56 525.65 132.48 542.22 134.70 554.80
  C 141.52 593.34 155.83 631.43 174.10 665.67
  C 205.39 724.33 252.62 774.55 310.30 808.43
  Q 342.91 827.59 379.43 838.10
  Q 427.30 851.87 476.96 852.12
  C 487.03 852.17 495.22 851.35 506.00 850.27
  C 554.36 845.46 600.34 829.07 642.74 804.18
  Q 705.68 767.24 749.36 707.38
  Q 759.19 693.91 769.11 677.68
  Q 815.10 602.43 825.81 515.27
  Q 830.99 473.18 827.99 429.76
  A 0.42 0.41 -6.4 0 0 827.51 429.38
  Q 827.01 429.46 826.83 429.64"
/>
<path stroke="#0a1c33" vector-effect="non-scaling-stroke" d="
  M 826.83 429.64
  L 814.92 441.39
  A 1.00 0.97 -27.7 0 0 814.64 442.24
  Q 816.50 453.18 818.02 460.23
  Q 818.88 464.20 818.10 467.41"
/>
<path stroke="#777778" vector-effect="non-scaling-stroke" d="
  M 818.10 467.41
  L 813.51 442.23
  A 2.24 2.23 63.6 0 1 814.19 440.19
  L 827.24 428.18
  A 1.70 1.69 -14.8 0 0 827.74 427.33
  Q 828.06 425.94 827.83 423.95
  A 0.88 0.88 0.0 0 0 827.04 423.17
  Q 820.43 422.47 809.67 421.67
  Q 807.49 421.50 806.82 419.39
  Q 802.73 406.41 799.76 397.62
  A 0.60 0.59 -41.7 0 0 798.66 397.56
  L 789.90 415.90
  A 5.34 5.27 60.6 0 0 789.39 417.78
  Q 788.97 423.00 790.29 428.30"
/>
<path stroke="#631418" vector-effect="non-scaling-stroke" d="
  M 790.29 428.30
  L 791.87 448.14"
/>
<path stroke="#777778" vector-effect="non-scaling-stroke" d="
  M 791.87 448.14
  L 792.13 457.79
  A 0.21 0.21 0.0 0 0 792.19 457.91
  Q 792.30 458.02 792.46 458.05"
/>
<path stroke="#0a1c33" vector-effect="non-scaling-stroke" d="
  M 792.46 458.05
  L 792.20 459.52"
/>
<path stroke="#0f3158" vector-effect="non-scaling-stroke" d="
  M 792.20 459.52
  C 792.64 491.77 790.18 523.37 782.12 554.23
  C 766.38 614.43 735.57 670.01 693.68 715.94
  C 671.30 740.48 645.65 760.03 616.70 776.96
  C 584.69 795.67 547.55 809.48 510.65 815.18
  Q 480.73 819.80 448.71 817.58
  Q 408.21 814.78 371.66 802.98
  Q 356.89 798.20 348.31 794.49
  Q 300.52 773.80 264.95 740.32
  Q 220.22 698.22 193.00 641.51
  Q 154.85 562.03 156.68 472.75
  Q 157.36 439.69 162.91 411.20"
/>
<path stroke="#0a1c33" vector-effect="non-scaling-stroke" d="
  M 162.91 411.20
  Q 163.44 409.71 163.40 408.43
  A 0.36 0.35 72.3 0 0 162.85 408.14
  Q 149.60 417.19 137.53 425.77
  Q 134.65 427.81 134.96 426.11"
/>
<path stroke="#777778" vector-effect="non-scaling-stroke" d="
  M 134.96 426.11
  Q 148.64 416.68 162.05 407.28
  Q 164.51 405.56 165.14 402.58
  Q 166.08 398.22 167.02 394.04"
/>
<path stroke="#631418" vector-effect="non-scaling-stroke" d="
  M 167.02 394.04
  L 175.16 367.18"
/>
<path stroke="#777778" vector-effect="non-scaling-stroke" d="
  M 175.16 367.18
  Q 175.23 366.54 175.85 364.97
  Q 185.01 341.37 196.06 318.83"
/>
<path stroke="#631418" vector-effect="non-scaling-stroke" d="
  M 196.06 318.83
  Q 208.64 293.93 224.81 271.45
  A 0.62 0.61 -36.1 0 0 224.90 270.91
  Q 224.87 270.81 224.81 270.67"
/>
<path stroke="#777778" vector-effect="non-scaling-stroke" d="
  M 224.81 270.67
  Q 225.71 270.55 226.49 269.47
  Q 239.67 251.22 254.30 235.73
  Q 255.11 234.87 256.26 233.35
  Q 257.24 232.03 258.28 231.02"
/>
<path stroke="#631418" vector-effect="non-scaling-stroke" d="
  M 258.28 231.02
  Q 274.38 214.82 291.49 199.97
  Q 300.08 192.51 309.68 186.39
  Q 310.12 186.11 310.48 185.74"
/>
<path stroke="#0f3158" vector-effect="non-scaling-stroke" d="
  M 310.48 185.74
  Q 331.21 170.95 355.87 159.65
  Q 403.67 137.75 454.07 132.13
  Q 467.16 130.67 488.51 130.06
  C 497.10 129.81 507.80 130.65 515.47 131.19
  Q 556.18 134.09 593.93 149.83
  Q 646.09 171.57 687.75 210.02
  Q 712.43 232.80 728.87 256.20
  C 743.20 276.60 754.76 296.72 764.40 320.11
  Q 780.67 359.56 787.36 401.94
  Q 788.40 408.51 788.78 413.85
  A 0.29 0.29 0.0 0 0 789.33 413.95
  L 790.75 410.92"
/>
<path stroke="#0a1c33" vector-effect="non-scaling-stroke" d="
  M 790.75 410.92
  Q 793.59 405.95 797.36 397.64
  Q 798.05 396.12 799.93 396.68
  A 1.39 1.36 -1.1 0 1 800.85 397.55
  L 808.31 419.34
  A 1.88 1.87 82.8 0 0 809.93 420.60
  L 827.03 422.01
  A 0.53 0.53 0.0 0 0 827.60 421.41
  L 826.75 415.07"
/>
<path stroke="#0f3158" vector-effect="non-scaling-stroke" d="
  M 826.75 415.07
  Q 813.70 292.93 733.17 201.32
  Q 706.29 170.74 675.67 149.61
  Q 662.89 140.79 655.73 137.25
  Q 633.77 126.42 630.72 125.03
  Q 605.18 113.38 578.06 105.70
  Q 558.82 100.24 538.75 98.53
  Q 522.43 97.14 520.40 96.93
  Q 512.56 96.10 505.59 96.15
  Q 492.85 96.24 490.74 96.41
  C 468.70 98.15 445.49 100.92 423.16 106.00
  Q 404.61 110.21 396.85 112.86
  Q 376.27 119.89 361.93 125.67
  Q 313.59 145.17 272.72 179.46"
/>
<path stroke="#194d8a" vector-effect="non-scaling-stroke" d="
  M 826.75 415.07
  L 826.45 415.33
  A 0.40 0.39 66.4 0 1 825.80 415.07
  Q 815.49 316.00 759.20 235.48
  Q 751.02 223.79 740.31 210.96
  Q 729.43 197.92 719.60 187.91
  Q 700.82 168.77 679.32 153.20
  Q 667.71 144.80 656.98 139.05
  Q 630.98 125.12 602.65 114.59
  C 589.74 109.79 575.02 105.35 562.92 102.89
  Q 550.82 100.43 531.00 98.74
  Q 523.45 98.09 517.66 97.50
  Q 510.41 96.76 504.31 96.93
  Q 489.09 97.36 483.83 97.86
  C 450.33 101.05 417.20 106.17 384.54 118.01
  Q 369.77 123.36 359.22 127.74
  Q 328.30 140.59 300.46 159.48
  Q 289.05 167.23 272.72 179.46"
/>
<path stroke="#194d8a" vector-effect="non-scaling-stroke" d="
  M 790.75 410.92
  Q 788.76 407.68 788.32 403.72
  Q 787.86 399.63 787.73 398.87
  Q 784.09 378.36 782.09 370.83
  C 780.26 363.93 776.75 350.61 773.80 342.33
  Q 763.63 313.80 754.46 296.26
  C 739.09 266.82 719.75 239.49 696.33 216.92
  Q 682.86 203.93 667.87 192.11
  Q 632.25 164.02 590.20 147.29
  Q 564.52 137.07 537.39 132.84
  Q 508.90 128.39 479.78 129.18
  C 472.62 129.37 465.30 130.23 457.69 130.84
  Q 449.14 131.53 441.21 132.79
  Q 381.08 142.30 328.56 172.81
  Q 318.59 178.60 310.43 184.92
  Q 310.13 185.16 310.02 185.57"
/>
<path stroke="#6d304a" vector-effect="non-scaling-stroke" d="
  M 310.02 185.57
  Q 308.47 186.03 306.75 186.01
  C 292.76 185.87 278.63 186.47 264.67 185.78"
/>
<path stroke="#d98b8f" vector-effect="non-scaling-stroke" d="
  M 258.28 231.02
  Q 257.78 228.56 257.81 226.00
  Q 257.95 216.38 257.78 200.25
  Q 257.72 194.83 258.29 190.97"
/>
<path stroke="#71456f" vector-effect="non-scaling-stroke" d="
  M 310.48 185.74
  Q 310.24 185.58 310.02 185.57"
/>
<path stroke="#d98b8f" vector-effect="non-scaling-stroke" d="
  M 224.81 270.67
  L 191.18 270.64"
/>
<path stroke="#85a8cf" vector-effect="non-scaling-stroke" d="
  M 222.43 228.86
  Q 222.71 229.24 222.78 229.24"
/>
<path stroke="#8193aa" vector-effect="non-scaling-stroke" d="
  M 222.78 229.24
  C 221.01 231.14 221.50 238.03 221.63 241.04"
/>
<path stroke="#d98b8f" vector-effect="non-scaling-stroke" d="
  M 196.06 318.83
  L 164.64 318.93"
/>
<path stroke="#194d8a" vector-effect="non-scaling-stroke" d="
  M 222.78 229.24
  Q 228.04 224.18 231.86 218.21"
/>
<path stroke="#d98b8f" vector-effect="non-scaling-stroke" d="
  M 175.16 367.18
  L 139.72 391.37"
/>
<path stroke="#85a8cf" vector-effect="non-scaling-stroke" d="
  M 157.91 343.51
  L 154.18 345.28"
/>
<path stroke="#d98b8f" vector-effect="non-scaling-stroke" d="
  M 167.02 394.04
  L 134.99 415.96"
/>
<path stroke="#8193aa" vector-effect="non-scaling-stroke" d="
  M 134.96 426.11
  L 132.96 427.26"
/>
<path stroke="#85a8cf" vector-effect="non-scaling-stroke" d="
  M 132.96 427.26
  Q 132.85 427.23 132.75 427.20"
/>
<path stroke="#194d8a" vector-effect="non-scaling-stroke" d="
  M 162.91 411.20
  L 162.06 411.39
  A 0.60 0.59 82.5 0 0 161.60 412.00
  Q 161.71 414.36 160.85 416.59
  A 3.28 3.14 60.5 0 0 160.65 417.38
  Q 157.17 442.26 156.52 451.96
  Q 154.80 477.50 156.39 505.73
  Q 157.77 530.07 164.91 564.21
  Q 165.62 567.60 168.44 577.65
  Q 170.79 586.03 172.29 590.98
  Q 193.74 661.97 242.68 718.60
  Q 264.18 743.48 291.00 762.98
  Q 321.09 784.86 353.30 797.41
  C 380.95 808.18 409.46 814.74 438.01 817.69
  C 459.62 819.93 482.65 819.83 503.57 817.10
  C 541.61 812.13 579.80 798.73 613.45 779.68
  Q 627.77 771.58 642.65 761.38
  Q 671.11 741.88 694.59 716.10
  Q 756.26 648.41 781.42 560.47
  Q 788.44 535.91 791.51 505.14
  Q 792.35 496.66 792.63 483.35
  Q 792.86 471.96 793.00 461.53
  Q 793.01 460.06 792.20 459.52"
/>
<path stroke="#0a1c33" vector-effect="non-scaling-stroke" d="
  M 793.53 457.28
  Q 794.53 457.67 794.94 457.01
  A 1.58 1.53 32.7 0 1 797.13 456.57
  Q 806.23 462.61 815.57 467.49
  Q 816.05 467.73 816.39 467.31
  Q 816.50 467.18 816.25 466.78"
/>
<path stroke="#194d8a" vector-effect="non-scaling-stroke" d="
  M 826.83 429.64
  Q 827.45 440.20 828.10 450.00
  Q 828.93 462.58 826.96 493.27
  Q 824.62 529.64 815.37 566.24
  C 800.28 625.95 770.57 681.98 730.89 729.31
  Q 726.66 734.36 722.90 738.06
  Q 720.30 740.62 714.71 746.66
  C 710.04 751.72 704.84 756.18 700.37 760.56
  Q 696.10 764.75 689.14 770.44
  Q 636.49 813.51 573.71 834.64
  Q 556.07 840.58 533.07 845.38
  Q 523.70 847.34 512.01 848.59
  Q 500.13 849.86 490.77 850.77
  Q 485.13 851.31 471.79 851.05
  Q 405.62 849.73 345.57 825.10
  C 332.63 819.79 322.38 813.98 309.18 806.62
  Q 305.47 804.56 300.93 801.60
  Q 288.01 793.18 281.18 788.06
  C 257.58 770.37 236.45 750.58 217.85 728.63
  Q 212.62 722.45 205.51 712.93
  Q 196.39 700.70 193.81 696.77
  Q 166.60 655.31 149.85 608.19
  Q 139.03 577.77 134.37 546.40
  Q 131.24 525.36 130.63 509.50
  Q 130.09 495.34 129.91 491.51
  C 128.98 471.33 130.76 451.00 133.43 429.50
  Q 133.53 428.69 132.96 427.26"
/>
<path stroke="#8193aa" vector-effect="non-scaling-stroke" d="
  M 818.10 467.41
  L 816.25 466.78"
/>
<path stroke="#777778" vector-effect="non-scaling-stroke" d="
  M 816.25 466.78
  L 795.68 454.53
  A 0.48 0.48 0.0 0 0 795.03 454.70
  L 793.53 457.28"
/>
<path stroke="#8193aa" vector-effect="non-scaling-stroke" d="
  M 793.53 457.28
  L 792.46 458.05"
/>
<path stroke="#d98b8f" vector-effect="non-scaling-stroke" d="
  M 791.87 448.14
  Q 796.28 446.31 799.40 448.59
  Q 803.87 451.85 808.46 454.72
  A 0.31 0.31 0.0 0 0 808.93 454.41
  L 806.54 440.26
  A 2.66 2.64 64.0 0 1 807.35 437.87
  L 816.77 429.20
  A 0.54 0.54 0.0 0 0 816.45 428.27
  L 803.90 427.24
  A 1.55 1.53 -6.6 0 1 802.57 426.20
  L 798.39 414.00
  A 0.33 0.33 0.0 0 0 797.78 413.96
  Q 794.96 419.84 792.58 426.31
  Q 792.02 427.82 790.29 428.30"
/>
<path stroke="#08121e" vector-effect="non-scaling-stroke" d="
  M 680.22 134.85
  A 0.08 0.07 -65.8 0 0 680.25 134.94
  Q 688.10 139.67 694.05 143.73
  C 699.10 147.17 703.93 151.90 709.16 156.20
  Q 720.95 165.89 723.44 168.19
  Q 732.11 176.20 747.78 192.44
  Q 752.28 197.11 758.36 204.57
  Q 767.45 215.71 768.58 217.15
  Q 778.71 230.04 789.14 245.90
  Q 800.83 263.68 809.80 282.68
  Q 820.53 305.44 825.65 321.28
  Q 832.04 341.08 834.94 352.00
  Q 841.99 378.64 845.22 406.47
  Q 848.82 437.48 848.71 469.32
  Q 848.64 491.57 846.07 513.55
  Q 843.16 538.55 838.96 557.30
  Q 832.06 588.08 823.30 610.85
  C 810.04 645.29 792.62 678.84 771.00 708.02
  Q 756.44 727.67 746.01 739.54
  Q 711.57 778.75 667.85 807.82
  C 651.82 818.47 635.44 828.09 619.49 835.37
  Q 615.82 837.04 608.86 840.58
  Q 600.81 844.66 592.00 847.30
  A 0.09 0.08 -9.7 0 0 591.94 847.38
  L 591.94 847.63
  A 0.28 0.27 84.1 0 0 592.27 847.90
  Q 611.07 843.58 629.38 836.88
  Q 659.02 826.03 686.92 810.41
  Q 719.81 792.00 752.94 763.68
  Q 755.62 761.39 764.89 752.65
  Q 771.34 746.57 776.54 741.30
  Q 788.34 729.37 802.55 711.82
  C 833.23 673.92 856.56 631.06 870.56 584.56
  Q 877.08 562.90 879.76 547.55
  Q 884.97 517.68 885.85 499.52
  C 886.16 493.14 886.87 485.76 887.04 478.49
  Q 887.37 464.92 885.91 444.07
  Q 882.98 402.21 872.41 366.76
  C 865.64 344.03 857.31 321.24 846.82 300.68
  Q 831.14 269.97 808.93 240.81
  C 790.20 216.21 769.18 195.53 745.08 175.49
  Q 736.55 168.40 726.52 161.69
  Q 709.79 150.50 707.08 149.04
  Q 685.17 137.21 680.64 134.28
  A 0.19 0.19 0.0 0 0 680.36 134.39
  L 680.22 134.85"
/>
<path stroke="#777778" vector-effect="non-scaling-stroke" d="
  M 456.63 154.24
  Q 449.62 154.68 443.00 155.60
  Q 439.19 156.13 436.46 157.98
  Q 408.19 177.20 338.63 225.64
  Q 326.67 233.97 314.05 243.13
  A 0.37 0.37 0.0 0 1 313.47 242.83
  L 313.54 211.56"
/>
<path stroke="#0a1c33" vector-effect="non-scaling-stroke" d="
  M 313.54 211.56
  Q 314.34 211.10 314.64 211.67
  A 2.29 2.29 0.0 0 1 314.89 212.71
  L 314.79 239.83
  A 0.57 0.56 72.8 0 0 315.67 240.30
  L 434.44 157.73
  A 0.28 0.28 0.0 0 0 434.22 157.22
  L 423.61 159.56"
/>
<path stroke="#0f3158" vector-effect="non-scaling-stroke" d="
  M 423.61 159.56
  Q 364.30 173.89 314.72 209.25"
/>
<path stroke="#0a1c33" vector-effect="non-scaling-stroke" d="
  M 314.72 209.25
  Q 314.07 209.58 313.62 210.23"
/>
<path stroke="#777778" vector-effect="non-scaling-stroke" d="
  M 313.62 210.23
  Q 302.77 217.29 293.87 225.32"
/>
<path stroke="#631418" vector-effect="non-scaling-stroke" d="
  M 293.87 225.32
  Q 293.48 226.20 292.64 226.67
  Q 291.32 227.41 291.07 227.63
  Q 247.00 265.74 218.21 316.42
  Q 217.56 317.56 216.99 318.78"
/>
<path stroke="#777778" vector-effect="non-scaling-stroke" d="
  M 216.99 318.78
  Q 216.33 319.24 216.12 319.62
  Q 210.42 329.65 205.73 340.18"
/>
<path stroke="#631418" vector-effect="non-scaling-stroke" d="
  M 205.73 340.18
  Q 198.09 355.54 193.17 372.59"
/>
<path stroke="#777778" vector-effect="non-scaling-stroke" d="
  M 193.17 372.59
  L 188.75 386.02"
/>
<path stroke="#0a1c33" vector-effect="non-scaling-stroke" d="
  M 188.75 386.02
  Q 175.70 438.08 177.02 491.26
  Q 178.51 551.62 200.92 608.82
  C 216.11 647.56 238.75 682.99 268.02 712.68
  Q 276.33 721.10 280.71 725.07
  Q 297.12 739.94 316.07 752.47
  Q 322.93 756.99 330.21 760.78"
/>
<path stroke="#0f3158" vector-effect="non-scaling-stroke" d="
  M 330.21 760.78
  Q 356.92 775.84 383.82 784.14
  Q 445.57 803.18 510.73 792.74
  Q 559.70 784.89 605.77 759.21
  Q 630.33 745.52 653.27 725.60
  Q 675.37 706.41 693.84 683.85
  Q 705.82 669.21 715.39 654.22"
/>
<path stroke="#0a1c33" vector-effect="non-scaling-stroke" d="
  M 715.39 654.22
  Q 716.73 653.85 717.24 651.96
  A 0.69 0.68 23.4 0 0 716.93 651.19
  L 708.54 646.05
  A 2.21 2.20 44.1 0 0 706.17 646.08
  Q 695.66 652.92 684.96 658.72
  A 1.88 1.85 -31.7 0 1 682.53 658.16
  Q 682.31 657.84 682.43 657.13
  Q 684.49 645.67 687.47 633.00
  A 2.28 2.26 -62.5 0 0 686.79 630.81
  L 669.99 615.45
  A 1.98 1.98 0.0 0 1 671.16 612.01
  L 696.47 609.83
  A 1.33 1.32 8.2 0 0 697.59 609.00
  L 706.50 586.45
  A 1.05 1.01 4.2 0 1 707.23 585.84
  Q 709.08 585.45 710.02 587.53
  Q 716.31 601.47 718.78 608.39
  A 1.41 1.41 0.0 0 0 720.11 609.33
  L 737.79 609.38
  A 0.65 0.34 35.5 0 1 737.94 609.40
  Q 739.66 609.91 738.45 610.94"
/>
<path stroke="#777778" vector-effect="non-scaling-stroke" d="
  M 738.45 610.94
  L 719.68 610.06
  A 2.39 2.38 80.0 0 1 717.59 608.59
  L 708.60 586.90
  A 0.55 0.55 0.0 0 0 707.58 586.91
  L 698.67 609.43
  A 2.56 2.55 -81.7 0 1 696.52 611.04
  L 670.61 613.26
  A 0.56 0.55 -26.2 0 0 670.28 614.22
  L 688.27 630.66
  A 1.64 1.61 27.4 0 1 688.77 632.19
  L 683.47 657.52
  A 0.35 0.34 80.9 0 0 683.98 657.89
  L 706.50 644.89
  A 2.93 2.92 47.4 0 1 709.64 645.03
  L 717.60 650.55
  A 0.56 0.56 0.0 0 0 718.36 650.44
  Q 724.34 642.85 727.76 634.01"
/>
<path stroke="#0a1c33" vector-effect="non-scaling-stroke" d="
  M 727.76 634.01
  Q 731.06 630.22 731.51 625.55"
/>
<path stroke="#777778" vector-effect="non-scaling-stroke" d="
  M 731.51 625.55
  Q 736.81 618.87 740.10 611.00"
/>
<path stroke="#0a1c33" vector-effect="non-scaling-stroke" d="
  M 740.10 611.00
  L 741.64 606.96"
/>
<path stroke="#0f3158" vector-effect="non-scaling-stroke" d="
  M 741.64 606.96
  Q 752.80 581.60 760.67 553.94
  Q 777.34 495.40 771.62 435.18"
/>
<path stroke="#0a1c33" vector-effect="non-scaling-stroke" d="
  M 771.62 435.18
  Q 772.18 432.55 771.28 429.92"
/>
<path stroke="#777778" vector-effect="non-scaling-stroke" d="
  M 771.28 429.92
  L 770.19 419.94
  A 0.99 0.99 0.0 0 0 769.21 419.06
  L 760.71 419.06
  A 0.41 0.41 0.0 0 0 760.41 419.76
  L 770.14 429.66"
/>
<path stroke="#0a1c33" vector-effect="non-scaling-stroke" d="
  M 770.14 429.66
  Q 770.13 430.20 769.73 430.49
  A 0.51 0.51 0.0 0 1 769.06 430.44
  L 759.87 421.04
  A 1.72 1.72 0.0 0 1 760.26 418.34
  Q 760.73 418.05 761.94 418.03
  Q 765.10 417.98 768.78 417.68"
/>
<path stroke="#0f3158" vector-effect="non-scaling-stroke" d="
  M 768.78 417.68
  Q 769.19 418.48 769.72 417.95
  A 0.49 0.49 0.0 0 0 769.86 417.54
  Q 765.25 380.66 752.43 345.65"
/>
<path stroke="#0a1c33" vector-effect="non-scaling-stroke" d="
  M 752.43 345.65
  Q 751.54 341.49 749.60 338.68"
/>
<path stroke="#0f3158" vector-effect="non-scaling-stroke" d="
  M 749.60 338.68
  Q 732.52 293.96 702.65 256.58
  Q 680.54 228.91 651.80 207.72
  Q 594.55 165.52 525.05 154.66
  Q 514.18 152.96 498.91 152.60
  Q 498.36 152.58 498.20 152.83
  Q 498.01 153.13 498.07 153.62"
/>
<path stroke="#0a1c33" vector-effect="non-scaling-stroke" d="
  M 498.07 153.62
  Q 497.79 165.85 498.06 177.25
  Q 498.11 179.22 496.26 180.51
  Q 454.42 209.88 400.08 247.95
  A 0.63 0.63 0.0 0 0 400.17 249.03
  Q 400.51 249.20 401.50 249.19
  Q 422.62 248.94 494.31 249.11
  A 1.84 1.83 -0.3 0 1 496.15 250.92
  Q 496.26 260.42 496.09 269.87
  Q 496.07 270.51 495.28 271.73"
/>
<path stroke="#631418" vector-effect="non-scaling-stroke" d="
  M 495.28 271.73
  Q 494.76 271.23 494.89 270.68"
/>
<path stroke="#777778" vector-effect="non-scaling-stroke" d="
  M 494.89 270.68
  L 494.96 250.62
  A 0.41 0.40 -90.0 0 0 494.56 250.21
  L 395.85 250.21
  A 0.43 0.43 0.0 0 1 395.61 249.42
  L 496.01 179.62
  A 1.81 1.79 -17.7 0 0 496.78 178.15
  L 496.78 152.75
  A 0.55 0.55 0.0 0 0 496.23 152.20
  L 486.67 152.23"
/>
<path stroke="#631418" vector-effect="non-scaling-stroke" d="
  M 486.67 152.23
  Q 471.50 151.79 456.63 154.24"
/>
<path stroke="#d98b8f" vector-effect="non-scaling-stroke" d="
  M 486.67 152.23
  Q 484.74 154.18 483.04 155.31
  C 467.23 165.71 448.09 179.26 436.13 187.39
  Q 388.00 220.10 346.69 247.77
  C 343.77 249.73 342.00 250.32 338.75 250.31
  C 327.78 250.30 321.16 249.96 316.79 250.78
  A 0.38 0.38 0.0 0 1 316.36 250.27
  Q 316.41 250.13 316.67 249.95
  Q 372.67 210.77 444.00 162.27
  Q 450.13 158.10 456.63 154.24"
/>
<path stroke="#d98b8f" vector-effect="non-scaling-stroke" d="
  M 494.89 270.68
  L 294.64 270.57
  A 0.68 0.67 90.0 0 1 293.97 269.89
  L 293.87 225.32"
/>
<path stroke="#8193aa" vector-effect="non-scaling-stroke" d="
  M 313.62 210.23
  L 313.54 211.56"
/>
<path stroke="#194d8a" vector-effect="non-scaling-stroke" d="
  M 314.72 209.25
  Q 319.25 207.14 323.47 204.26
  Q 329.94 199.86 330.02 199.81
  Q 373.30 172.62 423.32 160.42
  A 0.67 0.67 0.0 0 0 423.81 159.92
  Q 423.82 159.87 423.61 159.56"
/>
<path stroke="#631418" vector-effect="non-scaling-stroke" d="
  M 495.01 305.25
  Q 480.87 304.50 472.03 305.34
  Q 446.44 307.77 421.49 319.07"
/>
<path stroke="#d98b8f" vector-effect="non-scaling-stroke" d="
  M 421.49 319.07
  L 294.59 319.00
  A 0.56 0.56 0.0 0 0 294.03 319.56
  L 293.89 426.14"
/>
<path stroke="#631418" vector-effect="non-scaling-stroke" d="
  M 293.89 426.14
  Q 294.05 425.61 292.54 426.29"
/>
<path stroke="#631418" vector-effect="non-scaling-stroke" d="
  M 259.61 426.51
  Q 258.52 425.92 257.86 426.00"
/>
<path stroke="#d98b8f" vector-effect="non-scaling-stroke" d="
  M 257.86 426.00
  L 257.81 319.72
  A 0.68 0.67 0.4 0 0 257.14 319.05
  L 216.99 318.78"
/>
<path stroke="#194d8a" vector-effect="non-scaling-stroke" d="
  M 752.43 345.65
  Q 751.98 347.02 752.77 349.20
  Q 764.82 382.49 768.78 417.68"
/>
<path stroke="#8193aa" vector-effect="non-scaling-stroke" d="
  M 770.14 429.66
  Q 770.93 430.58 771.28 429.92"
/>
<path stroke="#194d8a" vector-effect="non-scaling-stroke" d="
  M 771.62 435.18
  Q 771.20 442.47 771.70 449.83
  Q 772.50 461.85 772.47 464.21
  Q 772.25 483.09 769.99 503.44
  C 769.27 509.94 768.30 514.67 767.37 520.67
  Q 766.29 527.65 764.97 533.53
  Q 756.50 571.14 740.71 606.90
  A 0.31 0.31 0.0 0 0 741.16 607.28
  L 741.64 606.96"
/>
<path stroke="#8193aa" vector-effect="non-scaling-stroke" d="
  M 740.10 611.00
  L 738.45 610.94"
/>
<path stroke="#194d8a" vector-effect="non-scaling-stroke" d="
  M 715.39 654.22
  Q 708.98 662.53 702.72 670.86
  Q 694.55 681.73 689.87 687.32
  Q 662.99 719.39 629.56 743.04
  Q 566.96 787.33 487.73 794.69
  Q 480.86 795.32 470.76 795.39
  Q 459.46 795.47 453.77 795.25
  Q 441.91 794.79 422.28 792.00
  Q 404.97 789.54 385.77 783.73
  Q 358.23 775.38 330.72 760.07
  A 0.39 0.39 0.0 0 0 330.14 760.46
  Q 330.15 760.60 330.21 760.78"
/>
<path stroke="#8193aa" vector-effect="non-scaling-stroke" d="
  M 188.75 386.02
  Q 189.78 385.95 190.46 385.17"
/>
<path stroke="#0a1c33" vector-effect="non-scaling-stroke" d="
  M 190.46 385.17
  Q 190.76 385.77 191.65 385.66
  A 3.09 3.04 23.7 0 0 193.05 385.13
  L 235.07 356.34
  A 0.71 0.71 0.0 0 1 236.18 356.93
  L 236.09 422.53
  A 0.78 0.36 -69.7 0 0 236.10 422.66
  L 236.64 426.45
  A 1.09 1.07 -1.9 0 0 237.64 427.37
  Q 248.62 428.04 259.61 426.51"
/>
<path stroke="#6d304a" vector-effect="non-scaling-stroke" d="
  M 259.61 426.51
  L 292.54 426.29"
/>
<path stroke="#0a1c33" vector-effect="non-scaling-stroke" d="
  M 292.54 426.29
  Q 294.47 427.41 297.27 427.42
  Q 308.07 427.46 312.81 427.56
  A 1.71 1.70 6.8 0 0 314.51 426.23
  Q 314.87 424.64 314.88 423.50
  Q 314.98 386.22 314.66 350.57
  A 0.64 0.64 0.0 0 1 315.80 350.15
  Q 316.51 351.00 317.06 351.54
  Q 336.72 370.69 346.58 379.56
  Q 346.93 379.87 347.48 379.20"
/>
<path stroke="#8193aa" vector-effect="non-scaling-stroke" d="
  M 347.48 379.20
  L 347.83 379.46"
/>
<path stroke="#194d8a" vector-effect="non-scaling-stroke" d="
  M 347.83 379.46
  Q 347.62 379.94 347.23 380.19
  A 1.96 0.55 -24.2 0 0 346.50 380.80
  Q 331.40 402.03 323.69 426.89
  Q 319.71 439.72 318.84 445.55
  C 317.47 454.69 316.45 459.75 316.14 467.47
  Q 315.37 486.30 316.74 499.75
  Q 319.72 529.13 332.96 556.32
  Q 349.77 590.84 381.65 613.59
  Q 396.94 624.51 413.79 630.95
  Q 425.61 635.47 433.61 637.37
  Q 448.19 640.86 463.93 641.69
  C 479.57 642.52 495.60 640.73 509.93 637.14
  C 529.89 632.14 547.91 622.46 565.29 610.05
  Q 575.76 602.56 584.82 593.40
  Q 598.74 579.32 606.74 567.04
  Q 629.49 532.14 633.11 490.03
  Q 633.22 488.81 633.13 487.97
  Q 632.90 485.94 632.41 487.55"
/>
<path stroke="#0a1c33" vector-effect="non-scaling-stroke" d="
  M 632.41 487.55
  Q 632.20 484.91 632.35 482.25
  Q 632.39 481.62 632.87 481.01
  A 0.10 0.09 33.6 0 1 633.00 480.99
  L 655.28 494.63
  A 1.49 1.49 0.0 0 0 657.53 493.11
  L 653.50 469.29
  A 2.80 2.80 0.0 0 1 654.26 466.86
  Q 654.81 466.29 656.00 465.24
  Q 665.58 456.76 671.84 450.90
  Q 672.23 450.54 672.08 450.02
  Q 671.98 449.70 671.56 449.77"
/>
<path stroke="#8193aa" vector-effect="non-scaling-stroke" d="
  M 671.56 449.77
  Q 671.34 449.20 670.72 449.17"
/>
<path stroke="#0a1c33" vector-effect="non-scaling-stroke" d="
  M 670.72 449.17
  Q 671.21 448.09 669.50 447.97
  Q 663.40 447.54 651.25 446.91
  Q 646.04 446.64 645.06 446.46
  A 1.76 1.71 -12.1 0 1 643.98 445.78
  C 643.57 445.23 643.18 442.84 642.72 441.65
  Q 641.16 437.52 637.59 429.01
  C 636.59 426.60 635.27 424.57 634.68 422.04
  A 0.50 0.50 0.0 0 0 633.81 421.84
  Q 633.74 421.93 633.76 422.27"
/>
<path stroke="#8193aa" vector-effect="non-scaling-stroke" d="
  M 633.76 422.27
  Q 633.21 421.99 632.46 421.91"
/>
<path stroke="#0a1c33" vector-effect="non-scaling-stroke" d="
  M 632.46 421.91
  Q 631.44 421.58 630.33 423.59"
/>
<path stroke="#194d8a" vector-effect="non-scaling-stroke" d="
  M 630.33 423.59
  Q 630.13 423.36 629.85 423.19
  A 1.10 1.06 -82.4 0 1 629.34 422.50
  C 622.02 392.60 607.38 365.77 584.56 344.92
  Q 566.45 328.39 543.27 317.53
  Q 521.70 307.42 498.42 304.85
  A 0.48 0.46 -59.1 0 0 498.09 304.94
  Q 497.72 305.24 498.05 305.63"
/>
<path stroke="#0a1c33" vector-effect="non-scaling-stroke" d="
  M 498.05 305.63
  Q 496.38 305.97 495.01 305.25"
/>
<path stroke="#6d304a" vector-effect="non-scaling-stroke" d="
  M 495.01 305.25
  L 495.28 271.73"
/>
<path stroke="#0f3158" vector-effect="non-scaling-stroke" d="
  M 498.05 305.63
  C 523.83 308.76 547.91 318.82 569.12 333.68
  C 598.12 353.99 618.15 383.84 627.12 418.13
  C 627.80 420.71 628.36 425.11 629.63 428.52"
/>
<path stroke="#777778" vector-effect="non-scaling-stroke" d="
  M 629.63 428.52
  L 631.50 443.19"
/>
<path stroke="#631418" vector-effect="non-scaling-stroke" d="
  M 631.50 443.19
  L 633.20 472.29"
/>
<path stroke="#777778" vector-effect="non-scaling-stroke" d="
  M 633.20 472.29
  L 633.01 479.02
  A 1.40 1.40 0.0 0 0 633.68 480.25
  L 656.02 493.93
  A 0.35 0.35 0.0 0 0 656.54 493.57
  Q 654.96 484.63 652.28 470.50
  Q 651.72 467.56 653.08 466.33
  Q 662.32 458.04 671.56 449.77"
/>
<path stroke="#0f3158" vector-effect="non-scaling-stroke" d="
  M 632.41 487.55
  C 630.25 517.72 619.86 548.73 601.50 573.02
  Q 574.21 609.11 534.02 627.71
  Q 517.31 635.44 500.18 638.33
  Q 484.35 640.99 473.01 641.07
  C 430.03 641.38 388.86 624.34 359.39 593.11
  C 334.41 566.64 320.17 531.53 317.25 495.31
  C 316.53 486.38 316.57 473.90 317.15 465.94
  Q 320.60 418.24 348.30 379.60"
/>
<path stroke="#777778" vector-effect="non-scaling-stroke" d="
  M 348.30 379.60
  L 366.00 358.50"
/>
<path stroke="#631418" vector-effect="non-scaling-stroke" d="
  M 366.00 358.50
  Q 375.24 348.86 386.14 340.01"
/>
<path stroke="#777778" vector-effect="non-scaling-stroke" d="
  M 386.14 340.01
  Q 392.57 335.70 399.70 330.95
  Q 407.01 326.08 421.49 319.07"
/>
<path stroke="#777778" vector-effect="non-scaling-stroke" d="
  M 257.86 426.00
  L 238.27 426.23
  A 0.53 0.53 0.0 0 1 237.73 425.70
  L 237.73 353.38
  A 0.33 0.32 72.6 0 0 237.22 353.11
  L 190.46 385.17"
/>
<path stroke="#d98b8f" vector-effect="non-scaling-stroke" d="
  M 193.17 372.59
  L 240.57 340.55
  A 0.35 0.35 0.0 0 0 240.37 339.91
  L 205.73 340.18"
/>
<path stroke="#d98b8f" vector-effect="non-scaling-stroke" d="
  M 386.14 340.01
  L 347.50 339.99
  A 0.16 0.16 0.0 0 0 347.39 340.26
  L 366.00 358.50"
/>
<path stroke="#85a8cf" vector-effect="non-scaling-stroke" d="
  M 348.30 379.60
  L 347.83 379.46"
/>
<path stroke="#777778" vector-effect="non-scaling-stroke" d="
  M 347.48 379.20
  L 314.23 346.86
  A 0.41 0.41 0.0 0 0 313.54 347.15
  L 313.54 425.78
  A 0.40 0.40 0.0 0 1 313.14 426.18
  L 293.89 426.14"
/>
<path stroke="#194d8a" vector-effect="non-scaling-stroke" d="
  M 749.60 338.68
  Q 737.17 311.75 730.22 299.02
  Q 720.25 280.76 702.26 257.36
  Q 692.14 244.19 675.02 227.96
  Q 673.70 226.71 667.35 221.31
  Q 664.32 218.73 659.60 214.93
  Q 620.39 183.39 571.84 167.00
  C 555.84 161.60 539.30 157.58 521.01 154.99
  Q 510.64 153.52 498.07 153.62"
/>
<path stroke="#d98b8f" vector-effect="non-scaling-stroke" d="
  M 633.20 472.29
  L 646.72 480.41
  A 0.40 0.40 0.0 0 0 647.32 480.00
  Q 645.01 467.19 644.98 466.74
  Q 644.84 464.61 646.39 463.35
  Q 651.04 459.54 655.19 455.49
  A 0.35 0.35 0.0 0 0 654.97 454.89
  Q 641.86 453.88 641.80 453.88
  Q 639.21 453.80 638.15 451.05
  Q 638.09 450.90 633.97 439.74
  A 0.32 0.32 0.0 0 0 633.35 439.81
  Q 633.03 442.06 631.50 443.19"
/>
<path stroke="#8193aa" vector-effect="non-scaling-stroke" d="
  M 731.51 625.55
  C 728.13 627.65 725.76 629.82 727.76 634.01"
/>
<path stroke="#0f3158" vector-effect="non-scaling-stroke" d="
  M 630.33 423.59
  Q 629.51 425.83 630.46 426.51"
/>
<path stroke="#85a8cf" vector-effect="non-scaling-stroke" d="
  M 630.46 426.51
  L 629.63 428.52"
/>
<path stroke="#777778" vector-effect="non-scaling-stroke" d="
  M 632.46 421.91
  L 630.46 426.51"
/>
<path stroke="#777778" vector-effect="non-scaling-stroke" d="
  M 670.72 449.17
  L 644.76 447.62
  A 1.55 1.55 0.0 0 1 643.41 446.64
  L 633.76 422.27"
/>
<path stroke="#8193aa" vector-effect="non-scaling-stroke" d="
  M 711.05 317.27
  L 710.05 317.04"
/>
<path stroke="#0a1c33" vector-effect="non-scaling-stroke" d="
  M 710.05 317.04
  Q 710.09 316.79 709.66 316.65
  A 0.46 0.46 0.0 0 0 709.09 316.92
  L 700.39 338.91
  A 1.41 1.39 -80.7 0 1 699.17 339.80
  L 674.88 341.14
  A 1.61 1.61 0.0 0 0 673.83 343.88
  L 689.80 359.84
  A 2.33 2.32 28.3 0 1 690.43 361.93
  Q 689.16 368.21 685.59 384.10
  Q 685.26 385.58 685.41 386.32
  A 1.51 1.51 0.0 0 0 687.60 387.36
  Q 693.72 384.11 708.24 376.02
  Q 710.40 374.82 711.70 375.59
  Q 725.09 383.50 727.73 385.00
  Q 730.78 386.72 732.35 387.30
  A 1.42 1.42 0.0 0 0 734.26 386.04
  Q 734.31 385.00 734.02 382.81
  Q 732.83 373.84 730.28 362.58
  A 2.36 2.36 0.0 0 1 731.09 360.22
  Q 742.20 351.16 749.52 345.51
  Q 751.17 344.25 749.72 342.31
  A 1.04 1.00 -15.3 0 0 748.99 341.91
  L 722.88 339.75
  A 2.44 2.43 -7.2 0 1 720.78 338.13
  Q 717.05 327.41 712.19 317.71
  A 1.22 1.13 -87.7 0 0 711.84 317.30
  Q 711.27 316.89 711.05 317.27"
/>
<path stroke="#777778" vector-effect="non-scaling-stroke" d="
  M 710.05 317.04
  L 701.39 339.65
  A 1.90 1.90 0.0 0 1 699.73 340.86
  L 674.75 342.24
  A 0.47 0.46 -23.9 0 0 674.44 343.03
  L 691.44 360.03
  A 0.44 0.44 0.0 0 1 691.58 360.30
  Q 691.77 361.63 691.44 363.24
  Q 689.04 374.77 686.46 385.47
  A 0.68 0.68 0.0 0 0 687.45 386.22
  Q 697.77 380.42 708.21 374.71
  Q 710.44 373.50 712.67 374.82
  Q 724.39 381.75 732.47 386.41
  A 0.58 0.58 0.0 0 0 733.33 385.80
  L 729.22 361.51
  A 1.80 1.80 0.0 0 1 729.86 359.82
  Q 740.63 350.94 749.14 344.40
  Q 749.65 344.00 749.38 343.45
  Q 749.21 343.11 748.71 343.06
  Q 731.81 341.49 721.86 340.95
  A 2.10 2.09 80.5 0 1 720.03 339.64
  L 711.05 317.27"
/>
<path stroke="#0f3158" vector-effect="non-scaling-stroke" d="
  M 351.05 542.16
  C 359.64 563.19 374.76 581.64 393.20 594.60
  Q 410.47 606.74 432.59 612.65
  Q 471.11 622.95 510.62 609.06
  C 534.51 600.65 554.46 585.90 570.92 566.95
  Q 587.33 548.07 595.92 525.21
  C 606.02 498.34 610.19 469.81 606.40 441.31
  C 602.19 409.63 587.16 380.37 562.51 359.74
  Q 547.85 347.47 532.24 340.23
  C 504.99 327.60 473.94 325.19 445.01 332.88
  Q 411.11 341.90 385.46 367.22
  C 358.88 393.46 343.35 429.82 340.05 467.15
  C 337.73 493.38 341.39 518.51 351.05 542.16"
/>
<path stroke="#d98b8f" vector-effect="non-scaling-stroke" d="
  M 710.93 333.36
  A 0.29 0.29 0.0 0 0 710.39 333.35
  L 705.49 345.74
  A 1.99 1.99 0.0 0 1 703.75 346.99
  L 689.37 347.79
  A 0.41 0.40 -24.0 0 0 689.10 348.48
  L 698.27 357.66
  A 1.97 1.96 -61.9 0 1 698.81 359.46
  L 695.89 373.41
  A 0.40 0.40 0.0 0 0 696.47 373.84
  Q 708.42 367.31 708.69 367.17
  Q 710.63 366.16 712.41 367.14
  Q 715.13 368.65 723.99 374.07
  A 0.42 0.42 0.0 0 0 724.63 373.65
  Q 723.62 366.78 722.28 361.36
  C 721.76 359.24 722.14 357.81 723.80 356.52
  Q 729.79 351.88 733.15 348.60
  A 0.25 0.25 0.0 0 0 732.99 348.17
  L 716.62 346.82
  A 1.70 1.69 -7.1 0 1 715.15 345.68
  L 710.93 333.36"
/>
<path stroke="#194d8a" vector-effect="non-scaling-stroke" d="
  M 351.91 541.84
  C 360.47 562.72 375.52 581.04 393.85 593.89
  Q 411.02 605.93 433.01 611.78
  Q 471.29 621.97 510.53 608.13
  C 534.26 599.74 554.07 585.07 570.40 566.22
  Q 586.68 547.44 595.19 524.72
  C 605.20 498.01 609.31 469.66 605.51 441.35
  C 601.29 409.87 586.32 380.82 561.81 360.35
  Q 547.23 348.17 531.71 341.00
  C 504.62 328.48 473.77 326.12 445.03 333.79
  Q 411.36 342.79 385.91 367.98
  C 359.53 394.08 344.14 430.23 340.90 467.32
  C 338.62 493.38 342.29 518.35 351.91 541.84"
/>
<path stroke="#194d8a" vector-effect="non-scaling-stroke" d="
  M 561.58 429.82
  C 551.53 403.17 532.72 384.94 505.71 375.51
  Q 491.29 370.48 475.25 370.87
  C 456.32 371.33 437.71 377.32 422.57 388.79
  Q 412.95 396.09 404.69 406.88
  Q 386.85 430.17 381.23 457.98
  Q 378.32 472.41 379.24 484.62
  Q 380.25 498.09 384.04 510.89
  C 390.94 534.18 407.04 554.28 429.49 563.90
  Q 441.95 569.25 456.02 571.20
  Q 487.98 575.64 515.51 559.02
  Q 526.60 552.32 534.94 543.66
  Q 567.12 510.24 567.32 464.83
  Q 567.40 445.26 561.58 429.82"
/>
<path stroke="#0f3158" vector-effect="non-scaling-stroke" d="
  M 560.53 429.84
  C 550.45 403.49 531.73 385.52 504.93 376.30
  Q 490.62 371.39 474.73 371.85
  C 455.99 372.40 437.58 378.42 422.64 389.85
  Q 413.14 397.13 405.01 407.86
  Q 387.45 431.01 382.02 458.59
  Q 379.20 472.90 380.17 484.99
  Q 381.24 498.33 385.05 510.99
  C 392.00 534.02 408.04 553.86 430.32 563.28
  Q 442.69 568.52 456.64 570.39
  Q 488.32 574.63 515.51 558.04
  Q 526.46 551.35 534.68 542.73
  Q 566.40 509.47 566.38 464.49
  Q 566.37 445.10 560.53 429.84"
/>
<path stroke="#08121e" vector-effect="non-scaling-stroke" d="
  M 481.37 395.43
  Q 478.99 394.82 477.28 395.54"
/>
<path stroke="#0a1c33" vector-effect="non-scaling-stroke" d="
  M 477.28 395.54
  Q 454.69 393.30 437.80 405.53
  C 418.31 419.63 407.27 440.14 403.50 463.91
  C 402.42 470.77 402.59 479.34 402.94 486.27
  C 403.61 499.54 406.80 515.50 414.36 525.70
  Q 420.71 534.26 429.75 539.27
  Q 443.16 546.69 454.96 548.83
  Q 463.95 550.46 463.65 551.21
  A 0.01 0.00 -31.7 0 0 463.66 551.21
  L 463.92 550.68
  A 0.45 0.45 0.0 0 0 463.74 550.09
  C 461.53 548.83 459.42 547.61 457.58 546.03
  Q 439.11 530.05 432.11 506.38
  C 430.17 499.81 429.56 493.83 429.09 487.03
  Q 427.60 465.11 437.67 445.41
  C 448.88 423.48 468.00 404.83 491.62 396.52
  A 0.19 0.19 0.0 0 0 491.57 396.15
  L 481.37 395.43"
/>
<path stroke="#122e51" vector-effect="non-scaling-stroke" d="
  M 477.28 395.54
  Q 471.81 395.99 466.41 396.47
  Q 459.52 397.09 455.68 398.15
  C 436.30 403.51 421.88 418.24 413.01 436.27
  Q 407.59 447.31 404.76 461.92
  Q 403.34 469.28 403.50 478.65
  Q 403.67 488.83 404.68 495.42
  Q 405.85 503.06 408.03 510.25
  C 412.51 524.96 422.36 535.55 436.32 541.76
  Q 444.47 545.38 453.19 547.62
  Q 456.26 548.40 458.26 548.32
  A 0.36 0.36 0.0 0 0 458.46 547.67
  C 444.93 537.25 436.11 522.52 431.14 506.28
  Q 429.01 499.30 428.28 488.79
  Q 427.57 478.48 428.60 471.09
  Q 431.41 451.13 443.37 434.13
  Q 451.88 422.03 459.21 415.46
  Q 467.93 407.63 473.44 404.43
  Q 481.39 399.82 484.20 398.15
  A 0.66 0.66 0.0 0 0 484.19 397.00
  L 481.37 395.43"
/>
<path stroke="#d98b8f" vector-effect="non-scaling-stroke" d="
  M 685.44 619.30
  L 695.24 628.26
  A 2.28 2.27 27.3 0 1 695.93 630.41
  L 693.02 644.34
  A 0.50 0.50 0.0 0 0 693.79 644.86
  C 698.20 641.94 702.09 639.68 705.76 637.74
  Q 707.91 636.60 709.06 637.22
  Q 716.55 641.25 720.99 643.96
  A 0.63 0.63 0.0 0 0 721.94 643.32
  Q 721.86 642.83 719.99 634.07
  C 719.12 630.00 718.28 627.97 721.18 625.23
  Q 725.44 621.21 729.01 618.10
  A 0.45 0.45 0.0 0 0 728.75 617.32
  L 714.65 616.15
  A 2.35 2.34 82.7 0 1 712.62 614.57
  L 708.73 603.19
  A 0.47 0.47 0.0 0 0 707.85 603.17
  L 703.14 615.09
  A 2.97 2.96 7.0 0 1 700.77 616.94
  L 685.53 618.99
  A 0.18 0.18 0.0 0 0 685.44 619.30"
/>
</g>
<path fill="#000000" d="
  M 136.26 331.13
  Q 141.94 317.57 143.58 313.69
  C 159.07 277.00 180.56 242.95 207.06 212.05
  Q 215.92 201.73 218.29 199.29
  Q 224.99 192.36 232.61 184.76
  Q 239.12 178.27 247.52 170.87
  Q 286.39 136.60 335.86 112.63
  Q 392.83 85.02 455.48 76.47
  Q 468.01 74.75 471.48 74.72
  Q 471.74 74.72 473.10 74.32
  A 3.61 3.57 35.0 0 1 473.98 74.17
  C 480.96 73.95 487.91 73.02 494.82 73.00
  Q 516.98 72.91 524.64 73.00
  C 531.38 73.07 538.71 74.06 546.07 74.13
  C 547.11 74.14 548.60 74.59 549.90 74.70
  Q 559.65 75.52 568.57 76.85
  Q 655.85 89.86 729.13 137.61
  Q 755.87 155.04 778.94 175.82
  Q 791.09 186.76 804.09 200.91
  Q 826.62 225.44 843.87 251.60
  Q 850.30 261.35 857.38 273.78
  Q 863.87 285.18 869.27 296.82
  Q 898.93 360.86 905.62 431.53
  Q 905.97 435.24 906.13 439.49
  C 906.26 442.95 906.87 446.17 906.95 450.09
  Q 907.63 480.51 906.57 497.32
  Q 901.37 579.78 864.94 653.70
  Q 855.16 673.57 842.86 693.39
  Q 833.04 709.21 815.78 731.05
  Q 789.18 764.71 754.91 791.91
  Q 726.24 814.66 695.94 831.44
  Q 661.65 850.43 621.29 863.06
  Q 604.38 868.36 579.80 873.06
  Q 558.49 877.14 548.24 877.95
  Q 545.03 878.21 543.58 878.46
  C 539.63 879.13 536.36 878.91 532.47 879.43
  Q 529.82 879.79 526.02 879.94
  Q 504.10 880.85 480.21 879.95
  C 474.46 879.73 470.09 879.22 463.29 878.62
  Q 449.69 877.42 434.99 875.02
  Q 383.69 866.64 336.17 845.12
  Q 316.96 836.42 301.21 827.04
  Q 250.29 796.72 212.27 754.26
  Q 184.89 723.68 163.68 687.71
  Q 143.08 652.77 129.94 612.54
  Q 117.90 575.69 113.59 544.47
  Q 110.77 524.00 110.23 515.42
  Q 109.81 508.55 109.68 507.30
  C 108.56 496.02 108.96 484.35 109.01 469.69
  Q 109.02 465.11 109.61 459.88
  Q 110.11 455.45 110.01 449.64
  Q 110.01 449.58 110.01 449.52
  L 111.20 436.58
  A 1.65 0.84 72.0 0 1 111.23 436.39
  C 111.97 433.25 111.96 430.35 112.38 426.97
  C 116.40 394.86 124.14 363.09 135.87 332.90
  Q 136.00 332.57 136.06 331.93
  A 2.82 2.61 61.2 0 1 136.26 331.13
  Z
  M 272.72 179.46
  L 264.67 185.78
  L 258.29 190.97
  Q 249.41 198.92 241.02 207.44
  C 239.85 208.63 237.63 210.57 237.64 212.03
  Q 237.67 223.21 237.70 249.44
  A 0.86 0.86 0.0 0 1 236.84 250.30
  L 221.89 250.30
  A 0.44 0.44 0.0 0 1 221.45 249.85
  L 221.63 241.04
  L 221.65 233.50
  A 0.34 0.34 0.0 0 1 221.99 233.16
  L 222.34 233.16
  A 0.42 0.42 0.0 0 1 222.76 233.58
  L 222.76 248.17
  A 0.99 0.99 0.0 0 0 223.75 249.16
  L 235.28 249.16
  A 1.10 1.10 0.0 0 0 236.38 248.06
  L 236.38 213.88
  A 0.45 0.45 0.0 0 0 235.63 213.54
  Q 233.20 215.66 231.86 218.21
  L 222.43 228.86
  Q 205.35 248.31 191.18 270.64
  Q 176.34 293.52 164.64 318.93
  Q 158.56 331.60 154.18 345.28
  L 149.81 357.75
  A 0.29 0.28 -67.6 0 0 149.95 358.10
  L 150.24 358.24
  A 0.03 0.02 -58.3 0 0 150.26 358.23
  L 154.50 350.39
  A 2.64 2.27 -14.2 0 1 154.88 349.85
  Q 157.43 347.07 157.91 343.51
  Q 158.70 343.08 159.58 343.18
  A 0.59 0.59 0.0 0 1 160.03 344.04
  Q 155.18 353.17 149.84 361.81
  C 144.18 370.97 142.60 379.15 139.72 391.37
  Q 136.66 403.23 134.99 415.96
  Q 134.05 418.13 133.60 421.28
  Q 133.17 424.24 132.75 427.20
  Q 129.36 453.93 128.91 472.00
  Q 128.61 484.43 129.84 510.33
  C 130.56 525.65 132.48 542.22 134.70 554.80
  C 141.52 593.34 155.83 631.43 174.10 665.67
  C 205.39 724.33 252.62 774.55 310.30 808.43
  Q 342.91 827.59 379.43 838.10
  Q 427.30 851.87 476.96 852.12
  C 487.03 852.17 495.22 851.35 506.00 850.27
  C 554.36 845.46 600.34 829.07 642.74 804.18
  Q 705.68 767.24 749.36 707.38
  Q 759.19 693.91 769.11 677.68
  Q 815.10 602.43 825.81 515.27
  Q 830.99 473.18 827.99 429.76
  A 0.42 0.41 -6.4 0 0 827.51 429.38
  Q 827.01 429.46 826.83 429.64
  L 814.92 441.39
  A 1.00 0.97 -27.7 0 0 814.64 442.24
  Q 816.50 453.18 818.02 460.23
  Q 818.88 464.20 818.10 467.41
  L 813.51 442.23
  A 2.24 2.23 63.6 0 1 814.19 440.19
  L 827.24 428.18
  A 1.70 1.69 -14.8 0 0 827.74 427.33
  Q 828.06 425.94 827.83 423.95
  A 0.88 0.88 0.0 0 0 827.04 423.17
  Q 820.43 422.47 809.67 421.67
  Q 807.49 421.50 806.82 419.39
  Q 802.73 406.41 799.76 397.62
  A 0.60 0.59 -41.7 0 0 798.66 397.56
  L 789.90 415.90
  A 5.34 5.27 60.6 0 0 789.39 417.78
  Q 788.97 423.00 790.29 428.30
  L 791.87 448.14
  L 792.13 457.79
  A 0.21 0.21 0.0 0 0 792.19 457.91
  Q 792.30 458.02 792.46 458.05
  L 792.20 459.52
  C 792.64 491.77 790.18 523.37 782.12 554.23
  C 766.38 614.43 735.57 670.01 693.68 715.94
  C 671.30 740.48 645.65 760.03 616.70 776.96
  C 584.69 795.67 547.55 809.48 510.65 815.18
  Q 480.73 819.80 448.71 817.58
  Q 408.21 814.78 371.66 802.98
  Q 356.89 798.20 348.31 794.49
  Q 300.52 773.80 264.95 740.32
  Q 220.22 698.22 193.00 641.51
  Q 154.85 562.03 156.68 472.75
  Q 157.36 439.69 162.91 411.20
  Q 163.44 409.71 163.40 408.43
  A 0.36 0.35 72.3 0 0 162.85 408.14
  Q 149.60 417.19 137.53 425.77
  Q 134.65 427.81 134.96 426.11
  Q 148.64 416.68 162.05 407.28
  Q 164.51 405.56 165.14 402.58
  Q 166.08 398.22 167.02 394.04
  L 175.16 367.18
  Q 175.23 366.54 175.85 364.97
  Q 185.01 341.37 196.06 318.83
  Q 208.64 293.93 224.81 271.45
  A 0.62 0.61 -36.1 0 0 224.90 270.91
  Q 224.87 270.81 224.81 270.67
  Q 225.71 270.55 226.49 269.47
  Q 239.67 251.22 254.30 235.73
  Q 255.11 234.87 256.26 233.35
  Q 257.24 232.03 258.28 231.02
  Q 274.38 214.82 291.49 199.97
  Q 300.08 192.51 309.68 186.39
  Q 310.12 186.11 310.48 185.74
  Q 331.21 170.95 355.87 159.65
  Q 403.67 137.75 454.07 132.13
  Q 467.16 130.67 488.51 130.06
  C 497.10 129.81 507.80 130.65 515.47 131.19
  Q 556.18 134.09 593.93 149.83
  Q 646.09 171.57 687.75 210.02
  Q 712.43 232.80 728.87 256.20
  C 743.20 276.60 754.76 296.72 764.40 320.11
  Q 780.67 359.56 787.36 401.94
  Q 788.40 408.51 788.78 413.85
  A 0.29 0.29 0.0 0 0 789.33 413.95
  L 790.75 410.92
  Q 793.59 405.95 797.36 397.64
  Q 798.05 396.12 799.93 396.68
  A 1.39 1.36 -1.1 0 1 800.85 397.55
  L 808.31 419.34
  A 1.88 1.87 82.8 0 0 809.93 420.60
  L 827.03 422.01
  A 0.53 0.53 0.0 0 0 827.60 421.41
  L 826.75 415.07
  Q 813.70 292.93 733.17 201.32
  Q 706.29 170.74 675.67 149.61
  Q 662.89 140.79 655.73 137.25
  Q 633.77 126.42 630.72 125.03
  Q 605.18 113.38 578.06 105.70
  Q 558.82 100.24 538.75 98.53
  Q 522.43 97.14 520.40 96.93
  Q 512.56 96.10 505.59 96.15
  Q 492.85 96.24 490.74 96.41
  C 468.70 98.15 445.49 100.92 423.16 106.00
  Q 404.61 110.21 396.85 112.86
  Q 376.27 119.89 361.93 125.67
  Q 313.59 145.17 272.72 179.46
  Z
  M 680.22 134.85
  A 0.08 0.07 -65.8 0 0 680.25 134.94
  Q 688.10 139.67 694.05 143.73
  C 699.10 147.17 703.93 151.90 709.16 156.20
  Q 720.95 165.89 723.44 168.19
  Q 732.11 176.20 747.78 192.44
  Q 752.28 197.11 758.36 204.57
  Q 767.45 215.71 768.58 217.15
  Q 778.71 230.04 789.14 245.90
  Q 800.83 263.68 809.80 282.68
  Q 820.53 305.44 825.65 321.28
  Q 832.04 341.08 834.94 352.00
  Q 841.99 378.64 845.22 406.47
  Q 848.82 437.48 848.71 469.32
  Q 848.64 491.57 846.07 513.55
  Q 843.16 538.55 838.96 557.30
  Q 832.06 588.08 823.30 610.85
  C 810.04 645.29 792.62 678.84 771.00 708.02
  Q 756.44 727.67 746.01 739.54
  Q 711.57 778.75 667.85 807.82
  C 651.82 818.47 635.44 828.09 619.49 835.37
  Q 615.82 837.04 608.86 840.58
  Q 600.81 844.66 592.00 847.30
  A 0.09 0.08 -9.7 0 0 591.94 847.38
  L 591.94 847.63
  A 0.28 0.27 84.1 0 0 592.27 847.90
  Q 611.07 843.58 629.38 836.88
  Q 659.02 826.03 686.92 810.41
  Q 719.81 792.00 752.94 763.68
  Q 755.62 761.39 764.89 752.65
  Q 771.34 746.57 776.54 741.30
  Q 788.34 729.37 802.55 711.82
  C 833.23 673.92 856.56 631.06 870.56 584.56
  Q 877.08 562.90 879.76 547.55
  Q 884.97 517.68 885.85 499.52
  C 886.16 493.14 886.87 485.76 887.04 478.49
  Q 887.37 464.92 885.91 444.07
  Q 882.98 402.21 872.41 366.76
  C 865.64 344.03 857.31 321.24 846.82 300.68
  Q 831.14 269.97 808.93 240.81
  C 790.20 216.21 769.18 195.53 745.08 175.49
  Q 736.55 168.40 726.52 161.69
  Q 709.79 150.50 707.08 149.04
  Q 685.17 137.21 680.64 134.28
  A 0.19 0.19 0.0 0 0 680.36 134.39
  L 680.22 134.85
  Z
  M 456.63 154.24
  Q 449.62 154.68 443.00 155.60
  Q 439.19 156.13 436.46 157.98
  Q 408.19 177.20 338.63 225.64
  Q 326.67 233.97 314.05 243.13
  A 0.37 0.37 0.0 0 1 313.47 242.83
  L 313.54 211.56
  Q 314.34 211.10 314.64 211.67
  A 2.29 2.29 0.0 0 1 314.89 212.71
  L 314.79 239.83
  A 0.57 0.56 72.8 0 0 315.67 240.30
  L 434.44 157.73
  A 0.28 0.28 0.0 0 0 434.22 157.22
  L 423.61 159.56
  Q 364.30 173.89 314.72 209.25
  Q 314.07 209.58 313.62 210.23
  Q 302.77 217.29 293.87 225.32
  Q 293.48 226.20 292.64 226.67
  Q 291.32 227.41 291.07 227.63
  Q 247.00 265.74 218.21 316.42
  Q 217.56 317.56 216.99 318.78
  Q 216.33 319.24 216.12 319.62
  Q 210.42 329.65 205.73 340.18
  Q 198.09 355.54 193.17 372.59
  L 188.75 386.02
  Q 175.70 438.08 177.02 491.26
  Q 178.51 551.62 200.92 608.82
  C 216.11 647.56 238.75 682.99 268.02 712.68
  Q 276.33 721.10 280.71 725.07
  Q 297.12 739.94 316.07 752.47
  Q 322.93 756.99 330.21 760.78
  Q 356.92 775.84 383.82 784.14
  Q 445.57 803.18 510.73 792.74
  Q 559.70 784.89 605.77 759.21
  Q 630.33 745.52 653.27 725.60
  Q 675.37 706.41 693.84 683.85
  Q 705.82 669.21 715.39 654.22
  Q 716.73 653.85 717.24 651.96
  A 0.69 0.68 23.4 0 0 716.93 651.19
  L 708.54 646.05
  A 2.21 2.20 44.1 0 0 706.17 646.08
  Q 695.66 652.92 684.96 658.72
  A 1.88 1.85 -31.7 0 1 682.53 658.16
  Q 682.31 657.84 682.43 657.13
  Q 684.49 645.67 687.47 633.00
  A 2.28 2.26 -62.5 0 0 686.79 630.81
  L 669.99 615.45
  A 1.98 1.98 0.0 0 1 671.16 612.01
  L 696.47 609.83
  A 1.33 1.32 8.2 0 0 697.59 609.00
  L 706.50 586.45
  A 1.05 1.01 4.2 0 1 707.23 585.84
  Q 709.08 585.45 710.02 587.53
  Q 716.31 601.47 718.78 608.39
  A 1.41 1.41 0.0 0 0 720.11 609.33
  L 737.79 609.38
  A 0.65 0.34 35.5 0 1 737.94 609.40
  Q 739.66 609.91 738.45 610.94
  L 719.68 610.06
  A 2.39 2.38 80.0 0 1 717.59 608.59
  L 708.60 586.90
  A 0.55 0.55 0.0 0 0 707.58 586.91
  L 698.67 609.43
  A 2.56 2.55 -81.7 0 1 696.52 611.04
  L 670.61 613.26
  A 0.56 0.55 -26.2 0 0 670.28 614.22
  L 688.27 630.66
  A 1.64 1.61 27.4 0 1 688.77 632.19
  L 683.47 657.52
  A 0.35 0.34 80.9 0 0 683.98 657.89
  L 706.50 644.89
  A 2.93 2.92 47.4 0 1 709.64 645.03
  L 717.60 650.55
  A 0.56 0.56 0.0 0 0 718.36 650.44
  Q 724.34 642.85 727.76 634.01
  Q 731.06 630.22 731.51 625.55
  Q 736.81 618.87 740.10 611.00
  L 741.64 606.96
  Q 752.80 581.60 760.67 553.94
  Q 777.34 495.40 771.62 435.18
  Q 772.18 432.55 771.28 429.92
  L 770.19 419.94
  A 0.99 0.99 0.0 0 0 769.21 419.06
  L 760.71 419.06
  A 0.41 0.41 0.0 0 0 760.41 419.76
  L 770.14 429.66
  Q 770.13 430.20 769.73 430.49
  A 0.51 0.51 0.0 0 1 769.06 430.44
  L 759.87 421.04
  A 1.72 1.72 0.0 0 1 760.26 418.34
  Q 760.73 418.05 761.94 418.03
  Q 765.10 417.98 768.78 417.68
  Q 769.19 418.48 769.72 417.95
  A 0.49 0.49 0.0 0 0 769.86 417.54
  Q 765.25 380.66 752.43 345.65
  Q 751.54 341.49 749.60 338.68
  Q 732.52 293.96 702.65 256.58
  Q 680.54 228.91 651.80 207.72
  Q 594.55 165.52 525.05 154.66
  Q 514.18 152.96 498.91 152.60
  Q 498.36 152.58 498.20 152.83
  Q 498.01 153.13 498.07 153.62
  Q 497.79 165.85 498.06 177.25
  Q 498.11 179.22 496.26 180.51
  Q 454.42 209.88 400.08 247.95
  A 0.63 0.63 0.0 0 0 400.17 249.03
  Q 400.51 249.20 401.50 249.19
  Q 422.62 248.94 494.31 249.11
  A 1.84 1.83 -0.3 0 1 496.15 250.92
  Q 496.26 260.42 496.09 269.87
  Q 496.07 270.51 495.28 271.73
  Q 494.76 271.23 494.89 270.68
  L 494.96 250.62
  A 0.41 0.40 -90.0 0 0 494.56 250.21
  L 395.85 250.21
  A 0.43 0.43 0.0 0 1 395.61 249.42
  L 496.01 179.62
  A 1.81 1.79 -17.7 0 0 496.78 178.15
  L 496.78 152.75
  A 0.55 0.55 0.0 0 0 496.23 152.20
  L 486.67 152.23
  Q 471.50 151.79 456.63 154.24
  Z"
/>
<path fill="#1d62af" d="
  M 826.75 415.07
  L 826.45 415.33
  A 0.40 0.39 66.4 0 1 825.80 415.07
  Q 815.49 316.00 759.20 235.48
  Q 751.02 223.79 740.31 210.96
  Q 729.43 197.92 719.60 187.91
  Q 700.82 168.77 679.32 153.20
  Q 667.71 144.80 656.98 139.05
  Q 630.98 125.12 602.65 114.59
  C 589.74 109.79 575.02 105.35 562.92 102.89
  Q 550.82 100.43 531.00 98.74
  Q 523.45 98.09 517.66 97.50
  Q 510.41 96.76 504.31 96.93
  Q 489.09 97.36 483.83 97.86
  C 450.33 101.05 417.20 106.17 384.54 118.01
  Q 369.77 123.36 359.22 127.74
  Q 328.30 140.59 300.46 159.48
  Q 289.05 167.23 272.72 179.46
  Q 313.59 145.17 361.93 125.67
  Q 376.27 119.89 396.85 112.86
  Q 404.61 110.21 423.16 106.00
  C 445.49 100.92 468.70 98.15 490.74 96.41
  Q 492.85 96.24 505.59 96.15
  Q 512.56 96.10 520.40 96.93
  Q 522.43 97.14 538.75 98.53
  Q 558.82 100.24 578.06 105.70
  Q 605.18 113.38 630.72 125.03
  Q 633.77 126.42 655.73 137.25
  Q 662.89 140.79 675.67 149.61
  Q 706.29 170.74 733.17 201.32
  Q 813.70 292.93 826.75 415.07
  Z"
/>
<path fill="#143865" d="
  M 826.75 415.07
  L 827.60 421.41
  A 0.53 0.53 0.0 0 1 827.03 422.01
  L 809.93 420.60
  A 1.88 1.87 82.8 0 1 808.31 419.34
  L 800.85 397.55
  A 1.39 1.36 -1.1 0 0 799.93 396.68
  Q 798.05 396.12 797.36 397.64
  Q 793.59 405.95 790.75 410.92
  Q 788.76 407.68 788.32 403.72
  Q 787.86 399.63 787.73 398.87
  Q 784.09 378.36 782.09 370.83
  C 780.26 363.93 776.75 350.61 773.80 342.33
  Q 763.63 313.80 754.46 296.26
  C 739.09 266.82 719.75 239.49 696.33 216.92
  Q 682.86 203.93 667.87 192.11
  Q 632.25 164.02 590.20 147.29
  Q 564.52 137.07 537.39 132.84
  Q 508.90 128.39 479.78 129.18
  C 472.62 129.37 465.30 130.23 457.69 130.84
  Q 449.14 131.53 441.21 132.79
  Q 381.08 142.30 328.56 172.81
  Q 318.59 178.60 310.43 184.92
  Q 310.13 185.16 310.02 185.57
  Q 308.47 186.03 306.75 186.01
  C 292.76 185.87 278.63 186.47 264.67 185.78
  L 272.72 179.46
  Q 289.05 167.23 300.46 159.48
  Q 328.30 140.59 359.22 127.74
  Q 369.77 123.36 384.54 118.01
  C 417.20 106.17 450.33 101.05 483.83 97.86
  Q 489.09 97.36 504.31 96.93
  Q 510.41 96.76 517.66 97.50
  Q 523.45 98.09 531.00 98.74
  Q 550.82 100.43 562.92 102.89
  C 575.02 105.35 589.74 109.79 602.65 114.59
  Q 630.98 125.12 656.98 139.05
  Q 667.71 144.80 679.32 153.20
  Q 700.82 168.77 719.60 187.91
  Q 729.43 197.92 740.31 210.96
  Q 751.02 223.79 759.20 235.48
  Q 815.49 316.00 825.80 415.07
  A 0.40 0.39 66.4 0 0 826.45 415.33
  L 826.75 415.07
  Z"
/>
<path fill="#1d62af" d="
  M 790.75 410.92
  L 789.33 413.95
  A 0.29 0.29 0.0 0 1 788.78 413.85
  Q 788.40 408.51 787.36 401.94
  Q 780.67 359.56 764.40 320.11
  C 754.76 296.72 743.20 276.60 728.87 256.20
  Q 712.43 232.80 687.75 210.02
  Q 646.09 171.57 593.93 149.83
  Q 556.18 134.09 515.47 131.19
  C 507.80 130.65 497.10 129.81 488.51 130.06
  Q 467.16 130.67 454.07 132.13
  Q 403.67 137.75 355.87 159.65
  Q 331.21 170.95 310.48 185.74
  Q 310.24 185.58 310.02 185.57
  Q 310.13 185.16 310.43 184.92
  Q 318.59 178.60 328.56 172.81
  Q 381.08 142.30 441.21 132.79
  Q 449.14 131.53 457.69 130.84
  C 465.30 130.23 472.62 129.37 479.78 129.18
  Q 508.90 128.39 537.39 132.84
  Q 564.52 137.07 590.20 147.29
  Q 632.25 164.02 667.87 192.11
  Q 682.86 203.93 696.33 216.92
  C 719.75 239.49 739.09 266.82 754.46 296.26
  Q 763.63 313.80 773.80 342.33
  C 776.75 350.61 780.26 363.93 782.09 370.83
  Q 784.09 378.36 787.73 398.87
  Q 787.86 399.63 788.32 403.72
  Q 788.76 407.68 790.75 410.92
  Z"
/>
<path fill="#0f243c" d="
  M 680.22 134.85
  L 680.36 134.39
  A 0.19 0.19 0.0 0 1 680.64 134.28
  Q 685.17 137.21 707.08 149.04
  Q 709.79 150.50 726.52 161.69
  Q 736.55 168.40 745.08 175.49
  C 769.18 195.53 790.20 216.21 808.93 240.81
  Q 831.14 269.97 846.82 300.68
  C 857.31 321.24 865.64 344.03 872.41 366.76
  Q 882.98 402.21 885.91 444.07
  Q 887.37 464.92 887.04 478.49
  C 886.87 485.76 886.16 493.14 885.85 499.52
  Q 884.97 517.68 879.76 547.55
  Q 877.08 562.90 870.56 584.56
  C 856.56 631.06 833.23 673.92 802.55 711.82
  Q 788.34 729.37 776.54 741.30
  Q 771.34 746.57 764.89 752.65
  Q 755.62 761.39 752.94 763.68
  Q 719.81 792.00 686.92 810.41
  Q 659.02 826.03 629.38 836.88
  Q 611.07 843.58 592.27 847.90
  A 0.28 0.27 84.1 0 1 591.94 847.63
  L 591.94 847.38
  A 0.09 0.08 -9.7 0 1 592.00 847.30
  Q 600.81 844.66 608.86 840.58
  Q 615.82 837.04 619.49 835.37
  C 635.44 828.09 651.82 818.47 667.85 807.82
  Q 711.57 778.75 746.01 739.54
  Q 756.44 727.67 771.00 708.02
  C 792.62 678.84 810.04 645.29 823.30 610.85
  Q 832.06 588.08 838.96 557.30
  Q 843.16 538.55 846.07 513.55
  Q 848.64 491.57 848.71 469.32
  Q 848.82 437.48 845.22 406.47
  Q 841.99 378.64 834.94 352.00
  Q 832.04 341.08 825.65 321.28
  Q 820.53 305.44 809.80 282.68
  Q 800.83 263.68 789.14 245.90
  Q 778.71 230.04 768.58 217.15
  Q 767.45 215.71 758.36 204.57
  Q 752.28 197.11 747.78 192.44
  Q 732.11 176.20 723.44 168.19
  Q 720.95 165.89 709.16 156.20
  C 703.93 151.90 699.10 147.17 694.05 143.73
  Q 688.10 139.67 680.25 134.94
  A 0.08 0.07 -65.8 0 1 680.22 134.85
  Z"
/>
<path fill="#c5272f" d="
  M 486.67 152.23
  Q 484.74 154.18 483.04 155.31
  C 467.23 165.71 448.09 179.26 436.13 187.39
  Q 388.00 220.10 346.69 247.77
  C 343.77 249.73 342.00 250.32 338.75 250.31
  C 327.78 250.30 321.16 249.96 316.79 250.78
  A 0.38 0.38 0.0 0 1 316.36 250.27
  Q 316.41 250.13 316.67 249.95
  Q 372.67 210.77 444.00 162.27
  Q 450.13 158.10 456.63 154.24
  Q 471.50 151.79 486.67 152.23
  Z"
/>
<path fill="#edeeef" d="
  M 494.89 270.68
  L 294.64 270.57
  A 0.68 0.67 90.0 0 1 293.97 269.89
  L 293.87 225.32
  Q 302.77 217.29 313.62 210.23
  L 313.54 211.56
  L 313.47 242.83
  A 0.37 0.37 0.0 0 0 314.05 243.13
  Q 326.67 233.97 338.63 225.64
  Q 408.19 177.20 436.46 157.98
  Q 439.19 156.13 443.00 155.60
  Q 449.62 154.68 456.63 154.24
  Q 450.13 158.10 444.00 162.27
  Q 372.67 210.77 316.67 249.95
  Q 316.41 250.13 316.36 250.27
  A 0.38 0.38 0.0 0 0 316.79 250.78
  C 321.16 249.96 327.78 250.30 338.75 250.31
  C 342.00 250.32 343.77 249.73 346.69 247.77
  Q 388.00 220.10 436.13 187.39
  C 448.09 179.26 467.23 165.71 483.04 155.31
  Q 484.74 154.18 486.67 152.23
  L 496.23 152.20
  A 0.55 0.55 0.0 0 1 496.78 152.75
  L 496.78 178.15
  A 1.81 1.79 -17.7 0 1 496.01 179.62
  L 395.61 249.42
  A 0.43 0.43 0.0 0 0 395.85 250.21
  L 494.56 250.21
  A 0.41 0.40 -90.0 0 1 494.96 250.62
  L 494.89 270.68
  Z"
/>
<path fill="#1d62af" d="
  M 749.60 338.68
  Q 737.17 311.75 730.22 299.02
  Q 720.25 280.76 702.26 257.36
  Q 692.14 244.19 675.02 227.96
  Q 673.70 226.71 667.35 221.31
  Q 664.32 218.73 659.60 214.93
  Q 620.39 183.39 571.84 167.00
  C 555.84 161.60 539.30 157.58 521.01 154.99
  Q 510.64 153.52 498.07 153.62
  Q 498.01 153.13 498.20 152.83
  Q 498.36 152.58 498.91 152.60
  Q 514.18 152.96 525.05 154.66
  Q 594.55 165.52 651.80 207.72
  Q 680.54 228.91 702.65 256.58
  Q 732.52 293.96 749.60 338.68
  Z"
/>
<path fill="#143865" d="
  M 749.60 338.68
  Q 751.54 341.49 752.43 345.65
  Q 751.98 347.02 752.77 349.20
  Q 764.82 382.49 768.78 417.68
  Q 765.10 417.98 761.94 418.03
  Q 760.73 418.05 760.26 418.34
  A 1.72 1.72 0.0 0 0 759.87 421.04
  L 769.06 430.44
  A 0.51 0.51 0.0 0 0 769.73 430.49
  Q 770.13 430.20 770.14 429.66
  Q 770.93 430.58 771.28 429.92
  Q 772.18 432.55 771.62 435.18
  Q 771.20 442.47 771.70 449.83
  Q 772.50 461.85 772.47 464.21
  Q 772.25 483.09 769.99 503.44
  C 769.27 509.94 768.30 514.67 767.37 520.67
  Q 766.29 527.65 764.97 533.53
  Q 756.50 571.14 740.71 606.90
  A 0.31 0.31 0.0 0 0 741.16 607.28
  L 741.64 606.96
  L 740.10 611.00
  L 738.45 610.94
  Q 739.66 609.91 737.94 609.40
  A 0.65 0.34 35.5 0 0 737.79 609.38
  L 720.11 609.33
  A 1.41 1.41 0.0 0 1 718.78 608.39
  Q 716.31 601.47 710.02 587.53
  Q 709.08 585.45 707.23 585.84
  A 1.05 1.01 4.2 0 0 706.50 586.45
  L 697.59 609.00
  A 1.33 1.32 8.2 0 1 696.47 609.83
  L 671.16 612.01
  A 1.98 1.98 0.0 0 0 669.99 615.45
  L 686.79 630.81
  A 2.28 2.26 -62.5 0 1 687.47 633.00
  Q 684.49 645.67 682.43 657.13
  Q 682.31 657.84 682.53 658.16
  A 1.88 1.85 -31.7 0 0 684.96 658.72
  Q 695.66 652.92 706.17 646.08
  A 2.21 2.20 44.1 0 1 708.54 646.05
  L 716.93 651.19
  A 0.69 0.68 23.4 0 1 717.24 651.96
  Q 716.73 653.85 715.39 654.22
  Q 708.98 662.53 702.72 670.86
  Q 694.55 681.73 689.87 687.32
  Q 662.99 719.39 629.56 743.04
  Q 566.96 787.33 487.73 794.69
  Q 480.86 795.32 470.76 795.39
  Q 459.46 795.47 453.77 795.25
  Q 441.91 794.79 422.28 792.00
  Q 404.97 789.54 385.77 783.73
  Q 358.23 775.38 330.72 760.07
  A 0.39 0.39 0.0 0 0 330.14 760.46
  Q 330.15 760.60 330.21 760.78
  Q 322.93 756.99 316.07 752.47
  Q 297.12 739.94 280.71 725.07
  Q 276.33 721.10 268.02 712.68
  C 238.75 682.99 216.11 647.56 200.92 608.82
  Q 178.51 551.62 177.02 491.26
  Q 175.70 438.08 188.75 386.02
  Q 189.78 385.95 190.46 385.17
  Q 190.76 385.77 191.65 385.66
  A 3.09 3.04 23.7 0 0 193.05 385.13
  L 235.07 356.34
  A 0.71 0.71 0.0 0 1 236.18 356.93
  L 236.09 422.53
  A 0.78 0.36 -69.7 0 0 236.10 422.66
  L 236.64 426.45
  A 1.09 1.07 -1.9 0 0 237.64 427.37
  Q 248.62 428.04 259.61 426.51
  L 292.54 426.29
  Q 294.47 427.41 297.27 427.42
  Q 308.07 427.46 312.81 427.56
  A 1.71 1.70 6.8 0 0 314.51 426.23
  Q 314.87 424.64 314.88 423.50
  Q 314.98 386.22 314.66 350.57
  A 0.64 0.64 0.0 0 1 315.80 350.15
  Q 316.51 351.00 317.06 351.54
  Q 336.72 370.69 346.58 379.56
  Q 346.93 379.87 347.48 379.20
  L 347.83 379.46
  Q 347.62 379.94 347.23 380.19
  A 1.96 0.55 -24.2 0 0 346.50 380.80
  Q 331.40 402.03 323.69 426.89
  Q 319.71 439.72 318.84 445.55
  C 317.47 454.69 316.45 459.75 316.14 467.47
  Q 315.37 486.30 316.74 499.75
  Q 319.72 529.13 332.96 556.32
  Q 349.77 590.84 381.65 613.59
  Q 396.94 624.51 413.79 630.95
  Q 425.61 635.47 433.61 637.37
  Q 448.19 640.86 463.93 641.69
  C 479.57 642.52 495.60 640.73 509.93 637.14
  C 529.89 632.14 547.91 622.46 565.29 610.05
  Q 575.76 602.56 584.82 593.40
  Q 598.74 579.32 606.74 567.04
  Q 629.49 532.14 633.11 490.03
  Q 633.22 488.81 633.13 487.97
  Q 632.90 485.94 632.41 487.55
  Q 632.20 484.91 632.35 482.25
  Q 632.39 481.62 632.87 481.01
  A 0.10 0.09 33.6 0 1 633.00 480.99
  L 655.28 494.63
  A 1.49 1.49 0.0 0 0 657.53 493.11
  L 653.50 469.29
  A 2.80 2.80 0.0 0 1 654.26 466.86
  Q 654.81 466.29 656.00 465.24
  Q 665.58 456.76 671.84 450.90
  Q 672.23 450.54 672.08 450.02
  Q 671.98 449.70 671.56 449.77
  Q 671.34 449.20 670.72 449.17
  Q 671.21 448.09 669.50 447.97
  Q 663.40 447.54 651.25 446.91
  Q 646.04 446.64 645.06 446.46
  A 1.76 1.71 -12.1 0 1 643.98 445.78
  C 643.57 445.23 643.18 442.84 642.72 441.65
  Q 641.16 437.52 637.59 429.01
  C 636.59 426.60 635.27 424.57 634.68 422.04
  A 0.50 0.50 0.0 0 0 633.81 421.84
  Q 633.74 421.93 633.76 422.27
  Q 633.21 421.99 632.46 421.91
  Q 631.44 421.58 630.33 423.59
  Q 630.13 423.36 629.85 423.19
  A 1.10 1.06 -82.4 0 1 629.34 422.50
  C 622.02 392.60 607.38 365.77 584.56 344.92
  Q 566.45 328.39 543.27 317.53
  Q 521.70 307.42 498.42 304.85
  A 0.48 0.46 -59.1 0 0 498.09 304.94
  Q 497.72 305.24 498.05 305.63
  Q 496.38 305.97 495.01 305.25
  L 495.28 271.73
  Q 496.07 270.51 496.09 269.87
  Q 496.26 260.42 496.15 250.92
  A 1.84 1.83 -0.3 0 0 494.31 249.11
  Q 422.62 248.94 401.50 249.19
  Q 400.51 249.20 400.17 249.03
  A 0.63 0.63 0.0 0 1 400.08 247.95
  Q 454.42 209.88 496.26 180.51
  Q 498.11 179.22 498.06 177.25
  Q 497.79 165.85 498.07 153.62
  Q 510.64 153.52 521.01 154.99
  C 539.30 157.58 555.84 161.60 571.84 167.00
  Q 620.39 183.39 659.60 214.93
  Q 664.32 218.73 667.35 221.31
  Q 673.70 226.71 675.02 227.96
  Q 692.14 244.19 702.26 257.36
  Q 720.25 280.76 730.22 299.02
  Q 737.17 311.75 749.60 338.68
  Z
  M 711.05 317.27
  L 710.05 317.04
  Q 710.09 316.79 709.66 316.65
  A 0.46 0.46 0.0 0 0 709.09 316.92
  L 700.39 338.91
  A 1.41 1.39 -80.7 0 1 699.17 339.80
  L 674.88 341.14
  A 1.61 1.61 0.0 0 0 673.83 343.88
  L 689.80 359.84
  A 2.33 2.32 28.3 0 1 690.43 361.93
  Q 689.16 368.21 685.59 384.10
  Q 685.26 385.58 685.41 386.32
  A 1.51 1.51 0.0 0 0 687.60 387.36
  Q 693.72 384.11 708.24 376.02
  Q 710.40 374.82 711.70 375.59
  Q 725.09 383.50 727.73 385.00
  Q 730.78 386.72 732.35 387.30
  A 1.42 1.42 0.0 0 0 734.26 386.04
  Q 734.31 385.00 734.02 382.81
  Q 732.83 373.84 730.28 362.58
  A 2.36 2.36 0.0 0 1 731.09 360.22
  Q 742.20 351.16 749.52 345.51
  Q 751.17 344.25 749.72 342.31
  A 1.04 1.00 -15.3 0 0 748.99 341.91
  L 722.88 339.75
  A 2.44 2.43 -7.2 0 1 720.78 338.13
  Q 717.05 327.41 712.19 317.71
  A 1.22 1.13 -87.7 0 0 711.84 317.30
  Q 711.27 316.89 711.05 317.27
  Z"
/>
<path fill="#143865" d="
  M 313.54 211.56
  L 313.62 210.23
  Q 314.07 209.58 314.72 209.25
  Q 319.25 207.14 323.47 204.26
  Q 329.94 199.86 330.02 199.81
  Q 373.30 172.62 423.32 160.42
  A 0.67 0.67 0.0 0 0 423.81 159.92
  Q 423.82 159.87 423.61 159.56
  L 434.22 157.22
  A 0.28 0.28 0.0 0 1 434.44 157.73
  L 315.67 240.30
  A 0.57 0.56 72.8 0 1 314.79 239.83
  L 314.89 212.71
  A 2.29 2.29 0.0 0 0 314.64 211.67
  Q 314.34 211.10 313.54 211.56
  Z"
/>
<path fill="#1d62af" d="
  M 423.61 159.56
  Q 423.82 159.87 423.81 159.92
  A 0.67 0.67 0.0 0 1 423.32 160.42
  Q 373.30 172.62 330.02 199.81
  Q 329.94 199.86 323.47 204.26
  Q 319.25 207.14 314.72 209.25
  Q 364.30 173.89 423.61 159.56
  Z"
/>
<path fill="#c5272f" d="
  M 310.02 185.57
  Q 310.24 185.58 310.48 185.74
  Q 310.12 186.11 309.68 186.39
  Q 300.08 192.51 291.49 199.97
  Q 274.38 214.82 258.28 231.02
  Q 257.78 228.56 257.81 226.00
  Q 257.95 216.38 257.78 200.25
  Q 257.72 194.83 258.29 190.97
  L 264.67 185.78
  C 278.63 186.47 292.76 185.87 306.75 186.01
  Q 308.47 186.03 310.02 185.57
  Z"
/>
<path fill="#edeeef" d="
  M 258.29 190.97
  Q 257.72 194.83 257.78 200.25
  Q 257.95 216.38 257.81 226.00
  Q 257.78 228.56 258.28 231.02
  Q 257.24 232.03 256.26 233.35
  Q 255.11 234.87 254.30 235.73
  Q 239.67 251.22 226.49 269.47
  Q 225.71 270.55 224.81 270.67
  L 191.18 270.64
  Q 205.35 248.31 222.43 228.86
  Q 222.71 229.24 222.78 229.24
  C 221.01 231.14 221.50 238.03 221.63 241.04
  L 221.45 249.85
  A 0.44 0.44 0.0 0 0 221.89 250.30
  L 236.84 250.30
  A 0.86 0.86 0.0 0 0 237.70 249.44
  Q 237.67 223.21 237.64 212.03
  C 237.63 210.57 239.85 208.63 241.02 207.44
  Q 249.41 198.92 258.29 190.97
  Z"
/>
<path fill="#143865" d="
  M 221.63 241.04
  C 221.50 238.03 221.01 231.14 222.78 229.24
  Q 228.04 224.18 231.86 218.21
  Q 233.20 215.66 235.63 213.54
  A 0.45 0.45 0.0 0 1 236.38 213.88
  L 236.38 248.06
  A 1.10 1.10 0.0 0 1 235.28 249.16
  L 223.75 249.16
  A 0.99 0.99 0.0 0 1 222.76 248.17
  L 222.76 233.58
  A 0.42 0.42 0.0 0 0 222.34 233.16
  L 221.99 233.16
  A 0.34 0.34 0.0 0 0 221.65 233.50
  L 221.63 241.04
  Z"
/>
<path fill="#1d62af" d="
  M 231.86 218.21
  Q 228.04 224.18 222.78 229.24
  Q 222.71 229.24 222.43 228.86
  L 231.86 218.21
  Z"
/>
<path fill="#c5272f" d="
  M 293.87 225.32
  L 293.97 269.89
  A 0.68 0.67 90.0 0 0 294.64 270.57
  L 494.89 270.68
  Q 494.76 271.23 495.28 271.73
  L 495.01 305.25
  Q 480.87 304.50 472.03 305.34
  Q 446.44 307.77 421.49 319.07
  L 294.59 319.00
  A 0.56 0.56 0.0 0 0 294.03 319.56
  L 293.89 426.14
  Q 294.05 425.61 292.54 426.29
  L 259.61 426.51
  Q 258.52 425.92 257.86 426.00
  L 257.81 319.72
  A 0.68 0.67 0.4 0 0 257.14 319.05
  L 216.99 318.78
  Q 217.56 317.56 218.21 316.42
  Q 247.00 265.74 291.07 227.63
  Q 291.32 227.41 292.64 226.67
  Q 293.48 226.20 293.87 225.32
  Z"
/>
<path fill="#c5272f" d="
  M 191.18 270.64
  L 224.81 270.67
  Q 224.87 270.81 224.90 270.91
  A 0.62 0.61 -36.1 0 1 224.81 271.45
  Q 208.64 293.93 196.06 318.83
  L 164.64 318.93
  Q 176.34 293.52 191.18 270.64
  Z"
/>
<path fill="#000000" d="
  M 495.01 305.25
  Q 496.38 305.97 498.05 305.63
  C 523.83 308.76 547.91 318.82 569.12 333.68
  C 598.12 353.99 618.15 383.84 627.12 418.13
  C 627.80 420.71 628.36 425.11 629.63 428.52
  L 631.50 443.19
  L 633.20 472.29
  L 633.01 479.02
  A 1.40 1.40 0.0 0 0 633.68 480.25
  L 656.02 493.93
  A 0.35 0.35 0.0 0 0 656.54 493.57
  Q 654.96 484.63 652.28 470.50
  Q 651.72 467.56 653.08 466.33
  Q 662.32 458.04 671.56 449.77
  Q 671.98 449.70 672.08 450.02
  Q 672.23 450.54 671.84 450.90
  Q 665.58 456.76 656.00 465.24
  Q 654.81 466.29 654.26 466.86
  A 2.80 2.80 0.0 0 0 653.50 469.29
  L 657.53 493.11
  A 1.49 1.49 0.0 0 1 655.28 494.63
  L 633.00 480.99
  A 0.10 0.09 33.6 0 0 632.87 481.01
  Q 632.39 481.62 632.35 482.25
  Q 632.20 484.91 632.41 487.55
  C 630.25 517.72 619.86 548.73 601.50 573.02
  Q 574.21 609.11 534.02 627.71
  Q 517.31 635.44 500.18 638.33
  Q 484.35 640.99 473.01 641.07
  C 430.03 641.38 388.86 624.34 359.39 593.11
  C 334.41 566.64 320.17 531.53 317.25 495.31
  C 316.53 486.38 316.57 473.90 317.15 465.94
  Q 320.60 418.24 348.30 379.60
  L 366.00 358.50
  Q 375.24 348.86 386.14 340.01
  Q 392.57 335.70 399.70 330.95
  Q 407.01 326.08 421.49 319.07
  Q 446.44 307.77 472.03 305.34
  Q 480.87 304.50 495.01 305.25
  Z
  M 351.05 542.16
  C 359.64 563.19 374.76 581.64 393.20 594.60
  Q 410.47 606.74 432.59 612.65
  Q 471.11 622.95 510.62 609.06
  C 534.51 600.65 554.46 585.90 570.92 566.95
  Q 587.33 548.07 595.92 525.21
  C 606.02 498.34 610.19 469.81 606.40 441.31
  C 602.19 409.63 587.16 380.37 562.51 359.74
  Q 547.85 347.47 532.24 340.23
  C 504.99 327.60 473.94 325.19 445.01 332.88
  Q 411.11 341.90 385.46 367.22
  C 358.88 393.46 343.35 429.82 340.05 467.15
  C 337.73 493.38 341.39 518.51 351.05 542.16
  Z"
/>
<path fill="#1d62af" d="
  M 630.33 423.59
  Q 629.51 425.83 630.46 426.51
  L 629.63 428.52
  C 628.36 425.11 627.80 420.71 627.12 418.13
  C 618.15 383.84 598.12 353.99 569.12 333.68
  C 547.91 318.82 523.83 308.76 498.05 305.63
  Q 497.72 305.24 498.09 304.94
  A 0.48 0.46 -59.1 0 1 498.42 304.85
  Q 521.70 307.42 543.27 317.53
  Q 566.45 328.39 584.56 344.92
  C 607.38 365.77 622.02 392.60 629.34 422.50
  A 1.10 1.06 -82.4 0 0 629.85 423.19
  Q 630.13 423.36 630.33 423.59
  Z"
/>
<path fill="#000000" d="
  M 710.05 317.04
  L 701.39 339.65
  A 1.90 1.90 0.0 0 1 699.73 340.86
  L 674.75 342.24
  A 0.47 0.46 -23.9 0 0 674.44 343.03
  L 691.44 360.03
  A 0.44 0.44 0.0 0 1 691.58 360.30
  Q 691.77 361.63 691.44 363.24
  Q 689.04 374.77 686.46 385.47
  A 0.68 0.68 0.0 0 0 687.45 386.22
  Q 697.77 380.42 708.21 374.71
  Q 710.44 373.50 712.67 374.82
  Q 724.39 381.75 732.47 386.41
  A 0.58 0.58 0.0 0 0 733.33 385.80
  L 729.22 361.51
  A 1.80 1.80 0.0 0 1 729.86 359.82
  Q 740.63 350.94 749.14 344.40
  Q 749.65 344.00 749.38 343.45
  Q 749.21 343.11 748.71 343.06
  Q 731.81 341.49 721.86 340.95
  A 2.10 2.09 80.5 0 1 720.03 339.64
  L 711.05 317.27
  Q 711.27 316.89 711.84 317.30
  A 1.22 1.13 -87.7 0 1 712.19 317.71
  Q 717.05 327.41 720.78 338.13
  A 2.44 2.43 -7.2 0 0 722.88 339.75
  L 748.99 341.91
  A 1.04 1.00 -15.3 0 1 749.72 342.31
  Q 751.17 344.25 749.52 345.51
  Q 742.20 351.16 731.09 360.22
  A 2.36 2.36 0.0 0 0 730.28 362.58
  Q 732.83 373.84 734.02 382.81
  Q 734.31 385.00 734.26 386.04
  A 1.42 1.42 0.0 0 1 732.35 387.30
  Q 730.78 386.72 727.73 385.00
  Q 725.09 383.50 711.70 375.59
  Q 710.40 374.82 708.24 376.02
  Q 693.72 384.11 687.60 387.36
  A 1.51 1.51 0.0 0 1 685.41 386.32
  Q 685.26 385.58 685.59 384.10
  Q 689.16 368.21 690.43 361.93
  A 2.33 2.32 28.3 0 0 689.80 359.84
  L 673.83 343.88
  A 1.61 1.61 0.0 0 1 674.88 341.14
  L 699.17 339.80
  A 1.41 1.39 -80.7 0 0 700.39 338.91
  L 709.09 316.92
  A 0.46 0.46 0.0 0 1 709.66 316.65
  Q 710.09 316.79 710.05 317.04
  Z"
/>
<path fill="#edeeef" d="
  M 711.05 317.27
  L 720.03 339.64
  A 2.10 2.09 80.5 0 0 721.86 340.95
  Q 731.81 341.49 748.71 343.06
  Q 749.21 343.11 749.38 343.45
  Q 749.65 344.00 749.14 344.40
  Q 740.63 350.94 729.86 359.82
  A 1.80 1.80 0.0 0 0 729.22 361.51
  L 733.33 385.80
  A 0.58 0.58 0.0 0 1 732.47 386.41
  Q 724.39 381.75 712.67 374.82
  Q 710.44 373.50 708.21 374.71
  Q 697.77 380.42 687.45 386.22
  A 0.68 0.68 0.0 0 1 686.46 385.47
  Q 689.04 374.77 691.44 363.24
  Q 691.77 361.63 691.58 360.30
  A 0.44 0.44 0.0 0 0 691.44 360.03
  L 674.44 343.03
  A 0.47 0.46 -23.9 0 1 674.75 342.24
  L 699.73 340.86
  A 1.90 1.90 0.0 0 0 701.39 339.65
  L 710.05 317.04
  L 711.05 317.27
  Z
  M 710.93 333.36
  A 0.29 0.29 0.0 0 0 710.39 333.35
  L 705.49 345.74
  A 1.99 1.99 0.0 0 1 703.75 346.99
  L 689.37 347.79
  A 0.41 0.40 -24.0 0 0 689.10 348.48
  L 698.27 357.66
  A 1.97 1.96 -61.9 0 1 698.81 359.46
  L 695.89 373.41
  A 0.40 0.40 0.0 0 0 696.47 373.84
  Q 708.42 367.31 708.69 367.17
  Q 710.63 366.16 712.41 367.14
  Q 715.13 368.65 723.99 374.07
  A 0.42 0.42 0.0 0 0 724.63 373.65
  Q 723.62 366.78 722.28 361.36
  C 721.76 359.24 722.14 357.81 723.80 356.52
  Q 729.79 351.88 733.15 348.60
  A 0.25 0.25 0.0 0 0 732.99 348.17
  L 716.62 346.82
  A 1.70 1.69 -7.1 0 1 715.15 345.68
  L 710.93 333.36
  Z"
/>
<path fill="#edeeef" d="
  M 196.06 318.83
  Q 185.01 341.37 175.85 364.97
  Q 175.23 366.54 175.16 367.18
  L 139.72 391.37
  C 142.60 379.15 144.18 370.97 149.84 361.81
  Q 155.18 353.17 160.03 344.04
  A 0.59 0.59 0.0 0 0 159.58 343.18
  Q 158.70 343.08 157.91 343.51
  L 154.18 345.28
  Q 158.56 331.60 164.64 318.93
  L 196.06 318.83
  Z"
/>
<path fill="#edeeef" d="
  M 216.99 318.78
  L 257.14 319.05
  A 0.68 0.67 0.4 0 1 257.81 319.72
  L 257.86 426.00
  L 238.27 426.23
  A 0.53 0.53 0.0 0 1 237.73 425.70
  L 237.73 353.38
  A 0.33 0.32 72.6 0 0 237.22 353.11
  L 190.46 385.17
  Q 189.78 385.95 188.75 386.02
  L 193.17 372.59
  L 240.57 340.55
  A 0.35 0.35 0.0 0 0 240.37 339.91
  L 205.73 340.18
  Q 210.42 329.65 216.12 319.62
  Q 216.33 319.24 216.99 318.78
  Z"
/>
<path fill="#edeeef" d="
  M 421.49 319.07
  Q 407.01 326.08 399.70 330.95
  Q 392.57 335.70 386.14 340.01
  L 347.50 339.99
  A 0.16 0.16 0.0 0 0 347.39 340.26
  L 366.00 358.50
  L 348.30 379.60
  L 347.83 379.46
  L 347.48 379.20
  L 314.23 346.86
  A 0.41 0.41 0.0 0 0 313.54 347.15
  L 313.54 425.78
  A 0.40 0.40 0.0 0 1 313.14 426.18
  L 293.89 426.14
  L 294.03 319.56
  A 0.56 0.56 0.0 0 1 294.59 319.00
  L 421.49 319.07
  Z"
/>
<path fill="#1d62af" d="
  M 351.05 542.16
  C 341.39 518.51 337.73 493.38 340.05 467.15
  C 343.35 429.82 358.88 393.46 385.46 367.22
  Q 411.11 341.90 445.01 332.88
  C 473.94 325.19 504.99 327.60 532.24 340.23
  Q 547.85 347.47 562.51 359.74
  C 587.16 380.37 602.19 409.63 606.40 441.31
  C 610.19 469.81 606.02 498.34 595.92 525.21
  Q 587.33 548.07 570.92 566.95
  C 554.46 585.90 534.51 600.65 510.62 609.06
  Q 471.11 622.95 432.59 612.65
  Q 410.47 606.74 393.20 594.60
  C 374.76 581.64 359.64 563.19 351.05 542.16
  Z
  M 351.91 541.84
  C 360.47 562.72 375.52 581.04 393.85 593.89
  Q 411.02 605.93 433.01 611.78
  Q 471.29 621.97 510.53 608.13
  C 534.26 599.74 554.07 585.07 570.40 566.22
  Q 586.68 547.44 595.19 524.72
  C 605.20 498.01 609.31 469.66 605.51 441.35
  C 601.29 409.87 586.32 380.82 561.81 360.35
  Q 547.23 348.17 531.71 341.00
  C 504.62 328.48 473.77 326.12 445.03 333.79
  Q 411.36 342.79 385.91 367.98
  C 359.53 394.08 344.14 430.23 340.90 467.32
  C 338.62 493.38 342.29 518.35 351.91 541.84
  Z"
/>
<path fill="#143865" d="
  M 351.91 541.84
  C 342.29 518.35 338.62 493.38 340.90 467.32
  C 344.14 430.23 359.53 394.08 385.91 367.98
  Q 411.36 342.79 445.03 333.79
  C 473.77 326.12 504.62 328.48 531.71 341.00
  Q 547.23 348.17 561.81 360.35
  C 586.32 380.82 601.29 409.87 605.51 441.35
  C 609.31 469.66 605.20 498.01 595.19 524.72
  Q 586.68 547.44 570.40 566.22
  C 554.07 585.07 534.26 599.74 510.53 608.13
  Q 471.29 621.97 433.01 611.78
  Q 411.02 605.93 393.85 593.89
  C 375.52 581.04 360.47 562.72 351.91 541.84
  Z
  M 561.58 429.82
  C 551.53 403.17 532.72 384.94 505.71 375.51
  Q 491.29 370.48 475.25 370.87
  C 456.32 371.33 437.71 377.32 422.57 388.79
  Q 412.95 396.09 404.69 406.88
  Q 386.85 430.17 381.23 457.98
  Q 378.32 472.41 379.24 484.62
  Q 380.25 498.09 384.04 510.89
  C 390.94 534.18 407.04 554.28 429.49 563.90
  Q 441.95 569.25 456.02 571.20
  Q 487.98 575.64 515.51 559.02
  Q 526.60 552.32 534.94 543.66
  Q 567.12 510.24 567.32 464.83
  Q 567.40 445.26 561.58 429.82
  Z"
/>
<path fill="#c5272f" d="
  M 710.93 333.36
  L 715.15 345.68
  A 1.70 1.69 -7.1 0 0 716.62 346.82
  L 732.99 348.17
  A 0.25 0.25 0.0 0 1 733.15 348.60
  Q 729.79 351.88 723.80 356.52
  C 722.14 357.81 721.76 359.24 722.28 361.36
  Q 723.62 366.78 724.63 373.65
  A 0.42 0.42 0.0 0 1 723.99 374.07
  Q 715.13 368.65 712.41 367.14
  Q 710.63 366.16 708.69 367.17
  Q 708.42 367.31 696.47 373.84
  A 0.40 0.40 0.0 0 1 695.89 373.41
  L 698.81 359.46
  A 1.97 1.96 -61.9 0 0 698.27 357.66
  L 689.10 348.48
  A 0.41 0.40 -24.0 0 1 689.37 347.79
  L 703.75 346.99
  A 1.99 1.99 0.0 0 0 705.49 345.74
  L 710.39 333.35
  A 0.29 0.29 0.0 0 1 710.93 333.36
  Z"
/>
<path fill="#c5272f" d="
  M 386.14 340.01
  Q 375.24 348.86 366.00 358.50
  L 347.39 340.26
  A 0.16 0.16 0.0 0 1 347.50 339.99
  L 386.14 340.01
  Z"
/>
<path fill="#c5272f" d="
  M 193.17 372.59
  Q 198.09 355.54 205.73 340.18
  L 240.37 339.91
  A 0.35 0.35 0.0 0 1 240.57 340.55
  L 193.17 372.59
  Z"
/>
<path fill="#1d62af" d="
  M 157.91 343.51
  Q 157.43 347.07 154.88 349.85
  A 2.64 2.27 -14.2 0 0 154.50 350.39
  L 150.26 358.23
  A 0.03 0.02 -58.3 0 1 150.24 358.24
  L 149.95 358.10
  A 0.29 0.28 -67.6 0 1 149.81 357.75
  L 154.18 345.28
  L 157.91 343.51
  Z"
/>
<path fill="#1d62af" d="
  M 752.43 345.65
  Q 765.25 380.66 769.86 417.54
  A 0.49 0.49 0.0 0 1 769.72 417.95
  Q 769.19 418.48 768.78 417.68
  Q 764.82 382.49 752.77 349.20
  Q 751.98 347.02 752.43 345.65
  Z"
/>
<path fill="#000000" d="
  M 347.48 379.20
  Q 346.93 379.87 346.58 379.56
  Q 336.72 370.69 317.06 351.54
  Q 316.51 351.00 315.80 350.15
  A 0.64 0.64 0.0 0 0 314.66 350.57
  Q 314.98 386.22 314.88 423.50
  Q 314.87 424.64 314.51 426.23
  A 1.71 1.70 6.8 0 1 312.81 427.56
  Q 308.07 427.46 297.27 427.42
  Q 294.47 427.41 292.54 426.29
  Q 294.05 425.61 293.89 426.14
  L 313.14 426.18
  A 0.40 0.40 0.0 0 0 313.54 425.78
  L 313.54 347.15
  A 0.41 0.41 0.0 0 1 314.23 346.86
  L 347.48 379.20
  Z"
/>
<path fill="#000000" d="
  M 257.86 426.00
  Q 258.52 425.92 259.61 426.51
  Q 248.62 428.04 237.64 427.37
  A 1.09 1.07 -1.9 0 1 236.64 426.45
  L 236.10 422.66
  A 0.78 0.36 -69.7 0 1 236.09 422.53
  L 236.18 356.93
  A 0.71 0.71 0.0 0 0 235.07 356.34
  L 193.05 385.13
  A 3.09 3.04 23.7 0 1 191.65 385.66
  Q 190.76 385.77 190.46 385.17
  L 237.22 353.11
  A 0.33 0.32 72.6 0 1 237.73 353.38
  L 237.73 425.70
  A 0.53 0.53 0.0 0 0 238.27 426.23
  L 257.86 426.00
  Z"
/>
<path fill="#c5272f" d="
  M 175.16 367.18
  L 167.02 394.04
  L 134.99 415.96
  Q 136.66 403.23 139.72 391.37
  L 175.16 367.18
  Z"
/>
<path fill="#1d62af" d="
  M 505.71 375.51
  C 532.72 384.94 551.53 403.17 561.58 429.82
  Q 567.40 445.26 567.32 464.83
  Q 567.12 510.24 534.94 543.66
  Q 526.60 552.32 515.51 559.02
  Q 487.98 575.64 456.02 571.20
  Q 441.95 569.25 429.49 563.90
  C 407.04 554.28 390.94 534.18 384.04 510.89
  Q 380.25 498.09 379.24 484.62
  Q 378.32 472.41 381.23 457.98
  Q 386.85 430.17 404.69 406.88
  Q 412.95 396.09 422.57 388.79
  C 437.71 377.32 456.32 371.33 475.25 370.87
  Q 491.29 370.48 505.71 375.51
  Z
  M 560.53 429.84
  C 550.45 403.49 531.73 385.52 504.93 376.30
  Q 490.62 371.39 474.73 371.85
  C 455.99 372.40 437.58 378.42 422.64 389.85
  Q 413.14 397.13 405.01 407.86
  Q 387.45 431.01 382.02 458.59
  Q 379.20 472.90 380.17 484.99
  Q 381.24 498.33 385.05 510.99
  C 392.00 534.02 408.04 553.86 430.32 563.28
  Q 442.69 568.52 456.64 570.39
  Q 488.32 574.63 515.51 558.04
  Q 526.46 551.35 534.68 542.73
  Q 566.40 509.47 566.38 464.49
  Q 566.37 445.10 560.53 429.84
  Z"
/>
<path fill="#000000" d="
  M 560.53 429.84
  Q 566.37 445.10 566.38 464.49
  Q 566.40 509.47 534.68 542.73
  Q 526.46 551.35 515.51 558.04
  Q 488.32 574.63 456.64 570.39
  Q 442.69 568.52 430.32 563.28
  C 408.04 553.86 392.00 534.02 385.05 510.99
  Q 381.24 498.33 380.17 484.99
  Q 379.20 472.90 382.02 458.59
  Q 387.45 431.01 405.01 407.86
  Q 413.14 397.13 422.64 389.85
  C 437.58 378.42 455.99 372.40 474.73 371.85
  Q 490.62 371.39 504.93 376.30
  C 531.73 385.52 550.45 403.49 560.53 429.84
  Z
  M 481.37 395.43
  Q 478.99 394.82 477.28 395.54
  Q 454.69 393.30 437.80 405.53
  C 418.31 419.63 407.27 440.14 403.50 463.91
  C 402.42 470.77 402.59 479.34 402.94 486.27
  C 403.61 499.54 406.80 515.50 414.36 525.70
  Q 420.71 534.26 429.75 539.27
  Q 443.16 546.69 454.96 548.83
  Q 463.95 550.46 463.65 551.21
  A 0.01 0.00 -31.7 0 0 463.66 551.21
  L 463.92 550.68
  A 0.45 0.45 0.0 0 0 463.74 550.09
  C 461.53 548.83 459.42 547.61 457.58 546.03
  Q 439.11 530.05 432.11 506.38
  C 430.17 499.81 429.56 493.83 429.09 487.03
  Q 427.60 465.11 437.67 445.41
  C 448.88 423.48 468.00 404.83 491.62 396.52
  A 0.19 0.19 0.0 0 0 491.57 396.15
  L 481.37 395.43
  Z
  M 501.73 543.67
  Q 522.75 530.03 534.21 509.18
  Q 546.32 487.13 545.22 463.24
  Q 543.96 436.14 524.89 414.64
  Q 523.67 413.28 518.91 409.82
  A 3.62 3.53 64.5 0 0 517.12 409.16
  C 512.52 408.78 510.78 409.13 506.00 410.46
  Q 503.17 411.25 500.67 412.35
  C 481.05 420.99 465.08 437.32 456.50 456.72
  Q 451.75 467.47 450.46 481.12
  Q 450.19 484.06 450.61 487.85
  Q 451.15 492.70 451.46 494.55
  Q 455.92 521.26 476.23 538.76
  Q 483.79 545.27 493.73 546.58
  A 2.52 2.49 -48.2 0 0 494.72 546.52
  Q 499.06 545.40 501.73 543.67
  Z"
/>
<path fill="#1d62af" d="
  M 348.30 379.60
  Q 320.60 418.24 317.15 465.94
  C 316.57 473.90 316.53 486.38 317.25 495.31
  C 320.17 531.53 334.41 566.64 359.39 593.11
  C 388.86 624.34 430.03 641.38 473.01 641.07
  Q 484.35 640.99 500.18 638.33
  Q 517.31 635.44 534.02 627.71
  Q 574.21 609.11 601.50 573.02
  C 619.86 548.73 630.25 517.72 632.41 487.55
  Q 632.90 485.94 633.13 487.97
  Q 633.22 488.81 633.11 490.03
  Q 629.49 532.14 606.74 567.04
  Q 598.74 579.32 584.82 593.40
  Q 575.76 602.56 565.29 610.05
  C 547.91 622.46 529.89 632.14 509.93 637.14
  C 495.60 640.73 479.57 642.52 463.93 641.69
  Q 448.19 640.86 433.61 637.37
  Q 425.61 635.47 413.79 630.95
  Q 396.94 624.51 381.65 613.59
  Q 349.77 590.84 332.96 556.32
  Q 319.72 529.13 316.74 499.75
  Q 315.37 486.30 316.14 467.47
  C 316.45 459.75 317.47 454.69 318.84 445.55
  Q 319.71 439.72 323.69 426.89
  Q 331.40 402.03 346.50 380.80
  A 1.96 0.55 -24.2 0 1 347.23 380.19
  Q 347.62 379.94 347.83 379.46
  L 348.30 379.60
  Z"
/>
<path fill="#edeeef" d="
  M 167.02 394.04
  Q 166.08 398.22 165.14 402.58
  Q 164.51 405.56 162.05 407.28
  Q 148.64 416.68 134.96 426.11
  L 132.96 427.26
  Q 132.85 427.23 132.75 427.20
  Q 133.17 424.24 133.60 421.28
  Q 134.05 418.13 134.99 415.96
  L 167.02 394.04
  Z"
/>
<path fill="#143865" d="
  M 477.28 395.54
  Q 471.81 395.99 466.41 396.47
  Q 459.52 397.09 455.68 398.15
  C 436.30 403.51 421.88 418.24 413.01 436.27
  Q 407.59 447.31 404.76 461.92
  Q 403.34 469.28 403.50 478.65
  Q 403.67 488.83 404.68 495.42
  Q 405.85 503.06 408.03 510.25
  C 412.51 524.96 422.36 535.55 436.32 541.76
  Q 444.47 545.38 453.19 547.62
  Q 456.26 548.40 458.26 548.32
  A 0.36 0.36 0.0 0 0 458.46 547.67
  C 444.93 537.25 436.11 522.52 431.14 506.28
  Q 429.01 499.30 428.28 488.79
  Q 427.57 478.48 428.60 471.09
  Q 431.41 451.13 443.37 434.13
  Q 451.88 422.03 459.21 415.46
  Q 467.93 407.63 473.44 404.43
  Q 481.39 399.82 484.20 398.15
  A 0.66 0.66 0.0 0 0 484.19 397.00
  L 481.37 395.43
  L 491.57 396.15
  A 0.19 0.19 0.0 0 1 491.62 396.52
  C 468.00 404.83 448.88 423.48 437.67 445.41
  Q 427.60 465.11 429.09 487.03
  C 429.56 493.83 430.17 499.81 432.11 506.38
  Q 439.11 530.05 457.58 546.03
  C 459.42 547.61 461.53 548.83 463.74 550.09
  A 0.45 0.45 0.0 0 1 463.92 550.68
  L 463.66 551.21
  A 0.01 0.00 -31.7 0 1 463.65 551.21
  Q 463.95 550.46 454.96 548.83
  Q 443.16 546.69 429.75 539.27
  Q 420.71 534.26 414.36 525.70
  C 406.80 515.50 403.61 499.54 402.94 486.27
  C 402.59 479.34 402.42 470.77 403.50 463.91
  C 407.27 440.14 418.31 419.63 437.80 405.53
  Q 454.69 393.30 477.28 395.54
  Z"
/>
<path fill="#0f243c" d="
  M 481.37 395.43
  L 484.19 397.00
  A 0.66 0.66 0.0 0 1 484.20 398.15
  Q 481.39 399.82 473.44 404.43
  Q 467.93 407.63 459.21 415.46
  Q 451.88 422.03 443.37 434.13
  Q 431.41 451.13 428.60 471.09
  Q 427.57 478.48 428.28 488.79
  Q 429.01 499.30 431.14 506.28
  C 436.11 522.52 444.93 537.25 458.46 547.67
  A 0.36 0.36 0.0 0 1 458.26 548.32
  Q 456.26 548.40 453.19 547.62
  Q 444.47 545.38 436.32 541.76
  C 422.36 535.55 412.51 524.96 408.03 510.25
  Q 405.85 503.06 404.68 495.42
  Q 403.67 488.83 403.50 478.65
  Q 403.34 469.28 404.76 461.92
  Q 407.59 447.31 413.01 436.27
  C 421.88 418.24 436.30 403.51 455.68 398.15
  Q 459.52 397.09 466.41 396.47
  Q 471.81 395.99 477.28 395.54
  Q 478.99 394.82 481.37 395.43
  Z"
/>
<path fill="#edeeef" d="
  M 818.10 467.41
  L 816.25 466.78
  L 795.68 454.53
  A 0.48 0.48 0.0 0 0 795.03 454.70
  L 793.53 457.28
  L 792.46 458.05
  Q 792.30 458.02 792.19 457.91
  A 0.21 0.21 0.0 0 1 792.13 457.79
  L 791.87 448.14
  Q 796.28 446.31 799.40 448.59
  Q 803.87 451.85 808.46 454.72
  A 0.31 0.31 0.0 0 0 808.93 454.41
  L 806.54 440.26
  A 2.66 2.64 64.0 0 1 807.35 437.87
  L 816.77 429.20
  A 0.54 0.54 0.0 0 0 816.45 428.27
  L 803.90 427.24
  A 1.55 1.53 -6.6 0 1 802.57 426.20
  L 798.39 414.00
  A 0.33 0.33 0.0 0 0 797.78 413.96
  Q 794.96 419.84 792.58 426.31
  Q 792.02 427.82 790.29 428.30
  Q 788.97 423.00 789.39 417.78
  A 5.34 5.27 60.6 0 1 789.90 415.90
  L 798.66 397.56
  A 0.60 0.59 -41.7 0 1 799.76 397.62
  Q 802.73 406.41 806.82 419.39
  Q 807.49 421.50 809.67 421.67
  Q 820.43 422.47 827.04 423.17
  A 0.88 0.88 0.0 0 1 827.83 423.95
  Q 828.06 425.94 827.74 427.33
  A 1.70 1.69 -14.8 0 1 827.24 428.18
  L 814.19 440.19
  A 2.24 2.23 63.6 0 0 813.51 442.23
  L 818.10 467.41
  Z"
/>
<path fill="#143865" d="
  M 162.91 411.20
  L 162.06 411.39
  A 0.60 0.59 82.5 0 0 161.60 412.00
  Q 161.71 414.36 160.85 416.59
  A 3.28 3.14 60.5 0 0 160.65 417.38
  Q 157.17 442.26 156.52 451.96
  Q 154.80 477.50 156.39 505.73
  Q 157.77 530.07 164.91 564.21
  Q 165.62 567.60 168.44 577.65
  Q 170.79 586.03 172.29 590.98
  Q 193.74 661.97 242.68 718.60
  Q 264.18 743.48 291.00 762.98
  Q 321.09 784.86 353.30 797.41
  C 380.95 808.18 409.46 814.74 438.01 817.69
  C 459.62 819.93 482.65 819.83 503.57 817.10
  C 541.61 812.13 579.80 798.73 613.45 779.68
  Q 627.77 771.58 642.65 761.38
  Q 671.11 741.88 694.59 716.10
  Q 756.26 648.41 781.42 560.47
  Q 788.44 535.91 791.51 505.14
  Q 792.35 496.66 792.63 483.35
  Q 792.86 471.96 793.00 461.53
  Q 793.01 460.06 792.20 459.52
  L 792.46 458.05
  L 793.53 457.28
  Q 794.53 457.67 794.94 457.01
  A 1.58 1.53 32.7 0 1 797.13 456.57
  Q 806.23 462.61 815.57 467.49
  Q 816.05 467.73 816.39 467.31
  Q 816.50 467.18 816.25 466.78
  L 818.10 467.41
  Q 818.88 464.20 818.02 460.23
  Q 816.50 453.18 814.64 442.24
  A 1.00 0.97 -27.7 0 1 814.92 441.39
  L 826.83 429.64
  Q 827.45 440.20 828.10 450.00
  Q 828.93 462.58 826.96 493.27
  Q 824.62 529.64 815.37 566.24
  C 800.28 625.95 770.57 681.98 730.89 729.31
  Q 726.66 734.36 722.90 738.06
  Q 720.30 740.62 714.71 746.66
  C 710.04 751.72 704.84 756.18 700.37 760.56
  Q 696.10 764.75 689.14 770.44
  Q 636.49 813.51 573.71 834.64
  Q 556.07 840.58 533.07 845.38
  Q 523.70 847.34 512.01 848.59
  Q 500.13 849.86 490.77 850.77
  Q 485.13 851.31 471.79 851.05
  Q 405.62 849.73 345.57 825.10
  C 332.63 819.79 322.38 813.98 309.18 806.62
  Q 305.47 804.56 300.93 801.60
  Q 288.01 793.18 281.18 788.06
  C 257.58 770.37 236.45 750.58 217.85 728.63
  Q 212.62 722.45 205.51 712.93
  Q 196.39 700.70 193.81 696.77
  Q 166.60 655.31 149.85 608.19
  Q 139.03 577.77 134.37 546.40
  Q 131.24 525.36 130.63 509.50
  Q 130.09 495.34 129.91 491.51
  C 128.98 471.33 130.76 451.00 133.43 429.50
  Q 133.53 428.69 132.96 427.26
  L 134.96 426.11
  Q 134.65 427.81 137.53 425.77
  Q 149.60 417.19 162.85 408.14
  A 0.36 0.35 72.3 0 1 163.40 408.43
  Q 163.44 409.71 162.91 411.20
  Z"
/>
<path fill="#1d62af" d="
  M 162.91 411.20
  Q 157.36 439.69 156.68 472.75
  Q 154.85 562.03 193.00 641.51
  Q 220.22 698.22 264.95 740.32
  Q 300.52 773.80 348.31 794.49
  Q 356.89 798.20 371.66 802.98
  Q 408.21 814.78 448.71 817.58
  Q 480.73 819.80 510.65 815.18
  C 547.55 809.48 584.69 795.67 616.70 776.96
  C 645.65 760.03 671.30 740.48 693.68 715.94
  C 735.57 670.01 766.38 614.43 782.12 554.23
  C 790.18 523.37 792.64 491.77 792.20 459.52
  Q 793.01 460.06 793.00 461.53
  Q 792.86 471.96 792.63 483.35
  Q 792.35 496.66 791.51 505.14
  Q 788.44 535.91 781.42 560.47
  Q 756.26 648.41 694.59 716.10
  Q 671.11 741.88 642.65 761.38
  Q 627.77 771.58 613.45 779.68
  C 579.80 798.73 541.61 812.13 503.57 817.10
  C 482.65 819.83 459.62 819.93 438.01 817.69
  C 409.46 814.74 380.95 808.18 353.30 797.41
  Q 321.09 784.86 291.00 762.98
  Q 264.18 743.48 242.68 718.60
  Q 193.74 661.97 172.29 590.98
  Q 170.79 586.03 168.44 577.65
  Q 165.62 567.60 164.91 564.21
  Q 157.77 530.07 156.39 505.73
  Q 154.80 477.50 156.52 451.96
  Q 157.17 442.26 160.65 417.38
  A 3.28 3.14 60.5 0 1 160.85 416.59
  Q 161.71 414.36 161.60 412.00
  A 0.60 0.59 82.5 0 1 162.06 411.39
  L 162.91 411.20
  Z"
/>
<path fill="#c5272f" d="
  M 791.87 448.14
  L 790.29 428.30
  Q 792.02 427.82 792.58 426.31
  Q 794.96 419.84 797.78 413.96
  A 0.33 0.33 0.0 0 1 798.39 414.00
  L 802.57 426.20
  A 1.55 1.53 -6.6 0 0 803.90 427.24
  L 816.45 428.27
  A 0.54 0.54 0.0 0 1 816.77 429.20
  L 807.35 437.87
  A 2.66 2.64 64.0 0 0 806.54 440.26
  L 808.93 454.41
  A 0.31 0.31 0.0 0 1 808.46 454.72
  Q 803.87 451.85 799.40 448.59
  Q 796.28 446.31 791.87 448.14
  Z"
/>
<path fill="#edeeef" d="
  M 771.28 429.92
  Q 770.93 430.58 770.14 429.66
  L 760.41 419.76
  A 0.41 0.41 0.0 0 1 760.71 419.06
  L 769.21 419.06
  A 0.99 0.99 0.0 0 1 770.19 419.94
  L 771.28 429.92
  Z"
/>
<path fill="#000000" d="
  M 670.72 449.17
  L 644.76 447.62
  A 1.55 1.55 0.0 0 1 643.41 446.64
  L 633.76 422.27
  Q 633.74 421.93 633.81 421.84
  A 0.50 0.50 0.0 0 1 634.68 422.04
  C 635.27 424.57 636.59 426.60 637.59 429.01
  Q 641.16 437.52 642.72 441.65
  C 643.18 442.84 643.57 445.23 643.98 445.78
  A 1.76 1.71 -12.1 0 0 645.06 446.46
  Q 646.04 446.64 651.25 446.91
  Q 663.40 447.54 669.50 447.97
  Q 671.21 448.09 670.72 449.17
  Z"
/>
<path fill="#000000" d="
  M 632.46 421.91
  L 630.46 426.51
  Q 629.51 425.83 630.33 423.59
  Q 631.44 421.58 632.46 421.91
  Z"
/>
<path fill="#edeeef" d="
  M 633.76 422.27
  L 643.41 446.64
  A 1.55 1.55 0.0 0 0 644.76 447.62
  L 670.72 449.17
  Q 671.34 449.20 671.56 449.77
  Q 662.32 458.04 653.08 466.33
  Q 651.72 467.56 652.28 470.50
  Q 654.96 484.63 656.54 493.57
  A 0.35 0.35 0.0 0 1 656.02 493.93
  L 633.68 480.25
  A 1.40 1.40 0.0 0 1 633.01 479.02
  L 633.20 472.29
  L 646.72 480.41
  A 0.40 0.40 0.0 0 0 647.32 480.00
  Q 645.01 467.19 644.98 466.74
  Q 644.84 464.61 646.39 463.35
  Q 651.04 459.54 655.19 455.49
  A 0.35 0.35 0.0 0 0 654.97 454.89
  Q 641.86 453.88 641.80 453.88
  Q 639.21 453.80 638.15 451.05
  Q 638.09 450.90 633.97 439.74
  A 0.32 0.32 0.0 0 0 633.35 439.81
  Q 633.03 442.06 631.50 443.19
  L 629.63 428.52
  L 630.46 426.51
  L 632.46 421.91
  Q 633.21 421.99 633.76 422.27
  Z"
/>
<path fill="#1d62af" d="
  M 132.96 427.26
  Q 133.53 428.69 133.43 429.50
  C 130.76 451.00 128.98 471.33 129.91 491.51
  Q 130.09 495.34 130.63 509.50
  Q 131.24 525.36 134.37 546.40
  Q 139.03 577.77 149.85 608.19
  Q 166.60 655.31 193.81 696.77
  Q 196.39 700.70 205.51 712.93
  Q 212.62 722.45 217.85 728.63
  C 236.45 750.58 257.58 770.37 281.18 788.06
  Q 288.01 793.18 300.93 801.60
  Q 305.47 804.56 309.18 806.62
  C 322.38 813.98 332.63 819.79 345.57 825.10
  Q 405.62 849.73 471.79 851.05
  Q 485.13 851.31 490.77 850.77
  Q 500.13 849.86 512.01 848.59
  Q 523.70 847.34 533.07 845.38
  Q 556.07 840.58 573.71 834.64
  Q 636.49 813.51 689.14 770.44
  Q 696.10 764.75 700.37 760.56
  C 704.84 756.18 710.04 751.72 714.71 746.66
  Q 720.30 740.62 722.90 738.06
  Q 726.66 734.36 730.89 729.31
  C 770.57 681.98 800.28 625.95 815.37 566.24
  Q 824.62 529.64 826.96 493.27
  Q 828.93 462.58 828.10 450.00
  Q 827.45 440.20 826.83 429.64
  Q 827.01 429.46 827.51 429.38
  A 0.42 0.41 -6.4 0 1 827.99 429.76
  Q 830.99 473.18 825.81 515.27
  Q 815.10 602.43 769.11 677.68
  Q 759.19 693.91 749.36 707.38
  Q 705.68 767.24 642.74 804.18
  C 600.34 829.07 554.36 845.46 506.00 850.27
  C 495.22 851.35 487.03 852.17 476.96 852.12
  Q 427.30 851.87 379.43 838.10
  Q 342.91 827.59 310.30 808.43
  C 252.62 774.55 205.39 724.33 174.10 665.67
  C 155.83 631.43 141.52 593.34 134.70 554.80
  C 132.48 542.22 130.56 525.65 129.84 510.33
  Q 128.61 484.43 128.91 472.00
  Q 129.36 453.93 132.75 427.20
  Q 132.85 427.23 132.96 427.26
  Z"
/>
<path fill="#1d62af" d="
  M 771.62 435.18
  Q 777.34 495.40 760.67 553.94
  Q 752.80 581.60 741.64 606.96
  L 741.16 607.28
  A 0.31 0.31 0.0 0 1 740.71 606.90
  Q 756.50 571.14 764.97 533.53
  Q 766.29 527.65 767.37 520.67
  C 768.30 514.67 769.27 509.94 769.99 503.44
  Q 772.25 483.09 772.47 464.21
  Q 772.50 461.85 771.70 449.83
  Q 771.20 442.47 771.62 435.18
  Z"
/>
<path fill="#c5272f" d="
  M 633.20 472.29
  L 631.50 443.19
  Q 633.03 442.06 633.35 439.81
  A 0.32 0.32 0.0 0 1 633.97 439.74
  Q 638.09 450.90 638.15 451.05
  Q 639.21 453.80 641.80 453.88
  Q 641.86 453.88 654.97 454.89
  A 0.35 0.35 0.0 0 1 655.19 455.49
  Q 651.04 459.54 646.39 463.35
  Q 644.84 464.61 644.98 466.74
  Q 645.01 467.19 647.32 480.00
  A 0.40 0.40 0.0 0 1 646.72 480.41
  L 633.20 472.29
  Z"
/>
<path fill="#000000" d="
  M 816.25 466.78
  Q 816.50 467.18 816.39 467.31
  Q 816.05 467.73 815.57 467.49
  Q 806.23 462.61 797.13 456.57
  A 1.58 1.53 32.7 0 0 794.94 457.01
  Q 794.53 457.67 793.53 457.28
  L 795.03 454.70
  A 0.48 0.48 0.0 0 1 795.68 454.53
  L 816.25 466.78
  Z"
/>
<path fill="#edeeef" d="
  M 738.45 610.94
  L 740.10 611.00
  Q 736.81 618.87 731.51 625.55
  C 728.13 627.65 725.76 629.82 727.76 634.01
  Q 724.34 642.85 718.36 650.44
  A 0.56 0.56 0.0 0 1 717.60 650.55
  L 709.64 645.03
  A 2.93 2.92 47.4 0 0 706.50 644.89
  L 683.98 657.89
  A 0.35 0.34 80.9 0 1 683.47 657.52
  L 688.77 632.19
  A 1.64 1.61 27.4 0 0 688.27 630.66
  L 670.28 614.22
  A 0.56 0.55 -26.2 0 1 670.61 613.26
  L 696.52 611.04
  A 2.56 2.55 -81.7 0 0 698.67 609.43
  L 707.58 586.91
  A 0.55 0.55 0.0 0 1 708.60 586.90
  L 717.59 608.59
  A 2.39 2.38 80.0 0 0 719.68 610.06
  L 738.45 610.94
  Z
  M 685.44 619.30
  L 695.24 628.26
  A 2.28 2.27 27.3 0 1 695.93 630.41
  L 693.02 644.34
  A 0.50 0.50 0.0 0 0 693.79 644.86
  C 698.20 641.94 702.09 639.68 705.76 637.74
  Q 707.91 636.60 709.06 637.22
  Q 716.55 641.25 720.99 643.96
  A 0.63 0.63 0.0 0 0 721.94 643.32
  Q 721.86 642.83 719.99 634.07
  C 719.12 630.00 718.28 627.97 721.18 625.23
  Q 725.44 621.21 729.01 618.10
  A 0.45 0.45 0.0 0 0 728.75 617.32
  L 714.65 616.15
  A 2.35 2.34 82.7 0 1 712.62 614.57
  L 708.73 603.19
  A 0.47 0.47 0.0 0 0 707.85 603.17
  L 703.14 615.09
  A 2.97 2.96 7.0 0 1 700.77 616.94
  L 685.53 618.99
  A 0.18 0.18 0.0 0 0 685.44 619.30
  Z"
/>
<path fill="#c5272f" d="
  M 685.53 618.99
  L 700.77 616.94
  A 2.97 2.96 7.0 0 0 703.14 615.09
  L 707.85 603.17
  A 0.47 0.47 0.0 0 1 708.73 603.19
  L 712.62 614.57
  A 2.35 2.34 82.7 0 0 714.65 616.15
  L 728.75 617.32
  A 0.45 0.45 0.0 0 1 729.01 618.10
  Q 725.44 621.21 721.18 625.23
  C 718.28 627.97 719.12 630.00 719.99 634.07
  Q 721.86 642.83 721.94 643.32
  A 0.63 0.63 0.0 0 1 720.99 643.96
  Q 716.55 641.25 709.06 637.22
  Q 707.91 636.60 705.76 637.74
  C 702.09 639.68 698.20 641.94 693.79 644.86
  A 0.50 0.50 0.0 0 1 693.02 644.34
  L 695.93 630.41
  A 2.28 2.27 27.3 0 0 695.24 628.26
  L 685.44 619.30
  A 0.18 0.18 0.0 0 1 685.53 618.99
  Z"
/>
<path fill="#143865" d="
  M 731.51 625.55
  Q 731.06 630.22 727.76 634.01
  C 725.76 629.82 728.13 627.65 731.51 625.55
  Z"
/>
<path fill="#1d62af" d="
  M 715.39 654.22
  Q 705.82 669.21 693.84 683.85
  Q 675.37 706.41 653.27 725.60
  Q 630.33 745.52 605.77 759.21
  Q 559.70 784.89 510.73 792.74
  Q 445.57 803.18 383.82 784.14
  Q 356.92 775.84 330.21 760.78
  Q 330.15 760.60 330.14 760.46
  A 0.39 0.39 0.0 0 1 330.72 760.07
  Q 358.23 775.38 385.77 783.73
  Q 404.97 789.54 422.28 792.00
  Q 441.91 794.79 453.77 795.25
  Q 459.46 795.47 470.76 795.39
  Q 480.86 795.32 487.73 794.69
  Q 566.96 787.33 629.56 743.04
  Q 662.99 719.39 689.87 687.32
  Q 694.55 681.73 702.72 670.86
  Q 708.98 662.53 715.39 654.22
  Z"
/>
</svg>
