<?xml version="1.0" encoding="UTF-8" standalone="no"?>
<!DOCTYPE svg PUBLIC "-//W3C//DTD SVG 1.1//EN" "http://www.w3.org/Graphics/SVG/1.1/DTD/svg11.dtd">
<svg xmlns="http://www.w3.org/2000/svg" version="1.1" viewBox="0.00 0.00 1024.00 1024.00">
<g stroke-width="2.00" fill="none" stroke-linecap="butt">
<path stroke="#7d6d1c" vector-effect="non-scaling-stroke" d="
  M 131.36 486.56
  Q 131.01 487.33 131.08 489.00
  Q 131.45 498.21 131.86 507.51
  Q 132.29 517.45 133.09 525.97
  Q 135.47 551.21 139.56 570.73
  Q 161.32 674.62 236.70 752.55
  Q 270.21 787.19 314.61 811.89
  Q 357.42 835.71 403.50 845.56
  C 424.98 850.15 446.80 853.10 469.24 853.13
  Q 488.45 853.16 496.99 852.47
  Q 565.14 846.92 624.52 816.02
  C 692.26 780.77 747.00 725.48 782.24 657.23
  Q 817.84 588.28 827.13 511.43
  Q 829.00 495.92 829.17 486.30"
/>
<path stroke="#0f577d" vector-effect="non-scaling-stroke" d="
  M 829.17 486.30
  Q 829.51 484.26 829.73 478.25
  Q 832.03 415.29 816.15 358.08
  Q 801.13 303.97 772.44 255.32
  Q 759.47 233.32 743.61 213.34
  Q 692.46 148.90 618.20 117.85
  Q 597.38 109.14 575.74 104.01
  Q 556.37 99.42 531.57 97.19
  C 446.81 89.58 360.39 117.24 291.66 166.32
  Q 231.11 209.56 189.76 276.69
  C 156.74 330.29 138.88 391.32 133.10 453.76
  Q 131.59 470.10 131.36 486.56"
/>
<path stroke="#8cc499" vector-effect="non-scaling-stroke" d="
  M 829.17 486.30
  L 828.46 486.25"
/>
<path stroke="#1b93e0" vector-effect="non-scaling-stroke" d="
  M 828.46 486.25
  L 828.18 484.66
  A 4.79 4.59 43.8 0 1 828.13 483.48
  Q 829.57 467.28 829.02 455.87
  Q 828.38 442.44 828.09 435.78
  C 827.96 432.87 827.35 430.36 827.37 427.78
  Q 827.39 424.91 827.00 421.77
  Q 823.53 393.80 820.87 381.64
  Q 803.44 302.09 758.83 235.90
  Q 748.77 220.97 735.25 205.00
  Q 710.04 175.21 679.06 152.97
  Q 647.47 130.28 607.20 114.68
  C 594.37 109.70 578.49 105.49 566.19 103.09
  Q 538.91 97.77 504.29 96.96
  Q 496.55 96.77 485.22 97.68
  Q 472.67 98.68 466.20 99.42
  C 390.32 108.17 318.96 140.96 261.84 191.42
  C 258.26 194.59 255.61 197.59 252.23 200.47
  Q 248.77 203.43 245.04 207.27
  Q 164.20 290.61 141.37 404.42
  Q 133.50 443.71 132.41 485.15
  A 0.76 0.54 61.6 0 1 132.39 485.32
  L 132.03 486.58"
/>
<path stroke="#8cc499" vector-effect="non-scaling-stroke" d="
  M 132.03 486.58
  Q 132.25 486.37 131.36 486.56"
/>
<path stroke="#89a97f" vector-effect="non-scaling-stroke" d="
  M 828.46 486.25
  L 793.28 486.51"
/>
<path stroke="#0c3c63" vector-effect="non-scaling-stroke" d="
  M 793.28 486.51
  L 793.48 483.34"
/>
<path stroke="#1b93e0" vector-effect="non-scaling-stroke" d="
  M 793.48 483.34
  Q 794.55 484.26 794.68 481.83
  Q 798.25 411.33 774.63 344.36
  Q 757.51 295.80 731.00 257.71
  Q 724.46 248.33 719.31 241.91
  Q 712.09 232.92 706.65 226.86
  Q 702.07 221.75 692.85 212.65
  Q 685.10 204.99 678.22 199.34
  Q 663.57 187.33 649.85 178.19
  Q 612.97 153.59 570.03 141.00
  Q 566.54 139.98 560.90 138.67
  Q 552.50 136.73 551.72 136.58
  Q 540.85 134.48 525.87 132.43
  C 514.10 130.82 503.31 130.68 491.11 130.22
  C 483.94 129.94 477.26 130.60 470.66 130.78
  Q 462.58 131.00 455.36 131.74
  Q 409.10 136.48 366.31 155.09
  Q 342.45 165.46 321.45 178.48
  Q 306.62 187.67 287.42 202.83
  Q 285.14 204.63 284.37 205.45
  C 281.92 208.03 278.97 209.68 276.78 212.04
  Q 275.97 212.91 270.30 217.82
  Q 264.05 223.22 249.80 238.80
  Q 244.39 244.71 240.17 249.92
  C 232.91 258.89 225.25 268.76 218.94 278.27
  C 187.78 325.26 168.27 380.04 161.29 435.77
  Q 160.21 444.36 159.71 450.30
  C 159.22 456.13 159.33 460.47 158.72 465.89
  C 158.01 472.22 158.25 478.77 158.22 484.54
  A 0.97 0.04 61.1 0 0 158.62 485.34
  Q 158.82 485.72 158.46 486.36"
/>
<path stroke="#89a97f" vector-effect="non-scaling-stroke" d="
  M 158.46 486.36
  L 132.03 486.58"
/>
<path stroke="#7d6d1c" vector-effect="non-scaling-stroke" d="
  M 793.28 486.51
  Q 788.09 562.87 754.47 631.21
  Q 716.73 707.95 647.06 757.53
  C 617.03 778.90 585.61 794.95 552.55 805.56
  Q 518.29 816.56 481.99 817.90
  C 446.92 819.19 411.60 814.73 378.36 803.65
  C 336.11 789.56 295.06 766.20 262.62 735.51
  Q 232.01 706.57 211.67 673.09
  Q 180.75 622.16 167.93 562.81
  Q 160.06 526.34 159.41 486.24"
/>
<path stroke="#0f577d" vector-effect="non-scaling-stroke" d="
  M 793.48 483.34
  Q 796.72 422.62 779.93 364.55
  C 766.21 317.11 743.03 270.56 710.86 233.33
  Q 692.12 211.64 670.83 194.70
  C 633.99 165.38 590.57 144.66 544.13 136.36
  Q 526.35 133.19 512.25 132.34
  Q 502.87 131.77 483.26 131.82
  Q 466.85 131.86 454.31 133.13
  Q 422.80 136.32 390.98 146.97
  Q 337.27 164.96 293.23 199.70
  Q 242.61 239.63 210.25 294.04
  Q 188.83 330.06 176.00 372.10
  Q 163.51 413.02 160.35 455.93
  Q 159.23 471.18 159.41 486.24"
/>
<path stroke="#8cc499" vector-effect="non-scaling-stroke" d="
  M 159.41 486.24
  Q 158.31 486.16 158.46 486.36"
/>
<path stroke="#072846" vector-effect="non-scaling-stroke" d="
  M 695.32 145.90
  Q 698.89 150.33 704.14 153.16"
/>
<path stroke="#0c3c63" vector-effect="non-scaling-stroke" d="
  M 704.14 153.16
  C 762.33 197.63 805.20 259.03 828.42 328.34
  Q 846.33 381.80 849.90 433.72
  Q 853.35 483.66 846.29 531.05
  Q 839.21 578.54 819.24 624.52
  Q 797.22 675.23 764.86 718.34
  Q 736.81 755.69 701.90 783.88
  Q 661.26 816.68 613.97 839.17
  C 607.51 842.24 600.61 844.60 594.96 846.87
  A 0.12 0.12 0.0 0 0 595.02 847.10
  Q 598.45 846.57 601.76 845.52
  C 613.54 841.77 623.18 839.41 634.84 835.05
  C 670.44 821.75 703.47 804.48 734.06 781.67
  Q 760.92 761.65 784.47 735.16
  Q 824.19 690.48 848.73 637.00
  C 881.98 564.54 892.14 482.36 877.88 404.01
  Q 865.81 337.72 831.84 278.67
  Q 795.06 214.73 735.95 170.06
  Q 721.77 159.34 705.62 149.90
  Q 686.33 138.61 668.90 130.34
  Q 668.81 130.30 668.66 130.43
  A 0.09 0.09 0.0 0 0 668.67 130.57
  L 695.32 145.90"
/>
<path stroke="#1364a9" vector-effect="non-scaling-stroke" d="
  M 704.14 153.16
  Q 704.81 152.29 707.09 154.14
  Q 716.32 161.64 724.52 168.67
  Q 730.35 173.67 743.29 186.77
  C 781.89 225.86 810.73 273.66 828.58 325.69
  Q 838.76 355.36 845.05 387.62
  Q 847.49 400.17 849.15 415.97
  Q 851.37 437.03 851.55 444.51
  Q 852.29 474.97 851.81 483.38
  Q 850.51 506.22 849.81 512.50
  Q 844.11 564.05 826.53 609.32
  Q 804.13 667.00 765.91 718.53
  C 760.80 725.43 754.30 733.12 747.68 740.92
  Q 732.51 758.82 713.08 775.57
  Q 697.58 788.92 680.87 800.85
  Q 664.69 812.40 642.41 825.38
  Q 630.34 832.41 613.57 840.24
  A 0.38 0.37 -23.0 0 0 613.37 840.72
  L 613.38 840.74
  A 0.28 0.28 0.0 0 0 613.73 840.90
  Q 618.94 839.19 623.76 837.87
  Q 627.58 836.82 633.53 834.57
  Q 662.28 823.71 683.14 812.58
  Q 707.74 799.46 723.04 788.51
  Q 746.15 771.99 759.28 759.51
  Q 774.15 745.38 782.61 735.86
  Q 785.99 732.05 793.46 723.37
  Q 797.73 718.41 803.67 710.36
  Q 812.56 698.31 815.00 694.75
  Q 826.40 678.08 832.95 665.71
  Q 832.99 665.62 834.29 663.38
  Q 849.82 636.55 861.57 602.60
  Q 868.89 581.46 873.22 562.28
  Q 878.46 539.09 881.20 513.75
  Q 881.89 507.40 882.54 495.25
  Q 883.61 475.43 883.34 465.98
  Q 883.14 459.10 883.01 457.52
  C 882.33 449.56 882.44 443.23 881.43 436.49
  C 880.59 430.86 880.24 424.83 879.37 418.88
  C 870.58 358.74 848.27 300.76 813.12 251.24
  C 801.94 235.51 790.17 220.73 777.49 208.01
  Q 763.16 193.61 746.17 179.34
  Q 722.79 159.71 695.32 145.90"
/>
<path stroke="#072846" vector-effect="non-scaling-stroke" d="
  M 179.43 483.22
  L 179.12 486.69"
/>
<path stroke="#7d6d1c" vector-effect="non-scaling-stroke" d="
  M 179.12 486.69
  Q 179.42 512.21 181.27 527.49
  C 189.81 598.05 220.65 663.75 270.55 714.69
  C 305.01 749.87 349.98 776.81 397.46 787.50
  Q 428.71 794.53 466.64 795.90
  Q 472.16 796.10 480.33 795.48
  C 492.76 794.55 502.69 794.04 514.41 791.96
  C 545.22 786.50 574.79 777.18 601.68 762.43
  C 668.31 725.89 719.55 666.11 747.38 595.70
  Q 764.73 551.81 770.79 505.08
  Q 771.29 501.19 771.70 495.57
  Q 772.05 490.81 772.43 486.04"
/>
<path stroke="#0f577d" vector-effect="non-scaling-stroke" d="
  M 772.43 486.04
  Q 774.69 449.86 770.15 417.63
  Q 757.80 329.96 704.14 258.30
  C 639.46 171.92 527.52 137.49 424.41 162.35
  C 360.51 177.77 303.32 213.25 261.39 263.85
  C 218.45 315.67 191.03 378.14 182.58 445.03
  Q 180.47 461.79 179.43 483.22"
/>
<path stroke="#8cc499" vector-effect="non-scaling-stroke" d="
  M 772.43 486.04
  L 771.52 486.04"
/>
<path stroke="#1b93e0" vector-effect="non-scaling-stroke" d="
  M 771.52 486.04
  Q 771.34 484.93 771.44 483.75
  Q 772.47 471.10 772.20 459.39
  C 772.08 454.33 771.07 449.94 771.18 445.61
  Q 771.31 440.58 770.86 435.24
  Q 768.77 410.14 763.10 386.31
  Q 759.96 373.13 754.89 357.57
  Q 737.09 303.01 701.85 257.16
  Q 683.62 233.44 662.04 215.74
  Q 627.83 187.68 584.91 172.04"
/>
<path stroke="#167fc3" vector-effect="non-scaling-stroke" d="
  M 584.91 172.04
  Q 563.96 164.37 542.36 160.21
  Q 535.36 158.86 524.62 157.56
  Q 511.51 155.98 506.76 155.76
  Q 476.22 154.33 448.77 158.57
  Q 387.72 167.99 334.60 200.80
  C 326.53 205.78 316.99 212.82 310.16 217.93
  Q 294.12 229.93 279.28 245.29
  Q 260.24 265.00 244.10 287.87
  C 229.21 308.97 217.10 331.62 207.48 354.69
  Q 188.32 400.66 182.86 451.01
  Q 181.33 465.14 180.19 482.66
  Q 180.08 484.48 179.43 483.22"
/>
<path stroke="#89a97f" vector-effect="non-scaling-stroke" d="
  M 771.52 486.04
  Q 771.37 486.34 771.13 486.51
  A 0.43 0.41 25.8 0 1 770.88 486.59
  L 637.72 486.49"
/>
<path stroke="#1b93e0" vector-effect="non-scaling-stroke" d="
  M 637.72 486.49
  Q 638.86 474.66 638.83 470.00
  Q 638.77 461.34 637.42 449.27
  Q 632.18 402.61 605.40 365.57
  C 583.73 335.62 551.58 315.33 515.54 307.28
  C 509.74 305.98 503.19 305.32 497.99 304.63
  Q 479.42 302.15 458.15 305.71
  Q 417.60 312.50 385.20 337.36
  C 382.66 339.30 381.13 341.06 378.94 342.61
  Q 377.02 343.97 374.27 346.61
  Q 341.98 377.56 328.05 419.82
  Q 323.14 434.70 320.43 451.55
  C 319.20 459.18 318.86 468.08 318.41 475.75
  Q 318.14 480.25 319.37 482.41"
/>
<path stroke="#0c3c63" vector-effect="non-scaling-stroke" d="
  M 319.37 482.41
  Q 319.83 483.28 319.60 486.42"
/>
<path stroke="#89a97f" vector-effect="non-scaling-stroke" d="
  M 319.60 486.42
  L 209.56 486.56"
/>
<path stroke="#1364a9" vector-effect="non-scaling-stroke" d="
  M 584.91 172.04
  Q 581.29 172.39 577.30 170.92
  A 3.87 3.79 -29.6 0 0 576.58 170.73
  C 559.57 167.81 542.06 165.87 524.58 165.93
  Q 509.11 165.99 503.75 166.23
  Q 473.60 167.60 440.54 175.82
  Q 382.13 190.33 334.35 228.89
  Q 307.23 250.77 286.30 276.80
  Q 268.20 299.31 256.33 319.54
  Q 240.78 346.04 229.44 377.38
  Q 212.42 424.43 208.94 482.23
  Q 208.90 482.91 208.68 484.36
  A 0.92 0.90 25.4 0 0 208.98 485.17
  Q 209.67 485.79 209.56 486.56"
/>
<path stroke="#849562" vector-effect="non-scaling-stroke" d="
  M 209.56 486.56
  L 179.12 486.69"
/>
<path stroke="#8cc499" vector-effect="non-scaling-stroke" d="
  M 637.72 486.49
  Q 637.67 486.32 636.68 486.43"
/>
<path stroke="#0f577d" vector-effect="non-scaling-stroke" d="
  M 636.68 486.43
  Q 638.04 469.74 636.81 454.49
  C 632.63 402.94 605.82 352.09 559.63 325.61
  Q 522.96 304.58 480.76 304.93
  Q 459.60 305.10 439.54 311.07
  Q 380.44 328.65 347.32 381.05
  Q 334.84 400.80 328.22 422.50
  Q 322.96 439.77 321.18 453.73
  Q 319.77 464.76 319.37 482.41"
/>
<path stroke="#7d6d1c" vector-effect="non-scaling-stroke" d="
  M 636.68 486.43
  Q 634.24 508.69 627.07 528.06
  Q 614.01 563.37 587.43 591.26
  C 576.04 603.20 563.00 614.23 549.31 622.30
  Q 517.11 641.28 478.75 641.30
  Q 464.78 641.31 456.61 640.37
  C 405.38 634.48 359.62 603.93 337.26 557.01
  C 327.90 537.38 322.19 516.46 320.50 494.79
  Q 320.15 490.35 319.60 486.42"
/>
<path stroke="#7d6d1c" vector-effect="non-scaling-stroke" d="
  M 339.08 486.49
  Q 338.89 492.79 339.88 500.69
  Q 342.41 520.96 348.17 536.87
  Q 359.92 569.37 386.52 591.49
  C 417.15 616.96 459.26 626.08 497.95 616.33
  C 527.93 608.77 554.51 588.73 573.75 564.24
  Q 598.28 533.00 605.29 493.59
  Q 605.96 489.85 606.25 486.43"
/>
<path stroke="#0c3c63" vector-effect="non-scaling-stroke" d="
  M 606.25 486.43
  Q 606.91 484.30 606.85 482.44"
/>
<path stroke="#0f577d" vector-effect="non-scaling-stroke" d="
  M 606.85 482.44
  C 610.44 455.31 605.22 427.72 593.87 402.83
  C 582.07 376.96 563.47 355.73 539.24 341.78
  Q 507.69 323.60 470.25 326.26
  C 439.15 328.46 407.92 344.55 385.94 366.41
  C 354.27 397.89 337.63 441.86 339.08 486.49"
/>
<path stroke="#1b93e0" vector-effect="non-scaling-stroke" d="
  M 606.85 482.44
  Q 606.29 482.89 606.00 482.12
  A 0.37 0.32 40.3 0 1 605.97 481.94
  L 607.08 465.99
  A 11.95 11.72 44.4 0 0 607.04 463.93
  Q 606.45 458.68 606.36 455.93
  Q 606.15 450.31 605.76 447.11
  Q 604.20 434.31 598.67 417.89
  Q 586.37 381.38 558.74 357.07
  Q 538.03 338.85 509.83 330.74
  Q 502.78 328.72 493.23 327.81
  Q 481.48 326.70 476.36 326.91
  C 461.88 327.50 446.71 330.62 432.60 336.58
  Q 413.48 344.68 398.45 356.49
  Q 394.23 359.81 388.74 365.25
  Q 381.06 372.86 379.57 374.56
  Q 363.23 393.31 353.21 416.72
  Q 341.13 444.95 340.02 474.70
  Q 339.81 480.42 339.80 486.56"
/>
<path stroke="#8cc499" vector-effect="non-scaling-stroke" d="
  M 339.80 486.56
  Q 339.70 486.29 339.08 486.49"
/>
<path stroke="#89a97f" vector-effect="non-scaling-stroke" d="
  M 606.25 486.43
  L 562.67 486.54"
/>
<path stroke="#1b93e0" vector-effect="non-scaling-stroke" d="
  M 562.67 486.54
  Q 562.76 484.62 563.69 480.94
  Q 565.38 474.26 564.83 462.55
  Q 563.85 441.44 555.29 422.59
  Q 546.47 403.16 531.92 391.29
  Q 516.48 378.69 496.78 374.18
  Q 481.19 370.60 467.89 372.15
  Q 434.21 376.09 410.70 401.24
  C 408.82 403.25 407.91 404.96 406.29 406.61
  Q 404.65 408.27 402.92 410.57
  Q 392.82 423.98 386.14 441.44
  Q 377.72 463.44 379.55 486.51"
/>
<path stroke="#89a97f" vector-effect="non-scaling-stroke" d="
  M 379.55 486.51
  L 339.80 486.56"
/>
<path stroke="#7d6d1c" vector-effect="non-scaling-stroke" d="
  M 561.61 486.42
  Q 555.00 519.45 531.13 543.13
  C 517.09 557.05 501.08 566.49 481.26 568.61
  C 467.46 570.09 452.30 568.86 438.69 564.55
  Q 425.37 560.32 417.19 554.29
  Q 389.47 533.83 382.55 499.48
  Q 381.68 495.13 380.48 486.42"
/>
<path stroke="#8cc499" vector-effect="non-scaling-stroke" d="
  M 562.67 486.54
  Q 562.43 486.39 561.61 486.42"
/>
<path stroke="#0f577d" vector-effect="non-scaling-stroke" d="
  M 561.61 486.42
  Q 565.99 466.32 561.72 446.01
  C 556.01 418.86 541.40 394.73 515.99 382.34
  C 489.75 369.54 461.43 369.84 435.39 383.34
  C 412.74 395.09 395.72 418.68 387.02 441.79
  Q 378.86 463.49 380.48 486.42"
/>
<path stroke="#8cc499" vector-effect="non-scaling-stroke" d="
  M 380.48 486.42
  Q 379.78 486.35 379.55 486.51"
/>
<path stroke="#0c3c63" vector-effect="non-scaling-stroke" d="
  M 489.25 397.01
  C 469.54 394.23 447.71 396.50 432.84 410.65
  C 422.05 420.92 411.89 434.67 407.31 448.82
  C 403.39 460.91 402.62 471.57 402.99 484.99
  C 403.43 500.98 407.97 518.88 420.16 529.51
  Q 433.59 541.22 453.00 545.45
  Q 456.18 546.14 459.17 547.36
  A 0.20 0.20 0.0 0 0 459.36 547.01
  Q 456.11 544.80 454.12 542.70
  Q 430.27 517.61 430.76 482.28
  Q 430.95 468.67 435.47 455.47
  C 443.92 430.83 461.30 409.83 485.01 399.08
  C 486.63 398.34 488.46 398.19 489.38 397.56
  A 0.30 0.30 0.0 0 0 489.25 397.01"
/>
<path stroke="#1364a9" vector-effect="non-scaling-stroke" d="
  M 484.80 397.92
  A 0.22 0.22 0.0 0 0 484.69 397.52
  C 468.05 396.05 448.81 397.91 435.33 409.61
  C 429.83 414.38 425.25 419.83 420.75 425.74
  C 407.53 443.09 402.94 463.07 403.88 484.86
  Q 404.48 498.57 408.98 511.02
  Q 412.80 521.58 420.55 528.47
  Q 434.45 540.82 452.58 544.26
  A 0.58 0.58 0.0 0 0 453.11 543.29
  Q 448.33 538.16 443.45 530.82
  Q 430.18 510.80 429.86 485.50
  Q 429.74 476.20 430.89 469.63
  C 433.47 454.82 440.02 438.89 449.82 426.51
  Q 454.61 420.46 455.72 419.23
  Q 464.35 409.60 477.91 401.55
  C 480.05 400.28 482.86 399.36 484.80 397.92"
/>
<path stroke="#d9ba30" vector-effect="non-scaling-stroke" d="
  M 413.06 788.88
  A 0.26 0.26 0.0 0 0 412.88 788.56
  Q 384.90 779.99 361.76 766.58
  C 344.73 756.72 329.39 744.84 315.07 733.17
  Q 296.42 717.98 278.95 696.57
  Q 227.64 633.68 213.73 554.33
  Q 210.67 536.87 208.86 509.54
  C 208.39 502.38 208.73 493.21 208.90 488.38
  A 0.49 0.48 -89.4 0 0 208.42 487.88
  L 181.09 487.88
  A 0.71 0.70 -1.5 0 0 180.38 488.62
  Q 180.52 491.31 181.06 496.10
  C 181.71 501.92 180.60 508.90 181.30 513.75
  C 182.01 518.69 181.87 522.27 182.50 527.03
  Q 184.27 540.50 184.81 543.74
  Q 193.60 596.42 219.29 643.46
  Q 241.75 684.59 273.79 716.46
  Q 291.78 734.36 312.52 748.46
  Q 346.57 771.60 384.75 782.90
  Q 392.03 785.06 398.68 786.17
  Q 407.15 787.59 412.72 789.09
  A 0.28 0.28 0.0 0 0 413.06 788.89
  L 413.06 788.88"
/>
</g>
<path fill="#000000" d="
  M 164.74 277.56
  Q 167.03 273.34 167.04 273.33
  Q 190.41 233.61 216.26 204.77
  C 227.97 191.70 242.31 177.56 256.13 166.00
  Q 304.38 125.64 363.17 101.70
  Q 404.91 84.70 446.78 78.20
  Q 451.02 77.54 455.26 76.82
  C 461.93 75.69 468.85 75.17 474.80 74.45
  Q 487.47 72.91 513.75 72.96
  Q 523.70 72.98 527.77 73.36
  C 533.57 73.90 538.45 73.82 543.76 74.26
  Q 561.56 75.74 583.54 79.63
  Q 625.30 87.02 663.95 103.09
  Q 729.58 130.38 779.83 176.69
  Q 815.95 209.99 844.35 253.96
  C 867.38 289.64 883.90 329.41 894.34 370.93
  Q 899.12 389.97 902.36 409.43
  Q 903.37 415.54 904.22 423.06
  Q 905.27 432.39 905.46 433.44
  C 906.19 437.49 905.64 441.44 906.39 445.39
  Q 906.90 448.05 906.90 450.16
  C 906.94 460.37 908.00 472.28 907.30 483.26
  C 906.87 490.01 907.31 497.50 906.41 504.64
  Q 905.95 508.36 905.96 512.00
  C 905.98 515.31 905.37 518.37 904.90 522.50
  Q 900.56 560.66 889.81 595.38
  Q 879.56 628.48 863.12 661.16
  Q 837.02 713.06 796.08 756.34
  Q 739.29 816.36 659.21 849.95
  Q 653.40 852.39 635.12 858.68
  Q 620.75 863.62 610.65 866.15
  Q 583.01 873.08 558.27 876.56
  Q 548.70 877.91 544.57 878.16
  C 542.36 878.29 540.27 878.94 538.79 878.90
  Q 536.07 878.83 529.42 879.55
  Q 526.26 879.89 520.06 880.09
  Q 497.84 880.81 472.83 879.89
  C 467.91 879.71 463.38 878.87 458.54 878.88
  A 7.39 7.32 51.3 0 1 456.88 878.69
  Q 453.78 877.96 449.44 877.94
  A 4.50 4.21 50.7 0 1 448.31 877.79
  C 445.10 876.94 442.04 877.29 439.25 876.50
  Q 438.72 876.34 433.57 875.61
  Q 423.13 874.13 404.78 869.96
  Q 355.03 858.66 309.25 833.00
  Q 252.47 801.17 209.95 752.31
  Q 181.29 719.38 159.36 679.16
  Q 146.42 655.42 136.95 629.17
  Q 126.85 601.20 121.45 576.61
  Q 118.11 561.42 115.50 539.98
  Q 114.95 535.50 114.94 533.89
  C 114.90 530.83 114.05 528.37 114.03 525.76
  C 114.00 519.25 113.08 513.11 113.01 506.57
  Q 112.75 484.74 113.03 467.26
  C 113.11 462.09 113.70 456.96 114.09 451.26
  Q 115.92 424.73 122.01 394.51
  Q 131.70 346.38 153.08 300.35
  Q 157.47 290.90 164.74 277.56
  Z
  M 131.36 486.56
  Q 131.01 487.33 131.08 489.00
  Q 131.45 498.21 131.86 507.51
  Q 132.29 517.45 133.09 525.97
  Q 135.47 551.21 139.56 570.73
  Q 161.32 674.62 236.70 752.55
  Q 270.21 787.19 314.61 811.89
  Q 357.42 835.71 403.50 845.56
  C 424.98 850.15 446.80 853.10 469.24 853.13
  Q 488.45 853.16 496.99 852.47
  Q 565.14 846.92 624.52 816.02
  C 692.26 780.77 747.00 725.48 782.24 657.23
  Q 817.84 588.28 827.13 511.43
  Q 829.00 495.92 829.17 486.30
  Q 829.51 484.26 829.73 478.25
  Q 832.03 415.29 816.15 358.08
  Q 801.13 303.97 772.44 255.32
  Q 759.47 233.32 743.61 213.34
  Q 692.46 148.90 618.20 117.85
  Q 597.38 109.14 575.74 104.01
  Q 556.37 99.42 531.57 97.19
  C 446.81 89.58 360.39 117.24 291.66 166.32
  Q 231.11 209.56 189.76 276.69
  C 156.74 330.29 138.88 391.32 133.10 453.76
  Q 131.59 470.10 131.36 486.56
  Z
  M 695.32 145.90
  Q 698.89 150.33 704.14 153.16
  C 762.33 197.63 805.20 259.03 828.42 328.34
  Q 846.33 381.80 849.90 433.72
  Q 853.35 483.66 846.29 531.05
  Q 839.21 578.54 819.24 624.52
  Q 797.22 675.23 764.86 718.34
  Q 736.81 755.69 701.90 783.88
  Q 661.26 816.68 613.97 839.17
  C 607.51 842.24 600.61 844.60 594.96 846.87
  A 0.12 0.12 0.0 0 0 595.02 847.10
  Q 598.45 846.57 601.76 845.52
  C 613.54 841.77 623.18 839.41 634.84 835.05
  C 670.44 821.75 703.47 804.48 734.06 781.67
  Q 760.92 761.65 784.47 735.16
  Q 824.19 690.48 848.73 637.00
  C 881.98 564.54 892.14 482.36 877.88 404.01
  Q 865.81 337.72 831.84 278.67
  Q 795.06 214.73 735.95 170.06
  Q 721.77 159.34 705.62 149.90
  Q 686.33 138.61 668.90 130.34
  Q 668.81 130.30 668.66 130.43
  A 0.09 0.09 0.0 0 0 668.67 130.57
  L 695.32 145.90
  Z"
/>
<path fill="#1eaef9" d="
  M 829.17 486.30
  L 828.46 486.25
  L 828.18 484.66
  A 4.79 4.59 43.8 0 1 828.13 483.48
  Q 829.57 467.28 829.02 455.87
  Q 828.38 442.44 828.09 435.78
  C 827.96 432.87 827.35 430.36 827.37 427.78
  Q 827.39 424.91 827.00 421.77
  Q 823.53 393.80 820.87 381.64
  Q 803.44 302.09 758.83 235.90
  Q 748.77 220.97 735.25 205.00
  Q 710.04 175.21 679.06 152.97
  Q 647.47 130.28 607.20 114.68
  C 594.37 109.70 578.49 105.49 566.19 103.09
  Q 538.91 97.77 504.29 96.96
  Q 496.55 96.77 485.22 97.68
  Q 472.67 98.68 466.20 99.42
  C 390.32 108.17 318.96 140.96 261.84 191.42
  C 258.26 194.59 255.61 197.59 252.23 200.47
  Q 248.77 203.43 245.04 207.27
  Q 164.20 290.61 141.37 404.42
  Q 133.50 443.71 132.41 485.15
  A 0.76 0.54 61.6 0 1 132.39 485.32
  L 132.03 486.58
  Q 132.25 486.37 131.36 486.56
  Q 131.59 470.10 133.10 453.76
  C 138.88 391.32 156.74 330.29 189.76 276.69
  Q 231.11 209.56 291.66 166.32
  C 360.39 117.24 446.81 89.58 531.57 97.19
  Q 556.37 99.42 575.74 104.01
  Q 597.38 109.14 618.20 117.85
  Q 692.46 148.90 743.61 213.34
  Q 759.47 233.32 772.44 255.32
  Q 801.13 303.97 816.15 358.08
  Q 832.03 415.29 829.73 478.25
  Q 829.51 484.26 829.17 486.30
  Z"
/>
<path fill="#1878c6" d="
  M 828.46 486.25
  L 793.28 486.51
  L 793.48 483.34
  Q 794.55 484.26 794.68 481.83
  Q 798.25 411.33 774.63 344.36
  Q 757.51 295.80 731.00 257.71
  Q 724.46 248.33 719.31 241.91
  Q 712.09 232.92 706.65 226.86
  Q 702.07 221.75 692.85 212.65
  Q 685.10 204.99 678.22 199.34
  Q 663.57 187.33 649.85 178.19
  Q 612.97 153.59 570.03 141.00
  Q 566.54 139.98 560.90 138.67
  Q 552.50 136.73 551.72 136.58
  Q 540.85 134.48 525.87 132.43
  C 514.10 130.82 503.31 130.68 491.11 130.22
  C 483.94 129.94 477.26 130.60 470.66 130.78
  Q 462.58 131.00 455.36 131.74
  Q 409.10 136.48 366.31 155.09
  Q 342.45 165.46 321.45 178.48
  Q 306.62 187.67 287.42 202.83
  Q 285.14 204.63 284.37 205.45
  C 281.92 208.03 278.97 209.68 276.78 212.04
  Q 275.97 212.91 270.30 217.82
  Q 264.05 223.22 249.80 238.80
  Q 244.39 244.71 240.17 249.92
  C 232.91 258.89 225.25 268.76 218.94 278.27
  C 187.78 325.26 168.27 380.04 161.29 435.77
  Q 160.21 444.36 159.71 450.30
  C 159.22 456.13 159.33 460.47 158.72 465.89
  C 158.01 472.22 158.25 478.77 158.22 484.54
  A 0.97 0.04 61.1 0 0 158.62 485.34
  Q 158.82 485.72 158.46 486.36
  L 132.03 486.58
  L 132.39 485.32
  A 0.76 0.54 61.6 0 0 132.41 485.15
  Q 133.50 443.71 141.37 404.42
  Q 164.20 290.61 245.04 207.27
  Q 248.77 203.43 252.23 200.47
  C 255.61 197.59 258.26 194.59 261.84 191.42
  C 318.96 140.96 390.32 108.17 466.20 99.42
  Q 472.67 98.68 485.22 97.68
  Q 496.55 96.77 504.29 96.96
  Q 538.91 97.77 566.19 103.09
  C 578.49 105.49 594.37 109.70 607.20 114.68
  Q 647.47 130.28 679.06 152.97
  Q 710.04 175.21 735.25 205.00
  Q 748.77 220.97 758.83 235.90
  Q 803.44 302.09 820.87 381.64
  Q 823.53 393.80 827.00 421.77
  Q 827.39 424.91 827.37 427.78
  C 827.35 430.36 827.96 432.87 828.09 435.78
  Q 828.38 442.44 829.02 455.87
  Q 829.57 467.28 828.13 483.48
  A 4.79 4.59 43.8 0 0 828.18 484.66
  L 828.46 486.25
  Z"
/>
<path fill="#1eaef9" d="
  M 793.48 483.34
  Q 796.72 422.62 779.93 364.55
  C 766.21 317.11 743.03 270.56 710.86 233.33
  Q 692.12 211.64 670.83 194.70
  C 633.99 165.38 590.57 144.66 544.13 136.36
  Q 526.35 133.19 512.25 132.34
  Q 502.87 131.77 483.26 131.82
  Q 466.85 131.86 454.31 133.13
  Q 422.80 136.32 390.98 146.97
  Q 337.27 164.96 293.23 199.70
  Q 242.61 239.63 210.25 294.04
  Q 188.83 330.06 176.00 372.10
  Q 163.51 413.02 160.35 455.93
  Q 159.23 471.18 159.41 486.24
  Q 158.31 486.16 158.46 486.36
  Q 158.82 485.72 158.62 485.34
  A 0.97 0.04 61.1 0 1 158.22 484.54
  C 158.25 478.77 158.01 472.22 158.72 465.89
  C 159.33 460.47 159.22 456.13 159.71 450.30
  Q 160.21 444.36 161.29 435.77
  C 168.27 380.04 187.78 325.26 218.94 278.27
  C 225.25 268.76 232.91 258.89 240.17 249.92
  Q 244.39 244.71 249.80 238.80
  Q 264.05 223.22 270.30 217.82
  Q 275.97 212.91 276.78 212.04
  C 278.97 209.68 281.92 208.03 284.37 205.45
  Q 285.14 204.63 287.42 202.83
  Q 306.62 187.67 321.45 178.48
  Q 342.45 165.46 366.31 155.09
  Q 409.10 136.48 455.36 131.74
  Q 462.58 131.00 470.66 130.78
  C 477.26 130.60 483.94 129.94 491.11 130.22
  C 503.31 130.68 514.10 130.82 525.87 132.43
  Q 540.85 134.48 551.72 136.58
  Q 552.50 136.73 560.90 138.67
  Q 566.54 139.98 570.03 141.00
  Q 612.97 153.59 649.85 178.19
  Q 663.57 187.33 678.22 199.34
  Q 685.10 204.99 692.85 212.65
  Q 702.07 221.75 706.65 226.86
  Q 712.09 232.92 719.31 241.91
  Q 724.46 248.33 731.00 257.71
  Q 757.51 295.80 774.63 344.36
  Q 798.25 411.33 794.68 481.83
  Q 794.55 484.26 793.48 483.34
  Z"
/>
<path fill="#1878c6" d="
  M 704.14 153.16
  Q 704.81 152.29 707.09 154.14
  Q 716.32 161.64 724.52 168.67
  Q 730.35 173.67 743.29 186.77
  C 781.89 225.86 810.73 273.66 828.58 325.69
  Q 838.76 355.36 845.05 387.62
  Q 847.49 400.17 849.15 415.97
  Q 851.37 437.03 851.55 444.51
  Q 852.29 474.97 851.81 483.38
  Q 850.51 506.22 849.81 512.50
  Q 844.11 564.05 826.53 609.32
  Q 804.13 667.00 765.91 718.53
  C 760.80 725.43 754.30 733.12 747.68 740.92
  Q 732.51 758.82 713.08 775.57
  Q 697.58 788.92 680.87 800.85
  Q 664.69 812.40 642.41 825.38
  Q 630.34 832.41 613.57 840.24
  A 0.38 0.37 -23.0 0 0 613.37 840.72
  L 613.38 840.74
  A 0.28 0.28 0.0 0 0 613.73 840.90
  Q 618.94 839.19 623.76 837.87
  Q 627.58 836.82 633.53 834.57
  Q 662.28 823.71 683.14 812.58
  Q 707.74 799.46 723.04 788.51
  Q 746.15 771.99 759.28 759.51
  Q 774.15 745.38 782.61 735.86
  Q 785.99 732.05 793.46 723.37
  Q 797.73 718.41 803.67 710.36
  Q 812.56 698.31 815.00 694.75
  Q 826.40 678.08 832.95 665.71
  Q 832.99 665.62 834.29 663.38
  Q 849.82 636.55 861.57 602.60
  Q 868.89 581.46 873.22 562.28
  Q 878.46 539.09 881.20 513.75
  Q 881.89 507.40 882.54 495.25
  Q 883.61 475.43 883.34 465.98
  Q 883.14 459.10 883.01 457.52
  C 882.33 449.56 882.44 443.23 881.43 436.49
  C 880.59 430.86 880.24 424.83 879.37 418.88
  C 870.58 358.74 848.27 300.76 813.12 251.24
  C 801.94 235.51 790.17 220.73 777.49 208.01
  Q 763.16 193.61 746.17 179.34
  Q 722.79 159.71 695.32 145.90
  L 668.67 130.57
  A 0.09 0.09 0.0 0 1 668.66 130.43
  Q 668.81 130.30 668.90 130.34
  Q 686.33 138.61 705.62 149.90
  Q 721.77 159.34 735.95 170.06
  Q 795.06 214.73 831.84 278.67
  Q 865.81 337.72 877.88 404.01
  C 892.14 482.36 881.98 564.54 848.73 637.00
  Q 824.19 690.48 784.47 735.16
  Q 760.92 761.65 734.06 781.67
  C 703.47 804.48 670.44 821.75 634.84 835.05
  C 623.18 839.41 613.54 841.77 601.76 845.52
  Q 598.45 846.57 595.02 847.10
  A 0.12 0.12 0.0 0 1 594.96 846.87
  C 600.61 844.60 607.51 842.24 613.97 839.17
  Q 661.26 816.68 701.90 783.88
  Q 736.81 755.69 764.86 718.34
  Q 797.22 675.23 819.24 624.52
  Q 839.21 578.54 846.29 531.05
  Q 853.35 483.66 849.90 433.72
  Q 846.33 381.80 828.42 328.34
  C 805.20 259.03 762.33 197.63 704.14 153.16
  Z"
/>
<path fill="#000000" d="
  M 793.48 483.34
  L 793.28 486.51
  Q 788.09 562.87 754.47 631.21
  Q 716.73 707.95 647.06 757.53
  C 617.03 778.90 585.61 794.95 552.55 805.56
  Q 518.29 816.56 481.99 817.90
  C 446.92 819.19 411.60 814.73 378.36 803.65
  C 336.11 789.56 295.06 766.20 262.62 735.51
  Q 232.01 706.57 211.67 673.09
  Q 180.75 622.16 167.93 562.81
  Q 160.06 526.34 159.41 486.24
  Q 159.23 471.18 160.35 455.93
  Q 163.51 413.02 176.00 372.10
  Q 188.83 330.06 210.25 294.04
  Q 242.61 239.63 293.23 199.70
  Q 337.27 164.96 390.98 146.97
  Q 422.80 136.32 454.31 133.13
  Q 466.85 131.86 483.26 131.82
  Q 502.87 131.77 512.25 132.34
  Q 526.35 133.19 544.13 136.36
  C 590.57 144.66 633.99 165.38 670.83 194.70
  Q 692.12 211.64 710.86 233.33
  C 743.03 270.56 766.21 317.11 779.93 364.55
  Q 796.72 422.62 793.48 483.34
  Z
  M 179.43 483.22
  L 179.12 486.69
  Q 179.42 512.21 181.27 527.49
  C 189.81 598.05 220.65 663.75 270.55 714.69
  C 305.01 749.87 349.98 776.81 397.46 787.50
  Q 428.71 794.53 466.64 795.90
  Q 472.16 796.10 480.33 795.48
  C 492.76 794.55 502.69 794.04 514.41 791.96
  C 545.22 786.50 574.79 777.18 601.68 762.43
  C 668.31 725.89 719.55 666.11 747.38 595.70
  Q 764.73 551.81 770.79 505.08
  Q 771.29 501.19 771.70 495.57
  Q 772.05 490.81 772.43 486.04
  Q 774.69 449.86 770.15 417.63
  Q 757.80 329.96 704.14 258.30
  C 639.46 171.92 527.52 137.49 424.41 162.35
  C 360.51 177.77 303.32 213.25 261.39 263.85
  C 218.45 315.67 191.03 378.14 182.58 445.03
  Q 180.47 461.79 179.43 483.22
  Z"
/>
<path fill="#0d508c" d="
  M 704.14 153.16
  Q 698.89 150.33 695.32 145.90
  Q 722.79 159.71 746.17 179.34
  Q 763.16 193.61 777.49 208.01
  C 790.17 220.73 801.94 235.51 813.12 251.24
  C 848.27 300.76 870.58 358.74 879.37 418.88
  C 880.24 424.83 880.59 430.86 881.43 436.49
  C 882.44 443.23 882.33 449.56 883.01 457.52
  Q 883.14 459.10 883.34 465.98
  Q 883.61 475.43 882.54 495.25
  Q 881.89 507.40 881.20 513.75
  Q 878.46 539.09 873.22 562.28
  Q 868.89 581.46 861.57 602.60
  Q 849.82 636.55 834.29 663.38
  Q 832.99 665.62 832.95 665.71
  Q 826.40 678.08 815.00 694.75
  Q 812.56 698.31 803.67 710.36
  Q 797.73 718.41 793.46 723.37
  Q 785.99 732.05 782.61 735.86
  Q 774.15 745.38 759.28 759.51
  Q 746.15 771.99 723.04 788.51
  Q 707.74 799.46 683.14 812.58
  Q 662.28 823.71 633.53 834.57
  Q 627.58 836.82 623.76 837.87
  Q 618.94 839.19 613.73 840.90
  A 0.28 0.28 0.0 0 1 613.38 840.74
  L 613.37 840.72
  A 0.38 0.37 -23.0 0 1 613.57 840.24
  Q 630.34 832.41 642.41 825.38
  Q 664.69 812.40 680.87 800.85
  Q 697.58 788.92 713.08 775.57
  Q 732.51 758.82 747.68 740.92
  C 754.30 733.12 760.80 725.43 765.91 718.53
  Q 804.13 667.00 826.53 609.32
  Q 844.11 564.05 849.81 512.50
  Q 850.51 506.22 851.81 483.38
  Q 852.29 474.97 851.55 444.51
  Q 851.37 437.03 849.15 415.97
  Q 847.49 400.17 845.05 387.62
  Q 838.76 355.36 828.58 325.69
  C 810.73 273.66 781.89 225.86 743.29 186.77
  Q 730.35 173.67 724.52 168.67
  Q 716.32 161.64 707.09 154.14
  Q 704.81 152.29 704.14 153.16
  Z"
/>
<path fill="#1eaef9" d="
  M 772.43 486.04
  L 771.52 486.04
  Q 771.34 484.93 771.44 483.75
  Q 772.47 471.10 772.20 459.39
  C 772.08 454.33 771.07 449.94 771.18 445.61
  Q 771.31 440.58 770.86 435.24
  Q 768.77 410.14 763.10 386.31
  Q 759.96 373.13 754.89 357.57
  Q 737.09 303.01 701.85 257.16
  Q 683.62 233.44 662.04 215.74
  Q 627.83 187.68 584.91 172.04
  Q 563.96 164.37 542.36 160.21
  Q 535.36 158.86 524.62 157.56
  Q 511.51 155.98 506.76 155.76
  Q 476.22 154.33 448.77 158.57
  Q 387.72 167.99 334.60 200.80
  C 326.53 205.78 316.99 212.82 310.16 217.93
  Q 294.12 229.93 279.28 245.29
  Q 260.24 265.00 244.10 287.87
  C 229.21 308.97 217.10 331.62 207.48 354.69
  Q 188.32 400.66 182.86 451.01
  Q 181.33 465.14 180.19 482.66
  Q 180.08 484.48 179.43 483.22
  Q 180.47 461.79 182.58 445.03
  C 191.03 378.14 218.45 315.67 261.39 263.85
  C 303.32 213.25 360.51 177.77 424.41 162.35
  C 527.52 137.49 639.46 171.92 704.14 258.30
  Q 757.80 329.96 770.15 417.63
  Q 774.69 449.86 772.43 486.04
  Z"
/>
<path fill="#0d508c" d="
  M 584.91 172.04
  Q 581.29 172.39 577.30 170.92
  A 3.87 3.79 -29.6 0 0 576.58 170.73
  C 559.57 167.81 542.06 165.87 524.58 165.93
  Q 509.11 165.99 503.75 166.23
  Q 473.60 167.60 440.54 175.82
  Q 382.13 190.33 334.35 228.89
  Q 307.23 250.77 286.30 276.80
  Q 268.20 299.31 256.33 319.54
  Q 240.78 346.04 229.44 377.38
  Q 212.42 424.43 208.94 482.23
  Q 208.90 482.91 208.68 484.36
  A 0.92 0.90 25.4 0 0 208.98 485.17
  Q 209.67 485.79 209.56 486.56
  L 179.12 486.69
  L 179.43 483.22
  Q 180.08 484.48 180.19 482.66
  Q 181.33 465.14 182.86 451.01
  Q 188.32 400.66 207.48 354.69
  C 217.10 331.62 229.21 308.97 244.10 287.87
  Q 260.24 265.00 279.28 245.29
  Q 294.12 229.93 310.16 217.93
  C 316.99 212.82 326.53 205.78 334.60 200.80
  Q 387.72 167.99 448.77 158.57
  Q 476.22 154.33 506.76 155.76
  Q 511.51 155.98 524.62 157.56
  Q 535.36 158.86 542.36 160.21
  Q 563.96 164.37 584.91 172.04
  Z"
/>
<path fill="#1878c6" d="
  M 584.91 172.04
  Q 627.83 187.68 662.04 215.74
  Q 683.62 233.44 701.85 257.16
  Q 737.09 303.01 754.89 357.57
  Q 759.96 373.13 763.10 386.31
  Q 768.77 410.14 770.86 435.24
  Q 771.31 440.58 771.18 445.61
  C 771.07 449.94 772.08 454.33 772.20 459.39
  Q 772.47 471.10 771.44 483.75
  Q 771.34 484.93 771.52 486.04
  Q 771.37 486.34 771.13 486.51
  A 0.43 0.41 25.8 0 1 770.88 486.59
  L 637.72 486.49
  Q 638.86 474.66 638.83 470.00
  Q 638.77 461.34 637.42 449.27
  Q 632.18 402.61 605.40 365.57
  C 583.73 335.62 551.58 315.33 515.54 307.28
  C 509.74 305.98 503.19 305.32 497.99 304.63
  Q 479.42 302.15 458.15 305.71
  Q 417.60 312.50 385.20 337.36
  C 382.66 339.30 381.13 341.06 378.94 342.61
  Q 377.02 343.97 374.27 346.61
  Q 341.98 377.56 328.05 419.82
  Q 323.14 434.70 320.43 451.55
  C 319.20 459.18 318.86 468.08 318.41 475.75
  Q 318.14 480.25 319.37 482.41
  Q 319.83 483.28 319.60 486.42
  L 209.56 486.56
  Q 209.67 485.79 208.98 485.17
  A 0.92 0.90 25.4 0 1 208.68 484.36
  Q 208.90 482.91 208.94 482.23
  Q 212.42 424.43 229.44 377.38
  Q 240.78 346.04 256.33 319.54
  Q 268.20 299.31 286.30 276.80
  Q 307.23 250.77 334.35 228.89
  Q 382.13 190.33 440.54 175.82
  Q 473.60 167.60 503.75 166.23
  Q 509.11 165.99 524.58 165.93
  C 542.06 165.87 559.57 167.81 576.58 170.73
  A 3.87 3.79 -29.6 0 1 577.30 170.92
  Q 581.29 172.39 584.91 172.04
  Z"
/>
<path fill="#1eaef9" d="
  M 637.72 486.49
  Q 637.67 486.32 636.68 486.43
  Q 638.04 469.74 636.81 454.49
  C 632.63 402.94 605.82 352.09 559.63 325.61
  Q 522.96 304.58 480.76 304.93
  Q 459.60 305.10 439.54 311.07
  Q 380.44 328.65 347.32 381.05
  Q 334.84 400.80 328.22 422.50
  Q 322.96 439.77 321.18 453.73
  Q 319.77 464.76 319.37 482.41
  Q 318.14 480.25 318.41 475.75
  C 318.86 468.08 319.20 459.18 320.43 451.55
  Q 323.14 434.70 328.05 419.82
  Q 341.98 377.56 374.27 346.61
  Q 377.02 343.97 378.94 342.61
  C 381.13 341.06 382.66 339.30 385.20 337.36
  Q 417.60 312.50 458.15 305.71
  Q 479.42 302.15 497.99 304.63
  C 503.19 305.32 509.74 305.98 515.54 307.28
  C 551.58 315.33 583.73 335.62 605.40 365.57
  Q 632.18 402.61 637.42 449.27
  Q 638.77 461.34 638.83 470.00
  Q 638.86 474.66 637.72 486.49
  Z"
/>
<path fill="#000000" d="
  M 636.68 486.43
  Q 634.24 508.69 627.07 528.06
  Q 614.01 563.37 587.43 591.26
  C 576.04 603.20 563.00 614.23 549.31 622.30
  Q 517.11 641.28 478.75 641.30
  Q 464.78 641.31 456.61 640.37
  C 405.38 634.48 359.62 603.93 337.26 557.01
  C 327.90 537.38 322.19 516.46 320.50 494.79
  Q 320.15 490.35 319.60 486.42
  Q 319.83 483.28 319.37 482.41
  Q 319.77 464.76 321.18 453.73
  Q 322.96 439.77 328.22 422.50
  Q 334.84 400.80 347.32 381.05
  Q 380.44 328.65 439.54 311.07
  Q 459.60 305.10 480.76 304.93
  Q 522.96 304.58 559.63 325.61
  C 605.82 352.09 632.63 402.94 636.81 454.49
  Q 638.04 469.74 636.68 486.43
  Z
  M 339.08 486.49
  Q 338.89 492.79 339.88 500.69
  Q 342.41 520.96 348.17 536.87
  Q 359.92 569.37 386.52 591.49
  C 417.15 616.96 459.26 626.08 497.95 616.33
  C 527.93 608.77 554.51 588.73 573.75 564.24
  Q 598.28 533.00 605.29 493.59
  Q 605.96 489.85 606.25 486.43
  Q 606.91 484.30 606.85 482.44
  C 610.44 455.31 605.22 427.72 593.87 402.83
  C 582.07 376.96 563.47 355.73 539.24 341.78
  Q 507.69 323.60 470.25 326.26
  C 439.15 328.46 407.92 344.55 385.94 366.41
  C 354.27 397.89 337.63 441.86 339.08 486.49
  Z"
/>
<path fill="#1eaef9" d="
  M 606.85 482.44
  Q 606.29 482.89 606.00 482.12
  A 0.37 0.32 40.3 0 1 605.97 481.94
  L 607.08 465.99
  A 11.95 11.72 44.4 0 0 607.04 463.93
  Q 606.45 458.68 606.36 455.93
  Q 606.15 450.31 605.76 447.11
  Q 604.20 434.31 598.67 417.89
  Q 586.37 381.38 558.74 357.07
  Q 538.03 338.85 509.83 330.74
  Q 502.78 328.72 493.23 327.81
  Q 481.48 326.70 476.36 326.91
  C 461.88 327.50 446.71 330.62 432.60 336.58
  Q 413.48 344.68 398.45 356.49
  Q 394.23 359.81 388.74 365.25
  Q 381.06 372.86 379.57 374.56
  Q 363.23 393.31 353.21 416.72
  Q 341.13 444.95 340.02 474.70
  Q 339.81 480.42 339.80 486.56
  Q 339.70 486.29 339.08 486.49
  C 337.63 441.86 354.27 397.89 385.94 366.41
  C 407.92 344.55 439.15 328.46 470.25 326.26
  Q 507.69 323.60 539.24 341.78
  C 563.47 355.73 582.07 376.96 593.87 402.83
  C 605.22 427.72 610.44 455.31 606.85 482.44
  Z"
/>
<path fill="#1878c6" d="
  M 606.85 482.44
  Q 606.91 484.30 606.25 486.43
  L 562.67 486.54
  Q 562.76 484.62 563.69 480.94
  Q 565.38 474.26 564.83 462.55
  Q 563.85 441.44 555.29 422.59
  Q 546.47 403.16 531.92 391.29
  Q 516.48 378.69 496.78 374.18
  Q 481.19 370.60 467.89 372.15
  Q 434.21 376.09 410.70 401.24
  C 408.82 403.25 407.91 404.96 406.29 406.61
  Q 404.65 408.27 402.92 410.57
  Q 392.82 423.98 386.14 441.44
  Q 377.72 463.44 379.55 486.51
  L 339.80 486.56
  Q 339.81 480.42 340.02 474.70
  Q 341.13 444.95 353.21 416.72
  Q 363.23 393.31 379.57 374.56
  Q 381.06 372.86 388.74 365.25
  Q 394.23 359.81 398.45 356.49
  Q 413.48 344.68 432.60 336.58
  C 446.71 330.62 461.88 327.50 476.36 326.91
  Q 481.48 326.70 493.23 327.81
  Q 502.78 328.72 509.83 330.74
  Q 538.03 338.85 558.74 357.07
  Q 586.37 381.38 598.67 417.89
  Q 604.20 434.31 605.76 447.11
  Q 606.15 450.31 606.36 455.93
  Q 606.45 458.68 607.04 463.93
  A 11.95 11.72 44.4 0 1 607.08 465.99
  L 605.97 481.94
  A 0.37 0.32 40.3 0 0 606.00 482.12
  Q 606.29 482.89 606.85 482.44
  Z"
/>
<path fill="#1eaef9" d="
  M 562.67 486.54
  Q 562.43 486.39 561.61 486.42
  Q 565.99 466.32 561.72 446.01
  C 556.01 418.86 541.40 394.73 515.99 382.34
  C 489.75 369.54 461.43 369.84 435.39 383.34
  C 412.74 395.09 395.72 418.68 387.02 441.79
  Q 378.86 463.49 380.48 486.42
  Q 379.78 486.35 379.55 486.51
  Q 377.72 463.44 386.14 441.44
  Q 392.82 423.98 402.92 410.57
  Q 404.65 408.27 406.29 406.61
  C 407.91 404.96 408.82 403.25 410.70 401.24
  Q 434.21 376.09 467.89 372.15
  Q 481.19 370.60 496.78 374.18
  Q 516.48 378.69 531.92 391.29
  Q 546.47 403.16 555.29 422.59
  Q 563.85 441.44 564.83 462.55
  Q 565.38 474.26 563.69 480.94
  Q 562.76 484.62 562.67 486.54
  Z"
/>
<path fill="#000000" d="
  M 561.61 486.42
  Q 555.00 519.45 531.13 543.13
  C 517.09 557.05 501.08 566.49 481.26 568.61
  C 467.46 570.09 452.30 568.86 438.69 564.55
  Q 425.37 560.32 417.19 554.29
  Q 389.47 533.83 382.55 499.48
  Q 381.68 495.13 380.48 486.42
  Q 378.86 463.49 387.02 441.79
  C 395.72 418.68 412.74 395.09 435.39 383.34
  C 461.43 369.84 489.75 369.54 515.99 382.34
  C 541.40 394.73 556.01 418.86 561.72 446.01
  Q 565.99 466.32 561.61 486.42
  Z
  M 489.25 397.01
  C 469.54 394.23 447.71 396.50 432.84 410.65
  C 422.05 420.92 411.89 434.67 407.31 448.82
  C 403.39 460.91 402.62 471.57 402.99 484.99
  C 403.43 500.98 407.97 518.88 420.16 529.51
  Q 433.59 541.22 453.00 545.45
  Q 456.18 546.14 459.17 547.36
  A 0.20 0.20 0.0 0 0 459.36 547.01
  Q 456.11 544.80 454.12 542.70
  Q 430.27 517.61 430.76 482.28
  Q 430.95 468.67 435.47 455.47
  C 443.92 430.83 461.30 409.83 485.01 399.08
  C 486.63 398.34 488.46 398.19 489.38 397.56
  A 0.30 0.30 0.0 0 0 489.25 397.01
  Z
  M 493.92 547.53
  Q 519.74 535.13 534.20 508.73
  Q 547.22 484.96 544.83 459.26
  Q 542.37 432.83 522.70 412.04
  Q 521.90 411.19 520.04 410.08
  A 1.19 1.18 49.7 0 0 519.00 409.99
  Q 517.45 410.58 513.11 411.41
  Q 498.93 414.12 486.91 421.55
  C 472.92 430.20 461.84 444.35 456.20 459.39
  Q 453.42 466.82 451.73 478.24
  C 450.52 486.44 451.67 494.29 453.56 502.20
  Q 458.51 522.88 474.43 537.06
  Q 480.78 542.72 492.97 547.57
  A 1.19 1.17 -46.9 0 0 493.92 547.53
  Z"
/>
<path fill="#1878c6" d="
  M 489.38 397.56
  C 488.46 398.19 486.63 398.34 485.01 399.08
  C 461.30 409.83 443.92 430.83 435.47 455.47
  Q 430.95 468.67 430.76 482.28
  Q 430.27 517.61 454.12 542.70
  Q 456.11 544.80 459.36 547.01
  A 0.20 0.20 0.0 0 1 459.17 547.36
  Q 456.18 546.14 453.00 545.45
  Q 433.59 541.22 420.16 529.51
  C 407.97 518.88 403.43 500.98 402.99 484.99
  C 402.62 471.57 403.39 460.91 407.31 448.82
  C 411.89 434.67 422.05 420.92 432.84 410.65
  C 447.71 396.50 469.54 394.23 489.25 397.01
  A 0.30 0.30 0.0 0 1 489.38 397.56
  Z
  M 484.80 397.92
  A 0.22 0.22 0.0 0 0 484.69 397.52
  C 468.05 396.05 448.81 397.91 435.33 409.61
  C 429.83 414.38 425.25 419.83 420.75 425.74
  C 407.53 443.09 402.94 463.07 403.88 484.86
  Q 404.48 498.57 408.98 511.02
  Q 412.80 521.58 420.55 528.47
  Q 434.45 540.82 452.58 544.26
  A 0.58 0.58 0.0 0 0 453.11 543.29
  Q 448.33 538.16 443.45 530.82
  Q 430.18 510.80 429.86 485.50
  Q 429.74 476.20 430.89 469.63
  C 433.47 454.82 440.02 438.89 449.82 426.51
  Q 454.61 420.46 455.72 419.23
  Q 464.35 409.60 477.91 401.55
  C 480.05 400.28 482.86 399.36 484.80 397.92
  Z"
/>
<path fill="#0d508c" d="
  M 484.80 397.92
  C 482.86 399.36 480.05 400.28 477.91 401.55
  Q 464.35 409.60 455.72 419.23
  Q 454.61 420.46 449.82 426.51
  C 440.02 438.89 433.47 454.82 430.89 469.63
  Q 429.74 476.20 429.86 485.50
  Q 430.18 510.80 443.45 530.82
  Q 448.33 538.16 453.11 543.29
  A 0.58 0.58 0.0 0 1 452.58 544.26
  Q 434.45 540.82 420.55 528.47
  Q 412.80 521.58 408.98 511.02
  Q 404.48 498.57 403.88 484.86
  C 402.94 463.07 407.53 443.09 420.75 425.74
  C 425.25 419.83 429.83 414.38 435.33 409.61
  C 448.81 397.91 468.05 396.05 484.69 397.52
  A 0.22 0.22 0.0 0 1 484.80 397.92
  Z"
/>
<path fill="#fad938" d="
  M 319.60 486.42
  Q 320.15 490.35 320.50 494.79
  C 322.19 516.46 327.90 537.38 337.26 557.01
  C 359.62 603.93 405.38 634.48 456.61 640.37
  Q 464.78 641.31 478.75 641.30
  Q 517.11 641.28 549.31 622.30
  C 563.00 614.23 576.04 603.20 587.43 591.26
  Q 614.01 563.37 627.07 528.06
  Q 634.24 508.69 636.68 486.43
  Q 637.67 486.32 637.72 486.49
  L 770.88 486.59
  A 0.43 0.41 25.8 0 0 771.13 486.51
  Q 771.37 486.34 771.52 486.04
  L 772.43 486.04
  Q 772.05 490.81 771.70 495.57
  Q 771.29 501.19 770.79 505.08
  Q 764.73 551.81 747.38 595.70
  C 719.55 666.11 668.31 725.89 601.68 762.43
  C 574.79 777.18 545.22 786.50 514.41 791.96
  C 502.69 794.04 492.76 794.55 480.33 795.48
  Q 472.16 796.10 466.64 795.90
  Q 428.71 794.53 397.46 787.50
  C 349.98 776.81 305.01 749.87 270.55 714.69
  C 220.65 663.75 189.81 598.05 181.27 527.49
  Q 179.42 512.21 179.12 486.69
  L 209.56 486.56
  L 319.60 486.42
  Z
  M 413.06 788.88
  A 0.26 0.26 0.0 0 0 412.88 788.56
  Q 384.90 779.99 361.76 766.58
  C 344.73 756.72 329.39 744.84 315.07 733.17
  Q 296.42 717.98 278.95 696.57
  Q 227.64 633.68 213.73 554.33
  Q 210.67 536.87 208.86 509.54
  C 208.39 502.38 208.73 493.21 208.90 488.38
  A 0.49 0.48 -89.4 0 0 208.42 487.88
  L 181.09 487.88
  A 0.71 0.70 -1.5 0 0 180.38 488.62
  Q 180.52 491.31 181.06 496.10
  C 181.71 501.92 180.60 508.90 181.30 513.75
  C 182.01 518.69 181.87 522.27 182.50 527.03
  Q 184.27 540.50 184.81 543.74
  Q 193.60 596.42 219.29 643.46
  Q 241.75 684.59 273.79 716.46
  Q 291.78 734.36 312.52 748.46
  Q 346.57 771.60 384.75 782.90
  Q 392.03 785.06 398.68 786.17
  Q 407.15 787.59 412.72 789.09
  A 0.28 0.28 0.0 0 0 413.06 788.89
  L 413.06 788.88
  Z"
/>
<path fill="#fad938" d="
  M 158.46 486.36
  Q 158.31 486.16 159.41 486.24
  Q 160.06 526.34 167.93 562.81
  Q 180.75 622.16 211.67 673.09
  Q 232.01 706.57 262.62 735.51
  C 295.06 766.20 336.11 789.56 378.36 803.65
  C 411.60 814.73 446.92 819.19 481.99 817.90
  Q 518.29 816.56 552.55 805.56
  C 585.61 794.95 617.03 778.90 647.06 757.53
  Q 716.73 707.95 754.47 631.21
  Q 788.09 562.87 793.28 486.51
  L 828.46 486.25
  L 829.17 486.30
  Q 829.00 495.92 827.13 511.43
  Q 817.84 588.28 782.24 657.23
  C 747.00 725.48 692.26 780.77 624.52 816.02
  Q 565.14 846.92 496.99 852.47
  Q 488.45 853.16 469.24 853.13
  C 446.80 853.10 424.98 850.15 403.50 845.56
  Q 357.42 835.71 314.61 811.89
  Q 270.21 787.19 236.70 752.55
  Q 161.32 674.62 139.56 570.73
  Q 135.47 551.21 133.09 525.97
  Q 132.29 517.45 131.86 507.51
  Q 131.45 498.21 131.08 489.00
  Q 131.01 487.33 131.36 486.56
  Q 132.25 486.37 132.03 486.58
  L 158.46 486.36
  Z"
/>
<path fill="#fad938" d="
  M 606.25 486.43
  Q 605.96 489.85 605.29 493.59
  Q 598.28 533.00 573.75 564.24
  C 554.51 588.73 527.93 608.77 497.95 616.33
  C 459.26 626.08 417.15 616.96 386.52 591.49
  Q 359.92 569.37 348.17 536.87
  Q 342.41 520.96 339.88 500.69
  Q 338.89 492.79 339.08 486.49
  Q 339.70 486.29 339.80 486.56
  L 379.55 486.51
  Q 379.78 486.35 380.48 486.42
  Q 381.68 495.13 382.55 499.48
  Q 389.47 533.83 417.19 554.29
  Q 425.37 560.32 438.69 564.55
  C 452.30 568.86 467.46 570.09 481.26 568.61
  C 501.08 566.49 517.09 557.05 531.13 543.13
  Q 555.00 519.45 561.61 486.42
  Q 562.43 486.39 562.67 486.54
  L 606.25 486.43
  Z"
/>
<path fill="#b89a28" d="
  M 413.06 788.88
  L 413.06 788.89
  A 0.28 0.28 0.0 0 1 412.72 789.09
  Q 407.15 787.59 398.68 786.17
  Q 392.03 785.06 384.75 782.90
  Q 346.57 771.60 312.52 748.46
  Q 291.78 734.36 273.79 716.46
  Q 241.75 684.59 219.29 643.46
  Q 193.60 596.42 184.81 543.74
  Q 184.27 540.50 182.50 527.03
  C 181.87 522.27 182.01 518.69 181.30 513.75
  C 180.60 508.90 181.71 501.92 181.06 496.10
  Q 180.52 491.31 180.38 488.62
  A 0.71 0.70 -1.5 0 1 181.09 487.88
  L 208.42 487.88
  A 0.49 0.48 -89.4 0 1 208.90 488.38
  C 208.73 493.21 208.39 502.38 208.86 509.54
  Q 210.67 536.87 213.73 554.33
  Q 227.64 633.68 278.95 696.57
  Q 296.42 717.98 315.07 733.17
  C 329.39 744.84 344.73 756.72 361.76 766.58
  Q 384.90 779.99 412.88 788.56
  A 0.26 0.26 0.0 0 1 413.06 788.88
  Z"
/>
</svg>
