<?xml version="1.0" encoding="UTF-8" standalone="no"?>
<!DOCTYPE svg PUBLIC "-//W3C//DTD SVG 1.1//EN" "http://www.w3.org/Graphics/SVG/1.1/DTD/svg11.dtd">
<svg xmlns="http://www.w3.org/2000/svg" version="1.1" viewBox="0.00 0.00 1024.00 1024.00">
<g stroke-width="2.00" fill="none" stroke-linecap="butt">
<path stroke="#836813" vector-effect="non-scaling-stroke" d="
  M 539.61 848.32
  Q 578.89 841.97 614.40 828.12
  Q 642.54 817.15 663.55 805.54
  Q 764.71 749.64 819.93 647.75
  Q 857.63 578.17 864.41 497.20
  Q 864.80 492.48 864.93 488.30
  C 865.15 480.65 865.75 473.58 865.68 466.06
  Q 865.37 434.60 860.62 405.07
  C 849.89 338.29 819.89 275.21 773.74 225.51
  Q 737.08 186.04 689.82 159.38
  Q 615.02 117.19 532.49 112.39
  Q 510.39 111.10 498.00 111.39
  C 447.22 112.55 397.79 123.59 351.64 144.87
  Q 307.04 165.44 270.09 195.84
  C 225.93 232.17 190.34 278.21 166.05 330.53
  C 127.32 413.92 118.23 510.89 144.74 599.01
  C 164.47 664.58 201.81 723.39 253.56 768.27
  C 273.67 785.71 297.12 800.99 320.52 813.24
  Q 349.43 828.38 380.88 837.88
  Q 458.79 861.39 539.61 848.32"
/>
<path stroke="#807d76" vector-effect="non-scaling-stroke" d="
  M 833.97 262.28
  C 866.69 312.73 885.84 373.11 890.86 432.28
  C 895.22 483.59 889.88 536.26 875.43 585.38
  Q 866.89 614.39 852.53 644.56
  Q 802.80 748.99 702.85 813.85
  Q 617.19 869.44 517.95 878.61
  Q 514.23 878.95 508.05 879.26
  C 499.24 879.70 491.20 880.35 483.32 880.12
  Q 474.18 879.86 464.84 879.78
  A 0.17 0.17 0.0 0 0 464.67 879.94
  L 464.66 879.97
  A 0.28 0.27 -85.6 0 0 464.90 880.26
  Q 480.77 882.11 500.24 882.86
  Q 572.71 885.66 638.15 861.10
  Q 656.62 854.17 665.21 850.21
  Q 724.02 823.11 770.35 781.35
  Q 830.14 727.47 865.35 654.36
  Q 892.24 598.51 900.52 536.02
  Q 907.03 486.86 902.50 439.49
  C 897.39 386.03 878.37 334.31 851.05 287.96
  Q 843.46 275.08 834.43 261.99
  A 0.04 0.04 0.0 0 0 834.38 261.98
  L 834.01 262.15
  A 0.09 0.09 0.0 0 0 833.97 262.28"
/>
<path stroke="#fbc31c" vector-effect="non-scaling-stroke" d="
  M 154.29 623.22
  Q 175.69 680.01 216.42 728.87
  Q 219.81 732.94 225.63 739.17
  Q 233.99 748.11 235.41 749.54
  Q 257.98 772.26 284.28 790.13
  Q 364.49 844.61 461.51 851.10
  Q 467.81 851.52 499.34 851.14
  C 507.59 851.04 514.23 850.17 523.98 849.09
  Q 575.02 843.45 627.15 821.43
  Q 667.49 804.38 702.78 779.24
  Q 714.27 771.06 728.47 759.22
  Q 734.00 754.61 735.84 752.77
  Q 738.54 750.06 743.04 746.12
  C 752.01 738.25 760.28 727.88 767.41 721.13
  A 4.22 4.08 -8.8 0 0 768.20 720.09
  C 769.74 717.19 772.73 715.23 774.75 712.21
  C 775.69 710.81 777.54 709.57 778.61 707.85
  Q 779.04 707.15 779.45 706.65
  Q 781.44 704.22 784.79 699.79
  Q 818.17 655.69 837.94 605.76
  Q 849.87 575.63 857.06 540.84
  Q 858.39 534.42 861.78 510.22
  C 862.24 506.99 862.27 503.22 862.72 500.08
  Q 862.95 498.47 863.03 492.42
  C 863.10 486.83 864.13 481.63 864.22 475.81
  Q 864.36 465.87 864.08 452.41
  Q 864.01 448.90 863.53 446.71
  C 862.52 442.09 863.12 437.60 862.65 432.61
  Q 856.74 369.73 832.24 316.03
  Q 813.90 275.83 785.64 241.16
  Q 780.31 234.62 776.98 231.56
  A 7.48 7.13 -85.9 0 1 775.66 229.96
  Q 774.60 228.20 773.22 226.78
  Q 768.52 221.92 754.49 208.03
  Q 750.90 204.47 731.43 188.68
  Q 729.05 186.76 725.34 184.10
  C 720.53 180.66 715.11 176.52 709.74 173.07
  Q 689.72 160.25 669.90 150.39
  Q 635.67 133.36 597.58 123.71
  Q 579.91 119.23 551.11 115.42
  C 548.00 115.01 545.30 115.35 542.58 114.81
  Q 539.25 114.14 536.24 114.00
  C 529.91 113.70 522.85 112.78 516.53 112.87
  C 501.84 113.07 490.70 112.62 478.25 113.61
  Q 458.90 115.17 437.15 118.94
  Q 425.72 120.93 414.82 123.84
  Q 399.44 127.94 392.81 130.09
  Q 351.70 143.38 312.12 167.36
  Q 289.83 180.87 270.73 196.98
  Q 265.09 201.73 254.51 210.99
  Q 249.73 215.17 245.30 219.81
  C 242.48 222.76 236.64 228.06 232.63 233.05
  C 230.02 236.30 227.33 238.90 224.37 242.37
  Q 196.14 275.42 176.86 311.86
  Q 158.72 346.13 147.45 383.06
  C 144.68 392.16 141.91 403.35 140.25 410.69
  Q 136.69 426.53 134.21 444.44
  C 133.95 446.31 133.96 448.60 133.71 450.62
  Q 132.06 463.76 132.03 466.25
  Q 131.94 474.15 131.69 476.65
  Q 131.01 483.41 130.99 487.03
  Q 130.76 527.42 136.74 559.75
  Q 142.88 592.93 154.29 623.22"
/>
<path stroke="#fbc31c" vector-effect="non-scaling-stroke" d="
  M 837.18 492.01
  C 837.36 488.53 838.03 483.69 838.02 479.25
  C 838.02 468.87 838.32 460.82 837.43 451.60
  Q 836.93 446.32 836.91 442.18
  C 836.89 437.49 835.39 432.43 835.81 427.70
  A 3.47 3.45 -53.0 0 0 835.60 426.17
  Q 834.82 424.11 834.86 420.74
  C 834.88 418.69 834.04 417.10 833.95 415.08
  Q 833.85 412.70 833.47 410.78
  Q 828.97 387.72 827.44 381.73
  Q 824.71 371.05 819.36 355.26
  C 813.90 339.12 807.03 324.16 799.05 309.18
  Q 797.55 306.36 792.20 297.21
  Q 787.70 289.52 784.92 285.50
  Q 773.06 268.33 765.92 259.81
  Q 762.61 255.85 762.17 255.26
  Q 760.25 252.67 758.28 250.74
  C 756.26 248.75 754.63 246.08 752.24 243.98
  Q 751.35 243.20 745.22 236.69
  Q 735.83 226.70 722.01 215.26
  Q 681.86 182.02 634.16 162.97
  Q 608.97 152.91 582.62 146.71
  Q 566.99 143.03 541.23 139.50
  C 537.37 138.97 533.72 139.18 530.10 138.59
  Q 526.82 138.06 521.76 138.07
  Q 507.21 138.09 491.95 138.00
  C 489.17 137.99 487.19 138.30 484.17 138.69
  Q 482.51 138.91 478.31 139.16
  Q 464.63 139.97 452.68 141.99
  Q 445.71 143.17 443.94 143.42
  Q 439.91 143.99 435.24 145.02
  C 390.16 154.96 348.38 172.68 310.66 198.91
  Q 293.15 211.10 276.27 225.92
  Q 269.78 231.62 263.84 237.70
  Q 252.84 248.95 251.76 249.89
  C 250.07 251.37 249.25 253.00 248.00 254.64
  A 10.20 9.76 -3.5 0 1 246.75 255.99
  Q 244.46 258.02 243.18 259.86
  C 241.42 262.36 239.66 263.89 237.53 266.54
  C 217.54 291.30 201.33 317.89 188.30 346.74
  Q 172.02 382.79 163.41 426.66
  Q 161.56 436.09 159.92 450.79
  C 159.73 452.48 159.20 454.68 159.10 456.38
  Q 158.60 465.67 157.19 484.66
  Q 156.87 488.94 157.09 495.49
  Q 157.89 518.69 159.40 532.18
  Q 159.65 534.40 159.68 534.70
  Q 161.74 554.36 165.70 570.55
  Q 169.40 585.66 171.88 593.88
  Q 187.04 644.32 217.04 687.42
  C 219.37 690.78 223.03 695.25 225.67 699.01
  Q 228.33 702.78 232.34 707.53
  C 236.33 712.26 241.38 718.84 246.47 723.93
  Q 253.15 730.61 261.86 739.36
  C 266.13 743.65 270.23 746.68 274.72 750.53
  Q 279.21 754.39 284.67 758.55
  Q 350.56 808.73 432.93 822.04
  Q 436.95 822.69 439.44 822.91
  C 445.01 823.42 449.53 824.49 455.77 824.66
  C 461.80 824.83 471.13 826.12 478.16 825.78
  Q 483.43 825.52 487.98 825.82
  Q 491.27 826.04 499.13 825.41
  Q 503.91 825.03 510.28 824.69
  Q 519.30 824.22 535.54 821.73
  Q 548.07 819.81 564.26 816.11
  C 573.45 814.01 580.94 811.40 589.38 808.97
  C 597.11 806.74 608.44 802.12 615.09 799.60
  Q 622.19 796.91 646.44 784.65
  Q 667.03 774.25 692.99 755.49
  Q 696.72 752.80 705.97 745.22
  Q 720.04 733.69 724.56 728.71
  C 727.36 725.63 731.14 723.30 734.10 719.62
  Q 736.03 717.22 745.61 707.59
  Q 747.52 705.67 748.21 704.75
  C 750.30 701.99 752.58 700.05 754.37 697.34
  C 755.85 695.10 758.14 693.10 760.16 690.51
  Q 796.04 644.58 816.83 590.32
  Q 821.12 579.11 824.32 567.84
  Q 835.26 529.28 837.18 492.01"
/>
<path stroke="#836813" vector-effect="non-scaling-stroke" d="
  M 739.83 711.82
  C 769.88 679.70 793.02 643.28 810.31 602.77
  Q 820.86 578.05 826.89 552.91
  Q 833.37 525.87 835.14 501.00
  Q 837.07 473.85 835.59 445.75
  C 833.03 397.28 820.11 349.46 796.88 308.09
  Q 754.61 232.83 683.10 188.92
  Q 641.34 163.28 592.34 150.51
  Q 544.39 138.01 494.39 139.54
  Q 434.79 141.35 379.35 163.52
  Q 325.23 185.15 279.23 225.21
  Q 256.90 244.66 237.37 269.03
  C 188.48 330.07 160.43 405.69 159.01 484.01
  Q 158.62 505.56 159.32 515.25
  C 160.43 530.69 162.56 549.61 166.20 566.11
  Q 170.91 587.48 176.90 604.89
  C 201.84 677.49 250.67 739.25 316.35 778.41
  Q 359.11 803.89 408.61 815.84
  Q 443.70 824.31 481.31 824.46
  Q 519.53 824.61 554.18 817.14
  C 625.06 801.85 689.93 765.14 739.83 711.82"
/>
<path stroke="#701a15" vector-effect="non-scaling-stroke" d="
  M 526.94 162.09
  Q 459.60 157.84 397.06 181.02
  Q 368.64 191.56 343.28 206.78
  Q 315.89 223.22 290.41 246.22
  C 246.86 285.56 214.73 335.87 197.17 391.15
  Q 170.31 475.69 189.21 564.76
  Q 191.16 573.98 194.50 584.76
  Q 216.49 655.78 267.56 709.80
  Q 271.93 714.42 278.08 720.20
  Q 286.73 728.33 288.92 730.19
  Q 353.58 784.95 435.39 798.31
  Q 498.61 808.63 559.93 793.58
  Q 588.56 786.55 613.01 775.98
  Q 637.00 765.60 660.13 750.69
  Q 721.50 711.11 760.78 650.32
  C 789.45 605.95 807.40 556.62 812.57 504.28
  Q 814.87 480.96 814.76 468.00
  Q 814.65 454.95 812.50 431.30
  Q 811.22 417.27 808.05 402.24
  Q 800.11 364.62 782.82 329.17
  Q 764.21 291.02 736.11 260.88
  Q 716.13 239.43 693.87 222.61
  C 659.24 196.43 616.73 176.75 573.68 168.04
  Q 552.14 163.68 526.94 162.09"
/>
<path stroke="#ec7a20" vector-effect="non-scaling-stroke" d="
  M 472.69 192.19
  C 413.15 200.79 357.77 226.26 312.93 266.64
  Q 279.85 296.42 256.68 333.90
  C 226.38 382.88 209.86 439.63 210.37 497.48
  Q 210.60 522.53 213.92 544.29
  Q 219.59 581.50 234.32 616.45
  Q 255.05 665.67 292.53 704.20
  Q 329.09 741.81 376.27 762.68
  Q 423.09 783.40 475.01 785.78
  Q 500.09 786.93 522.74 784.21
  Q 582.39 777.04 635.35 748.60
  C 667.69 731.23 698.72 706.52 724.36 677.03
  Q 732.65 667.49 736.12 663.13
  Q 778.30 610.08 794.58 545.11
  C 799.79 524.32 802.94 502.36 803.02 480.08
  Q 803.10 460.19 802.94 456.24
  Q 800.56 397.55 774.52 344.94
  Q 753.51 302.49 720.20 270.58
  Q 666.10 218.74 592.81 198.95
  Q 577.26 194.75 553.17 191.55
  C 533.82 188.98 512.32 188.98 493.26 190.09
  Q 483.13 190.68 472.69 192.19"
/>
<path stroke="#ec7a20" vector-effect="non-scaling-stroke" d="
  M 306.55 662.71
  Q 322.03 680.00 336.66 691.83
  Q 358.97 709.89 386.04 722.47
  Q 428.49 742.20 473.52 744.86
  Q 510.50 747.05 545.70 738.84
  C 587.40 729.11 626.69 710.48 659.48 682.73
  Q 694.91 652.73 719.78 613.48
  C 742.30 577.93 755.34 540.69 758.65 499.49
  C 759.93 483.51 760.01 471.40 759.05 456.09
  C 755.35 397.07 730.88 341.31 688.77 299.79
  Q 663.44 274.82 634.70 258.82
  Q 576.44 226.41 507.50 227.00
  Q 449.49 227.50 398.84 251.16
  Q 358.61 269.96 328.89 297.69
  Q 284.97 338.68 262.14 397.58
  Q 248.87 431.83 245.53 473.60
  Q 244.93 481.11 244.95 489.92
  Q 244.98 503.46 245.11 506.25
  Q 247.73 563.42 273.61 614.44
  Q 282.25 631.48 293.05 645.71
  Q 302.62 658.32 306.55 662.71"
/>
<path stroke="#ec7a20" vector-effect="non-scaling-stroke" d="
  M 487.82 289.42
  C 434.92 293.73 387.38 320.16 354.00 361.18
  Q 321.34 401.32 311.69 451.30
  Q 302.49 498.97 315.17 543.84
  C 333.21 607.64 382.94 657.19 446.95 672.94
  Q 479.34 680.90 510.84 677.27
  C 555.31 672.13 597.02 652.65 629.30 621.29
  Q 643.16 607.83 652.71 594.74
  Q 689.43 544.40 691.70 481.06
  Q 691.89 475.59 691.47 468.07
  Q 690.98 459.42 690.48 455.07
  Q 684.10 399.46 651.55 358.46
  Q 616.52 314.31 562.17 297.02
  C 538.23 289.40 512.05 287.44 487.82 289.42"
/>
<path stroke="#807d76" vector-effect="non-scaling-stroke" d="
  M 511.46 880.83
  L 494.77 881.02
  A 0.21 0.20 -90.0 0 0 494.57 881.23
  L 494.57 881.24
  A 0.21 0.20 90.0 0 0 494.77 881.45
  L 508.96 881.39"
/>
<path stroke="#c6c2b8" vector-effect="non-scaling-stroke" d="
  M 508.96 881.39
  C 512.02 881.50 515.18 881.93 518.02 881.95
  C 561.61 882.22 605.07 873.22 645.72 857.00
  Q 659.35 851.56 660.69 850.96
  Q 718.26 825.35 765.05 784.79
  Q 784.31 768.10 798.26 752.23
  Q 814.59 733.65 825.34 719.08
  Q 854.44 679.62 873.72 633.01
  Q 885.33 604.93 892.86 573.10
  Q 896.41 558.06 898.86 540.28
  Q 902.24 515.76 903.26 492.25
  Q 904.35 466.84 901.32 437.77
  Q 897.07 396.92 882.93 357.80
  Q 878.80 346.35 868.47 322.70
  Q 868.32 322.36 865.90 318.66
  A 0.75 0.47 31.7 0 1 865.85 318.56
  L 862.20 310.69
  A 1.06 1.02 0.5 0 0 861.69 310.19
  L 861.41 310.06
  A 0.29 0.29 0.0 0 0 861.21 310.45
  C 862.44 313.54 863.90 316.47 865.05 319.61
  C 869.64 332.12 872.21 338.68 875.61 349.60
  Q 894.00 408.60 893.32 470.81
  Q 892.98 502.17 888.46 531.50
  C 883.96 560.75 876.19 590.61 865.01 618.58
  Q 849.01 658.57 825.59 694.61
  Q 808.64 720.70 786.31 744.81
  C 752.31 781.51 712.71 811.60 669.44 834.57
  Q 606.37 868.05 534.49 877.91
  Q 526.61 878.99 518.19 879.62
  Q 516.35 879.76 514.80 880.08
  Q 513.03 880.45 511.46 880.83"
/>
<path stroke="#4d4c49" vector-effect="non-scaling-stroke" d="
  M 508.96 881.39
  Q 511.30 881.51 511.46 880.83"
/>
<path stroke="#836813" vector-effect="non-scaling-stroke" d="
  M 601.2670 337.0079
  A 179.39 173.98 -54.4 0 0 355.3767 381.5922
  A 179.39 173.98 -54.4 0 0 392.4130 628.7321
  A 179.39 173.98 -54.4 0 0 638.3033 584.1478
  A 179.39 173.98 -54.4 0 0 601.2670 337.0079"
/>
<path stroke="#807d76" vector-effect="non-scaling-stroke" d="
  M 547.16 408.41
  A 0.41 0.41 0.0 0 0 547.80 408.08
  L 548.96 343.51
  A 2.08 2.07 10.7 0 0 547.59 341.52
  Q 514.79 329.71 479.86 335.09
  A 0.83 0.83 0.0 0 0 479.16 335.91
  L 479.16 394.50
  A 0.95 0.95 0.0 0 0 480.28 395.44
  Q 496.56 392.50 513.16 395.13
  Q 531.99 398.12 547.16 408.41"
/>
<path stroke="#807d76" vector-effect="non-scaling-stroke" d="
  M 371.23 409.82
  L 400.28 410.34
  A 0.93 0.93 0.0 0 0 401.23 409.42
  L 401.90 372.60
  A 0.36 0.36 0.0 0 0 401.30 372.33
  Q 383.69 388.70 370.91 409.23
  A 0.39 0.38 -73.6 0 0 371.23 409.82"
/>
<path stroke="#807d76" vector-effect="non-scaling-stroke" d="
  M 552.40 411.99
  C 573.95 432.10 585.83 456.48 585.03 486.30
  A 0.74 0.74 0.0 0 0 585.77 487.06
  L 624.06 487.06
  A 0.34 0.34 0.0 0 0 624.40 486.72
  L 624.40 412.46
  A 0.76 0.76 0.0 0 0 623.64 411.70
  L 552.52 411.70
  A 0.17 0.17 0.0 0 0 552.40 411.99"
/>
<path stroke="#807d76" vector-effect="non-scaling-stroke" d="
  M 441.74 413.01
  L 403.39 412.32
  A 1.34 1.34 0.0 0 0 402.02 413.64
  L 400.72 485.80
  A 1.21 1.21 0.0 0 0 401.90 487.03
  L 405.30 487.09
  A 1.23 1.22 -86.4 0 0 406.54 485.99
  Q 407.22 479.66 407.24 479.50
  Q 410.34 451.95 427.20 429.65
  C 431.64 423.78 436.42 417.97 441.89 413.43
  A 0.24 0.24 0.0 0 0 441.74 413.01"
/>
<path stroke="#701a15" vector-effect="non-scaling-stroke" d="
  M 523.32 427.48
  Q 517.41 426.37 510.43 425.36
  C 486.33 421.89 464.98 427.44 449.86 447.39
  Q 434.33 467.87 437.22 493.51
  Q 439.54 514.12 453.36 528.91
  Q 457.81 533.66 462.23 537.54
  A 0.42 0.42 0.0 0 0 462.87 537.03
  Q 456.85 525.53 455.58 512.76
  C 454.09 497.70 456.47 482.27 463.77 468.84
  C 473.22 451.47 490.88 435.44 510.66 430.72
  Q 517.03 429.20 523.31 428.19
  A 0.36 0.36 0.0 0 0 523.32 427.48"
/>
<path stroke="#807d76" vector-effect="non-scaling-stroke" d="
  M 643.67 490.40
  L 625.46 490.40
  A 0.42 0.42 0.0 0 0 625.04 490.82
  L 625.04 551.63
  A 0.30 0.30 0.0 0 0 625.61 551.77
  Q 635.16 533.58 640.14 513.65
  C 642.11 505.77 643.93 498.22 644.07 490.80
  A 0.40 0.39 0.7 0 0 643.67 490.40"
/>
<path stroke="#807d76" vector-effect="non-scaling-stroke" d="
  M 348.09 490.84
  Q 347.88 492.73 348.07 494.76
  Q 350.83 524.64 363.25 552.24
  Q 366.85 560.25 370.77 566.17
  A 2.30 2.30 0.0 0 0 372.65 567.20
  L 397.64 567.65
  A 0.28 0.28 0.0 0 0 397.93 567.38
  L 399.29 491.80
  A 0.59 0.59 0.0 0 0 398.71 491.20
  L 348.29 490.66
  A 0.20 0.20 0.0 0 0 348.09 490.84"
/>
<path stroke="#807d76" vector-effect="non-scaling-stroke" d="
  M 531.91 567.69
  Q 539.52 566.72 544.28 567.41
  A 0.62 0.61 -86.0 0 0 544.98 566.80
  L 544.98 561.11
  A 0.43 0.43 0.0 0 0 544.30 560.76
  Q 540.45 563.43 535.85 565.34
  Q 533.43 566.34 531.77 567.26
  A 0.23 0.23 0.0 0 0 531.91 567.69"
/>
<path stroke="#807d76" vector-effect="non-scaling-stroke" d="
  M 611.52 570.40
  L 546.91 570.40
  A 0.50 0.50 0.0 0 0 546.41 570.89
  L 545.51 620.61
  A 0.63 0.63 0.0 0 0 546.38 621.20
  Q 579.01 607.65 602.93 582.19
  Q 606.32 578.59 611.91 571.19
  A 0.49 0.49 0.0 0 0 611.52 570.40"
/>
<path stroke="#807d76" vector-effect="non-scaling-stroke" d="
  M 469.09 629.59
  A 0.68 0.67 -84.8 0 0 469.87 628.93
  L 470.90 571.76
  A 0.95 0.94 0.6 0 0 469.95 570.80
  L 399.93 570.80
  A 0.52 0.52 0.0 0 0 399.41 571.30
  Q 398.75 585.96 399.09 596.20
  C 399.20 599.70 407.48 605.21 409.92 606.82
  Q 437.30 624.88 469.09 629.59"
/>
</g>
<path fill="#070707" d="
  M 149.23 300.43
  Q 161.44 277.62 176.72 255.74
  Q 241.52 162.94 345.33 116.83
  Q 397.11 93.83 454.61 86.54
  C 459.51 85.92 464.37 85.55 469.12 85.03
  Q 478.13 84.04 481.97 83.95
  C 489.15 83.77 494.92 83.08 502.34 83.02
  Q 525.99 82.85 548.75 85.03
  Q 606.09 90.53 658.88 111.62
  Q 710.18 132.12 755.64 162.86
  Q 792.94 188.08 823.57 219.97
  Q 874.54 273.02 900.50 337.27
  Q 920.78 387.48 926.70 438.03
  Q 928.01 449.24 928.06 449.51
  Q 928.87 454.24 928.99 461.03
  C 929.09 467.33 929.92 472.59 929.94 479.08
  Q 930.02 499.34 929.82 504.25
  Q 929.57 510.63 928.50 524.16
  Q 927.63 535.27 926.35 543.99
  Q 915.74 616.32 882.38 680.82
  Q 863.46 717.41 837.29 750.04
  C 831.20 757.63 823.52 766.87 816.47 774.25
  Q 788.24 803.79 762.08 823.82
  Q 736.78 843.19 707.00 859.76
  Q 638.95 897.63 563.07 906.47
  Q 558.73 906.98 554.38 907.45
  Q 548.58 908.07 545.63 908.11
  C 540.56 908.17 536.22 908.89 530.54 908.93
  Q 517.28 909.01 508.38 908.95
  C 502.93 908.91 498.78 908.20 493.70 908.07
  Q 492.21 908.03 487.83 907.65
  Q 433.47 902.97 382.36 882.38
  C 329.63 861.13 282.45 829.61 239.42 792.62
  Q 213.89 770.66 197.65 751.85
  Q 166.19 715.40 145.59 675.17
  Q 117.73 620.75 107.44 560.81
  Q 104.32 542.59 102.90 519.14
  C 102.57 513.57 102.07 508.25 102.02 502.50
  Q 101.82 476.59 102.35 471.51
  Q 103.15 463.93 103.08 462.76
  Q 102.88 459.39 103.56 455.52
  C 104.05 452.70 103.95 449.35 104.35 445.84
  Q 105.69 434.20 107.05 425.75
  Q 117.75 359.23 149.23 300.43
  Z
  M 539.61 848.32
  Q 578.89 841.97 614.40 828.12
  Q 642.54 817.15 663.55 805.54
  Q 764.71 749.64 819.93 647.75
  Q 857.63 578.17 864.41 497.20
  Q 864.80 492.48 864.93 488.30
  C 865.15 480.65 865.75 473.58 865.68 466.06
  Q 865.37 434.60 860.62 405.07
  C 849.89 338.29 819.89 275.21 773.74 225.51
  Q 737.08 186.04 689.82 159.38
  Q 615.02 117.19 532.49 112.39
  Q 510.39 111.10 498.00 111.39
  C 447.22 112.55 397.79 123.59 351.64 144.87
  Q 307.04 165.44 270.09 195.84
  C 225.93 232.17 190.34 278.21 166.05 330.53
  C 127.32 413.92 118.23 510.89 144.74 599.01
  C 164.47 664.58 201.81 723.39 253.56 768.27
  C 273.67 785.71 297.12 800.99 320.52 813.24
  Q 349.43 828.38 380.88 837.88
  Q 458.79 861.39 539.61 848.32
  Z
  M 833.97 262.28
  C 866.69 312.73 885.84 373.11 890.86 432.28
  C 895.22 483.59 889.88 536.26 875.43 585.38
  Q 866.89 614.39 852.53 644.56
  Q 802.80 748.99 702.85 813.85
  Q 617.19 869.44 517.95 878.61
  Q 514.23 878.95 508.05 879.26
  C 499.24 879.70 491.20 880.35 483.32 880.12
  Q 474.18 879.86 464.84 879.78
  A 0.17 0.17 0.0 0 0 464.67 879.94
  L 464.66 879.97
  A 0.28 0.27 -85.6 0 0 464.90 880.26
  Q 480.77 882.11 500.24 882.86
  Q 572.71 885.66 638.15 861.10
  Q 656.62 854.17 665.21 850.21
  Q 724.02 823.11 770.35 781.35
  Q 830.14 727.47 865.35 654.36
  Q 892.24 598.51 900.52 536.02
  Q 907.03 486.86 902.50 439.49
  C 897.39 386.03 878.37 334.31 851.05 287.96
  Q 843.46 275.08 834.43 261.99
  A 0.04 0.04 0.0 0 0 834.38 261.98
  L 834.01 262.15
  A 0.09 0.09 0.0 0 0 833.97 262.28
  Z"
/>
<path fill="#fec81e" d="
  M 539.61 848.32
  Q 458.79 861.39 380.88 837.88
  Q 349.43 828.38 320.52 813.24
  C 297.12 800.99 273.67 785.71 253.56 768.27
  C 201.81 723.39 164.47 664.58 144.74 599.01
  C 118.23 510.89 127.32 413.92 166.05 330.53
  C 190.34 278.21 225.93 232.17 270.09 195.84
  Q 307.04 165.44 351.64 144.87
  C 397.79 123.59 447.22 112.55 498.00 111.39
  Q 510.39 111.10 532.49 112.39
  Q 615.02 117.19 689.82 159.38
  Q 737.08 186.04 773.74 225.51
  C 819.89 275.21 849.89 338.29 860.62 405.07
  Q 865.37 434.60 865.68 466.06
  C 865.75 473.58 865.15 480.65 864.93 488.30
  Q 864.80 492.48 864.41 497.20
  Q 857.63 578.17 819.93 647.75
  Q 764.71 749.64 663.55 805.54
  Q 642.54 817.15 614.40 828.12
  Q 578.89 841.97 539.61 848.32
  Z
  M 154.29 623.22
  Q 175.69 680.01 216.42 728.87
  Q 219.81 732.94 225.63 739.17
  Q 233.99 748.11 235.41 749.54
  Q 257.98 772.26 284.28 790.13
  Q 364.49 844.61 461.51 851.10
  Q 467.81 851.52 499.34 851.14
  C 507.59 851.04 514.23 850.17 523.98 849.09
  Q 575.02 843.45 627.15 821.43
  Q 667.49 804.38 702.78 779.24
  Q 714.27 771.06 728.47 759.22
  Q 734.00 754.61 735.84 752.77
  Q 738.54 750.06 743.04 746.12
  C 752.01 738.25 760.28 727.88 767.41 721.13
  A 4.22 4.08 -8.8 0 0 768.20 720.09
  C 769.74 717.19 772.73 715.23 774.75 712.21
  C 775.69 710.81 777.54 709.57 778.61 707.85
  Q 779.04 707.15 779.45 706.65
  Q 781.44 704.22 784.79 699.79
  Q 818.17 655.69 837.94 605.76
  Q 849.87 575.63 857.06 540.84
  Q 858.39 534.42 861.78 510.22
  C 862.24 506.99 862.27 503.22 862.72 500.08
  Q 862.95 498.47 863.03 492.42
  C 863.10 486.83 864.13 481.63 864.22 475.81
  Q 864.36 465.87 864.08 452.41
  Q 864.01 448.90 863.53 446.71
  C 862.52 442.09 863.12 437.60 862.65 432.61
  Q 856.74 369.73 832.24 316.03
  Q 813.90 275.83 785.64 241.16
  Q 780.31 234.62 776.98 231.56
  A 7.48 7.13 -85.9 0 1 775.66 229.96
  Q 774.60 228.20 773.22 226.78
  Q 768.52 221.92 754.49 208.03
  Q 750.90 204.47 731.43 188.68
  Q 729.05 186.76 725.34 184.10
  C 720.53 180.66 715.11 176.52 709.74 173.07
  Q 689.72 160.25 669.90 150.39
  Q 635.67 133.36 597.58 123.71
  Q 579.91 119.23 551.11 115.42
  C 548.00 115.01 545.30 115.35 542.58 114.81
  Q 539.25 114.14 536.24 114.00
  C 529.91 113.70 522.85 112.78 516.53 112.87
  C 501.84 113.07 490.70 112.62 478.25 113.61
  Q 458.90 115.17 437.15 118.94
  Q 425.72 120.93 414.82 123.84
  Q 399.44 127.94 392.81 130.09
  Q 351.70 143.38 312.12 167.36
  Q 289.83 180.87 270.73 196.98
  Q 265.09 201.73 254.51 210.99
  Q 249.73 215.17 245.30 219.81
  C 242.48 222.76 236.64 228.06 232.63 233.05
  C 230.02 236.30 227.33 238.90 224.37 242.37
  Q 196.14 275.42 176.86 311.86
  Q 158.72 346.13 147.45 383.06
  C 144.68 392.16 141.91 403.35 140.25 410.69
  Q 136.69 426.53 134.21 444.44
  C 133.95 446.31 133.96 448.60 133.71 450.62
  Q 132.06 463.76 132.03 466.25
  Q 131.94 474.15 131.69 476.65
  Q 131.01 483.41 130.99 487.03
  Q 130.76 527.42 136.74 559.75
  Q 142.88 592.93 154.29 623.22
  Z"
/>
<path fill="#f7bd1a" d="
  M 154.29 623.22
  Q 142.88 592.93 136.74 559.75
  Q 130.76 527.42 130.99 487.03
  Q 131.01 483.41 131.69 476.65
  Q 131.94 474.15 132.03 466.25
  Q 132.06 463.76 133.71 450.62
  C 133.96 448.60 133.95 446.31 134.21 444.44
  Q 136.69 426.53 140.25 410.69
  C 141.91 403.35 144.68 392.16 147.45 383.06
  Q 158.72 346.13 176.86 311.86
  Q 196.14 275.42 224.37 242.37
  C 227.33 238.90 230.02 236.30 232.63 233.05
  C 236.64 228.06 242.48 222.76 245.30 219.81
  Q 249.73 215.17 254.51 210.99
  Q 265.09 201.73 270.73 196.98
  Q 289.83 180.87 312.12 167.36
  Q 351.70 143.38 392.81 130.09
  Q 399.44 127.94 414.82 123.84
  Q 425.72 120.93 437.15 118.94
  Q 458.90 115.17 478.25 113.61
  C 490.70 112.62 501.84 113.07 516.53 112.87
  C 522.85 112.78 529.91 113.70 536.24 114.00
  Q 539.25 114.14 542.58 114.81
  C 545.30 115.35 548.00 115.01 551.11 115.42
  Q 579.91 119.23 597.58 123.71
  Q 635.67 133.36 669.90 150.39
  Q 689.72 160.25 709.74 173.07
  C 715.11 176.52 720.53 180.66 725.34 184.10
  Q 729.05 186.76 731.43 188.68
  Q 750.90 204.47 754.49 208.03
  Q 768.52 221.92 773.22 226.78
  Q 774.60 228.20 775.66 229.96
  A 7.48 7.13 -85.9 0 0 776.98 231.56
  Q 780.31 234.62 785.64 241.16
  Q 813.90 275.83 832.24 316.03
  Q 856.74 369.73 862.65 432.61
  C 863.12 437.60 862.52 442.09 863.53 446.71
  Q 864.01 448.90 864.08 452.41
  Q 864.36 465.87 864.22 475.81
  C 864.13 481.63 863.10 486.83 863.03 492.42
  Q 862.95 498.47 862.72 500.08
  C 862.27 503.22 862.24 506.99 861.78 510.22
  Q 858.39 534.42 857.06 540.84
  Q 849.87 575.63 837.94 605.76
  Q 818.17 655.69 784.79 699.79
  Q 781.44 704.22 779.45 706.65
  Q 779.04 707.15 778.61 707.85
  C 777.54 709.57 775.69 710.81 774.75 712.21
  C 772.73 715.23 769.74 717.19 768.20 720.09
  A 4.22 4.08 -8.8 0 1 767.41 721.13
  C 760.28 727.88 752.01 738.25 743.04 746.12
  Q 738.54 750.06 735.84 752.77
  Q 734.00 754.61 728.47 759.22
  Q 714.27 771.06 702.78 779.24
  Q 667.49 804.38 627.15 821.43
  Q 575.02 843.45 523.98 849.09
  C 514.23 850.17 507.59 851.04 499.34 851.14
  Q 467.81 851.52 461.51 851.10
  Q 364.49 844.61 284.28 790.13
  Q 257.98 772.26 235.41 749.54
  Q 233.99 748.11 225.63 739.17
  Q 219.81 732.94 216.42 728.87
  Q 175.69 680.01 154.29 623.22
  Z
  M 837.18 492.01
  C 837.36 488.53 838.03 483.69 838.02 479.25
  C 838.02 468.87 838.32 460.82 837.43 451.60
  Q 836.93 446.32 836.91 442.18
  C 836.89 437.49 835.39 432.43 835.81 427.70
  A 3.47 3.45 -53.0 0 0 835.60 426.17
  Q 834.82 424.11 834.86 420.74
  C 834.88 418.69 834.04 417.10 833.95 415.08
  Q 833.85 412.70 833.47 410.78
  Q 828.97 387.72 827.44 381.73
  Q 824.71 371.05 819.36 355.26
  C 813.90 339.12 807.03 324.16 799.05 309.18
  Q 797.55 306.36 792.20 297.21
  Q 787.70 289.52 784.92 285.50
  Q 773.06 268.33 765.92 259.81
  Q 762.61 255.85 762.17 255.26
  Q 760.25 252.67 758.28 250.74
  C 756.26 248.75 754.63 246.08 752.24 243.98
  Q 751.35 243.20 745.22 236.69
  Q 735.83 226.70 722.01 215.26
  Q 681.86 182.02 634.16 162.97
  Q 608.97 152.91 582.62 146.71
  Q 566.99 143.03 541.23 139.50
  C 537.37 138.97 533.72 139.18 530.10 138.59
  Q 526.82 138.06 521.76 138.07
  Q 507.21 138.09 491.95 138.00
  C 489.17 137.99 487.19 138.30 484.17 138.69
  Q 482.51 138.91 478.31 139.16
  Q 464.63 139.97 452.68 141.99
  Q 445.71 143.17 443.94 143.42
  Q 439.91 143.99 435.24 145.02
  C 390.16 154.96 348.38 172.68 310.66 198.91
  Q 293.15 211.10 276.27 225.92
  Q 269.78 231.62 263.84 237.70
  Q 252.84 248.95 251.76 249.89
  C 250.07 251.37 249.25 253.00 248.00 254.64
  A 10.20 9.76 -3.5 0 1 246.75 255.99
  Q 244.46 258.02 243.18 259.86
  C 241.42 262.36 239.66 263.89 237.53 266.54
  C 217.54 291.30 201.33 317.89 188.30 346.74
  Q 172.02 382.79 163.41 426.66
  Q 161.56 436.09 159.92 450.79
  C 159.73 452.48 159.20 454.68 159.10 456.38
  Q 158.60 465.67 157.19 484.66
  Q 156.87 488.94 157.09 495.49
  Q 157.89 518.69 159.40 532.18
  Q 159.65 534.40 159.68 534.70
  Q 161.74 554.36 165.70 570.55
  Q 169.40 585.66 171.88 593.88
  Q 187.04 644.32 217.04 687.42
  C 219.37 690.78 223.03 695.25 225.67 699.01
  Q 228.33 702.78 232.34 707.53
  C 236.33 712.26 241.38 718.84 246.47 723.93
  Q 253.15 730.61 261.86 739.36
  C 266.13 743.65 270.23 746.68 274.72 750.53
  Q 279.21 754.39 284.67 758.55
  Q 350.56 808.73 432.93 822.04
  Q 436.95 822.69 439.44 822.91
  C 445.01 823.42 449.53 824.49 455.77 824.66
  C 461.80 824.83 471.13 826.12 478.16 825.78
  Q 483.43 825.52 487.98 825.82
  Q 491.27 826.04 499.13 825.41
  Q 503.91 825.03 510.28 824.69
  Q 519.30 824.22 535.54 821.73
  Q 548.07 819.81 564.26 816.11
  C 573.45 814.01 580.94 811.40 589.38 808.97
  C 597.11 806.74 608.44 802.12 615.09 799.60
  Q 622.19 796.91 646.44 784.65
  Q 667.03 774.25 692.99 755.49
  Q 696.72 752.80 705.97 745.22
  Q 720.04 733.69 724.56 728.71
  C 727.36 725.63 731.14 723.30 734.10 719.62
  Q 736.03 717.22 745.61 707.59
  Q 747.52 705.67 748.21 704.75
  C 750.30 701.99 752.58 700.05 754.37 697.34
  C 755.85 695.10 758.14 693.10 760.16 690.51
  Q 796.04 644.58 816.83 590.32
  Q 821.12 579.11 824.32 567.84
  Q 835.26 529.28 837.18 492.01
  Z"
/>
<path fill="#fec81e" d="
  M 837.18 492.01
  Q 835.26 529.28 824.32 567.84
  Q 821.12 579.11 816.83 590.32
  Q 796.04 644.58 760.16 690.51
  C 758.14 693.10 755.85 695.10 754.37 697.34
  C 752.58 700.05 750.30 701.99 748.21 704.75
  Q 747.52 705.67 745.61 707.59
  Q 736.03 717.22 734.10 719.62
  C 731.14 723.30 727.36 725.63 724.56 728.71
  Q 720.04 733.69 705.97 745.22
  Q 696.72 752.80 692.99 755.49
  Q 667.03 774.25 646.44 784.65
  Q 622.19 796.91 615.09 799.60
  C 608.44 802.12 597.11 806.74 589.38 808.97
  C 580.94 811.40 573.45 814.01 564.26 816.11
  Q 548.07 819.81 535.54 821.73
  Q 519.30 824.22 510.28 824.69
  Q 503.91 825.03 499.13 825.41
  Q 491.27 826.04 487.98 825.82
  Q 483.43 825.52 478.16 825.78
  C 471.13 826.12 461.80 824.83 455.77 824.66
  C 449.53 824.49 445.01 823.42 439.44 822.91
  Q 436.95 822.69 432.93 822.04
  Q 350.56 808.73 284.67 758.55
  Q 279.21 754.39 274.72 750.53
  C 270.23 746.68 266.13 743.65 261.86 739.36
  Q 253.15 730.61 246.47 723.93
  C 241.38 718.84 236.33 712.26 232.34 707.53
  Q 228.33 702.78 225.67 699.01
  C 223.03 695.25 219.37 690.78 217.04 687.42
  Q 187.04 644.32 171.88 593.88
  Q 169.40 585.66 165.70 570.55
  Q 161.74 554.36 159.68 534.70
  Q 159.65 534.40 159.40 532.18
  Q 157.89 518.69 157.09 495.49
  Q 156.87 488.94 157.19 484.66
  Q 158.60 465.67 159.10 456.38
  C 159.20 454.68 159.73 452.48 159.92 450.79
  Q 161.56 436.09 163.41 426.66
  Q 172.02 382.79 188.30 346.74
  C 201.33 317.89 217.54 291.30 237.53 266.54
  C 239.66 263.89 241.42 262.36 243.18 259.86
  Q 244.46 258.02 246.75 255.99
  A 10.20 9.76 -3.5 0 0 248.00 254.64
  C 249.25 253.00 250.07 251.37 251.76 249.89
  Q 252.84 248.95 263.84 237.70
  Q 269.78 231.62 276.27 225.92
  Q 293.15 211.10 310.66 198.91
  C 348.38 172.68 390.16 154.96 435.24 145.02
  Q 439.91 143.99 443.94 143.42
  Q 445.71 143.17 452.68 141.99
  Q 464.63 139.97 478.31 139.16
  Q 482.51 138.91 484.17 138.69
  C 487.19 138.30 489.17 137.99 491.95 138.00
  Q 507.21 138.09 521.76 138.07
  Q 526.82 138.06 530.10 138.59
  C 533.72 139.18 537.37 138.97 541.23 139.50
  Q 566.99 143.03 582.62 146.71
  Q 608.97 152.91 634.16 162.97
  Q 681.86 182.02 722.01 215.26
  Q 735.83 226.70 745.22 236.69
  Q 751.35 243.20 752.24 243.98
  C 754.63 246.08 756.26 248.75 758.28 250.74
  Q 760.25 252.67 762.17 255.26
  Q 762.61 255.85 765.92 259.81
  Q 773.06 268.33 784.92 285.50
  Q 787.70 289.52 792.20 297.21
  Q 797.55 306.36 799.05 309.18
  C 807.03 324.16 813.90 339.12 819.36 355.26
  Q 824.71 371.05 827.44 381.73
  Q 828.97 387.72 833.47 410.78
  Q 833.85 412.70 833.95 415.08
  C 834.04 417.10 834.88 418.69 834.86 420.74
  Q 834.82 424.11 835.60 426.17
  A 3.47 3.45 -53.0 0 1 835.81 427.70
  C 835.39 432.43 836.89 437.49 836.91 442.18
  Q 836.93 446.32 837.43 451.60
  C 838.32 460.82 838.02 468.87 838.02 479.25
  C 838.03 483.69 837.36 488.53 837.18 492.01
  Z
  M 739.83 711.82
  C 769.88 679.70 793.02 643.28 810.31 602.77
  Q 820.86 578.05 826.89 552.91
  Q 833.37 525.87 835.14 501.00
  Q 837.07 473.85 835.59 445.75
  C 833.03 397.28 820.11 349.46 796.88 308.09
  Q 754.61 232.83 683.10 188.92
  Q 641.34 163.28 592.34 150.51
  Q 544.39 138.01 494.39 139.54
  Q 434.79 141.35 379.35 163.52
  Q 325.23 185.15 279.23 225.21
  Q 256.90 244.66 237.37 269.03
  C 188.48 330.07 160.43 405.69 159.01 484.01
  Q 158.62 505.56 159.32 515.25
  C 160.43 530.69 162.56 549.61 166.20 566.11
  Q 170.91 587.48 176.90 604.89
  C 201.84 677.49 250.67 739.25 316.35 778.41
  Q 359.11 803.89 408.61 815.84
  Q 443.70 824.31 481.31 824.46
  Q 519.53 824.61 554.18 817.14
  C 625.06 801.85 689.93 765.14 739.83 711.82
  Z"
/>
<path fill="#070707" d="
  M 739.83 711.82
  C 689.93 765.14 625.06 801.85 554.18 817.14
  Q 519.53 824.61 481.31 824.46
  Q 443.70 824.31 408.61 815.84
  Q 359.11 803.89 316.35 778.41
  C 250.67 739.25 201.84 677.49 176.90 604.89
  Q 170.91 587.48 166.20 566.11
  C 162.56 549.61 160.43 530.69 159.32 515.25
  Q 158.62 505.56 159.01 484.01
  C 160.43 405.69 188.48 330.07 237.37 269.03
  Q 256.90 244.66 279.23 225.21
  Q 325.23 185.15 379.35 163.52
  Q 434.79 141.35 494.39 139.54
  Q 544.39 138.01 592.34 150.51
  Q 641.34 163.28 683.10 188.92
  Q 754.61 232.83 796.88 308.09
  C 820.11 349.46 833.03 397.28 835.59 445.75
  Q 837.07 473.85 835.14 501.00
  Q 833.37 525.87 826.89 552.91
  Q 820.86 578.05 810.31 602.77
  C 793.02 643.28 769.88 679.70 739.83 711.82
  Z
  M 526.94 162.09
  Q 459.60 157.84 397.06 181.02
  Q 368.64 191.56 343.28 206.78
  Q 315.89 223.22 290.41 246.22
  C 246.86 285.56 214.73 335.87 197.17 391.15
  Q 170.31 475.69 189.21 564.76
  Q 191.16 573.98 194.50 584.76
  Q 216.49 655.78 267.56 709.80
  Q 271.93 714.42 278.08 720.20
  Q 286.73 728.33 288.92 730.19
  Q 353.58 784.95 435.39 798.31
  Q 498.61 808.63 559.93 793.58
  Q 588.56 786.55 613.01 775.98
  Q 637.00 765.60 660.13 750.69
  Q 721.50 711.11 760.78 650.32
  C 789.45 605.95 807.40 556.62 812.57 504.28
  Q 814.87 480.96 814.76 468.00
  Q 814.65 454.95 812.50 431.30
  Q 811.22 417.27 808.05 402.24
  Q 800.11 364.62 782.82 329.17
  Q 764.21 291.02 736.11 260.88
  Q 716.13 239.43 693.87 222.61
  C 659.24 196.43 616.73 176.75 573.68 168.04
  Q 552.14 163.68 526.94 162.09
  Z"
/>
<path fill="#d92c22" d="
  M 526.94 162.09
  Q 552.14 163.68 573.68 168.04
  C 616.73 176.75 659.24 196.43 693.87 222.61
  Q 716.13 239.43 736.11 260.88
  Q 764.21 291.02 782.82 329.17
  Q 800.11 364.62 808.05 402.24
  Q 811.22 417.27 812.50 431.30
  Q 814.65 454.95 814.76 468.00
  Q 814.87 480.96 812.57 504.28
  C 807.40 556.62 789.45 605.95 760.78 650.32
  Q 721.50 711.11 660.13 750.69
  Q 637.00 765.60 613.01 775.98
  Q 588.56 786.55 559.93 793.58
  Q 498.61 808.63 435.39 798.31
  Q 353.58 784.95 288.92 730.19
  Q 286.73 728.33 278.08 720.20
  Q 271.93 714.42 267.56 709.80
  Q 216.49 655.78 194.50 584.76
  Q 191.16 573.98 189.21 564.76
  Q 170.31 475.69 197.17 391.15
  C 214.73 335.87 246.86 285.56 290.41 246.22
  Q 315.89 223.22 343.28 206.78
  Q 368.64 191.56 397.06 181.02
  Q 459.60 157.84 526.94 162.09
  Z
  M 472.69 192.19
  C 413.15 200.79 357.77 226.26 312.93 266.64
  Q 279.85 296.42 256.68 333.90
  C 226.38 382.88 209.86 439.63 210.37 497.48
  Q 210.60 522.53 213.92 544.29
  Q 219.59 581.50 234.32 616.45
  Q 255.05 665.67 292.53 704.20
  Q 329.09 741.81 376.27 762.68
  Q 423.09 783.40 475.01 785.78
  Q 500.09 786.93 522.74 784.21
  Q 582.39 777.04 635.35 748.60
  C 667.69 731.23 698.72 706.52 724.36 677.03
  Q 732.65 667.49 736.12 663.13
  Q 778.30 610.08 794.58 545.11
  C 799.79 524.32 802.94 502.36 803.02 480.08
  Q 803.10 460.19 802.94 456.24
  Q 800.56 397.55 774.52 344.94
  Q 753.51 302.49 720.20 270.58
  Q 666.10 218.74 592.81 198.95
  Q 577.26 194.75 553.17 191.55
  C 533.82 188.98 512.32 188.98 493.26 190.09
  Q 483.13 190.68 472.69 192.19
  Z"
/>
<path fill="#fec81e" d="
  M 472.69 192.19
  Q 483.13 190.68 493.26 190.09
  C 512.32 188.98 533.82 188.98 553.17 191.55
  Q 577.26 194.75 592.81 198.95
  Q 666.10 218.74 720.20 270.58
  Q 753.51 302.49 774.52 344.94
  Q 800.56 397.55 802.94 456.24
  Q 803.10 460.19 803.02 480.08
  C 802.94 502.36 799.79 524.32 794.58 545.11
  Q 778.30 610.08 736.12 663.13
  Q 732.65 667.49 724.36 677.03
  C 698.72 706.52 667.69 731.23 635.35 748.60
  Q 582.39 777.04 522.74 784.21
  Q 500.09 786.93 475.01 785.78
  Q 423.09 783.40 376.27 762.68
  Q 329.09 741.81 292.53 704.20
  Q 255.05 665.67 234.32 616.45
  Q 219.59 581.50 213.92 544.29
  Q 210.60 522.53 210.37 497.48
  C 209.86 439.63 226.38 382.88 256.68 333.90
  Q 279.85 296.42 312.93 266.64
  C 357.77 226.26 413.15 200.79 472.69 192.19
  Z
  M 306.55 662.71
  Q 322.03 680.00 336.66 691.83
  Q 358.97 709.89 386.04 722.47
  Q 428.49 742.20 473.52 744.86
  Q 510.50 747.05 545.70 738.84
  C 587.40 729.11 626.69 710.48 659.48 682.73
  Q 694.91 652.73 719.78 613.48
  C 742.30 577.93 755.34 540.69 758.65 499.49
  C 759.93 483.51 760.01 471.40 759.05 456.09
  C 755.35 397.07 730.88 341.31 688.77 299.79
  Q 663.44 274.82 634.70 258.82
  Q 576.44 226.41 507.50 227.00
  Q 449.49 227.50 398.84 251.16
  Q 358.61 269.96 328.89 297.69
  Q 284.97 338.68 262.14 397.58
  Q 248.87 431.83 245.53 473.60
  Q 244.93 481.11 244.95 489.92
  Q 244.98 503.46 245.11 506.25
  Q 247.73 563.42 273.61 614.44
  Q 282.25 631.48 293.05 645.71
  Q 302.62 658.32 306.55 662.71
  Z"
/>
<path fill="#d92c22" d="
  M 306.55 662.71
  Q 302.62 658.32 293.05 645.71
  Q 282.25 631.48 273.61 614.44
  Q 247.73 563.42 245.11 506.25
  Q 244.98 503.46 244.95 489.92
  Q 244.93 481.11 245.53 473.60
  Q 248.87 431.83 262.14 397.58
  Q 284.97 338.68 328.89 297.69
  Q 358.61 269.96 398.84 251.16
  Q 449.49 227.50 507.50 227.00
  Q 576.44 226.41 634.70 258.82
  Q 663.44 274.82 688.77 299.79
  C 730.88 341.31 755.35 397.07 759.05 456.09
  C 760.01 471.40 759.93 483.51 758.65 499.49
  C 755.34 540.69 742.30 577.93 719.78 613.48
  Q 694.91 652.73 659.48 682.73
  C 626.69 710.48 587.40 729.11 545.70 738.84
  Q 510.50 747.05 473.52 744.86
  Q 428.49 742.20 386.04 722.47
  Q 358.97 709.89 336.66 691.83
  Q 322.03 680.00 306.55 662.71
  Z
  M 487.82 289.42
  C 434.92 293.73 387.38 320.16 354.00 361.18
  Q 321.34 401.32 311.69 451.30
  Q 302.49 498.97 315.17 543.84
  C 333.21 607.64 382.94 657.19 446.95 672.94
  Q 479.34 680.90 510.84 677.27
  C 555.31 672.13 597.02 652.65 629.30 621.29
  Q 643.16 607.83 652.71 594.74
  Q 689.43 544.40 691.70 481.06
  Q 691.89 475.59 691.47 468.07
  Q 690.98 459.42 690.48 455.07
  Q 684.10 399.46 651.55 358.46
  Q 616.52 314.31 562.17 297.02
  C 538.23 289.40 512.05 287.44 487.82 289.42
  Z"
/>
<path fill="#f8f3e4" d="
  M 833.97 262.28
  A 0.09 0.09 0.0 0 1 834.01 262.15
  L 834.38 261.98
  A 0.04 0.04 0.0 0 1 834.43 261.99
  Q 843.46 275.08 851.05 287.96
  C 878.37 334.31 897.39 386.03 902.50 439.49
  Q 907.03 486.86 900.52 536.02
  Q 892.24 598.51 865.35 654.36
  Q 830.14 727.47 770.35 781.35
  Q 724.02 823.11 665.21 850.21
  Q 656.62 854.17 638.15 861.10
  Q 572.71 885.66 500.24 882.86
  Q 480.77 882.11 464.90 880.26
  A 0.28 0.27 -85.6 0 1 464.66 879.97
  L 464.67 879.94
  A 0.17 0.17 0.0 0 1 464.84 879.78
  Q 474.18 879.86 483.32 880.12
  C 491.20 880.35 499.24 879.70 508.05 879.26
  Q 514.23 878.95 517.95 878.61
  Q 617.19 869.44 702.85 813.85
  Q 802.80 748.99 852.53 644.56
  Q 866.89 614.39 875.43 585.38
  C 889.88 536.26 895.22 483.59 890.86 432.28
  C 885.84 373.11 866.69 312.73 833.97 262.28
  Z
  M 511.46 880.83
  L 494.77 881.02
  A 0.21 0.20 -90.0 0 0 494.57 881.23
  L 494.57 881.24
  A 0.21 0.20 90.0 0 0 494.77 881.45
  L 508.96 881.39
  C 512.02 881.50 515.18 881.93 518.02 881.95
  C 561.61 882.22 605.07 873.22 645.72 857.00
  Q 659.35 851.56 660.69 850.96
  Q 718.26 825.35 765.05 784.79
  Q 784.31 768.10 798.26 752.23
  Q 814.59 733.65 825.34 719.08
  Q 854.44 679.62 873.72 633.01
  Q 885.33 604.93 892.86 573.10
  Q 896.41 558.06 898.86 540.28
  Q 902.24 515.76 903.26 492.25
  Q 904.35 466.84 901.32 437.77
  Q 897.07 396.92 882.93 357.80
  Q 878.80 346.35 868.47 322.70
  Q 868.32 322.36 865.90 318.66
  A 0.75 0.47 31.7 0 1 865.85 318.56
  L 862.20 310.69
  A 1.06 1.02 0.5 0 0 861.69 310.19
  L 861.41 310.06
  A 0.29 0.29 0.0 0 0 861.21 310.45
  C 862.44 313.54 863.90 316.47 865.05 319.61
  C 869.64 332.12 872.21 338.68 875.61 349.60
  Q 894.00 408.60 893.32 470.81
  Q 892.98 502.17 888.46 531.50
  C 883.96 560.75 876.19 590.61 865.01 618.58
  Q 849.01 658.57 825.59 694.61
  Q 808.64 720.70 786.31 744.81
  C 752.31 781.51 712.71 811.60 669.44 834.57
  Q 606.37 868.05 534.49 877.91
  Q 526.61 878.99 518.19 879.62
  Q 516.35 879.76 514.80 880.08
  Q 513.03 880.45 511.46 880.83
  Z"
/>
<path fill="#fec81e" d="
  M 354.00 361.18
  C 387.38 320.16 434.92 293.73 487.82 289.42
  C 512.05 287.44 538.23 289.40 562.17 297.02
  Q 616.52 314.31 651.55 358.46
  Q 684.10 399.46 690.48 455.07
  Q 690.98 459.42 691.47 468.07
  Q 691.89 475.59 691.70 481.06
  Q 689.43 544.40 652.71 594.74
  Q 643.16 607.83 629.30 621.29
  C 597.02 652.65 555.31 672.13 510.84 677.27
  Q 479.34 680.90 446.95 672.94
  C 382.94 657.19 333.21 607.64 315.17 543.84
  Q 302.49 498.97 311.69 451.30
  Q 321.34 401.32 354.00 361.18
  Z
  M 601.2670 337.0079
  A 179.39 173.98 -54.4 0 0 355.3767 381.5922
  A 179.39 173.98 -54.4 0 0 392.4130 628.7321
  A 179.39 173.98 -54.4 0 0 638.3033 584.1478
  A 179.39 173.98 -54.4 0 0 601.2670 337.0079
  Z"
/>
<path fill="#070707" d="
  M 601.2670 337.0079
  A 179.39 173.98 -54.4 0 1 638.3033 584.1478
  A 179.39 173.98 -54.4 0 1 392.4130 628.7321
  A 179.39 173.98 -54.4 0 1 355.3767 381.5922
  A 179.39 173.98 -54.4 0 1 601.2670 337.0079
  Z
  M 547.16 408.41
  A 0.41 0.41 0.0 0 0 547.80 408.08
  L 548.96 343.51
  A 2.08 2.07 10.7 0 0 547.59 341.52
  Q 514.79 329.71 479.86 335.09
  A 0.83 0.83 0.0 0 0 479.16 335.91
  L 479.16 394.50
  A 0.95 0.95 0.0 0 0 480.28 395.44
  Q 496.56 392.50 513.16 395.13
  Q 531.99 398.12 547.16 408.41
  Z
  M 371.23 409.82
  L 400.28 410.34
  A 0.93 0.93 0.0 0 0 401.23 409.42
  L 401.90 372.60
  A 0.36 0.36 0.0 0 0 401.30 372.33
  Q 383.69 388.70 370.91 409.23
  A 0.39 0.38 -73.6 0 0 371.23 409.82
  Z
  M 552.40 411.99
  C 573.95 432.10 585.83 456.48 585.03 486.30
  A 0.74 0.74 0.0 0 0 585.77 487.06
  L 624.06 487.06
  A 0.34 0.34 0.0 0 0 624.40 486.72
  L 624.40 412.46
  A 0.76 0.76 0.0 0 0 623.64 411.70
  L 552.52 411.70
  A 0.17 0.17 0.0 0 0 552.40 411.99
  Z
  M 441.74 413.01
  L 403.39 412.32
  A 1.34 1.34 0.0 0 0 402.02 413.64
  L 400.72 485.80
  A 1.21 1.21 0.0 0 0 401.90 487.03
  L 405.30 487.09
  A 1.23 1.22 -86.4 0 0 406.54 485.99
  Q 407.22 479.66 407.24 479.50
  Q 410.34 451.95 427.20 429.65
  C 431.64 423.78 436.42 417.97 441.89 413.43
  A 0.24 0.24 0.0 0 0 441.74 413.01
  Z
  M 523.32 427.48
  Q 517.41 426.37 510.43 425.36
  C 486.33 421.89 464.98 427.44 449.86 447.39
  Q 434.33 467.87 437.22 493.51
  Q 439.54 514.12 453.36 528.91
  Q 457.81 533.66 462.23 537.54
  A 0.42 0.42 0.0 0 0 462.87 537.03
  Q 456.85 525.53 455.58 512.76
  C 454.09 497.70 456.47 482.27 463.77 468.84
  C 473.22 451.47 490.88 435.44 510.66 430.72
  Q 517.03 429.20 523.31 428.19
  A 0.36 0.36 0.0 0 0 523.32 427.48
  Z
  M 552.58 504.46
  Q 556.50 493.57 556.58 484.80
  C 556.64 477.51 555.23 467.51 551.02 461.44
  Q 543.25 450.23 528.03 453.19
  C 507.37 457.21 490.40 472.62 483.56 492.82
  Q 479.30 505.39 481.93 517.55
  C 484.01 527.20 487.59 536.33 495.55 541.99
  Q 499.83 545.03 506.06 543.58
  C 523.72 539.48 540.52 528.50 548.77 512.32
  C 550.05 509.81 551.65 507.04 552.58 504.46
  Z
  M 643.67 490.40
  L 625.46 490.40
  A 0.42 0.42 0.0 0 0 625.04 490.82
  L 625.04 551.63
  A 0.30 0.30 0.0 0 0 625.61 551.77
  Q 635.16 533.58 640.14 513.65
  C 642.11 505.77 643.93 498.22 644.07 490.80
  A 0.40 0.39 0.7 0 0 643.67 490.40
  Z
  M 348.09 490.84
  Q 347.88 492.73 348.07 494.76
  Q 350.83 524.64 363.25 552.24
  Q 366.85 560.25 370.77 566.17
  A 2.30 2.30 0.0 0 0 372.65 567.20
  L 397.64 567.65
  A 0.28 0.28 0.0 0 0 397.93 567.38
  L 399.29 491.80
  A 0.59 0.59 0.0 0 0 398.71 491.20
  L 348.29 490.66
  A 0.20 0.20 0.0 0 0 348.09 490.84
  Z
  M 531.91 567.69
  Q 539.52 566.72 544.28 567.41
  A 0.62 0.61 -86.0 0 0 544.98 566.80
  L 544.98 561.11
  A 0.43 0.43 0.0 0 0 544.30 560.76
  Q 540.45 563.43 535.85 565.34
  Q 533.43 566.34 531.77 567.26
  A 0.23 0.23 0.0 0 0 531.91 567.69
  Z
  M 611.52 570.40
  L 546.91 570.40
  A 0.50 0.50 0.0 0 0 546.41 570.89
  L 545.51 620.61
  A 0.63 0.63 0.0 0 0 546.38 621.20
  Q 579.01 607.65 602.93 582.19
  Q 606.32 578.59 611.91 571.19
  A 0.49 0.49 0.0 0 0 611.52 570.40
  Z
  M 469.09 629.59
  A 0.68 0.67 -84.8 0 0 469.87 628.93
  L 470.90 571.76
  A 0.95 0.94 0.6 0 0 469.95 570.80
  L 399.93 570.80
  A 0.52 0.52 0.0 0 0 399.41 571.30
  Q 398.75 585.96 399.09 596.20
  C 399.20 599.70 407.48 605.21 409.92 606.82
  Q 437.30 624.88 469.09 629.59
  Z"
/>
<path fill="#93908b" d="
  M 508.96 881.39
  Q 511.30 881.51 511.46 880.83
  Q 513.03 880.45 514.80 880.08
  Q 516.35 879.76 518.19 879.62
  Q 526.61 878.99 534.49 877.91
  Q 606.37 868.05 669.44 834.57
  C 712.71 811.60 752.31 781.51 786.31 744.81
  Q 808.64 720.70 825.59 694.61
  Q 849.01 658.57 865.01 618.58
  C 876.19 590.61 883.96 560.75 888.46 531.50
  Q 892.98 502.17 893.32 470.81
  Q 894.00 408.60 875.61 349.60
  C 872.21 338.68 869.64 332.12 865.05 319.61
  C 863.90 316.47 862.44 313.54 861.21 310.45
  A 0.29 0.29 0.0 0 1 861.41 310.06
  L 861.69 310.19
  A 1.06 1.02 0.5 0 1 862.20 310.69
  L 865.85 318.56
  A 0.75 0.47 31.7 0 0 865.90 318.66
  Q 868.32 322.36 868.47 322.70
  Q 878.80 346.35 882.93 357.80
  Q 897.07 396.92 901.32 437.77
  Q 904.35 466.84 903.26 492.25
  Q 902.24 515.76 898.86 540.28
  Q 896.41 558.06 892.86 573.10
  Q 885.33 604.93 873.72 633.01
  Q 854.44 679.62 825.34 719.08
  Q 814.59 733.65 798.26 752.23
  Q 784.31 768.10 765.05 784.79
  Q 718.26 825.35 660.69 850.96
  Q 659.35 851.56 645.72 857.00
  C 605.07 873.22 561.61 882.22 518.02 881.95
  C 515.18 881.93 512.02 881.50 508.96 881.39
  Z"
/>
<path fill="#f8f3e4" d="
  M 547.16 408.41
  Q 531.99 398.12 513.16 395.13
  Q 496.56 392.50 480.28 395.44
  A 0.95 0.95 0.0 0 1 479.16 394.50
  L 479.16 335.91
  A 0.83 0.83 0.0 0 1 479.86 335.09
  Q 514.79 329.71 547.59 341.52
  A 2.08 2.07 10.7 0 1 548.96 343.51
  L 547.80 408.08
  A 0.41 0.41 0.0 0 1 547.16 408.41
  Z"
/>
<path fill="#f8f3e4" d="
  M 371.23 409.82
  A 0.39 0.38 -73.6 0 1 370.91 409.23
  Q 383.69 388.70 401.30 372.33
  A 0.36 0.36 0.0 0 1 401.90 372.60
  L 401.23 409.42
  A 0.93 0.93 0.0 0 1 400.28 410.34
  L 371.23 409.82
  Z"
/>
<path fill="#f8f3e4" d="
  M 552.40 411.99
  A 0.17 0.17 0.0 0 1 552.52 411.70
  L 623.64 411.70
  A 0.76 0.76 0.0 0 1 624.40 412.46
  L 624.40 486.72
  A 0.34 0.34 0.0 0 1 624.06 487.06
  L 585.77 487.06
  A 0.74 0.74 0.0 0 1 585.03 486.30
  C 585.83 456.48 573.95 432.10 552.40 411.99
  Z"
/>
<path fill="#f8f3e4" d="
  M 441.74 413.01
  A 0.24 0.24 0.0 0 1 441.89 413.43
  C 436.42 417.97 431.64 423.78 427.20 429.65
  Q 410.34 451.95 407.24 479.50
  Q 407.22 479.66 406.54 485.99
  A 1.23 1.22 -86.4 0 1 405.30 487.09
  L 401.90 487.03
  A 1.21 1.21 0.0 0 1 400.72 485.80
  L 402.02 413.64
  A 1.34 1.34 0.0 0 1 403.39 412.32
  L 441.74 413.01
  Z"
/>
<path fill="#d92c22" d="
  M 523.32 427.48
  A 0.36 0.36 0.0 0 1 523.31 428.19
  Q 517.03 429.20 510.66 430.72
  C 490.88 435.44 473.22 451.47 463.77 468.84
  C 456.47 482.27 454.09 497.70 455.58 512.76
  Q 456.85 525.53 462.87 537.03
  A 0.42 0.42 0.0 0 1 462.23 537.54
  Q 457.81 533.66 453.36 528.91
  Q 439.54 514.12 437.22 493.51
  Q 434.33 467.87 449.86 447.39
  C 464.98 427.44 486.33 421.89 510.43 425.36
  Q 517.41 426.37 523.32 427.48
  Z"
/>
<path fill="#f8f3e4" d="
  M 643.67 490.40
  A 0.40 0.39 0.7 0 1 644.07 490.80
  C 643.93 498.22 642.11 505.77 640.14 513.65
  Q 635.16 533.58 625.61 551.77
  A 0.30 0.30 0.0 0 1 625.04 551.63
  L 625.04 490.82
  A 0.42 0.42 0.0 0 1 625.46 490.40
  L 643.67 490.40
  Z"
/>
<path fill="#f8f3e4" d="
  M 348.09 490.84
  A 0.20 0.20 0.0 0 1 348.29 490.66
  L 398.71 491.20
  A 0.59 0.59 0.0 0 1 399.29 491.80
  L 397.93 567.38
  A 0.28 0.28 0.0 0 1 397.64 567.65
  L 372.65 567.20
  A 2.30 2.30 0.0 0 1 370.77 566.17
  Q 366.85 560.25 363.25 552.24
  Q 350.83 524.64 348.07 494.76
  Q 347.88 492.73 348.09 490.84
  Z"
/>
<path fill="#f8f3e4" d="
  M 531.91 567.69
  A 0.23 0.23 0.0 0 1 531.77 567.26
  Q 533.43 566.34 535.85 565.34
  Q 540.45 563.43 544.30 560.76
  A 0.43 0.43 0.0 0 1 544.98 561.11
  L 544.98 566.80
  A 0.62 0.61 -86.0 0 1 544.28 567.41
  Q 539.52 566.72 531.91 567.69
  Z"
/>
<path fill="#f8f3e4" d="
  M 611.52 570.40
  A 0.49 0.49 0.0 0 1 611.91 571.19
  Q 606.32 578.59 602.93 582.19
  Q 579.01 607.65 546.38 621.20
  A 0.63 0.63 0.0 0 1 545.51 620.61
  L 546.41 570.89
  A 0.50 0.50 0.0 0 1 546.91 570.40
  L 611.52 570.40
  Z"
/>
<path fill="#f8f3e4" d="
  M 469.09 629.59
  Q 437.30 624.88 409.92 606.82
  C 407.48 605.21 399.20 599.70 399.09 596.20
  Q 398.75 585.96 399.41 571.30
  A 0.52 0.52 0.0 0 1 399.93 570.80
  L 469.95 570.80
  A 0.95 0.94 0.6 0 1 470.90 571.76
  L 469.87 628.93
  A 0.68 0.67 -84.8 0 1 469.09 629.59
  Z"
/>
<path fill="#070707" d="
  M 511.46 880.83
  Q 511.30 881.51 508.96 881.39
  L 494.77 881.45
  A 0.21 0.20 -90.0 0 1 494.57 881.24
  L 494.57 881.23
  A 0.21 0.20 -90.0 0 1 494.77 881.02
  L 511.46 880.83
  Z"
/>
</svg>
