<?xml version="1.0" encoding="UTF-8" standalone="no"?>
<!DOCTYPE svg PUBLIC "-//W3C//DTD SVG 1.1//EN" "http://www.w3.org/Graphics/SVG/1.1/DTD/svg11.dtd">
<svg xmlns="http://www.w3.org/2000/svg" version="1.1" viewBox="0.00 0.00 1024.00 1024.00">
<g stroke-width="2.00" fill="none" stroke-linecap="butt">
<path stroke="#7e5079" vector-effect="non-scaling-stroke" d="
  M 249.81 205.31
  C 206.40 249.09 173.42 300.64 153.95 358.46
  C 138.85 403.29 130.46 451.09 130.46 498.73
  Q 130.45 557.18 146.23 612.56
  C 164.60 677.03 200.61 736.42 251.71 780.10
  Q 278.55 803.04 311.36 819.72
  Q 365.95 847.47 428.63 852.34
  Q 437.25 853.01 446.92 853.07
  Q 459.60 853.15 465.22 852.76
  Q 553.64 846.76 627.51 798.48
  C 700.50 750.78 755.02 678.37 787.31 597.54
  Q 806.91 548.48 811.87 495.74
  Q 812.77 486.17 813.70 473.74
  Q 814.00 469.63 814.00 466.74
  C 814.01 460.91 814.49 455.11 814.45 449.26
  Q 814.04 386.12 796.55 328.95
  C 781.98 281.34 756.88 236.65 722.72 199.90
  C 683.20 157.39 633.80 125.07 578.43 109.28
  Q 527.71 94.82 475.13 98.50
  Q 439.76 100.98 407.25 110.79
  Q 344.41 129.76 291.40 168.94
  Q 270.71 184.24 249.81 205.31"
/>
<path stroke="#571d3d" vector-effect="non-scaling-stroke" d="
  M 712.29 160.39
  L 707.44 157.62"
/>
<path stroke="#7c395d" vector-effect="non-scaling-stroke" d="
  M 707.44 157.62
  L 692.82 148.15
  A 0.04 0.04 0.0 0 0 692.77 148.16
  L 692.62 148.37
  A 0.27 0.26 -54.7 0 0 692.68 148.73
  C 738.03 182.86 774.82 227.65 798.53 278.96
  Q 811.35 306.70 819.57 336.89
  Q 829.69 374.05 832.75 410.23
  Q 834.71 433.39 834.72 447.75
  Q 834.75 478.62 830.86 511.45
  Q 825.01 560.88 803.35 613.31
  C 791.66 641.63 776.68 668.81 759.87 694.35
  Q 725.35 746.78 676.33 786.08
  Q 649.69 807.43 618.82 825.59
  Q 583.78 846.20 546.41 858.25
  C 539.52 860.47 532.54 861.74 525.54 863.66
  A 0.28 0.28 0.0 0 0 525.34 863.99
  L 525.34 864.00
  A 0.25 0.24 78.9 0 0 525.62 864.19
  Q 540.39 861.73 555.84 859.29
  Q 568.09 857.36 590.98 851.18
  Q 634.69 839.39 676.72 815.94
  Q 718.64 792.54 753.52 757.28
  Q 776.80 733.74 794.04 709.28
  Q 817.86 675.50 835.60 635.51
  C 855.05 591.67 866.78 543.16 868.82 496.99
  C 869.21 488.06 870.11 479.08 870.03 470.66
  Q 869.87 456.15 868.51 436.99
  C 866.76 412.46 861.99 386.96 855.49 363.30
  C 835.57 290.90 794.35 225.65 736.15 178.10
  Q 724.00 168.17 712.29 160.39"
/>
<path stroke="#d3569a" vector-effect="non-scaling-stroke" d="
  M 707.44 157.62
  Q 707.64 158.60 708.58 159.23
  A 1.39 1.36 -82.8 0 1 709.12 159.94
  Q 709.43 160.94 710.51 161.75
  C 713.23 163.79 716.98 166.81 719.91 169.72
  Q 729.62 179.36 734.58 184.40
  Q 773.03 223.52 797.33 273.89
  C 814.60 309.69 825.96 349.26 831.46 388.75
  Q 832.04 392.94 834.07 411.48
  C 834.76 417.84 834.66 423.31 835.24 428.60
  Q 835.88 434.45 835.89 441.43
  Q 835.90 456.50 835.86 463.56
  C 835.83 467.83 834.93 473.03 835.15 477.31
  Q 835.31 480.47 834.52 487.17
  Q 834.04 491.33 833.64 497.02
  Q 832.48 513.73 826.41 544.46
  Q 821.69 568.38 810.81 597.40
  Q 801.39 622.53 793.09 638.90
  C 781.87 661.02 770.67 680.46 756.59 701.18
  Q 746.52 716.00 735.52 729.15
  Q 713.68 755.26 691.45 774.72
  Q 658.51 803.55 617.94 827.22
  Q 582.78 847.74 548.24 858.82
  A 0.26 0.25 74.6 0 0 548.07 859.13
  L 548.07 859.14
  A 0.21 0.21 0.0 0 0 548.31 859.30
  Q 556.80 858.06 560.75 857.28
  Q 627.28 844.04 684.50 810.22
  Q 704.97 798.12 728.60 779.05
  C 730.39 777.60 731.95 775.74 733.73 774.38
  Q 736.13 772.56 737.73 771.03
  Q 757.50 752.15 765.22 743.47
  Q 777.41 729.79 782.02 723.77
  Q 802.96 696.48 816.86 670.87
  Q 830.87 645.06 840.34 621.60
  Q 855.21 584.73 862.52 542.55
  Q 865.24 526.83 865.99 518.81
  Q 867.21 505.74 868.15 489.66
  Q 869.08 473.64 868.73 462.33
  Q 868.15 444.14 867.34 435.00
  Q 863.57 392.75 851.00 351.80
  C 836.30 303.89 811.15 258.44 778.51 220.76
  C 770.08 211.02 758.81 199.58 751.06 192.45
  Q 732.94 175.77 712.86 162.13
  Q 710.73 160.69 712.29 160.39"
/>
<path stroke="#fa89d6" vector-effect="non-scaling-stroke" d="
  M 328.41 826.49
  Q 348.39 835.13 366.26 840.06
  Q 388.20 846.11 413.61 849.48
  C 417.22 849.96 420.16 849.83 423.17 850.44
  Q 425.01 850.81 430.35 851.01
  Q 434.68 851.17 444.59 851.55
  Q 453.98 851.92 470.87 850.91
  Q 473.90 850.73 478.10 850.26
  C 484.21 849.58 491.04 848.84 496.04 848.02
  Q 580.05 834.28 648.09 782.58
  Q 661.22 772.60 668.12 766.35
  Q 673.64 761.36 674.13 761.03
  Q 675.64 760.00 680.06 755.66
  Q 689.07 746.79 693.81 742.09
  C 698.13 737.80 702.02 732.40 706.78 727.98
  A 4.88 4.74 -7.3 0 0 707.64 726.90
  Q 709.17 724.28 712.15 721.66
  A 4.63 4.57 85.8 0 0 713.05 720.60
  Q 714.38 718.44 717.61 714.87
  Q 723.26 708.59 732.68 695.20
  Q 743.58 679.69 752.43 665.19
  Q 758.76 654.81 766.44 640.20
  Q 788.86 597.55 800.76 552.85
  C 802.42 546.64 803.80 539.13 805.35 531.80
  Q 806.43 526.72 806.64 525.01
  C 807.38 518.98 808.49 514.21 809.23 507.92
  Q 810.66 495.66 810.99 491.75
  Q 811.14 489.90 812.54 471.95
  C 813.46 460.18 813.27 447.72 813.08 435.82
  Q 813.01 431.80 812.53 427.77
  Q 812.20 424.96 811.98 419.73
  Q 811.66 411.72 810.61 402.94
  Q 807.99 380.92 803.14 358.53
  C 792.19 307.93 770.14 260.07 737.76 219.25
  Q 729.63 208.98 724.68 203.91
  Q 722.50 201.68 719.27 197.98
  C 713.23 191.06 706.91 185.61 697.35 176.74
  C 695.16 174.71 693.12 173.46 691.23 171.55
  Q 690.66 170.97 686.62 167.64
  Q 682.53 164.27 675.34 158.93
  Q 632.24 126.89 581.25 111.35
  Q 572.29 108.62 562.78 106.53
  Q 549.38 103.58 544.01 102.80
  Q 529.67 100.71 519.99 100.12
  Q 512.08 99.64 509.51 99.43
  Q 495.47 98.33 478.71 99.56
  C 473.57 99.94 468.16 100.14 462.43 100.83
  Q 444.19 103.03 425.64 107.15
  Q 409.02 110.85 389.86 117.68
  Q 326.04 140.42 274.58 183.65
  Q 265.39 191.37 256.94 199.86
  Q 243.64 213.22 240.17 216.92
  Q 237.94 219.30 230.31 228.06
  Q 181.47 284.18 156.36 355.11
  Q 150.26 372.33 143.84 397.74
  Q 141.40 407.38 140.83 411.71
  Q 140.76 412.23 138.22 425.79
  Q 134.18 447.30 132.42 473.43
  C 131.62 485.40 131.80 498.29 131.74 509.75
  Q 131.71 514.31 132.66 526.61
  C 132.88 529.45 132.56 532.01 133.08 534.21
  Q 133.55 536.23 133.68 539.86
  C 133.89 545.94 135.34 553.27 136.14 560.06
  Q 136.24 560.96 137.55 568.53
  Q 140.04 582.88 142.49 593.79
  Q 146.35 611.00 155.24 636.53
  Q 164.30 662.56 178.96 688.64
  Q 187.01 702.96 190.82 708.50
  C 197.41 718.09 204.26 728.12 211.94 737.62
  Q 219.16 746.54 222.32 749.94
  Q 234.11 762.64 249.89 777.06
  Q 263.80 789.78 285.23 803.53
  Q 305.67 816.65 328.41 826.49"
/>
<path stroke="#fa89d6" vector-effect="non-scaling-stroke" d="
  M 324.25 178.21
  Q 306.57 189.55 288.37 205.37
  C 276.83 215.40 262.83 229.30 251.24 242.29
  Q 234.26 261.33 218.37 286.36
  Q 192.49 327.13 178.42 370.30
  Q 165.84 408.89 160.92 448.08
  C 152.00 519.12 162.73 589.52 192.89 654.62
  Q 215.50 703.40 253.92 741.34
  C 293.07 779.99 342.25 805.51 396.31 816.43
  Q 424.03 822.03 447.50 822.01
  Q 493.74 821.99 539.62 806.65
  Q 575.69 794.60 607.83 774.32
  C 627.43 761.96 647.67 746.68 664.46 730.54
  Q 678.15 717.37 691.30 702.25
  Q 740.92 645.15 766.06 571.31
  Q 772.93 551.15 777.31 528.44
  C 789.65 464.47 787.54 397.76 767.46 335.76
  Q 746.46 270.90 700.48 221.52
  Q 662.74 180.98 612.25 156.21
  Q 565.20 133.13 511.86 129.49
  Q 440.05 124.58 374.61 151.92
  Q 347.69 163.17 324.25 178.21"
/>
<path stroke="#7e5079" vector-effect="non-scaling-stroke" d="
  M 324.72 179.34
  Q 307.10 190.64 288.97 206.41
  C 277.48 216.41 263.53 230.26 251.99 243.21
  Q 235.07 262.18 219.25 287.12
  Q 193.47 327.75 179.46 370.77
  Q 166.94 409.23 162.05 448.28
  C 153.18 519.06 163.89 589.20 193.96 654.06
  Q 216.50 702.66 254.79 740.45
  C 293.81 778.95 342.82 804.37 396.69 815.23
  Q 424.31 820.80 447.69 820.78
  Q 493.77 820.75 539.48 805.45
  Q 575.41 793.43 607.43 773.22
  C 626.96 760.90 647.12 745.67 663.85 729.58
  Q 677.48 716.45 690.58 701.39
  Q 740.01 644.48 765.04 570.90
  Q 771.88 550.81 776.23 528.18
  C 788.51 464.44 786.39 397.97 766.37 336.20
  Q 745.43 271.58 699.60 222.39
  Q 661.98 182.01 611.67 157.34
  Q 564.78 134.35 511.64 130.74
  Q 440.08 125.87 374.89 153.13
  Q 348.07 164.34 324.72 179.34"
/>
<path stroke="#7e5079" vector-effect="non-scaling-stroke" d="
  M 368.70 786.96
  Q 399.45 797.71 432.00 800.17
  Q 445.86 801.22 452.01 800.94
  Q 459.77 800.60 466.52 800.24
  Q 475.78 799.74 481.00 799.01
  C 535.19 791.40 586.23 768.25 628.82 734.06
  Q 657.07 711.38 682.00 681.24
  Q 701.33 657.88 717.42 629.17
  Q 738.81 590.98 750.17 550.71
  C 768.79 484.70 770.00 413.44 749.89 347.81
  Q 742.61 324.03 732.57 303.91
  C 705.91 250.51 663.40 205.02 609.78 177.96"
/>
<path stroke="#7c395d" vector-effect="non-scaling-stroke" d="
  M 609.78 177.96
  Q 599.78 172.22 593.55 169.67
  Q 554.76 153.78 511.99 151.12
  Q 465.97 148.25 422.55 159.58
  Q 370.90 173.07 327.14 203.18
  C 295.97 224.62 270.56 250.14 247.96 280.71
  Q 232.45 301.69 220.51 324.98
  Q 210.67 344.18 204.94 358.94
  C 182.92 415.69 174.72 478.73 181.33 539.24
  Q 187.92 599.53 217.68 655.82
  Q 230.07 679.25 249.45 703.54
  C 280.62 742.59 321.28 771.84 368.70 786.96"
/>
<path stroke="#fa89d6" vector-effect="non-scaling-stroke" d="
  M 609.78 177.96
  Q 607.44 178.46 604.95 177.02"
/>
<path stroke="#d3569a" vector-effect="non-scaling-stroke" d="
  M 604.95 177.02
  Q 605.48 176.97 605.48 176.93
  A 0.53 0.52 14.4 0 0 605.15 176.38
  C 598.06 173.51 590.72 169.67 584.28 167.31
  C 556.10 157.01 526.36 151.87 496.51 151.72
  Q 472.28 151.60 449.23 155.25
  C 394.82 163.88 343.43 188.21 301.53 224.06
  Q 277.23 244.84 256.96 270.72
  Q 243.00 288.55 233.46 304.19
  Q 218.82 328.18 206.95 357.21
  Q 199.67 375.01 194.38 394.39
  Q 188.21 417.02 185.17 437.04
  Q 181.89 458.73 181.19 472.82
  C 180.85 479.58 180.16 486.83 180.13 493.41
  Q 180.00 516.07 182.17 536.85
  Q 188.95 601.69 221.59 660.66
  Q 231.64 678.82 245.37 696.64
  Q 261.13 717.08 277.17 732.09
  Q 280.22 734.94 282.76 737.04
  C 287.44 740.91 292.32 745.24 297.23 748.91
  Q 316.78 763.50 338.92 774.12
  Q 342.92 776.03 347.51 777.76
  Q 352.53 779.65 356.16 781.42
  A 0.21 0.21 0.0 0 0 356.44 781.32
  L 356.56 781.10
  A 0.08 0.08 0.0 0 0 356.53 781.00
  L 354.51 779.93"
/>
<path stroke="#fa89d6" vector-effect="non-scaling-stroke" d="
  M 354.51 779.93
  C 352.41 776.56 349.12 775.47 346.21 773.64
  Q 326.93 761.49 320.25 756.50
  Q 311.17 749.71 297.02 736.33
  C 292.61 732.16 286.36 725.02 283.33 721.67
  Q 274.22 711.64 264.52 697.48
  Q 255.29 684.00 249.70 674.33
  Q 240.86 659.04 233.67 640.63
  Q 227.06 623.68 224.83 615.70
  Q 222.43 607.05 220.09 597.76
  Q 214.87 576.99 212.18 551.98
  Q 210.13 532.94 210.07 527.49
  C 209.91 512.50 209.62 495.15 210.95 478.87
  Q 212.93 454.69 218.05 429.43
  Q 220.08 419.45 222.68 410.28
  Q 227.12 394.64 228.16 391.37
  Q 236.87 363.97 249.98 337.92
  Q 250.23 337.43 250.03 337.05
  Q 249.83 336.64 249.40 336.36"
/>
<path stroke="#d3569a" vector-effect="non-scaling-stroke" d="
  M 249.40 336.36
  Q 254.69 325.96 262.34 313.83
  C 289.18 271.26 325.89 234.75 367.20 208.24"
/>
<path stroke="#fa89d6" vector-effect="non-scaling-stroke" d="
  M 367.20 208.24
  Q 367.57 209.33 368.20 208.93
  Q 418.36 177.42 475.17 167.39
  C 479.63 166.60 484.90 166.04 488.68 165.55
  Q 494.67 164.79 498.88 164.87
  Q 502.51 164.94 505.95 164.30
  Q 507.08 164.08 513.05 163.87
  Q 521.79 163.56 523.50 163.63
  Q 551.13 164.77 571.00 169.04
  Q 574.19 169.72 593.37 174.66
  C 596.67 175.51 599.90 176.77 603.27 177.84
  A 2.07 2.02 74.8 0 1 604.05 178.30
  Q 605.82 179.93 607.80 179.90
  A 0.35 0.33 74.1 0 1 608.09 180.07
  Q 608.10 180.09 608.23 180.26
  A 1.09 1.06 79.0 0 0 608.80 180.66
  Q 614.35 182.22 617.06 183.44
  Q 622.65 185.96 630.41 190.87
  Q 650.88 203.82 669.74 221.24
  Q 694.67 244.28 715.47 276.31
  C 734.19 305.12 746.95 336.57 754.59 369.88
  Q 761.37 399.42 763.01 430.52
  Q 764.79 464.03 759.18 502.23
  Q 757.10 516.44 756.17 519.90
  C 754.96 524.37 754.28 530.38 753.22 534.52
  Q 745.32 565.47 736.48 586.99
  Q 724.00 617.38 704.87 647.87
  Q 698.80 657.55 688.75 671.00
  Q 688.28 671.64 684.19 676.57
  C 682.74 678.32 681.79 680.07 679.87 681.72
  A 4.09 3.84 88.2 0 0 679.14 682.55
  Q 676.72 686.27 673.18 689.46
  A 3.86 3.75 -6.1 0 0 672.44 690.35
  C 671.79 691.44 670.43 693.30 669.23 694.52
  Q 658.82 705.10 646.83 716.92
  C 643.70 720.01 640.61 722.20 637.98 724.71
  Q 635.72 726.86 631.32 730.55
  Q 605.43 752.22 572.55 768.81
  Q 534.45 788.02 493.11 795.75
  C 487.28 796.84 479.16 797.67 474.68 798.22
  Q 468.32 798.99 460.78 799.02
  Q 453.87 799.04 434.44 799.03
  A 8.79 8.72 50.9 0 1 432.58 798.83
  Q 429.63 798.21 426.86 798.08
  Q 423.67 797.94 420.18 797.51
  Q 394.65 794.41 370.44 786.38
  A 2.42 2.16 -33.0 0 0 369.73 786.27
  Q 368.47 786.26 368.70 786.96"
/>
<path stroke="#d56db6" vector-effect="non-scaling-stroke" d="
  M 604.95 177.02
  Q 599.74 175.21 594.42 173.65
  Q 520.99 152.16 447.21 172.50
  Q 405.33 184.05 367.20 208.24"
/>
<path stroke="#d56db6" vector-effect="non-scaling-stroke" d="
  M 249.40 336.36
  C 217.48 398.71 204.25 469.76 209.45 539.31
  Q 211.88 571.79 220.22 604.26
  C 233.33 655.27 260.30 701.95 298.05 738.71
  Q 313.19 753.45 331.09 765.39
  Q 343.47 773.64 354.51 779.93"
/>
<path stroke="#fa89d6" vector-effect="non-scaling-stroke" d="
  M 542.10 620.08
  C 596.13 584.38 634.36 523.19 632.19 457.34
  Q 630.49 405.87 599.94 363.92
  C 582.63 340.15 558.89 320.69 532.08 310.12
  Q 497.09 296.32 460.95 302.57
  C 432.68 307.45 404.69 321.98 383.85 341.12
  Q 373.55 350.58 368.18 356.69
  Q 332.67 397.12 323.22 447.85
  C 314.33 495.57 322.86 548.52 352.39 587.81
  C 372.80 614.97 402.92 634.32 436.78 640.46
  C 473.39 647.11 511.13 640.56 542.10 620.08"
/>
<path stroke="#7e5079" vector-effect="non-scaling-stroke" d="
  M 541.62 619.02
  C 595.25 583.57 633.19 522.82 631.02 457.45
  Q 629.32 406.35 598.99 364.71
  C 581.80 341.12 558.23 321.81 531.61 311.32
  Q 496.88 297.63 461.00 303.84
  C 432.94 308.69 405.15 323.12 384.47 342.12
  Q 374.25 351.51 368.92 357.58
  Q 333.67 397.72 324.30 448.08
  C 315.49 495.46 323.96 548.02 353.29 587.02
  C 373.55 613.98 403.46 633.18 437.07 639.27
  C 473.41 645.86 510.88 639.35 541.62 619.02"
/>
<path stroke="#7e5079" vector-effect="non-scaling-stroke" d="
  M 461.99 324.09
  C 432.55 328.74 407.25 343.70 386.51 365.46
  Q 356.18 397.29 345.38 438.49
  Q 337.55 468.35 340.60 498.74
  Q 343.63 528.93 355.11 553.46
  Q 367.02 578.92 390.83 597.59
  Q 415.80 617.17 446.69 621.05
  Q 477.96 624.98 507.09 612.86
  Q 526.51 604.79 541.00 592.25
  C 546.00 587.92 551.09 583.39 555.56 578.46
  Q 586.68 544.21 597.63 498.44
  Q 601.14 483.75 602.27 472.00
  C 606.82 424.67 589.51 377.62 552.06 347.67
  C 526.79 327.45 493.89 319.05 461.99 324.09"
/>
<path stroke="#fa89d6" vector-effect="non-scaling-stroke" d="
  M 462.20 325.30
  C 433.00 329.88 407.90 344.68 387.31 366.23
  Q 357.20 397.76 346.44 438.60
  Q 338.64 468.20 341.63 498.33
  Q 344.60 528.27 355.95 552.61
  Q 367.73 577.87 391.32 596.41
  Q 416.05 615.86 446.68 619.74
  Q 477.68 623.67 506.58 611.69
  Q 525.85 603.71 540.23 591.29
  C 545.19 587.01 550.24 582.52 554.68 577.64
  Q 585.58 543.71 596.49 498.34
  Q 599.99 483.78 601.13 472.13
  C 605.69 425.20 588.58 378.53 551.49 348.79
  C 526.45 328.71 493.84 320.34 462.20 325.30"
/>
<path stroke="#fa89d6" vector-effect="non-scaling-stroke" d="
  M 377.82 488.11
  Q 379.25 510.79 389.51 529.81
  C 403.18 555.14 428.17 569.74 456.96 570.97
  C 502.05 572.89 538.72 542.57 551.77 500.04
  C 558.98 476.53 559.45 450.86 551.37 427.59
  C 544.79 408.66 531.04 392.88 514.12 382.42
  Q 487.73 366.10 456.93 372.30
  C 431.35 377.45 410.02 394.33 396.27 415.97
  Q 375.34 448.89 377.82 488.11"
/>
<path stroke="#7e5079" vector-effect="non-scaling-stroke" d="
  M 378.98 487.96
  Q 380.39 510.36 390.53 529.14
  C 404.03 554.16 428.71 568.58 457.15 569.79
  C 501.68 571.69 537.90 541.74 550.78 499.73
  C 557.90 476.51 558.37 451.16 550.38 428.18
  C 543.89 409.48 530.30 393.90 513.59 383.57
  Q 487.53 367.45 457.11 373.57
  C 431.84 378.66 410.78 395.33 397.20 416.71
  Q 376.53 449.22 378.98 487.96"
/>
<path stroke="#7c395d" vector-effect="non-scaling-stroke" d="
  M 444.36 545.19
  C 434.38 530.74 430.27 513.68 429.97 496.50
  Q 429.77 485.49 430.63 477.89
  C 434.01 448.18 454.86 420.53 478.48 403.05
  C 481.94 400.48 487.07 397.62 491.19 395.85
  A 0.28 0.28 0.0 0 0 491.13 395.31
  Q 484.19 394.00 479.06 393.40
  C 460.77 391.25 443.40 397.05 429.82 409.61
  Q 405.89 431.76 401.02 464.51
  Q 397.24 489.95 406.91 512.92
  C 410.83 522.23 416.98 531.05 424.44 536.56
  Q 431.63 541.89 444.05 545.61
  A 0.28 0.28 0.0 0 0 444.36 545.19"
/>
<path stroke="#d3569a" vector-effect="non-scaling-stroke" d="
  M 487.31 396.06
  C 458.15 389.63 435.27 400.69 418.31 424.21
  Q 408.26 438.14 403.95 455.75
  Q 402.22 462.82 401.16 472.94
  C 400.53 478.96 401.47 487.58 402.15 492.12
  Q 404.08 504.97 409.86 516.64
  C 415.69 528.39 423.92 536.88 435.12 541.32
  Q 440.04 543.26 441.03 543.73
  A 0.50 0.50 0.0 0 0 441.66 543.01
  Q 434.38 531.55 431.57 518.22
  Q 430.71 514.16 429.38 506.01
  Q 428.65 501.56 428.97 485.76
  C 429.35 467.13 436.41 449.34 447.06 434.17
  Q 454.32 423.83 461.80 416.10
  Q 472.95 404.59 487.36 396.38
  A 0.17 0.17 0.0 0 0 487.31 396.06"
/>
</g>
<path fill="#000000" d="
  M 684.48 118.85
  Q 687.72 120.65 694.18 124.18
  Q 722.56 139.70 750.37 162.40
  Q 777.39 184.47 800.27 211.95
  Q 822.56 238.73 839.88 270.04
  Q 869.42 323.42 881.95 384.25
  Q 885.69 402.39 887.58 418.13
  Q 888.97 429.70 890.13 445.34
  Q 891.21 459.92 891.02 472.68
  Q 890.32 520.57 880.87 561.45
  Q 864.54 632.09 827.10 694.60
  Q 795.27 747.76 749.53 788.77
  Q 741.04 796.38 722.90 809.90
  Q 699.30 827.48 674.04 840.29
  Q 620.34 867.50 561.20 877.44
  Q 556.56 878.22 548.05 879.47
  Q 544.27 880.03 542.90 880.03
  C 540.23 880.04 538.43 880.95 536.03 880.93
  C 531.43 880.88 526.46 882.12 522.48 882.04
  C 517.36 881.92 511.25 882.89 505.50 882.93
  Q 492.15 883.01 481.04 882.95
  C 474.53 882.92 467.92 881.93 460.70 881.87
  A 13.71 13.61 50.4 0 1 458.26 881.63
  Q 453.91 880.82 449.79 880.94
  A 4.98 4.95 -38.1 0 1 448.26 880.76
  Q 446.02 880.16 442.80 880.04
  Q 441.24 879.98 437.31 879.46
  Q 433.20 878.92 423.75 877.49
  Q 391.42 872.61 359.97 862.26
  Q 301.03 842.88 252.25 805.01
  C 193.99 759.76 151.48 695.89 129.65 625.10
  Q 119.12 590.95 114.75 558.14
  Q 113.34 547.52 112.50 535.49
  Q 111.24 517.53 111.11 512.75
  Q 110.96 507.02 111.05 485.99
  C 111.07 480.07 111.85 475.45 111.91 470.17
  Q 111.94 466.77 112.19 463.83
  Q 116.29 414.88 128.66 372.14
  Q 152.22 290.68 204.90 225.13
  Q 220.68 205.49 239.45 186.45
  Q 244.18 181.66 253.24 173.49
  Q 297.98 133.20 351.22 109.72
  Q 394.47 90.65 440.87 82.41
  C 446.60 81.39 452.74 80.34 457.45 79.82
  Q 463.98 79.11 467.26 78.75
  Q 474.17 78.00 476.28 77.96
  C 480.39 77.89 484.25 77.07 488.26 77.03
  Q 519.28 76.67 525.02 77.14
  Q 534.75 77.93 538.49 78.04
  Q 542.17 78.15 544.99 78.71
  C 547.52 79.22 550.37 79.06 553.66 79.50
  Q 558.07 80.09 565.04 80.93
  Q 567.49 81.22 568.39 81.48
  C 570.58 82.12 573.22 81.76 574.96 82.52
  C 576.11 83.02 577.80 82.93 579.33 83.20
  Q 620.12 90.54 657.99 106.33
  C 663.08 108.45 667.63 110.70 674.53 113.89
  Q 680.63 116.71 684.48 118.85
  Z
  M 249.81 205.31
  C 206.40 249.09 173.42 300.64 153.95 358.46
  C 138.85 403.29 130.46 451.09 130.46 498.73
  Q 130.45 557.18 146.23 612.56
  C 164.60 677.03 200.61 736.42 251.71 780.10
  Q 278.55 803.04 311.36 819.72
  Q 365.95 847.47 428.63 852.34
  Q 437.25 853.01 446.92 853.07
  Q 459.60 853.15 465.22 852.76
  Q 553.64 846.76 627.51 798.48
  C 700.50 750.78 755.02 678.37 787.31 597.54
  Q 806.91 548.48 811.87 495.74
  Q 812.77 486.17 813.70 473.74
  Q 814.00 469.63 814.00 466.74
  C 814.01 460.91 814.49 455.11 814.45 449.26
  Q 814.04 386.12 796.55 328.95
  C 781.98 281.34 756.88 236.65 722.72 199.90
  C 683.20 157.39 633.80 125.07 578.43 109.28
  Q 527.71 94.82 475.13 98.50
  Q 439.76 100.98 407.25 110.79
  Q 344.41 129.76 291.40 168.94
  Q 270.71 184.24 249.81 205.31
  Z
  M 712.29 160.39
  L 707.44 157.62
  L 692.82 148.15
  A 0.04 0.04 0.0 0 0 692.77 148.16
  L 692.62 148.37
  A 0.27 0.26 -54.7 0 0 692.68 148.73
  C 738.03 182.86 774.82 227.65 798.53 278.96
  Q 811.35 306.70 819.57 336.89
  Q 829.69 374.05 832.75 410.23
  Q 834.71 433.39 834.72 447.75
  Q 834.75 478.62 830.86 511.45
  Q 825.01 560.88 803.35 613.31
  C 791.66 641.63 776.68 668.81 759.87 694.35
  Q 725.35 746.78 676.33 786.08
  Q 649.69 807.43 618.82 825.59
  Q 583.78 846.20 546.41 858.25
  C 539.52 860.47 532.54 861.74 525.54 863.66
  A 0.28 0.28 0.0 0 0 525.34 863.99
  L 525.34 864.00
  A 0.25 0.24 78.9 0 0 525.62 864.19
  Q 540.39 861.73 555.84 859.29
  Q 568.09 857.36 590.98 851.18
  Q 634.69 839.39 676.72 815.94
  Q 718.64 792.54 753.52 757.28
  Q 776.80 733.74 794.04 709.28
  Q 817.86 675.50 835.60 635.51
  C 855.05 591.67 866.78 543.16 868.82 496.99
  C 869.21 488.06 870.11 479.08 870.03 470.66
  Q 869.87 456.15 868.51 436.99
  C 866.76 412.46 861.99 386.96 855.49 363.30
  C 835.57 290.90 794.35 225.65 736.15 178.10
  Q 724.00 168.17 712.29 160.39
  Z"
/>
<path fill="#fda1f3" fill-opacity="0.996" d="
  M 249.81 205.31
  Q 270.71 184.24 291.40 168.94
  Q 344.41 129.76 407.25 110.79
  Q 439.76 100.98 475.13 98.50
  Q 527.71 94.82 578.43 109.28
  C 633.80 125.07 683.20 157.39 722.72 199.90
  C 756.88 236.65 781.98 281.34 796.55 328.95
  Q 814.04 386.12 814.45 449.26
  C 814.49 455.11 814.01 460.91 814.00 466.74
  Q 814.00 469.63 813.70 473.74
  Q 812.77 486.17 811.87 495.74
  Q 806.91 548.48 787.31 597.54
  C 755.02 678.37 700.50 750.78 627.51 798.48
  Q 553.64 846.76 465.22 852.76
  Q 459.60 853.15 446.92 853.07
  Q 437.25 853.01 428.63 852.34
  Q 365.95 847.47 311.36 819.72
  Q 278.55 803.04 251.71 780.10
  C 200.61 736.42 164.60 677.03 146.23 612.56
  Q 130.45 557.18 130.46 498.73
  C 130.46 451.09 138.85 403.29 153.95 358.46
  C 173.42 300.64 206.40 249.09 249.81 205.31
  Z
  M 328.41 826.49
  Q 348.39 835.13 366.26 840.06
  Q 388.20 846.11 413.61 849.48
  C 417.22 849.96 420.16 849.83 423.17 850.44
  Q 425.01 850.81 430.35 851.01
  Q 434.68 851.17 444.59 851.55
  Q 453.98 851.92 470.87 850.91
  Q 473.90 850.73 478.10 850.26
  C 484.21 849.58 491.04 848.84 496.04 848.02
  Q 580.05 834.28 648.09 782.58
  Q 661.22 772.60 668.12 766.35
  Q 673.64 761.36 674.13 761.03
  Q 675.64 760.00 680.06 755.66
  Q 689.07 746.79 693.81 742.09
  C 698.13 737.80 702.02 732.40 706.78 727.98
  A 4.88 4.74 -7.3 0 0 707.64 726.90
  Q 709.17 724.28 712.15 721.66
  A 4.63 4.57 85.8 0 0 713.05 720.60
  Q 714.38 718.44 717.61 714.87
  Q 723.26 708.59 732.68 695.20
  Q 743.58 679.69 752.43 665.19
  Q 758.76 654.81 766.44 640.20
  Q 788.86 597.55 800.76 552.85
  C 802.42 546.64 803.80 539.13 805.35 531.80
  Q 806.43 526.72 806.64 525.01
  C 807.38 518.98 808.49 514.21 809.23 507.92
  Q 810.66 495.66 810.99 491.75
  Q 811.14 489.90 812.54 471.95
  C 813.46 460.18 813.27 447.72 813.08 435.82
  Q 813.01 431.80 812.53 427.77
  Q 812.20 424.96 811.98 419.73
  Q 811.66 411.72 810.61 402.94
  Q 807.99 380.92 803.14 358.53
  C 792.19 307.93 770.14 260.07 737.76 219.25
  Q 729.63 208.98 724.68 203.91
  Q 722.50 201.68 719.27 197.98
  C 713.23 191.06 706.91 185.61 697.35 176.74
  C 695.16 174.71 693.12 173.46 691.23 171.55
  Q 690.66 170.97 686.62 167.64
  Q 682.53 164.27 675.34 158.93
  Q 632.24 126.89 581.25 111.35
  Q 572.29 108.62 562.78 106.53
  Q 549.38 103.58 544.01 102.80
  Q 529.67 100.71 519.99 100.12
  Q 512.08 99.64 509.51 99.43
  Q 495.47 98.33 478.71 99.56
  C 473.57 99.94 468.16 100.14 462.43 100.83
  Q 444.19 103.03 425.64 107.15
  Q 409.02 110.85 389.86 117.68
  Q 326.04 140.42 274.58 183.65
  Q 265.39 191.37 256.94 199.86
  Q 243.64 213.22 240.17 216.92
  Q 237.94 219.30 230.31 228.06
  Q 181.47 284.18 156.36 355.11
  Q 150.26 372.33 143.84 397.74
  Q 141.40 407.38 140.83 411.71
  Q 140.76 412.23 138.22 425.79
  Q 134.18 447.30 132.42 473.43
  C 131.62 485.40 131.80 498.29 131.74 509.75
  Q 131.71 514.31 132.66 526.61
  C 132.88 529.45 132.56 532.01 133.08 534.21
  Q 133.55 536.23 133.68 539.86
  C 133.89 545.94 135.34 553.27 136.14 560.06
  Q 136.24 560.96 137.55 568.53
  Q 140.04 582.88 142.49 593.79
  Q 146.35 611.00 155.24 636.53
  Q 164.30 662.56 178.96 688.64
  Q 187.01 702.96 190.82 708.50
  C 197.41 718.09 204.26 728.12 211.94 737.62
  Q 219.16 746.54 222.32 749.94
  Q 234.11 762.64 249.89 777.06
  Q 263.80 789.78 285.23 803.53
  Q 305.67 816.65 328.41 826.49
  Z"
/>
<path fill="#f872ba" d="
  M 328.41 826.49
  Q 305.67 816.65 285.23 803.53
  Q 263.80 789.78 249.89 777.06
  Q 234.11 762.64 222.32 749.94
  Q 219.16 746.54 211.94 737.62
  C 204.26 728.12 197.41 718.09 190.82 708.50
  Q 187.01 702.96 178.96 688.64
  Q 164.30 662.56 155.24 636.53
  Q 146.35 611.00 142.49 593.79
  Q 140.04 582.88 137.55 568.53
  Q 136.24 560.96 136.14 560.06
  C 135.34 553.27 133.89 545.94 133.68 539.86
  Q 133.55 536.23 133.08 534.21
  C 132.56 532.01 132.88 529.45 132.66 526.61
  Q 131.71 514.31 131.74 509.75
  C 131.80 498.29 131.62 485.40 132.42 473.43
  Q 134.18 447.30 138.22 425.79
  Q 140.76 412.23 140.83 411.71
  Q 141.40 407.38 143.84 397.74
  Q 150.26 372.33 156.36 355.11
  Q 181.47 284.18 230.31 228.06
  Q 237.94 219.30 240.17 216.92
  Q 243.64 213.22 256.94 199.86
  Q 265.39 191.37 274.58 183.65
  Q 326.04 140.42 389.86 117.68
  Q 409.02 110.85 425.64 107.15
  Q 444.19 103.03 462.43 100.83
  C 468.16 100.14 473.57 99.94 478.71 99.56
  Q 495.47 98.33 509.51 99.43
  Q 512.08 99.64 519.99 100.12
  Q 529.67 100.71 544.01 102.80
  Q 549.38 103.58 562.78 106.53
  Q 572.29 108.62 581.25 111.35
  Q 632.24 126.89 675.34 158.93
  Q 682.53 164.27 686.62 167.64
  Q 690.66 170.97 691.23 171.55
  C 693.12 173.46 695.16 174.71 697.35 176.74
  C 706.91 185.61 713.23 191.06 719.27 197.98
  Q 722.50 201.68 724.68 203.91
  Q 729.63 208.98 737.76 219.25
  C 770.14 260.07 792.19 307.93 803.14 358.53
  Q 807.99 380.92 810.61 402.94
  Q 811.66 411.72 811.98 419.73
  Q 812.20 424.96 812.53 427.77
  Q 813.01 431.80 813.08 435.82
  C 813.27 447.72 813.46 460.18 812.54 471.95
  Q 811.14 489.90 810.99 491.75
  Q 810.66 495.66 809.23 507.92
  C 808.49 514.21 807.38 518.98 806.64 525.01
  Q 806.43 526.72 805.35 531.80
  C 803.80 539.13 802.42 546.64 800.76 552.85
  Q 788.86 597.55 766.44 640.20
  Q 758.76 654.81 752.43 665.19
  Q 743.58 679.69 732.68 695.20
  Q 723.26 708.59 717.61 714.87
  Q 714.38 718.44 713.05 720.60
  A 4.63 4.57 85.8 0 1 712.15 721.66
  Q 709.17 724.28 707.64 726.90
  A 4.88 4.74 -7.3 0 1 706.78 727.98
  C 702.02 732.40 698.13 737.80 693.81 742.09
  Q 689.07 746.79 680.06 755.66
  Q 675.64 760.00 674.13 761.03
  Q 673.64 761.36 668.12 766.35
  Q 661.22 772.60 648.09 782.58
  Q 580.05 834.28 496.04 848.02
  C 491.04 848.84 484.21 849.58 478.10 850.26
  Q 473.90 850.73 470.87 850.91
  Q 453.98 851.92 444.59 851.55
  Q 434.68 851.17 430.35 851.01
  Q 425.01 850.81 423.17 850.44
  C 420.16 849.83 417.22 849.96 413.61 849.48
  Q 388.20 846.11 366.26 840.06
  Q 348.39 835.13 328.41 826.49
  Z
  M 324.25 178.21
  Q 306.57 189.55 288.37 205.37
  C 276.83 215.40 262.83 229.30 251.24 242.29
  Q 234.26 261.33 218.37 286.36
  Q 192.49 327.13 178.42 370.30
  Q 165.84 408.89 160.92 448.08
  C 152.00 519.12 162.73 589.52 192.89 654.62
  Q 215.50 703.40 253.92 741.34
  C 293.07 779.99 342.25 805.51 396.31 816.43
  Q 424.03 822.03 447.50 822.01
  Q 493.74 821.99 539.62 806.65
  Q 575.69 794.60 607.83 774.32
  C 627.43 761.96 647.67 746.68 664.46 730.54
  Q 678.15 717.37 691.30 702.25
  Q 740.92 645.15 766.06 571.31
  Q 772.93 551.15 777.31 528.44
  C 789.65 464.47 787.54 397.76 767.46 335.76
  Q 746.46 270.90 700.48 221.52
  Q 662.74 180.98 612.25 156.21
  Q 565.20 133.13 511.86 129.49
  Q 440.05 124.58 374.61 151.92
  Q 347.69 163.17 324.25 178.21
  Z"
/>
<path fill="#fda1f3" fill-opacity="0.996" d="
  M 324.25 178.21
  Q 347.69 163.17 374.61 151.92
  Q 440.05 124.58 511.86 129.49
  Q 565.20 133.13 612.25 156.21
  Q 662.74 180.98 700.48 221.52
  Q 746.46 270.90 767.46 335.76
  C 787.54 397.76 789.65 464.47 777.31 528.44
  Q 772.93 551.15 766.06 571.31
  Q 740.92 645.15 691.30 702.25
  Q 678.15 717.37 664.46 730.54
  C 647.67 746.68 627.43 761.96 607.83 774.32
  Q 575.69 794.60 539.62 806.65
  Q 493.74 821.99 447.50 822.01
  Q 424.03 822.03 396.31 816.43
  C 342.25 805.51 293.07 779.99 253.92 741.34
  Q 215.50 703.40 192.89 654.62
  C 162.73 589.52 152.00 519.12 160.92 448.08
  Q 165.84 408.89 178.42 370.30
  Q 192.49 327.13 218.37 286.36
  Q 234.26 261.33 251.24 242.29
  C 262.83 229.30 276.83 215.40 288.37 205.37
  Q 306.57 189.55 324.25 178.21
  Z
  M 324.72 179.34
  Q 307.10 190.64 288.97 206.41
  C 277.48 216.41 263.53 230.26 251.99 243.21
  Q 235.07 262.18 219.25 287.12
  Q 193.47 327.75 179.46 370.77
  Q 166.94 409.23 162.05 448.28
  C 153.18 519.06 163.89 589.20 193.96 654.06
  Q 216.50 702.66 254.79 740.45
  C 293.81 778.95 342.82 804.37 396.69 815.23
  Q 424.31 820.80 447.69 820.78
  Q 493.77 820.75 539.48 805.45
  Q 575.41 793.43 607.43 773.22
  C 626.96 760.90 647.12 745.67 663.85 729.58
  Q 677.48 716.45 690.58 701.39
  Q 740.01 644.48 765.04 570.90
  Q 771.88 550.81 776.23 528.18
  C 788.51 464.44 786.39 397.97 766.37 336.20
  Q 745.43 271.58 699.60 222.39
  Q 661.98 182.01 611.67 157.34
  Q 564.78 134.35 511.64 130.74
  Q 440.08 125.87 374.89 153.13
  Q 348.07 164.34 324.72 179.34
  Z"
/>
<path fill="#000000" d="
  M 324.72 179.34
  Q 348.07 164.34 374.89 153.13
  Q 440.08 125.87 511.64 130.74
  Q 564.78 134.35 611.67 157.34
  Q 661.98 182.01 699.60 222.39
  Q 745.43 271.58 766.37 336.20
  C 786.39 397.97 788.51 464.44 776.23 528.18
  Q 771.88 550.81 765.04 570.90
  Q 740.01 644.48 690.58 701.39
  Q 677.48 716.45 663.85 729.58
  C 647.12 745.67 626.96 760.90 607.43 773.22
  Q 575.41 793.43 539.48 805.45
  Q 493.77 820.75 447.69 820.78
  Q 424.31 820.80 396.69 815.23
  C 342.82 804.37 293.81 778.95 254.79 740.45
  Q 216.50 702.66 193.96 654.06
  C 163.89 589.20 153.18 519.06 162.05 448.28
  Q 166.94 409.23 179.46 370.77
  Q 193.47 327.75 219.25 287.12
  Q 235.07 262.18 251.99 243.21
  C 263.53 230.26 277.48 216.41 288.97 206.41
  Q 307.10 190.64 324.72 179.34
  Z
  M 368.70 786.96
  Q 399.45 797.71 432.00 800.17
  Q 445.86 801.22 452.01 800.94
  Q 459.77 800.60 466.52 800.24
  Q 475.78 799.74 481.00 799.01
  C 535.19 791.40 586.23 768.25 628.82 734.06
  Q 657.07 711.38 682.00 681.24
  Q 701.33 657.88 717.42 629.17
  Q 738.81 590.98 750.17 550.71
  C 768.79 484.70 770.00 413.44 749.89 347.81
  Q 742.61 324.03 732.57 303.91
  C 705.91 250.51 663.40 205.02 609.78 177.96
  Q 599.78 172.22 593.55 169.67
  Q 554.76 153.78 511.99 151.12
  Q 465.97 148.25 422.55 159.58
  Q 370.90 173.07 327.14 203.18
  C 295.97 224.62 270.56 250.14 247.96 280.71
  Q 232.45 301.69 220.51 324.98
  Q 210.67 344.18 204.94 358.94
  C 182.92 415.69 174.72 478.73 181.33 539.24
  Q 187.92 599.53 217.68 655.82
  Q 230.07 679.25 249.45 703.54
  C 280.62 742.59 321.28 771.84 368.70 786.96
  Z"
/>
<path fill="#f872ba" d="
  M 707.44 157.62
  Q 707.64 158.60 708.58 159.23
  A 1.39 1.36 -82.8 0 1 709.12 159.94
  Q 709.43 160.94 710.51 161.75
  C 713.23 163.79 716.98 166.81 719.91 169.72
  Q 729.62 179.36 734.58 184.40
  Q 773.03 223.52 797.33 273.89
  C 814.60 309.69 825.96 349.26 831.46 388.75
  Q 832.04 392.94 834.07 411.48
  C 834.76 417.84 834.66 423.31 835.24 428.60
  Q 835.88 434.45 835.89 441.43
  Q 835.90 456.50 835.86 463.56
  C 835.83 467.83 834.93 473.03 835.15 477.31
  Q 835.31 480.47 834.52 487.17
  Q 834.04 491.33 833.64 497.02
  Q 832.48 513.73 826.41 544.46
  Q 821.69 568.38 810.81 597.40
  Q 801.39 622.53 793.09 638.90
  C 781.87 661.02 770.67 680.46 756.59 701.18
  Q 746.52 716.00 735.52 729.15
  Q 713.68 755.26 691.45 774.72
  Q 658.51 803.55 617.94 827.22
  Q 582.78 847.74 548.24 858.82
  A 0.26 0.25 74.6 0 0 548.07 859.13
  L 548.07 859.14
  A 0.21 0.21 0.0 0 0 548.31 859.30
  Q 556.80 858.06 560.75 857.28
  Q 627.28 844.04 684.50 810.22
  Q 704.97 798.12 728.60 779.05
  C 730.39 777.60 731.95 775.74 733.73 774.38
  Q 736.13 772.56 737.73 771.03
  Q 757.50 752.15 765.22 743.47
  Q 777.41 729.79 782.02 723.77
  Q 802.96 696.48 816.86 670.87
  Q 830.87 645.06 840.34 621.60
  Q 855.21 584.73 862.52 542.55
  Q 865.24 526.83 865.99 518.81
  Q 867.21 505.74 868.15 489.66
  Q 869.08 473.64 868.73 462.33
  Q 868.15 444.14 867.34 435.00
  Q 863.57 392.75 851.00 351.80
  C 836.30 303.89 811.15 258.44 778.51 220.76
  C 770.08 211.02 758.81 199.58 751.06 192.45
  Q 732.94 175.77 712.86 162.13
  Q 710.73 160.69 712.29 160.39
  Q 724.00 168.17 736.15 178.10
  C 794.35 225.65 835.57 290.90 855.49 363.30
  C 861.99 386.96 866.76 412.46 868.51 436.99
  Q 869.87 456.15 870.03 470.66
  C 870.11 479.08 869.21 488.06 868.82 496.99
  C 866.78 543.16 855.05 591.67 835.60 635.51
  Q 817.86 675.50 794.04 709.28
  Q 776.80 733.74 753.52 757.28
  Q 718.64 792.54 676.72 815.94
  Q 634.69 839.39 590.98 851.18
  Q 568.09 857.36 555.84 859.29
  Q 540.39 861.73 525.62 864.19
  A 0.25 0.24 78.9 0 1 525.34 864.00
  L 525.34 863.99
  A 0.28 0.28 0.0 0 1 525.54 863.66
  C 532.54 861.74 539.52 860.47 546.41 858.25
  Q 583.78 846.20 618.82 825.59
  Q 649.69 807.43 676.33 786.08
  Q 725.35 746.78 759.87 694.35
  C 776.68 668.81 791.66 641.63 803.35 613.31
  Q 825.01 560.88 830.86 511.45
  Q 834.75 478.62 834.72 447.75
  Q 834.71 433.39 832.75 410.23
  Q 829.69 374.05 819.57 336.89
  Q 811.35 306.70 798.53 278.96
  C 774.82 227.65 738.03 182.86 692.68 148.73
  A 0.27 0.26 -54.7 0 1 692.62 148.37
  L 692.77 148.16
  A 0.04 0.04 0.0 0 1 692.82 148.15
  L 707.44 157.62
  Z"
/>
<path fill="#f872ba" d="
  M 609.78 177.96
  Q 607.44 178.46 604.95 177.02
  Q 605.48 176.97 605.48 176.93
  A 0.53 0.52 14.4 0 0 605.15 176.38
  C 598.06 173.51 590.72 169.67 584.28 167.31
  C 556.10 157.01 526.36 151.87 496.51 151.72
  Q 472.28 151.60 449.23 155.25
  C 394.82 163.88 343.43 188.21 301.53 224.06
  Q 277.23 244.84 256.96 270.72
  Q 243.00 288.55 233.46 304.19
  Q 218.82 328.18 206.95 357.21
  Q 199.67 375.01 194.38 394.39
  Q 188.21 417.02 185.17 437.04
  Q 181.89 458.73 181.19 472.82
  C 180.85 479.58 180.16 486.83 180.13 493.41
  Q 180.00 516.07 182.17 536.85
  Q 188.95 601.69 221.59 660.66
  Q 231.64 678.82 245.37 696.64
  Q 261.13 717.08 277.17 732.09
  Q 280.22 734.94 282.76 737.04
  C 287.44 740.91 292.32 745.24 297.23 748.91
  Q 316.78 763.50 338.92 774.12
  Q 342.92 776.03 347.51 777.76
  Q 352.53 779.65 356.16 781.42
  A 0.21 0.21 0.0 0 0 356.44 781.32
  L 356.56 781.10
  A 0.08 0.08 0.0 0 0 356.53 781.00
  L 354.51 779.93
  C 352.41 776.56 349.12 775.47 346.21 773.64
  Q 326.93 761.49 320.25 756.50
  Q 311.17 749.71 297.02 736.33
  C 292.61 732.16 286.36 725.02 283.33 721.67
  Q 274.22 711.64 264.52 697.48
  Q 255.29 684.00 249.70 674.33
  Q 240.86 659.04 233.67 640.63
  Q 227.06 623.68 224.83 615.70
  Q 222.43 607.05 220.09 597.76
  Q 214.87 576.99 212.18 551.98
  Q 210.13 532.94 210.07 527.49
  C 209.91 512.50 209.62 495.15 210.95 478.87
  Q 212.93 454.69 218.05 429.43
  Q 220.08 419.45 222.68 410.28
  Q 227.12 394.64 228.16 391.37
  Q 236.87 363.97 249.98 337.92
  Q 250.23 337.43 250.03 337.05
  Q 249.83 336.64 249.40 336.36
  Q 254.69 325.96 262.34 313.83
  C 289.18 271.26 325.89 234.75 367.20 208.24
  Q 367.57 209.33 368.20 208.93
  Q 418.36 177.42 475.17 167.39
  C 479.63 166.60 484.90 166.04 488.68 165.55
  Q 494.67 164.79 498.88 164.87
  Q 502.51 164.94 505.95 164.30
  Q 507.08 164.08 513.05 163.87
  Q 521.79 163.56 523.50 163.63
  Q 551.13 164.77 571.00 169.04
  Q 574.19 169.72 593.37 174.66
  C 596.67 175.51 599.90 176.77 603.27 177.84
  A 2.07 2.02 74.8 0 1 604.05 178.30
  Q 605.82 179.93 607.80 179.90
  A 0.35 0.33 74.1 0 1 608.09 180.07
  Q 608.10 180.09 608.23 180.26
  A 1.09 1.06 79.0 0 0 608.80 180.66
  Q 614.35 182.22 617.06 183.44
  Q 622.65 185.96 630.41 190.87
  Q 650.88 203.82 669.74 221.24
  Q 694.67 244.28 715.47 276.31
  C 734.19 305.12 746.95 336.57 754.59 369.88
  Q 761.37 399.42 763.01 430.52
  Q 764.79 464.03 759.18 502.23
  Q 757.10 516.44 756.17 519.90
  C 754.96 524.37 754.28 530.38 753.22 534.52
  Q 745.32 565.47 736.48 586.99
  Q 724.00 617.38 704.87 647.87
  Q 698.80 657.55 688.75 671.00
  Q 688.28 671.64 684.19 676.57
  C 682.74 678.32 681.79 680.07 679.87 681.72
  A 4.09 3.84 88.2 0 0 679.14 682.55
  Q 676.72 686.27 673.18 689.46
  A 3.86 3.75 -6.1 0 0 672.44 690.35
  C 671.79 691.44 670.43 693.30 669.23 694.52
  Q 658.82 705.10 646.83 716.92
  C 643.70 720.01 640.61 722.20 637.98 724.71
  Q 635.72 726.86 631.32 730.55
  Q 605.43 752.22 572.55 768.81
  Q 534.45 788.02 493.11 795.75
  C 487.28 796.84 479.16 797.67 474.68 798.22
  Q 468.32 798.99 460.78 799.02
  Q 453.87 799.04 434.44 799.03
  A 8.79 8.72 50.9 0 1 432.58 798.83
  Q 429.63 798.21 426.86 798.08
  Q 423.67 797.94 420.18 797.51
  Q 394.65 794.41 370.44 786.38
  A 2.42 2.16 -33.0 0 0 369.73 786.27
  Q 368.47 786.26 368.70 786.96
  C 321.28 771.84 280.62 742.59 249.45 703.54
  Q 230.07 679.25 217.68 655.82
  Q 187.92 599.53 181.33 539.24
  C 174.72 478.73 182.92 415.69 204.94 358.94
  Q 210.67 344.18 220.51 324.98
  Q 232.45 301.69 247.96 280.71
  C 270.56 250.14 295.97 224.62 327.14 203.18
  Q 370.90 173.07 422.55 159.58
  Q 465.97 148.25 511.99 151.12
  Q 554.76 153.78 593.55 169.67
  Q 599.78 172.22 609.78 177.96
  Z
  M 542.10 620.08
  C 596.13 584.38 634.36 523.19 632.19 457.34
  Q 630.49 405.87 599.94 363.92
  C 582.63 340.15 558.89 320.69 532.08 310.12
  Q 497.09 296.32 460.95 302.57
  C 432.68 307.45 404.69 321.98 383.85 341.12
  Q 373.55 350.58 368.18 356.69
  Q 332.67 397.12 323.22 447.85
  C 314.33 495.57 322.86 548.52 352.39 587.81
  C 372.80 614.97 402.92 634.32 436.78 640.46
  C 473.39 647.11 511.13 640.56 542.10 620.08
  Z"
/>
<path fill="#ae3a7a" d="
  M 604.95 177.02
  Q 599.74 175.21 594.42 173.65
  Q 520.99 152.16 447.21 172.50
  Q 405.33 184.05 367.20 208.24
  C 325.89 234.75 289.18 271.26 262.34 313.83
  Q 254.69 325.96 249.40 336.36
  C 217.48 398.71 204.25 469.76 209.45 539.31
  Q 211.88 571.79 220.22 604.26
  C 233.33 655.27 260.30 701.95 298.05 738.71
  Q 313.19 753.45 331.09 765.39
  Q 343.47 773.64 354.51 779.93
  L 356.53 781.00
  A 0.08 0.08 0.0 0 1 356.56 781.10
  L 356.44 781.32
  A 0.21 0.21 0.0 0 1 356.16 781.42
  Q 352.53 779.65 347.51 777.76
  Q 342.92 776.03 338.92 774.12
  Q 316.78 763.50 297.23 748.91
  C 292.32 745.24 287.44 740.91 282.76 737.04
  Q 280.22 734.94 277.17 732.09
  Q 261.13 717.08 245.37 696.64
  Q 231.64 678.82 221.59 660.66
  Q 188.95 601.69 182.17 536.85
  Q 180.00 516.07 180.13 493.41
  C 180.16 486.83 180.85 479.58 181.19 472.82
  Q 181.89 458.73 185.17 437.04
  Q 188.21 417.02 194.38 394.39
  Q 199.67 375.01 206.95 357.21
  Q 218.82 328.18 233.46 304.19
  Q 243.00 288.55 256.96 270.72
  Q 277.23 244.84 301.53 224.06
  C 343.43 188.21 394.82 163.88 449.23 155.25
  Q 472.28 151.60 496.51 151.72
  C 526.36 151.87 556.10 157.01 584.28 167.31
  C 590.72 169.67 598.06 173.51 605.15 176.38
  A 0.53 0.52 14.4 0 1 605.48 176.93
  Q 605.48 176.97 604.95 177.02
  Z"
/>
<path fill="#ae3a7a" d="
  M 712.29 160.39
  Q 710.73 160.69 712.86 162.13
  Q 732.94 175.77 751.06 192.45
  C 758.81 199.58 770.08 211.02 778.51 220.76
  C 811.15 258.44 836.30 303.89 851.00 351.80
  Q 863.57 392.75 867.34 435.00
  Q 868.15 444.14 868.73 462.33
  Q 869.08 473.64 868.15 489.66
  Q 867.21 505.74 865.99 518.81
  Q 865.24 526.83 862.52 542.55
  Q 855.21 584.73 840.34 621.60
  Q 830.87 645.06 816.86 670.87
  Q 802.96 696.48 782.02 723.77
  Q 777.41 729.79 765.22 743.47
  Q 757.50 752.15 737.73 771.03
  Q 736.13 772.56 733.73 774.38
  C 731.95 775.74 730.39 777.60 728.60 779.05
  Q 704.97 798.12 684.50 810.22
  Q 627.28 844.04 560.75 857.28
  Q 556.80 858.06 548.31 859.30
  A 0.21 0.21 0.0 0 1 548.07 859.14
  L 548.07 859.13
  A 0.26 0.25 74.6 0 1 548.24 858.82
  Q 582.78 847.74 617.94 827.22
  Q 658.51 803.55 691.45 774.72
  Q 713.68 755.26 735.52 729.15
  Q 746.52 716.00 756.59 701.18
  C 770.67 680.46 781.87 661.02 793.09 638.90
  Q 801.39 622.53 810.81 597.40
  Q 821.69 568.38 826.41 544.46
  Q 832.48 513.73 833.64 497.02
  Q 834.04 491.33 834.52 487.17
  Q 835.31 480.47 835.15 477.31
  C 834.93 473.03 835.83 467.83 835.86 463.56
  Q 835.90 456.50 835.89 441.43
  Q 835.88 434.45 835.24 428.60
  C 834.66 423.31 834.76 417.84 834.07 411.48
  Q 832.04 392.94 831.46 388.75
  C 825.96 349.26 814.60 309.69 797.33 273.89
  Q 773.03 223.52 734.58 184.40
  Q 729.62 179.36 719.91 169.72
  C 716.98 166.81 713.23 163.79 710.51 161.75
  Q 709.43 160.94 709.12 159.94
  A 1.39 1.36 -82.8 0 0 708.58 159.23
  Q 707.64 158.60 707.44 157.62
  L 712.29 160.39
  Z"
/>
<path fill="#fda1f3" fill-opacity="0.996" d="
  M 604.95 177.02
  Q 607.44 178.46 609.78 177.96
  C 663.40 205.02 705.91 250.51 732.57 303.91
  Q 742.61 324.03 749.89 347.81
  C 770.00 413.44 768.79 484.70 750.17 550.71
  Q 738.81 590.98 717.42 629.17
  Q 701.33 657.88 682.00 681.24
  Q 657.07 711.38 628.82 734.06
  C 586.23 768.25 535.19 791.40 481.00 799.01
  Q 475.78 799.74 466.52 800.24
  Q 459.77 800.60 452.01 800.94
  Q 445.86 801.22 432.00 800.17
  Q 399.45 797.71 368.70 786.96
  Q 368.47 786.26 369.73 786.27
  A 2.42 2.16 -33.0 0 1 370.44 786.38
  Q 394.65 794.41 420.18 797.51
  Q 423.67 797.94 426.86 798.08
  Q 429.63 798.21 432.58 798.83
  A 8.79 8.72 50.9 0 0 434.44 799.03
  Q 453.87 799.04 460.78 799.02
  Q 468.32 798.99 474.68 798.22
  C 479.16 797.67 487.28 796.84 493.11 795.75
  Q 534.45 788.02 572.55 768.81
  Q 605.43 752.22 631.32 730.55
  Q 635.72 726.86 637.98 724.71
  C 640.61 722.20 643.70 720.01 646.83 716.92
  Q 658.82 705.10 669.23 694.52
  C 670.43 693.30 671.79 691.44 672.44 690.35
  A 3.86 3.75 -6.1 0 1 673.18 689.46
  Q 676.72 686.27 679.14 682.55
  A 4.09 3.84 88.2 0 1 679.87 681.72
  C 681.79 680.07 682.74 678.32 684.19 676.57
  Q 688.28 671.64 688.75 671.00
  Q 698.80 657.55 704.87 647.87
  Q 724.00 617.38 736.48 586.99
  Q 745.32 565.47 753.22 534.52
  C 754.28 530.38 754.96 524.37 756.17 519.90
  Q 757.10 516.44 759.18 502.23
  Q 764.79 464.03 763.01 430.52
  Q 761.37 399.42 754.59 369.88
  C 746.95 336.57 734.19 305.12 715.47 276.31
  Q 694.67 244.28 669.74 221.24
  Q 650.88 203.82 630.41 190.87
  Q 622.65 185.96 617.06 183.44
  Q 614.35 182.22 608.80 180.66
  A 1.09 1.06 79.0 0 1 608.23 180.26
  Q 608.10 180.09 608.09 180.07
  A 0.35 0.33 74.1 0 0 607.80 179.90
  Q 605.82 179.93 604.05 178.30
  A 2.07 2.02 74.8 0 0 603.27 177.84
  C 599.90 176.77 596.67 175.51 593.37 174.66
  Q 574.19 169.72 571.00 169.04
  Q 551.13 164.77 523.50 163.63
  Q 521.79 163.56 513.05 163.87
  Q 507.08 164.08 505.95 164.30
  Q 502.51 164.94 498.88 164.87
  Q 494.67 164.79 488.68 165.55
  C 484.90 166.04 479.63 166.60 475.17 167.39
  Q 418.36 177.42 368.20 208.93
  Q 367.57 209.33 367.20 208.24
  Q 405.33 184.05 447.21 172.50
  Q 520.99 152.16 594.42 173.65
  Q 599.74 175.21 604.95 177.02
  Z"
/>
<path fill="#fda1f3" fill-opacity="0.996" d="
  M 632.19 457.34
  C 634.36 523.19 596.13 584.38 542.10 620.08
  C 511.13 640.56 473.39 647.11 436.78 640.46
  C 402.92 634.32 372.80 614.97 352.39 587.81
  C 322.86 548.52 314.33 495.57 323.22 447.85
  Q 332.67 397.12 368.18 356.69
  Q 373.55 350.58 383.85 341.12
  C 404.69 321.98 432.68 307.45 460.95 302.57
  Q 497.09 296.32 532.08 310.12
  C 558.89 320.69 582.63 340.15 599.94 363.92
  Q 630.49 405.87 632.19 457.34
  Z
  M 541.62 619.02
  C 595.25 583.57 633.19 522.82 631.02 457.45
  Q 629.32 406.35 598.99 364.71
  C 581.80 341.12 558.23 321.81 531.61 311.32
  Q 496.88 297.63 461.00 303.84
  C 432.94 308.69 405.15 323.12 384.47 342.12
  Q 374.25 351.51 368.92 357.58
  Q 333.67 397.72 324.30 448.08
  C 315.49 495.46 323.96 548.02 353.29 587.02
  C 373.55 613.98 403.46 633.18 437.07 639.27
  C 473.41 645.86 510.88 639.35 541.62 619.02
  Z"
/>
<path fill="#000000" d="
  M 541.62 619.02
  C 510.88 639.35 473.41 645.86 437.07 639.27
  C 403.46 633.18 373.55 613.98 353.29 587.02
  C 323.96 548.02 315.49 495.46 324.30 448.08
  Q 333.67 397.72 368.92 357.58
  Q 374.25 351.51 384.47 342.12
  C 405.15 323.12 432.94 308.69 461.00 303.84
  Q 496.88 297.63 531.61 311.32
  C 558.23 321.81 581.80 341.12 598.99 364.71
  Q 629.32 406.35 631.02 457.45
  C 633.19 522.82 595.25 583.57 541.62 619.02
  Z
  M 461.99 324.09
  C 432.55 328.74 407.25 343.70 386.51 365.46
  Q 356.18 397.29 345.38 438.49
  Q 337.55 468.35 340.60 498.74
  Q 343.63 528.93 355.11 553.46
  Q 367.02 578.92 390.83 597.59
  Q 415.80 617.17 446.69 621.05
  Q 477.96 624.98 507.09 612.86
  Q 526.51 604.79 541.00 592.25
  C 546.00 587.92 551.09 583.39 555.56 578.46
  Q 586.68 544.21 597.63 498.44
  Q 601.14 483.75 602.27 472.00
  C 606.82 424.67 589.51 377.62 552.06 347.67
  C 526.79 327.45 493.89 319.05 461.99 324.09
  Z"
/>
<path fill="#fda1f3" fill-opacity="0.996" d="
  M 386.51 365.46
  C 407.25 343.70 432.55 328.74 461.99 324.09
  C 493.89 319.05 526.79 327.45 552.06 347.67
  C 589.51 377.62 606.82 424.67 602.27 472.00
  Q 601.14 483.75 597.63 498.44
  Q 586.68 544.21 555.56 578.46
  C 551.09 583.39 546.00 587.92 541.00 592.25
  Q 526.51 604.79 507.09 612.86
  Q 477.96 624.98 446.69 621.05
  Q 415.80 617.17 390.83 597.59
  Q 367.02 578.92 355.11 553.46
  Q 343.63 528.93 340.60 498.74
  Q 337.55 468.35 345.38 438.49
  Q 356.18 397.29 386.51 365.46
  Z
  M 462.20 325.30
  C 433.00 329.88 407.90 344.68 387.31 366.23
  Q 357.20 397.76 346.44 438.60
  Q 338.64 468.20 341.63 498.33
  Q 344.60 528.27 355.95 552.61
  Q 367.73 577.87 391.32 596.41
  Q 416.05 615.86 446.68 619.74
  Q 477.68 623.67 506.58 611.69
  Q 525.85 603.71 540.23 591.29
  C 545.19 587.01 550.24 582.52 554.68 577.64
  Q 585.58 543.71 596.49 498.34
  Q 599.99 483.78 601.13 472.13
  C 605.69 425.20 588.58 378.53 551.49 348.79
  C 526.45 328.71 493.84 320.34 462.20 325.30
  Z"
/>
<path fill="#f872ba" d="
  M 462.20 325.30
  C 493.84 320.34 526.45 328.71 551.49 348.79
  C 588.58 378.53 605.69 425.20 601.13 472.13
  Q 599.99 483.78 596.49 498.34
  Q 585.58 543.71 554.68 577.64
  C 550.24 582.52 545.19 587.01 540.23 591.29
  Q 525.85 603.71 506.58 611.69
  Q 477.68 623.67 446.68 619.74
  Q 416.05 615.86 391.32 596.41
  Q 367.73 577.87 355.95 552.61
  Q 344.60 528.27 341.63 498.33
  Q 338.64 468.20 346.44 438.60
  Q 357.20 397.76 387.31 366.23
  C 407.90 344.68 433.00 329.88 462.20 325.30
  Z
  M 377.82 488.11
  Q 379.25 510.79 389.51 529.81
  C 403.18 555.14 428.17 569.74 456.96 570.97
  C 502.05 572.89 538.72 542.57 551.77 500.04
  C 558.98 476.53 559.45 450.86 551.37 427.59
  C 544.79 408.66 531.04 392.88 514.12 382.42
  Q 487.73 366.10 456.93 372.30
  C 431.35 377.45 410.02 394.33 396.27 415.97
  Q 375.34 448.89 377.82 488.11
  Z"
/>
<path fill="#fda1f3" fill-opacity="0.996" d="
  M 249.40 336.36
  Q 249.83 336.64 250.03 337.05
  Q 250.23 337.43 249.98 337.92
  Q 236.87 363.97 228.16 391.37
  Q 227.12 394.64 222.68 410.28
  Q 220.08 419.45 218.05 429.43
  Q 212.93 454.69 210.95 478.87
  C 209.62 495.15 209.91 512.50 210.07 527.49
  Q 210.13 532.94 212.18 551.98
  Q 214.87 576.99 220.09 597.76
  Q 222.43 607.05 224.83 615.70
  Q 227.06 623.68 233.67 640.63
  Q 240.86 659.04 249.70 674.33
  Q 255.29 684.00 264.52 697.48
  Q 274.22 711.64 283.33 721.67
  C 286.36 725.02 292.61 732.16 297.02 736.33
  Q 311.17 749.71 320.25 756.50
  Q 326.93 761.49 346.21 773.64
  C 349.12 775.47 352.41 776.56 354.51 779.93
  Q 343.47 773.64 331.09 765.39
  Q 313.19 753.45 298.05 738.71
  C 260.30 701.95 233.33 655.27 220.22 604.26
  Q 211.88 571.79 209.45 539.31
  C 204.25 469.76 217.48 398.71 249.40 336.36
  Z"
/>
<path fill="#fda1f3" fill-opacity="0.996" d="
  M 377.82 488.11
  Q 375.34 448.89 396.27 415.97
  C 410.02 394.33 431.35 377.45 456.93 372.30
  Q 487.73 366.10 514.12 382.42
  C 531.04 392.88 544.79 408.66 551.37 427.59
  C 559.45 450.86 558.98 476.53 551.77 500.04
  C 538.72 542.57 502.05 572.89 456.96 570.97
  C 428.17 569.74 403.18 555.14 389.51 529.81
  Q 379.25 510.79 377.82 488.11
  Z
  M 378.98 487.96
  Q 380.39 510.36 390.53 529.14
  C 404.03 554.16 428.71 568.58 457.15 569.79
  C 501.68 571.69 537.90 541.74 550.78 499.73
  C 557.90 476.51 558.37 451.16 550.38 428.18
  C 543.89 409.48 530.30 393.90 513.59 383.57
  Q 487.53 367.45 457.11 373.57
  C 431.84 378.66 410.78 395.33 397.20 416.71
  Q 376.53 449.22 378.98 487.96
  Z"
/>
<path fill="#000000" d="
  M 378.98 487.96
  Q 376.53 449.22 397.20 416.71
  C 410.78 395.33 431.84 378.66 457.11 373.57
  Q 487.53 367.45 513.59 383.57
  C 530.30 393.90 543.89 409.48 550.38 428.18
  C 558.37 451.16 557.90 476.51 550.78 499.73
  C 537.90 541.74 501.68 571.69 457.15 569.79
  C 428.71 568.58 404.03 554.16 390.53 529.14
  Q 380.39 510.36 378.98 487.96
  Z
  M 444.36 545.19
  C 434.38 530.74 430.27 513.68 429.97 496.50
  Q 429.77 485.49 430.63 477.89
  C 434.01 448.18 454.86 420.53 478.48 403.05
  C 481.94 400.48 487.07 397.62 491.19 395.85
  A 0.28 0.28 0.0 0 0 491.13 395.31
  Q 484.19 394.00 479.06 393.40
  C 460.77 391.25 443.40 397.05 429.82 409.61
  Q 405.89 431.76 401.02 464.51
  Q 397.24 489.95 406.91 512.92
  C 410.83 522.23 416.98 531.05 424.44 536.56
  Q 431.63 541.89 444.05 545.61
  A 0.28 0.28 0.0 0 0 444.36 545.19
  Z
  M 530.73 432.44
  Q 529.95 430.65 528.50 427.53
  Q 526.56 423.33 522.11 417.53
  A 3.35 3.29 -0.5 0 0 521.49 416.93
  Q 520.54 416.23 518.28 415.50
  Q 512.00 413.51 506.80 414.14
  C 493.34 415.77 480.52 424.01 471.51 434.44
  Q 457.31 450.87 452.08 471.07
  Q 449.37 481.53 449.93 491.63
  Q 450.53 502.30 453.51 512.04
  Q 457.94 526.48 468.78 539.00
  Q 474.73 545.87 481.34 548.24
  A 1.38 1.35 45.7 0 0 482.22 548.26
  Q 489.89 545.90 496.27 541.80
  Q 517.82 527.98 528.48 504.79
  Q 537.18 485.86 537.10 463.86
  Q 537.07 455.99 535.41 447.85
  Q 533.61 439.07 530.73 432.44
  Z"
/>
<path fill="#f872ba" d="
  M 444.05 545.61
  Q 431.63 541.89 424.44 536.56
  C 416.98 531.05 410.83 522.23 406.91 512.92
  Q 397.24 489.95 401.02 464.51
  Q 405.89 431.76 429.82 409.61
  C 443.40 397.05 460.77 391.25 479.06 393.40
  Q 484.19 394.00 491.13 395.31
  A 0.28 0.28 0.0 0 1 491.19 395.85
  C 487.07 397.62 481.94 400.48 478.48 403.05
  C 454.86 420.53 434.01 448.18 430.63 477.89
  Q 429.77 485.49 429.97 496.50
  C 430.27 513.68 434.38 530.74 444.36 545.19
  A 0.28 0.28 0.0 0 1 444.05 545.61
  Z
  M 487.31 396.06
  C 458.15 389.63 435.27 400.69 418.31 424.21
  Q 408.26 438.14 403.95 455.75
  Q 402.22 462.82 401.16 472.94
  C 400.53 478.96 401.47 487.58 402.15 492.12
  Q 404.08 504.97 409.86 516.64
  C 415.69 528.39 423.92 536.88 435.12 541.32
  Q 440.04 543.26 441.03 543.73
  A 0.50 0.50 0.0 0 0 441.66 543.01
  Q 434.38 531.55 431.57 518.22
  Q 430.71 514.16 429.38 506.01
  Q 428.65 501.56 428.97 485.76
  C 429.35 467.13 436.41 449.34 447.06 434.17
  Q 454.32 423.83 461.80 416.10
  Q 472.95 404.59 487.36 396.38
  A 0.17 0.17 0.0 0 0 487.31 396.06
  Z"
/>
<path fill="#ae3a7a" d="
  M 487.31 396.06
  A 0.17 0.17 0.0 0 1 487.36 396.38
  Q 472.95 404.59 461.80 416.10
  Q 454.32 423.83 447.06 434.17
  C 436.41 449.34 429.35 467.13 428.97 485.76
  Q 428.65 501.56 429.38 506.01
  Q 430.71 514.16 431.57 518.22
  Q 434.38 531.55 441.66 543.01
  A 0.50 0.50 0.0 0 1 441.03 543.73
  Q 440.04 543.26 435.12 541.32
  C 423.92 536.88 415.69 528.39 409.86 516.64
  Q 404.08 504.97 402.15 492.12
  C 401.47 487.58 400.53 478.96 401.16 472.94
  Q 402.22 462.82 403.95 455.75
  Q 408.26 438.14 418.31 424.21
  C 435.27 400.69 458.15 389.63 487.31 396.06
  Z"
/>
</svg>
