<?xml version="1.0" encoding="UTF-8" standalone="no"?>
<!DOCTYPE svg PUBLIC "-//W3C//DTD SVG 1.1//EN" "http://www.w3.org/Graphics/SVG/1.1/DTD/svg11.dtd">
<svg xmlns="http://www.w3.org/2000/svg" version="1.1" viewBox="0.00 0.00 1024.00 1024.00">
<g stroke-width="2.00" fill="none" stroke-linecap="butt">
<path stroke="#610d0f" vector-effect="non-scaling-stroke" d="
  M 785.85 407.12
  C 780.11 352.34 762.95 300.02 734.06 253.19
  Q 703.26 203.26 657.69 168.56
  Q 627.55 145.61 597.03 132.17
  C 551.81 112.26 500.81 106.29 452.00 113.81
  C 437.21 116.09 423.09 118.88 408.21 123.22
  Q 359.28 137.49 317.23 165.97
  C 296.71 179.86 276.36 196.31 259.02 214.78
  C 235.42 239.91 214.43 269.18 198.15 299.91
  Q 157.49 376.62 151.03 463.96
  Q 147.81 507.45 153.64 551.18
  C 159.90 598.19 174.27 642.43 197.79 682.99
  Q 225.51 730.78 268.38 766.38
  C 316.46 806.32 374.97 830.63 437.26 833.88
  Q 462.08 835.17 489.24 831.45
  C 534.14 825.30 576.23 809.95 614.36 785.38
  Q 643.27 766.76 664.97 746.22
  Q 679.92 732.06 687.39 723.89
  Q 729.72 677.59 755.07 617.57
  Q 782.03 553.75 786.95 487.49
  Q 789.98 446.63 785.85 407.12"
/>
<path stroke="#610d0f" vector-effect="non-scaling-stroke" d="
  M 484.09 848.41
  Q 485.99 848.68 486.25 848.62
  Q 488.30 848.15 504.76 848.23
  C 553.52 848.48 603.77 837.58 648.36 816.64
  Q 715.71 785.02 763.89 727.16
  Q 799.29 684.66 820.29 634.05
  Q 846.02 572.01 851.79 503.77
  Q 854.78 468.31 852.43 436.26
  Q 849.31 393.89 836.20 351.79
  C 823.21 310.05 802.19 270.93 775.04 236.63
  Q 757.61 214.63 738.46 197.80
  Q 714.47 176.71 695.09 164.18
  Q 676.45 152.13 670.46 148.80
  Q 643.66 133.91 613.42 122.39
  A 0.41 0.40 -68.6 0 0 612.90 122.62
  L 612.89 122.63
  A 0.44 0.43 -66.7 0 0 613.11 123.20
  Q 621.76 127.09 628.12 130.65
  C 659.27 148.07 687.83 170.37 711.53 197.16
  Q 721.45 208.37 726.94 215.58
  Q 745.53 239.97 759.85 266.81
  C 779.36 303.39 792.25 344.56 798.43 385.01
  Q 807.54 444.67 800.60 507.43
  C 795.74 551.24 783.54 593.58 765.77 633.08
  Q 742.68 684.40 705.58 727.57
  Q 660.57 779.95 598.52 812.97
  Q 564.62 831.01 523.31 841.30
  Q 519.98 842.13 513.11 843.43
  Q 504.46 845.07 502.90 845.49
  C 496.97 847.08 488.99 846.51 484.06 848.00
  A 0.21 0.21 0.0 0 0 484.09 848.41"
/>
<path stroke="#610d0f" vector-effect="non-scaling-stroke" d="
  M 285.09 225.84
  Q 253.72 256.79 230.60 294.64
  Q 207.80 331.96 194.29 373.54
  C 184.29 404.29 177.71 435.94 176.16 467.18
  C 175.57 479.19 174.92 488.10 175.04 498.09
  Q 175.30 520.71 177.76 541.76
  C 185.68 609.47 213.97 676.06 262.88 725.49
  Q 273.57 736.29 276.29 738.70
  Q 295.25 755.51 318.43 769.81
  C 340.88 783.67 366.22 793.23 391.28 799.61
  Q 407.41 803.72 426.30 805.64
  Q 488.06 811.93 546.73 789.97
  C 583.55 776.20 617.93 753.88 646.93 728.41
  Q 664.04 713.39 681.22 692.69
  Q 696.62 674.14 709.72 652.23
  C 738.02 604.92 756.07 552.07 761.40 497.21
  Q 763.09 479.86 763.46 464.50
  Q 764.34 428.53 758.70 392.77
  C 748.81 330.08 722.24 271.64 679.70 224.54
  C 643.15 184.07 593.42 153.19 539.53 142.78
  Q 521.21 139.24 506.50 138.48
  Q 478.51 137.04 451.22 140.97
  C 405.01 147.61 359.61 167.26 322.10 194.61
  Q 301.64 209.53 285.09 225.84"
/>
<path stroke="#a11014" vector-effect="non-scaling-stroke" d="
  M 503.15 846.80
  L 503.15 846.81
  A 0.38 0.38 0.0 0 0 503.53 847.17
  L 518.13 847.25
  A 2.55 1.00 -1.9 0 0 518.49 847.24
  L 533.59 846.17
  A 1.28 1.11 30.5 0 0 533.86 846.12
  Q 537.26 845.18 542.26 845.44
  A 4.13 4.12 40.3 0 0 543.25 845.36
  Q 548.62 844.22 552.71 843.85
  Q 558.17 843.37 562.16 842.57
  Q 584.97 838.04 600.71 833.44
  Q 612.79 829.92 617.63 828.15
  C 641.70 819.32 664.87 808.33 686.23 794.54
  Q 696.34 788.01 701.82 784.08
  Q 710.11 778.13 721.92 768.24
  Q 726.84 764.12 730.94 760.11
  C 735.83 755.32 741.28 751.08 745.66 745.99
  Q 748.39 742.82 751.21 739.85
  Q 758.65 732.04 763.71 725.93
  Q 771.64 716.36 782.92 700.59
  Q 787.87 693.66 791.65 687.50
  Q 795.88 680.60 799.81 674.04
  Q 800.31 673.20 808.55 657.53
  C 811.30 652.31 812.74 648.39 815.43 642.76
  Q 817.47 638.50 820.29 631.56
  Q 843.80 573.79 850.24 511.27
  Q 850.61 507.66 850.64 505.72
  C 850.72 500.76 851.61 496.47 851.64 491.80
  C 851.70 483.71 852.94 473.46 852.50 464.41
  Q 852.33 460.95 852.35 449.27
  C 852.35 447.20 851.74 444.15 851.87 442.22
  Q 851.98 440.69 851.25 436.96
  Q 851.09 436.13 850.96 432.15
  Q 850.92 430.64 850.57 427.36
  Q 849.53 417.55 847.79 404.52
  Q 847.19 400.02 842.77 380.14
  C 839.48 365.37 834.86 350.34 830.06 336.92
  Q 821.59 313.24 808.90 289.84
  Q 792.78 260.10 771.75 234.00
  Q 762.88 223.00 743.10 203.35
  Q 738.84 199.13 733.59 194.99
  Q 731.13 193.05 723.91 186.94
  Q 713.81 178.38 697.92 167.26
  C 693.49 164.16 687.88 161.16 683.02 157.86
  Q 677.50 154.11 671.87 150.90
  Q 652.98 140.14 634.08 132.04
  A 0.25 0.25 0.0 0 0 633.76 132.16
  L 633.69 132.28
  A 0.26 0.26 0.0 0 0 633.79 132.62
  Q 652.11 143.20 672.86 159.41
  Q 686.94 170.41 693.49 177.28
  C 695.16 179.04 697.56 180.74 699.75 183.00
  Q 700.52 183.80 713.76 197.89
  A 3.04 2.96 -80.3 0 1 714.27 198.63
  Q 714.74 199.58 715.51 200.36
  Q 719.52 204.43 726.43 213.47
  Q 726.72 213.85 727.61 214.99
  Q 755.04 250.36 773.09 291.87
  Q 776.21 299.04 778.86 306.38
  Q 782.54 316.56 784.12 321.08
  Q 787.14 329.74 791.72 346.87
  C 794.82 358.50 796.56 368.84 798.88 381.21
  C 800.29 388.79 800.89 396.21 801.80 402.77
  Q 803.09 411.95 803.45 418.98
  Q 804.00 429.66 804.59 444.50
  Q 805.09 457.21 804.68 465.75
  Q 803.75 485.39 802.77 496.80
  Q 801.09 516.42 796.24 542.00
  Q 792.18 563.41 784.33 587.41
  Q 778.15 606.32 771.47 622.44
  Q 763.06 642.78 753.15 660.67
  Q 744.22 676.79 734.61 691.12
  Q 723.15 708.21 708.64 725.63
  Q 696.82 739.81 683.72 752.38
  Q 670.73 764.84 656.18 776.43
  Q 627.10 799.58 594.96 815.95
  Q 552.34 837.67 503.48 846.38
  A 0.41 0.40 -7.4 0 0 503.15 846.80"
/>
<path stroke="#610d0f" vector-effect="non-scaling-stroke" d="
  M 650.34 703.32
  C 692.61 660.72 721.66 606.94 736.53 548.75
  Q 753.29 483.13 746.08 414.42
  Q 743.31 388.00 736.81 363.19
  C 718.74 294.15 677.00 229.26 616.55 190.20
  Q 575.17 163.46 526.25 156.78
  Q 469.63 149.05 416.38 165.29
  Q 364.12 181.23 320.76 215.94
  Q 265.44 260.23 233.53 322.25
  C 211.00 366.03 196.31 414.09 192.11 463.43
  C 190.39 483.74 190.78 505.08 192.00 525.75
  Q 196.34 599.22 234.17 662.62
  Q 254.78 697.15 284.49 725.00
  Q 314.96 753.55 352.45 770.06
  C 392.43 787.67 437.04 794.84 480.17 789.94
  Q 521.33 785.25 562.81 765.61
  Q 611.34 742.62 650.34 703.32"
/>
<path stroke="#a11014" vector-effect="non-scaling-stroke" d="
  M 270.80 708.82
  Q 257.49 689.01 251.15 676.74
  Q 245.57 665.95 238.87 650.50
  C 226.10 621.00 217.99 589.25 214.03 557.50
  C 210.19 526.72 209.52 494.57 213.38 463.23
  Q 215.56 445.53 216.34 441.60
  Q 223.85 403.65 233.59 376.55
  C 250.69 328.96 277.24 285.02 313.17 249.67
  Q 332.03 231.10 350.88 217.36
  Q 369.88 203.51 393.54 192.06
  Q 455.44 162.08 521.89 166.38
  C 546.42 167.97 571.22 173.17 595.03 181.23
  Q 598.41 182.37 602.29 184.37
  A 0.34 0.34 0.0 0 0 602.75 184.20
  L 602.82 184.06
  A 0.35 0.34 -66.0 0 0 602.65 183.60
  C 597.58 181.21 592.18 177.97 587.70 175.88
  Q 556.54 161.31 521.59 157.52
  Q 504.76 155.70 498.74 155.96
  Q 497.56 156.01 494.30 155.92
  C 473.48 155.39 452.49 157.27 432.48 162.15
  Q 378.64 175.28 335.08 206.36
  Q 316.97 219.28 296.44 238.61
  Q 288.14 246.43 279.58 256.36
  Q 270.67 266.70 264.12 275.36
  C 241.51 305.28 224.78 338.91 212.27 374.36
  Q 203.91 398.05 199.06 422.10
  Q 191.32 460.54 191.91 500.19
  Q 191.99 505.77 192.30 511.86
  Q 192.57 517.27 192.83 523.52
  Q 193.15 531.05 195.07 546.53
  Q 196.74 560.07 198.71 569.36
  Q 207.63 611.56 227.71 649.42
  Q 229.46 652.72 231.09 655.36
  C 234.14 660.29 236.38 665.06 239.79 670.06
  Q 250.97 686.48 255.31 691.48
  Q 260.01 696.90 260.58 697.80
  A 3.97 3.61 8.6 0 0 261.15 698.50
  Q 265.34 702.60 266.49 704.33
  Q 268.77 707.74 270.54 709.07
  A 0.18 0.18 0.0 0 0 270.80 708.82"
/>
<path stroke="#610d0f" vector-effect="non-scaling-stroke" d="
  M 539.43 627.18
  C 581.41 599.13 608.67 552.44 616.36 503.21
  Q 620.39 477.34 618.66 454.03
  C 614.02 391.72 577.61 330.63 515.46 311.28
  Q 502.11 307.12 486.25 306.25
  C 432.56 303.32 383.26 332.14 353.52 375.75
  Q 320.94 423.52 319.99 481.75
  C 319.33 522.53 330.04 563.53 354.43 595.37
  Q 370.21 615.96 389.93 629.17
  Q 425.35 652.89 469.41 651.16
  C 494.78 650.17 518.22 641.35 539.43 627.18"
/>
<path stroke="#787368" vector-effect="non-scaling-stroke" d="
  M 412.51 624.05
  C 463.47 648.97 521.97 630.70 558.34 589.82
  C 575.71 570.30 589.10 546.90 596.14 522.41
  C 607.72 482.08 606.73 440.10 590.13 401.32
  Q 576.24 368.89 550.72 347.67
  Q 518.88 321.19 476.92 321.96
  C 453.28 322.39 431.12 329.96 410.73 342.24
  C 382.72 359.11 360.15 388.36 348.25 418.54
  Q 328.19 469.44 339.12 523.68
  Q 344.07 548.26 354.57 567.27
  C 367.62 590.91 387.82 611.98 412.51 624.05"
/>
<path stroke="#d88077" vector-effect="non-scaling-stroke" d="
  M 398.94 429.27
  A 2.66 2.29 -75.6 0 0 396.37 431.06
  Q 395.18 434.44 392.33 443.33
  Q 391.74 445.17 390.49 447.20
  A 1.26 1.25 -75.0 0 1 389.49 447.78
  Q 387.63 447.85 386.23 447.56
  Q 376.23 445.44 363.35 442.41
  C 356.75 440.85 358.02 447.94 358.98 451.50
  Q 363.03 466.45 366.68 480.83
  C 368.70 488.79 361.88 490.47 356.49 492.97
  C 352.41 494.85 353.87 498.08 356.46 500.25
  Q 378.36 518.69 406.50 543.00
  C 409.77 545.82 411.15 547.58 409.83 551.83
  Q 409.68 552.35 406.51 562.77
  C 405.50 566.09 405.00 570.64 410.27 570.28
  C 417.25 569.80 423.63 568.16 430.41 567.02
  Q 450.71 563.62 454.58 562.95
  Q 459.14 562.17 460.44 562.44
  C 466.31 563.65 465.97 568.94 465.22 574.65
  Q 464.78 577.93 461.05 612.50
  Q 460.54 617.27 465.22 617.81
  Q 469.01 618.25 473.08 617.89
  C 477.82 617.46 477.25 612.85 477.07 609.27
  Q 476.25 593.15 475.09 577.00
  Q 474.71 571.72 474.98 567.76
  C 475.36 562.27 480.09 561.66 484.51 562.45
  Q 519.24 568.65 527.24 570.02
  Q 529.07 570.33 531.42 569.48
  A 1.38 1.38 0.0 0 0 532.24 568.66
  Q 533.27 565.86 532.51 563.24
  Q 530.09 554.79 529.11 550.08
  Q 528.40 546.66 530.56 544.81
  Q 545.75 531.82 583.13 500.38
  C 585.05 498.76 588.06 495.47 584.49 493.51
  Q 582.67 492.51 578.31 490.46
  C 575.34 489.07 572.18 487.26 573.17 483.96
  Q 578.76 465.28 583.41 449.19
  Q 584.20 446.46 583.87 443.97
  A 2.45 2.45 0.0 0 0 581.46 441.84
  Q 578.30 441.82 574.64 442.66
  C 564.13 445.08 558.54 446.81 552.53 447.05
  A 2.77 2.77 0.0 0 1 549.73 444.93
  Q 547.91 437.31 546.99 433.29
  C 546.32 430.40 543.75 426.78 541.13 429.89
  Q 530.53 442.48 516.10 459.11
  C 514.38 461.09 511.19 465.06 508.47 464.09
  C 504.27 462.59 505.09 458.35 506.26 454.55
  Q 513.30 431.67 519.62 408.49
  C 520.97 403.57 523.02 397.84 524.50 392.74
  Q 525.70 388.65 522.86 386.30
  C 520.62 384.45 518.69 384.97 516.51 386.52
  Q 515.39 387.32 502.07 397.83
  C 500.45 399.11 496.78 401.11 494.81 399.30
  Q 492.83 397.49 492.06 395.42
  Q 481.00 365.73 475.73 352.59
  Q 474.89 350.48 473.53 349.09
  C 471.33 346.86 468.18 349.13 467.06 351.31
  Q 465.82 353.72 463.59 359.32
  Q 456.51 377.12 450.23 392.97
  Q 449.14 395.74 447.52 397.99
  A 1.99 1.98 -82.0 0 1 446.54 398.73
  Q 444.20 399.54 441.46 397.53
  C 437.38 394.56 431.61 389.39 426.04 386.36
  C 419.72 382.91 418.41 389.28 419.52 393.80
  Q 427.02 424.38 434.56 455.69
  C 435.52 459.69 435.36 464.56 430.67 465.69
  A 1.70 1.69 54.6 0 1 429.38 465.47
  Q 427.47 464.25 425.37 461.57
  Q 408.10 439.51 402.20 431.76
  Q 400.47 429.48 398.94 429.27"
/>
</g>
<path fill="#000000" d="
  M 648.43 834.23
  Q 608.07 852.00 564.51 859.01
  Q 544.77 862.19 523.45 863.58
  Q 503.41 864.90 476.30 862.48
  Q 459.11 860.94 446.79 858.93
  Q 414.67 853.69 385.76 844.95
  Q 378.54 842.77 363.80 837.87
  Q 350.59 833.49 332.87 825.36
  Q 286.19 803.96 248.04 769.95
  C 213.51 739.16 185.50 699.75 166.66 657.37
  Q 152.68 625.93 144.47 591.55
  Q 144.33 590.95 141.50 577.51
  Q 139.89 569.91 138.93 563.42
  Q 135.98 543.50 135.24 531.25
  Q 135.04 528.00 134.47 517.51
  Q 132.00 471.50 139.01 424.26
  Q 140.30 415.56 143.03 402.75
  Q 150.04 369.90 161.32 339.85
  Q 195.80 247.99 267.01 182.76
  Q 305.61 147.40 352.27 125.52
  Q 366.75 118.73 385.89 111.70
  Q 425.22 97.25 471.53 92.49
  Q 477.94 91.83 479.63 91.89
  C 482.46 91.98 485.29 91.19 488.07 91.12
  Q 503.73 90.76 520.66 91.07
  Q 523.34 91.12 528.32 91.55
  Q 529.43 91.65 536.00 92.09
  Q 547.54 92.87 564.23 95.53
  Q 585.44 98.90 605.28 104.93
  Q 678.96 127.30 738.34 175.41
  Q 742.72 178.96 753.41 188.60
  Q 761.15 195.58 764.64 199.54
  C 768.53 203.96 774.13 209.61 778.57 214.76
  C 812.90 254.66 839.40 302.45 853.61 353.27
  C 857.69 367.88 861.02 380.89 863.47 395.75
  Q 864.58 402.48 865.62 409.28
  C 866.03 411.91 865.92 414.27 866.58 416.70
  C 867.32 419.45 866.91 422.95 867.31 425.42
  C 868.10 430.25 867.88 433.68 868.39 438.21
  Q 868.84 442.20 868.96 445.30
  Q 870.54 486.55 865.92 524.50
  Q 860.25 571.05 844.06 617.07
  C 830.31 656.13 810.76 693.24 785.14 725.96
  Q 769.51 745.94 754.76 760.76
  Q 733.22 782.43 706.57 801.30
  Q 679.29 820.63 648.43 834.23
  Z
  M 785.85 407.12
  C 780.11 352.34 762.95 300.02 734.06 253.19
  Q 703.26 203.26 657.69 168.56
  Q 627.55 145.61 597.03 132.17
  C 551.81 112.26 500.81 106.29 452.00 113.81
  C 437.21 116.09 423.09 118.88 408.21 123.22
  Q 359.28 137.49 317.23 165.97
  C 296.71 179.86 276.36 196.31 259.02 214.78
  C 235.42 239.91 214.43 269.18 198.15 299.91
  Q 157.49 376.62 151.03 463.96
  Q 147.81 507.45 153.64 551.18
  C 159.90 598.19 174.27 642.43 197.79 682.99
  Q 225.51 730.78 268.38 766.38
  C 316.46 806.32 374.97 830.63 437.26 833.88
  Q 462.08 835.17 489.24 831.45
  C 534.14 825.30 576.23 809.95 614.36 785.38
  Q 643.27 766.76 664.97 746.22
  Q 679.92 732.06 687.39 723.89
  Q 729.72 677.59 755.07 617.57
  Q 782.03 553.75 786.95 487.49
  Q 789.98 446.63 785.85 407.12
  Z
  M 484.09 848.41
  Q 485.99 848.68 486.25 848.62
  Q 488.30 848.15 504.76 848.23
  C 553.52 848.48 603.77 837.58 648.36 816.64
  Q 715.71 785.02 763.89 727.16
  Q 799.29 684.66 820.29 634.05
  Q 846.02 572.01 851.79 503.77
  Q 854.78 468.31 852.43 436.26
  Q 849.31 393.89 836.20 351.79
  C 823.21 310.05 802.19 270.93 775.04 236.63
  Q 757.61 214.63 738.46 197.80
  Q 714.47 176.71 695.09 164.18
  Q 676.45 152.13 670.46 148.80
  Q 643.66 133.91 613.42 122.39
  A 0.41 0.40 -68.6 0 0 612.90 122.62
  L 612.89 122.63
  A 0.44 0.43 -66.7 0 0 613.11 123.20
  Q 621.76 127.09 628.12 130.65
  C 659.27 148.07 687.83 170.37 711.53 197.16
  Q 721.45 208.37 726.94 215.58
  Q 745.53 239.97 759.85 266.81
  C 779.36 303.39 792.25 344.56 798.43 385.01
  Q 807.54 444.67 800.60 507.43
  C 795.74 551.24 783.54 593.58 765.77 633.08
  Q 742.68 684.40 705.58 727.57
  Q 660.57 779.95 598.52 812.97
  Q 564.62 831.01 523.31 841.30
  Q 519.98 842.13 513.11 843.43
  Q 504.46 845.07 502.90 845.49
  C 496.97 847.08 488.99 846.51 484.06 848.00
  A 0.21 0.21 0.0 0 0 484.09 848.41
  Z"
/>
<path fill="#c1191d" d="
  M 785.85 407.12
  Q 789.98 446.63 786.95 487.49
  Q 782.03 553.75 755.07 617.57
  Q 729.72 677.59 687.39 723.89
  Q 679.92 732.06 664.97 746.22
  Q 643.27 766.76 614.36 785.38
  C 576.23 809.95 534.14 825.30 489.24 831.45
  Q 462.08 835.17 437.26 833.88
  C 374.97 830.63 316.46 806.32 268.38 766.38
  Q 225.51 730.78 197.79 682.99
  C 174.27 642.43 159.90 598.19 153.64 551.18
  Q 147.81 507.45 151.03 463.96
  Q 157.49 376.62 198.15 299.91
  C 214.43 269.18 235.42 239.91 259.02 214.78
  C 276.36 196.31 296.71 179.86 317.23 165.97
  Q 359.28 137.49 408.21 123.22
  C 423.09 118.88 437.21 116.09 452.00 113.81
  C 500.81 106.29 551.81 112.26 597.03 132.17
  Q 627.55 145.61 657.69 168.56
  Q 703.26 203.26 734.06 253.19
  C 762.95 300.02 780.11 352.34 785.85 407.12
  Z
  M 285.09 225.84
  Q 253.72 256.79 230.60 294.64
  Q 207.80 331.96 194.29 373.54
  C 184.29 404.29 177.71 435.94 176.16 467.18
  C 175.57 479.19 174.92 488.10 175.04 498.09
  Q 175.30 520.71 177.76 541.76
  C 185.68 609.47 213.97 676.06 262.88 725.49
  Q 273.57 736.29 276.29 738.70
  Q 295.25 755.51 318.43 769.81
  C 340.88 783.67 366.22 793.23 391.28 799.61
  Q 407.41 803.72 426.30 805.64
  Q 488.06 811.93 546.73 789.97
  C 583.55 776.20 617.93 753.88 646.93 728.41
  Q 664.04 713.39 681.22 692.69
  Q 696.62 674.14 709.72 652.23
  C 738.02 604.92 756.07 552.07 761.40 497.21
  Q 763.09 479.86 763.46 464.50
  Q 764.34 428.53 758.70 392.77
  C 748.81 330.08 722.24 271.64 679.70 224.54
  C 643.15 184.07 593.42 153.19 539.53 142.78
  Q 521.21 139.24 506.50 138.48
  Q 478.51 137.04 451.22 140.97
  C 405.01 147.61 359.61 167.26 322.10 194.61
  Q 301.64 209.53 285.09 225.84
  Z"
/>
<path fill="#c1191d" d="
  M 484.06 848.00
  C 488.99 846.51 496.97 847.08 502.90 845.49
  Q 504.46 845.07 513.11 843.43
  Q 519.98 842.13 523.31 841.30
  Q 564.62 831.01 598.52 812.97
  Q 660.57 779.95 705.58 727.57
  Q 742.68 684.40 765.77 633.08
  C 783.54 593.58 795.74 551.24 800.60 507.43
  Q 807.54 444.67 798.43 385.01
  C 792.25 344.56 779.36 303.39 759.85 266.81
  Q 745.53 239.97 726.94 215.58
  Q 721.45 208.37 711.53 197.16
  C 687.83 170.37 659.27 148.07 628.12 130.65
  Q 621.76 127.09 613.11 123.20
  A 0.44 0.43 -66.7 0 1 612.89 122.63
  L 612.90 122.62
  A 0.41 0.40 -68.6 0 1 613.42 122.39
  Q 643.66 133.91 670.46 148.80
  Q 676.45 152.13 695.09 164.18
  Q 714.47 176.71 738.46 197.80
  Q 757.61 214.63 775.04 236.63
  C 802.19 270.93 823.21 310.05 836.20 351.79
  Q 849.31 393.89 852.43 436.26
  Q 854.78 468.31 851.79 503.77
  Q 846.02 572.01 820.29 634.05
  Q 799.29 684.66 763.89 727.16
  Q 715.71 785.02 648.36 816.64
  C 603.77 837.58 553.52 848.48 504.76 848.23
  Q 488.30 848.15 486.25 848.62
  Q 485.99 848.68 484.09 848.41
  A 0.21 0.21 0.0 0 1 484.06 848.00
  Z
  M 503.15 846.80
  L 503.15 846.81
  A 0.38 0.38 0.0 0 0 503.53 847.17
  L 518.13 847.25
  A 2.55 1.00 -1.9 0 0 518.49 847.24
  L 533.59 846.17
  A 1.28 1.11 30.5 0 0 533.86 846.12
  Q 537.26 845.18 542.26 845.44
  A 4.13 4.12 40.3 0 0 543.25 845.36
  Q 548.62 844.22 552.71 843.85
  Q 558.17 843.37 562.16 842.57
  Q 584.97 838.04 600.71 833.44
  Q 612.79 829.92 617.63 828.15
  C 641.70 819.32 664.87 808.33 686.23 794.54
  Q 696.34 788.01 701.82 784.08
  Q 710.11 778.13 721.92 768.24
  Q 726.84 764.12 730.94 760.11
  C 735.83 755.32 741.28 751.08 745.66 745.99
  Q 748.39 742.82 751.21 739.85
  Q 758.65 732.04 763.71 725.93
  Q 771.64 716.36 782.92 700.59
  Q 787.87 693.66 791.65 687.50
  Q 795.88 680.60 799.81 674.04
  Q 800.31 673.20 808.55 657.53
  C 811.30 652.31 812.74 648.39 815.43 642.76
  Q 817.47 638.50 820.29 631.56
  Q 843.80 573.79 850.24 511.27
  Q 850.61 507.66 850.64 505.72
  C 850.72 500.76 851.61 496.47 851.64 491.80
  C 851.70 483.71 852.94 473.46 852.50 464.41
  Q 852.33 460.95 852.35 449.27
  C 852.35 447.20 851.74 444.15 851.87 442.22
  Q 851.98 440.69 851.25 436.96
  Q 851.09 436.13 850.96 432.15
  Q 850.92 430.64 850.57 427.36
  Q 849.53 417.55 847.79 404.52
  Q 847.19 400.02 842.77 380.14
  C 839.48 365.37 834.86 350.34 830.06 336.92
  Q 821.59 313.24 808.90 289.84
  Q 792.78 260.10 771.75 234.00
  Q 762.88 223.00 743.10 203.35
  Q 738.84 199.13 733.59 194.99
  Q 731.13 193.05 723.91 186.94
  Q 713.81 178.38 697.92 167.26
  C 693.49 164.16 687.88 161.16 683.02 157.86
  Q 677.50 154.11 671.87 150.90
  Q 652.98 140.14 634.08 132.04
  A 0.25 0.25 0.0 0 0 633.76 132.16
  L 633.69 132.28
  A 0.26 0.26 0.0 0 0 633.79 132.62
  Q 652.11 143.20 672.86 159.41
  Q 686.94 170.41 693.49 177.28
  C 695.16 179.04 697.56 180.74 699.75 183.00
  Q 700.52 183.80 713.76 197.89
  A 3.04 2.96 -80.3 0 1 714.27 198.63
  Q 714.74 199.58 715.51 200.36
  Q 719.52 204.43 726.43 213.47
  Q 726.72 213.85 727.61 214.99
  Q 755.04 250.36 773.09 291.87
  Q 776.21 299.04 778.86 306.38
  Q 782.54 316.56 784.12 321.08
  Q 787.14 329.74 791.72 346.87
  C 794.82 358.50 796.56 368.84 798.88 381.21
  C 800.29 388.79 800.89 396.21 801.80 402.77
  Q 803.09 411.95 803.45 418.98
  Q 804.00 429.66 804.59 444.50
  Q 805.09 457.21 804.68 465.75
  Q 803.75 485.39 802.77 496.80
  Q 801.09 516.42 796.24 542.00
  Q 792.18 563.41 784.33 587.41
  Q 778.15 606.32 771.47 622.44
  Q 763.06 642.78 753.15 660.67
  Q 744.22 676.79 734.61 691.12
  Q 723.15 708.21 708.64 725.63
  Q 696.82 739.81 683.72 752.38
  Q 670.73 764.84 656.18 776.43
  Q 627.10 799.58 594.96 815.95
  Q 552.34 837.67 503.48 846.38
  A 0.41 0.40 -7.4 0 0 503.15 846.80
  Z"
/>
<path fill="#80060b" d="
  M 503.48 846.38
  Q 552.34 837.67 594.96 815.95
  Q 627.10 799.58 656.18 776.43
  Q 670.73 764.84 683.72 752.38
  Q 696.82 739.81 708.64 725.63
  Q 723.15 708.21 734.61 691.12
  Q 744.22 676.79 753.15 660.67
  Q 763.06 642.78 771.47 622.44
  Q 778.15 606.32 784.33 587.41
  Q 792.18 563.41 796.24 542.00
  Q 801.09 516.42 802.77 496.80
  Q 803.75 485.39 804.68 465.75
  Q 805.09 457.21 804.59 444.50
  Q 804.00 429.66 803.45 418.98
  Q 803.09 411.95 801.80 402.77
  C 800.89 396.21 800.29 388.79 798.88 381.21
  C 796.56 368.84 794.82 358.50 791.72 346.87
  Q 787.14 329.74 784.12 321.08
  Q 782.54 316.56 778.86 306.38
  Q 776.21 299.04 773.09 291.87
  Q 755.04 250.36 727.61 214.99
  Q 726.72 213.85 726.43 213.47
  Q 719.52 204.43 715.51 200.36
  Q 714.74 199.58 714.27 198.63
  A 3.04 2.96 -80.3 0 0 713.76 197.89
  Q 700.52 183.80 699.75 183.00
  C 697.56 180.74 695.16 179.04 693.49 177.28
  Q 686.94 170.41 672.86 159.41
  Q 652.11 143.20 633.79 132.62
  A 0.26 0.26 0.0 0 1 633.69 132.28
  L 633.76 132.16
  A 0.25 0.25 0.0 0 1 634.08 132.04
  Q 652.98 140.14 671.87 150.90
  Q 677.50 154.11 683.02 157.86
  C 687.88 161.16 693.49 164.16 697.92 167.26
  Q 713.81 178.38 723.91 186.94
  Q 731.13 193.05 733.59 194.99
  Q 738.84 199.13 743.10 203.35
  Q 762.88 223.00 771.75 234.00
  Q 792.78 260.10 808.90 289.84
  Q 821.59 313.24 830.06 336.92
  C 834.86 350.34 839.48 365.37 842.77 380.14
  Q 847.19 400.02 847.79 404.52
  Q 849.53 417.55 850.57 427.36
  Q 850.92 430.64 850.96 432.15
  Q 851.09 436.13 851.25 436.96
  Q 851.98 440.69 851.87 442.22
  C 851.74 444.15 852.35 447.20 852.35 449.27
  Q 852.33 460.95 852.50 464.41
  C 852.94 473.46 851.70 483.71 851.64 491.80
  C 851.61 496.47 850.72 500.76 850.64 505.72
  Q 850.61 507.66 850.24 511.27
  Q 843.80 573.79 820.29 631.56
  Q 817.47 638.50 815.43 642.76
  C 812.74 648.39 811.30 652.31 808.55 657.53
  Q 800.31 673.20 799.81 674.04
  Q 795.88 680.60 791.65 687.50
  Q 787.87 693.66 782.92 700.59
  Q 771.64 716.36 763.71 725.93
  Q 758.65 732.04 751.21 739.85
  Q 748.39 742.82 745.66 745.99
  C 741.28 751.08 735.83 755.32 730.94 760.11
  Q 726.84 764.12 721.92 768.24
  Q 710.11 778.13 701.82 784.08
  Q 696.34 788.01 686.23 794.54
  C 664.87 808.33 641.70 819.32 617.63 828.15
  Q 612.79 829.92 600.71 833.44
  Q 584.97 838.04 562.16 842.57
  Q 558.17 843.37 552.71 843.85
  Q 548.62 844.22 543.25 845.36
  A 4.13 4.12 40.3 0 1 542.26 845.44
  Q 537.26 845.18 533.86 846.12
  A 1.28 1.11 30.5 0 1 533.59 846.17
  L 518.49 847.24
  A 2.55 1.00 -1.9 0 1 518.13 847.25
  L 503.53 847.17
  A 0.38 0.38 0.0 0 1 503.15 846.81
  L 503.15 846.80
  A 0.41 0.40 -7.4 0 1 503.48 846.38
  Z"
/>
<path fill="#000000" d="
  M 285.09 225.84
  Q 301.64 209.53 322.10 194.61
  C 359.61 167.26 405.01 147.61 451.22 140.97
  Q 478.51 137.04 506.50 138.48
  Q 521.21 139.24 539.53 142.78
  C 593.42 153.19 643.15 184.07 679.70 224.54
  C 722.24 271.64 748.81 330.08 758.70 392.77
  Q 764.34 428.53 763.46 464.50
  Q 763.09 479.86 761.40 497.21
  C 756.07 552.07 738.02 604.92 709.72 652.23
  Q 696.62 674.14 681.22 692.69
  Q 664.04 713.39 646.93 728.41
  C 617.93 753.88 583.55 776.20 546.73 789.97
  Q 488.06 811.93 426.30 805.64
  Q 407.41 803.72 391.28 799.61
  C 366.22 793.23 340.88 783.67 318.43 769.81
  Q 295.25 755.51 276.29 738.70
  Q 273.57 736.29 262.88 725.49
  C 213.97 676.06 185.68 609.47 177.76 541.76
  Q 175.30 520.71 175.04 498.09
  C 174.92 488.10 175.57 479.19 176.16 467.18
  C 177.71 435.94 184.29 404.29 194.29 373.54
  Q 207.80 331.96 230.60 294.64
  Q 253.72 256.79 285.09 225.84
  Z
  M 650.34 703.32
  C 692.61 660.72 721.66 606.94 736.53 548.75
  Q 753.29 483.13 746.08 414.42
  Q 743.31 388.00 736.81 363.19
  C 718.74 294.15 677.00 229.26 616.55 190.20
  Q 575.17 163.46 526.25 156.78
  Q 469.63 149.05 416.38 165.29
  Q 364.12 181.23 320.76 215.94
  Q 265.44 260.23 233.53 322.25
  C 211.00 366.03 196.31 414.09 192.11 463.43
  C 190.39 483.74 190.78 505.08 192.00 525.75
  Q 196.34 599.22 234.17 662.62
  Q 254.78 697.15 284.49 725.00
  Q 314.96 753.55 352.45 770.06
  C 392.43 787.67 437.04 794.84 480.17 789.94
  Q 521.33 785.25 562.81 765.61
  Q 611.34 742.62 650.34 703.32
  Z"
/>
<path fill="#c1191d" d="
  M 736.53 548.75
  C 721.66 606.94 692.61 660.72 650.34 703.32
  Q 611.34 742.62 562.81 765.61
  Q 521.33 785.25 480.17 789.94
  C 437.04 794.84 392.43 787.67 352.45 770.06
  Q 314.96 753.55 284.49 725.00
  Q 254.78 697.15 234.17 662.62
  Q 196.34 599.22 192.00 525.75
  C 190.78 505.08 190.39 483.74 192.11 463.43
  C 196.31 414.09 211.00 366.03 233.53 322.25
  Q 265.44 260.23 320.76 215.94
  Q 364.12 181.23 416.38 165.29
  Q 469.63 149.05 526.25 156.78
  Q 575.17 163.46 616.55 190.20
  C 677.00 229.26 718.74 294.15 736.81 363.19
  Q 743.31 388.00 746.08 414.42
  Q 753.29 483.13 736.53 548.75
  Z
  M 270.80 708.82
  Q 257.49 689.01 251.15 676.74
  Q 245.57 665.95 238.87 650.50
  C 226.10 621.00 217.99 589.25 214.03 557.50
  C 210.19 526.72 209.52 494.57 213.38 463.23
  Q 215.56 445.53 216.34 441.60
  Q 223.85 403.65 233.59 376.55
  C 250.69 328.96 277.24 285.02 313.17 249.67
  Q 332.03 231.10 350.88 217.36
  Q 369.88 203.51 393.54 192.06
  Q 455.44 162.08 521.89 166.38
  C 546.42 167.97 571.22 173.17 595.03 181.23
  Q 598.41 182.37 602.29 184.37
  A 0.34 0.34 0.0 0 0 602.75 184.20
  L 602.82 184.06
  A 0.35 0.34 -66.0 0 0 602.65 183.60
  C 597.58 181.21 592.18 177.97 587.70 175.88
  Q 556.54 161.31 521.59 157.52
  Q 504.76 155.70 498.74 155.96
  Q 497.56 156.01 494.30 155.92
  C 473.48 155.39 452.49 157.27 432.48 162.15
  Q 378.64 175.28 335.08 206.36
  Q 316.97 219.28 296.44 238.61
  Q 288.14 246.43 279.58 256.36
  Q 270.67 266.70 264.12 275.36
  C 241.51 305.28 224.78 338.91 212.27 374.36
  Q 203.91 398.05 199.06 422.10
  Q 191.32 460.54 191.91 500.19
  Q 191.99 505.77 192.30 511.86
  Q 192.57 517.27 192.83 523.52
  Q 193.15 531.05 195.07 546.53
  Q 196.74 560.07 198.71 569.36
  Q 207.63 611.56 227.71 649.42
  Q 229.46 652.72 231.09 655.36
  C 234.14 660.29 236.38 665.06 239.79 670.06
  Q 250.97 686.48 255.31 691.48
  Q 260.01 696.90 260.58 697.80
  A 3.97 3.61 8.6 0 0 261.15 698.50
  Q 265.34 702.60 266.49 704.33
  Q 268.77 707.74 270.54 709.07
  A 0.18 0.18 0.0 0 0 270.80 708.82
  Z
  M 539.43 627.18
  C 581.41 599.13 608.67 552.44 616.36 503.21
  Q 620.39 477.34 618.66 454.03
  C 614.02 391.72 577.61 330.63 515.46 311.28
  Q 502.11 307.12 486.25 306.25
  C 432.56 303.32 383.26 332.14 353.52 375.75
  Q 320.94 423.52 319.99 481.75
  C 319.33 522.53 330.04 563.53 354.43 595.37
  Q 370.21 615.96 389.93 629.17
  Q 425.35 652.89 469.41 651.16
  C 494.78 650.17 518.22 641.35 539.43 627.18
  Z"
/>
<path fill="#80060b" d="
  M 270.54 709.07
  Q 268.77 707.74 266.49 704.33
  Q 265.34 702.60 261.15 698.50
  A 3.97 3.61 8.6 0 1 260.58 697.80
  Q 260.01 696.90 255.31 691.48
  Q 250.97 686.48 239.79 670.06
  C 236.38 665.06 234.14 660.29 231.09 655.36
  Q 229.46 652.72 227.71 649.42
  Q 207.63 611.56 198.71 569.36
  Q 196.74 560.07 195.07 546.53
  Q 193.15 531.05 192.83 523.52
  Q 192.57 517.27 192.30 511.86
  Q 191.99 505.77 191.91 500.19
  Q 191.32 460.54 199.06 422.10
  Q 203.91 398.05 212.27 374.36
  C 224.78 338.91 241.51 305.28 264.12 275.36
  Q 270.67 266.70 279.58 256.36
  Q 288.14 246.43 296.44 238.61
  Q 316.97 219.28 335.08 206.36
  Q 378.64 175.28 432.48 162.15
  C 452.49 157.27 473.48 155.39 494.30 155.92
  Q 497.56 156.01 498.74 155.96
  Q 504.76 155.70 521.59 157.52
  Q 556.54 161.31 587.70 175.88
  C 592.18 177.97 597.58 181.21 602.65 183.60
  A 0.35 0.34 -66.0 0 1 602.82 184.06
  L 602.75 184.20
  A 0.34 0.34 0.0 0 1 602.29 184.37
  Q 598.41 182.37 595.03 181.23
  C 571.22 173.17 546.42 167.97 521.89 166.38
  Q 455.44 162.08 393.54 192.06
  Q 369.88 203.51 350.88 217.36
  Q 332.03 231.10 313.17 249.67
  C 277.24 285.02 250.69 328.96 233.59 376.55
  Q 223.85 403.65 216.34 441.60
  Q 215.56 445.53 213.38 463.23
  C 209.52 494.57 210.19 526.72 214.03 557.50
  C 217.99 589.25 226.10 621.00 238.87 650.50
  Q 245.57 665.95 251.15 676.74
  Q 257.49 689.01 270.80 708.82
  A 0.18 0.18 0.0 0 1 270.54 709.07
  Z"
/>
<path fill="#000000" d="
  M 616.36 503.21
  C 608.67 552.44 581.41 599.13 539.43 627.18
  C 518.22 641.35 494.78 650.17 469.41 651.16
  Q 425.35 652.89 389.93 629.17
  Q 370.21 615.96 354.43 595.37
  C 330.04 563.53 319.33 522.53 319.99 481.75
  Q 320.94 423.52 353.52 375.75
  C 383.26 332.14 432.56 303.32 486.25 306.25
  Q 502.11 307.12 515.46 311.28
  C 577.61 330.63 614.02 391.72 618.66 454.03
  Q 620.39 477.34 616.36 503.21
  Z
  M 412.51 624.05
  C 463.47 648.97 521.97 630.70 558.34 589.82
  C 575.71 570.30 589.10 546.90 596.14 522.41
  C 607.72 482.08 606.73 440.10 590.13 401.32
  Q 576.24 368.89 550.72 347.67
  Q 518.88 321.19 476.92 321.96
  C 453.28 322.39 431.12 329.96 410.73 342.24
  C 382.72 359.11 360.15 388.36 348.25 418.54
  Q 328.19 469.44 339.12 523.68
  Q 344.07 548.26 354.57 567.27
  C 367.62 590.91 387.82 611.98 412.51 624.05
  Z"
/>
<path fill="#efe6d0" d="
  M 558.34 589.82
  C 521.97 630.70 463.47 648.97 412.51 624.05
  C 387.82 611.98 367.62 590.91 354.57 567.27
  Q 344.07 548.26 339.12 523.68
  Q 328.19 469.44 348.25 418.54
  C 360.15 388.36 382.72 359.11 410.73 342.24
  C 431.12 329.96 453.28 322.39 476.92 321.96
  Q 518.88 321.19 550.72 347.67
  Q 576.24 368.89 590.13 401.32
  C 606.73 440.10 607.72 482.08 596.14 522.41
  C 589.10 546.90 575.71 570.30 558.34 589.82
  Z
  M 398.94 429.27
  A 2.66 2.29 -75.6 0 0 396.37 431.06
  Q 395.18 434.44 392.33 443.33
  Q 391.74 445.17 390.49 447.20
  A 1.26 1.25 -75.0 0 1 389.49 447.78
  Q 387.63 447.85 386.23 447.56
  Q 376.23 445.44 363.35 442.41
  C 356.75 440.85 358.02 447.94 358.98 451.50
  Q 363.03 466.45 366.68 480.83
  C 368.70 488.79 361.88 490.47 356.49 492.97
  C 352.41 494.85 353.87 498.08 356.46 500.25
  Q 378.36 518.69 406.50 543.00
  C 409.77 545.82 411.15 547.58 409.83 551.83
  Q 409.68 552.35 406.51 562.77
  C 405.50 566.09 405.00 570.64 410.27 570.28
  C 417.25 569.80 423.63 568.16 430.41 567.02
  Q 450.71 563.62 454.58 562.95
  Q 459.14 562.17 460.44 562.44
  C 466.31 563.65 465.97 568.94 465.22 574.65
  Q 464.78 577.93 461.05 612.50
  Q 460.54 617.27 465.22 617.81
  Q 469.01 618.25 473.08 617.89
  C 477.82 617.46 477.25 612.85 477.07 609.27
  Q 476.25 593.15 475.09 577.00
  Q 474.71 571.72 474.98 567.76
  C 475.36 562.27 480.09 561.66 484.51 562.45
  Q 519.24 568.65 527.24 570.02
  Q 529.07 570.33 531.42 569.48
  A 1.38 1.38 0.0 0 0 532.24 568.66
  Q 533.27 565.86 532.51 563.24
  Q 530.09 554.79 529.11 550.08
  Q 528.40 546.66 530.56 544.81
  Q 545.75 531.82 583.13 500.38
  C 585.05 498.76 588.06 495.47 584.49 493.51
  Q 582.67 492.51 578.31 490.46
  C 575.34 489.07 572.18 487.26 573.17 483.96
  Q 578.76 465.28 583.41 449.19
  Q 584.20 446.46 583.87 443.97
  A 2.45 2.45 0.0 0 0 581.46 441.84
  Q 578.30 441.82 574.64 442.66
  C 564.13 445.08 558.54 446.81 552.53 447.05
  A 2.77 2.77 0.0 0 1 549.73 444.93
  Q 547.91 437.31 546.99 433.29
  C 546.32 430.40 543.75 426.78 541.13 429.89
  Q 530.53 442.48 516.10 459.11
  C 514.38 461.09 511.19 465.06 508.47 464.09
  C 504.27 462.59 505.09 458.35 506.26 454.55
  Q 513.30 431.67 519.62 408.49
  C 520.97 403.57 523.02 397.84 524.50 392.74
  Q 525.70 388.65 522.86 386.30
  C 520.62 384.45 518.69 384.97 516.51 386.52
  Q 515.39 387.32 502.07 397.83
  C 500.45 399.11 496.78 401.11 494.81 399.30
  Q 492.83 397.49 492.06 395.42
  Q 481.00 365.73 475.73 352.59
  Q 474.89 350.48 473.53 349.09
  C 471.33 346.86 468.18 349.13 467.06 351.31
  Q 465.82 353.72 463.59 359.32
  Q 456.51 377.12 450.23 392.97
  Q 449.14 395.74 447.52 397.99
  A 1.99 1.98 -82.0 0 1 446.54 398.73
  Q 444.20 399.54 441.46 397.53
  C 437.38 394.56 431.61 389.39 426.04 386.36
  C 419.72 382.91 418.41 389.28 419.52 393.80
  Q 427.02 424.38 434.56 455.69
  C 435.52 459.69 435.36 464.56 430.67 465.69
  A 1.70 1.69 54.6 0 1 429.38 465.47
  Q 427.47 464.25 425.37 461.57
  Q 408.10 439.51 402.20 431.76
  Q 400.47 429.48 398.94 429.27
  Z"
/>
<path fill="#c1191d" d="
  M 398.94 429.27
  Q 400.47 429.48 402.20 431.76
  Q 408.10 439.51 425.37 461.57
  Q 427.47 464.25 429.38 465.47
  A 1.70 1.69 54.6 0 0 430.67 465.69
  C 435.36 464.56 435.52 459.69 434.56 455.69
  Q 427.02 424.38 419.52 393.80
  C 418.41 389.28 419.72 382.91 426.04 386.36
  C 431.61 389.39 437.38 394.56 441.46 397.53
  Q 444.20 399.54 446.54 398.73
  A 1.99 1.98 -82.0 0 0 447.52 397.99
  Q 449.14 395.74 450.23 392.97
  Q 456.51 377.12 463.59 359.32
  Q 465.82 353.72 467.06 351.31
  C 468.18 349.13 471.33 346.86 473.53 349.09
  Q 474.89 350.48 475.73 352.59
  Q 481.00 365.73 492.06 395.42
  Q 492.83 397.49 494.81 399.30
  C 496.78 401.11 500.45 399.11 502.07 397.83
  Q 515.39 387.32 516.51 386.52
  C 518.69 384.97 520.62 384.45 522.86 386.30
  Q 525.70 388.65 524.50 392.74
  C 523.02 397.84 520.97 403.57 519.62 408.49
  Q 513.30 431.67 506.26 454.55
  C 505.09 458.35 504.27 462.59 508.47 464.09
  C 511.19 465.06 514.38 461.09 516.10 459.11
  Q 530.53 442.48 541.13 429.89
  C 543.75 426.78 546.32 430.40 546.99 433.29
  Q 547.91 437.31 549.73 444.93
  A 2.77 2.77 0.0 0 0 552.53 447.05
  C 558.54 446.81 564.13 445.08 574.64 442.66
  Q 578.30 441.82 581.46 441.84
  A 2.45 2.45 0.0 0 1 583.87 443.97
  Q 584.20 446.46 583.41 449.19
  Q 578.76 465.28 573.17 483.96
  C 572.18 487.26 575.34 489.07 578.31 490.46
  Q 582.67 492.51 584.49 493.51
  C 588.06 495.47 585.05 498.76 583.13 500.38
  Q 545.75 531.82 530.56 544.81
  Q 528.40 546.66 529.11 550.08
  Q 530.09 554.79 532.51 563.24
  Q 533.27 565.86 532.24 568.66
  A 1.38 1.38 0.0 0 1 531.42 569.48
  Q 529.07 570.33 527.24 570.02
  Q 519.24 568.65 484.51 562.45
  C 480.09 561.66 475.36 562.27 474.98 567.76
  Q 474.71 571.72 475.09 577.00
  Q 476.25 593.15 477.07 609.27
  C 477.25 612.85 477.82 617.46 473.08 617.89
  Q 469.01 618.25 465.22 617.81
  Q 460.54 617.27 461.05 612.50
  Q 464.78 577.93 465.22 574.65
  C 465.97 568.94 466.31 563.65 460.44 562.44
  Q 459.14 562.17 454.58 562.95
  Q 450.71 563.62 430.41 567.02
  C 423.63 568.16 417.25 569.80 410.27 570.28
  C 405.00 570.64 405.50 566.09 406.51 562.77
  Q 409.68 552.35 409.83 551.83
  C 411.15 547.58 409.77 545.82 406.50 543.00
  Q 378.36 518.69 356.46 500.25
  C 353.87 498.08 352.41 494.85 356.49 492.97
  C 361.88 490.47 368.70 488.79 366.68 480.83
  Q 363.03 466.45 358.98 451.50
  C 358.02 447.94 356.75 440.85 363.35 442.41
  Q 376.23 445.44 386.23 447.56
  Q 387.63 447.85 389.49 447.78
  A 1.26 1.25 -75.0 0 0 390.49 447.20
  Q 391.74 445.17 392.33 443.33
  Q 395.18 434.44 396.37 431.06
  A 2.66 2.29 -75.6 0 1 398.94 429.27
  Z"
/>
</svg>
