<?xml version="1.0" encoding="UTF-8" standalone="no"?>
<!DOCTYPE svg PUBLIC "-//W3C//DTD SVG 1.1//EN" "http://www.w3.org/Graphics/SVG/1.1/DTD/svg11.dtd">
<svg xmlns="http://www.w3.org/2000/svg" version="1.1" viewBox="0.00 0.00 1024.00 1536.00">
<g stroke-width="2.00" fill="none" stroke-linecap="butt">
<path stroke="#7a7872" vector-effect="non-scaling-stroke" d="
  M 350.71 542.02
  Q 350.71 627.77 350.77 635.75
  Q 350.84 643.73 356.48 646.64
  C 360.82 648.89 370.48 648.11 375.02 648.04
  Q 387.18 647.84 387.16 634.76
  Q 387.09 576.27 387.15 556.62
  A 0.50 0.50 0.0 0 1 387.65 556.12
  C 412.87 555.80 452.04 555.95 512.01 555.96
  C 571.97 555.96 611.14 555.82 636.37 556.14
  A 0.50 0.50 0.0 0 1 636.86 556.64
  Q 636.92 576.29 636.84 634.78
  Q 636.82 647.86 648.98 648.06
  C 653.52 648.13 663.18 648.91 667.52 646.67
  Q 673.16 643.76 673.23 635.78
  Q 673.29 627.80 673.30 542.05
  Q 673.31 456.30 673.24 448.32
  Q 673.17 440.34 667.53 437.43
  C 663.19 435.18 653.53 435.96 648.99 436.03
  Q 636.83 436.23 636.85 449.31
  Q 636.92 507.80 636.86 527.45
  A 0.50 0.50 0.0 0 1 636.37 527.95
  C 611.15 528.27 571.97 528.11 512.01 528.11
  C 452.04 528.10 412.87 528.25 387.65 527.93
  A 0.50 0.50 0.0 0 1 387.15 527.43
  Q 387.10 507.78 387.18 449.29
  Q 387.20 436.21 375.04 436.01
  C 370.50 435.93 360.84 435.15 356.50 437.40
  Q 350.86 440.31 350.79 448.29
  Q 350.72 456.27 350.71 542.02"
/>
<path stroke="#7a7872" vector-effect="non-scaling-stroke" d="
  M 305.77 556.43
  Q 306.06 559.38 306.04 562.75
  Q 305.93 582.24 305.97 601.75
  C 305.98 609.65 306.49 616.57 316.09 617.40
  Q 325.45 618.22 333.24 617.25
  Q 338.03 616.66 340.47 613.19
  Q 341.94 611.10 342.00 605.56
  C 342.40 568.18 342.07 527.34 342.14 480.76
  C 342.15 473.09 341.47 466.59 332.54 466.05
  Q 325.32 465.61 316.95 466.03
  C 309.95 466.37 305.99 470.73 305.98 477.98
  Q 305.92 502.61 305.98 527.19
  A 0.78 0.78 0.0 0 1 305.21 527.97
  C 273.71 528.13 246.10 528.02 220.77 528.16
  C 216.32 528.19 213.25 528.96 212.23 533.31
  Q 211.88 534.81 211.94 544.95
  C 211.96 549.18 211.50 555.50 217.25 555.83
  Q 221.47 556.07 224.00 556.05
  Q 257.05 555.80 305.41 556.10
  A 0.37 0.36 -1.7 0 1 305.77 556.43"
/>
<path stroke="#7a7872" vector-effect="non-scaling-stroke" d="
  M 718.09 527.28
  Q 717.91 523.79 717.91 523.75
  Q 718.13 513.09 718.01 483.01
  C 717.97 473.27 717.35 465.82 705.26 465.86
  Q 701.21 465.88 695.92 465.85
  C 688.38 465.81 682.48 467.08 682.07 475.47
  Q 681.89 478.94 681.89 484.50
  Q 681.90 569.63 681.92 605.00
  C 681.93 611.61 683.83 616.25 690.70 617.13
  C 697.45 618.00 710.39 618.75 714.68 614.78
  C 718.14 611.58 717.93 607.46 717.97 602.11
  Q 718.10 586.64 717.98 556.93
  A 0.80 0.79 89.6 0 1 718.76 556.13
  Q 755.77 555.78 795.00 556.07
  Q 799.86 556.10 806.04 555.88
  Q 811.41 555.69 811.84 550.51
  Q 812.44 543.27 811.90 534.95
  C 811.41 527.43 805.55 527.94 798.93 527.99
  Q 769.95 528.18 722.50 528.05
  Q 720.30 528.04 718.69 527.90
  A 0.66 0.66 0.0 0 1 718.09 527.28"
/>
<path stroke="#7a7872" vector-effect="non-scaling-stroke" d="
  M 490.26 825.13
  Q 490.08 826.82 489.95 831.05
  C 489.68 840.19 485.80 848.56 476.14 850.33
  C 466.64 852.06 458.32 846.95 455.37 837.84
  Q 453.95 833.48 453.96 828.00
  Q 453.98 804.42 453.95 770.50
  C 453.94 762.14 455.29 753.15 462.56 747.95
  C 468.20 743.92 478.34 744.38 483.56 748.97
  C 489.04 753.79 490.32 762.82 490.02 769.76
  A 1.15 1.14 1.4 0 0 491.17 770.96
  L 516.16 770.96
  A 0.75 0.74 -1.5 0 0 516.91 770.18
  C 516.58 763.66 515.97 755.94 513.73 749.59
  C 506.94 730.32 490.82 720.03 470.07 721.00
  Q 464.69 721.26 462.21 721.69
  C 438.33 725.89 426.94 745.06 426.98 768.00
  Q 427.02 787.28 426.94 816.49
  Q 426.90 833.38 427.69 837.95
  C 432.28 864.75 455.63 879.43 482.47 874.44
  C 508.15 869.67 515.94 848.76 516.72 825.33
  A 0.71 0.70 -88.8 0 0 516.02 824.59
  L 490.86 824.59
  A 0.61 0.60 -86.8 0 0 490.26 825.13"
/>
<path stroke="#7a7872" vector-effect="non-scaling-stroke" d="
  M 238.51 814.03
  L 251.98 814.03
  A 1.28 1.27 79.7 0 1 253.17 814.86
  L 274.49 871.57
  A 2.17 2.17 0.0 0 0 276.52 872.97
  L 302.58 872.97
  A 0.58 0.57 -10.9 0 0 303.12 872.18
  L 277.81 810.55
  A 0.58 0.57 -24.3 0 1 278.10 809.80
  Q 289.88 804.39 295.03 795.28
  C 300.68 785.29 300.91 769.93 299.07 758.14
  C 296.28 740.24 286.13 725.57 267.22 723.48
  Q 263.32 723.04 256.50 723.01
  Q 239.08 722.93 211.60 723.07
  A 0.57 0.57 0.0 0 0 211.03 723.64
  L 211.03 871.96
  A 0.99 0.98 90.0 0 0 212.01 872.95
  L 236.90 872.95
  A 0.98 0.98 0.0 0 0 237.88 871.97
  L 237.88 814.67
  A 0.64 0.63 90.0 0 1 238.51 814.03"
/>
<path stroke="#7a7872" vector-effect="non-scaling-stroke" d="
  M 391.27 872.39
  A 0.74 0.74 0.0 0 0 391.99 872.96
  L 417.95 872.96
  A 0.74 0.74 0.0 0 0 418.67 872.05
  L 384.61 723.54
  A 0.74 0.74 0.0 0 0 383.89 722.97
  L 349.87 722.97
  A 0.74 0.74 0.0 0 0 349.15 723.55
  L 315.26 872.06
  A 0.74 0.74 0.0 0 0 315.98 872.96
  L 341.42 872.96
  A 0.74 0.74 0.0 0 0 342.14 872.38
  L 349.01 842.30
  A 0.74 0.74 0.0 0 1 349.73 841.72
  L 383.65 841.72
  A 0.74 0.74 0.0 0 1 384.37 842.29
  L 391.27 872.39"
/>
<path stroke="#7a7872" vector-effect="non-scaling-stroke" d="
  M 561.29 788.38
  L 561.29 723.48
  A 0.49 0.48 90.0 0 0 560.81 722.99
  L 535.57 722.99
  A 0.52 0.52 0.0 0 0 535.05 723.51
  L 535.05 872.04
  A 0.89 0.89 0.0 0 0 535.94 872.93
  L 560.23 872.93
  A 1.07 1.07 0.0 0 0 561.30 871.86
  Q 561.24 852.34 561.33 834.75
  Q 561.35 831.13 562.49 829.21
  Q 570.12 816.44 572.26 812.79
  A 0.11 0.11 0.0 0 1 572.46 812.80
  L 600.19 871.70
  A 2.23 2.22 -12.6 0 0 602.20 872.97
  L 630.42 872.97
  A 0.53 0.53 0.0 0 0 630.90 872.22
  L 591.06 787.63
  A 2.90 2.89 -42.1 0 1 591.20 784.92
  L 627.83 724.20
  A 0.81 0.81 0.0 0 0 627.14 722.97
  L 598.71 722.97
  A 1.91 1.90 14.1 0 0 597.03 723.97
  L 561.91 788.54
  A 0.33 0.33 0.0 0 1 561.29 788.38"
/>
<path stroke="#7a7872" vector-effect="non-scaling-stroke" d="
  M 713.97 723.87
  A 0.89 0.89 0.0 0 0 713.08 722.98
  L 687.96 722.98
  A 0.89 0.89 0.0 0 0 687.07 723.87
  L 687.07 872.01
  A 0.89 0.89 0.0 0 0 687.96 872.90
  L 713.08 872.90
  A 0.89 0.89 0.0 0 0 713.97 872.01
  L 713.97 723.87"
/>
<path stroke="#7a7872" vector-effect="non-scaling-stroke" d="
  M 759.03 871.96
  A 0.97 0.97 0.0 0 0 760.00 872.93
  L 785.00 872.93
  A 0.97 0.97 0.0 0 0 785.97 871.96
  L 785.97 747.96
  A 0.97 0.97 0.0 0 1 786.94 746.99
  L 815.08 746.99
  A 0.97 0.97 0.0 0 0 816.05 746.02
  L 816.05 723.99
  A 0.97 0.97 0.0 0 0 815.08 723.02
  L 730.95 723.02
  A 0.97 0.97 0.0 0 0 729.98 723.99
  L 729.98 746.03
  A 0.97 0.97 0.0 0 0 730.95 747.00
  L 758.06 747.00
  A 0.97 0.97 0.0 0 1 759.03 747.97
  L 759.03 871.96"
/>
<path stroke="#7a7872" vector-effect="non-scaling-stroke" d="
  M 320.98 949.77
  Q 326.37 946.83 326.14 941.89
  C 325.83 935.14 319.90 932.33 313.98 932.19
  Q 308.22 932.06 301.31 932.17
  A 0.58 0.57 -0.5 0 0 300.74 932.74
  L 300.74 968.39
  A 0.58 0.58 0.0 0 0 301.32 968.97
  L 318.98 968.97
  A 4.13 4.01 -55.3 0 0 320.51 968.67
  Q 326.62 966.22 327.11 960.75
  Q 327.83 952.73 321.02 950.28
  A 0.28 0.28 0.0 0 1 320.98 949.77"
/>
<path stroke="#7a7872" vector-effect="non-scaling-stroke" d="
  M 350.75 959.68
  Q 357.39 959.69 358.16 959.69
  A 1.21 1.21 0.0 0 1 359.30 960.48
  L 361.97 967.58
  A 2.34 2.33 -10.3 0 0 364.16 969.09
  L 366.69 969.09
  A 0.96 0.96 0.0 0 0 367.59 967.78
  L 354.29 933.60
  A 2.41 2.39 84.8 0 0 352.52 932.11
  Q 351.88 931.98 350.78 931.98
  Q 349.67 931.98 349.03 932.10
  A 2.41 2.39 -84.7 0 0 347.26 933.59
  L 333.89 967.75
  A 0.96 0.96 0.0 0 0 334.79 969.06
  L 337.32 969.06
  A 2.34 2.33 10.4 0 0 339.51 967.56
  L 342.19 960.46
  A 1.21 1.21 0.0 0 1 343.33 959.67
  Q 344.10 959.67 350.75 959.68"
/>
<path stroke="#7a7872" vector-effect="non-scaling-stroke" d="
  M 403.36 968.57
  L 395.43 954.85
  A 0.55 0.55 0.0 0 1 395.75 954.05
  C 406.87 950.77 406.18 935.68 395.32 932.89
  C 390.22 931.58 384.51 932.08 378.31 932.19
  A 0.86 0.86 0.0 0 0 377.46 933.05
  L 377.46 968.06
  A 0.92 0.92 0.0 0 0 378.38 968.98
  L 382.05 968.98
  A 0.87 0.87 0.0 0 0 382.92 968.11
  L 382.92 955.79
  A 0.73 0.73 0.0 0 1 383.65 955.06
  L 388.26 955.06
  A 2.32 2.29 -14.8 0 1 390.26 956.21
  L 397.07 968.00
  A 2.09 2.08 -14.9 0 0 398.88 969.05
  L 403.08 969.05
  A 0.32 0.32 0.0 0 0 403.36 968.57"
/>
<path stroke="#7a7872" vector-effect="non-scaling-stroke" d="
  M 446.82 960.01
  C 448.80 969.22 459.25 971.75 467.05 968.86
  Q 472.32 966.90 473.57 962.20
  Q 475.11 956.39 471.46 952.83
  C 467.69 949.16 462.40 948.19 459.14 947.10
  C 453.73 945.29 450.85 939.14 457.99 936.87
  Q 462.40 935.46 465.87 938.41
  A 1.18 1.13 -88.7 0 1 466.08 938.64
  L 468.07 941.34
  A 1.44 1.39 -9.9 0 0 468.84 941.86
  Q 470.75 942.35 471.95 942.01
  A 1.46 1.45 72.2 0 0 472.92 940.11
  C 470.21 932.62 463.63 931.02 456.20 932.36
  C 451.76 933.17 447.65 937.71 448.17 942.48
  C 449.04 950.41 456.55 951.79 464.02 954.22
  Q 466.56 955.05 468.23 958.25
  A 1.61 1.60 -55.5 0 1 468.41 959.23
  Q 467.90 962.99 465.38 964.06
  Q 456.70 967.74 452.37 959.77
  A 1.09 1.07 75.3 0 0 451.43 959.21
  L 447.47 959.21
  A 0.66 0.66 0.0 0 0 446.82 960.01"
/>
<path stroke="#7a7872" vector-effect="non-scaling-stroke" d="
  M 507.73 964.40
  A 0.81 0.81 0.0 0 1 506.92 963.59
  L 506.92 932.94
  A 0.81 0.81 0.0 0 0 506.11 932.13
  L 502.76 932.13
  A 0.81 0.81 0.0 0 0 501.95 932.94
  L 501.95 968.19
  A 0.81 0.81 0.0 0 0 502.76 969.00
  L 524.15 969.00
  A 0.81 0.81 0.0 0 0 524.96 968.19
  L 524.96 965.21
  A 0.81 0.81 0.0 0 0 524.15 964.40
  L 507.73 964.40"
/>
<path stroke="#7a7872" vector-effect="non-scaling-stroke" d="
  M 569.49 950.85
  A 19.17 19.17 0.0 0 0 550.32 931.68
  A 19.17 19.17 0.0 0 0 531.15 950.85
  A 19.17 19.17 0.0 0 0 550.32 970.02
  A 19.17 19.17 0.0 0 0 569.49 950.85"
/>
<path stroke="#7a7872" vector-effect="non-scaling-stroke" d="
  M 592.03 959.64
  Q 598.66 959.63 599.43 959.63
  A 1.21 1.20 -10.1 0 1 600.56 960.42
  L 603.24 967.50
  A 2.34 2.33 -10.4 0 0 605.42 969.01
  L 607.95 969.00
  A 0.96 0.96 0.0 0 0 608.84 967.69
  L 595.53 933.61
  A 2.41 2.39 84.8 0 0 593.76 932.12
  Q 593.12 932.00 592.02 932.00
  Q 590.92 932.00 590.28 932.13
  A 2.41 2.39 -84.8 0 0 588.51 933.62
  L 575.22 967.71
  A 0.96 0.96 0.0 0 0 576.12 969.01
  L 578.64 969.02
  A 2.34 2.33 10.3 0 0 580.83 967.51
  L 583.50 960.43
  A 1.21 1.20 10.0 0 1 584.63 959.64
  Q 585.40 959.64 592.03 959.64"
/>
<path stroke="#7a7872" vector-effect="non-scaling-stroke" d="
  M 618.10 933.18
  L 617.98 968.06
  A 1.02 1.02 0.0 0 0 619.00 969.09
  L 632.40 969.13
  A 17.84 17.26 0.2 0 0 650.30 951.94
  L 650.30 949.54
  A 17.84 17.26 0.2 0 0 632.52 932.21
  L 619.12 932.17
  A 1.02 1.02 0.0 0 0 618.10 933.18"
/>
<path stroke="#7a7872" vector-effect="non-scaling-stroke" d="
  M 693.12 933.09
  L 692.94 968.27
  A 0.84 0.84 0.0 0 0 693.77 969.11
  L 707.04 969.18
  A 17.97 17.74 0.3 0 0 725.11 951.53
  L 725.11 950.15
  A 17.97 17.74 0.3 0 0 707.24 932.32
  L 693.97 932.25
  A 0.84 0.84 0.0 0 0 693.12 933.09"
/>
<path stroke="#7a7872" vector-effect="non-scaling-stroke" d="
  M 436.53 933.11
  A 0.94 0.94 0.0 0 0 435.59 932.17
  L 431.97 932.17
  A 0.94 0.94 0.0 0 0 431.03 933.11
  L 431.03 968.03
  A 0.94 0.94 0.0 0 0 431.97 968.97
  L 435.59 968.97
  A 0.94 0.94 0.0 0 0 436.53 968.03
  L 436.53 933.11"
/>
<path stroke="#7a7872" vector-effect="non-scaling-stroke" d="
  M 682.26 968.94
  A 0.81 0.81 0.0 0 0 683.07 968.13
  L 683.07 965.20
  A 0.81 0.81 0.0 0 0 682.26 964.39
  L 666.78 964.39
  A 0.81 0.81 0.0 0 1 665.97 963.58
  L 665.97 953.71
  A 0.81 0.81 0.0 0 1 666.78 952.90
  L 681.14 952.90
  A 0.81 0.81 0.0 0 0 681.95 952.09
  L 681.95 948.86
  A 0.81 0.81 0.0 0 0 681.14 948.05
  L 666.79 948.05
  A 0.81 0.81 0.0 0 1 665.98 947.24
  L 665.98 937.80
  A 0.81 0.81 0.0 0 1 666.79 936.99
  L 682.17 936.99
  A 0.81 0.81 0.0 0 0 682.98 936.18
  L 682.98 932.97
  A 0.81 0.81 0.0 0 0 682.17 932.16
  L 661.37 932.16
  A 0.81 0.81 0.0 0 0 660.56 932.97
  L 660.56 968.13
  A 0.81 0.81 0.0 0 0 661.37 968.94
  L 682.26 968.94"
/>
<path stroke="#7a7872" vector-effect="non-scaling-stroke" d="
  M 237.96 747.56
  L 237.82 790.12
  A 0.82 0.82 0.0 0 0 238.63 790.94
  L 256.71 791.01
  A 16.93 15.26 -89.8 0 0 272.03 774.13
  L 272.07 763.79
  A 16.93 15.26 -89.8 0 0 256.87 746.81
  L 238.79 746.74
  A 0.82 0.82 0.0 0 0 237.96 747.56"
/>
<path stroke="#7a7872" vector-effect="non-scaling-stroke" d="
  M 366.54 818.00
  Q 376.02 818.03 379.44 818.02
  A 0.37 0.37 0.0 0 0 379.80 817.59
  Q 369.53 766.24 369.00 763.69
  Q 368.40 760.85 368.03 758.31
  Q 367.27 753.11 366.79 753.11
  Q 366.31 753.11 365.51 758.30
  Q 365.12 760.84 364.50 763.67
  Q 363.95 766.22 353.27 817.49
  A 0.37 0.37 0.0 0 0 353.63 817.92
  Q 357.05 817.96 366.54 818.00"
/>
<path stroke="#7a7872" vector-effect="non-scaling-stroke" d="
  M 305.92 938.28
  L 306.02 946.84
  A 1.25 1.25 0.0 0 0 307.29 948.08
  L 313.78 948.00
  A 7.14 5.32 -0.7 0 0 320.85 942.59
  L 320.85 942.17
  A 7.14 5.32 -0.7 0 0 313.64 936.94
  L 307.15 937.02
  A 1.25 1.25 0.0 0 0 305.92 938.28"
/>
<path stroke="#7a7872" vector-effect="non-scaling-stroke" d="
  M 306.04 953.31
  L 305.95 963.61
  A 0.82 0.82 0.0 0 0 306.76 964.44
  L 314.01 964.50
  A 7.65 5.56 0.5 0 0 321.71 959.01
  L 321.71 958.19
  A 7.65 5.56 0.5 0 0 314.11 952.56
  L 306.86 952.50
  A 0.82 0.82 0.0 0 0 306.04 953.31"
/>
<path stroke="#7a7872" vector-effect="non-scaling-stroke" d="
  M 344.45 954.44
  A 0.41 0.41 0.0 0 0 344.84 954.99
  L 356.70 954.99
  A 0.41 0.41 0.0 0 0 357.09 954.44
  L 351.16 938.12
  A 0.41 0.41 0.0 0 0 350.38 938.12
  L 344.45 954.44"
/>
<path stroke="#7a7872" vector-effect="non-scaling-stroke" d="
  M 382.91 937.93
  L 382.99 949.89
  A 0.93 0.93 0.0 0 0 383.93 950.82
  L 390.20 950.77
  A 8.02 6.80 -0.4 0 0 398.17 943.92
  L 398.17 943.70
  A 8.02 6.80 -0.4 0 0 390.10 936.95
  L 383.83 937.00
  A 0.93 0.93 0.0 0 0 382.91 937.93"
/>
<path stroke="#7a7872" vector-effect="non-scaling-stroke" d="
  M 551.3628 936.3735
  A 14.45 13.67 -86.1 0 0 536.7417 949.8602
  A 14.45 13.67 -86.1 0 0 549.3972 965.2065
  A 14.45 13.67 -86.1 0 0 564.0183 951.7198
  A 14.45 13.67 -86.1 0 0 551.3628 936.3735"
/>
<path stroke="#7a7872" vector-effect="non-scaling-stroke" d="
  M 585.59 954.53
  A 0.33 0.33 0.0 0 0 585.90 954.98
  L 598.08 955.02
  A 0.33 0.33 0.0 0 0 598.39 954.57
  L 592.36 938.08
  A 0.33 0.33 0.0 0 0 591.74 938.08
  L 585.59 954.53"
/>
<path stroke="#7a7872" vector-effect="non-scaling-stroke" d="
  M 623.69 937.47
  L 623.59 963.83
  A 0.51 0.51 0.0 0 0 624.10 964.34
  L 631.35 964.37
  A 13.64 13.36 0.2 0 0 645.04 951.06
  L 645.04 950.40
  A 13.64 13.36 0.2 0 0 631.45 936.99
  L 624.20 936.96
  A 0.51 0.51 0.0 0 0 623.69 937.47"
/>
<path stroke="#7a7872" vector-effect="non-scaling-stroke" d="
  M 698.81 937.37
  L 698.71 964.13
  A 0.26 0.26 0.0 0 0 698.97 964.39
  L 706.12 964.42
  A 13.51 12.97 0.2 0 0 719.68 951.50
  L 719.68 950.16
  A 13.51 12.97 0.2 0 0 706.22 937.14
  L 699.07 937.11
  A 0.26 0.26 0.0 0 0 698.81 937.37"
/>
<path stroke="#7a7872" vector-effect="non-scaling-stroke" d="
  M 434.17 934.53
  A 0.20 0.20 0.0 0 0 433.97 934.33
  A 0.20 0.20 0.0 0 0 433.77 934.53
  L 433.77 967.37
  A 0.20 0.20 0.0 0 0 433.97 967.57
  A 0.20 0.20 0.0 0 0 434.17 967.37
  L 434.17 934.53"
/>
</g>
<path fill="#080807" d="
  M 1024.00 0.00
  L 1024.00 1536.00
  L 0.00 1536.00
  L 0.00 0.00
  L 1024.00 0.00
  Z
  M 350.71 542.02
  Q 350.71 627.77 350.77 635.75
  Q 350.84 643.73 356.48 646.64
  C 360.82 648.89 370.48 648.11 375.02 648.04
  Q 387.18 647.84 387.16 634.76
  Q 387.09 576.27 387.15 556.62
  A 0.50 0.50 0.0 0 1 387.65 556.12
  C 412.87 555.80 452.04 555.95 512.01 555.96
  C 571.97 555.96 611.14 555.82 636.37 556.14
  A 0.50 0.50 0.0 0 1 636.86 556.64
  Q 636.92 576.29 636.84 634.78
  Q 636.82 647.86 648.98 648.06
  C 653.52 648.13 663.18 648.91 667.52 646.67
  Q 673.16 643.76 673.23 635.78
  Q 673.29 627.80 673.30 542.05
  Q 673.31 456.30 673.24 448.32
  Q 673.17 440.34 667.53 437.43
  C 663.19 435.18 653.53 435.96 648.99 436.03
  Q 636.83 436.23 636.85 449.31
  Q 636.92 507.80 636.86 527.45
  A 0.50 0.50 0.0 0 1 636.37 527.95
  C 611.15 528.27 571.97 528.11 512.01 528.11
  C 452.04 528.10 412.87 528.25 387.65 527.93
  A 0.50 0.50 0.0 0 1 387.15 527.43
  Q 387.10 507.78 387.18 449.29
  Q 387.20 436.21 375.04 436.01
  C 370.50 435.93 360.84 435.15 356.50 437.40
  Q 350.86 440.31 350.79 448.29
  Q 350.72 456.27 350.71 542.02
  Z
  M 305.77 556.43
  Q 306.06 559.38 306.04 562.75
  Q 305.93 582.24 305.97 601.75
  C 305.98 609.65 306.49 616.57 316.09 617.40
  Q 325.45 618.22 333.24 617.25
  Q 338.03 616.66 340.47 613.19
  Q 341.94 611.10 342.00 605.56
  C 342.40 568.18 342.07 527.34 342.14 480.76
  C 342.15 473.09 341.47 466.59 332.54 466.05
  Q 325.32 465.61 316.95 466.03
  C 309.95 466.37 305.99 470.73 305.98 477.98
  Q 305.92 502.61 305.98 527.19
  A 0.78 0.78 0.0 0 1 305.21 527.97
  C 273.71 528.13 246.10 528.02 220.77 528.16
  C 216.32 528.19 213.25 528.96 212.23 533.31
  Q 211.88 534.81 211.94 544.95
  C 211.96 549.18 211.50 555.50 217.25 555.83
  Q 221.47 556.07 224.00 556.05
  Q 257.05 555.80 305.41 556.10
  A 0.37 0.36 -1.7 0 1 305.77 556.43
  Z
  M 718.09 527.28
  Q 717.91 523.79 717.91 523.75
  Q 718.13 513.09 718.01 483.01
  C 717.97 473.27 717.35 465.82 705.26 465.86
  Q 701.21 465.88 695.92 465.85
  C 688.38 465.81 682.48 467.08 682.07 475.47
  Q 681.89 478.94 681.89 484.50
  Q 681.90 569.63 681.92 605.00
  C 681.93 611.61 683.83 616.25 690.70 617.13
  C 697.45 618.00 710.39 618.75 714.68 614.78
  C 718.14 611.58 717.93 607.46 717.97 602.11
  Q 718.10 586.64 717.98 556.93
  A 0.80 0.79 89.6 0 1 718.76 556.13
  Q 755.77 555.78 795.00 556.07
  Q 799.86 556.10 806.04 555.88
  Q 811.41 555.69 811.84 550.51
  Q 812.44 543.27 811.90 534.95
  C 811.41 527.43 805.55 527.94 798.93 527.99
  Q 769.95 528.18 722.50 528.05
  Q 720.30 528.04 718.69 527.90
  A 0.66 0.66 0.0 0 1 718.09 527.28
  Z
  M 490.26 825.13
  Q 490.08 826.82 489.95 831.05
  C 489.68 840.19 485.80 848.56 476.14 850.33
  C 466.64 852.06 458.32 846.95 455.37 837.84
  Q 453.95 833.48 453.96 828.00
  Q 453.98 804.42 453.95 770.50
  C 453.94 762.14 455.29 753.15 462.56 747.95
  C 468.20 743.92 478.34 744.38 483.56 748.97
  C 489.04 753.79 490.32 762.82 490.02 769.76
  A 1.15 1.14 1.4 0 0 491.17 770.96
  L 516.16 770.96
  A 0.75 0.74 -1.5 0 0 516.91 770.18
  C 516.58 763.66 515.97 755.94 513.73 749.59
  C 506.94 730.32 490.82 720.03 470.07 721.00
  Q 464.69 721.26 462.21 721.69
  C 438.33 725.89 426.94 745.06 426.98 768.00
  Q 427.02 787.28 426.94 816.49
  Q 426.90 833.38 427.69 837.95
  C 432.28 864.75 455.63 879.43 482.47 874.44
  C 508.15 869.67 515.94 848.76 516.72 825.33
  A 0.71 0.70 -88.8 0 0 516.02 824.59
  L 490.86 824.59
  A 0.61 0.60 -86.8 0 0 490.26 825.13
  Z
  M 238.51 814.03
  L 251.98 814.03
  A 1.28 1.27 79.7 0 1 253.17 814.86
  L 274.49 871.57
  A 2.17 2.17 0.0 0 0 276.52 872.97
  L 302.58 872.97
  A 0.58 0.57 -10.9 0 0 303.12 872.18
  L 277.81 810.55
  A 0.58 0.57 -24.3 0 1 278.10 809.80
  Q 289.88 804.39 295.03 795.28
  C 300.68 785.29 300.91 769.93 299.07 758.14
  C 296.28 740.24 286.13 725.57 267.22 723.48
  Q 263.32 723.04 256.50 723.01
  Q 239.08 722.93 211.60 723.07
  A 0.57 0.57 0.0 0 0 211.03 723.64
  L 211.03 871.96
  A 0.99 0.98 90.0 0 0 212.01 872.95
  L 236.90 872.95
  A 0.98 0.98 0.0 0 0 237.88 871.97
  L 237.88 814.67
  A 0.64 0.63 90.0 0 1 238.51 814.03
  Z
  M 391.27 872.39
  A 0.74 0.74 0.0 0 0 391.99 872.96
  L 417.95 872.96
  A 0.74 0.74 0.0 0 0 418.67 872.05
  L 384.61 723.54
  A 0.74 0.74 0.0 0 0 383.89 722.97
  L 349.87 722.97
  A 0.74 0.74 0.0 0 0 349.15 723.55
  L 315.26 872.06
  A 0.74 0.74 0.0 0 0 315.98 872.96
  L 341.42 872.96
  A 0.74 0.74 0.0 0 0 342.14 872.38
  L 349.01 842.30
  A 0.74 0.74 0.0 0 1 349.73 841.72
  L 383.65 841.72
  A 0.74 0.74 0.0 0 1 384.37 842.29
  L 391.27 872.39
  Z
  M 561.29 788.38
  L 561.29 723.48
  A 0.49 0.48 90.0 0 0 560.81 722.99
  L 535.57 722.99
  A 0.52 0.52 0.0 0 0 535.05 723.51
  L 535.05 872.04
  A 0.89 0.89 0.0 0 0 535.94 872.93
  L 560.23 872.93
  A 1.07 1.07 0.0 0 0 561.30 871.86
  Q 561.24 852.34 561.33 834.75
  Q 561.35 831.13 562.49 829.21
  Q 570.12 816.44 572.26 812.79
  A 0.11 0.11 0.0 0 1 572.46 812.80
  L 600.19 871.70
  A 2.23 2.22 -12.6 0 0 602.20 872.97
  L 630.42 872.97
  A 0.53 0.53 0.0 0 0 630.90 872.22
  L 591.06 787.63
  A 2.90 2.89 -42.1 0 1 591.20 784.92
  L 627.83 724.20
  A 0.81 0.81 0.0 0 0 627.14 722.97
  L 598.71 722.97
  A 1.91 1.90 14.1 0 0 597.03 723.97
  L 561.91 788.54
  A 0.33 0.33 0.0 0 1 561.29 788.38
  Z
  M 713.97 723.87
  A 0.89 0.89 0.0 0 0 713.08 722.98
  L 687.96 722.98
  A 0.89 0.89 0.0 0 0 687.07 723.87
  L 687.07 872.01
  A 0.89 0.89 0.0 0 0 687.96 872.90
  L 713.08 872.90
  A 0.89 0.89 0.0 0 0 713.97 872.01
  L 713.97 723.87
  Z
  M 759.03 871.96
  A 0.97 0.97 0.0 0 0 760.00 872.93
  L 785.00 872.93
  A 0.97 0.97 0.0 0 0 785.97 871.96
  L 785.97 747.96
  A 0.97 0.97 0.0 0 1 786.94 746.99
  L 815.08 746.99
  A 0.97 0.97 0.0 0 0 816.05 746.02
  L 816.05 723.99
  A 0.97 0.97 0.0 0 0 815.08 723.02
  L 730.95 723.02
  A 0.97 0.97 0.0 0 0 729.98 723.99
  L 729.98 746.03
  A 0.97 0.97 0.0 0 0 730.95 747.00
  L 758.06 747.00
  A 0.97 0.97 0.0 0 1 759.03 747.97
  L 759.03 871.96
  Z
  M 320.98 949.77
  Q 326.37 946.83 326.14 941.89
  C 325.83 935.14 319.90 932.33 313.98 932.19
  Q 308.22 932.06 301.31 932.17
  A 0.58 0.57 -0.5 0 0 300.74 932.74
  L 300.74 968.39
  A 0.58 0.58 0.0 0 0 301.32 968.97
  L 318.98 968.97
  A 4.13 4.01 -55.3 0 0 320.51 968.67
  Q 326.62 966.22 327.11 960.75
  Q 327.83 952.73 321.02 950.28
  A 0.28 0.28 0.0 0 1 320.98 949.77
  Z
  M 350.75 959.68
  Q 357.39 959.69 358.16 959.69
  A 1.21 1.21 0.0 0 1 359.30 960.48
  L 361.97 967.58
  A 2.34 2.33 -10.3 0 0 364.16 969.09
  L 366.69 969.09
  A 0.96 0.96 0.0 0 0 367.59 967.78
  L 354.29 933.60
  A 2.41 2.39 84.8 0 0 352.52 932.11
  Q 351.88 931.98 350.78 931.98
  Q 349.67 931.98 349.03 932.10
  A 2.41 2.39 -84.7 0 0 347.26 933.59
  L 333.89 967.75
  A 0.96 0.96 0.0 0 0 334.79 969.06
  L 337.32 969.06
  A 2.34 2.33 10.4 0 0 339.51 967.56
  L 342.19 960.46
  A 1.21 1.21 0.0 0 1 343.33 959.67
  Q 344.10 959.67 350.75 959.68
  Z
  M 403.36 968.57
  L 395.43 954.85
  A 0.55 0.55 0.0 0 1 395.75 954.05
  C 406.87 950.77 406.18 935.68 395.32 932.89
  C 390.22 931.58 384.51 932.08 378.31 932.19
  A 0.86 0.86 0.0 0 0 377.46 933.05
  L 377.46 968.06
  A 0.92 0.92 0.0 0 0 378.38 968.98
  L 382.05 968.98
  A 0.87 0.87 0.0 0 0 382.92 968.11
  L 382.92 955.79
  A 0.73 0.73 0.0 0 1 383.65 955.06
  L 388.26 955.06
  A 2.32 2.29 -14.8 0 1 390.26 956.21
  L 397.07 968.00
  A 2.09 2.08 -14.9 0 0 398.88 969.05
  L 403.08 969.05
  A 0.32 0.32 0.0 0 0 403.36 968.57
  Z
  M 446.82 960.01
  C 448.80 969.22 459.25 971.75 467.05 968.86
  Q 472.32 966.90 473.57 962.20
  Q 475.11 956.39 471.46 952.83
  C 467.69 949.16 462.40 948.19 459.14 947.10
  C 453.73 945.29 450.85 939.14 457.99 936.87
  Q 462.40 935.46 465.87 938.41
  A 1.18 1.13 -88.7 0 1 466.08 938.64
  L 468.07 941.34
  A 1.44 1.39 -9.9 0 0 468.84 941.86
  Q 470.75 942.35 471.95 942.01
  A 1.46 1.45 72.2 0 0 472.92 940.11
  C 470.21 932.62 463.63 931.02 456.20 932.36
  C 451.76 933.17 447.65 937.71 448.17 942.48
  C 449.04 950.41 456.55 951.79 464.02 954.22
  Q 466.56 955.05 468.23 958.25
  A 1.61 1.60 -55.5 0 1 468.41 959.23
  Q 467.90 962.99 465.38 964.06
  Q 456.70 967.74 452.37 959.77
  A 1.09 1.07 75.3 0 0 451.43 959.21
  L 447.47 959.21
  A 0.66 0.66 0.0 0 0 446.82 960.01
  Z
  M 507.73 964.40
  A 0.81 0.81 0.0 0 1 506.92 963.59
  L 506.92 932.94
  A 0.81 0.81 0.0 0 0 506.11 932.13
  L 502.76 932.13
  A 0.81 0.81 0.0 0 0 501.95 932.94
  L 501.95 968.19
  A 0.81 0.81 0.0 0 0 502.76 969.00
  L 524.15 969.00
  A 0.81 0.81 0.0 0 0 524.96 968.19
  L 524.96 965.21
  A 0.81 0.81 0.0 0 0 524.15 964.40
  L 507.73 964.40
  Z
  M 569.49 950.85
  A 19.17 19.17 0.0 0 0 550.32 931.68
  A 19.17 19.17 0.0 0 0 531.15 950.85
  A 19.17 19.17 0.0 0 0 550.32 970.02
  A 19.17 19.17 0.0 0 0 569.49 950.85
  Z
  M 592.03 959.64
  Q 598.66 959.63 599.43 959.63
  A 1.21 1.20 -10.1 0 1 600.56 960.42
  L 603.24 967.50
  A 2.34 2.33 -10.4 0 0 605.42 969.01
  L 607.95 969.00
  A 0.96 0.96 0.0 0 0 608.84 967.69
  L 595.53 933.61
  A 2.41 2.39 84.8 0 0 593.76 932.12
  Q 593.12 932.00 592.02 932.00
  Q 590.92 932.00 590.28 932.13
  A 2.41 2.39 -84.8 0 0 588.51 933.62
  L 575.22 967.71
  A 0.96 0.96 0.0 0 0 576.12 969.01
  L 578.64 969.02
  A 2.34 2.33 10.3 0 0 580.83 967.51
  L 583.50 960.43
  A 1.21 1.20 10.0 0 1 584.63 959.64
  Q 585.40 959.64 592.03 959.64
  Z
  M 618.10 933.18
  L 617.98 968.06
  A 1.02 1.02 0.0 0 0 619.00 969.09
  L 632.40 969.13
  A 17.84 17.26 0.2 0 0 650.30 951.94
  L 650.30 949.54
  A 17.84 17.26 0.2 0 0 632.52 932.21
  L 619.12 932.17
  A 1.02 1.02 0.0 0 0 618.10 933.18
  Z
  M 693.12 933.09
  L 692.94 968.27
  A 0.84 0.84 0.0 0 0 693.77 969.11
  L 707.04 969.18
  A 17.97 17.74 0.3 0 0 725.11 951.53
  L 725.11 950.15
  A 17.97 17.74 0.3 0 0 707.24 932.32
  L 693.97 932.25
  A 0.84 0.84 0.0 0 0 693.12 933.09
  Z
  M 436.53 933.11
  A 0.94 0.94 0.0 0 0 435.59 932.17
  L 431.97 932.17
  A 0.94 0.94 0.0 0 0 431.03 933.11
  L 431.03 968.03
  A 0.94 0.94 0.0 0 0 431.97 968.97
  L 435.59 968.97
  A 0.94 0.94 0.0 0 0 436.53 968.03
  L 436.53 933.11
  Z
  M 682.26 968.94
  A 0.81 0.81 0.0 0 0 683.07 968.13
  L 683.07 965.20
  A 0.81 0.81 0.0 0 0 682.26 964.39
  L 666.78 964.39
  A 0.81 0.81 0.0 0 1 665.97 963.58
  L 665.97 953.71
  A 0.81 0.81 0.0 0 1 666.78 952.90
  L 681.14 952.90
  A 0.81 0.81 0.0 0 0 681.95 952.09
  L 681.95 948.86
  A 0.81 0.81 0.0 0 0 681.14 948.05
  L 666.79 948.05
  A 0.81 0.81 0.0 0 1 665.98 947.24
  L 665.98 937.80
  A 0.81 0.81 0.0 0 1 666.79 936.99
  L 682.17 936.99
  A 0.81 0.81 0.0 0 0 682.98 936.18
  L 682.98 932.97
  A 0.81 0.81 0.0 0 0 682.17 932.16
  L 661.37 932.16
  A 0.81 0.81 0.0 0 0 660.56 932.97
  L 660.56 968.13
  A 0.81 0.81 0.0 0 0 661.37 968.94
  L 682.26 968.94
  Z"
/>
<path fill="#ece7dd" d="
  M 512.01 528.11
  C 571.97 528.11 611.15 528.27 636.37 527.95
  A 0.50 0.50 0.0 0 0 636.86 527.45
  Q 636.92 507.80 636.85 449.31
  Q 636.83 436.23 648.99 436.03
  C 653.53 435.96 663.19 435.18 667.53 437.43
  Q 673.17 440.34 673.24 448.32
  Q 673.31 456.30 673.30 542.05
  Q 673.29 627.80 673.23 635.78
  Q 673.16 643.76 667.52 646.67
  C 663.18 648.91 653.52 648.13 648.98 648.06
  Q 636.82 647.86 636.84 634.78
  Q 636.92 576.29 636.86 556.64
  A 0.50 0.50 0.0 0 0 636.37 556.14
  C 611.14 555.82 571.97 555.96 512.01 555.96
  C 452.04 555.95 412.87 555.80 387.65 556.12
  A 0.50 0.50 0.0 0 0 387.15 556.62
  Q 387.09 576.27 387.16 634.76
  Q 387.18 647.84 375.02 648.04
  C 370.48 648.11 360.82 648.89 356.48 646.64
  Q 350.84 643.73 350.77 635.75
  Q 350.71 627.77 350.71 542.02
  Q 350.72 456.27 350.79 448.29
  Q 350.86 440.31 356.50 437.40
  C 360.84 435.15 370.50 435.93 375.04 436.01
  Q 387.20 436.21 387.18 449.29
  Q 387.10 507.78 387.15 527.43
  A 0.50 0.50 0.0 0 0 387.65 527.93
  C 412.87 528.25 452.04 528.10 512.01 528.11
  Z"
/>
<path fill="#ece7dd" d="
  M 305.77 556.43
  A 0.37 0.36 -1.7 0 0 305.41 556.10
  Q 257.05 555.80 224.00 556.05
  Q 221.47 556.07 217.25 555.83
  C 211.50 555.50 211.96 549.18 211.94 544.95
  Q 211.88 534.81 212.23 533.31
  C 213.25 528.96 216.32 528.19 220.77 528.16
  C 246.10 528.02 273.71 528.13 305.21 527.97
  A 0.78 0.78 0.0 0 0 305.98 527.19
  Q 305.92 502.61 305.98 477.98
  C 305.99 470.73 309.95 466.37 316.95 466.03
  Q 325.32 465.61 332.54 466.05
  C 341.47 466.59 342.15 473.09 342.14 480.76
  C 342.07 527.34 342.40 568.18 342.00 605.56
  Q 341.94 611.10 340.47 613.19
  Q 338.03 616.66 333.24 617.25
  Q 325.45 618.22 316.09 617.40
  C 306.49 616.57 305.98 609.65 305.97 601.75
  Q 305.93 582.24 306.04 562.75
  Q 306.06 559.38 305.77 556.43
  Z"
/>
<path fill="#ece7dd" d="
  M 718.69 527.90
  Q 720.30 528.04 722.50 528.05
  Q 769.95 528.18 798.93 527.99
  C 805.55 527.94 811.41 527.43 811.90 534.95
  Q 812.44 543.27 811.84 550.51
  Q 811.41 555.69 806.04 555.88
  Q 799.86 556.10 795.00 556.07
  Q 755.77 555.78 718.76 556.13
  A 0.80 0.79 89.6 0 0 717.98 556.93
  Q 718.10 586.64 717.97 602.11
  C 717.93 607.46 718.14 611.58 714.68 614.78
  C 710.39 618.75 697.45 618.00 690.70 617.13
  C 683.83 616.25 681.93 611.61 681.92 605.00
  Q 681.90 569.63 681.89 484.50
  Q 681.89 478.94 682.07 475.47
  C 682.48 467.08 688.38 465.81 695.92 465.85
  Q 701.21 465.88 705.26 465.86
  C 717.35 465.82 717.97 473.27 718.01 483.01
  Q 718.13 513.09 717.91 523.75
  Q 717.91 523.79 718.09 527.28
  A 0.66 0.66 0.0 0 0 718.69 527.90
  Z"
/>
<path fill="#ece7dd" d="
  M 490.26 825.13
  A 0.61 0.60 -86.8 0 1 490.86 824.59
  L 516.02 824.59
  A 0.71 0.70 -88.8 0 1 516.72 825.33
  C 515.94 848.76 508.15 869.67 482.47 874.44
  C 455.63 879.43 432.28 864.75 427.69 837.95
  Q 426.90 833.38 426.94 816.49
  Q 427.02 787.28 426.98 768.00
  C 426.94 745.06 438.33 725.89 462.21 721.69
  Q 464.69 721.26 470.07 721.00
  C 490.82 720.03 506.94 730.32 513.73 749.59
  C 515.97 755.94 516.58 763.66 516.91 770.18
  A 0.75 0.74 -1.5 0 1 516.16 770.96
  L 491.17 770.96
  A 1.15 1.14 1.4 0 1 490.02 769.76
  C 490.32 762.82 489.04 753.79 483.56 748.97
  C 478.34 744.38 468.20 743.92 462.56 747.95
  C 455.29 753.15 453.94 762.14 453.95 770.50
  Q 453.98 804.42 453.96 828.00
  Q 453.95 833.48 455.37 837.84
  C 458.32 846.95 466.64 852.06 476.14 850.33
  C 485.80 848.56 489.68 840.19 489.95 831.05
  Q 490.08 826.82 490.26 825.13
  Z"
/>
<path fill="#ece7dd" d="
  M 237.88 814.67
  L 237.88 871.97
  A 0.98 0.98 0.0 0 1 236.90 872.95
  L 212.01 872.95
  A 0.99 0.98 -90.0 0 1 211.03 871.96
  L 211.03 723.64
  A 0.57 0.57 0.0 0 1 211.60 723.07
  Q 239.08 722.93 256.50 723.01
  Q 263.32 723.04 267.22 723.48
  C 286.13 725.57 296.28 740.24 299.07 758.14
  C 300.91 769.93 300.68 785.29 295.03 795.28
  Q 289.88 804.39 278.10 809.80
  A 0.58 0.57 -24.3 0 0 277.81 810.55
  L 303.12 872.18
  A 0.58 0.57 -10.9 0 1 302.58 872.97
  L 276.52 872.97
  A 2.17 2.17 0.0 0 1 274.49 871.57
  L 253.17 814.86
  A 1.28 1.27 79.7 0 0 251.98 814.03
  L 238.51 814.03
  A 0.64 0.63 -90.0 0 0 237.88 814.67
  Z
  M 237.96 747.56
  L 237.82 790.12
  A 0.82 0.82 0.0 0 0 238.63 790.94
  L 256.71 791.01
  A 16.93 15.26 -89.8 0 0 272.03 774.13
  L 272.07 763.79
  A 16.93 15.26 -89.8 0 0 256.87 746.81
  L 238.79 746.74
  A 0.82 0.82 0.0 0 0 237.96 747.56
  Z"
/>
<path fill="#ece7dd" d="
  M 391.27 872.39
  L 384.37 842.29
  A 0.74 0.74 0.0 0 0 383.65 841.72
  L 349.73 841.72
  A 0.74 0.74 0.0 0 0 349.01 842.30
  L 342.14 872.38
  A 0.74 0.74 0.0 0 1 341.42 872.96
  L 315.98 872.96
  A 0.74 0.74 0.0 0 1 315.26 872.06
  L 349.15 723.55
  A 0.74 0.74 0.0 0 1 349.87 722.97
  L 383.89 722.97
  A 0.74 0.74 0.0 0 1 384.61 723.54
  L 418.67 872.05
  A 0.74 0.74 0.0 0 1 417.95 872.96
  L 391.99 872.96
  A 0.74 0.74 0.0 0 1 391.27 872.39
  Z
  M 366.54 818.00
  Q 376.02 818.03 379.44 818.02
  A 0.37 0.37 0.0 0 0 379.80 817.59
  Q 369.53 766.24 369.00 763.69
  Q 368.40 760.85 368.03 758.31
  Q 367.27 753.11 366.79 753.11
  Q 366.31 753.11 365.51 758.30
  Q 365.12 760.84 364.50 763.67
  Q 363.95 766.22 353.27 817.49
  A 0.37 0.37 0.0 0 0 353.63 817.92
  Q 357.05 817.96 366.54 818.00
  Z"
/>
<path fill="#ece7dd" d="
  M 561.29 788.38
  A 0.33 0.33 0.0 0 0 561.91 788.54
  L 597.03 723.97
  A 1.91 1.90 14.1 0 1 598.71 722.97
  L 627.14 722.97
  A 0.81 0.81 0.0 0 1 627.83 724.20
  L 591.20 784.92
  A 2.90 2.89 -42.1 0 0 591.06 787.63
  L 630.90 872.22
  A 0.53 0.53 0.0 0 1 630.42 872.97
  L 602.20 872.97
  A 2.23 2.22 -12.6 0 1 600.19 871.70
  L 572.46 812.80
  A 0.11 0.11 0.0 0 0 572.26 812.79
  Q 570.12 816.44 562.49 829.21
  Q 561.35 831.13 561.33 834.75
  Q 561.24 852.34 561.30 871.86
  A 1.07 1.07 0.0 0 1 560.23 872.93
  L 535.94 872.93
  A 0.89 0.89 0.0 0 1 535.05 872.04
  L 535.05 723.51
  A 0.52 0.52 0.0 0 1 535.57 722.99
  L 560.81 722.99
  A 0.49 0.48 90.0 0 1 561.29 723.48
  L 561.29 788.38
  Z"
/>
<rect fill="#ece7dd" x="687.07" y="722.98" width="26.90" height="149.92" rx="0.89"/>
<path fill="#ece7dd" d="
  M 759.03 871.96
  L 759.03 747.97
  A 0.97 0.97 0.0 0 0 758.06 747.00
  L 730.95 747.00
  A 0.97 0.97 0.0 0 1 729.98 746.03
  L 729.98 723.99
  A 0.97 0.97 0.0 0 1 730.95 723.02
  L 815.08 723.02
  A 0.97 0.97 0.0 0 1 816.05 723.99
  L 816.05 746.02
  A 0.97 0.97 0.0 0 1 815.08 746.99
  L 786.94 746.99
  A 0.97 0.97 0.0 0 0 785.97 747.96
  L 785.97 871.96
  A 0.97 0.97 0.0 0 1 785.00 872.93
  L 760.00 872.93
  A 0.97 0.97 0.0 0 1 759.03 871.96
  Z"
/>
<path fill="#080807" d="
  M 237.96 747.56
  A 0.82 0.82 0.0 0 1 238.79 746.74
  L 256.87 746.81
  A 16.93 15.26 -89.8 0 1 272.07 763.79
  L 272.03 774.13
  A 16.93 15.26 -89.8 0 1 256.71 791.01
  L 238.63 790.94
  A 0.82 0.82 0.0 0 1 237.82 790.12
  L 237.96 747.56
  Z"
/>
<path fill="#080807" d="
  M 366.79 753.11
  Q 367.27 753.11 368.03 758.31
  Q 368.40 760.85 369.00 763.69
  Q 369.53 766.24 379.80 817.59
  A 0.37 0.37 0.0 0 1 379.44 818.02
  Q 376.02 818.03 366.54 818.00
  Q 357.05 817.96 353.63 817.92
  A 0.37 0.37 0.0 0 1 353.27 817.49
  Q 363.95 766.22 364.50 763.67
  Q 365.12 760.84 365.51 758.30
  Q 366.31 753.11 366.79 753.11
  Z"
/>
<path fill="#ece7dd" d="
  M 320.98 949.77
  A 0.28 0.28 0.0 0 0 321.02 950.28
  Q 327.83 952.73 327.11 960.75
  Q 326.62 966.22 320.51 968.67
  A 4.13 4.01 -55.3 0 1 318.98 968.97
  L 301.32 968.97
  A 0.58 0.58 0.0 0 1 300.74 968.39
  L 300.74 932.74
  A 0.58 0.57 -0.5 0 1 301.31 932.17
  Q 308.22 932.06 313.98 932.19
  C 319.90 932.33 325.83 935.14 326.14 941.89
  Q 326.37 946.83 320.98 949.77
  Z
  M 305.92 938.28
  L 306.02 946.84
  A 1.25 1.25 0.0 0 0 307.29 948.08
  L 313.78 948.00
  A 7.14 5.32 -0.7 0 0 320.85 942.59
  L 320.85 942.17
  A 7.14 5.32 -0.7 0 0 313.64 936.94
  L 307.15 937.02
  A 1.25 1.25 0.0 0 0 305.92 938.28
  Z
  M 306.04 953.31
  L 305.95 963.61
  A 0.82 0.82 0.0 0 0 306.76 964.44
  L 314.01 964.50
  A 7.65 5.56 0.5 0 0 321.71 959.01
  L 321.71 958.19
  A 7.65 5.56 0.5 0 0 314.11 952.56
  L 306.86 952.50
  A 0.82 0.82 0.0 0 0 306.04 953.31
  Z"
/>
<path fill="#ece7dd" d="
  M 350.78 931.98
  Q 351.88 931.98 352.52 932.11
  A 2.41 2.39 84.8 0 1 354.29 933.60
  L 367.59 967.78
  A 0.96 0.96 0.0 0 1 366.69 969.09
  L 364.16 969.09
  A 2.34 2.33 -10.3 0 1 361.97 967.58
  L 359.30 960.48
  A 1.21 1.21 0.0 0 0 358.16 959.69
  Q 357.39 959.69 350.75 959.68
  Q 344.10 959.67 343.33 959.67
  A 1.21 1.21 0.0 0 0 342.19 960.46
  L 339.51 967.56
  A 2.34 2.33 10.4 0 1 337.32 969.06
  L 334.79 969.06
  A 0.96 0.96 0.0 0 1 333.89 967.75
  L 347.26 933.59
  A 2.41 2.39 -84.7 0 1 349.03 932.10
  Q 349.67 931.98 350.78 931.98
  Z
  M 344.45 954.44
  A 0.41 0.41 0.0 0 0 344.84 954.99
  L 356.70 954.99
  A 0.41 0.41 0.0 0 0 357.09 954.44
  L 351.16 938.12
  A 0.41 0.41 0.0 0 0 350.38 938.12
  L 344.45 954.44
  Z"
/>
<path fill="#ece7dd" d="
  M 403.36 968.57
  A 0.32 0.32 0.0 0 1 403.08 969.05
  L 398.88 969.05
  A 2.09 2.08 -14.9 0 1 397.07 968.00
  L 390.26 956.21
  A 2.32 2.29 -14.8 0 0 388.26 955.06
  L 383.65 955.06
  A 0.73 0.73 0.0 0 0 382.92 955.79
  L 382.92 968.11
  A 0.87 0.87 0.0 0 1 382.05 968.98
  L 378.38 968.98
  A 0.92 0.92 0.0 0 1 377.46 968.06
  L 377.46 933.05
  A 0.86 0.86 0.0 0 1 378.31 932.19
  C 384.51 932.08 390.22 931.58 395.32 932.89
  C 406.18 935.68 406.87 950.77 395.75 954.05
  A 0.55 0.55 0.0 0 0 395.43 954.85
  L 403.36 968.57
  Z
  M 382.91 937.93
  L 382.99 949.89
  A 0.93 0.93 0.0 0 0 383.93 950.82
  L 390.20 950.77
  A 8.02 6.80 -0.4 0 0 398.17 943.92
  L 398.17 943.70
  A 8.02 6.80 -0.4 0 0 390.10 936.95
  L 383.83 937.00
  A 0.93 0.93 0.0 0 0 382.91 937.93
  Z"
/>
<path fill="#ece7dd" d="
  M 447.47 959.21
  L 451.43 959.21
  A 1.09 1.07 75.3 0 1 452.37 959.77
  Q 456.70 967.74 465.38 964.06
  Q 467.90 962.99 468.41 959.23
  A 1.61 1.60 -55.5 0 0 468.23 958.25
  Q 466.56 955.05 464.02 954.22
  C 456.55 951.79 449.04 950.41 448.17 942.48
  C 447.65 937.71 451.76 933.17 456.20 932.36
  C 463.63 931.02 470.21 932.62 472.92 940.11
  A 1.46 1.45 72.2 0 1 471.95 942.01
  Q 470.75 942.35 468.84 941.86
  A 1.44 1.39 -9.9 0 1 468.07 941.34
  L 466.08 938.64
  A 1.18 1.13 -88.7 0 0 465.87 938.41
  Q 462.40 935.46 457.99 936.87
  C 450.85 939.14 453.73 945.29 459.14 947.10
  C 462.40 948.19 467.69 949.16 471.46 952.83
  Q 475.11 956.39 473.57 962.20
  Q 472.32 966.90 467.05 968.86
  C 459.25 971.75 448.80 969.22 446.82 960.01
  A 0.66 0.66 0.0 0 1 447.47 959.21
  Z"
/>
<path fill="#ece7dd" d="
  M 507.73 964.40
  L 524.15 964.40
  A 0.81 0.81 0.0 0 1 524.96 965.21
  L 524.96 968.19
  A 0.81 0.81 0.0 0 1 524.15 969.00
  L 502.76 969.00
  A 0.81 0.81 0.0 0 1 501.95 968.19
  L 501.95 932.94
  A 0.81 0.81 0.0 0 1 502.76 932.13
  L 506.11 932.13
  A 0.81 0.81 0.0 0 1 506.92 932.94
  L 506.92 963.59
  A 0.81 0.81 0.0 0 0 507.73 964.40
  Z"
/>
<path fill="#ece7dd" d="
  M 569.49 950.85
  A 19.17 19.17 0.0 0 1 550.32 970.02
  A 19.17 19.17 0.0 0 1 531.15 950.85
  A 19.17 19.17 0.0 0 1 550.32 931.68
  A 19.17 19.17 0.0 0 1 569.49 950.85
  Z
  M 551.3628 936.3735
  A 14.45 13.67 -86.1 0 0 536.7417 949.8602
  A 14.45 13.67 -86.1 0 0 549.3972 965.2065
  A 14.45 13.67 -86.1 0 0 564.0183 951.7198
  A 14.45 13.67 -86.1 0 0 551.3628 936.3735
  Z"
/>
<path fill="#ece7dd" d="
  M 592.03 959.64
  Q 585.40 959.64 584.63 959.64
  A 1.21 1.20 10.0 0 0 583.50 960.43
  L 580.83 967.51
  A 2.34 2.33 10.3 0 1 578.64 969.02
  L 576.12 969.01
  A 0.96 0.96 0.0 0 1 575.22 967.71
  L 588.51 933.62
  A 2.41 2.39 -84.8 0 1 590.28 932.13
  Q 590.92 932.00 592.02 932.00
  Q 593.12 932.00 593.76 932.12
  A 2.41 2.39 84.8 0 1 595.53 933.61
  L 608.84 967.69
  A 0.96 0.96 0.0 0 1 607.95 969.00
  L 605.42 969.01
  A 2.34 2.33 -10.4 0 1 603.24 967.50
  L 600.56 960.42
  A 1.21 1.20 -10.1 0 0 599.43 959.63
  Q 598.66 959.63 592.03 959.64
  Z
  M 585.59 954.53
  A 0.33 0.33 0.0 0 0 585.90 954.98
  L 598.08 955.02
  A 0.33 0.33 0.0 0 0 598.39 954.57
  L 592.36 938.08
  A 0.33 0.33 0.0 0 0 591.74 938.08
  L 585.59 954.53
  Z"
/>
<path fill="#ece7dd" d="
  M 618.10 933.18
  A 1.02 1.02 0.0 0 1 619.12 932.17
  L 632.52 932.21
  A 17.84 17.26 0.2 0 1 650.30 949.54
  L 650.30 951.94
  A 17.84 17.26 0.2 0 1 632.40 969.13
  L 619.00 969.09
  A 1.02 1.02 0.0 0 1 617.98 968.06
  L 618.10 933.18
  Z
  M 623.69 937.47
  L 623.59 963.83
  A 0.51 0.51 0.0 0 0 624.10 964.34
  L 631.35 964.37
  A 13.64 13.36 0.2 0 0 645.04 951.06
  L 645.04 950.40
  A 13.64 13.36 0.2 0 0 631.45 936.99
  L 624.20 936.96
  A 0.51 0.51 0.0 0 0 623.69 937.47
  Z"
/>
<path fill="#ece7dd" d="
  M 693.12 933.09
  A 0.84 0.84 0.0 0 1 693.97 932.25
  L 707.24 932.32
  A 17.97 17.74 0.3 0 1 725.11 950.15
  L 725.11 951.53
  A 17.97 17.74 0.3 0 1 707.04 969.18
  L 693.77 969.11
  A 0.84 0.84 0.0 0 1 692.94 968.27
  L 693.12 933.09
  Z
  M 698.81 937.37
  L 698.71 964.13
  A 0.26 0.26 0.0 0 0 698.97 964.39
  L 706.12 964.42
  A 13.51 12.97 0.2 0 0 719.68 951.50
  L 719.68 950.16
  A 13.51 12.97 0.2 0 0 706.22 937.14
  L 699.07 937.11
  A 0.26 0.26 0.0 0 0 698.81 937.37
  Z"
/>
<path fill="#ece7dd" d="
  M 436.53 968.03
  A 0.94 0.94 0.0 0 1 435.59 968.97
  L 431.97 968.97
  A 0.94 0.94 0.0 0 1 431.03 968.03
  L 431.03 933.11
  A 0.94 0.94 0.0 0 1 431.97 932.17
  L 435.59 932.17
  A 0.94 0.94 0.0 0 1 436.53 933.11
  L 436.53 968.03
  Z
  M 434.17 934.53
  A 0.20 0.20 0.0 0 0 433.97 934.33
  A 0.20 0.20 0.0 0 0 433.77 934.53
  L 433.77 967.37
  A 0.20 0.20 0.0 0 0 433.97 967.57
  A 0.20 0.20 0.0 0 0 434.17 967.37
  L 434.17 934.53
  Z"
/>
<path fill="#ece7dd" d="
  M 682.26 968.94
  L 661.37 968.94
  A 0.81 0.81 0.0 0 1 660.56 968.13
  L 660.56 932.97
  A 0.81 0.81 0.0 0 1 661.37 932.16
  L 682.17 932.16
  A 0.81 0.81 0.0 0 1 682.98 932.97
  L 682.98 936.18
  A 0.81 0.81 0.0 0 1 682.17 936.99
  L 666.79 936.99
  A 0.81 0.81 0.0 0 0 665.98 937.80
  L 665.98 947.24
  A 0.81 0.81 0.0 0 0 666.79 948.05
  L 681.14 948.05
  A 0.81 0.81 0.0 0 1 681.95 948.86
  L 681.95 952.09
  A 0.81 0.81 0.0 0 1 681.14 952.90
  L 666.78 952.90
  A 0.81 0.81 0.0 0 0 665.97 953.71
  L 665.97 963.58
  A 0.81 0.81 0.0 0 0 666.78 964.39
  L 682.26 964.39
  A 0.81 0.81 0.0 0 1 683.07 965.20
  L 683.07 968.13
  A 0.81 0.81 0.0 0 1 682.26 968.94
  Z"
/>
<rect fill="#080807" x="433.77" y="934.33" width="0.40" height="33.24" rx="0.20"/>
<ellipse fill="#080807" cx="0.00" cy="0.00" transform="translate(550.38,950.79) rotate(-86.1)" rx="14.45" ry="13.67"/>
<path fill="#080807" d="
  M 305.92 938.28
  A 1.25 1.25 0.0 0 1 307.15 937.02
  L 313.64 936.94
  A 7.14 5.32 -0.7 0 1 320.85 942.17
  L 320.85 942.59
  A 7.14 5.32 -0.7 0 1 313.78 948.00
  L 307.29 948.08
  A 1.25 1.25 0.0 0 1 306.02 946.84
  L 305.92 938.28
  Z"
/>
<path fill="#080807" d="
  M 382.91 937.93
  A 0.93 0.93 0.0 0 1 383.83 937.00
  L 390.10 936.95
  A 8.02 6.80 -0.4 0 1 398.17 943.70
  L 398.17 943.92
  A 8.02 6.80 -0.4 0 1 390.20 950.77
  L 383.93 950.82
  A 0.93 0.93 0.0 0 1 382.99 949.89
  L 382.91 937.93
  Z"
/>
<path fill="#080807" d="
  M 623.69 937.47
  A 0.51 0.51 0.0 0 1 624.20 936.96
  L 631.45 936.99
  A 13.64 13.36 0.2 0 1 645.04 950.40
  L 645.04 951.06
  A 13.64 13.36 0.2 0 1 631.35 964.37
  L 624.10 964.34
  A 0.51 0.51 0.0 0 1 623.59 963.83
  L 623.69 937.47
  Z"
/>
<path fill="#080807" d="
  M 698.81 937.37
  A 0.26 0.26 0.0 0 1 699.07 937.11
  L 706.22 937.14
  A 13.51 12.97 0.2 0 1 719.68 950.16
  L 719.68 951.50
  A 13.51 12.97 0.2 0 1 706.12 964.42
  L 698.97 964.39
  A 0.26 0.26 0.0 0 1 698.71 964.13
  L 698.81 937.37
  Z"
/>
<path fill="#080807" d="
  M 344.45 954.44
  L 350.38 938.12
  A 0.41 0.41 0.0 0 1 351.16 938.12
  L 357.09 954.44
  A 0.41 0.41 0.0 0 1 356.70 954.99
  L 344.84 954.99
  A 0.41 0.41 0.0 0 1 344.45 954.44
  Z"
/>
<path fill="#080807" d="
  M 585.59 954.53
  L 591.74 938.08
  A 0.33 0.33 0.0 0 1 592.36 938.08
  L 598.39 954.57
  A 0.33 0.33 0.0 0 1 598.08 955.02
  L 585.90 954.98
  A 0.33 0.33 0.0 0 1 585.59 954.53
  Z"
/>
<path fill="#080807" d="
  M 306.04 953.31
  A 0.82 0.82 0.0 0 1 306.86 952.50
  L 314.11 952.56
  A 7.65 5.56 0.5 0 1 321.71 958.19
  L 321.71 959.01
  A 7.65 5.56 0.5 0 1 314.01 964.50
  L 306.76 964.44
  A 0.82 0.82 0.0 0 1 305.95 963.61
  L 306.04 953.31
  Z"
/>
</svg>
