<?xml version="1.0" encoding="UTF-8" standalone="no"?>
<!DOCTYPE svg PUBLIC "-//W3C//DTD SVG 1.1//EN" "http://www.w3.org/Graphics/SVG/1.1/DTD/svg11.dtd">
<svg xmlns="http://www.w3.org/2000/svg" version="1.1" viewBox="0.00 0.00 1024.00 1024.00">
<g stroke-width="2.00" fill="none" stroke-linecap="butt">
<path stroke="#0f0f10" vector-effect="non-scaling-stroke" d="
  M 730.69 195.33
  C 711.03 172.69 688.63 152.39 663.74 136.01
  Q 641.18 121.16 616.76 110.50
  Q 554.01 83.09 485.27 87.59
  Q 482.65 87.76 478.68 87.97
  Q 474.50 88.19 472.09 88.50
  Q 453.10 91.01 436.40 94.56
  Q 430.72 95.77 426.12 97.08
  C 417.38 99.58 409.25 101.64 400.79 104.59
  Q 313.18 135.17 249.57 202.57
  Q 215.05 239.15 192.10 280.83
  Q 151.48 354.57 141.86 439.70
  Q 140.45 452.23 139.54 467.74
  Q 138.15 491.36 139.19 503.31
  C 139.83 510.70 139.70 518.17 140.45 524.90
  Q 143.68 553.71 148.17 571.45
  Q 153.61 592.90 158.00 606.54
  C 164.09 625.44 173.12 645.80 183.70 664.63
  Q 191.03 677.69 192.66 680.37
  Q 201.39 694.72 210.29 706.24
  C 217.25 715.23 222.83 722.62 229.74 729.81
  Q 248.78 749.57 255.94 755.81
  Q 294.22 789.17 341.23 809.70
  Q 360.88 818.28 382.53 823.87
  C 405.78 829.87 428.88 833.76 452.28 834.68
  Q 467.81 835.29 479.25 834.71
  Q 510.68 833.11 540.67 825.07
  Q 568.28 817.66 598.51 802.27
  C 631.43 785.50 661.51 764.82 688.99 740.49
  Q 701.14 729.73 708.83 721.58
  C 714.14 715.96 721.77 707.77 727.35 701.13
  Q 780.39 637.97 803.70 556.97
  Q 814.65 518.96 818.50 483.86
  Q 819.01 479.19 819.02 478.68
  C 819.07 474.14 819.92 470.81 820.03 465.65
  Q 820.13 460.80 820.82 453.49
  C 821.43 446.97 821.20 440.27 820.94 432.53
  Q 820.68 424.58 819.53 410.24
  C 816.33 370.16 807.32 330.12 791.84 292.64
  Q 782.96 271.14 769.18 248.60
  Q 750.76 218.46 730.69 195.33"
/>
<path stroke="#0f0f10" vector-effect="non-scaling-stroke" d="
  M 660.27 118.43
  A 0.17 0.17 0.0 0 0 660.14 118.74
  C 675.55 127.23 687.17 136.22 702.97 149.03
  Q 716.01 159.60 727.05 171.03
  Q 744.59 189.20 761.16 210.99
  Q 777.21 232.09 789.55 255.13
  Q 804.65 283.29 813.35 307.34
  C 826.77 344.44 833.54 381.60 835.50 420.26
  Q 836.26 435.24 835.87 461.99
  Q 835.67 475.75 832.34 501.19
  Q 831.14 510.34 828.46 522.17
  Q 823.96 542.04 823.70 542.96
  Q 808.77 595.82 782.14 644.65
  Q 778.34 651.62 772.63 660.79
  Q 765.19 672.75 762.58 676.60
  Q 743.17 705.19 723.69 725.44
  Q 706.14 743.70 693.59 754.33
  Q 657.94 784.55 615.82 808.32
  C 592.65 821.40 568.88 832.43 543.11 838.55
  Q 536.09 840.22 529.18 841.18
  Q 529.13 841.19 529.08 841.20
  L 525.22 842.38
  A 0.09 0.09 0.0 0 0 525.17 842.49
  L 525.26 842.80
  A 0.21 0.20 78.3 0 0 525.48 842.95
  Q 564.89 838.91 601.42 828.39
  C 638.00 817.86 671.54 801.54 702.39 780.63
  Q 716.70 770.92 733.99 756.20
  Q 749.39 743.08 762.69 728.44
  Q 780.23 709.15 791.83 693.34
  Q 820.25 654.61 839.74 607.29
  Q 860.67 556.48 867.67 495.94
  Q 869.60 479.30 869.82 470.12
  C 870.15 456.68 870.32 440.80 869.56 428.63
  Q 866.29 376.67 849.67 326.79
  Q 841.24 301.48 828.49 276.83
  Q 815.80 252.28 800.34 230.41
  Q 796.76 225.36 793.72 221.52
  Q 793.05 220.67 787.85 214.02
  Q 770.42 191.71 748.71 173.10
  Q 744.77 169.72 738.60 165.15
  C 727.81 157.14 717.12 149.26 705.64 142.35
  Q 686.36 130.74 667.45 121.30
  Q 663.79 119.48 660.27 118.43"
/>
<path stroke="#0f0f10" vector-effect="non-scaling-stroke" d="
  M 692.06 207.13
  C 684.79 200.40 680.80 196.14 674.43 190.97
  Q 662.51 181.30 658.32 178.19
  C 622.55 151.72 578.76 132.36 535.10 126.52
  C 526.97 125.43 520.67 124.46 511.73 124.20
  C 498.64 123.82 484.20 123.72 470.89 125.22
  Q 458.11 126.67 452.43 127.42
  Q 423.72 131.21 396.90 140.91
  Q 367.21 151.64 341.39 166.38
  Q 315.27 181.28 291.63 202.13
  C 256.78 232.87 227.86 269.31 207.10 310.51
  Q 179.93 364.46 170.28 422.96
  Q 166.88 443.59 166.04 456.27
  Q 162.95 502.82 171.77 549.05
  Q 178.00 581.68 191.07 612.23
  Q 204.49 643.62 222.69 670.22
  Q 257.44 720.99 308.58 755.03
  Q 333.43 771.57 360.70 781.51
  Q 395.07 794.03 434.52 797.77
  Q 437.91 798.10 440.97 798.04
  C 446.47 797.94 451.00 798.63 457.08 798.56
  C 479.41 798.30 500.26 796.50 521.05 791.77
  Q 532.39 789.18 538.24 787.46
  Q 582.70 774.36 622.63 748.15
  Q 653.27 728.03 678.01 703.72
  Q 694.69 687.34 709.12 668.58
  Q 723.44 649.96 735.52 629.79
  Q 766.29 578.41 777.34 521.12
  Q 782.56 494.11 783.82 473.79
  Q 785.34 449.20 783.97 417.10
  Q 783.55 407.11 782.01 394.95
  Q 780.27 381.12 778.78 372.94
  C 770.17 325.74 751.50 279.51 722.23 241.22
  Q 715.60 232.53 713.84 230.40
  Q 711.81 227.92 703.16 218.42
  Q 697.23 211.92 692.06 207.13"
/>
<path stroke="#0f0f10" vector-effect="non-scaling-stroke" d="
  M 451.41 140.79
  A 0.28 0.27 78.7 0 0 451.10 140.58
  Q 436.09 142.87 420.23 147.44
  Q 396.74 154.19 378.69 162.45
  Q 361.11 170.49 339.88 183.88
  C 303.00 207.14 270.99 237.09 245.31 272.81
  Q 229.18 295.24 217.63 319.63
  Q 195.34 366.69 185.72 418.23
  C 181.56 440.56 179.89 462.99 179.27 485.32
  C 179.10 491.66 179.73 497.38 179.83 503.01
  Q 179.94 508.94 180.78 516.24
  Q 182.65 532.49 185.73 548.75
  Q 192.69 585.52 208.66 619.35
  Q 222.28 648.18 238.93 670.83
  Q 274.09 718.66 325.83 749.66
  Q 339.56 757.88 353.92 763.84
  Q 367.36 769.43 385.62 775.23
  A 0.42 0.41 18.0 0 0 386.14 774.97
  L 386.15 774.95
  A 0.46 0.45 -70.6 0 0 385.88 774.37
  Q 374.56 770.25 368.47 767.75
  Q 364.64 766.18 353.13 760.02
  Q 344.80 755.55 338.54 751.00
  Q 336.38 749.43 326.71 742.63
  C 321.54 739.00 314.98 733.28 310.88 729.87
  Q 306.87 726.55 292.97 712.50
  Q 284.12 703.56 276.31 693.90
  C 239.48 648.31 214.75 593.90 206.30 536.02
  Q 202.36 509.11 202.00 494.47
  Q 201.54 475.89 201.94 467.50
  C 203.55 432.98 209.98 398.82 221.53 366.29
  C 229.93 342.66 238.41 322.50 249.56 303.04
  C 269.63 267.98 294.82 235.50 324.55 209.03
  C 338.65 196.47 352.85 185.47 370.01 175.29
  Q 408.68 152.35 451.16 141.21
  A 0.34 0.34 0.0 0 0 451.41 140.81
  L 451.41 140.79"
/>
<path stroke="#0f0f10" vector-effect="non-scaling-stroke" d="
  M 215.62 477.19
  Q 215.28 498.23 216.54 509.87
  Q 216.75 511.85 217.80 521.82
  Q 221.93 561.17 236.95 600.36
  Q 246.60 625.56 260.37 647.64
  Q 270.92 664.57 277.51 673.24
  C 302.33 705.90 333.03 732.50 369.47 751.54
  Q 403.76 769.45 438.90 776.02
  Q 452.09 778.49 464.24 779.02
  C 480.99 779.76 497.72 778.98 515.23 775.69
  Q 556.68 767.90 594.48 746.96
  C 614.62 735.81 634.04 723.19 651.33 708.09
  C 671.95 690.09 691.53 669.08 707.81 645.89
  Q 722.77 624.58 733.04 604.93
  Q 753.17 566.45 761.76 522.54
  Q 767.63 492.54 768.96 460.77
  Q 769.09 457.77 769.07 439.13
  Q 769.06 426.25 768.43 417.47
  Q 765.42 375.10 752.89 334.83
  C 742.40 301.13 725.98 269.84 703.46 242.81
  Q 688.70 225.08 679.92 217.32
  Q 665.31 204.39 656.20 197.30
  Q 643.31 187.27 626.81 177.60
  C 603.16 163.75 577.53 154.72 550.35 150.61
  Q 539.90 149.03 523.10 148.91
  Q 504.59 148.78 495.76 149.30
  Q 473.47 150.64 449.94 156.40
  Q 436.25 159.75 425.05 164.03
  Q 365.75 186.71 320.20 232.94
  Q 309.81 243.49 308.23 245.23
  C 250.57 308.82 216.97 391.16 215.62 477.19"
/>
<path stroke="#0f0f10" vector-effect="non-scaling-stroke" d="
  M 365.93 561.08
  Q 383.12 584.11 408.79 599.90
  Q 438.64 618.26 477.12 621.03
  Q 478.72 621.15 484.36 621.12
  C 490.54 621.08 496.72 621.33 502.39 620.70
  Q 529.36 617.70 551.36 605.33
  Q 582.05 588.06 605.04 560.22
  C 626.11 534.71 639.20 501.62 641.87 469.22
  Q 643.02 455.28 643.00 452.53
  Q 642.92 444.24 641.19 431.31
  Q 635.77 390.97 611.13 358.87
  C 607.08 353.59 601.75 347.28 598.22 343.79
  Q 572.28 318.19 537.44 306.83
  Q 527.43 303.57 518.50 302.31
  C 511.31 301.29 506.14 300.36 499.69 300.13
  Q 483.16 299.54 465.71 302.79
  Q 449.12 305.87 433.35 313.29
  C 413.04 322.85 394.38 336.34 379.25 353.19
  Q 373.00 360.15 369.84 364.12
  C 347.09 392.65 335.40 428.24 335.97 464.82
  C 336.05 469.73 336.67 474.68 336.84 478.50
  Q 337.13 485.07 337.71 488.73
  Q 341.94 515.33 350.60 534.18
  Q 358.21 550.75 365.93 561.08"
/>
<path stroke="#0f0f10" vector-effect="non-scaling-stroke" d="
  M 380.93 552.25
  C 394.16 569.42 412.54 583.05 433.03 589.69
  Q 443.76 593.17 449.76 594.01
  C 456.71 594.99 464.96 595.98 471.11 596.04
  Q 501.96 596.32 528.17 580.43
  Q 546.03 569.61 558.94 555.46
  Q 580.34 532.01 591.66 501.95
  Q 600.20 479.28 600.72 454.43
  Q 601.15 433.59 596.48 413.74
  Q 590.28 387.39 574.38 365.43
  Q 564.90 352.33 552.72 343.50
  Q 530.54 327.42 506.18 321.87
  Q 495.48 319.43 478.93 319.51
  C 470.08 319.55 459.47 321.62 451.63 324.14
  Q 423.95 333.01 402.10 352.37
  Q 361.72 388.14 353.07 441.13
  C 351.45 451.05 351.84 459.74 351.87 471.12
  Q 351.89 482.33 354.18 493.46
  Q 358.68 515.41 369.23 534.22
  Q 375.10 544.67 380.93 552.25"
/>
<path stroke="#0f0f10" vector-effect="non-scaling-stroke" d="
  M 569.60 337.54
  Q 569.74 337.94 570.07 338.20
  Q 574.82 341.86 578.90 346.56
  C 589.82 359.18 598.74 372.13 604.70 387.56
  Q 611.93 406.25 615.00 427.14
  C 616.94 440.29 616.45 455.00 614.88 468.24
  C 613.03 483.84 609.30 498.27 602.70 512.68
  Q 597.71 523.57 595.22 527.98
  Q 578.98 556.80 554.45 578.01
  C 541.33 589.37 525.45 598.48 509.58 603.48
  Q 506.56 604.44 504.05 605.38
  A 0.23 0.23 0.0 0 0 504.16 605.83
  C 510.29 605.22 518.83 602.64 522.60 601.61
  C 530.50 599.44 540.59 594.39 549.73 589.25
  Q 555.87 585.79 556.76 585.22
  Q 574.01 574.20 586.20 560.98
  Q 614.56 530.18 624.49 488.76
  Q 625.77 483.41 626.55 476.69
  Q 627.71 466.64 627.80 464.50
  Q 627.88 462.29 627.91 450.16
  C 627.94 431.53 624.24 412.11 617.96 396.27
  C 608.57 372.60 590.87 351.76 569.90 337.31
  A 0.20 0.20 0.0 0 0 569.60 337.54"
/>
<path stroke="#0f0f10" vector-effect="non-scaling-stroke" d="
  M 405.18 514.61
  Q 415.54 531.35 431.81 539.62
  C 455.27 551.56 486.08 554.55 509.09 539.58
  Q 520.35 532.25 525.46 527.74
  Q 555.07 501.67 558.52 461.91
  C 560.14 443.15 557.88 422.99 549.39 406.26
  C 537.75 383.34 517.10 370.23 492.08 365.19
  C 484.58 363.68 474.27 363.79 467.53 364.39
  C 448.91 366.06 433.13 375.43 419.49 388.25
  Q 413.96 393.44 408.98 400.98
  C 388.72 431.65 385.62 471.06 399.69 504.38
  Q 401.48 508.62 405.18 514.61"
/>
<path stroke="#0f0f10" vector-effect="non-scaling-stroke" d="
  M 496.89 382.24
  C 480.92 377.59 462.38 380.09 447.88 386.91
  C 425.83 397.30 411.96 420.29 408.60 444.19
  C 407.58 451.43 407.67 461.81 407.97 468.50
  Q 408.98 491.06 421.25 509.44
  C 430.67 523.55 443.78 530.03 460.25 533.36
  Q 460.82 533.48 462.43 533.01
  A 0.24 0.24 0.0 0 0 462.50 532.59
  Q 451.74 524.76 447.00 516.40
  Q 436.64 498.14 435.33 474.13
  C 434.49 458.76 435.86 443.51 442.44 429.38
  Q 448.84 415.66 460.71 403.13
  C 470.06 393.26 483.11 385.15 496.86 382.82
  A 0.30 0.30 0.0 0 0 496.89 382.24"
/>
</g>
<path fill="#000000" d="
  M 320.93 819.34
  C 316.88 817.33 313.54 815.35 310.39 813.61
  Q 245.88 777.97 200.80 719.44
  Q 175.86 687.07 159.12 650.91
  Q 142.43 614.85 133.54 576.00
  Q 128.33 553.23 125.42 525.81
  C 124.93 521.27 125.17 517.25 124.49 513.07
  Q 124.20 511.34 124.12 507.99
  Q 123.46 482.12 123.98 463.10
  Q 124.12 457.89 124.79 450.93
  Q 125.80 440.40 125.91 438.77
  Q 126.11 435.82 126.84 430.24
  Q 127.56 424.77 128.00 421.75
  Q 132.38 391.62 140.89 361.92
  Q 151.94 323.32 170.80 286.80
  Q 188.11 253.26 209.12 225.88
  Q 226.80 202.84 247.31 182.12
  C 283.29 145.76 326.53 117.08 373.84 97.37
  Q 386.60 92.05 404.55 86.35
  Q 432.11 77.59 464.91 73.31
  C 467.63 72.95 470.44 73.04 473.09 72.35
  A 7.78 7.70 -52.4 0 1 475.00 72.09
  C 481.38 72.03 486.91 71.10 492.92 71.05
  Q 507.14 70.91 518.93 71.05
  Q 521.05 71.07 529.56 71.64
  C 535.83 72.07 539.64 72.09 543.92 72.51
  Q 573.09 75.31 597.41 80.59
  Q 648.96 91.78 693.84 116.96
  Q 729.46 136.95 757.10 160.97
  Q 762.02 165.25 765.80 168.70
  Q 803.88 203.43 831.94 250.05
  Q 856.63 291.07 870.49 338.29
  Q 881.90 377.16 885.32 413.94
  Q 885.35 414.26 885.70 415.72
  A 6.56 6.38 37.8 0 1 885.85 416.79
  Q 886.00 419.59 886.80 431.76
  Q 888.20 452.94 886.63 473.00
  Q 885.90 482.36 885.93 483.03
  C 886.04 486.56 885.15 489.13 885.04 492.37
  Q 885.00 493.50 884.71 496.12
  Q 879.39 543.63 863.28 589.11
  Q 844.32 642.64 812.31 690.08
  Q 792.84 718.93 769.09 744.09
  Q 699.39 817.93 601.80 845.85
  C 594.34 847.99 585.05 850.08 577.54 851.77
  Q 572.02 853.01 555.66 855.62
  Q 553.33 855.99 551.31 856.05
  C 549.30 856.10 547.57 856.85 545.54 856.91
  Q 541.28 857.05 540.14 857.26
  C 534.85 858.24 530.50 858.02 524.09 858.59
  Q 519.34 859.01 513.40 859.00
  Q 493.75 858.97 485.63 858.98
  C 479.51 858.99 473.08 857.91 466.13 857.88
  A 7.27 7.20 -37.1 0 1 464.40 857.65
  C 461.17 856.81 456.75 857.26 453.60 856.45
  C 451.60 855.93 449.49 856.07 447.13 855.78
  Q 421.99 852.72 397.48 847.04
  Q 358.31 837.96 320.93 819.34
  Z
  M 730.69 195.33
  C 711.03 172.69 688.63 152.39 663.74 136.01
  Q 641.18 121.16 616.76 110.50
  Q 554.01 83.09 485.27 87.59
  Q 482.65 87.76 478.68 87.97
  Q 474.50 88.19 472.09 88.50
  Q 453.10 91.01 436.40 94.56
  Q 430.72 95.77 426.12 97.08
  C 417.38 99.58 409.25 101.64 400.79 104.59
  Q 313.18 135.17 249.57 202.57
  Q 215.05 239.15 192.10 280.83
  Q 151.48 354.57 141.86 439.70
  Q 140.45 452.23 139.54 467.74
  Q 138.15 491.36 139.19 503.31
  C 139.83 510.70 139.70 518.17 140.45 524.90
  Q 143.68 553.71 148.17 571.45
  Q 153.61 592.90 158.00 606.54
  C 164.09 625.44 173.12 645.80 183.70 664.63
  Q 191.03 677.69 192.66 680.37
  Q 201.39 694.72 210.29 706.24
  C 217.25 715.23 222.83 722.62 229.74 729.81
  Q 248.78 749.57 255.94 755.81
  Q 294.22 789.17 341.23 809.70
  Q 360.88 818.28 382.53 823.87
  C 405.78 829.87 428.88 833.76 452.28 834.68
  Q 467.81 835.29 479.25 834.71
  Q 510.68 833.11 540.67 825.07
  Q 568.28 817.66 598.51 802.27
  C 631.43 785.50 661.51 764.82 688.99 740.49
  Q 701.14 729.73 708.83 721.58
  C 714.14 715.96 721.77 707.77 727.35 701.13
  Q 780.39 637.97 803.70 556.97
  Q 814.65 518.96 818.50 483.86
  Q 819.01 479.19 819.02 478.68
  C 819.07 474.14 819.92 470.81 820.03 465.65
  Q 820.13 460.80 820.82 453.49
  C 821.43 446.97 821.20 440.27 820.94 432.53
  Q 820.68 424.58 819.53 410.24
  C 816.33 370.16 807.32 330.12 791.84 292.64
  Q 782.96 271.14 769.18 248.60
  Q 750.76 218.46 730.69 195.33
  Z
  M 660.27 118.43
  A 0.17 0.17 0.0 0 0 660.14 118.74
  C 675.55 127.23 687.17 136.22 702.97 149.03
  Q 716.01 159.60 727.05 171.03
  Q 744.59 189.20 761.16 210.99
  Q 777.21 232.09 789.55 255.13
  Q 804.65 283.29 813.35 307.34
  C 826.77 344.44 833.54 381.60 835.50 420.26
  Q 836.26 435.24 835.87 461.99
  Q 835.67 475.75 832.34 501.19
  Q 831.14 510.34 828.46 522.17
  Q 823.96 542.04 823.70 542.96
  Q 808.77 595.82 782.14 644.65
  Q 778.34 651.62 772.63 660.79
  Q 765.19 672.75 762.58 676.60
  Q 743.17 705.19 723.69 725.44
  Q 706.14 743.70 693.59 754.33
  Q 657.94 784.55 615.82 808.32
  C 592.65 821.40 568.88 832.43 543.11 838.55
  Q 536.09 840.22 529.18 841.18
  Q 529.13 841.19 529.08 841.20
  L 525.22 842.38
  A 0.09 0.09 0.0 0 0 525.17 842.49
  L 525.26 842.80
  A 0.21 0.20 78.3 0 0 525.48 842.95
  Q 564.89 838.91 601.42 828.39
  C 638.00 817.86 671.54 801.54 702.39 780.63
  Q 716.70 770.92 733.99 756.20
  Q 749.39 743.08 762.69 728.44
  Q 780.23 709.15 791.83 693.34
  Q 820.25 654.61 839.74 607.29
  Q 860.67 556.48 867.67 495.94
  Q 869.60 479.30 869.82 470.12
  C 870.15 456.68 870.32 440.80 869.56 428.63
  Q 866.29 376.67 849.67 326.79
  Q 841.24 301.48 828.49 276.83
  Q 815.80 252.28 800.34 230.41
  Q 796.76 225.36 793.72 221.52
  Q 793.05 220.67 787.85 214.02
  Q 770.42 191.71 748.71 173.10
  Q 744.77 169.72 738.60 165.15
  C 727.81 157.14 717.12 149.26 705.64 142.35
  Q 686.36 130.74 667.45 121.30
  Q 663.79 119.48 660.27 118.43
  Z"
/>
<path fill="#1e1e1f" d="
  M 663.74 136.01
  C 688.63 152.39 711.03 172.69 730.69 195.33
  Q 750.76 218.46 769.18 248.60
  Q 782.96 271.14 791.84 292.64
  C 807.32 330.12 816.33 370.16 819.53 410.24
  Q 820.68 424.58 820.94 432.53
  C 821.20 440.27 821.43 446.97 820.82 453.49
  Q 820.13 460.80 820.03 465.65
  C 819.92 470.81 819.07 474.14 819.02 478.68
  Q 819.01 479.19 818.50 483.86
  Q 814.65 518.96 803.70 556.97
  Q 780.39 637.97 727.35 701.13
  C 721.77 707.77 714.14 715.96 708.83 721.58
  Q 701.14 729.73 688.99 740.49
  C 661.51 764.82 631.43 785.50 598.51 802.27
  Q 568.28 817.66 540.67 825.07
  Q 510.68 833.11 479.25 834.71
  Q 467.81 835.29 452.28 834.68
  C 428.88 833.76 405.78 829.87 382.53 823.87
  Q 360.88 818.28 341.23 809.70
  Q 294.22 789.17 255.94 755.81
  Q 248.78 749.57 229.74 729.81
  C 222.83 722.62 217.25 715.23 210.29 706.24
  Q 201.39 694.72 192.66 680.37
  Q 191.03 677.69 183.70 664.63
  C 173.12 645.80 164.09 625.44 158.00 606.54
  Q 153.61 592.90 148.17 571.45
  Q 143.68 553.71 140.45 524.90
  C 139.70 518.17 139.83 510.70 139.19 503.31
  Q 138.15 491.36 139.54 467.74
  Q 140.45 452.23 141.86 439.70
  Q 151.48 354.57 192.10 280.83
  Q 215.05 239.15 249.57 202.57
  Q 313.18 135.17 400.79 104.59
  C 409.25 101.64 417.38 99.58 426.12 97.08
  Q 430.72 95.77 436.40 94.56
  Q 453.10 91.01 472.09 88.50
  Q 474.50 88.19 478.68 87.97
  Q 482.65 87.76 485.27 87.59
  Q 554.01 83.09 616.76 110.50
  Q 641.18 121.16 663.74 136.01
  Z
  M 692.06 207.13
  C 684.79 200.40 680.80 196.14 674.43 190.97
  Q 662.51 181.30 658.32 178.19
  C 622.55 151.72 578.76 132.36 535.10 126.52
  C 526.97 125.43 520.67 124.46 511.73 124.20
  C 498.64 123.82 484.20 123.72 470.89 125.22
  Q 458.11 126.67 452.43 127.42
  Q 423.72 131.21 396.90 140.91
  Q 367.21 151.64 341.39 166.38
  Q 315.27 181.28 291.63 202.13
  C 256.78 232.87 227.86 269.31 207.10 310.51
  Q 179.93 364.46 170.28 422.96
  Q 166.88 443.59 166.04 456.27
  Q 162.95 502.82 171.77 549.05
  Q 178.00 581.68 191.07 612.23
  Q 204.49 643.62 222.69 670.22
  Q 257.44 720.99 308.58 755.03
  Q 333.43 771.57 360.70 781.51
  Q 395.07 794.03 434.52 797.77
  Q 437.91 798.10 440.97 798.04
  C 446.47 797.94 451.00 798.63 457.08 798.56
  C 479.41 798.30 500.26 796.50 521.05 791.77
  Q 532.39 789.18 538.24 787.46
  Q 582.70 774.36 622.63 748.15
  Q 653.27 728.03 678.01 703.72
  Q 694.69 687.34 709.12 668.58
  Q 723.44 649.96 735.52 629.79
  Q 766.29 578.41 777.34 521.12
  Q 782.56 494.11 783.82 473.79
  Q 785.34 449.20 783.97 417.10
  Q 783.55 407.11 782.01 394.95
  Q 780.27 381.12 778.78 372.94
  C 770.17 325.74 751.50 279.51 722.23 241.22
  Q 715.60 232.53 713.84 230.40
  Q 711.81 227.92 703.16 218.42
  Q 697.23 211.92 692.06 207.13
  Z"
/>
<path fill="#1e1e1f" d="
  M 660.27 118.43
  Q 663.79 119.48 667.45 121.30
  Q 686.36 130.74 705.64 142.35
  C 717.12 149.26 727.81 157.14 738.60 165.15
  Q 744.77 169.72 748.71 173.10
  Q 770.42 191.71 787.85 214.02
  Q 793.05 220.67 793.72 221.52
  Q 796.76 225.36 800.34 230.41
  Q 815.80 252.28 828.49 276.83
  Q 841.24 301.48 849.67 326.79
  Q 866.29 376.67 869.56 428.63
  C 870.32 440.80 870.15 456.68 869.82 470.12
  Q 869.60 479.30 867.67 495.94
  Q 860.67 556.48 839.74 607.29
  Q 820.25 654.61 791.83 693.34
  Q 780.23 709.15 762.69 728.44
  Q 749.39 743.08 733.99 756.20
  Q 716.70 770.92 702.39 780.63
  C 671.54 801.54 638.00 817.86 601.42 828.39
  Q 564.89 838.91 525.48 842.95
  A 0.21 0.20 78.3 0 1 525.26 842.80
  L 525.17 842.49
  A 0.09 0.09 0.0 0 1 525.22 842.38
  L 529.08 841.20
  Q 529.13 841.19 529.18 841.18
  Q 536.09 840.22 543.11 838.55
  C 568.88 832.43 592.65 821.40 615.82 808.32
  Q 657.94 784.55 693.59 754.33
  Q 706.14 743.70 723.69 725.44
  Q 743.17 705.19 762.58 676.60
  Q 765.19 672.75 772.63 660.79
  Q 778.34 651.62 782.14 644.65
  Q 808.77 595.82 823.70 542.96
  Q 823.96 542.04 828.46 522.17
  Q 831.14 510.34 832.34 501.19
  Q 835.67 475.75 835.87 461.99
  Q 836.26 435.24 835.50 420.26
  C 833.54 381.60 826.77 344.44 813.35 307.34
  Q 804.65 283.29 789.55 255.13
  Q 777.21 232.09 761.16 210.99
  Q 744.59 189.20 727.05 171.03
  Q 716.01 159.60 702.97 149.03
  C 687.17 136.22 675.55 127.23 660.14 118.74
  A 0.17 0.17 0.0 0 1 660.27 118.43
  Z"
/>
<path fill="#000000" d="
  M 703.16 218.42
  Q 711.81 227.92 713.84 230.40
  Q 715.60 232.53 722.23 241.22
  C 751.50 279.51 770.17 325.74 778.78 372.94
  Q 780.27 381.12 782.01 394.95
  Q 783.55 407.11 783.97 417.10
  Q 785.34 449.20 783.82 473.79
  Q 782.56 494.11 777.34 521.12
  Q 766.29 578.41 735.52 629.79
  Q 723.44 649.96 709.12 668.58
  Q 694.69 687.34 678.01 703.72
  Q 653.27 728.03 622.63 748.15
  Q 582.70 774.36 538.24 787.46
  Q 532.39 789.18 521.05 791.77
  C 500.26 796.50 479.41 798.30 457.08 798.56
  C 451.00 798.63 446.47 797.94 440.97 798.04
  Q 437.91 798.10 434.52 797.77
  Q 395.07 794.03 360.70 781.51
  Q 333.43 771.57 308.58 755.03
  Q 257.44 720.99 222.69 670.22
  Q 204.49 643.62 191.07 612.23
  Q 178.00 581.68 171.77 549.05
  Q 162.95 502.82 166.04 456.27
  Q 166.88 443.59 170.28 422.96
  Q 179.93 364.46 207.10 310.51
  C 227.86 269.31 256.78 232.87 291.63 202.13
  Q 315.27 181.28 341.39 166.38
  Q 367.21 151.64 396.90 140.91
  Q 423.72 131.21 452.43 127.42
  Q 458.11 126.67 470.89 125.22
  C 484.20 123.72 498.64 123.82 511.73 124.20
  C 520.67 124.46 526.97 125.43 535.10 126.52
  C 578.76 132.36 622.55 151.72 658.32 178.19
  Q 662.51 181.30 674.43 190.97
  C 680.80 196.14 684.79 200.40 692.06 207.13
  Q 697.23 211.92 703.16 218.42
  Z
  M 451.41 140.79
  A 0.28 0.27 78.7 0 0 451.10 140.58
  Q 436.09 142.87 420.23 147.44
  Q 396.74 154.19 378.69 162.45
  Q 361.11 170.49 339.88 183.88
  C 303.00 207.14 270.99 237.09 245.31 272.81
  Q 229.18 295.24 217.63 319.63
  Q 195.34 366.69 185.72 418.23
  C 181.56 440.56 179.89 462.99 179.27 485.32
  C 179.10 491.66 179.73 497.38 179.83 503.01
  Q 179.94 508.94 180.78 516.24
  Q 182.65 532.49 185.73 548.75
  Q 192.69 585.52 208.66 619.35
  Q 222.28 648.18 238.93 670.83
  Q 274.09 718.66 325.83 749.66
  Q 339.56 757.88 353.92 763.84
  Q 367.36 769.43 385.62 775.23
  A 0.42 0.41 18.0 0 0 386.14 774.97
  L 386.15 774.95
  A 0.46 0.45 -70.6 0 0 385.88 774.37
  Q 374.56 770.25 368.47 767.75
  Q 364.64 766.18 353.13 760.02
  Q 344.80 755.55 338.54 751.00
  Q 336.38 749.43 326.71 742.63
  C 321.54 739.00 314.98 733.28 310.88 729.87
  Q 306.87 726.55 292.97 712.50
  Q 284.12 703.56 276.31 693.90
  C 239.48 648.31 214.75 593.90 206.30 536.02
  Q 202.36 509.11 202.00 494.47
  Q 201.54 475.89 201.94 467.50
  C 203.55 432.98 209.98 398.82 221.53 366.29
  C 229.93 342.66 238.41 322.50 249.56 303.04
  C 269.63 267.98 294.82 235.50 324.55 209.03
  C 338.65 196.47 352.85 185.47 370.01 175.29
  Q 408.68 152.35 451.16 141.21
  A 0.34 0.34 0.0 0 0 451.41 140.81
  L 451.41 140.79
  Z
  M 215.62 477.19
  Q 215.28 498.23 216.54 509.87
  Q 216.75 511.85 217.80 521.82
  Q 221.93 561.17 236.95 600.36
  Q 246.60 625.56 260.37 647.64
  Q 270.92 664.57 277.51 673.24
  C 302.33 705.90 333.03 732.50 369.47 751.54
  Q 403.76 769.45 438.90 776.02
  Q 452.09 778.49 464.24 779.02
  C 480.99 779.76 497.72 778.98 515.23 775.69
  Q 556.68 767.90 594.48 746.96
  C 614.62 735.81 634.04 723.19 651.33 708.09
  C 671.95 690.09 691.53 669.08 707.81 645.89
  Q 722.77 624.58 733.04 604.93
  Q 753.17 566.45 761.76 522.54
  Q 767.63 492.54 768.96 460.77
  Q 769.09 457.77 769.07 439.13
  Q 769.06 426.25 768.43 417.47
  Q 765.42 375.10 752.89 334.83
  C 742.40 301.13 725.98 269.84 703.46 242.81
  Q 688.70 225.08 679.92 217.32
  Q 665.31 204.39 656.20 197.30
  Q 643.31 187.27 626.81 177.60
  C 603.16 163.75 577.53 154.72 550.35 150.61
  Q 539.90 149.03 523.10 148.91
  Q 504.59 148.78 495.76 149.30
  Q 473.47 150.64 449.94 156.40
  Q 436.25 159.75 425.05 164.03
  Q 365.75 186.71 320.20 232.94
  Q 309.81 243.49 308.23 245.23
  C 250.57 308.82 216.97 391.16 215.62 477.19
  Z"
/>
<path fill="#1e1e1f" d="
  M 451.41 140.79
  L 451.41 140.81
  A 0.34 0.34 0.0 0 1 451.16 141.21
  Q 408.68 152.35 370.01 175.29
  C 352.85 185.47 338.65 196.47 324.55 209.03
  C 294.82 235.50 269.63 267.98 249.56 303.04
  C 238.41 322.50 229.93 342.66 221.53 366.29
  C 209.98 398.82 203.55 432.98 201.94 467.50
  Q 201.54 475.89 202.00 494.47
  Q 202.36 509.11 206.30 536.02
  C 214.75 593.90 239.48 648.31 276.31 693.90
  Q 284.12 703.56 292.97 712.50
  Q 306.87 726.55 310.88 729.87
  C 314.98 733.28 321.54 739.00 326.71 742.63
  Q 336.38 749.43 338.54 751.00
  Q 344.80 755.55 353.13 760.02
  Q 364.64 766.18 368.47 767.75
  Q 374.56 770.25 385.88 774.37
  A 0.46 0.45 -70.6 0 1 386.15 774.95
  L 386.14 774.97
  A 0.42 0.41 18.0 0 1 385.62 775.23
  Q 367.36 769.43 353.92 763.84
  Q 339.56 757.88 325.83 749.66
  Q 274.09 718.66 238.93 670.83
  Q 222.28 648.18 208.66 619.35
  Q 192.69 585.52 185.73 548.75
  Q 182.65 532.49 180.78 516.24
  Q 179.94 508.94 179.83 503.01
  C 179.73 497.38 179.10 491.66 179.27 485.32
  C 179.89 462.99 181.56 440.56 185.72 418.23
  Q 195.34 366.69 217.63 319.63
  Q 229.18 295.24 245.31 272.81
  C 270.99 237.09 303.00 207.14 339.88 183.88
  Q 361.11 170.49 378.69 162.45
  Q 396.74 154.19 420.23 147.44
  Q 436.09 142.87 451.10 140.58
  A 0.28 0.27 78.7 0 1 451.41 140.79
  Z"
/>
<path fill="#1e1e1f" d="
  M 215.62 477.19
  C 216.97 391.16 250.57 308.82 308.23 245.23
  Q 309.81 243.49 320.20 232.94
  Q 365.75 186.71 425.05 164.03
  Q 436.25 159.75 449.94 156.40
  Q 473.47 150.64 495.76 149.30
  Q 504.59 148.78 523.10 148.91
  Q 539.90 149.03 550.35 150.61
  C 577.53 154.72 603.16 163.75 626.81 177.60
  Q 643.31 187.27 656.20 197.30
  Q 665.31 204.39 679.92 217.32
  Q 688.70 225.08 703.46 242.81
  C 725.98 269.84 742.40 301.13 752.89 334.83
  Q 765.42 375.10 768.43 417.47
  Q 769.06 426.25 769.07 439.13
  Q 769.09 457.77 768.96 460.77
  Q 767.63 492.54 761.76 522.54
  Q 753.17 566.45 733.04 604.93
  Q 722.77 624.58 707.81 645.89
  C 691.53 669.08 671.95 690.09 651.33 708.09
  C 634.04 723.19 614.62 735.81 594.48 746.96
  Q 556.68 767.90 515.23 775.69
  C 497.72 778.98 480.99 779.76 464.24 779.02
  Q 452.09 778.49 438.90 776.02
  Q 403.76 769.45 369.47 751.54
  C 333.03 732.50 302.33 705.90 277.51 673.24
  Q 270.92 664.57 260.37 647.64
  Q 246.60 625.56 236.95 600.36
  Q 221.93 561.17 217.80 521.82
  Q 216.75 511.85 216.54 509.87
  Q 215.28 498.23 215.62 477.19
  Z
  M 365.93 561.08
  Q 383.12 584.11 408.79 599.90
  Q 438.64 618.26 477.12 621.03
  Q 478.72 621.15 484.36 621.12
  C 490.54 621.08 496.72 621.33 502.39 620.70
  Q 529.36 617.70 551.36 605.33
  Q 582.05 588.06 605.04 560.22
  C 626.11 534.71 639.20 501.62 641.87 469.22
  Q 643.02 455.28 643.00 452.53
  Q 642.92 444.24 641.19 431.31
  Q 635.77 390.97 611.13 358.87
  C 607.08 353.59 601.75 347.28 598.22 343.79
  Q 572.28 318.19 537.44 306.83
  Q 527.43 303.57 518.50 302.31
  C 511.31 301.29 506.14 300.36 499.69 300.13
  Q 483.16 299.54 465.71 302.79
  Q 449.12 305.87 433.35 313.29
  C 413.04 322.85 394.38 336.34 379.25 353.19
  Q 373.00 360.15 369.84 364.12
  C 347.09 392.65 335.40 428.24 335.97 464.82
  C 336.05 469.73 336.67 474.68 336.84 478.50
  Q 337.13 485.07 337.71 488.73
  Q 341.94 515.33 350.60 534.18
  Q 358.21 550.75 365.93 561.08
  Z"
/>
<path fill="#000000" d="
  M 365.93 561.08
  Q 358.21 550.75 350.60 534.18
  Q 341.94 515.33 337.71 488.73
  Q 337.13 485.07 336.84 478.50
  C 336.67 474.68 336.05 469.73 335.97 464.82
  C 335.40 428.24 347.09 392.65 369.84 364.12
  Q 373.00 360.15 379.25 353.19
  C 394.38 336.34 413.04 322.85 433.35 313.29
  Q 449.12 305.87 465.71 302.79
  Q 483.16 299.54 499.69 300.13
  C 506.14 300.36 511.31 301.29 518.50 302.31
  Q 527.43 303.57 537.44 306.83
  Q 572.28 318.19 598.22 343.79
  C 601.75 347.28 607.08 353.59 611.13 358.87
  Q 635.77 390.97 641.19 431.31
  Q 642.92 444.24 643.00 452.53
  Q 643.02 455.28 641.87 469.22
  C 639.20 501.62 626.11 534.71 605.04 560.22
  Q 582.05 588.06 551.36 605.33
  Q 529.36 617.70 502.39 620.70
  C 496.72 621.33 490.54 621.08 484.36 621.12
  Q 478.72 621.15 477.12 621.03
  Q 438.64 618.26 408.79 599.90
  Q 383.12 584.11 365.93 561.08
  Z
  M 380.93 552.25
  C 394.16 569.42 412.54 583.05 433.03 589.69
  Q 443.76 593.17 449.76 594.01
  C 456.71 594.99 464.96 595.98 471.11 596.04
  Q 501.96 596.32 528.17 580.43
  Q 546.03 569.61 558.94 555.46
  Q 580.34 532.01 591.66 501.95
  Q 600.20 479.28 600.72 454.43
  Q 601.15 433.59 596.48 413.74
  Q 590.28 387.39 574.38 365.43
  Q 564.90 352.33 552.72 343.50
  Q 530.54 327.42 506.18 321.87
  Q 495.48 319.43 478.93 319.51
  C 470.08 319.55 459.47 321.62 451.63 324.14
  Q 423.95 333.01 402.10 352.37
  Q 361.72 388.14 353.07 441.13
  C 351.45 451.05 351.84 459.74 351.87 471.12
  Q 351.89 482.33 354.18 493.46
  Q 358.68 515.41 369.23 534.22
  Q 375.10 544.67 380.93 552.25
  Z
  M 569.60 337.54
  Q 569.74 337.94 570.07 338.20
  Q 574.82 341.86 578.90 346.56
  C 589.82 359.18 598.74 372.13 604.70 387.56
  Q 611.93 406.25 615.00 427.14
  C 616.94 440.29 616.45 455.00 614.88 468.24
  C 613.03 483.84 609.30 498.27 602.70 512.68
  Q 597.71 523.57 595.22 527.98
  Q 578.98 556.80 554.45 578.01
  C 541.33 589.37 525.45 598.48 509.58 603.48
  Q 506.56 604.44 504.05 605.38
  A 0.23 0.23 0.0 0 0 504.16 605.83
  C 510.29 605.22 518.83 602.64 522.60 601.61
  C 530.50 599.44 540.59 594.39 549.73 589.25
  Q 555.87 585.79 556.76 585.22
  Q 574.01 574.20 586.20 560.98
  Q 614.56 530.18 624.49 488.76
  Q 625.77 483.41 626.55 476.69
  Q 627.71 466.64 627.80 464.50
  Q 627.88 462.29 627.91 450.16
  C 627.94 431.53 624.24 412.11 617.96 396.27
  C 608.57 372.60 590.87 351.76 569.90 337.31
  A 0.20 0.20 0.0 0 0 569.60 337.54
  Z"
/>
<path fill="#1e1e1f" d="
  M 369.23 534.22
  Q 358.68 515.41 354.18 493.46
  Q 351.89 482.33 351.87 471.12
  C 351.84 459.74 351.45 451.05 353.07 441.13
  Q 361.72 388.14 402.10 352.37
  Q 423.95 333.01 451.63 324.14
  C 459.47 321.62 470.08 319.55 478.93 319.51
  Q 495.48 319.43 506.18 321.87
  Q 530.54 327.42 552.72 343.50
  Q 564.90 352.33 574.38 365.43
  Q 590.28 387.39 596.48 413.74
  Q 601.15 433.59 600.72 454.43
  Q 600.20 479.28 591.66 501.95
  Q 580.34 532.01 558.94 555.46
  Q 546.03 569.61 528.17 580.43
  Q 501.96 596.32 471.11 596.04
  C 464.96 595.98 456.71 594.99 449.76 594.01
  Q 443.76 593.17 433.03 589.69
  C 412.54 583.05 394.16 569.42 380.93 552.25
  Q 375.10 544.67 369.23 534.22
  Z
  M 405.18 514.61
  Q 415.54 531.35 431.81 539.62
  C 455.27 551.56 486.08 554.55 509.09 539.58
  Q 520.35 532.25 525.46 527.74
  Q 555.07 501.67 558.52 461.91
  C 560.14 443.15 557.88 422.99 549.39 406.26
  C 537.75 383.34 517.10 370.23 492.08 365.19
  C 484.58 363.68 474.27 363.79 467.53 364.39
  C 448.91 366.06 433.13 375.43 419.49 388.25
  Q 413.96 393.44 408.98 400.98
  C 388.72 431.65 385.62 471.06 399.69 504.38
  Q 401.48 508.62 405.18 514.61
  Z"
/>
<path fill="#1e1e1f" d="
  M 569.60 337.54
  A 0.20 0.20 0.0 0 1 569.90 337.31
  C 590.87 351.76 608.57 372.60 617.96 396.27
  C 624.24 412.11 627.94 431.53 627.91 450.16
  Q 627.88 462.29 627.80 464.50
  Q 627.71 466.64 626.55 476.69
  Q 625.77 483.41 624.49 488.76
  Q 614.56 530.18 586.20 560.98
  Q 574.01 574.20 556.76 585.22
  Q 555.87 585.79 549.73 589.25
  C 540.59 594.39 530.50 599.44 522.60 601.61
  C 518.83 602.64 510.29 605.22 504.16 605.83
  A 0.23 0.23 0.0 0 1 504.05 605.38
  Q 506.56 604.44 509.58 603.48
  C 525.45 598.48 541.33 589.37 554.45 578.01
  Q 578.98 556.80 595.22 527.98
  Q 597.71 523.57 602.70 512.68
  C 609.30 498.27 613.03 483.84 614.88 468.24
  C 616.45 455.00 616.94 440.29 615.00 427.14
  Q 611.93 406.25 604.70 387.56
  C 598.74 372.13 589.82 359.18 578.90 346.56
  Q 574.82 341.86 570.07 338.20
  Q 569.74 337.94 569.60 337.54
  Z"
/>
<path fill="#000000" d="
  M 405.18 514.61
  Q 401.48 508.62 399.69 504.38
  C 385.62 471.06 388.72 431.65 408.98 400.98
  Q 413.96 393.44 419.49 388.25
  C 433.13 375.43 448.91 366.06 467.53 364.39
  C 474.27 363.79 484.58 363.68 492.08 365.19
  C 517.10 370.23 537.75 383.34 549.39 406.26
  C 557.88 422.99 560.14 443.15 558.52 461.91
  Q 555.07 501.67 525.46 527.74
  Q 520.35 532.25 509.09 539.58
  C 486.08 554.55 455.27 551.56 431.81 539.62
  Q 415.54 531.35 405.18 514.61
  Z
  M 496.89 382.24
  C 480.92 377.59 462.38 380.09 447.88 386.91
  C 425.83 397.30 411.96 420.29 408.60 444.19
  C 407.58 451.43 407.67 461.81 407.97 468.50
  Q 408.98 491.06 421.25 509.44
  C 430.67 523.55 443.78 530.03 460.25 533.36
  Q 460.82 533.48 462.43 533.01
  A 0.24 0.24 0.0 0 0 462.50 532.59
  Q 451.74 524.76 447.00 516.40
  Q 436.64 498.14 435.33 474.13
  C 434.49 458.76 435.86 443.51 442.44 429.38
  Q 448.84 415.66 460.71 403.13
  C 470.06 393.26 483.11 385.15 496.86 382.82
  A 0.30 0.30 0.0 0 0 496.89 382.24
  Z
  M 519.02 396.17
  Q 514.32 394.96 513.50 395.04
  Q 495.48 396.85 482.51 406.04
  Q 463.13 419.78 454.55 443.28
  Q 450.74 453.73 450.08 464.51
  Q 449.46 474.57 451.48 483.98
  Q 453.55 493.58 457.43 502.01
  Q 463.43 515.01 473.86 523.27
  Q 480.57 528.58 489.66 529.05
  A 8.22 8.13 -51.3 0 0 492.43 528.73
  C 495.82 527.75 498.98 527.00 502.00 525.45
  Q 511.73 520.45 519.83 511.82
  Q 542.16 488.04 543.86 455.24
  Q 544.43 444.18 541.45 430.82
  C 538.51 417.63 531.47 403.82 519.94 396.57
  A 3.33 2.98 -18.4 0 0 519.02 396.17
  Z"
/>
<path fill="#1e1e1f" d="
  M 496.89 382.24
  A 0.30 0.30 0.0 0 1 496.86 382.82
  C 483.11 385.15 470.06 393.26 460.71 403.13
  Q 448.84 415.66 442.44 429.38
  C 435.86 443.51 434.49 458.76 435.33 474.13
  Q 436.64 498.14 447.00 516.40
  Q 451.74 524.76 462.50 532.59
  A 0.24 0.24 0.0 0 1 462.43 533.01
  Q 460.82 533.48 460.25 533.36
  C 443.78 530.03 430.67 523.55 421.25 509.44
  Q 408.98 491.06 407.97 468.50
  C 407.67 461.81 407.58 451.43 408.60 444.19
  C 411.96 420.29 425.83 397.30 447.88 386.91
  C 462.38 380.09 480.92 377.59 496.89 382.24
  Z"
/>
</svg>
