<?xml version="1.0" encoding="UTF-8" standalone="no"?>
<!DOCTYPE svg PUBLIC "-//W3C//DTD SVG 1.1//EN" "http://www.w3.org/Graphics/SVG/1.1/DTD/svg11.dtd">
<svg xmlns="http://www.w3.org/2000/svg" version="1.1" viewBox="0.00 0.00 1024.00 1024.00">
<g stroke-width="2.00" fill="none" stroke-linecap="butt">
<path stroke="#6d0f10" vector-effect="non-scaling-stroke" d="
  M 141.59 449.13
  Q 136.94 507.82 148.65 563.96
  C 164.93 642.03 208.47 716.78 271.96 765.90
  C 322.31 804.85 382.73 829.69 446.74 832.71
  Q 475.35 834.06 498.49 831.50
  Q 528.21 828.21 560.99 817.74
  Q 578.19 812.24 600.85 801.19
  C 655.04 774.76 702.63 733.49 739.13 685.61
  C 792.77 615.24 819.71 530.05 820.83 441.55
  C 821.03 426.13 819.86 410.02 818.19 395.54
  Q 806.84 297.45 747.93 218.02
  Q 735.68 201.50 721.73 186.53
  C 683.54 145.53 634.98 115.30 581.20 100.23
  Q 550.45 91.60 515.21 90.07
  C 471.17 88.16 426.52 94.84 385.10 111.35
  Q 297.03 146.45 235.11 218.61
  C 179.96 282.88 148.26 365.16 141.59 449.13"
/>
<path stroke="#4a0409" vector-effect="non-scaling-stroke" d="
  M 869.33 467.29
  Q 870.13 456.28 869.83 449.25
  C 869.16 433.79 869.00 425.08 867.39 412.94"
/>
<path stroke="#6d0f10" vector-effect="non-scaling-stroke" d="
  M 867.39 412.94
  Q 865.17 393.72 861.97 378.24
  Q 855.89 348.83 844.63 318.72
  C 835.02 292.99 821.87 267.81 807.66 246.12
  C 781.75 206.56 747.91 171.82 708.48 145.77
  C 703.24 142.31 693.84 136.36 686.28 132.15
  Q 670.50 123.36 666.74 121.28
  Q 665.14 120.40 662.71 119.64
  A 0.05 0.05 0.0 0 0 662.67 119.73
  C 691.99 138.14 719.14 160.57 742.17 186.62
  Q 752.09 197.83 759.04 206.69
  C 803.94 263.92 829.10 332.92 835.89 405.52
  Q 840.50 454.72 834.77 501.50
  C 829.52 544.43 816.81 585.35 797.11 624.41
  Q 758.13 701.68 692.58 758.55
  C 669.81 778.31 645.64 794.75 619.79 809.30
  Q 596.11 822.62 569.77 831.40
  Q 562.05 833.97 554.08 836.58
  Q 549.97 837.92 531.13 841.41
  Q 529.39 841.73 528.02 842.26
  A 0.26 0.25 30.5 0 0 528.15 842.75
  Q 544.41 840.54 558.42 838.38
  Q 611.53 830.20 658.94 806.18
  Q 732.93 768.67 784.18 703.17
  C 836.20 636.69 866.63 551.91 869.33 467.29"
/>
<path stroke="#b61319" vector-effect="non-scaling-stroke" d="
  M 867.39 412.94
  L 866.93 413.70
  A 0.23 0.23 0.0 0 1 866.50 413.61
  Q 865.83 407.83 865.29 404.98
  C 864.76 402.17 864.90 399.73 864.25 397.10
  Q 863.71 394.93 863.16 391.25
  Q 861.53 380.27 858.25 366.77
  Q 851.28 338.08 840.41 311.00
  Q 833.68 294.25 825.76 279.35
  Q 816.75 262.38 808.36 249.14
  Q 800.49 236.73 789.38 222.77
  C 787.85 220.84 787.02 219.05 785.17 217.40
  C 784.48 216.79 784.04 215.73 783.46 215.04
  Q 772.91 202.48 761.97 191.18
  Q 755.21 184.20 744.56 174.89
  Q 734.26 165.89 726.14 159.69
  Q 710.68 147.89 696.54 139.73
  Q 693.42 137.93 693.13 137.48
  A 1.70 1.66 -8.3 0 0 692.14 136.76
  Q 689.92 136.18 687.19 134.14
  A 0.26 0.26 0.0 0 0 686.83 134.51
  Q 688.23 136.31 689.64 136.98
  C 691.39 137.81 692.12 138.94 694.17 140.05
  A 2.39 2.39 0.0 0 1 695.02 140.82
  Q 696.50 142.98 698.42 143.62
  A 2.62 2.60 -10.8 0 1 699.58 144.40
  C 702.04 147.25 704.65 148.48 707.12 151.07
  Q 708.70 152.73 712.04 155.00
  A 3.98 3.62 83.7 0 1 712.80 155.67
  Q 714.62 157.78 715.62 158.63
  Q 726.14 167.60 736.04 178.21
  Q 736.66 178.86 738.18 180.56
  Q 759.99 204.84 774.42 225.85
  C 778.15 231.28 782.71 238.84 785.13 242.87
  Q 803.14 272.86 815.35 306.28
  Q 818.74 315.56 821.26 324.32
  Q 824.75 336.50 826.38 342.59
  Q 828.06 348.84 834.07 380.26
  Q 834.63 383.22 835.17 388.01
  Q 837.84 411.79 838.83 432.17
  Q 840.07 457.39 836.73 493.29
  Q 833.62 526.86 824.01 559.50
  Q 812.47 598.69 793.76 633.26
  Q 783.25 652.66 772.74 668.73
  Q 740.73 717.63 696.24 756.75
  Q 686.06 765.69 682.36 768.63
  Q 655.13 790.23 624.76 807.75
  Q 615.41 813.15 605.27 818.06
  Q 592.32 824.32 585.15 827.11
  Q 575.40 830.90 562.50 835.37
  A 0.25 0.25 0.0 0 0 562.61 835.86
  Q 584.08 833.19 604.79 826.79
  Q 644.52 814.50 679.61 793.61
  Q 708.01 776.71 732.72 755.74
  Q 735.85 753.09 736.74 752.23
  C 740.34 748.77 743.54 746.38 746.66 743.25
  Q 750.58 739.30 760.01 729.88
  C 762.50 727.39 765.55 723.40 768.79 720.23
  A 3.91 3.90 83.6 0 0 769.41 719.45
  C 771.21 716.41 773.90 714.23 776.08 711.47
  C 780.43 705.96 784.35 701.49 787.86 696.75
  Q 804.80 673.89 816.54 652.79
  Q 837.05 615.92 849.53 575.99
  Q 855.25 557.71 857.18 549.67
  Q 861.38 532.19 864.27 512.51
  C 865.34 505.30 866.03 501.16 866.56 494.76
  Q 867.90 478.27 868.55 464.69
  A 0.30 0.30 0.0 0 1 868.86 464.40
  L 869.12 464.41
  A 0.07 0.07 0.0 0 1 869.15 464.44
  L 869.33 467.29"
/>
<path stroke="#6d0f10" vector-effect="non-scaling-stroke" d="
  M 243.90 252.93
  Q 189.05 323.20 173.77 410.42
  C 169.13 436.88 167.30 465.54 168.14 490.51
  Q 168.89 512.83 172.70 537.26
  C 182.80 601.93 212.33 664.85 258.55 711.51
  Q 277.69 730.83 299.36 746.62
  Q 339.76 776.04 388.00 788.71
  C 427.27 799.02 468.21 801.49 508.24 794.41
  C 542.94 788.28 574.70 776.89 604.83 759.58
  C 644.12 737.01 678.59 708.51 706.76 673.04
  C 752.39 615.60 781.78 545.52 785.46 472.24
  Q 787.05 440.47 785.00 413.73
  C 778.34 326.83 736.23 242.17 669.24 186.43
  Q 656.29 175.66 643.61 167.49
  C 621.53 153.26 598.40 141.73 573.22 134.54
  C 550.49 128.04 526.58 124.22 502.75 124.00
  Q 488.61 123.87 483.76 124.16
  C 460.43 125.56 437.95 128.51 416.70 134.54
  Q 376.31 146.01 340.21 167.04
  C 303.49 188.43 270.52 218.82 243.90 252.93"
/>
<path stroke="#6d0f10" vector-effect="non-scaling-stroke" d="
  M 379.63 768.68
  A 0.09 0.08 -69.2 0 0 379.59 768.58
  Q 372.07 765.10 366.76 763.04
  Q 360.23 760.50 353.78 757.12
  Q 333.80 746.67 319.73 736.04
  Q 293.88 716.52 272.19 689.08
  C 230.64 636.52 206.91 570.71 204.18 503.51
  Q 202.78 469.00 206.69 435.10
  C 208.75 417.23 212.91 398.54 217.70 382.45
  C 225.70 355.58 237.11 327.62 251.30 303.70
  Q 265.74 279.36 281.32 259.30
  Q 298.52 237.16 323.93 213.98
  C 354.78 185.83 391.73 163.47 429.85 148.12
  C 437.84 144.90 444.65 143.16 453.49 140.80
  A 0.25 0.24 76.3 0 0 453.66 140.51
  L 453.66 140.50
  A 0.23 0.23 0.0 0 0 453.39 140.31
  Q 446.58 141.29 435.03 143.73
  Q 396.64 151.84 363.46 169.22
  Q 337.44 182.84 317.92 197.95
  Q 298.53 212.96 280.99 230.92
  Q 221.78 291.53 196.59 372.27
  Q 183.59 413.91 181.24 454.95
  C 180.57 466.48 179.96 474.35 180.11 482.70
  C 180.70 514.70 185.11 546.31 194.69 576.83
  Q 211.75 631.22 246.44 677.05
  Q 265.46 702.18 287.82 720.34
  Q 328.47 753.39 379.34 768.83
  A 0.24 0.24 0.0 0 0 379.63 768.69
  L 379.63 768.68"
/>
<path stroke="#6d0f10" vector-effect="non-scaling-stroke" d="
  M 700.81 656.04
  Q 736.46 608.52 753.65 553.13
  Q 762.29 525.29 766.27 492.95
  C 773.91 430.75 767.19 365.87 741.30 308.40
  C 726.78 276.14 707.22 245.61 682.73 220.68
  Q 661.46 199.03 638.48 184.04
  Q 595.70 156.13 544.15 149.23
  Q 485.71 141.39 428.34 162.81
  Q 392.21 176.30 361.22 198.73
  Q 347.56 208.62 341.76 213.51
  C 282.86 263.20 240.62 331.14 224.25 406.24
  Q 211.82 463.23 217.52 523.12
  Q 220.31 552.54 228.01 578.71
  Q 236.16 606.43 248.58 631.42
  Q 277.19 689.01 327.78 726.45
  C 353.69 745.63 383.93 759.47 414.77 767.69
  Q 436.42 773.45 457.13 775.32
  Q 530.72 781.94 597.05 747.02
  C 637.95 725.50 673.09 692.98 700.81 656.04"
/>
<path stroke="#b61319" vector-effect="non-scaling-stroke" d="
  M 345.84 754.42
  A 0.24 0.24 0.0 0 0 345.98 753.97
  Q 339.22 750.95 333.34 746.90
  C 326.16 741.95 319.76 737.72 313.74 732.77
  Q 290.81 713.93 271.98 690.51
  Q 268.92 686.70 264.30 680.29
  Q 260.25 674.67 256.95 669.81
  Q 245.59 653.06 236.03 633.48
  Q 216.27 593.01 208.41 550.38
  Q 207.60 545.98 206.82 540.50
  Q 204.72 525.67 203.79 513.75
  Q 201.86 488.91 203.43 464.65
  C 203.69 460.70 203.26 456.82 203.86 453.84
  Q 204.26 451.86 204.63 446.75
  Q 205.03 441.24 206.48 429.50
  Q 207.25 423.27 209.24 413.27
  Q 214.49 386.83 223.65 361.46
  Q 228.03 349.33 235.65 332.09
  C 242.53 316.51 251.13 302.01 260.71 286.70
  Q 263.88 281.64 275.74 265.15
  Q 280.49 258.54 286.25 251.76
  Q 296.83 239.29 297.30 238.80
  Q 302.89 233.01 312.04 223.86
  C 336.99 198.91 366.07 178.08 397.64 161.94
  Q 402.19 159.61 402.70 159.33
  Q 406.16 157.42 407.74 156.71
  Q 410.87 155.31 422.82 149.57
  Q 423.73 149.13 430.30 146.67
  A 0.28 0.27 -18.5 0 0 430.47 146.34
  L 430.45 146.28
  A 0.26 0.26 0.0 0 0 430.14 146.10
  C 425.14 147.34 420.50 148.02 415.71 149.51
  Q 397.84 155.07 388.89 158.67
  Q 357.21 171.44 326.47 192.86
  Q 316.97 199.48 307.47 207.69
  Q 295.32 218.20 289.54 223.79
  Q 266.41 246.18 247.64 272.22
  Q 228.51 298.76 215.17 327.38
  Q 192.53 375.91 184.98 429.25
  Q 181.56 453.46 181.32 478.25
  C 181.26 484.43 181.69 489.30 181.64 494.24
  Q 181.59 499.42 182.22 506.23
  Q 184.79 534.31 190.50 557.54
  Q 206.09 620.97 244.94 673.14
  Q 248.73 678.21 252.49 683.30
  Q 255.01 686.70 261.49 693.53
  A 5.46 5.22 -84.3 0 1 262.10 694.31
  Q 263.14 695.97 263.63 696.48
  Q 273.98 707.35 277.05 709.84
  Q 280.82 712.90 285.68 717.36
  C 291.93 723.10 299.54 728.22 305.86 732.65
  Q 322.32 744.18 343.24 753.57
  Q 344.79 754.26 345.84 754.42"
/>
<path stroke="#6d0f10" vector-effect="non-scaling-stroke" d="
  M 471.38 302.77
  Q 456.68 304.95 450.24 306.99
  Q 412.25 319.00 385.47 345.26
  C 355.84 374.33 338.26 413.02 336.26 454.44
  Q 335.14 477.57 339.10 497.97
  C 343.90 522.77 354.11 546.14 369.61 565.84
  Q 380.21 579.32 396.05 590.98
  Q 431.79 617.29 477.53 619.64
  Q 494.47 620.50 510.52 618.20
  C 524.39 616.21 540.15 611.50 553.21 604.43
  Q 572.55 593.96 590.23 576.49
  Q 616.17 550.86 629.87 519.34
  C 641.26 493.12 645.23 463.56 642.18 434.83
  C 635.78 374.46 597.21 323.82 537.83 307.23
  Q 504.39 297.88 471.38 302.77"
/>
<path stroke="#6d0f10" vector-effect="non-scaling-stroke" d="
  M 419.11 340.10
  C 384.04 363.87 360.33 401.21 354.22 442.96
  Q 350.59 467.71 354.37 490.73
  C 359.88 524.34 377.64 556.17 405.11 575.74
  Q 424.96 589.89 449.46 594.03
  C 491.41 601.11 531.69 587.08 559.85 555.25
  Q 591.60 519.36 599.13 471.89
  C 606.02 428.41 596.01 383.87 564.60 352.10
  C 549.67 336.99 531.47 327.16 510.78 322.21
  C 501.57 320.00 493.61 319.72 484.01 319.65
  C 460.57 319.46 438.41 327.03 419.11 340.10"
/>
<path stroke="#6d0f10" vector-effect="non-scaling-stroke" d="
  M 503.44 605.89
  A 0.51 0.51 0.0 0 0 504.04 606.26
  Q 519.07 603.08 519.92 602.89
  C 529.45 600.75 540.33 596.56 549.64 591.43
  Q 578.33 575.62 597.51 549.27
  Q 607.19 535.97 612.48 525.74
  Q 617.03 516.92 621.19 505.20
  Q 634.18 468.55 629.73 431.26
  C 626.09 400.79 612.45 371.13 589.84 350.12
  Q 579.64 340.64 565.48 332.50
  Q 564.08 331.70 562.63 331.18
  A 0.10 0.10 0.0 0 0 562.53 331.35
  Q 570.38 336.99 577.04 344.47
  C 603.41 374.08 614.52 411.06 614.04 450.54
  C 613.54 492.20 598.37 529.45 571.43 560.92
  Q 549.60 586.44 519.79 600.01
  Q 515.13 602.13 503.77 605.31
  A 0.47 0.47 0.0 0 0 503.44 605.87
  L 503.44 605.89"
/>
<path stroke="#6d0f10" vector-effect="non-scaling-stroke" d="
  M 418.00 392.91
  Q 387.93 427.86 393.30 474.48
  C 397.49 510.91 422.66 548.36 462.67 550.02
  Q 471.60 550.39 477.02 549.97
  C 518.95 546.70 549.35 515.55 557.26 475.24
  Q 560.67 457.86 558.69 439.74
  C 555.25 408.16 537.28 381.61 507.85 368.89
  C 476.88 355.50 439.52 367.90 418.00 392.91"
/>
<path stroke="#b61319" vector-effect="non-scaling-stroke" d="
  M 519.48 601.81
  Q 523.51 600.48 529.10 599.02
  C 539.14 596.40 548.31 591.66 557.56 585.58
  Q 580.20 570.70 594.40 551.93
  C 602.46 541.26 610.22 529.78 615.41 517.71
  Q 621.43 503.67 625.70 487.24
  Q 626.97 482.35 627.85 476.26
  C 628.15 474.24 628.77 471.95 628.66 469.53
  A 6.48 6.14 -43.5 0 1 628.72 468.41
  C 629.02 466.47 629.43 465.13 629.48 462.98
  Q 629.96 441.17 629.52 437.27
  Q 626.71 412.53 619.40 395.13
  Q 611.96 377.42 600.83 363.23
  Q 594.56 355.23 584.46 346.60
  Q 582.32 344.77 580.08 343.48
  Q 577.51 342.00 575.62 340.42
  A 0.23 0.23 0.0 0 0 575.31 340.43
  L 575.12 340.62
  A 0.14 0.14 0.0 0 0 575.12 340.82
  L 579.54 345.23
  A 1.49 1.43 15.8 0 1 579.89 345.83
  L 580.19 346.85
  A 1.96 1.92 -76.2 0 0 580.68 347.68
  L 583.49 350.48
  A 4.04 3.94 -81.8 0 1 584.16 351.40
  C 585.10 353.22 586.51 354.52 587.71 356.25
  Q 604.01 379.83 610.18 405.54
  Q 615.80 428.92 614.89 455.81
  Q 614.73 460.51 614.00 466.67
  Q 613.08 474.50 612.58 477.48
  Q 606.47 513.39 585.81 543.79
  Q 579.08 553.70 570.59 563.34
  Q 551.76 584.73 526.83 597.79
  Q 521.14 600.77 519.27 601.20
  A 0.06 0.05 84.3 0 0 519.23 601.26
  L 519.21 601.60
  A 0.21 0.21 0.0 0 0 519.48 601.81"
/>
<path stroke="#6d0f10" vector-effect="non-scaling-stroke" d="
  M 463.43 534.88
  C 462.44 533.94 460.73 533.27 459.54 532.11
  C 442.96 515.86 436.21 493.82 435.20 471.16
  Q 434.56 456.79 438.19 442.78
  C 442.02 427.94 449.47 416.08 459.77 404.00
  Q 469.15 393.00 483.69 384.67
  Q 488.21 382.09 493.58 380.79
  A 0.36 0.36 0.0 0 0 493.54 380.08
  Q 487.60 379.45 482.49 379.08
  C 450.76 376.78 424.61 402.28 413.65 429.67
  Q 409.29 440.57 408.22 455.51
  Q 406.12 485.09 421.65 509.35
  Q 432.12 525.69 451.25 532.99
  Q 456.88 535.14 463.24 535.33
  A 0.26 0.26 0.0 0 0 463.43 534.88"
/>
<path stroke="#b61319" vector-effect="non-scaling-stroke" d="
  M 459.16 533.30
  Q 445.70 519.95 439.54 501.79
  Q 436.13 491.71 435.00 481.65
  Q 434.22 474.76 434.45 462.17
  Q 434.58 454.68 435.85 448.92
  Q 437.58 441.05 439.26 436.01
  Q 443.01 424.71 450.04 414.80
  Q 455.06 407.73 460.12 402.12
  Q 464.39 397.38 469.58 393.09
  C 474.63 388.91 481.71 384.69 485.54 382.29
  Q 486.18 381.89 487.39 381.57
  A 0.33 0.32 43.5 0 0 487.37 380.94
  C 472.80 377.68 455.65 383.22 443.98 391.77
  Q 441.07 393.90 439.55 395.14
  C 431.79 401.46 425.51 409.58 420.10 418.85
  Q 412.06 432.61 410.06 448.27
  Q 407.91 465.15 411.18 481.79
  Q 412.42 488.09 415.19 494.63
  Q 418.56 502.62 421.06 506.74
  C 426.01 514.87 433.81 523.39 442.31 527.83
  Q 446.79 530.17 454.73 533.02
  Q 456.60 533.68 459.07 533.55
  A 0.15 0.14 65.0 0 0 459.16 533.30"
/>
</g>
<path fill="#000000" d="
  M 164.90 295.46
  Q 173.80 276.21 184.96 257.98
  Q 215.02 208.88 256.25 170.51
  C 278.01 150.26 303.87 132.05 329.36 117.52
  Q 380.60 88.30 439.01 76.51
  Q 475.22 69.20 512.50 69.29
  Q 516.47 69.30 537.00 70.15
  Q 545.55 70.50 566.76 73.29
  Q 606.11 78.46 646.44 93.60
  Q 684.08 107.72 718.53 130.77
  Q 740.60 145.54 759.27 162.05
  Q 768.36 170.09 780.89 183.18
  Q 792.10 194.89 800.81 205.84
  Q 833.97 247.54 853.78 293.42
  Q 882.40 359.70 886.81 431.63
  Q 888.42 457.98 886.68 478.50
  C 886.26 483.46 885.99 490.15 885.54 494.16
  Q 883.42 513.14 882.78 517.26
  Q 872.91 581.03 844.09 639.12
  Q 826.34 674.91 804.24 704.77
  Q 790.91 722.77 774.66 740.41
  Q 759.44 756.93 743.97 769.97
  Q 712.10 796.83 677.92 815.39
  Q 655.39 827.62 629.80 837.03
  Q 593.85 850.25 556.03 855.53
  Q 546.46 856.87 531.21 858.12
  C 514.43 859.51 495.88 859.04 478.95 858.95
  Q 474.38 858.93 470.06 858.55
  C 463.43 857.97 460.49 858.18 455.37 857.19
  Q 454.14 856.96 449.40 856.90
  A 2.34 2.34 0.0 0 1 448.55 856.74
  Q 447.76 856.43 442.02 855.83
  Q 437.94 855.40 423.51 852.92
  Q 368.10 843.40 318.53 817.46
  Q 310.78 813.40 298.12 805.85
  Q 246.67 775.15 209.02 729.25
  Q 183.10 697.65 165.14 662.16
  Q 155.06 642.24 146.89 620.14
  Q 132.09 580.13 126.53 537.99
  Q 126.44 537.32 125.59 531.23
  Q 124.96 526.69 124.96 524.99
  C 124.98 522.12 124.40 519.79 124.18 516.62
  Q 122.47 492.37 123.04 465.68
  C 123.20 458.34 123.69 453.09 124.17 446.01
  Q 125.20 430.39 129.50 405.73
  Q 139.46 348.61 164.39 296.19
  C 164.51 295.92 164.75 295.78 164.90 295.46
  Z
  M 141.59 449.13
  Q 136.94 507.82 148.65 563.96
  C 164.93 642.03 208.47 716.78 271.96 765.90
  C 322.31 804.85 382.73 829.69 446.74 832.71
  Q 475.35 834.06 498.49 831.50
  Q 528.21 828.21 560.99 817.74
  Q 578.19 812.24 600.85 801.19
  C 655.04 774.76 702.63 733.49 739.13 685.61
  C 792.77 615.24 819.71 530.05 820.83 441.55
  C 821.03 426.13 819.86 410.02 818.19 395.54
  Q 806.84 297.45 747.93 218.02
  Q 735.68 201.50 721.73 186.53
  C 683.54 145.53 634.98 115.30 581.20 100.23
  Q 550.45 91.60 515.21 90.07
  C 471.17 88.16 426.52 94.84 385.10 111.35
  Q 297.03 146.45 235.11 218.61
  C 179.96 282.88 148.26 365.16 141.59 449.13
  Z
  M 869.33 467.29
  Q 870.13 456.28 869.83 449.25
  C 869.16 433.79 869.00 425.08 867.39 412.94
  Q 865.17 393.72 861.97 378.24
  Q 855.89 348.83 844.63 318.72
  C 835.02 292.99 821.87 267.81 807.66 246.12
  C 781.75 206.56 747.91 171.82 708.48 145.77
  C 703.24 142.31 693.84 136.36 686.28 132.15
  Q 670.50 123.36 666.74 121.28
  Q 665.14 120.40 662.71 119.64
  A 0.05 0.05 0.0 0 0 662.67 119.73
  C 691.99 138.14 719.14 160.57 742.17 186.62
  Q 752.09 197.83 759.04 206.69
  C 803.94 263.92 829.10 332.92 835.89 405.52
  Q 840.50 454.72 834.77 501.50
  C 829.52 544.43 816.81 585.35 797.11 624.41
  Q 758.13 701.68 692.58 758.55
  C 669.81 778.31 645.64 794.75 619.79 809.30
  Q 596.11 822.62 569.77 831.40
  Q 562.05 833.97 554.08 836.58
  Q 549.97 837.92 531.13 841.41
  Q 529.39 841.73 528.02 842.26
  A 0.26 0.25 30.5 0 0 528.15 842.75
  Q 544.41 840.54 558.42 838.38
  Q 611.53 830.20 658.94 806.18
  Q 732.93 768.67 784.18 703.17
  C 836.20 636.69 866.63 551.91 869.33 467.29
  Z"
/>
<path fill="#d91e20" d="
  M 141.59 449.13
  C 148.26 365.16 179.96 282.88 235.11 218.61
  Q 297.03 146.45 385.10 111.35
  C 426.52 94.84 471.17 88.16 515.21 90.07
  Q 550.45 91.60 581.20 100.23
  C 634.98 115.30 683.54 145.53 721.73 186.53
  Q 735.68 201.50 747.93 218.02
  Q 806.84 297.45 818.19 395.54
  C 819.86 410.02 821.03 426.13 820.83 441.55
  C 819.71 530.05 792.77 615.24 739.13 685.61
  C 702.63 733.49 655.04 774.76 600.85 801.19
  Q 578.19 812.24 560.99 817.74
  Q 528.21 828.21 498.49 831.50
  Q 475.35 834.06 446.74 832.71
  C 382.73 829.69 322.31 804.85 271.96 765.90
  C 208.47 716.78 164.93 642.03 148.65 563.96
  Q 136.94 507.82 141.59 449.13
  Z
  M 243.90 252.93
  Q 189.05 323.20 173.77 410.42
  C 169.13 436.88 167.30 465.54 168.14 490.51
  Q 168.89 512.83 172.70 537.26
  C 182.80 601.93 212.33 664.85 258.55 711.51
  Q 277.69 730.83 299.36 746.62
  Q 339.76 776.04 388.00 788.71
  C 427.27 799.02 468.21 801.49 508.24 794.41
  C 542.94 788.28 574.70 776.89 604.83 759.58
  C 644.12 737.01 678.59 708.51 706.76 673.04
  C 752.39 615.60 781.78 545.52 785.46 472.24
  Q 787.05 440.47 785.00 413.73
  C 778.34 326.83 736.23 242.17 669.24 186.43
  Q 656.29 175.66 643.61 167.49
  C 621.53 153.26 598.40 141.73 573.22 134.54
  C 550.49 128.04 526.58 124.22 502.75 124.00
  Q 488.61 123.87 483.76 124.16
  C 460.43 125.56 437.95 128.51 416.70 134.54
  Q 376.31 146.01 340.21 167.04
  C 303.49 188.43 270.52 218.82 243.90 252.93
  Z"
/>
<path fill="#d91e20" d="
  M 867.39 412.94
  L 866.93 413.70
  A 0.23 0.23 0.0 0 1 866.50 413.61
  Q 865.83 407.83 865.29 404.98
  C 864.76 402.17 864.90 399.73 864.25 397.10
  Q 863.71 394.93 863.16 391.25
  Q 861.53 380.27 858.25 366.77
  Q 851.28 338.08 840.41 311.00
  Q 833.68 294.25 825.76 279.35
  Q 816.75 262.38 808.36 249.14
  Q 800.49 236.73 789.38 222.77
  C 787.85 220.84 787.02 219.05 785.17 217.40
  C 784.48 216.79 784.04 215.73 783.46 215.04
  Q 772.91 202.48 761.97 191.18
  Q 755.21 184.20 744.56 174.89
  Q 734.26 165.89 726.14 159.69
  Q 710.68 147.89 696.54 139.73
  Q 693.42 137.93 693.13 137.48
  A 1.70 1.66 -8.3 0 0 692.14 136.76
  Q 689.92 136.18 687.19 134.14
  A 0.26 0.26 0.0 0 0 686.83 134.51
  Q 688.23 136.31 689.64 136.98
  C 691.39 137.81 692.12 138.94 694.17 140.05
  A 2.39 2.39 0.0 0 1 695.02 140.82
  Q 696.50 142.98 698.42 143.62
  A 2.62 2.60 -10.8 0 1 699.58 144.40
  C 702.04 147.25 704.65 148.48 707.12 151.07
  Q 708.70 152.73 712.04 155.00
  A 3.98 3.62 83.7 0 1 712.80 155.67
  Q 714.62 157.78 715.62 158.63
  Q 726.14 167.60 736.04 178.21
  Q 736.66 178.86 738.18 180.56
  Q 759.99 204.84 774.42 225.85
  C 778.15 231.28 782.71 238.84 785.13 242.87
  Q 803.14 272.86 815.35 306.28
  Q 818.74 315.56 821.26 324.32
  Q 824.75 336.50 826.38 342.59
  Q 828.06 348.84 834.07 380.26
  Q 834.63 383.22 835.17 388.01
  Q 837.84 411.79 838.83 432.17
  Q 840.07 457.39 836.73 493.29
  Q 833.62 526.86 824.01 559.50
  Q 812.47 598.69 793.76 633.26
  Q 783.25 652.66 772.74 668.73
  Q 740.73 717.63 696.24 756.75
  Q 686.06 765.69 682.36 768.63
  Q 655.13 790.23 624.76 807.75
  Q 615.41 813.15 605.27 818.06
  Q 592.32 824.32 585.15 827.11
  Q 575.40 830.90 562.50 835.37
  A 0.25 0.25 0.0 0 0 562.61 835.86
  Q 584.08 833.19 604.79 826.79
  Q 644.52 814.50 679.61 793.61
  Q 708.01 776.71 732.72 755.74
  Q 735.85 753.09 736.74 752.23
  C 740.34 748.77 743.54 746.38 746.66 743.25
  Q 750.58 739.30 760.01 729.88
  C 762.50 727.39 765.55 723.40 768.79 720.23
  A 3.91 3.90 83.6 0 0 769.41 719.45
  C 771.21 716.41 773.90 714.23 776.08 711.47
  C 780.43 705.96 784.35 701.49 787.86 696.75
  Q 804.80 673.89 816.54 652.79
  Q 837.05 615.92 849.53 575.99
  Q 855.25 557.71 857.18 549.67
  Q 861.38 532.19 864.27 512.51
  C 865.34 505.30 866.03 501.16 866.56 494.76
  Q 867.90 478.27 868.55 464.69
  A 0.30 0.30 0.0 0 1 868.86 464.40
  L 869.12 464.41
  A 0.07 0.07 0.0 0 1 869.15 464.44
  L 869.33 467.29
  C 866.63 551.91 836.20 636.69 784.18 703.17
  Q 732.93 768.67 658.94 806.18
  Q 611.53 830.20 558.42 838.38
  Q 544.41 840.54 528.15 842.75
  A 0.26 0.25 30.5 0 1 528.02 842.26
  Q 529.39 841.73 531.13 841.41
  Q 549.97 837.92 554.08 836.58
  Q 562.05 833.97 569.77 831.40
  Q 596.11 822.62 619.79 809.30
  C 645.64 794.75 669.81 778.31 692.58 758.55
  Q 758.13 701.68 797.11 624.41
  C 816.81 585.35 829.52 544.43 834.77 501.50
  Q 840.50 454.72 835.89 405.52
  C 829.10 332.92 803.94 263.92 759.04 206.69
  Q 752.09 197.83 742.17 186.62
  C 719.14 160.57 691.99 138.14 662.67 119.73
  A 0.05 0.05 0.0 0 1 662.71 119.64
  Q 665.14 120.40 666.74 121.28
  Q 670.50 123.36 686.28 132.15
  C 693.84 136.36 703.24 142.31 708.48 145.77
  C 747.91 171.82 781.75 206.56 807.66 246.12
  C 821.87 267.81 835.02 292.99 844.63 318.72
  Q 855.89 348.83 861.97 378.24
  Q 865.17 393.72 867.39 412.94
  Z"
/>
<path fill="#000000" d="
  M 243.90 252.93
  C 270.52 218.82 303.49 188.43 340.21 167.04
  Q 376.31 146.01 416.70 134.54
  C 437.95 128.51 460.43 125.56 483.76 124.16
  Q 488.61 123.87 502.75 124.00
  C 526.58 124.22 550.49 128.04 573.22 134.54
  C 598.40 141.73 621.53 153.26 643.61 167.49
  Q 656.29 175.66 669.24 186.43
  C 736.23 242.17 778.34 326.83 785.00 413.73
  Q 787.05 440.47 785.46 472.24
  C 781.78 545.52 752.39 615.60 706.76 673.04
  C 678.59 708.51 644.12 737.01 604.83 759.58
  C 574.70 776.89 542.94 788.28 508.24 794.41
  C 468.21 801.49 427.27 799.02 388.00 788.71
  Q 339.76 776.04 299.36 746.62
  Q 277.69 730.83 258.55 711.51
  C 212.33 664.85 182.80 601.93 172.70 537.26
  Q 168.89 512.83 168.14 490.51
  C 167.30 465.54 169.13 436.88 173.77 410.42
  Q 189.05 323.20 243.90 252.93
  Z
  M 379.63 768.68
  A 0.09 0.08 -69.2 0 0 379.59 768.58
  Q 372.07 765.10 366.76 763.04
  Q 360.23 760.50 353.78 757.12
  Q 333.80 746.67 319.73 736.04
  Q 293.88 716.52 272.19 689.08
  C 230.64 636.52 206.91 570.71 204.18 503.51
  Q 202.78 469.00 206.69 435.10
  C 208.75 417.23 212.91 398.54 217.70 382.45
  C 225.70 355.58 237.11 327.62 251.30 303.70
  Q 265.74 279.36 281.32 259.30
  Q 298.52 237.16 323.93 213.98
  C 354.78 185.83 391.73 163.47 429.85 148.12
  C 437.84 144.90 444.65 143.16 453.49 140.80
  A 0.25 0.24 76.3 0 0 453.66 140.51
  L 453.66 140.50
  A 0.23 0.23 0.0 0 0 453.39 140.31
  Q 446.58 141.29 435.03 143.73
  Q 396.64 151.84 363.46 169.22
  Q 337.44 182.84 317.92 197.95
  Q 298.53 212.96 280.99 230.92
  Q 221.78 291.53 196.59 372.27
  Q 183.59 413.91 181.24 454.95
  C 180.57 466.48 179.96 474.35 180.11 482.70
  C 180.70 514.70 185.11 546.31 194.69 576.83
  Q 211.75 631.22 246.44 677.05
  Q 265.46 702.18 287.82 720.34
  Q 328.47 753.39 379.34 768.83
  A 0.24 0.24 0.0 0 0 379.63 768.69
  L 379.63 768.68
  Z
  M 700.81 656.04
  Q 736.46 608.52 753.65 553.13
  Q 762.29 525.29 766.27 492.95
  C 773.91 430.75 767.19 365.87 741.30 308.40
  C 726.78 276.14 707.22 245.61 682.73 220.68
  Q 661.46 199.03 638.48 184.04
  Q 595.70 156.13 544.15 149.23
  Q 485.71 141.39 428.34 162.81
  Q 392.21 176.30 361.22 198.73
  Q 347.56 208.62 341.76 213.51
  C 282.86 263.20 240.62 331.14 224.25 406.24
  Q 211.82 463.23 217.52 523.12
  Q 220.31 552.54 228.01 578.71
  Q 236.16 606.43 248.58 631.42
  Q 277.19 689.01 327.78 726.45
  C 353.69 745.63 383.93 759.47 414.77 767.69
  Q 436.42 773.45 457.13 775.32
  Q 530.72 781.94 597.05 747.02
  C 637.95 725.50 673.09 692.98 700.81 656.04
  Z"
/>
<path fill="#930711" d="
  M 867.39 412.94
  C 869.00 425.08 869.16 433.79 869.83 449.25
  Q 870.13 456.28 869.33 467.29
  L 869.15 464.44
  A 0.07 0.07 0.0 0 0 869.12 464.41
  L 868.86 464.40
  A 0.30 0.30 0.0 0 0 868.55 464.69
  Q 867.90 478.27 866.56 494.76
  C 866.03 501.16 865.34 505.30 864.27 512.51
  Q 861.38 532.19 857.18 549.67
  Q 855.25 557.71 849.53 575.99
  Q 837.05 615.92 816.54 652.79
  Q 804.80 673.89 787.86 696.75
  C 784.35 701.49 780.43 705.96 776.08 711.47
  C 773.90 714.23 771.21 716.41 769.41 719.45
  A 3.91 3.90 83.6 0 1 768.79 720.23
  C 765.55 723.40 762.50 727.39 760.01 729.88
  Q 750.58 739.30 746.66 743.25
  C 743.54 746.38 740.34 748.77 736.74 752.23
  Q 735.85 753.09 732.72 755.74
  Q 708.01 776.71 679.61 793.61
  Q 644.52 814.50 604.79 826.79
  Q 584.08 833.19 562.61 835.86
  A 0.25 0.25 0.0 0 1 562.50 835.37
  Q 575.40 830.90 585.15 827.11
  Q 592.32 824.32 605.27 818.06
  Q 615.41 813.15 624.76 807.75
  Q 655.13 790.23 682.36 768.63
  Q 686.06 765.69 696.24 756.75
  Q 740.73 717.63 772.74 668.73
  Q 783.25 652.66 793.76 633.26
  Q 812.47 598.69 824.01 559.50
  Q 833.62 526.86 836.73 493.29
  Q 840.07 457.39 838.83 432.17
  Q 837.84 411.79 835.17 388.01
  Q 834.63 383.22 834.07 380.26
  Q 828.06 348.84 826.38 342.59
  Q 824.75 336.50 821.26 324.32
  Q 818.74 315.56 815.35 306.28
  Q 803.14 272.86 785.13 242.87
  C 782.71 238.84 778.15 231.28 774.42 225.85
  Q 759.99 204.84 738.18 180.56
  Q 736.66 178.86 736.04 178.21
  Q 726.14 167.60 715.62 158.63
  Q 714.62 157.78 712.80 155.67
  A 3.98 3.62 83.7 0 0 712.04 155.00
  Q 708.70 152.73 707.12 151.07
  C 704.65 148.48 702.04 147.25 699.58 144.40
  A 2.62 2.60 -10.8 0 0 698.42 143.62
  Q 696.50 142.98 695.02 140.82
  A 2.39 2.39 0.0 0 0 694.17 140.05
  C 692.12 138.94 691.39 137.81 689.64 136.98
  Q 688.23 136.31 686.83 134.51
  A 0.26 0.26 0.0 0 1 687.19 134.14
  Q 689.92 136.18 692.14 136.76
  A 1.70 1.66 -8.3 0 1 693.13 137.48
  Q 693.42 137.93 696.54 139.73
  Q 710.68 147.89 726.14 159.69
  Q 734.26 165.89 744.56 174.89
  Q 755.21 184.20 761.97 191.18
  Q 772.91 202.48 783.46 215.04
  C 784.04 215.73 784.48 216.79 785.17 217.40
  C 787.02 219.05 787.85 220.84 789.38 222.77
  Q 800.49 236.73 808.36 249.14
  Q 816.75 262.38 825.76 279.35
  Q 833.68 294.25 840.41 311.00
  Q 851.28 338.08 858.25 366.77
  Q 861.53 380.27 863.16 391.25
  Q 863.71 394.93 864.25 397.10
  C 864.90 399.73 864.76 402.17 865.29 404.98
  Q 865.83 407.83 866.50 413.61
  A 0.23 0.23 0.0 0 0 866.93 413.70
  L 867.39 412.94
  Z"
/>
<path fill="#d91e20" d="
  M 379.34 768.83
  Q 328.47 753.39 287.82 720.34
  Q 265.46 702.18 246.44 677.05
  Q 211.75 631.22 194.69 576.83
  C 185.11 546.31 180.70 514.70 180.11 482.70
  C 179.96 474.35 180.57 466.48 181.24 454.95
  Q 183.59 413.91 196.59 372.27
  Q 221.78 291.53 280.99 230.92
  Q 298.53 212.96 317.92 197.95
  Q 337.44 182.84 363.46 169.22
  Q 396.64 151.84 435.03 143.73
  Q 446.58 141.29 453.39 140.31
  A 0.23 0.23 0.0 0 1 453.66 140.50
  L 453.66 140.51
  A 0.25 0.24 76.3 0 1 453.49 140.80
  C 444.65 143.16 437.84 144.90 429.85 148.12
  C 391.73 163.47 354.78 185.83 323.93 213.98
  Q 298.52 237.16 281.32 259.30
  Q 265.74 279.36 251.30 303.70
  C 237.11 327.62 225.70 355.58 217.70 382.45
  C 212.91 398.54 208.75 417.23 206.69 435.10
  Q 202.78 469.00 204.18 503.51
  C 206.91 570.71 230.64 636.52 272.19 689.08
  Q 293.88 716.52 319.73 736.04
  Q 333.80 746.67 353.78 757.12
  Q 360.23 760.50 366.76 763.04
  Q 372.07 765.10 379.59 768.58
  A 0.09 0.08 -69.2 0 1 379.63 768.68
  L 379.63 768.69
  A 0.24 0.24 0.0 0 1 379.34 768.83
  Z
  M 345.84 754.42
  A 0.24 0.24 0.0 0 0 345.98 753.97
  Q 339.22 750.95 333.34 746.90
  C 326.16 741.95 319.76 737.72 313.74 732.77
  Q 290.81 713.93 271.98 690.51
  Q 268.92 686.70 264.30 680.29
  Q 260.25 674.67 256.95 669.81
  Q 245.59 653.06 236.03 633.48
  Q 216.27 593.01 208.41 550.38
  Q 207.60 545.98 206.82 540.50
  Q 204.72 525.67 203.79 513.75
  Q 201.86 488.91 203.43 464.65
  C 203.69 460.70 203.26 456.82 203.86 453.84
  Q 204.26 451.86 204.63 446.75
  Q 205.03 441.24 206.48 429.50
  Q 207.25 423.27 209.24 413.27
  Q 214.49 386.83 223.65 361.46
  Q 228.03 349.33 235.65 332.09
  C 242.53 316.51 251.13 302.01 260.71 286.70
  Q 263.88 281.64 275.74 265.15
  Q 280.49 258.54 286.25 251.76
  Q 296.83 239.29 297.30 238.80
  Q 302.89 233.01 312.04 223.86
  C 336.99 198.91 366.07 178.08 397.64 161.94
  Q 402.19 159.61 402.70 159.33
  Q 406.16 157.42 407.74 156.71
  Q 410.87 155.31 422.82 149.57
  Q 423.73 149.13 430.30 146.67
  A 0.28 0.27 -18.5 0 0 430.47 146.34
  L 430.45 146.28
  A 0.26 0.26 0.0 0 0 430.14 146.10
  C 425.14 147.34 420.50 148.02 415.71 149.51
  Q 397.84 155.07 388.89 158.67
  Q 357.21 171.44 326.47 192.86
  Q 316.97 199.48 307.47 207.69
  Q 295.32 218.20 289.54 223.79
  Q 266.41 246.18 247.64 272.22
  Q 228.51 298.76 215.17 327.38
  Q 192.53 375.91 184.98 429.25
  Q 181.56 453.46 181.32 478.25
  C 181.26 484.43 181.69 489.30 181.64 494.24
  Q 181.59 499.42 182.22 506.23
  Q 184.79 534.31 190.50 557.54
  Q 206.09 620.97 244.94 673.14
  Q 248.73 678.21 252.49 683.30
  Q 255.01 686.70 261.49 693.53
  A 5.46 5.22 -84.3 0 1 262.10 694.31
  Q 263.14 695.97 263.63 696.48
  Q 273.98 707.35 277.05 709.84
  Q 280.82 712.90 285.68 717.36
  C 291.93 723.10 299.54 728.22 305.86 732.65
  Q 322.32 744.18 343.24 753.57
  Q 344.79 754.26 345.84 754.42
  Z"
/>
<path fill="#930711" d="
  M 345.84 754.42
  Q 344.79 754.26 343.24 753.57
  Q 322.32 744.18 305.86 732.65
  C 299.54 728.22 291.93 723.10 285.68 717.36
  Q 280.82 712.90 277.05 709.84
  Q 273.98 707.35 263.63 696.48
  Q 263.14 695.97 262.10 694.31
  A 5.46 5.22 -84.3 0 0 261.49 693.53
  Q 255.01 686.70 252.49 683.30
  Q 248.73 678.21 244.94 673.14
  Q 206.09 620.97 190.50 557.54
  Q 184.79 534.31 182.22 506.23
  Q 181.59 499.42 181.64 494.24
  C 181.69 489.30 181.26 484.43 181.32 478.25
  Q 181.56 453.46 184.98 429.25
  Q 192.53 375.91 215.17 327.38
  Q 228.51 298.76 247.64 272.22
  Q 266.41 246.18 289.54 223.79
  Q 295.32 218.20 307.47 207.69
  Q 316.97 199.48 326.47 192.86
  Q 357.21 171.44 388.89 158.67
  Q 397.84 155.07 415.71 149.51
  C 420.50 148.02 425.14 147.34 430.14 146.10
  A 0.26 0.26 0.0 0 1 430.45 146.28
  L 430.47 146.34
  A 0.28 0.27 -18.5 0 1 430.30 146.67
  Q 423.73 149.13 422.82 149.57
  Q 410.87 155.31 407.74 156.71
  Q 406.16 157.42 402.70 159.33
  Q 402.19 159.61 397.64 161.94
  C 366.07 178.08 336.99 198.91 312.04 223.86
  Q 302.89 233.01 297.30 238.80
  Q 296.83 239.29 286.25 251.76
  Q 280.49 258.54 275.74 265.15
  Q 263.88 281.64 260.71 286.70
  C 251.13 302.01 242.53 316.51 235.65 332.09
  Q 228.03 349.33 223.65 361.46
  Q 214.49 386.83 209.24 413.27
  Q 207.25 423.27 206.48 429.50
  Q 205.03 441.24 204.63 446.75
  Q 204.26 451.86 203.86 453.84
  C 203.26 456.82 203.69 460.70 203.43 464.65
  Q 201.86 488.91 203.79 513.75
  Q 204.72 525.67 206.82 540.50
  Q 207.60 545.98 208.41 550.38
  Q 216.27 593.01 236.03 633.48
  Q 245.59 653.06 256.95 669.81
  Q 260.25 674.67 264.30 680.29
  Q 268.92 686.70 271.98 690.51
  Q 290.81 713.93 313.74 732.77
  C 319.76 737.72 326.16 741.95 333.34 746.90
  Q 339.22 750.95 345.98 753.97
  A 0.24 0.24 0.0 0 1 345.84 754.42
  Z"
/>
<path fill="#d91e20" d="
  M 700.81 656.04
  C 673.09 692.98 637.95 725.50 597.05 747.02
  Q 530.72 781.94 457.13 775.32
  Q 436.42 773.45 414.77 767.69
  C 383.93 759.47 353.69 745.63 327.78 726.45
  Q 277.19 689.01 248.58 631.42
  Q 236.16 606.43 228.01 578.71
  Q 220.31 552.54 217.52 523.12
  Q 211.82 463.23 224.25 406.24
  C 240.62 331.14 282.86 263.20 341.76 213.51
  Q 347.56 208.62 361.22 198.73
  Q 392.21 176.30 428.34 162.81
  Q 485.71 141.39 544.15 149.23
  Q 595.70 156.13 638.48 184.04
  Q 661.46 199.03 682.73 220.68
  C 707.22 245.61 726.78 276.14 741.30 308.40
  C 767.19 365.87 773.91 430.75 766.27 492.95
  Q 762.29 525.29 753.65 553.13
  Q 736.46 608.52 700.81 656.04
  Z
  M 471.38 302.77
  Q 456.68 304.95 450.24 306.99
  Q 412.25 319.00 385.47 345.26
  C 355.84 374.33 338.26 413.02 336.26 454.44
  Q 335.14 477.57 339.10 497.97
  C 343.90 522.77 354.11 546.14 369.61 565.84
  Q 380.21 579.32 396.05 590.98
  Q 431.79 617.29 477.53 619.64
  Q 494.47 620.50 510.52 618.20
  C 524.39 616.21 540.15 611.50 553.21 604.43
  Q 572.55 593.96 590.23 576.49
  Q 616.17 550.86 629.87 519.34
  C 641.26 493.12 645.23 463.56 642.18 434.83
  C 635.78 374.46 597.21 323.82 537.83 307.23
  Q 504.39 297.88 471.38 302.77
  Z"
/>
<path fill="#000000" d="
  M 471.38 302.77
  Q 504.39 297.88 537.83 307.23
  C 597.21 323.82 635.78 374.46 642.18 434.83
  C 645.23 463.56 641.26 493.12 629.87 519.34
  Q 616.17 550.86 590.23 576.49
  Q 572.55 593.96 553.21 604.43
  C 540.15 611.50 524.39 616.21 510.52 618.20
  Q 494.47 620.50 477.53 619.64
  Q 431.79 617.29 396.05 590.98
  Q 380.21 579.32 369.61 565.84
  C 354.11 546.14 343.90 522.77 339.10 497.97
  Q 335.14 477.57 336.26 454.44
  C 338.26 413.02 355.84 374.33 385.47 345.26
  Q 412.25 319.00 450.24 306.99
  Q 456.68 304.95 471.38 302.77
  Z
  M 419.11 340.10
  C 384.04 363.87 360.33 401.21 354.22 442.96
  Q 350.59 467.71 354.37 490.73
  C 359.88 524.34 377.64 556.17 405.11 575.74
  Q 424.96 589.89 449.46 594.03
  C 491.41 601.11 531.69 587.08 559.85 555.25
  Q 591.60 519.36 599.13 471.89
  C 606.02 428.41 596.01 383.87 564.60 352.10
  C 549.67 336.99 531.47 327.16 510.78 322.21
  C 501.57 320.00 493.61 319.72 484.01 319.65
  C 460.57 319.46 438.41 327.03 419.11 340.10
  Z
  M 503.44 605.89
  A 0.51 0.51 0.0 0 0 504.04 606.26
  Q 519.07 603.08 519.92 602.89
  C 529.45 600.75 540.33 596.56 549.64 591.43
  Q 578.33 575.62 597.51 549.27
  Q 607.19 535.97 612.48 525.74
  Q 617.03 516.92 621.19 505.20
  Q 634.18 468.55 629.73 431.26
  C 626.09 400.79 612.45 371.13 589.84 350.12
  Q 579.64 340.64 565.48 332.50
  Q 564.08 331.70 562.63 331.18
  A 0.10 0.10 0.0 0 0 562.53 331.35
  Q 570.38 336.99 577.04 344.47
  C 603.41 374.08 614.52 411.06 614.04 450.54
  C 613.54 492.20 598.37 529.45 571.43 560.92
  Q 549.60 586.44 519.79 600.01
  Q 515.13 602.13 503.77 605.31
  A 0.47 0.47 0.0 0 0 503.44 605.87
  L 503.44 605.89
  Z"
/>
<path fill="#d91e20" d="
  M 354.22 442.96
  C 360.33 401.21 384.04 363.87 419.11 340.10
  C 438.41 327.03 460.57 319.46 484.01 319.65
  C 493.61 319.72 501.57 320.00 510.78 322.21
  C 531.47 327.16 549.67 336.99 564.60 352.10
  C 596.01 383.87 606.02 428.41 599.13 471.89
  Q 591.60 519.36 559.85 555.25
  C 531.69 587.08 491.41 601.11 449.46 594.03
  Q 424.96 589.89 405.11 575.74
  C 377.64 556.17 359.88 524.34 354.37 490.73
  Q 350.59 467.71 354.22 442.96
  Z
  M 418.00 392.91
  Q 387.93 427.86 393.30 474.48
  C 397.49 510.91 422.66 548.36 462.67 550.02
  Q 471.60 550.39 477.02 549.97
  C 518.95 546.70 549.35 515.55 557.26 475.24
  Q 560.67 457.86 558.69 439.74
  C 555.25 408.16 537.28 381.61 507.85 368.89
  C 476.88 355.50 439.52 367.90 418.00 392.91
  Z"
/>
<path fill="#d91e20" d="
  M 503.44 605.89
  L 503.44 605.87
  A 0.47 0.47 0.0 0 1 503.77 605.31
  Q 515.13 602.13 519.79 600.01
  Q 549.60 586.44 571.43 560.92
  C 598.37 529.45 613.54 492.20 614.04 450.54
  C 614.52 411.06 603.41 374.08 577.04 344.47
  Q 570.38 336.99 562.53 331.35
  A 0.10 0.10 0.0 0 1 562.63 331.18
  Q 564.08 331.70 565.48 332.50
  Q 579.64 340.64 589.84 350.12
  C 612.45 371.13 626.09 400.79 629.73 431.26
  Q 634.18 468.55 621.19 505.20
  Q 617.03 516.92 612.48 525.74
  Q 607.19 535.97 597.51 549.27
  Q 578.33 575.62 549.64 591.43
  C 540.33 596.56 529.45 600.75 519.92 602.89
  Q 519.07 603.08 504.04 606.26
  A 0.51 0.51 0.0 0 1 503.44 605.89
  Z
  M 519.48 601.81
  Q 523.51 600.48 529.10 599.02
  C 539.14 596.40 548.31 591.66 557.56 585.58
  Q 580.20 570.70 594.40 551.93
  C 602.46 541.26 610.22 529.78 615.41 517.71
  Q 621.43 503.67 625.70 487.24
  Q 626.97 482.35 627.85 476.26
  C 628.15 474.24 628.77 471.95 628.66 469.53
  A 6.48 6.14 -43.5 0 1 628.72 468.41
  C 629.02 466.47 629.43 465.13 629.48 462.98
  Q 629.96 441.17 629.52 437.27
  Q 626.71 412.53 619.40 395.13
  Q 611.96 377.42 600.83 363.23
  Q 594.56 355.23 584.46 346.60
  Q 582.32 344.77 580.08 343.48
  Q 577.51 342.00 575.62 340.42
  A 0.23 0.23 0.0 0 0 575.31 340.43
  L 575.12 340.62
  A 0.14 0.14 0.0 0 0 575.12 340.82
  L 579.54 345.23
  A 1.49 1.43 15.8 0 1 579.89 345.83
  L 580.19 346.85
  A 1.96 1.92 -76.2 0 0 580.68 347.68
  L 583.49 350.48
  A 4.04 3.94 -81.8 0 1 584.16 351.40
  C 585.10 353.22 586.51 354.52 587.71 356.25
  Q 604.01 379.83 610.18 405.54
  Q 615.80 428.92 614.89 455.81
  Q 614.73 460.51 614.00 466.67
  Q 613.08 474.50 612.58 477.48
  Q 606.47 513.39 585.81 543.79
  Q 579.08 553.70 570.59 563.34
  Q 551.76 584.73 526.83 597.79
  Q 521.14 600.77 519.27 601.20
  A 0.06 0.05 84.3 0 0 519.23 601.26
  L 519.21 601.60
  A 0.21 0.21 0.0 0 0 519.48 601.81
  Z"
/>
<path fill="#930711" d="
  M 519.48 601.81
  A 0.21 0.21 0.0 0 1 519.21 601.60
  L 519.23 601.26
  A 0.06 0.05 84.3 0 1 519.27 601.20
  Q 521.14 600.77 526.83 597.79
  Q 551.76 584.73 570.59 563.34
  Q 579.08 553.70 585.81 543.79
  Q 606.47 513.39 612.58 477.48
  Q 613.08 474.50 614.00 466.67
  Q 614.73 460.51 614.89 455.81
  Q 615.80 428.92 610.18 405.54
  Q 604.01 379.83 587.71 356.25
  C 586.51 354.52 585.10 353.22 584.16 351.40
  A 4.04 3.94 -81.8 0 0 583.49 350.48
  L 580.68 347.68
  A 1.96 1.92 -76.2 0 1 580.19 346.85
  L 579.89 345.83
  A 1.49 1.43 15.8 0 0 579.54 345.23
  L 575.12 340.82
  A 0.14 0.14 0.0 0 1 575.12 340.62
  L 575.31 340.43
  A 0.23 0.23 0.0 0 1 575.62 340.42
  Q 577.51 342.00 580.08 343.48
  Q 582.32 344.77 584.46 346.60
  Q 594.56 355.23 600.83 363.23
  Q 611.96 377.42 619.40 395.13
  Q 626.71 412.53 629.52 437.27
  Q 629.96 441.17 629.48 462.98
  C 629.43 465.13 629.02 466.47 628.72 468.41
  A 6.48 6.14 -43.5 0 0 628.66 469.53
  C 628.77 471.95 628.15 474.24 627.85 476.26
  Q 626.97 482.35 625.70 487.24
  Q 621.43 503.67 615.41 517.71
  C 610.22 529.78 602.46 541.26 594.40 551.93
  Q 580.20 570.70 557.56 585.58
  C 548.31 591.66 539.14 596.40 529.10 599.02
  Q 523.51 600.48 519.48 601.81
  Z"
/>
<path fill="#000000" d="
  M 418.00 392.91
  C 439.52 367.90 476.88 355.50 507.85 368.89
  C 537.28 381.61 555.25 408.16 558.69 439.74
  Q 560.67 457.86 557.26 475.24
  C 549.35 515.55 518.95 546.70 477.02 549.97
  Q 471.60 550.39 462.67 550.02
  C 422.66 548.36 397.49 510.91 393.30 474.48
  Q 387.93 427.86 418.00 392.91
  Z
  M 463.43 534.88
  C 462.44 533.94 460.73 533.27 459.54 532.11
  C 442.96 515.86 436.21 493.82 435.20 471.16
  Q 434.56 456.79 438.19 442.78
  C 442.02 427.94 449.47 416.08 459.77 404.00
  Q 469.15 393.00 483.69 384.67
  Q 488.21 382.09 493.58 380.79
  A 0.36 0.36 0.0 0 0 493.54 380.08
  Q 487.60 379.45 482.49 379.08
  C 450.76 376.78 424.61 402.28 413.65 429.67
  Q 409.29 440.57 408.22 455.51
  Q 406.12 485.09 421.65 509.35
  Q 432.12 525.69 451.25 532.99
  Q 456.88 535.14 463.24 535.33
  A 0.26 0.26 0.0 0 0 463.43 534.88
  Z
  M 492.40 400.21
  C 476.46 408.01 464.19 422.00 457.06 437.81
  C 446.73 460.69 449.99 486.90 462.28 508.50
  C 466.32 515.60 473.04 523.41 480.24 526.53
  C 493.05 532.09 507.81 523.66 516.83 514.91
  Q 536.10 496.23 541.21 469.61
  Q 541.79 466.60 542.31 460.84
  Q 542.92 454.14 542.82 452.01
  C 541.93 432.49 535.96 408.39 517.55 398.12
  A 1.45 1.37 -20.0 0 0 517.32 398.02
  L 511.92 396.47
  A 10.79 10.67 50.9 0 0 508.34 396.08
  Q 499.74 396.62 492.40 400.21
  Z"
/>
<path fill="#d91e20" d="
  M 463.43 534.88
  A 0.26 0.26 0.0 0 1 463.24 535.33
  Q 456.88 535.14 451.25 532.99
  Q 432.12 525.69 421.65 509.35
  Q 406.12 485.09 408.22 455.51
  Q 409.29 440.57 413.65 429.67
  C 424.61 402.28 450.76 376.78 482.49 379.08
  Q 487.60 379.45 493.54 380.08
  A 0.36 0.36 0.0 0 1 493.58 380.79
  Q 488.21 382.09 483.69 384.67
  Q 469.15 393.00 459.77 404.00
  C 449.47 416.08 442.02 427.94 438.19 442.78
  Q 434.56 456.79 435.20 471.16
  C 436.21 493.82 442.96 515.86 459.54 532.11
  C 460.73 533.27 462.44 533.94 463.43 534.88
  Z
  M 459.16 533.30
  Q 445.70 519.95 439.54 501.79
  Q 436.13 491.71 435.00 481.65
  Q 434.22 474.76 434.45 462.17
  Q 434.58 454.68 435.85 448.92
  Q 437.58 441.05 439.26 436.01
  Q 443.01 424.71 450.04 414.80
  Q 455.06 407.73 460.12 402.12
  Q 464.39 397.38 469.58 393.09
  C 474.63 388.91 481.71 384.69 485.54 382.29
  Q 486.18 381.89 487.39 381.57
  A 0.33 0.32 43.5 0 0 487.37 380.94
  C 472.80 377.68 455.65 383.22 443.98 391.77
  Q 441.07 393.90 439.55 395.14
  C 431.79 401.46 425.51 409.58 420.10 418.85
  Q 412.06 432.61 410.06 448.27
  Q 407.91 465.15 411.18 481.79
  Q 412.42 488.09 415.19 494.63
  Q 418.56 502.62 421.06 506.74
  C 426.01 514.87 433.81 523.39 442.31 527.83
  Q 446.79 530.17 454.73 533.02
  Q 456.60 533.68 459.07 533.55
  A 0.15 0.14 65.0 0 0 459.16 533.30
  Z"
/>
<path fill="#930711" d="
  M 459.16 533.30
  A 0.15 0.14 65.0 0 1 459.07 533.55
  Q 456.60 533.68 454.73 533.02
  Q 446.79 530.17 442.31 527.83
  C 433.81 523.39 426.01 514.87 421.06 506.74
  Q 418.56 502.62 415.19 494.63
  Q 412.42 488.09 411.18 481.79
  Q 407.91 465.15 410.06 448.27
  Q 412.06 432.61 420.10 418.85
  C 425.51 409.58 431.79 401.46 439.55 395.14
  Q 441.07 393.90 443.98 391.77
  C 455.65 383.22 472.80 377.68 487.37 380.94
  A 0.33 0.32 43.5 0 1 487.39 381.57
  Q 486.18 381.89 485.54 382.29
  C 481.71 384.69 474.63 388.91 469.58 393.09
  Q 464.39 397.38 460.12 402.12
  Q 455.06 407.73 450.04 414.80
  Q 443.01 424.71 439.26 436.01
  Q 437.58 441.05 435.85 448.92
  Q 434.58 454.68 434.45 462.17
  Q 434.22 474.76 435.00 481.65
  Q 436.13 491.71 439.54 501.79
  Q 445.70 519.95 459.16 533.30
  Z"
/>
</svg>
