<?xml version="1.0" encoding="UTF-8" standalone="no"?>
<!DOCTYPE svg PUBLIC "-//W3C//DTD SVG 1.1//EN" "http://www.w3.org/Graphics/SVG/1.1/DTD/svg11.dtd">
<svg xmlns="http://www.w3.org/2000/svg" version="1.1" viewBox="0.00 0.00 1024.00 1024.00">
<g stroke-width="2.00" fill="none" stroke-linecap="butt">
<path stroke="#025e87" vector-effect="non-scaling-stroke" d="
  M 486.76 90.62
  Q 461.15 91.12 436.09 96.27
  C 421.34 99.31 405.21 103.40 390.80 108.79
  Q 360.30 120.22 332.56 136.09
  Q 306.18 151.18 280.19 173.40
  Q 211.46 232.13 173.86 314.85
  C 159.12 347.28 148.95 382.06 143.86 416.51
  Q 140.83 437.11 140.10 446.78
  Q 136.91 489.39 140.67 526.07
  C 145.25 570.65 158.02 615.03 178.91 655.56
  C 210.53 716.91 258.59 767.59 319.81 799.45
  Q 365.14 823.04 415.01 830.23
  Q 447.06 834.85 473.75 833.75
  Q 503.43 832.52 535.57 825.24
  Q 564.53 818.67 588.48 807.96
  Q 615.45 795.90 637.42 781.41
  C 706.49 735.85 758.52 670.56 788.99 593.50
  Q 814.05 530.10 817.71 460.36
  C 818.92 437.23 817.72 414.12 815.07 391.00
  Q 805.00 302.93 757.85 229.54
  Q 746.49 211.85 732.31 195.45
  C 718.11 179.01 702.44 163.88 685.18 150.91
  Q 673.54 142.17 666.97 138.03
  Q 624.08 110.97 574.73 99.53
  Q 550.88 94.00 522.06 91.15
  Q 517.35 90.69 514.47 91.23"
/>
<path stroke="#004788" vector-effect="non-scaling-stroke" d="
  M 514.47 91.23
  Q 501.22 89.46 486.76 90.62"
/>
<path stroke="#029efd" vector-effect="non-scaling-stroke" d="
  M 514.47 91.23
  Q 525.80 93.17 537.11 94.34
  Q 549.56 95.63 555.27 96.78
  Q 570.99 99.93 573.25 100.52
  Q 577.83 101.71 584.85 103.47
  C 604.63 108.44 624.79 116.34 643.84 126.24
  Q 653.87 131.45 656.53 133.03
  Q 680.29 147.07 701.41 165.84
  Q 728.71 190.10 750.17 220.23
  C 752.28 223.21 754.25 226.75 756.63 230.11
  Q 762.47 238.33 774.43 260.25
  Q 775.87 262.88 776.79 265.12
  C 778.47 269.23 781.05 273.57 782.58 277.25
  C 786.20 285.96 790.24 294.82 793.47 303.99
  Q 796.71 313.22 797.99 317.27
  Q 808.85 351.58 813.08 385.52
  C 814.02 393.13 815.23 400.58 815.24 405.37
  C 815.26 410.72 816.54 414.83 816.39 420.17
  Q 816.33 422.70 816.98 431.31
  Q 817.48 437.95 817.21 445.25
  Q 816.71 458.53 816.24 467.82
  C 816.09 470.70 815.50 473.29 815.40 476.29
  Q 815.33 478.49 814.89 482.65
  Q 808.35 545.04 783.80 603.11
  Q 776.25 620.95 767.48 637.27
  Q 750.90 668.11 729.82 694.59
  Q 718.91 708.30 717.12 710.32
  C 714.66 713.11 712.24 715.43 709.41 718.58
  Q 705.01 723.47 702.42 726.16
  Q 695.65 733.20 690.54 737.79
  Q 683.38 744.24 678.19 748.94
  Q 676.12 750.82 664.40 760.13
  Q 647.92 773.23 633.10 782.60
  C 607.57 798.73 579.66 811.94 550.45 820.17
  Q 535.21 824.47 522.81 826.78
  Q 517.91 827.69 495.47 830.97
  C 492.17 831.45 489.27 831.08 486.58 831.67
  C 482.54 832.55 476.88 832.18 472.63 832.77
  C 468.73 833.31 465.32 833.01 461.08 833.16
  C 456.48 833.32 451.44 832.27 446.33 832.27
  Q 444.14 832.27 440.24 831.95
  Q 414.32 829.80 391.82 824.68
  Q 334.80 811.71 286.18 777.81
  Q 269.89 766.46 260.09 757.72
  Q 254.86 753.07 252.42 750.91
  Q 242.44 742.09 233.68 732.20
  C 229.91 727.95 226.15 724.04 224.10 721.40
  C 219.21 715.09 213.62 708.80 209.54 702.94
  C 205.82 697.60 201.66 691.97 198.10 686.44
  Q 188.11 670.89 179.31 653.71
  Q 165.15 626.08 156.85 598.70
  Q 156.66 598.10 153.37 586.61
  Q 146.60 563.03 143.52 538.73
  Q 141.33 521.48 141.16 516.89
  C 140.75 505.48 139.72 496.50 139.80 486.20
  Q 140.03 455.72 143.12 429.93
  Q 145.39 410.93 150.90 386.09
  C 153.03 376.48 155.90 367.49 158.84 357.57
  Q 164.87 337.20 175.52 314.25
  Q 184.66 294.55 189.98 285.45
  Q 193.66 279.17 199.06 269.77
  C 201.70 265.16 204.45 261.76 206.97 257.70
  Q 210.60 251.82 212.92 248.65
  Q 237.34 215.14 261.32 192.06
  Q 265.03 188.50 280.91 174.17
  Q 284.11 171.28 300.52 158.69
  Q 310.98 150.67 320.95 144.38
  C 337.75 133.79 356.01 124.41 373.31 116.96
  Q 394.74 107.74 411.16 103.45
  Q 435.47 97.11 447.34 95.42
  Q 466.10 92.76 486.54 91.79
  Q 487.20 91.76 487.25 91.08
  Q 487.27 90.81 486.76 90.62"
/>
<path stroke="#004788" vector-effect="non-scaling-stroke" d="
  M 529.88 841.96
  Q 530.92 842.07 532.86 841.83
  C 557.24 838.80 579.83 834.98 604.26 828.22
  C 654.82 814.24 701.44 787.44 740.13 751.92
  Q 790.97 705.24 824.40 640.19
  Q 836.00 617.61 842.93 599.18
  C 869.34 528.93 876.93 450.94 861.98 377.01
  C 854.13 338.18 840.60 299.99 821.06 265.47
  C 805.29 237.60 788.00 213.21 767.35 191.15
  Q 733.48 154.97 688.80 130.75
  C 680.96 126.50 673.08 123.13 664.71 119.01
  Q 664.00 118.66 662.84 118.53
  A 0.14 0.14 0.0 0 0 662.75 118.79
  Q 663.84 119.46 672.75 124.73
  Q 676.21 126.78 690.39 136.95
  C 731.71 166.59 764.70 206.76 787.87 252.15
  Q 800.36 276.61 807.92 297.31
  Q 817.11 322.50 823.59 349.43
  Q 834.82 396.09 834.20 444.30
  Q 834.11 451.74 832.94 466.21
  Q 831.94 478.54 830.96 488.03
  Q 827.52 521.58 818.64 552.86
  Q 801.71 612.54 769.78 664.91
  Q 747.52 701.42 718.11 731.84
  Q 688.15 762.83 653.70 786.69
  Q 605.86 819.83 551.18 836.40
  Q 546.00 837.97 540.55 839.14
  Q 530.40 841.34 529.82 841.64
  A 0.17 0.17 0.0 0 0 529.88 841.96"
/>
<path stroke="#029efd" vector-effect="non-scaling-stroke" d="
  M 617.15 151.41
  Q 597.35 141.82 581.61 137.21
  Q 559.61 130.76 545.43 128.47
  Q 534.72 126.73 526.42 125.69
  C 502.64 122.72 479.70 123.22 456.34 126.60
  Q 442.83 128.55 437.51 129.52
  Q 388.16 138.51 344.16 163.21
  Q 328.68 171.90 317.89 179.44
  Q 304.76 188.62 291.23 199.97
  Q 278.53 210.64 266.67 222.96
  Q 198.52 293.79 174.82 389.31
  Q 170.97 404.80 168.25 423.41
  C 163.14 458.24 162.14 492.79 167.04 528.11
  Q 169.15 543.35 170.69 551.12
  Q 179.34 594.80 199.10 634.39
  C 212.61 661.47 229.93 685.62 250.61 707.84
  C 285.25 745.06 328.50 773.41 377.04 787.78
  Q 394.67 793.00 414.12 796.35
  Q 433.95 799.77 452.00 799.87
  Q 474.43 799.99 495.03 797.60
  C 539.98 792.40 581.51 776.79 620.59 751.60
  Q 662.79 724.40 694.53 688.04
  C 715.12 664.46 732.85 638.41 746.52 610.73
  Q 758.60 586.29 766.39 563.95
  Q 780.49 523.55 784.23 483.61
  Q 786.03 464.51 786.19 451.50
  Q 786.67 414.91 780.07 376.16
  Q 779.50 372.83 778.35 368.17
  C 776.74 361.63 775.50 354.87 773.63 348.30
  Q 766.49 323.16 756.59 300.15
  C 729.17 236.37 680.11 181.91 617.15 151.41"
/>
<path stroke="#0070d9" vector-effect="non-scaling-stroke" d="
  M 557.61 836.34
  Q 559.49 836.55 559.76 836.52
  Q 578.36 833.99 597.34 828.54
  C 598.99 828.07 601.05 827.76 602.81 827.28
  Q 654.18 813.14 699.01 782.77
  C 712.63 773.54 725.85 763.65 737.47 752.72
  C 745.08 745.57 755.50 735.57 763.62 726.55
  Q 785.09 702.71 800.85 678.62
  Q 819.60 649.96 834.74 616.01
  Q 842.19 599.29 847.62 582.52
  Q 853.96 562.93 857.47 548.01
  Q 864.06 520.04 866.86 488.31
  C 867.26 483.70 867.15 479.19 867.76 474.79
  Q 868.36 470.51 868.50 464.66
  Q 868.94 445.22 867.93 432.74
  Q 867.37 425.84 867.28 424.09
  Q 866.97 417.90 866.69 415.44
  Q 863.93 391.09 860.24 374.03
  Q 855.08 350.16 846.52 324.92
  Q 837.72 298.99 823.11 271.65
  Q 812.68 252.13 794.73 226.17
  Q 792.85 223.44 782.75 210.61
  Q 778.96 205.81 777.75 204.50
  Q 773.62 200.05 772.54 198.71
  Q 768.95 194.26 764.74 190.01
  Q 750.22 175.32 741.37 167.88
  Q 723.26 152.65 698.53 137.55
  Q 694.02 134.79 690.04 133.08
  Q 685.71 131.23 681.82 128.42
  A 0.33 0.32 -55.4 0 0 681.36 128.51
  L 681.35 128.51
  A 0.22 0.21 -55.1 0 0 681.40 128.80
  Q 687.36 133.26 696.72 140.20
  Q 705.10 146.42 711.61 152.11
  Q 726.17 164.84 738.19 178.05
  Q 766.96 209.67 787.15 248.12
  C 797.37 267.57 806.67 288.64 813.77 310.41
  Q 815.72 316.41 819.20 327.92
  C 822.75 339.68 824.79 349.29 827.66 361.95
  C 829.55 370.25 831.01 380.12 831.82 386.34
  Q 832.20 389.26 833.75 404.45
  Q 834.69 413.76 835.03 422.00
  Q 835.59 435.82 835.45 439.60
  Q 835.01 451.67 834.99 452.24
  Q 834.85 459.23 834.11 464.82
  Q 833.83 466.93 832.13 486.69
  Q 829.80 513.74 823.03 540.78
  C 811.08 588.55 790.71 635.81 763.71 676.50
  Q 750.04 697.10 741.33 707.37
  Q 728.87 722.06 726.04 725.06
  Q 705.94 746.34 697.61 753.36
  Q 695.84 754.86 688.90 760.99
  C 681.62 767.43 671.79 775.19 666.76 778.76
  Q 658.75 784.43 652.42 788.87
  Q 631.29 803.68 604.06 817.01
  Q 584.18 826.74 562.66 833.93
  Q 557.94 835.51 557.48 835.88
  A 0.26 0.26 0.0 0 0 557.61 836.34"
/>
<path stroke="#0070d9" vector-effect="non-scaling-stroke" d="
  M 557.0918 836.5993
  A 1.51 0.33 -11.1 0 0 555.5465 836.5662
  A 1.51 0.33 -11.1 0 0 554.1282 837.1807
  A 1.51 0.33 -11.1 0 0 555.6735 837.2138
  A 1.51 0.33 -11.1 0 0 557.0918 836.5993"
/>
<path stroke="#025e87" vector-effect="non-scaling-stroke" d="
  M 616.44 152.47
  Q 596.71 142.93 581.03 138.35
  Q 559.10 131.94 544.98 129.67
  Q 534.30 127.95 526.03 126.92
  C 502.34 123.98 479.49 124.49 456.22 127.88
  Q 442.76 129.83 437.46 130.80
  Q 388.30 139.79 344.48 164.43
  Q 329.07 173.10 318.32 180.62
  Q 305.25 189.78 291.78 201.10
  Q 279.13 211.74 267.33 224.02
  Q 199.49 294.64 175.95 389.82
  Q 172.12 405.25 169.43 423.80
  C 164.36 458.50 163.39 492.92 168.30 528.11
  Q 170.42 543.29 171.96 551.03
  Q 180.61 594.54 200.32 633.96
  C 213.80 660.93 231.08 684.98 251.70 707.10
  C 286.23 744.16 329.34 772.37 377.71 786.65
  Q 395.28 791.83 414.66 795.16
  Q 434.42 798.55 452.40 798.63
  Q 474.75 798.74 495.27 796.34
  C 540.05 791.13 581.41 775.54 620.33 750.42
  Q 662.35 723.29 693.94 687.04
  C 714.44 663.53 732.08 637.56 745.68 609.98
  Q 757.70 585.62 765.44 563.36
  Q 779.46 523.10 783.15 483.30
  Q 784.93 464.27 785.08 451.31
  Q 785.53 414.86 778.93 376.26
  Q 778.36 372.94 777.21 368.30
  C 775.60 361.79 774.36 355.05 772.49 348.51
  Q 765.36 323.47 755.48 300.55
  C 728.11 237.03 679.19 182.81 616.44 152.47"
/>
<path stroke="#004788" vector-effect="non-scaling-stroke" d="
  M 458.88 142.01
  A 0.20 0.20 0.0 0 0 458.79 141.62
  Q 443.48 143.21 433.62 144.63
  Q 425.75 145.76 412.28 149.53
  Q 355.78 165.36 310.57 200.57
  C 291.11 215.72 273.24 234.38 258.03 254.01
  Q 210.25 315.66 191.37 389.32
  Q 180.87 430.28 179.35 471.30
  Q 177.84 511.79 186.71 553.76
  Q 197.99 607.10 229.23 656.71
  Q 256.98 700.77 298.84 732.17
  Q 325.52 752.18 354.23 763.11
  Q 359.21 765.00 365.72 766.74
  C 369.33 767.71 377.24 770.31 383.58 771.73
  A 0.04 0.04 0.0 0 0 383.64 771.70
  L 383.71 771.44
  A 0.24 0.24 0.0 0 0 383.55 771.15
  Q 368.69 766.33 355.28 758.44
  Q 342.59 750.97 332.87 744.36
  Q 312.92 730.78 294.58 712.65
  Q 244.89 663.51 222.03 596.70
  Q 202.60 539.92 203.10 479.97
  Q 203.75 402.52 235.23 331.94
  Q 250.22 298.36 274.85 264.36
  Q 329.94 188.34 416.81 155.61
  Q 425.43 152.37 443.32 146.39
  C 448.70 144.58 453.93 143.84 458.88 142.01"
/>
<path stroke="#025e87" vector-effect="non-scaling-stroke" d="
  M 687.35 671.60
  C 705.04 651.19 720.60 627.43 732.60 604.61
  C 753.79 564.31 765.81 518.77 769.07 473.25
  Q 773.92 405.59 754.82 341.94
  Q 737.51 284.26 700.59 238.62
  C 669.25 199.88 626.80 170.88 578.77 157.02
  C 552.07 149.32 522.97 147.68 495.75 149.54
  C 475.79 150.91 455.01 154.87 435.16 161.84
  C 405.01 172.41 376.48 186.77 351.06 205.63
  C 330.11 221.18 311.47 239.60 294.67 259.66
  Q 285.21 270.94 275.32 285.65
  Q 264.45 301.83 258.19 313.16
  C 227.56 368.60 211.79 432.38 214.64 496.00
  Q 216.42 535.63 225.80 570.75
  C 228.56 581.09 232.76 592.45 236.79 602.71
  C 252.30 642.16 276.18 679.10 307.27 707.43
  Q 324.46 723.09 345.63 737.36
  Q 405.79 777.91 478.23 778.17
  Q 502.35 778.26 523.52 773.77
  Q 571.84 763.53 613.88 736.08
  Q 645.53 715.41 670.43 689.66
  Q 682.62 677.05 687.35 671.60"
/>
<path stroke="#0070d9" vector-effect="non-scaling-stroke" d="
  M 441.89 144.86
  Q 432.35 146.37 425.77 147.52
  Q 419.99 148.54 408.86 151.81
  C 377.90 160.91 347.51 175.00 321.26 194.09
  Q 308.62 203.27 303.47 207.70
  Q 279.65 228.21 259.58 253.85
  Q 234.18 286.32 217.04 322.30
  Q 215.35 325.84 210.75 336.22
  Q 206.98 344.70 204.88 350.30
  Q 184.46 404.81 180.94 463.26
  Q 179.48 487.44 181.47 511.26
  Q 181.96 517.17 182.92 524.18
  Q 184.17 533.24 184.70 537.07
  Q 185.49 542.73 189.63 560.26
  Q 192.71 573.34 195.89 583.13
  Q 212.29 633.64 243.98 675.98
  Q 253.53 688.74 263.26 698.87
  Q 276.04 712.18 285.10 719.66
  C 289.02 722.90 292.66 726.25 296.87 729.49
  Q 312.84 741.78 330.84 751.13
  Q 343.60 757.76 352.77 761.46
  Q 357.06 763.19 361.76 764.02
  A 0.32 0.32 0.0 0 0 362.09 763.55
  Q 361.90 763.19 361.31 762.96
  Q 358.50 761.88 357.67 760.93
  A 1.65 1.65 0.0 0 0 356.82 760.40
  Q 356.40 760.29 354.51 759.23
  Q 332.36 746.78 312.82 730.64
  C 302.09 721.77 291.67 711.44 282.17 701.33
  C 268.82 687.10 256.92 670.17 246.51 652.85
  Q 240.29 642.51 234.88 631.06
  Q 212.21 583.18 205.12 530.45
  Q 204.64 526.88 204.08 521.82
  Q 203.33 514.99 203.18 513.17
  Q 199.89 470.46 206.00 428.02
  Q 209.39 404.44 215.79 382.52
  Q 218.24 374.13 221.59 363.82
  Q 224.84 353.78 232.62 335.34
  Q 244.11 308.12 261.62 281.88
  Q 270.61 268.40 273.78 264.03
  Q 280.09 255.33 291.01 242.11
  C 293.70 238.86 296.21 236.63 298.81 233.48
  Q 301.31 230.47 304.72 227.05
  C 324.83 206.91 346.88 189.15 371.20 175.47
  Q 392.75 163.36 415.99 154.50
  Q 421.32 152.47 442.06 145.28
  A 0.19 0.18 -17.4 0 0 442.18 145.06
  L 442.18 145.05
  A 0.27 0.26 -11.3 0 0 441.89 144.86"
/>
<path stroke="#029efd" vector-effect="non-scaling-stroke" d="
  M 305.48 249.10
  Q 292.97 262.98 285.64 272.89
  Q 283.64 275.61 275.83 286.79
  Q 272.50 291.56 271.25 293.73
  C 267.72 299.85 263.51 305.85 260.45 311.45
  Q 249.70 331.13 245.37 341.64
  C 242.58 348.42 240.28 353.26 238.25 358.78
  Q 228.65 384.87 222.97 410.70
  Q 221.14 419.01 219.28 431.67
  Q 217.17 446.07 216.77 452.87
  Q 216.26 461.37 216.23 461.53
  Q 215.64 463.94 215.57 470.09
  Q 215.43 482.00 215.38 490.32
  C 215.35 495.19 216.45 500.15 216.58 505.00
  Q 216.85 515.21 218.10 523.40
  Q 218.77 527.83 218.97 529.99
  Q 219.22 532.62 219.90 536.57
  C 222.33 550.59 224.75 563.68 228.63 576.19
  Q 236.59 601.82 248.80 626.91
  Q 250.31 630.00 251.07 631.28
  C 253.25 634.96 254.71 638.59 256.90 642.14
  Q 266.82 658.26 268.66 660.90
  Q 275.25 670.38 281.31 677.76
  Q 285.07 682.35 286.41 684.09
  Q 287.72 685.80 293.15 691.80
  Q 293.82 692.55 294.59 693.41
  Q 302.86 702.59 320.22 717.02
  Q 335.74 729.93 344.85 735.37
  C 346.86 736.57 350.50 739.26 352.32 740.41
  Q 378.48 756.97 408.13 766.42
  Q 417.57 769.43 429.19 771.79
  Q 441.88 774.37 450.66 775.30
  Q 464.94 776.81 471.53 777.05
  Q 488.21 777.65 502.17 775.84
  Q 506.07 775.34 508.19 775.37
  A 4.11 3.80 37.8 0 0 508.88 775.31
  Q 517.86 773.61 522.10 772.79
  Q 541.49 769.08 561.42 761.40
  Q 589.17 750.71 612.92 735.19
  Q 631.44 723.08 649.84 707.42
  C 654.10 703.79 658.41 698.81 662.67 695.92
  A 3.05 2.99 -88.3 0 0 663.41 695.21
  C 665.92 691.84 670.27 688.35 673.60 684.75
  Q 685.29 672.15 685.82 671.57
  Q 693.20 663.50 701.83 651.59
  Q 716.02 632.02 726.67 613.22
  Q 742.24 585.74 752.74 553.24
  Q 754.11 549.00 756.55 540.37
  Q 758.90 532.03 759.90 527.40
  Q 763.67 510.06 766.43 489.99
  Q 767.95 478.91 768.84 457.23
  Q 769.18 449.00 768.92 442.13
  Q 768.64 434.93 768.64 434.88
  C 768.51 427.09 768.65 423.85 767.95 418.00
  Q 767.86 417.24 767.14 410.30
  Q 762.26 363.10 745.91 319.43
  C 742.27 309.70 737.63 299.99 733.77 292.23
  Q 727.55 279.75 719.04 266.23
  C 716.32 261.90 713.45 258.26 710.46 253.73
  Q 707.13 248.67 703.85 244.47
  Q 689.19 225.67 671.47 209.78
  Q 649.66 190.22 623.82 176.47
  Q 614.46 171.49 605.61 167.90
  Q 593.97 163.19 586.78 160.76
  Q 566.10 153.77 542.72 151.42
  Q 522.79 149.42 506.75 150.38
  Q 504.26 150.53 499.25 150.63
  Q 494.65 150.71 491.76 150.98
  Q 466.19 153.38 442.33 160.65
  C 434.46 163.05 424.20 167.07 417.17 169.93
  Q 386.95 182.23 361.44 199.71
  Q 359.47 201.06 351.99 206.37
  Q 346.76 210.09 342.77 213.40
  Q 322.44 230.27 305.48 249.10"
/>
<path stroke="#029efd" vector-effect="non-scaling-stroke" d="
  M 611.62 553.94
  Q 611.68 553.64 611.75 553.54
  C 625.19 534.16 634.52 513.05 639.04 490.33
  C 641.51 477.88 643.03 466.70 643.05 456.00
  Q 643.10 430.64 636.45 406.05
  Q 631.46 387.59 619.28 367.47
  Q 616.41 362.73 611.64 356.78
  Q 605.22 348.80 603.04 346.64
  Q 594.72 338.39 592.72 336.67
  Q 588.16 332.75 580.06 327.16
  Q 572.41 321.90 566.70 318.87
  Q 536.50 302.84 505.83 299.49
  Q 489.27 297.68 467.56 301.12
  C 463.32 301.79 458.39 303.44 453.72 304.42
  Q 449.47 305.32 443.57 307.70
  Q 417.22 318.37 397.98 332.26
  Q 366.67 354.87 349.70 391.25
  Q 346.57 397.96 343.53 407.14
  Q 339.78 418.51 338.83 423.52
  C 338.25 426.62 337.22 430.62 336.86 434.18
  C 336.42 438.58 335.49 441.68 335.27 445.96
  Q 334.68 457.43 334.66 460.98
  Q 334.47 486.38 340.69 509.38
  C 341.73 513.25 343.18 517.09 344.01 520.20
  Q 344.97 523.86 346.77 528.23
  Q 357.12 553.49 374.11 572.92
  Q 382.15 582.11 391.22 589.28
  Q 404.27 599.58 419.08 607.19
  Q 446.22 621.12 478.58 622.88
  Q 499.67 624.02 521.31 618.08
  Q 534.63 614.43 543.94 610.17
  C 559.86 602.89 576.06 591.86 589.32 578.89
  Q 597.42 570.96 600.14 567.88
  Q 605.56 561.75 610.27 555.26
  Q 610.61 554.80 611.43 554.24
  Q 611.57 554.14 611.62 553.94"
/>
<path stroke="#025e87" vector-effect="non-scaling-stroke" d="
  M 526.00 615.63
  C 548.45 609.04 568.25 596.69 585.54 581.02
  Q 628.51 542.09 639.10 484.59
  C 643.76 459.26 642.16 430.91 635.15 406.09
  Q 626.31 374.82 604.96 350.53
  C 585.27 328.11 557.73 312.81 529.22 305.12
  Q 486.60 293.63 445.19 308.52
  Q 429.64 314.11 409.45 326.10
  C 400.89 331.17 392.04 338.19 385.52 344.02
  C 373.76 354.52 363.86 367.03 356.24 380.96
  Q 333.70 422.20 336.12 470.55
  C 338.24 513.16 353.80 554.49 386.16 583.33
  C 399.58 595.29 415.99 605.74 433.01 612.17
  Q 470.49 626.33 510.11 619.51
  Q 516.51 618.41 526.00 615.63"
/>
<path stroke="#025e87" vector-effect="non-scaling-stroke" d="
  M 507.77 589.15
  C 550.61 574.60 582.62 535.35 594.13 492.42
  C 603.47 457.60 603.15 418.15 586.23 386.28
  C 570.35 356.36 543.24 332.45 511.05 323.38
  Q 493.86 318.54 475.19 319.83
  Q 457.90 321.02 440.11 328.13
  C 395.87 345.81 362.18 384.83 353.12 431.87
  Q 351.20 441.85 350.95 455.25
  Q 350.70 468.64 351.61 478.73
  Q 354.81 514.25 374.85 543.59
  Q 393.35 570.67 423.68 583.52
  Q 456.09 597.25 489.65 593.08
  Q 500.00 591.79 507.77 589.15"
/>
<path stroke="#004788" vector-effect="non-scaling-stroke" d="
  M 501.43 606.62
  A 0.26 0.26 0.0 0 0 501.71 606.82
  Q 507.01 606.13 511.72 605.41
  C 524.15 603.50 536.55 598.86 546.74 592.98
  Q 584.66 571.08 606.86 533.66
  C 633.70 488.42 637.84 430.14 613.04 382.73
  Q 598.74 355.38 573.14 338.15
  C 567.83 334.57 560.89 331.63 555.74 329.01
  A 0.27 0.27 0.0 0 0 555.39 329.11
  L 555.38 329.14
  A 0.30 0.29 -55.7 0 0 555.45 329.53
  C 558.77 332.00 562.08 333.84 565.28 336.80
  Q 575.25 346.01 581.18 352.83
  Q 607.25 382.81 612.75 421.47
  C 615.27 439.15 615.44 458.98 612.34 476.79
  Q 603.61 526.94 569.06 564.29
  Q 550.95 583.86 524.60 597.33
  Q 512.46 603.54 501.76 606.07
  A 0.45 0.45 0.0 0 0 501.42 606.60
  L 501.43 606.62"
/>
<path stroke="#029efd" vector-effect="non-scaling-stroke" d="
  M 500.91 589.72
  Q 516.34 585.74 529.73 577.48
  Q 540.97 570.56 547.18 565.16
  Q 558.55 555.26 568.82 541.84
  Q 582.98 523.31 590.59 500.11
  Q 596.22 482.96 598.22 464.45
  C 598.52 461.67 598.32 459.02 598.74 456.64
  Q 599.19 454.05 599.18 450.80
  Q 599.09 432.77 596.01 417.55
  Q 591.42 394.90 578.17 375.08
  Q 576.28 372.25 569.24 363.28
  C 566.26 359.49 563.12 356.41 559.86 353.09
  C 557.86 351.05 555.69 349.60 553.64 347.75
  Q 551.50 345.82 548.92 343.84
  Q 531.49 330.47 509.96 324.40
  Q 498.72 321.24 490.74 321.06
  C 481.30 320.85 476.58 320.47 469.46 321.50
  C 441.63 325.52 416.19 338.59 395.72 357.74
  Q 392.85 360.43 391.28 362.29
  C 387.98 366.19 384.21 369.81 380.72 374.21
  Q 357.40 403.71 352.89 441.83
  Q 352.63 444.10 352.08 456.55
  Q 351.81 462.66 352.24 469.13
  Q 352.94 479.68 353.17 481.66
  Q 355.36 501.24 363.27 519.99
  Q 365.71 525.76 369.44 532.57
  C 379.92 551.67 395.47 567.97 414.69 577.98
  Q 424.39 583.03 432.47 585.60
  C 439.03 587.68 442.77 589.13 448.05 590.16
  Q 459.53 592.39 474.08 593.20
  Q 478.40 593.44 481.80 592.78
  Q 481.94 592.76 489.49 591.81
  Q 495.97 590.99 500.91 589.72"
/>
<path stroke="#029efd" vector-effect="non-scaling-stroke" d="
  M 559.44 433.46
  C 557.14 420.92 553.36 409.85 547.55 399.90
  C 537.95 383.45 522.64 372.05 504.21 366.36
  Q 494.13 363.24 486.40 362.85
  Q 464.11 361.72 443.79 371.80
  Q 433.60 376.85 428.31 381.07
  C 420.39 387.39 415.56 392.21 409.95 399.22
  Q 406.21 403.90 403.63 408.20
  Q 394.63 423.19 391.77 439.32
  C 391.20 442.57 391.10 445.76 390.58 449.25
  Q 390.12 452.22 390.34 465.35
  C 390.38 467.34 391.24 468.99 391.30 470.90
  Q 391.37 472.96 391.59 474.44
  C 394.47 494.07 402.88 511.68 416.52 525.90
  Q 421.86 531.47 425.50 534.42
  Q 445.14 550.32 471.54 551.61
  Q 473.82 551.72 476.41 551.38
  Q 478.54 551.10 481.23 550.92
  Q 494.51 550.04 507.54 542.72
  C 533.15 528.33 552.32 502.68 558.66 473.73
  Q 560.91 463.43 560.99 450.75
  Q 561.05 442.20 559.44 433.46"
/>
<path stroke="#0070d9" vector-effect="non-scaling-stroke" d="
  M 517.58 602.49
  Q 515.86 602.40 515.28 603.01
  A 0.26 0.26 0.0 0 0 515.50 603.44
  Q 516.64 603.29 517.58 602.49"
/>
<path stroke="#0070d9" vector-effect="non-scaling-stroke" d="
  M 517.58 602.49
  Q 518.28 602.69 518.52 602.64
  Q 536.49 598.50 551.94 588.47
  Q 563.65 580.87 569.66 575.64
  C 575.94 570.17 580.38 566.34 585.00 561.30
  Q 618.21 525.03 626.55 475.96
  Q 627.37 471.18 627.55 467.99
  Q 627.78 464.07 628.33 460.02
  Q 628.69 457.40 628.51 446.25
  C 628.43 441.41 627.59 437.38 626.98 431.44
  Q 626.08 422.50 622.59 409.90
  Q 615.31 383.62 598.37 362.49
  C 591.83 354.33 584.64 348.30 576.65 341.85
  Q 573.95 339.67 570.15 337.84
  A 0.71 0.71 0.0 0 0 569.13 338.51
  Q 569.13 338.54 569.19 338.79
  A 0.76 0.76 0.0 0 0 569.36 339.09
  C 573.80 343.78 578.64 348.04 582.85 353.07
  Q 587.19 358.24 588.76 360.37
  Q 610.26 389.49 614.44 425.38
  Q 616.49 443.03 615.64 457.47
  Q 612.71 506.99 583.60 548.55
  Q 581.78 551.14 578.45 555.04
  C 573.63 560.68 569.19 566.01 564.62 570.41
  Q 554.15 580.48 542.17 588.38
  Q 532.30 594.88 518.85 601.58
  A 2.29 0.31 -11.3 0 1 517.92 601.90
  Q 517.29 602.08 517.58 602.49"
/>
<path stroke="#025e87" vector-effect="non-scaling-stroke" d="
  M 481.62 549.79
  Q 496.21 548.18 507.80 541.30
  Q 540.18 522.11 553.95 485.93
  Q 559.33 471.77 559.41 451.52
  C 559.56 412.08 540.57 377.42 501.27 366.69
  C 462.88 356.20 422.47 377.95 403.31 411.15
  Q 392.86 429.28 391.71 450.80
  C 389.89 485.02 403.30 518.21 431.50 537.25
  Q 454.52 552.79 481.62 549.79"
/>
<path stroke="#004788" vector-effect="non-scaling-stroke" d="
  M 496.35 382.02
  Q 483.77 378.91 472.40 380.29
  C 440.57 384.16 414.78 410.05 409.39 441.32
  Q 404.54 469.49 416.36 494.90
  Q 426.03 515.70 447.26 526.75
  C 451.66 529.05 457.41 530.59 462.29 531.87
  A 0.35 0.35 0.0 0 0 462.54 531.22
  Q 455.69 527.81 450.81 521.22
  Q 433.31 497.59 432.82 469.08
  C 432.26 436.59 448.85 408.79 475.92 391.42
  Q 485.21 385.45 496.35 382.44
  A 0.22 0.22 0.0 0 0 496.35 382.02"
/>
<path stroke="#0070d9" vector-effect="non-scaling-stroke" d="
  M 455.92 528.38
  Q 455.92 528.36 452.68 525.02
  Q 450.90 523.19 449.81 521.73
  Q 436.55 504.07 432.64 482.18
  Q 432.08 479.02 431.93 474.80
  Q 431.92 474.34 431.34 467.24
  A 19.14 19.11 -43.6 0 1 431.44 463.15
  Q 432.96 451.41 433.67 448.22
  C 440.43 418.18 462.26 394.42 490.49 382.58
  A 0.08 0.08 0.0 0 0 490.47 382.42
  C 471.49 378.43 451.65 384.77 436.76 397.04
  Q 412.88 416.71 409.71 447.80
  Q 407.16 472.85 417.96 495.33
  Q 428.42 517.09 450.73 527.16
  A 1.45 0.88 36.6 0 0 450.91 527.23
  L 455.60 528.47
  A 0.33 0.32 28.4 0 0 455.92 528.38"
/>
</g>
<path fill="#000712" d="
  M 161.75 304.55
  Q 168.52 290.21 174.07 280.05
  Q 196.05 239.78 228.25 202.99
  C 233.77 196.67 239.03 191.48 244.39 185.82
  Q 248.07 181.93 251.00 179.08
  Q 299.36 132.00 361.33 103.84
  Q 403.28 84.79 447.67 76.45
  Q 459.12 74.30 474.25 72.53
  Q 480.72 71.77 483.75 71.69
  Q 484.03 71.68 489.01 71.41
  Q 500.03 70.80 518.25 70.99
  Q 527.02 71.09 530.93 71.56
  C 534.45 71.98 537.25 71.91 541.22 72.21
  Q 587.10 75.62 634.27 91.04
  Q 689.32 109.03 736.16 143.39
  Q 755.40 157.51 773.82 175.94
  Q 797.92 200.06 815.80 226.42
  Q 865.48 299.69 879.97 387.04
  Q 881.29 395.04 882.56 403.87
  Q 883.11 407.77 883.10 410.99
  A 8.63 7.91 -53.1 0 0 883.26 412.62
  L 883.77 415.12
  A 6.33 5.91 -53.3 0 1 883.90 416.28
  C 884.00 421.85 884.72 426.46 884.90 431.51
  Q 885.78 455.60 884.85 479.79
  Q 884.74 482.45 884.26 485.62
  C 883.87 488.17 884.09 490.46 883.83 493.46
  Q 878.74 553.17 855.77 609.00
  Q 846.39 631.81 833.95 654.72
  Q 825.16 670.91 815.60 685.63
  C 789.98 725.05 759.36 759.21 722.46 786.69
  Q 714.90 792.32 700.29 802.03
  Q 684.34 812.63 666.79 821.03
  Q 645.07 831.43 627.69 837.66
  Q 611.73 843.37 595.23 847.70
  Q 593.55 848.14 592.87 848.30
  Q 573.31 852.96 555.63 855.43
  Q 550.22 856.19 549.49 856.15
  A 3.06 2.85 35.7 0 0 548.41 856.29
  C 545.33 857.31 541.11 856.81 537.64 857.46
  C 533.14 858.31 528.09 857.82 523.20 858.58
  Q 521.01 858.92 517.01 858.94
  Q 488.17 859.08 477.70 858.91
  C 473.44 858.84 469.24 858.01 464.93 858.06
  Q 463.13 858.08 457.59 857.31
  Q 454.52 856.89 450.16 856.88
  A 5.82 5.81 -36.3 0 1 448.44 856.62
  Q 446.27 855.95 443.16 855.95
  A 5.53 5.22 -35.3 0 1 441.53 855.72
  Q 440.56 855.43 436.78 854.91
  Q 419.33 852.48 397.22 847.22
  Q 348.51 835.63 300.97 807.70
  Q 256.61 781.64 224.31 746.68
  Q 191.85 711.54 169.84 670.92
  Q 148.33 631.20 136.59 586.87
  Q 130.33 563.22 127.51 541.73
  Q 126.78 536.20 126.85 535.44
  Q 126.89 534.99 126.33 533.11
  A 5.34 5.25 -54.5 0 1 126.12 531.78
  Q 125.98 527.36 125.45 523.83
  C 124.80 519.38 125.37 515.84 124.57 511.88
  Q 124.15 509.83 124.11 507.10
  Q 123.72 483.66 124.03 462.25
  C 124.11 457.04 125.09 451.99 125.10 446.24
  A 13.03 12.86 -39.9 0 1 125.34 443.76
  Q 126.07 440.15 126.03 435.57
  A 9.34 9.30 -39.2 0 1 126.23 433.65
  Q 126.46 432.59 126.99 428.25
  Q 129.96 404.09 135.91 379.23
  Q 142.24 352.85 152.77 325.79
  Q 157.76 313.00 161.75 304.55
  Z
  M 486.76 90.62
  Q 461.15 91.12 436.09 96.27
  C 421.34 99.31 405.21 103.40 390.80 108.79
  Q 360.30 120.22 332.56 136.09
  Q 306.18 151.18 280.19 173.40
  Q 211.46 232.13 173.86 314.85
  C 159.12 347.28 148.95 382.06 143.86 416.51
  Q 140.83 437.11 140.10 446.78
  Q 136.91 489.39 140.67 526.07
  C 145.25 570.65 158.02 615.03 178.91 655.56
  C 210.53 716.91 258.59 767.59 319.81 799.45
  Q 365.14 823.04 415.01 830.23
  Q 447.06 834.85 473.75 833.75
  Q 503.43 832.52 535.57 825.24
  Q 564.53 818.67 588.48 807.96
  Q 615.45 795.90 637.42 781.41
  C 706.49 735.85 758.52 670.56 788.99 593.50
  Q 814.05 530.10 817.71 460.36
  C 818.92 437.23 817.72 414.12 815.07 391.00
  Q 805.00 302.93 757.85 229.54
  Q 746.49 211.85 732.31 195.45
  C 718.11 179.01 702.44 163.88 685.18 150.91
  Q 673.54 142.17 666.97 138.03
  Q 624.08 110.97 574.73 99.53
  Q 550.88 94.00 522.06 91.15
  Q 517.35 90.69 514.47 91.23
  Q 501.22 89.46 486.76 90.62
  Z
  M 529.88 841.96
  Q 530.92 842.07 532.86 841.83
  C 557.24 838.80 579.83 834.98 604.26 828.22
  C 654.82 814.24 701.44 787.44 740.13 751.92
  Q 790.97 705.24 824.40 640.19
  Q 836.00 617.61 842.93 599.18
  C 869.34 528.93 876.93 450.94 861.98 377.01
  C 854.13 338.18 840.60 299.99 821.06 265.47
  C 805.29 237.60 788.00 213.21 767.35 191.15
  Q 733.48 154.97 688.80 130.75
  C 680.96 126.50 673.08 123.13 664.71 119.01
  Q 664.00 118.66 662.84 118.53
  A 0.14 0.14 0.0 0 0 662.75 118.79
  Q 663.84 119.46 672.75 124.73
  Q 676.21 126.78 690.39 136.95
  C 731.71 166.59 764.70 206.76 787.87 252.15
  Q 800.36 276.61 807.92 297.31
  Q 817.11 322.50 823.59 349.43
  Q 834.82 396.09 834.20 444.30
  Q 834.11 451.74 832.94 466.21
  Q 831.94 478.54 830.96 488.03
  Q 827.52 521.58 818.64 552.86
  Q 801.71 612.54 769.78 664.91
  Q 747.52 701.42 718.11 731.84
  Q 688.15 762.83 653.70 786.69
  Q 605.86 819.83 551.18 836.40
  Q 546.00 837.97 540.55 839.14
  Q 530.40 841.34 529.82 841.64
  A 0.17 0.17 0.0 0 0 529.88 841.96
  Z"
/>
<path fill="#0087fd" d="
  M 514.47 91.23
  Q 525.80 93.17 537.11 94.34
  Q 549.56 95.63 555.27 96.78
  Q 570.99 99.93 573.25 100.52
  Q 577.83 101.71 584.85 103.47
  C 604.63 108.44 624.79 116.34 643.84 126.24
  Q 653.87 131.45 656.53 133.03
  Q 680.29 147.07 701.41 165.84
  Q 728.71 190.10 750.17 220.23
  C 752.28 223.21 754.25 226.75 756.63 230.11
  Q 762.47 238.33 774.43 260.25
  Q 775.87 262.88 776.79 265.12
  C 778.47 269.23 781.05 273.57 782.58 277.25
  C 786.20 285.96 790.24 294.82 793.47 303.99
  Q 796.71 313.22 797.99 317.27
  Q 808.85 351.58 813.08 385.52
  C 814.02 393.13 815.23 400.58 815.24 405.37
  C 815.26 410.72 816.54 414.83 816.39 420.17
  Q 816.33 422.70 816.98 431.31
  Q 817.48 437.95 817.21 445.25
  Q 816.71 458.53 816.24 467.82
  C 816.09 470.70 815.50 473.29 815.40 476.29
  Q 815.33 478.49 814.89 482.65
  Q 808.35 545.04 783.80 603.11
  Q 776.25 620.95 767.48 637.27
  Q 750.90 668.11 729.82 694.59
  Q 718.91 708.30 717.12 710.32
  C 714.66 713.11 712.24 715.43 709.41 718.58
  Q 705.01 723.47 702.42 726.16
  Q 695.65 733.20 690.54 737.79
  Q 683.38 744.24 678.19 748.94
  Q 676.12 750.82 664.40 760.13
  Q 647.92 773.23 633.10 782.60
  C 607.57 798.73 579.66 811.94 550.45 820.17
  Q 535.21 824.47 522.81 826.78
  Q 517.91 827.69 495.47 830.97
  C 492.17 831.45 489.27 831.08 486.58 831.67
  C 482.54 832.55 476.88 832.18 472.63 832.77
  C 468.73 833.31 465.32 833.01 461.08 833.16
  C 456.48 833.32 451.44 832.27 446.33 832.27
  Q 444.14 832.27 440.24 831.95
  Q 414.32 829.80 391.82 824.68
  Q 334.80 811.71 286.18 777.81
  Q 269.89 766.46 260.09 757.72
  Q 254.86 753.07 252.42 750.91
  Q 242.44 742.09 233.68 732.20
  C 229.91 727.95 226.15 724.04 224.10 721.40
  C 219.21 715.09 213.62 708.80 209.54 702.94
  C 205.82 697.60 201.66 691.97 198.10 686.44
  Q 188.11 670.89 179.31 653.71
  Q 165.15 626.08 156.85 598.70
  Q 156.66 598.10 153.37 586.61
  Q 146.60 563.03 143.52 538.73
  Q 141.33 521.48 141.16 516.89
  C 140.75 505.48 139.72 496.50 139.80 486.20
  Q 140.03 455.72 143.12 429.93
  Q 145.39 410.93 150.90 386.09
  C 153.03 376.48 155.90 367.49 158.84 357.57
  Q 164.87 337.20 175.52 314.25
  Q 184.66 294.55 189.98 285.45
  Q 193.66 279.17 199.06 269.77
  C 201.70 265.16 204.45 261.76 206.97 257.70
  Q 210.60 251.82 212.92 248.65
  Q 237.34 215.14 261.32 192.06
  Q 265.03 188.50 280.91 174.17
  Q 284.11 171.28 300.52 158.69
  Q 310.98 150.67 320.95 144.38
  C 337.75 133.79 356.01 124.41 373.31 116.96
  Q 394.74 107.74 411.16 103.45
  Q 435.47 97.11 447.34 95.42
  Q 466.10 92.76 486.54 91.79
  Q 487.20 91.76 487.25 91.08
  Q 487.27 90.81 486.76 90.62
  Q 501.22 89.46 514.47 91.23
  Z
  M 617.15 151.41
  Q 597.35 141.82 581.61 137.21
  Q 559.61 130.76 545.43 128.47
  Q 534.72 126.73 526.42 125.69
  C 502.64 122.72 479.70 123.22 456.34 126.60
  Q 442.83 128.55 437.51 129.52
  Q 388.16 138.51 344.16 163.21
  Q 328.68 171.90 317.89 179.44
  Q 304.76 188.62 291.23 199.97
  Q 278.53 210.64 266.67 222.96
  Q 198.52 293.79 174.82 389.31
  Q 170.97 404.80 168.25 423.41
  C 163.14 458.24 162.14 492.79 167.04 528.11
  Q 169.15 543.35 170.69 551.12
  Q 179.34 594.80 199.10 634.39
  C 212.61 661.47 229.93 685.62 250.61 707.84
  C 285.25 745.06 328.50 773.41 377.04 787.78
  Q 394.67 793.00 414.12 796.35
  Q 433.95 799.77 452.00 799.87
  Q 474.43 799.99 495.03 797.60
  C 539.98 792.40 581.51 776.79 620.59 751.60
  Q 662.79 724.40 694.53 688.04
  C 715.12 664.46 732.85 638.41 746.52 610.73
  Q 758.60 586.29 766.39 563.95
  Q 780.49 523.55 784.23 483.61
  Q 786.03 464.51 786.19 451.50
  Q 786.67 414.91 780.07 376.16
  Q 779.50 372.83 778.35 368.17
  C 776.74 361.63 775.50 354.87 773.63 348.30
  Q 766.49 323.16 756.59 300.15
  C 729.17 236.37 680.11 181.91 617.15 151.41
  Z"
/>
<path fill="#04b5fc" d="
  M 486.76 90.62
  Q 487.27 90.81 487.25 91.08
  Q 487.20 91.76 486.54 91.79
  Q 466.10 92.76 447.34 95.42
  Q 435.47 97.11 411.16 103.45
  Q 394.74 107.74 373.31 116.96
  C 356.01 124.41 337.75 133.79 320.95 144.38
  Q 310.98 150.67 300.52 158.69
  Q 284.11 171.28 280.91 174.17
  Q 265.03 188.50 261.32 192.06
  Q 237.34 215.14 212.92 248.65
  Q 210.60 251.82 206.97 257.70
  C 204.45 261.76 201.70 265.16 199.06 269.77
  Q 193.66 279.17 189.98 285.45
  Q 184.66 294.55 175.52 314.25
  Q 164.87 337.20 158.84 357.57
  C 155.90 367.49 153.03 376.48 150.90 386.09
  Q 145.39 410.93 143.12 429.93
  Q 140.03 455.72 139.80 486.20
  C 139.72 496.50 140.75 505.48 141.16 516.89
  Q 141.33 521.48 143.52 538.73
  Q 146.60 563.03 153.37 586.61
  Q 156.66 598.10 156.85 598.70
  Q 165.15 626.08 179.31 653.71
  Q 188.11 670.89 198.10 686.44
  C 201.66 691.97 205.82 697.60 209.54 702.94
  C 213.62 708.80 219.21 715.09 224.10 721.40
  C 226.15 724.04 229.91 727.95 233.68 732.20
  Q 242.44 742.09 252.42 750.91
  Q 254.86 753.07 260.09 757.72
  Q 269.89 766.46 286.18 777.81
  Q 334.80 811.71 391.82 824.68
  Q 414.32 829.80 440.24 831.95
  Q 444.14 832.27 446.33 832.27
  C 451.44 832.27 456.48 833.32 461.08 833.16
  C 465.32 833.01 468.73 833.31 472.63 832.77
  C 476.88 832.18 482.54 832.55 486.58 831.67
  C 489.27 831.08 492.17 831.45 495.47 830.97
  Q 517.91 827.69 522.81 826.78
  Q 535.21 824.47 550.45 820.17
  C 579.66 811.94 607.57 798.73 633.10 782.60
  Q 647.92 773.23 664.40 760.13
  Q 676.12 750.82 678.19 748.94
  Q 683.38 744.24 690.54 737.79
  Q 695.65 733.20 702.42 726.16
  Q 705.01 723.47 709.41 718.58
  C 712.24 715.43 714.66 713.11 717.12 710.32
  Q 718.91 708.30 729.82 694.59
  Q 750.90 668.11 767.48 637.27
  Q 776.25 620.95 783.80 603.11
  Q 808.35 545.04 814.89 482.65
  Q 815.33 478.49 815.40 476.29
  C 815.50 473.29 816.09 470.70 816.24 467.82
  Q 816.71 458.53 817.21 445.25
  Q 817.48 437.95 816.98 431.31
  Q 816.33 422.70 816.39 420.17
  C 816.54 414.83 815.26 410.72 815.24 405.37
  C 815.23 400.58 814.02 393.13 813.08 385.52
  Q 808.85 351.58 797.99 317.27
  Q 796.71 313.22 793.47 303.99
  C 790.24 294.82 786.20 285.96 782.58 277.25
  C 781.05 273.57 778.47 269.23 776.79 265.12
  Q 775.87 262.88 774.43 260.25
  Q 762.47 238.33 756.63 230.11
  C 754.25 226.75 752.28 223.21 750.17 220.23
  Q 728.71 190.10 701.41 165.84
  Q 680.29 147.07 656.53 133.03
  Q 653.87 131.45 643.84 126.24
  C 624.79 116.34 604.63 108.44 584.85 103.47
  Q 577.83 101.71 573.25 100.52
  Q 570.99 99.93 555.27 96.78
  Q 549.56 95.63 537.11 94.34
  Q 525.80 93.17 514.47 91.23
  Q 517.35 90.69 522.06 91.15
  Q 550.88 94.00 574.73 99.53
  Q 624.08 110.97 666.97 138.03
  Q 673.54 142.17 685.18 150.91
  C 702.44 163.88 718.11 179.01 732.31 195.45
  Q 746.49 211.85 757.85 229.54
  Q 805.00 302.93 815.07 391.00
  C 817.72 414.12 818.92 437.23 817.71 460.36
  Q 814.05 530.10 788.99 593.50
  C 758.52 670.56 706.49 735.85 637.42 781.41
  Q 615.45 795.90 588.48 807.96
  Q 564.53 818.67 535.57 825.24
  Q 503.43 832.52 473.75 833.75
  Q 447.06 834.85 415.01 830.23
  Q 365.14 823.04 319.81 799.45
  C 258.59 767.59 210.53 716.91 178.91 655.56
  C 158.02 615.03 145.25 570.65 140.67 526.07
  Q 136.91 489.39 140.10 446.78
  Q 140.83 437.11 143.86 416.51
  C 148.95 382.06 159.12 347.28 173.86 314.85
  Q 211.46 232.13 280.19 173.40
  Q 306.18 151.18 332.56 136.09
  Q 360.30 120.22 390.80 108.79
  C 405.21 103.40 421.34 99.31 436.09 96.27
  Q 461.15 91.12 486.76 90.62
  Z"
/>
<path fill="#0087fd" d="
  M 529.82 841.64
  Q 530.40 841.34 540.55 839.14
  Q 546.00 837.97 551.18 836.40
  Q 605.86 819.83 653.70 786.69
  Q 688.15 762.83 718.11 731.84
  Q 747.52 701.42 769.78 664.91
  Q 801.71 612.54 818.64 552.86
  Q 827.52 521.58 830.96 488.03
  Q 831.94 478.54 832.94 466.21
  Q 834.11 451.74 834.20 444.30
  Q 834.82 396.09 823.59 349.43
  Q 817.11 322.50 807.92 297.31
  Q 800.36 276.61 787.87 252.15
  C 764.70 206.76 731.71 166.59 690.39 136.95
  Q 676.21 126.78 672.75 124.73
  Q 663.84 119.46 662.75 118.79
  A 0.14 0.14 0.0 0 1 662.84 118.53
  Q 664.00 118.66 664.71 119.01
  C 673.08 123.13 680.96 126.50 688.80 130.75
  Q 733.48 154.97 767.35 191.15
  C 788.00 213.21 805.29 237.60 821.06 265.47
  C 840.60 299.99 854.13 338.18 861.98 377.01
  C 876.93 450.94 869.34 528.93 842.93 599.18
  Q 836.00 617.61 824.40 640.19
  Q 790.97 705.24 740.13 751.92
  C 701.44 787.44 654.82 814.24 604.26 828.22
  C 579.83 834.98 557.24 838.80 532.86 841.83
  Q 530.92 842.07 529.88 841.96
  A 0.17 0.17 0.0 0 1 529.82 841.64
  Z
  M 557.61 836.34
  Q 559.49 836.55 559.76 836.52
  Q 578.36 833.99 597.34 828.54
  C 598.99 828.07 601.05 827.76 602.81 827.28
  Q 654.18 813.14 699.01 782.77
  C 712.63 773.54 725.85 763.65 737.47 752.72
  C 745.08 745.57 755.50 735.57 763.62 726.55
  Q 785.09 702.71 800.85 678.62
  Q 819.60 649.96 834.74 616.01
  Q 842.19 599.29 847.62 582.52
  Q 853.96 562.93 857.47 548.01
  Q 864.06 520.04 866.86 488.31
  C 867.26 483.70 867.15 479.19 867.76 474.79
  Q 868.36 470.51 868.50 464.66
  Q 868.94 445.22 867.93 432.74
  Q 867.37 425.84 867.28 424.09
  Q 866.97 417.90 866.69 415.44
  Q 863.93 391.09 860.24 374.03
  Q 855.08 350.16 846.52 324.92
  Q 837.72 298.99 823.11 271.65
  Q 812.68 252.13 794.73 226.17
  Q 792.85 223.44 782.75 210.61
  Q 778.96 205.81 777.75 204.50
  Q 773.62 200.05 772.54 198.71
  Q 768.95 194.26 764.74 190.01
  Q 750.22 175.32 741.37 167.88
  Q 723.26 152.65 698.53 137.55
  Q 694.02 134.79 690.04 133.08
  Q 685.71 131.23 681.82 128.42
  A 0.33 0.32 -55.4 0 0 681.36 128.51
  L 681.35 128.51
  A 0.22 0.21 -55.1 0 0 681.40 128.80
  Q 687.36 133.26 696.72 140.20
  Q 705.10 146.42 711.61 152.11
  Q 726.17 164.84 738.19 178.05
  Q 766.96 209.67 787.15 248.12
  C 797.37 267.57 806.67 288.64 813.77 310.41
  Q 815.72 316.41 819.20 327.92
  C 822.75 339.68 824.79 349.29 827.66 361.95
  C 829.55 370.25 831.01 380.12 831.82 386.34
  Q 832.20 389.26 833.75 404.45
  Q 834.69 413.76 835.03 422.00
  Q 835.59 435.82 835.45 439.60
  Q 835.01 451.67 834.99 452.24
  Q 834.85 459.23 834.11 464.82
  Q 833.83 466.93 832.13 486.69
  Q 829.80 513.74 823.03 540.78
  C 811.08 588.55 790.71 635.81 763.71 676.50
  Q 750.04 697.10 741.33 707.37
  Q 728.87 722.06 726.04 725.06
  Q 705.94 746.34 697.61 753.36
  Q 695.84 754.86 688.90 760.99
  C 681.62 767.43 671.79 775.19 666.76 778.76
  Q 658.75 784.43 652.42 788.87
  Q 631.29 803.68 604.06 817.01
  Q 584.18 826.74 562.66 833.93
  Q 557.94 835.51 557.48 835.88
  A 0.26 0.26 0.0 0 0 557.61 836.34
  Z
  M 557.0918 836.5993
  A 1.51 0.33 -11.1 0 0 555.5465 836.5662
  A 1.51 0.33 -11.1 0 0 554.1282 837.1807
  A 1.51 0.33 -11.1 0 0 555.6735 837.2138
  A 1.51 0.33 -11.1 0 0 557.0918 836.5993
  Z"
/>
<path fill="#04b5fc" d="
  M 617.15 151.41
  C 680.11 181.91 729.17 236.37 756.59 300.15
  Q 766.49 323.16 773.63 348.30
  C 775.50 354.87 776.74 361.63 778.35 368.17
  Q 779.50 372.83 780.07 376.16
  Q 786.67 414.91 786.19 451.50
  Q 786.03 464.51 784.23 483.61
  Q 780.49 523.55 766.39 563.95
  Q 758.60 586.29 746.52 610.73
  C 732.85 638.41 715.12 664.46 694.53 688.04
  Q 662.79 724.40 620.59 751.60
  C 581.51 776.79 539.98 792.40 495.03 797.60
  Q 474.43 799.99 452.00 799.87
  Q 433.95 799.77 414.12 796.35
  Q 394.67 793.00 377.04 787.78
  C 328.50 773.41 285.25 745.06 250.61 707.84
  C 229.93 685.62 212.61 661.47 199.10 634.39
  Q 179.34 594.80 170.69 551.12
  Q 169.15 543.35 167.04 528.11
  C 162.14 492.79 163.14 458.24 168.25 423.41
  Q 170.97 404.80 174.82 389.31
  Q 198.52 293.79 266.67 222.96
  Q 278.53 210.64 291.23 199.97
  Q 304.76 188.62 317.89 179.44
  Q 328.68 171.90 344.16 163.21
  Q 388.16 138.51 437.51 129.52
  Q 442.83 128.55 456.34 126.60
  C 479.70 123.22 502.64 122.72 526.42 125.69
  Q 534.72 126.73 545.43 128.47
  Q 559.61 130.76 581.61 137.21
  Q 597.35 141.82 617.15 151.41
  Z
  M 616.44 152.47
  Q 596.71 142.93 581.03 138.35
  Q 559.10 131.94 544.98 129.67
  Q 534.30 127.95 526.03 126.92
  C 502.34 123.98 479.49 124.49 456.22 127.88
  Q 442.76 129.83 437.46 130.80
  Q 388.30 139.79 344.48 164.43
  Q 329.07 173.10 318.32 180.62
  Q 305.25 189.78 291.78 201.10
  Q 279.13 211.74 267.33 224.02
  Q 199.49 294.64 175.95 389.82
  Q 172.12 405.25 169.43 423.80
  C 164.36 458.50 163.39 492.92 168.30 528.11
  Q 170.42 543.29 171.96 551.03
  Q 180.61 594.54 200.32 633.96
  C 213.80 660.93 231.08 684.98 251.70 707.10
  C 286.23 744.16 329.34 772.37 377.71 786.65
  Q 395.28 791.83 414.66 795.16
  Q 434.42 798.55 452.40 798.63
  Q 474.75 798.74 495.27 796.34
  C 540.05 791.13 581.41 775.54 620.33 750.42
  Q 662.35 723.29 693.94 687.04
  C 714.44 663.53 732.08 637.56 745.68 609.98
  Q 757.70 585.62 765.44 563.36
  Q 779.46 523.10 783.15 483.30
  Q 784.93 464.27 785.08 451.31
  Q 785.53 414.86 778.93 376.26
  Q 778.36 372.94 777.21 368.30
  C 775.60 361.79 774.36 355.05 772.49 348.51
  Q 765.36 323.47 755.48 300.55
  C 728.11 237.03 679.19 182.81 616.44 152.47
  Z"
/>
<path fill="#000712" d="
  M 616.44 152.47
  C 679.19 182.81 728.11 237.03 755.48 300.55
  Q 765.36 323.47 772.49 348.51
  C 774.36 355.05 775.60 361.79 777.21 368.30
  Q 778.36 372.94 778.93 376.26
  Q 785.53 414.86 785.08 451.31
  Q 784.93 464.27 783.15 483.30
  Q 779.46 523.10 765.44 563.36
  Q 757.70 585.62 745.68 609.98
  C 732.08 637.56 714.44 663.53 693.94 687.04
  Q 662.35 723.29 620.33 750.42
  C 581.41 775.54 540.05 791.13 495.27 796.34
  Q 474.75 798.74 452.40 798.63
  Q 434.42 798.55 414.66 795.16
  Q 395.28 791.83 377.71 786.65
  C 329.34 772.37 286.23 744.16 251.70 707.10
  C 231.08 684.98 213.80 660.93 200.32 633.96
  Q 180.61 594.54 171.96 551.03
  Q 170.42 543.29 168.30 528.11
  C 163.39 492.92 164.36 458.50 169.43 423.80
  Q 172.12 405.25 175.95 389.82
  Q 199.49 294.64 267.33 224.02
  Q 279.13 211.74 291.78 201.10
  Q 305.25 189.78 318.32 180.62
  Q 329.07 173.10 344.48 164.43
  Q 388.30 139.79 437.46 130.80
  Q 442.76 129.83 456.22 127.88
  C 479.49 124.49 502.34 123.98 526.03 126.92
  Q 534.30 127.95 544.98 129.67
  Q 559.10 131.94 581.03 138.35
  Q 596.71 142.93 616.44 152.47
  Z
  M 458.88 142.01
  A 0.20 0.20 0.0 0 0 458.79 141.62
  Q 443.48 143.21 433.62 144.63
  Q 425.75 145.76 412.28 149.53
  Q 355.78 165.36 310.57 200.57
  C 291.11 215.72 273.24 234.38 258.03 254.01
  Q 210.25 315.66 191.37 389.32
  Q 180.87 430.28 179.35 471.30
  Q 177.84 511.79 186.71 553.76
  Q 197.99 607.10 229.23 656.71
  Q 256.98 700.77 298.84 732.17
  Q 325.52 752.18 354.23 763.11
  Q 359.21 765.00 365.72 766.74
  C 369.33 767.71 377.24 770.31 383.58 771.73
  A 0.04 0.04 0.0 0 0 383.64 771.70
  L 383.71 771.44
  A 0.24 0.24 0.0 0 0 383.55 771.15
  Q 368.69 766.33 355.28 758.44
  Q 342.59 750.97 332.87 744.36
  Q 312.92 730.78 294.58 712.65
  Q 244.89 663.51 222.03 596.70
  Q 202.60 539.92 203.10 479.97
  Q 203.75 402.52 235.23 331.94
  Q 250.22 298.36 274.85 264.36
  Q 329.94 188.34 416.81 155.61
  Q 425.43 152.37 443.32 146.39
  C 448.70 144.58 453.93 143.84 458.88 142.01
  Z
  M 687.35 671.60
  C 705.04 651.19 720.60 627.43 732.60 604.61
  C 753.79 564.31 765.81 518.77 769.07 473.25
  Q 773.92 405.59 754.82 341.94
  Q 737.51 284.26 700.59 238.62
  C 669.25 199.88 626.80 170.88 578.77 157.02
  C 552.07 149.32 522.97 147.68 495.75 149.54
  C 475.79 150.91 455.01 154.87 435.16 161.84
  C 405.01 172.41 376.48 186.77 351.06 205.63
  C 330.11 221.18 311.47 239.60 294.67 259.66
  Q 285.21 270.94 275.32 285.65
  Q 264.45 301.83 258.19 313.16
  C 227.56 368.60 211.79 432.38 214.64 496.00
  Q 216.42 535.63 225.80 570.75
  C 228.56 581.09 232.76 592.45 236.79 602.71
  C 252.30 642.16 276.18 679.10 307.27 707.43
  Q 324.46 723.09 345.63 737.36
  Q 405.79 777.91 478.23 778.17
  Q 502.35 778.26 523.52 773.77
  Q 571.84 763.53 613.88 736.08
  Q 645.53 715.41 670.43 689.66
  Q 682.62 677.05 687.35 671.60
  Z"
/>
<path fill="#0059b5" d="
  M 557.48 835.88
  Q 557.94 835.51 562.66 833.93
  Q 584.18 826.74 604.06 817.01
  Q 631.29 803.68 652.42 788.87
  Q 658.75 784.43 666.76 778.76
  C 671.79 775.19 681.62 767.43 688.90 760.99
  Q 695.84 754.86 697.61 753.36
  Q 705.94 746.34 726.04 725.06
  Q 728.87 722.06 741.33 707.37
  Q 750.04 697.10 763.71 676.50
  C 790.71 635.81 811.08 588.55 823.03 540.78
  Q 829.80 513.74 832.13 486.69
  Q 833.83 466.93 834.11 464.82
  Q 834.85 459.23 834.99 452.24
  Q 835.01 451.67 835.45 439.60
  Q 835.59 435.82 835.03 422.00
  Q 834.69 413.76 833.75 404.45
  Q 832.20 389.26 831.82 386.34
  C 831.01 380.12 829.55 370.25 827.66 361.95
  C 824.79 349.29 822.75 339.68 819.20 327.92
  Q 815.72 316.41 813.77 310.41
  C 806.67 288.64 797.37 267.57 787.15 248.12
  Q 766.96 209.67 738.19 178.05
  Q 726.17 164.84 711.61 152.11
  Q 705.10 146.42 696.72 140.20
  Q 687.36 133.26 681.40 128.80
  A 0.22 0.21 -55.1 0 1 681.35 128.51
  L 681.36 128.51
  A 0.33 0.32 -55.4 0 1 681.82 128.42
  Q 685.71 131.23 690.04 133.08
  Q 694.02 134.79 698.53 137.55
  Q 723.26 152.65 741.37 167.88
  Q 750.22 175.32 764.74 190.01
  Q 768.95 194.26 772.54 198.71
  Q 773.62 200.05 777.75 204.50
  Q 778.96 205.81 782.75 210.61
  Q 792.85 223.44 794.73 226.17
  Q 812.68 252.13 823.11 271.65
  Q 837.72 298.99 846.52 324.92
  Q 855.08 350.16 860.24 374.03
  Q 863.93 391.09 866.69 415.44
  Q 866.97 417.90 867.28 424.09
  Q 867.37 425.84 867.93 432.74
  Q 868.94 445.22 868.50 464.66
  Q 868.36 470.51 867.76 474.79
  C 867.15 479.19 867.26 483.70 866.86 488.31
  Q 864.06 520.04 857.47 548.01
  Q 853.96 562.93 847.62 582.52
  Q 842.19 599.29 834.74 616.01
  Q 819.60 649.96 800.85 678.62
  Q 785.09 702.71 763.62 726.55
  C 755.50 735.57 745.08 745.57 737.47 752.72
  C 725.85 763.65 712.63 773.54 699.01 782.77
  Q 654.18 813.14 602.81 827.28
  C 601.05 827.76 598.99 828.07 597.34 828.54
  Q 578.36 833.99 559.76 836.52
  Q 559.49 836.55 557.61 836.34
  A 0.26 0.26 0.0 0 1 557.48 835.88
  Z"
/>
<path fill="#0087fd" d="
  M 458.88 142.01
  C 453.93 143.84 448.70 144.58 443.32 146.39
  Q 425.43 152.37 416.81 155.61
  Q 329.94 188.34 274.85 264.36
  Q 250.22 298.36 235.23 331.94
  Q 203.75 402.52 203.10 479.97
  Q 202.60 539.92 222.03 596.70
  Q 244.89 663.51 294.58 712.65
  Q 312.92 730.78 332.87 744.36
  Q 342.59 750.97 355.28 758.44
  Q 368.69 766.33 383.55 771.15
  A 0.24 0.24 0.0 0 1 383.71 771.44
  L 383.64 771.70
  A 0.04 0.04 0.0 0 1 383.58 771.73
  C 377.24 770.31 369.33 767.71 365.72 766.74
  Q 359.21 765.00 354.23 763.11
  Q 325.52 752.18 298.84 732.17
  Q 256.98 700.77 229.23 656.71
  Q 197.99 607.10 186.71 553.76
  Q 177.84 511.79 179.35 471.30
  Q 180.87 430.28 191.37 389.32
  Q 210.25 315.66 258.03 254.01
  C 273.24 234.38 291.11 215.72 310.57 200.57
  Q 355.78 165.36 412.28 149.53
  Q 425.75 145.76 433.62 144.63
  Q 443.48 143.21 458.79 141.62
  A 0.20 0.20 0.0 0 1 458.88 142.01
  Z
  M 441.89 144.86
  Q 432.35 146.37 425.77 147.52
  Q 419.99 148.54 408.86 151.81
  C 377.90 160.91 347.51 175.00 321.26 194.09
  Q 308.62 203.27 303.47 207.70
  Q 279.65 228.21 259.58 253.85
  Q 234.18 286.32 217.04 322.30
  Q 215.35 325.84 210.75 336.22
  Q 206.98 344.70 204.88 350.30
  Q 184.46 404.81 180.94 463.26
  Q 179.48 487.44 181.47 511.26
  Q 181.96 517.17 182.92 524.18
  Q 184.17 533.24 184.70 537.07
  Q 185.49 542.73 189.63 560.26
  Q 192.71 573.34 195.89 583.13
  Q 212.29 633.64 243.98 675.98
  Q 253.53 688.74 263.26 698.87
  Q 276.04 712.18 285.10 719.66
  C 289.02 722.90 292.66 726.25 296.87 729.49
  Q 312.84 741.78 330.84 751.13
  Q 343.60 757.76 352.77 761.46
  Q 357.06 763.19 361.76 764.02
  A 0.32 0.32 0.0 0 0 362.09 763.55
  Q 361.90 763.19 361.31 762.96
  Q 358.50 761.88 357.67 760.93
  A 1.65 1.65 0.0 0 0 356.82 760.40
  Q 356.40 760.29 354.51 759.23
  Q 332.36 746.78 312.82 730.64
  C 302.09 721.77 291.67 711.44 282.17 701.33
  C 268.82 687.10 256.92 670.17 246.51 652.85
  Q 240.29 642.51 234.88 631.06
  Q 212.21 583.18 205.12 530.45
  Q 204.64 526.88 204.08 521.82
  Q 203.33 514.99 203.18 513.17
  Q 199.89 470.46 206.00 428.02
  Q 209.39 404.44 215.79 382.52
  Q 218.24 374.13 221.59 363.82
  Q 224.84 353.78 232.62 335.34
  Q 244.11 308.12 261.62 281.88
  Q 270.61 268.40 273.78 264.03
  Q 280.09 255.33 291.01 242.11
  C 293.70 238.86 296.21 236.63 298.81 233.48
  Q 301.31 230.47 304.72 227.05
  C 324.83 206.91 346.88 189.15 371.20 175.47
  Q 392.75 163.36 415.99 154.50
  Q 421.32 152.47 442.06 145.28
  A 0.19 0.18 -17.4 0 0 442.18 145.06
  L 442.18 145.05
  A 0.27 0.26 -11.3 0 0 441.89 144.86
  Z"
/>
<path fill="#0059b5" d="
  M 441.89 144.86
  A 0.27 0.26 -11.3 0 1 442.18 145.05
  L 442.18 145.06
  A 0.19 0.18 -17.4 0 1 442.06 145.28
  Q 421.32 152.47 415.99 154.50
  Q 392.75 163.36 371.20 175.47
  C 346.88 189.15 324.83 206.91 304.72 227.05
  Q 301.31 230.47 298.81 233.48
  C 296.21 236.63 293.70 238.86 291.01 242.11
  Q 280.09 255.33 273.78 264.03
  Q 270.61 268.40 261.62 281.88
  Q 244.11 308.12 232.62 335.34
  Q 224.84 353.78 221.59 363.82
  Q 218.24 374.13 215.79 382.52
  Q 209.39 404.44 206.00 428.02
  Q 199.89 470.46 203.18 513.17
  Q 203.33 514.99 204.08 521.82
  Q 204.64 526.88 205.12 530.45
  Q 212.21 583.18 234.88 631.06
  Q 240.29 642.51 246.51 652.85
  C 256.92 670.17 268.82 687.10 282.17 701.33
  C 291.67 711.44 302.09 721.77 312.82 730.64
  Q 332.36 746.78 354.51 759.23
  Q 356.40 760.29 356.82 760.40
  A 1.65 1.65 0.0 0 1 357.67 760.93
  Q 358.50 761.88 361.31 762.96
  Q 361.90 763.19 362.09 763.55
  A 0.32 0.32 0.0 0 1 361.76 764.02
  Q 357.06 763.19 352.77 761.46
  Q 343.60 757.76 330.84 751.13
  Q 312.84 741.78 296.87 729.49
  C 292.66 726.25 289.02 722.90 285.10 719.66
  Q 276.04 712.18 263.26 698.87
  Q 253.53 688.74 243.98 675.98
  Q 212.29 633.64 195.89 583.13
  Q 192.71 573.34 189.63 560.26
  Q 185.49 542.73 184.70 537.07
  Q 184.17 533.24 182.92 524.18
  Q 181.96 517.17 181.47 511.26
  Q 179.48 487.44 180.94 463.26
  Q 184.46 404.81 204.88 350.30
  Q 206.98 344.70 210.75 336.22
  Q 215.35 325.84 217.04 322.30
  Q 234.18 286.32 259.58 253.85
  Q 279.65 228.21 303.47 207.70
  Q 308.62 203.27 321.26 194.09
  C 347.51 175.00 377.90 160.91 408.86 151.81
  Q 419.99 148.54 425.77 147.52
  Q 432.35 146.37 441.89 144.86
  Z"
/>
<path fill="#04b5fc" d="
  M 732.60 604.61
  C 720.60 627.43 705.04 651.19 687.35 671.60
  Q 682.62 677.05 670.43 689.66
  Q 645.53 715.41 613.88 736.08
  Q 571.84 763.53 523.52 773.77
  Q 502.35 778.26 478.23 778.17
  Q 405.79 777.91 345.63 737.36
  Q 324.46 723.09 307.27 707.43
  C 276.18 679.10 252.30 642.16 236.79 602.71
  C 232.76 592.45 228.56 581.09 225.80 570.75
  Q 216.42 535.63 214.64 496.00
  C 211.79 432.38 227.56 368.60 258.19 313.16
  Q 264.45 301.83 275.32 285.65
  Q 285.21 270.94 294.67 259.66
  C 311.47 239.60 330.11 221.18 351.06 205.63
  C 376.48 186.77 405.01 172.41 435.16 161.84
  C 455.01 154.87 475.79 150.91 495.75 149.54
  C 522.97 147.68 552.07 149.32 578.77 157.02
  C 626.80 170.88 669.25 199.88 700.59 238.62
  Q 737.51 284.26 754.82 341.94
  Q 773.92 405.59 769.07 473.25
  C 765.81 518.77 753.79 564.31 732.60 604.61
  Z
  M 305.48 249.10
  Q 292.97 262.98 285.64 272.89
  Q 283.64 275.61 275.83 286.79
  Q 272.50 291.56 271.25 293.73
  C 267.72 299.85 263.51 305.85 260.45 311.45
  Q 249.70 331.13 245.37 341.64
  C 242.58 348.42 240.28 353.26 238.25 358.78
  Q 228.65 384.87 222.97 410.70
  Q 221.14 419.01 219.28 431.67
  Q 217.17 446.07 216.77 452.87
  Q 216.26 461.37 216.23 461.53
  Q 215.64 463.94 215.57 470.09
  Q 215.43 482.00 215.38 490.32
  C 215.35 495.19 216.45 500.15 216.58 505.00
  Q 216.85 515.21 218.10 523.40
  Q 218.77 527.83 218.97 529.99
  Q 219.22 532.62 219.90 536.57
  C 222.33 550.59 224.75 563.68 228.63 576.19
  Q 236.59 601.82 248.80 626.91
  Q 250.31 630.00 251.07 631.28
  C 253.25 634.96 254.71 638.59 256.90 642.14
  Q 266.82 658.26 268.66 660.90
  Q 275.25 670.38 281.31 677.76
  Q 285.07 682.35 286.41 684.09
  Q 287.72 685.80 293.15 691.80
  Q 293.82 692.55 294.59 693.41
  Q 302.86 702.59 320.22 717.02
  Q 335.74 729.93 344.85 735.37
  C 346.86 736.57 350.50 739.26 352.32 740.41
  Q 378.48 756.97 408.13 766.42
  Q 417.57 769.43 429.19 771.79
  Q 441.88 774.37 450.66 775.30
  Q 464.94 776.81 471.53 777.05
  Q 488.21 777.65 502.17 775.84
  Q 506.07 775.34 508.19 775.37
  A 4.11 3.80 37.8 0 0 508.88 775.31
  Q 517.86 773.61 522.10 772.79
  Q 541.49 769.08 561.42 761.40
  Q 589.17 750.71 612.92 735.19
  Q 631.44 723.08 649.84 707.42
  C 654.10 703.79 658.41 698.81 662.67 695.92
  A 3.05 2.99 -88.3 0 0 663.41 695.21
  C 665.92 691.84 670.27 688.35 673.60 684.75
  Q 685.29 672.15 685.82 671.57
  Q 693.20 663.50 701.83 651.59
  Q 716.02 632.02 726.67 613.22
  Q 742.24 585.74 752.74 553.24
  Q 754.11 549.00 756.55 540.37
  Q 758.90 532.03 759.90 527.40
  Q 763.67 510.06 766.43 489.99
  Q 767.95 478.91 768.84 457.23
  Q 769.18 449.00 768.92 442.13
  Q 768.64 434.93 768.64 434.88
  C 768.51 427.09 768.65 423.85 767.95 418.00
  Q 767.86 417.24 767.14 410.30
  Q 762.26 363.10 745.91 319.43
  C 742.27 309.70 737.63 299.99 733.77 292.23
  Q 727.55 279.75 719.04 266.23
  C 716.32 261.90 713.45 258.26 710.46 253.73
  Q 707.13 248.67 703.85 244.47
  Q 689.19 225.67 671.47 209.78
  Q 649.66 190.22 623.82 176.47
  Q 614.46 171.49 605.61 167.90
  Q 593.97 163.19 586.78 160.76
  Q 566.10 153.77 542.72 151.42
  Q 522.79 149.42 506.75 150.38
  Q 504.26 150.53 499.25 150.63
  Q 494.65 150.71 491.76 150.98
  Q 466.19 153.38 442.33 160.65
  C 434.46 163.05 424.20 167.07 417.17 169.93
  Q 386.95 182.23 361.44 199.71
  Q 359.47 201.06 351.99 206.37
  Q 346.76 210.09 342.77 213.40
  Q 322.44 230.27 305.48 249.10
  Z"
/>
<path fill="#0087fd" d="
  M 305.48 249.10
  Q 322.44 230.27 342.77 213.40
  Q 346.76 210.09 351.99 206.37
  Q 359.47 201.06 361.44 199.71
  Q 386.95 182.23 417.17 169.93
  C 424.20 167.07 434.46 163.05 442.33 160.65
  Q 466.19 153.38 491.76 150.98
  Q 494.65 150.71 499.25 150.63
  Q 504.26 150.53 506.75 150.38
  Q 522.79 149.42 542.72 151.42
  Q 566.10 153.77 586.78 160.76
  Q 593.97 163.19 605.61 167.90
  Q 614.46 171.49 623.82 176.47
  Q 649.66 190.22 671.47 209.78
  Q 689.19 225.67 703.85 244.47
  Q 707.13 248.67 710.46 253.73
  C 713.45 258.26 716.32 261.90 719.04 266.23
  Q 727.55 279.75 733.77 292.23
  C 737.63 299.99 742.27 309.70 745.91 319.43
  Q 762.26 363.10 767.14 410.30
  Q 767.86 417.24 767.95 418.00
  C 768.65 423.85 768.51 427.09 768.64 434.88
  Q 768.64 434.93 768.92 442.13
  Q 769.18 449.00 768.84 457.23
  Q 767.95 478.91 766.43 489.99
  Q 763.67 510.06 759.90 527.40
  Q 758.90 532.03 756.55 540.37
  Q 754.11 549.00 752.74 553.24
  Q 742.24 585.74 726.67 613.22
  Q 716.02 632.02 701.83 651.59
  Q 693.20 663.50 685.82 671.57
  Q 685.29 672.15 673.60 684.75
  C 670.27 688.35 665.92 691.84 663.41 695.21
  A 3.05 2.99 -88.3 0 1 662.67 695.92
  C 658.41 698.81 654.10 703.79 649.84 707.42
  Q 631.44 723.08 612.92 735.19
  Q 589.17 750.71 561.42 761.40
  Q 541.49 769.08 522.10 772.79
  Q 517.86 773.61 508.88 775.31
  A 4.11 3.80 37.8 0 1 508.19 775.37
  Q 506.07 775.34 502.17 775.84
  Q 488.21 777.65 471.53 777.05
  Q 464.94 776.81 450.66 775.30
  Q 441.88 774.37 429.19 771.79
  Q 417.57 769.43 408.13 766.42
  Q 378.48 756.97 352.32 740.41
  C 350.50 739.26 346.86 736.57 344.85 735.37
  Q 335.74 729.93 320.22 717.02
  Q 302.86 702.59 294.59 693.41
  Q 293.82 692.55 293.15 691.80
  Q 287.72 685.80 286.41 684.09
  Q 285.07 682.35 281.31 677.76
  Q 275.25 670.38 268.66 660.90
  Q 266.82 658.26 256.90 642.14
  C 254.71 638.59 253.25 634.96 251.07 631.28
  Q 250.31 630.00 248.80 626.91
  Q 236.59 601.82 228.63 576.19
  C 224.75 563.68 222.33 550.59 219.90 536.57
  Q 219.22 532.62 218.97 529.99
  Q 218.77 527.83 218.10 523.40
  Q 216.85 515.21 216.58 505.00
  C 216.45 500.15 215.35 495.19 215.38 490.32
  Q 215.43 482.00 215.57 470.09
  Q 215.64 463.94 216.23 461.53
  Q 216.26 461.37 216.77 452.87
  Q 217.17 446.07 219.28 431.67
  Q 221.14 419.01 222.97 410.70
  Q 228.65 384.87 238.25 358.78
  C 240.28 353.26 242.58 348.42 245.37 341.64
  Q 249.70 331.13 260.45 311.45
  C 263.51 305.85 267.72 299.85 271.25 293.73
  Q 272.50 291.56 275.83 286.79
  Q 283.64 275.61 285.64 272.89
  Q 292.97 262.98 305.48 249.10
  Z
  M 611.62 553.94
  Q 611.68 553.64 611.75 553.54
  C 625.19 534.16 634.52 513.05 639.04 490.33
  C 641.51 477.88 643.03 466.70 643.05 456.00
  Q 643.10 430.64 636.45 406.05
  Q 631.46 387.59 619.28 367.47
  Q 616.41 362.73 611.64 356.78
  Q 605.22 348.80 603.04 346.64
  Q 594.72 338.39 592.72 336.67
  Q 588.16 332.75 580.06 327.16
  Q 572.41 321.90 566.70 318.87
  Q 536.50 302.84 505.83 299.49
  Q 489.27 297.68 467.56 301.12
  C 463.32 301.79 458.39 303.44 453.72 304.42
  Q 449.47 305.32 443.57 307.70
  Q 417.22 318.37 397.98 332.26
  Q 366.67 354.87 349.70 391.25
  Q 346.57 397.96 343.53 407.14
  Q 339.78 418.51 338.83 423.52
  C 338.25 426.62 337.22 430.62 336.86 434.18
  C 336.42 438.58 335.49 441.68 335.27 445.96
  Q 334.68 457.43 334.66 460.98
  Q 334.47 486.38 340.69 509.38
  C 341.73 513.25 343.18 517.09 344.01 520.20
  Q 344.97 523.86 346.77 528.23
  Q 357.12 553.49 374.11 572.92
  Q 382.15 582.11 391.22 589.28
  Q 404.27 599.58 419.08 607.19
  Q 446.22 621.12 478.58 622.88
  Q 499.67 624.02 521.31 618.08
  Q 534.63 614.43 543.94 610.17
  C 559.86 602.89 576.06 591.86 589.32 578.89
  Q 597.42 570.96 600.14 567.88
  Q 605.56 561.75 610.27 555.26
  Q 610.61 554.80 611.43 554.24
  Q 611.57 554.14 611.62 553.94
  Z"
/>
<path fill="#04b5fc" d="
  M 611.43 554.24
  Q 610.61 554.80 610.27 555.26
  Q 605.56 561.75 600.14 567.88
  Q 597.42 570.96 589.32 578.89
  C 576.06 591.86 559.86 602.89 543.94 610.17
  Q 534.63 614.43 521.31 618.08
  Q 499.67 624.02 478.58 622.88
  Q 446.22 621.12 419.08 607.19
  Q 404.27 599.58 391.22 589.28
  Q 382.15 582.11 374.11 572.92
  Q 357.12 553.49 346.77 528.23
  Q 344.97 523.86 344.01 520.20
  C 343.18 517.09 341.73 513.25 340.69 509.38
  Q 334.47 486.38 334.66 460.98
  Q 334.68 457.43 335.27 445.96
  C 335.49 441.68 336.42 438.58 336.86 434.18
  C 337.22 430.62 338.25 426.62 338.83 423.52
  Q 339.78 418.51 343.53 407.14
  Q 346.57 397.96 349.70 391.25
  Q 366.67 354.87 397.98 332.26
  Q 417.22 318.37 443.57 307.70
  Q 449.47 305.32 453.72 304.42
  C 458.39 303.44 463.32 301.79 467.56 301.12
  Q 489.27 297.68 505.83 299.49
  Q 536.50 302.84 566.70 318.87
  Q 572.41 321.90 580.06 327.16
  Q 588.16 332.75 592.72 336.67
  Q 594.72 338.39 603.04 346.64
  Q 605.22 348.80 611.64 356.78
  Q 616.41 362.73 619.28 367.47
  Q 631.46 387.59 636.45 406.05
  Q 643.10 430.64 643.05 456.00
  C 643.03 466.70 641.51 477.88 639.04 490.33
  C 634.52 513.05 625.19 534.16 611.75 553.54
  Q 611.68 553.64 611.62 553.94
  Q 611.57 554.14 611.43 554.24
  Z
  M 526.00 615.63
  C 548.45 609.04 568.25 596.69 585.54 581.02
  Q 628.51 542.09 639.10 484.59
  C 643.76 459.26 642.16 430.91 635.15 406.09
  Q 626.31 374.82 604.96 350.53
  C 585.27 328.11 557.73 312.81 529.22 305.12
  Q 486.60 293.63 445.19 308.52
  Q 429.64 314.11 409.45 326.10
  C 400.89 331.17 392.04 338.19 385.52 344.02
  C 373.76 354.52 363.86 367.03 356.24 380.96
  Q 333.70 422.20 336.12 470.55
  C 338.24 513.16 353.80 554.49 386.16 583.33
  C 399.58 595.29 415.99 605.74 433.01 612.17
  Q 470.49 626.33 510.11 619.51
  Q 516.51 618.41 526.00 615.63
  Z"
/>
<path fill="#000712" d="
  M 510.11 619.51
  Q 470.49 626.33 433.01 612.17
  C 415.99 605.74 399.58 595.29 386.16 583.33
  C 353.80 554.49 338.24 513.16 336.12 470.55
  Q 333.70 422.20 356.24 380.96
  C 363.86 367.03 373.76 354.52 385.52 344.02
  C 392.04 338.19 400.89 331.17 409.45 326.10
  Q 429.64 314.11 445.19 308.52
  Q 486.60 293.63 529.22 305.12
  C 557.73 312.81 585.27 328.11 604.96 350.53
  Q 626.31 374.82 635.15 406.09
  C 642.16 430.91 643.76 459.26 639.10 484.59
  Q 628.51 542.09 585.54 581.02
  C 568.25 596.69 548.45 609.04 526.00 615.63
  Q 516.51 618.41 510.11 619.51
  Z
  M 507.77 589.15
  C 550.61 574.60 582.62 535.35 594.13 492.42
  C 603.47 457.60 603.15 418.15 586.23 386.28
  C 570.35 356.36 543.24 332.45 511.05 323.38
  Q 493.86 318.54 475.19 319.83
  Q 457.90 321.02 440.11 328.13
  C 395.87 345.81 362.18 384.83 353.12 431.87
  Q 351.20 441.85 350.95 455.25
  Q 350.70 468.64 351.61 478.73
  Q 354.81 514.25 374.85 543.59
  Q 393.35 570.67 423.68 583.52
  Q 456.09 597.25 489.65 593.08
  Q 500.00 591.79 507.77 589.15
  Z
  M 501.43 606.62
  A 0.26 0.26 0.0 0 0 501.71 606.82
  Q 507.01 606.13 511.72 605.41
  C 524.15 603.50 536.55 598.86 546.74 592.98
  Q 584.66 571.08 606.86 533.66
  C 633.70 488.42 637.84 430.14 613.04 382.73
  Q 598.74 355.38 573.14 338.15
  C 567.83 334.57 560.89 331.63 555.74 329.01
  A 0.27 0.27 0.0 0 0 555.39 329.11
  L 555.38 329.14
  A 0.30 0.29 -55.7 0 0 555.45 329.53
  C 558.77 332.00 562.08 333.84 565.28 336.80
  Q 575.25 346.01 581.18 352.83
  Q 607.25 382.81 612.75 421.47
  C 615.27 439.15 615.44 458.98 612.34 476.79
  Q 603.61 526.94 569.06 564.29
  Q 550.95 583.86 524.60 597.33
  Q 512.46 603.54 501.76 606.07
  A 0.45 0.45 0.0 0 0 501.42 606.60
  L 501.43 606.62
  Z"
/>
<path fill="#04b5fc" d="
  M 594.13 492.42
  C 582.62 535.35 550.61 574.60 507.77 589.15
  Q 500.00 591.79 489.65 593.08
  Q 456.09 597.25 423.68 583.52
  Q 393.35 570.67 374.85 543.59
  Q 354.81 514.25 351.61 478.73
  Q 350.70 468.64 350.95 455.25
  Q 351.20 441.85 353.12 431.87
  C 362.18 384.83 395.87 345.81 440.11 328.13
  Q 457.90 321.02 475.19 319.83
  Q 493.86 318.54 511.05 323.38
  C 543.24 332.45 570.35 356.36 586.23 386.28
  C 603.15 418.15 603.47 457.60 594.13 492.42
  Z
  M 500.91 589.72
  Q 516.34 585.74 529.73 577.48
  Q 540.97 570.56 547.18 565.16
  Q 558.55 555.26 568.82 541.84
  Q 582.98 523.31 590.59 500.11
  Q 596.22 482.96 598.22 464.45
  C 598.52 461.67 598.32 459.02 598.74 456.64
  Q 599.19 454.05 599.18 450.80
  Q 599.09 432.77 596.01 417.55
  Q 591.42 394.90 578.17 375.08
  Q 576.28 372.25 569.24 363.28
  C 566.26 359.49 563.12 356.41 559.86 353.09
  C 557.86 351.05 555.69 349.60 553.64 347.75
  Q 551.50 345.82 548.92 343.84
  Q 531.49 330.47 509.96 324.40
  Q 498.72 321.24 490.74 321.06
  C 481.30 320.85 476.58 320.47 469.46 321.50
  C 441.63 325.52 416.19 338.59 395.72 357.74
  Q 392.85 360.43 391.28 362.29
  C 387.98 366.19 384.21 369.81 380.72 374.21
  Q 357.40 403.71 352.89 441.83
  Q 352.63 444.10 352.08 456.55
  Q 351.81 462.66 352.24 469.13
  Q 352.94 479.68 353.17 481.66
  Q 355.36 501.24 363.27 519.99
  Q 365.71 525.76 369.44 532.57
  C 379.92 551.67 395.47 567.97 414.69 577.98
  Q 424.39 583.03 432.47 585.60
  C 439.03 587.68 442.77 589.13 448.05 590.16
  Q 459.53 592.39 474.08 593.20
  Q 478.40 593.44 481.80 592.78
  Q 481.94 592.76 489.49 591.81
  Q 495.97 590.99 500.91 589.72
  Z"
/>
<path fill="#0087fd" d="
  M 489.49 591.81
  Q 481.94 592.76 481.80 592.78
  Q 478.40 593.44 474.08 593.20
  Q 459.53 592.39 448.05 590.16
  C 442.77 589.13 439.03 587.68 432.47 585.60
  Q 424.39 583.03 414.69 577.98
  C 395.47 567.97 379.92 551.67 369.44 532.57
  Q 365.71 525.76 363.27 519.99
  Q 355.36 501.24 353.17 481.66
  Q 352.94 479.68 352.24 469.13
  Q 351.81 462.66 352.08 456.55
  Q 352.63 444.10 352.89 441.83
  Q 357.40 403.71 380.72 374.21
  C 384.21 369.81 387.98 366.19 391.28 362.29
  Q 392.85 360.43 395.72 357.74
  C 416.19 338.59 441.63 325.52 469.46 321.50
  C 476.58 320.47 481.30 320.85 490.74 321.06
  Q 498.72 321.24 509.96 324.40
  Q 531.49 330.47 548.92 343.84
  Q 551.50 345.82 553.64 347.75
  C 555.69 349.60 557.86 351.05 559.86 353.09
  C 563.12 356.41 566.26 359.49 569.24 363.28
  Q 576.28 372.25 578.17 375.08
  Q 591.42 394.90 596.01 417.55
  Q 599.09 432.77 599.18 450.80
  Q 599.19 454.05 598.74 456.64
  C 598.32 459.02 598.52 461.67 598.22 464.45
  Q 596.22 482.96 590.59 500.11
  Q 582.98 523.31 568.82 541.84
  Q 558.55 555.26 547.18 565.16
  Q 540.97 570.56 529.73 577.48
  Q 516.34 585.74 500.91 589.72
  Q 495.97 590.99 489.49 591.81
  Z
  M 559.44 433.46
  C 557.14 420.92 553.36 409.85 547.55 399.90
  C 537.95 383.45 522.64 372.05 504.21 366.36
  Q 494.13 363.24 486.40 362.85
  Q 464.11 361.72 443.79 371.80
  Q 433.60 376.85 428.31 381.07
  C 420.39 387.39 415.56 392.21 409.95 399.22
  Q 406.21 403.90 403.63 408.20
  Q 394.63 423.19 391.77 439.32
  C 391.20 442.57 391.10 445.76 390.58 449.25
  Q 390.12 452.22 390.34 465.35
  C 390.38 467.34 391.24 468.99 391.30 470.90
  Q 391.37 472.96 391.59 474.44
  C 394.47 494.07 402.88 511.68 416.52 525.90
  Q 421.86 531.47 425.50 534.42
  Q 445.14 550.32 471.54 551.61
  Q 473.82 551.72 476.41 551.38
  Q 478.54 551.10 481.23 550.92
  Q 494.51 550.04 507.54 542.72
  C 533.15 528.33 552.32 502.68 558.66 473.73
  Q 560.91 463.43 560.99 450.75
  Q 561.05 442.20 559.44 433.46
  Z"
/>
<path fill="#0087fd" d="
  M 501.43 606.62
  L 501.42 606.60
  A 0.45 0.45 0.0 0 1 501.76 606.07
  Q 512.46 603.54 524.60 597.33
  Q 550.95 583.86 569.06 564.29
  Q 603.61 526.94 612.34 476.79
  C 615.44 458.98 615.27 439.15 612.75 421.47
  Q 607.25 382.81 581.18 352.83
  Q 575.25 346.01 565.28 336.80
  C 562.08 333.84 558.77 332.00 555.45 329.53
  A 0.30 0.29 -55.7 0 1 555.38 329.14
  L 555.39 329.11
  A 0.27 0.27 0.0 0 1 555.74 329.01
  C 560.89 331.63 567.83 334.57 573.14 338.15
  Q 598.74 355.38 613.04 382.73
  C 637.84 430.14 633.70 488.42 606.86 533.66
  Q 584.66 571.08 546.74 592.98
  C 536.55 598.86 524.15 603.50 511.72 605.41
  Q 507.01 606.13 501.71 606.82
  A 0.26 0.26 0.0 0 1 501.43 606.62
  Z
  M 517.58 602.49
  Q 515.86 602.40 515.28 603.01
  A 0.26 0.26 0.0 0 0 515.50 603.44
  Q 516.64 603.29 517.58 602.49
  Q 518.28 602.69 518.52 602.64
  Q 536.49 598.50 551.94 588.47
  Q 563.65 580.87 569.66 575.64
  C 575.94 570.17 580.38 566.34 585.00 561.30
  Q 618.21 525.03 626.55 475.96
  Q 627.37 471.18 627.55 467.99
  Q 627.78 464.07 628.33 460.02
  Q 628.69 457.40 628.51 446.25
  C 628.43 441.41 627.59 437.38 626.98 431.44
  Q 626.08 422.50 622.59 409.90
  Q 615.31 383.62 598.37 362.49
  C 591.83 354.33 584.64 348.30 576.65 341.85
  Q 573.95 339.67 570.15 337.84
  A 0.71 0.71 0.0 0 0 569.13 338.51
  Q 569.13 338.54 569.19 338.79
  A 0.76 0.76 0.0 0 0 569.36 339.09
  C 573.80 343.78 578.64 348.04 582.85 353.07
  Q 587.19 358.24 588.76 360.37
  Q 610.26 389.49 614.44 425.38
  Q 616.49 443.03 615.64 457.47
  Q 612.71 506.99 583.60 548.55
  Q 581.78 551.14 578.45 555.04
  C 573.63 560.68 569.19 566.01 564.62 570.41
  Q 554.15 580.48 542.17 588.38
  Q 532.30 594.88 518.85 601.58
  A 2.29 0.31 -11.3 0 1 517.92 601.90
  Q 517.29 602.08 517.58 602.49
  Z"
/>
<path fill="#0059b5" d="
  M 517.58 602.49
  Q 517.29 602.08 517.92 601.90
  A 2.29 0.31 -11.3 0 0 518.85 601.58
  Q 532.30 594.88 542.17 588.38
  Q 554.15 580.48 564.62 570.41
  C 569.19 566.01 573.63 560.68 578.45 555.04
  Q 581.78 551.14 583.60 548.55
  Q 612.71 506.99 615.64 457.47
  Q 616.49 443.03 614.44 425.38
  Q 610.26 389.49 588.76 360.37
  Q 587.19 358.24 582.85 353.07
  C 578.64 348.04 573.80 343.78 569.36 339.09
  A 0.76 0.76 0.0 0 1 569.19 338.79
  Q 569.13 338.54 569.13 338.51
  A 0.71 0.71 0.0 0 1 570.15 337.84
  Q 573.95 339.67 576.65 341.85
  C 584.64 348.30 591.83 354.33 598.37 362.49
  Q 615.31 383.62 622.59 409.90
  Q 626.08 422.50 626.98 431.44
  C 627.59 437.38 628.43 441.41 628.51 446.25
  Q 628.69 457.40 628.33 460.02
  Q 627.78 464.07 627.55 467.99
  Q 627.37 471.18 626.55 475.96
  Q 618.21 525.03 585.00 561.30
  C 580.38 566.34 575.94 570.17 569.66 575.64
  Q 563.65 580.87 551.94 588.47
  Q 536.49 598.50 518.52 602.64
  Q 518.28 602.69 517.58 602.49
  Z"
/>
<path fill="#04b5fc" d="
  M 547.55 399.90
  C 553.36 409.85 557.14 420.92 559.44 433.46
  Q 561.05 442.20 560.99 450.75
  Q 560.91 463.43 558.66 473.73
  C 552.32 502.68 533.15 528.33 507.54 542.72
  Q 494.51 550.04 481.23 550.92
  Q 478.54 551.10 476.41 551.38
  Q 473.82 551.72 471.54 551.61
  Q 445.14 550.32 425.50 534.42
  Q 421.86 531.47 416.52 525.90
  C 402.88 511.68 394.47 494.07 391.59 474.44
  Q 391.37 472.96 391.30 470.90
  C 391.24 468.99 390.38 467.34 390.34 465.35
  Q 390.12 452.22 390.58 449.25
  C 391.10 445.76 391.20 442.57 391.77 439.32
  Q 394.63 423.19 403.63 408.20
  Q 406.21 403.90 409.95 399.22
  C 415.56 392.21 420.39 387.39 428.31 381.07
  Q 433.60 376.85 443.79 371.80
  Q 464.11 361.72 486.40 362.85
  Q 494.13 363.24 504.21 366.36
  C 522.64 372.05 537.95 383.45 547.55 399.90
  Z
  M 481.62 549.79
  Q 496.21 548.18 507.80 541.30
  Q 540.18 522.11 553.95 485.93
  Q 559.33 471.77 559.41 451.52
  C 559.56 412.08 540.57 377.42 501.27 366.69
  C 462.88 356.20 422.47 377.95 403.31 411.15
  Q 392.86 429.28 391.71 450.80
  C 389.89 485.02 403.30 518.21 431.50 537.25
  Q 454.52 552.79 481.62 549.79
  Z"
/>
<path fill="#000712" d="
  M 481.62 549.79
  Q 454.52 552.79 431.50 537.25
  C 403.30 518.21 389.89 485.02 391.71 450.80
  Q 392.86 429.28 403.31 411.15
  C 422.47 377.95 462.88 356.20 501.27 366.69
  C 540.57 377.42 559.56 412.08 559.41 451.52
  Q 559.33 471.77 553.95 485.93
  Q 540.18 522.11 507.80 541.30
  Q 496.21 548.18 481.62 549.79
  Z
  M 496.35 382.02
  Q 483.77 378.91 472.40 380.29
  C 440.57 384.16 414.78 410.05 409.39 441.32
  Q 404.54 469.49 416.36 494.90
  Q 426.03 515.70 447.26 526.75
  C 451.66 529.05 457.41 530.59 462.29 531.87
  A 0.35 0.35 0.0 0 0 462.54 531.22
  Q 455.69 527.81 450.81 521.22
  Q 433.31 497.59 432.82 469.08
  C 432.26 436.59 448.85 408.79 475.92 391.42
  Q 485.21 385.45 496.35 382.44
  A 0.22 0.22 0.0 0 0 496.35 382.02
  Z
  M 485.06 533.23
  C 489.08 532.05 492.96 531.27 496.49 529.65
  Q 508.11 524.35 516.26 516.25
  Q 536.93 495.74 542.64 466.14
  C 543.13 463.58 542.95 461.11 543.48 458.51
  Q 543.92 456.41 543.99 452.80
  C 544.09 447.47 543.64 445.00 542.92 438.51
  Q 541.16 422.60 531.54 406.95
  Q 525.99 397.91 518.81 393.25
  A 5.66 5.60 65.5 0 0 516.57 392.40
  Q 512.44 391.77 510.77 392.14
  C 508.62 392.63 506.43 392.94 504.48 393.54
  Q 490.19 397.96 477.98 407.75
  C 475.00 410.14 471.80 412.58 469.46 415.21
  Q 461.66 423.96 457.31 431.55
  Q 452.01 440.78 449.71 452.58
  Q 449.03 456.05 448.99 457.46
  C 448.85 461.80 448.21 465.51 448.53 469.73
  Q 449.55 483.64 454.20 495.59
  Q 463.06 518.37 484.15 533.09
  A 1.06 1.05 -36.1 0 0 485.06 533.23
  Z"
/>
<path fill="#0087fd" d="
  M 496.35 382.02
  A 0.22 0.22 0.0 0 1 496.35 382.44
  Q 485.21 385.45 475.92 391.42
  C 448.85 408.79 432.26 436.59 432.82 469.08
  Q 433.31 497.59 450.81 521.22
  Q 455.69 527.81 462.54 531.22
  A 0.35 0.35 0.0 0 1 462.29 531.87
  C 457.41 530.59 451.66 529.05 447.26 526.75
  Q 426.03 515.70 416.36 494.90
  Q 404.54 469.49 409.39 441.32
  C 414.78 410.05 440.57 384.16 472.40 380.29
  Q 483.77 378.91 496.35 382.02
  Z
  M 455.92 528.38
  Q 455.92 528.36 452.68 525.02
  Q 450.90 523.19 449.81 521.73
  Q 436.55 504.07 432.64 482.18
  Q 432.08 479.02 431.93 474.80
  Q 431.92 474.34 431.34 467.24
  A 19.14 19.11 -43.6 0 1 431.44 463.15
  Q 432.96 451.41 433.67 448.22
  C 440.43 418.18 462.26 394.42 490.49 382.58
  A 0.08 0.08 0.0 0 0 490.47 382.42
  C 471.49 378.43 451.65 384.77 436.76 397.04
  Q 412.88 416.71 409.71 447.80
  Q 407.16 472.85 417.96 495.33
  Q 428.42 517.09 450.73 527.16
  A 1.45 0.88 36.6 0 0 450.91 527.23
  L 455.60 528.47
  A 0.33 0.32 28.4 0 0 455.92 528.38
  Z"
/>
<path fill="#0059b5" d="
  M 455.60 528.47
  L 450.91 527.23
  A 1.45 0.88 36.6 0 1 450.73 527.16
  Q 428.42 517.09 417.96 495.33
  Q 407.16 472.85 409.71 447.80
  Q 412.88 416.71 436.76 397.04
  C 451.65 384.77 471.49 378.43 490.47 382.42
  A 0.08 0.08 0.0 0 1 490.49 382.58
  C 462.26 394.42 440.43 418.18 433.67 448.22
  Q 432.96 451.41 431.44 463.15
  A 19.14 19.11 -43.6 0 0 431.34 467.24
  Q 431.92 474.34 431.93 474.80
  Q 432.08 479.02 432.64 482.18
  Q 436.55 504.07 449.81 521.73
  Q 450.90 523.19 452.68 525.02
  Q 455.92 528.36 455.92 528.38
  A 0.33 0.32 28.4 0 1 455.60 528.47
  Z"
/>
<path fill="#0059b5" d="
  M 517.58 602.49
  Q 516.64 603.29 515.50 603.44
  A 0.26 0.26 0.0 0 1 515.28 603.01
  Q 515.86 602.40 517.58 602.49
  Z"
/>
<ellipse fill="#0059b5" cx="0.00" cy="0.00" transform="translate(555.61,836.89) rotate(-11.1)" rx="1.51" ry="0.33"/>
</svg>
