<?xml version="1.0" encoding="UTF-8" standalone="no"?>
<!DOCTYPE svg PUBLIC "-//W3C//DTD SVG 1.1//EN" "http://www.w3.org/Graphics/SVG/1.1/DTD/svg11.dtd">
<svg xmlns="http://www.w3.org/2000/svg" version="1.1" viewBox="0.00 0.00 1024.00 1024.00">
<g stroke-width="2.00" fill="none" stroke-linecap="butt">
<path stroke="#7b6317" vector-effect="non-scaling-stroke" d="
  M 418.90 830.05
  Q 420.91 831.18 422.89 830.31"
/>
<path stroke="#7e7522" vector-effect="non-scaling-stroke" d="
  M 422.89 830.31
  Q 425.68 831.21 431.26 831.64
  Q 456.91 833.66 477.25 832.78
  C 498.29 831.87 520.22 828.58 540.63 823.59
  Q 582.57 813.34 621.14 790.89
  Q 670.57 762.11 709.28 720.79
  Q 733.56 694.87 752.68 666.45
  C 787.26 615.04 810.66 554.40 817.72 492.99
  Q 820.29 470.63 820.78 454.49
  C 824.05 347.29 781.35 239.37 701.19 166.97
  C 678.78 146.73 652.01 129.80 624.67 117.10
  C 594.58 103.11 561.42 95.43 527.95 92.57
  Q 504.45 90.56 482.01 92.31
  C 449.04 94.89 417.53 100.74 388.05 112.57
  Q 374.31 118.09 363.14 123.17
  Q 340.05 133.69 318.07 147.81
  C 252.01 190.21 202.16 253.78 172.38 325.79
  C 154.26 369.61 144.80 417.46 142.42 465.40
  Q 141.90 475.89 142.42 488.08
  Q 143.20 506.15 143.51 510.75
  Q 149.44 598.57 192.37 673.71
  C 205.81 697.24 221.65 718.86 239.05 737.47
  C 261.63 761.63 290.49 782.17 320.21 798.45
  C 343.31 811.11 366.63 820.10 393.60 825.88
  Q 408.01 828.96 418.90 830.05"
/>
<path stroke="#f9d839" vector-effect="non-scaling-stroke" d="
  M 422.89 830.31
  Q 428.10 830.00 433.23 830.49
  Q 441.92 831.32 443.53 831.37
  Q 463.60 832.09 483.72 831.24
  C 498.30 830.63 513.40 827.75 527.99 825.04
  Q 544.73 821.93 563.43 815.65
  Q 598.50 803.89 632.55 782.31
  Q 650.67 770.83 664.87 759.60
  Q 670.37 755.25 677.99 748.88
  C 682.85 744.82 685.84 741.70 689.76 737.94
  A 8.27 7.60 4.9 0 1 691.03 736.96
  C 692.11 736.28 693.14 735.63 694.06 734.69
  Q 700.47 728.15 702.08 726.61
  Q 706.94 721.97 709.76 718.26
  C 712.39 714.81 717.03 711.31 719.86 706.97
  Q 720.94 705.32 722.89 703.64
  A 3.72 3.70 -3.2 0 0 723.52 702.94
  Q 726.82 698.14 730.81 693.84
  Q 732.05 692.50 732.42 691.89
  C 733.62 689.94 734.97 688.70 736.33 686.92
  Q 751.97 666.32 765.27 643.85
  Q 775.62 626.38 782.74 610.68
  Q 791.83 590.64 796.95 576.01
  Q 804.26 555.17 809.15 534.47
  Q 814.50 511.81 817.19 486.99
  Q 818.47 475.16 819.09 466.77
  Q 819.38 463.00 819.22 460.74
  C 818.87 455.40 819.37 451.03 819.40 445.59
  Q 819.44 437.26 819.20 421.51
  Q 819.06 411.91 815.45 386.02
  Q 812.98 368.32 807.44 346.86
  Q 802.31 326.96 795.29 308.73
  Q 779.72 268.29 756.79 233.26
  Q 751.80 225.64 744.58 216.20
  Q 740.70 211.12 731.42 199.98
  Q 729.51 197.69 728.19 196.04
  Q 725.98 193.30 724.72 192.01
  Q 705.56 172.40 700.94 168.33
  Q 689.15 157.94 681.50 152.33
  Q 661.21 137.44 638.25 125.31
  Q 606.71 108.66 576.07 101.66
  Q 557.62 97.45 542.71 95.53
  Q 540.90 95.30 528.32 93.97
  Q 521.58 93.26 513.89 93.05
  Q 463.35 91.65 414.09 104.93
  Q 409.16 106.26 406.43 107.22
  C 399.70 109.59 393.50 111.54 387.68 113.96
  Q 370.63 121.03 363.32 124.35
  Q 333.15 138.05 304.85 158.10
  Q 293.60 166.07 293.02 166.91
  A 1.64 1.64 0.0 0 1 292.40 167.45
  Q 290.61 168.35 289.88 169.13
  Q 288.77 170.33 282.64 175.24
  Q 279.01 178.16 275.45 181.37
  Q 264.21 191.54 250.71 205.45
  C 247.45 208.81 244.87 212.46 241.09 215.88
  A 4.22 4.14 86.1 0 0 240.44 216.64
  Q 238.77 219.18 237.25 220.74
  Q 235.44 222.61 233.54 225.02
  Q 225.87 234.77 222.46 239.35
  Q 218.94 244.09 217.00 247.07
  C 212.60 253.81 208.10 259.91 203.93 266.71
  Q 194.18 282.62 185.39 300.38
  C 175.95 319.45 168.01 338.65 161.60 359.79
  Q 152.23 390.75 147.13 427.38
  Q 144.49 446.35 144.07 462.93
  C 143.84 471.96 143.41 488.42 144.22 501.00
  Q 146.02 528.71 147.43 537.58
  Q 151.34 562.07 153.59 571.63
  C 167.71 631.92 196.03 687.95 237.62 733.72
  C 262.60 761.21 293.11 782.81 325.86 800.13
  Q 356.55 816.36 390.38 823.87
  Q 390.42 823.88 403.56 826.24
  Q 411.40 827.65 418.90 830.05"
/>
<path stroke="#7b6317" vector-effect="non-scaling-stroke" d="
  M 537.59 840.92
  A 0.35 0.34 -3.7 0 0 537.98 841.26
  Q 564.99 837.40 574.27 835.41
  Q 589.89 832.07 600.88 829.05
  Q 647.33 816.27 690.96 788.21
  Q 735.74 759.43 768.38 721.63
  Q 782.72 705.03 784.60 702.60
  C 827.42 647.45 855.77 581.13 864.55 511.57
  Q 876.95 413.35 844.03 321.68
  C 818.11 249.49 770.53 188.36 706.93 146.32
  Q 696.61 139.50 673.54 126.17
  A 0.51 0.51 0.0 0 0 672.84 126.35
  L 672.82 126.37
  A 0.44 0.44 0.0 0 0 672.97 126.97
  Q 683.81 133.58 696.78 143.95
  Q 721.53 163.75 738.22 182.19
  C 755.48 201.27 769.77 219.65 782.33 241.44
  C 810.73 290.68 829.29 345.74 835.33 402.61
  Q 841.17 457.66 832.90 513.20
  Q 823.82 574.14 794.87 629.14
  Q 752.36 709.94 682.20 767.81
  C 660.57 785.66 637.38 800.86 613.03 813.50
  Q 576.94 832.24 537.67 840.55
  A 0.10 0.09 86.8 0 0 537.59 840.65
  L 537.59 840.92"
/>
<path stroke="#f9d839" vector-effect="non-scaling-stroke" d="
  M 613.32 150.49
  C 580.20 134.95 543.43 126.52 506.38 124.15
  Q 490.32 123.12 474.80 124.15
  Q 463.84 124.88 443.45 127.97
  C 430.68 129.91 414.79 133.96 402.02 138.08
  Q 366.02 149.71 333.08 170.58
  Q 329.39 172.92 321.48 178.24
  Q 317.62 180.83 304.46 191.09
  C 299.34 195.09 294.53 199.68 290.64 202.83
  Q 285.65 206.89 280.64 211.99
  Q 269.41 223.40 265.54 227.04
  Q 263.64 228.83 262.48 230.33
  C 258.83 235.04 254.55 239.29 249.42 245.46
  C 248.63 246.40 248.37 247.41 247.44 248.28
  Q 246.53 249.13 245.86 250.01
  Q 231.10 269.24 223.78 280.76
  Q 214.54 295.29 204.76 314.39
  Q 196.56 330.40 190.10 347.89
  Q 182.93 367.29 179.10 382.83
  Q 178.43 385.50 175.53 397.49
  Q 170.61 417.82 168.33 444.27
  Q 168.01 448.00 167.47 453.81
  Q 167.07 458.08 166.58 470.42
  Q 166.29 477.66 166.66 487.06
  Q 168.09 522.81 175.23 556.44
  Q 177.49 567.06 180.14 576.07
  Q 184.25 590.01 186.13 595.42
  Q 191.95 612.14 200.61 630.65
  Q 209.55 649.77 227.05 675.58
  C 228.88 678.28 230.76 680.22 232.38 682.71
  C 234.74 686.31 236.96 688.52 239.79 692.46
  Q 241.30 694.56 243.09 696.42
  C 246.06 699.54 247.78 702.27 250.91 705.32
  Q 254.34 708.66 258.98 714.25
  C 262.15 718.07 266.34 720.50 269.94 724.35
  Q 270.52 724.97 278.63 732.13
  Q 282.89 735.90 289.09 740.78
  Q 291.78 742.90 299.96 748.79
  Q 341.92 778.96 391.93 790.99
  Q 407.42 794.72 426.77 797.51
  Q 436.44 798.91 447.20 799.28
  Q 464.71 799.88 467.72 799.78
  Q 472.43 799.63 486.69 798.69
  C 491.15 798.39 494.86 797.62 498.85 797.28
  Q 503.98 796.84 508.00 796.14
  C 540.58 790.50 571.36 780.95 599.65 765.88
  Q 620.75 754.64 639.57 741.32
  Q 650.54 733.55 667.09 719.24
  Q 672.75 714.36 675.60 711.44
  C 682.54 704.33 689.21 698.20 695.65 690.67
  Q 713.03 670.34 723.75 654.77
  Q 743.42 626.19 757.67 593.73
  Q 768.44 569.20 773.98 548.28
  Q 779.80 526.27 780.81 520.31
  Q 785.88 490.51 786.41 474.49
  Q 786.88 460.08 787.63 451.48
  Q 787.95 447.95 786.90 434.00
  C 786.50 428.68 787.07 423.48 786.44 419.01
  Q 785.83 414.68 785.67 412.01
  C 785.39 407.06 784.36 400.58 783.70 393.72
  Q 783.38 390.36 782.96 387.86
  Q 769.66 309.82 726.20 248.22
  C 719.86 239.23 713.39 231.43 705.98 222.40
  Q 702.70 218.40 699.90 215.67
  Q 698.53 214.33 693.75 208.98
  C 691.12 206.03 686.67 201.23 682.36 197.40
  Q 678.00 193.52 674.02 190.01
  Q 656.38 174.46 639.16 164.39
  Q 623.80 155.41 613.32 150.49"
/>
<path stroke="#7e7522" vector-effect="non-scaling-stroke" d="
  M 656.68 177.35
  Q 607.85 141.77 545.65 130.34
  C 516.68 125.01 489.91 123.40 462.11 126.64
  Q 444.84 128.66 433.51 131.06
  Q 370.12 144.51 317.44 182.94
  Q 265.42 220.88 228.16 276.65
  Q 180.75 347.60 170.61 433.51
  Q 162.50 502.20 179.21 568.06
  Q 197.07 638.42 243.57 694.95
  Q 258.41 712.99 280.10 731.66
  Q 336.65 780.32 408.72 793.32
  Q 436.21 798.27 460.24 798.41
  Q 509.41 798.67 556.34 783.04
  C 603.42 767.37 648.09 738.37 682.74 702.79
  C 743.84 640.04 782.48 555.53 785.62 467.50
  C 786.48 443.35 785.98 422.08 783.08 398.54
  C 775.59 337.86 750.87 279.39 712.39 232.03
  Q 699.51 216.19 687.26 204.03
  Q 670.60 187.49 656.68 177.35"
/>
<path stroke="#7b6317" vector-effect="non-scaling-stroke" d="
  M 381.10 769.94
  Q 378.66 769.32 365.98 763.76
  Q 332.23 748.97 305.21 725.03
  C 263.96 688.50 234.58 639.57 218.86 586.88
  Q 205.75 542.94 204.18 502.55
  Q 200.81 415.43 236.84 335.51
  Q 267.43 267.66 318.75 218.62
  Q 343.04 195.41 368.39 179.62
  Q 395.74 162.59 425.07 151.77
  C 432.13 149.17 439.71 147.54 445.37 145.30
  A 0.29 0.28 76.1 0 0 445.54 145.01
  L 445.54 144.98
  A 0.40 0.39 -8.8 0 0 445.07 144.64
  Q 440.46 145.62 429.54 147.75
  Q 422.65 149.09 414.18 151.33
  Q 368.81 163.31 329.97 191.46
  Q 308.19 207.24 288.90 225.91
  C 245.77 267.66 213.22 320.92 196.85 378.86
  Q 172.70 464.35 189.84 551.69
  C 197.10 588.71 211.82 623.88 231.66 655.46
  Q 250.59 685.59 273.04 707.49
  C 301.60 735.35 337.04 757.40 375.75 768.97
  Q 380.65 770.43 381.09 770.35
  A 0.21 0.21 0.0 0 0 381.10 769.94"
/>
<path stroke="#7e7522" vector-effect="non-scaling-stroke" d="
  M 318.82 234.33
  C 284.26 269.50 256.77 311.21 239.51 357.25
  Q 222.46 402.72 217.66 450.55
  Q 216.98 457.30 216.23 467.51
  Q 215.34 479.56 216.19 505.98
  Q 216.89 527.62 221.93 553.90
  Q 227.49 582.94 239.72 612.05
  Q 255.78 650.27 279.06 679.68
  Q 298.80 704.62 318.56 720.27
  C 333.16 731.83 348.05 742.29 364.79 750.70
  C 396.06 766.40 430.67 776.34 465.76 777.96
  Q 486.75 778.93 502.82 777.30
  Q 550.89 772.40 594.19 749.69
  C 619.26 736.55 643.89 718.42 665.11 697.36
  Q 676.19 686.38 680.45 681.69
  C 721.78 636.17 750.97 579.71 763.12 519.13
  Q 768.13 494.11 769.66 470.49
  Q 770.07 464.10 770.63 448.00
  Q 770.93 439.58 769.46 418.26
  Q 767.41 388.44 758.81 356.16
  C 746.04 308.20 720.74 263.57 687.35 227.16
  Q 673.47 212.03 653.59 196.89
  C 616.95 169.00 573.16 153.35 527.26 150.03
  Q 522.54 149.69 507.52 149.43
  Q 497.42 149.25 477.78 151.60
  Q 454.22 154.42 429.19 163.20
  C 399.56 173.59 371.32 188.88 346.85 208.71
  Q 332.86 220.04 318.82 234.33"
/>
<path stroke="#caa21f" vector-effect="non-scaling-stroke" d="
  M 698.91 143.25
  A 0.29 0.29 0.0 0 0 698.62 142.96
  A 0.29 0.29 0.0 0 0 698.33 143.25
  A 0.29 0.29 0.0 0 0 698.62 143.54
  A 0.29 0.29 0.0 0 0 698.91 143.25"
/>
<path stroke="#caa21f" vector-effect="non-scaling-stroke" d="
  M 700.64 145.25
  Q 700.63 145.26 700.66 145.38
  Q 700.67 145.48 700.77 145.56
  Q 708.12 152.09 712.81 155.93
  Q 717.13 159.48 731.47 173.52
  Q 735.83 177.79 750.07 194.16
  C 762.94 208.97 774.69 225.86 784.73 243.60
  Q 821.55 308.68 833.73 381.58
  Q 834.93 388.73 837.55 413.93
  C 838.04 418.64 837.85 423.16 838.34 427.73
  Q 838.86 432.47 838.91 438.05
  Q 839.05 453.89 839.05 457.75
  C 839.04 462.37 838.40 466.74 838.14 471.76
  Q 836.36 506.29 829.69 536.99
  C 822.26 571.16 809.86 603.97 792.90 635.21
  Q 757.12 701.13 701.00 752.80
  Q 670.00 781.33 633.94 802.95
  Q 597.75 824.66 562.92 835.22
  A 0.21 0.20 82.8 0 0 562.77 835.42
  L 562.77 835.68
  A 0.37 0.37 0.0 0 0 563.20 836.05
  Q 585.71 832.36 603.69 827.11
  Q 644.45 815.22 681.21 792.95
  Q 710.72 775.06 733.18 755.39
  Q 754.83 736.42 775.67 711.65
  Q 799.09 683.82 816.56 652.59
  Q 839.74 611.17 852.74 564.74
  Q 857.24 548.70 860.33 531.52
  C 864.13 510.39 866.23 488.63 866.82 468.00
  Q 867.19 455.01 866.33 437.24
  Q 866.23 435.05 866.15 433.76
  Q 864.36 403.36 857.74 372.96
  Q 845.38 316.14 817.32 266.26
  C 807.20 248.27 795.53 231.22 782.96 216.04
  Q 763.35 192.37 738.03 170.84
  Q 723.46 158.44 709.50 149.38
  Q 704.54 146.15 700.68 144.06
  Q 699.95 143.67 699.35 144.10
  A 0.43 0.43 0.0 0 0 699.49 144.86
  L 700.56 145.15
  A 0.10 0.09 10.2 0 1 700.64 145.25"
/>
<path stroke="#caa21f" vector-effect="non-scaling-stroke" d="
  M 353.01 758.93
  Q 350.97 757.76 345.29 755.01
  Q 342.83 753.82 337.88 750.59
  Q 323.45 741.17 314.29 733.96
  Q 292.45 716.76 274.13 694.13
  Q 239.10 650.87 221.11 597.41
  Q 208.45 559.77 204.38 520.36
  Q 202.94 506.43 202.85 494.10
  Q 202.72 477.67 203.22 467.75
  Q 204.73 437.70 211.78 406.98
  Q 226.25 343.92 260.17 289.64
  Q 268.35 276.56 271.16 272.65
  Q 287.33 250.15 303.09 233.06
  C 327.12 207.00 354.89 184.76 386.67 167.92
  Q 400.67 160.50 414.25 154.60
  Q 417.49 153.19 421.09 152.01
  Q 425.64 150.51 428.06 149.70
  A 0.18 0.18 0.0 0 0 427.98 149.35
  Q 423.06 149.95 415.66 152.38
  Q 415.12 152.55 413.79 152.86
  Q 400.70 155.87 386.09 161.59
  C 361.40 171.26 338.15 185.44 317.40 202.17
  Q 302.55 214.13 291.21 224.97
  Q 268.00 247.16 249.21 273.45
  Q 206.99 332.55 192.04 402.75
  Q 174.79 483.72 193.49 562.85
  Q 197.18 578.49 200.31 587.43
  Q 220.23 644.43 256.57 688.24
  Q 284.52 721.95 324.60 745.55
  Q 330.21 748.86 338.50 752.78
  Q 340.71 753.82 352.65 759.62
  A 0.18 0.17 -56.7 0 0 352.86 759.57
  L 353.08 759.27
  A 0.23 0.23 0.0 0 0 353.01 758.93"
/>
<path stroke="#f9d839" vector-effect="non-scaling-stroke" d="
  M 333.04 729.68
  C 341.91 736.16 351.85 742.60 359.25 746.52
  Q 400.08 768.20 445.30 774.89
  C 452.06 775.89 458.42 776.04 463.92 776.59
  Q 470.77 777.27 477.92 777.29
  Q 497.18 777.34 513.96 774.73
  Q 565.36 766.74 609.24 739.46
  Q 625.76 729.19 637.73 719.69
  Q 640.35 717.61 642.27 715.95
  C 645.30 713.33 648.18 711.71 650.68 708.89
  C 651.69 707.74 653.48 706.47 655.00 705.42
  Q 655.87 704.83 658.05 702.61
  Q 669.25 691.24 679.09 681.62
  A 5.68 5.57 84.7 0 0 679.96 680.55
  C 681.90 677.43 685.59 674.45 686.93 672.09
  C 688.07 670.09 690.42 668.32 692.17 666.12
  Q 705.33 649.59 718.21 628.98
  Q 723.41 620.66 727.89 612.41
  Q 748.25 574.92 758.43 534.46
  Q 761.47 522.38 762.81 513.91
  Q 763.53 509.35 763.63 508.96
  Q 764.54 505.60 766.88 488.27
  C 767.20 485.91 766.99 483.81 767.41 481.67
  Q 767.66 480.37 767.97 476.75
  C 771.31 438.02 768.42 398.13 758.64 360.20
  Q 751.44 332.27 739.80 307.67
  Q 722.14 270.35 695.87 238.67
  C 693.36 235.64 690.90 233.37 688.78 230.64
  C 685.52 226.45 680.48 221.68 677.49 218.71
  C 674.72 215.96 671.86 213.95 669.36 211.40
  Q 666.75 208.75 662.93 205.73
  Q 645.04 191.63 632.93 184.34
  Q 614.93 173.49 597.59 166.92
  Q 547.85 148.07 492.77 151.28
  C 488.44 151.53 482.88 152.33 478.09 152.77
  Q 472.23 153.31 467.14 154.28
  Q 447.16 158.08 433.00 163.05
  Q 418.67 168.07 410.40 171.67
  Q 389.06 180.97 368.99 193.98
  Q 353.86 203.79 339.86 215.86
  Q 337.12 218.23 337.05 218.29
  Q 331.52 223.25 318.03 236.77
  Q 308.48 246.35 300.17 256.36
  Q 262.89 301.26 242.31 353.29
  Q 222.38 403.67 217.85 461.25
  C 217.66 463.61 218.05 466.94 217.78 469.92
  Q 216.19 487.50 217.24 501.69
  Q 217.62 506.90 217.63 509.57
  Q 217.63 512.85 218.07 517.44
  Q 219.92 536.89 223.11 553.93
  C 228.17 581.00 238.01 607.90 250.59 632.70
  Q 264.92 660.91 286.03 686.20
  Q 292.73 694.22 295.68 697.31
  Q 303.96 705.98 313.95 714.82
  Q 319.83 720.01 333.04 729.68"
/>
<path stroke="#f9d839" vector-effect="non-scaling-stroke" d="
  M 477.13 301.74
  Q 460.09 304.20 455.65 305.39
  Q 416.53 315.88 387.18 343.05
  Q 384.09 345.91 382.57 347.65
  C 378.82 351.95 375.38 355.05 371.61 359.80
  Q 339.06 400.83 335.31 451.06
  Q 332.02 495.02 349.44 534.33
  Q 359.79 557.68 375.83 574.71
  C 400.32 600.71 434.36 618.25 469.52 621.96
  C 502.66 625.46 535.86 618.10 563.65 600.65
  Q 581.89 589.20 593.98 576.96
  Q 614.08 556.63 626.90 531.03
  Q 639.56 505.74 642.91 476.91
  C 649.24 422.42 631.99 360.25 584.03 328.18
  C 558.74 311.28 528.02 301.02 497.19 300.92
  Q 483.16 300.87 477.13 301.74"
/>
<path stroke="#7e7522" vector-effect="non-scaling-stroke" d="
  M 477.28 303.02
  Q 460.38 305.46 455.97 306.64
  Q 417.16 317.05 388.04 344.01
  Q 384.97 346.85 383.46 348.57
  C 379.74 352.84 376.33 355.92 372.59 360.63
  Q 340.30 401.34 336.58 451.18
  Q 333.31 494.79 350.60 533.80
  Q 360.87 556.96 376.78 573.86
  C 401.08 599.66 434.86 617.06 469.74 620.74
  C 502.62 624.21 535.56 616.91 563.14 599.59
  Q 581.23 588.23 593.23 576.09
  Q 613.17 555.92 625.89 530.52
  Q 638.45 505.42 641.77 476.82
  C 648.05 422.75 630.94 361.07 583.35 329.25
  C 558.26 312.48 527.78 302.31 497.19 302.21
  Q 483.27 302.16 477.28 303.02"
/>
<path stroke="#7b6317" vector-effect="non-scaling-stroke" d="
  M 487.48 321.10
  Q 481.59 320.31 476.48 321.96"
/>
<path stroke="#7e7522" vector-effect="non-scaling-stroke" d="
  M 476.48 321.96
  Q 472.34 321.62 465.34 323.14
  Q 422.68 332.38 393.88 362.82
  C 370.05 388.02 354.73 420.88 353.18 455.75
  Q 352.66 467.46 352.90 473.77
  Q 354.57 516.81 379.32 551.56
  C 397.78 577.48 427.97 594.42 459.48 597.01
  Q 510.57 601.23 549.09 568.03
  C 581.11 540.43 599.80 499.55 602.67 457.67
  Q 604.73 427.46 596.74 402.47
  C 587.65 374.05 567.81 348.39 541.39 334.18
  Q 523.30 324.44 502.50 321.54
  Q 495.23 320.52 487.48 321.10"
/>
<path stroke="#f9d839" vector-effect="non-scaling-stroke" d="
  M 476.48 321.96
  Q 455.49 326.09 443.77 330.52
  Q 434.76 333.92 427.39 338.11
  Q 420.94 341.78 411.97 348.11
  C 406.40 352.05 399.16 358.84 395.26 362.96
  Q 353.94 406.77 353.76 468.22
  C 353.75 472.64 354.55 476.24 354.62 480.69
  Q 354.70 485.04 355.48 489.99
  Q 361.27 526.83 384.40 556.14
  Q 390.33 563.64 397.71 569.81
  Q 405.11 575.99 413.32 580.91
  C 426.46 588.76 438.91 592.79 452.81 594.96
  Q 460.33 596.13 470.07 596.18
  Q 479.91 596.22 487.35 595.15
  Q 520.24 590.42 546.24 568.56
  A 3.85 3.79 -77.5 0 1 546.95 568.10
  Q 547.96 567.62 548.29 567.29
  Q 549.68 565.87 558.98 556.74
  Q 563.85 551.95 567.80 546.61
  Q 574.57 537.44 575.69 535.71
  Q 582.54 525.20 588.40 511.71
  Q 593.95 498.93 598.15 480.78
  Q 605.72 448.15 598.59 414.29
  Q 593.64 390.76 580.67 372.12
  Q 574.32 363.01 572.07 360.59
  Q 561.66 349.46 555.29 344.56
  Q 535.85 329.62 509.81 324.16
  Q 505.00 323.16 497.92 322.29
  Q 496.12 322.07 492.63 322.04
  Q 489.87 322.01 487.48 321.10"
/>
<path stroke="#7b6317" vector-effect="non-scaling-stroke" d="
  M 501.54 606.36
  Q 503.19 606.39 505.75 605.95
  C 527.47 602.15 546.48 594.87 564.51 582.24
  Q 599.24 557.91 616.31 519.34
  C 628.20 492.48 633.26 461.92 628.86 432.70
  Q 627.33 422.56 626.03 417.44
  Q 614.13 370.70 575.21 342.13
  A 0.07 0.07 0.0 0 0 575.11 342.24
  C 578.15 345.68 582.09 349.54 585.27 353.66
  Q 607.30 382.18 612.46 419.29
  Q 619.45 469.59 600.64 515.19
  C 585.44 552.06 557.17 583.31 520.19 599.67
  Q 511.04 603.72 501.50 606.02
  A 0.17 0.17 0.0 0 0 501.54 606.36"
/>
<path stroke="#f9d839" vector-effect="non-scaling-stroke" d="
  M 415.21 396.31
  C 399.84 416.03 390.69 440.55 391.42 465.39
  C 392.30 494.90 404.42 520.61 427.71 538.76
  Q 439.06 547.61 453.50 550.93
  C 480.40 557.12 506.53 549.07 526.07 530.13
  Q 554.69 502.39 559.63 462.50
  C 562.72 437.47 556.11 407.38 538.20 388.92
  C 521.91 372.13 499.42 361.47 476.22 362.70
  C 451.88 363.99 430.44 376.78 415.21 396.31"
/>
<path stroke="#caa21f" vector-effect="non-scaling-stroke" d="
  M 520.06 601.41
  C 527.35 599.11 532.48 598.06 539.01 595.28
  Q 551.19 590.10 563.30 581.79
  Q 597.55 558.28 614.77 520.27
  Q 626.61 494.15 628.80 465.25
  Q 628.91 463.75 629.07 449.14
  Q 629.15 441.82 628.19 435.41
  Q 626.66 425.15 625.94 421.82
  Q 619.15 390.37 599.13 365.89
  C 595.32 361.23 590.27 356.98 586.90 353.04
  A 0.26 0.25 61.0 0 0 586.63 352.96
  Q 586.33 353.06 586.38 353.26
  A 2.08 2.00 -72.4 0 0 586.84 354.19
  L 589.74 357.55
  A 1.15 0.96 -85.0 0 1 589.88 357.75
  Q 591.51 360.65 593.22 363.24
  C 605.59 382.03 612.47 404.91 614.48 427.25
  Q 615.74 441.24 615.69 445.74
  C 615.19 484.61 603.56 522.70 579.65 553.64
  C 576.73 557.42 572.95 561.41 569.87 564.88
  Q 558.39 577.84 542.19 588.93
  C 537.90 591.86 533.29 594.21 529.28 596.75
  Q 527.74 597.73 519.83 600.99
  A 0.19 0.19 0.0 0 0 519.72 601.23
  L 519.72 601.24
  A 0.28 0.27 71.2 0 0 520.06 601.41"
/>
<path stroke="#7e7522" vector-effect="non-scaling-stroke" d="
  M 416.23 397.07
  C 401.03 416.49 391.96 440.66 392.63 465.16
  C 393.44 494.27 405.34 519.65 428.27 537.60
  Q 439.45 546.35 453.69 549.66
  C 480.21 555.82 506.00 547.93 525.31 529.29
  Q 553.59 501.99 558.55 462.65
  C 561.65 437.97 555.19 408.27 537.56 390.03
  C 521.53 373.44 499.37 362.88 476.48 364.04
  C 452.47 365.26 431.30 377.84 416.23 397.07"
/>
<path stroke="#7b6317" vector-effect="non-scaling-stroke" d="
  M 465.17 536.19
  Q 452.27 527.33 444.62 511.85
  Q 430.85 483.96 435.42 452.87
  C 438.26 433.54 448.30 416.53 461.25 402.23
  Q 472.40 389.92 486.96 382.72
  Q 488.54 381.93 490.55 381.60
  A 0.33 0.33 0.0 0 0 490.55 380.94
  C 466.90 377.02 446.29 385.26 430.75 403.00
  Q 410.31 426.35 408.17 456.71
  C 406.45 481.18 415.39 508.56 435.16 524.08
  Q 447.75 533.95 465.04 536.53
  A 0.19 0.19 0.0 0 0 465.17 536.19"
/>
<path stroke="#caa21f" vector-effect="non-scaling-stroke" d="
  M 459.68 533.05
  Q 459.68 533.04 458.71 532.55
  A 3.41 3.35 -5.7 0 1 457.59 531.65
  C 455.54 529.12 451.50 525.42 449.19 521.87
  C 434.47 499.21 429.69 471.74 435.69 445.54
  C 439.38 429.42 449.27 413.88 460.28 401.78
  Q 471.27 389.70 485.99 382.12
  A 0.32 0.32 0.0 0 0 485.99 381.56
  L 485.33 381.22
  A 0.44 0.38 -22.5 0 0 485.15 381.16
  Q 456.70 379.34 437.47 397.52
  Q 421.23 412.89 414.12 433.28
  C 404.82 459.97 408.27 491.21 426.04 513.74
  Q 438.32 529.30 458.81 534.16
  A 0.78 0.77 -7.0 0 0 459.68 533.05"
/>
</g>
<path fill="#000000" d="
  M 732.72 779.20
  C 704.66 801.68 674.46 820.15 641.91 833.41
  Q 595.13 852.46 544.92 857.69
  Q 542.23 857.97 540.58 858.04
  C 538.09 858.14 535.72 858.95 533.45 858.90
  Q 528.77 858.81 516.81 859.57
  C 506.43 860.23 499.48 859.94 487.72 859.96
  Q 483.45 859.97 475.29 859.51
  Q 458.63 858.57 452.60 858.04
  Q 446.90 857.55 446.28 857.42
  Q 444.82 857.11 439.98 856.67
  Q 427.98 855.60 405.55 850.86
  Q 350.35 839.20 301.46 809.28
  Q 278.51 795.23 257.51 777.98
  Q 236.98 761.12 219.09 740.66
  Q 180.16 696.15 156.89 641.65
  Q 121.45 558.65 124.10 468.48
  Q 124.28 462.40 124.53 460.00
  C 125.01 455.36 124.67 451.44 125.58 447.51
  C 126.29 444.45 125.97 440.35 126.55 437.50
  C 127.08 434.90 126.99 432.30 127.39 429.52
  Q 130.36 408.91 131.03 405.51
  Q 138.17 369.36 146.22 345.66
  Q 169.59 276.87 214.12 220.10
  Q 239.53 187.70 269.26 161.76
  Q 271.53 159.79 280.01 153.01
  Q 333.68 110.17 398.37 88.63
  Q 427.76 78.84 457.61 74.60
  Q 471.86 72.57 483.49 71.85
  C 486.99 71.63 490.37 71.16 494.17 71.11
  C 506.47 70.96 516.81 70.66 527.66 71.64
  Q 531.91 72.03 537.54 72.05
  A 14.14 13.00 47.4 0 1 539.80 72.24
  Q 544.17 72.97 548.52 73.04
  A 17.12 15.97 12.6 0 1 550.93 73.24
  Q 552.21 73.43 557.50 74.05
  Q 611.34 80.35 659.87 100.63
  Q 676.34 107.51 691.74 115.96
  Q 750.90 148.43 794.36 199.38
  Q 803.00 209.52 814.84 226.14
  Q 824.09 239.13 835.49 259.43
  Q 844.92 276.24 852.74 294.54
  C 867.77 329.75 878.33 366.56 883.44 404.30
  Q 884.67 413.38 885.63 421.92
  C 886.05 425.71 885.72 428.91 886.45 432.21
  Q 886.79 433.75 886.88 436.31
  Q 887.60 456.49 887.00 475.65
  Q 886.87 479.96 886.30 484.83
  C 885.86 488.64 886.02 492.38 885.44 497.04
  Q 884.92 501.13 884.40 506.00
  C 882.15 527.01 877.75 547.95 872.12 567.88
  Q 867.51 584.18 859.62 604.92
  Q 846.04 640.58 822.22 678.49
  C 806.67 703.25 789.10 725.04 769.75 745.66
  Q 755.07 761.29 732.72 779.20
  Z
  M 418.90 830.05
  Q 420.91 831.18 422.89 830.31
  Q 425.68 831.21 431.26 831.64
  Q 456.91 833.66 477.25 832.78
  C 498.29 831.87 520.22 828.58 540.63 823.59
  Q 582.57 813.34 621.14 790.89
  Q 670.57 762.11 709.28 720.79
  Q 733.56 694.87 752.68 666.45
  C 787.26 615.04 810.66 554.40 817.72 492.99
  Q 820.29 470.63 820.78 454.49
  C 824.05 347.29 781.35 239.37 701.19 166.97
  C 678.78 146.73 652.01 129.80 624.67 117.10
  C 594.58 103.11 561.42 95.43 527.95 92.57
  Q 504.45 90.56 482.01 92.31
  C 449.04 94.89 417.53 100.74 388.05 112.57
  Q 374.31 118.09 363.14 123.17
  Q 340.05 133.69 318.07 147.81
  C 252.01 190.21 202.16 253.78 172.38 325.79
  C 154.26 369.61 144.80 417.46 142.42 465.40
  Q 141.90 475.89 142.42 488.08
  Q 143.20 506.15 143.51 510.75
  Q 149.44 598.57 192.37 673.71
  C 205.81 697.24 221.65 718.86 239.05 737.47
  C 261.63 761.63 290.49 782.17 320.21 798.45
  C 343.31 811.11 366.63 820.10 393.60 825.88
  Q 408.01 828.96 418.90 830.05
  Z
  M 537.59 840.92
  A 0.35 0.34 -3.7 0 0 537.98 841.26
  Q 564.99 837.40 574.27 835.41
  Q 589.89 832.07 600.88 829.05
  Q 647.33 816.27 690.96 788.21
  Q 735.74 759.43 768.38 721.63
  Q 782.72 705.03 784.60 702.60
  C 827.42 647.45 855.77 581.13 864.55 511.57
  Q 876.95 413.35 844.03 321.68
  C 818.11 249.49 770.53 188.36 706.93 146.32
  Q 696.61 139.50 673.54 126.17
  A 0.51 0.51 0.0 0 0 672.84 126.35
  L 672.82 126.37
  A 0.44 0.44 0.0 0 0 672.97 126.97
  Q 683.81 133.58 696.78 143.95
  Q 721.53 163.75 738.22 182.19
  C 755.48 201.27 769.77 219.65 782.33 241.44
  C 810.73 290.68 829.29 345.74 835.33 402.61
  Q 841.17 457.66 832.90 513.20
  Q 823.82 574.14 794.87 629.14
  Q 752.36 709.94 682.20 767.81
  C 660.57 785.66 637.38 800.86 613.03 813.50
  Q 576.94 832.24 537.67 840.55
  A 0.10 0.09 86.8 0 0 537.59 840.65
  L 537.59 840.92
  Z"
/>
<path fill="#fcea43" d="
  M 422.89 830.31
  Q 428.10 830.00 433.23 830.49
  Q 441.92 831.32 443.53 831.37
  Q 463.60 832.09 483.72 831.24
  C 498.30 830.63 513.40 827.75 527.99 825.04
  Q 544.73 821.93 563.43 815.65
  Q 598.50 803.89 632.55 782.31
  Q 650.67 770.83 664.87 759.60
  Q 670.37 755.25 677.99 748.88
  C 682.85 744.82 685.84 741.70 689.76 737.94
  A 8.27 7.60 4.9 0 1 691.03 736.96
  C 692.11 736.28 693.14 735.63 694.06 734.69
  Q 700.47 728.15 702.08 726.61
  Q 706.94 721.97 709.76 718.26
  C 712.39 714.81 717.03 711.31 719.86 706.97
  Q 720.94 705.32 722.89 703.64
  A 3.72 3.70 -3.2 0 0 723.52 702.94
  Q 726.82 698.14 730.81 693.84
  Q 732.05 692.50 732.42 691.89
  C 733.62 689.94 734.97 688.70 736.33 686.92
  Q 751.97 666.32 765.27 643.85
  Q 775.62 626.38 782.74 610.68
  Q 791.83 590.64 796.95 576.01
  Q 804.26 555.17 809.15 534.47
  Q 814.50 511.81 817.19 486.99
  Q 818.47 475.16 819.09 466.77
  Q 819.38 463.00 819.22 460.74
  C 818.87 455.40 819.37 451.03 819.40 445.59
  Q 819.44 437.26 819.20 421.51
  Q 819.06 411.91 815.45 386.02
  Q 812.98 368.32 807.44 346.86
  Q 802.31 326.96 795.29 308.73
  Q 779.72 268.29 756.79 233.26
  Q 751.80 225.64 744.58 216.20
  Q 740.70 211.12 731.42 199.98
  Q 729.51 197.69 728.19 196.04
  Q 725.98 193.30 724.72 192.01
  Q 705.56 172.40 700.94 168.33
  Q 689.15 157.94 681.50 152.33
  Q 661.21 137.44 638.25 125.31
  Q 606.71 108.66 576.07 101.66
  Q 557.62 97.45 542.71 95.53
  Q 540.90 95.30 528.32 93.97
  Q 521.58 93.26 513.89 93.05
  Q 463.35 91.65 414.09 104.93
  Q 409.16 106.26 406.43 107.22
  C 399.70 109.59 393.50 111.54 387.68 113.96
  Q 370.63 121.03 363.32 124.35
  Q 333.15 138.05 304.85 158.10
  Q 293.60 166.07 293.02 166.91
  A 1.64 1.64 0.0 0 1 292.40 167.45
  Q 290.61 168.35 289.88 169.13
  Q 288.77 170.33 282.64 175.24
  Q 279.01 178.16 275.45 181.37
  Q 264.21 191.54 250.71 205.45
  C 247.45 208.81 244.87 212.46 241.09 215.88
  A 4.22 4.14 86.1 0 0 240.44 216.64
  Q 238.77 219.18 237.25 220.74
  Q 235.44 222.61 233.54 225.02
  Q 225.87 234.77 222.46 239.35
  Q 218.94 244.09 217.00 247.07
  C 212.60 253.81 208.10 259.91 203.93 266.71
  Q 194.18 282.62 185.39 300.38
  C 175.95 319.45 168.01 338.65 161.60 359.79
  Q 152.23 390.75 147.13 427.38
  Q 144.49 446.35 144.07 462.93
  C 143.84 471.96 143.41 488.42 144.22 501.00
  Q 146.02 528.71 147.43 537.58
  Q 151.34 562.07 153.59 571.63
  C 167.71 631.92 196.03 687.95 237.62 733.72
  C 262.60 761.21 293.11 782.81 325.86 800.13
  Q 356.55 816.36 390.38 823.87
  Q 390.42 823.88 403.56 826.24
  Q 411.40 827.65 418.90 830.05
  Q 408.01 828.96 393.60 825.88
  C 366.63 820.10 343.31 811.11 320.21 798.45
  C 290.49 782.17 261.63 761.63 239.05 737.47
  C 221.65 718.86 205.81 697.24 192.37 673.71
  Q 149.44 598.57 143.51 510.75
  Q 143.20 506.15 142.42 488.08
  Q 141.90 475.89 142.42 465.40
  C 144.80 417.46 154.26 369.61 172.38 325.79
  C 202.16 253.78 252.01 190.21 318.07 147.81
  Q 340.05 133.69 363.14 123.17
  Q 374.31 118.09 388.05 112.57
  C 417.53 100.74 449.04 94.89 482.01 92.31
  Q 504.45 90.56 527.95 92.57
  C 561.42 95.43 594.58 103.11 624.67 117.10
  C 652.01 129.80 678.78 146.73 701.19 166.97
  C 781.35 239.37 824.05 347.29 820.78 454.49
  Q 820.29 470.63 817.72 492.99
  C 810.66 554.40 787.26 615.04 752.68 666.45
  Q 733.56 694.87 709.28 720.79
  Q 670.57 762.11 621.14 790.89
  Q 582.57 813.34 540.63 823.59
  C 520.22 828.58 498.29 831.87 477.25 832.78
  Q 456.91 833.66 431.26 831.64
  Q 425.68 831.21 422.89 830.31
  Z"
/>
<path fill="#f5c62e" d="
  M 422.89 830.31
  Q 420.91 831.18 418.90 830.05
  Q 411.40 827.65 403.56 826.24
  Q 390.42 823.88 390.38 823.87
  Q 356.55 816.36 325.86 800.13
  C 293.11 782.81 262.60 761.21 237.62 733.72
  C 196.03 687.95 167.71 631.92 153.59 571.63
  Q 151.34 562.07 147.43 537.58
  Q 146.02 528.71 144.22 501.00
  C 143.41 488.42 143.84 471.96 144.07 462.93
  Q 144.49 446.35 147.13 427.38
  Q 152.23 390.75 161.60 359.79
  C 168.01 338.65 175.95 319.45 185.39 300.38
  Q 194.18 282.62 203.93 266.71
  C 208.10 259.91 212.60 253.81 217.00 247.07
  Q 218.94 244.09 222.46 239.35
  Q 225.87 234.77 233.54 225.02
  Q 235.44 222.61 237.25 220.74
  Q 238.77 219.18 240.44 216.64
  A 4.22 4.14 86.1 0 1 241.09 215.88
  C 244.87 212.46 247.45 208.81 250.71 205.45
  Q 264.21 191.54 275.45 181.37
  Q 279.01 178.16 282.64 175.24
  Q 288.77 170.33 289.88 169.13
  Q 290.61 168.35 292.40 167.45
  A 1.64 1.64 0.0 0 0 293.02 166.91
  Q 293.60 166.07 304.85 158.10
  Q 333.15 138.05 363.32 124.35
  Q 370.63 121.03 387.68 113.96
  C 393.50 111.54 399.70 109.59 406.43 107.22
  Q 409.16 106.26 414.09 104.93
  Q 463.35 91.65 513.89 93.05
  Q 521.58 93.26 528.32 93.97
  Q 540.90 95.30 542.71 95.53
  Q 557.62 97.45 576.07 101.66
  Q 606.71 108.66 638.25 125.31
  Q 661.21 137.44 681.50 152.33
  Q 689.15 157.94 700.94 168.33
  Q 705.56 172.40 724.72 192.01
  Q 725.98 193.30 728.19 196.04
  Q 729.51 197.69 731.42 199.98
  Q 740.70 211.12 744.58 216.20
  Q 751.80 225.64 756.79 233.26
  Q 779.72 268.29 795.29 308.73
  Q 802.31 326.96 807.44 346.86
  Q 812.98 368.32 815.45 386.02
  Q 819.06 411.91 819.20 421.51
  Q 819.44 437.26 819.40 445.59
  C 819.37 451.03 818.87 455.40 819.22 460.74
  Q 819.38 463.00 819.09 466.77
  Q 818.47 475.16 817.19 486.99
  Q 814.50 511.81 809.15 534.47
  Q 804.26 555.17 796.95 576.01
  Q 791.83 590.64 782.74 610.68
  Q 775.62 626.38 765.27 643.85
  Q 751.97 666.32 736.33 686.92
  C 734.97 688.70 733.62 689.94 732.42 691.89
  Q 732.05 692.50 730.81 693.84
  Q 726.82 698.14 723.52 702.94
  A 3.72 3.70 -3.2 0 1 722.89 703.64
  Q 720.94 705.32 719.86 706.97
  C 717.03 711.31 712.39 714.81 709.76 718.26
  Q 706.94 721.97 702.08 726.61
  Q 700.47 728.15 694.06 734.69
  C 693.14 735.63 692.11 736.28 691.03 736.96
  A 8.27 7.60 4.9 0 0 689.76 737.94
  C 685.84 741.70 682.85 744.82 677.99 748.88
  Q 670.37 755.25 664.87 759.60
  Q 650.67 770.83 632.55 782.31
  Q 598.50 803.89 563.43 815.65
  Q 544.73 821.93 527.99 825.04
  C 513.40 827.75 498.30 830.63 483.72 831.24
  Q 463.60 832.09 443.53 831.37
  Q 441.92 831.32 433.23 830.49
  Q 428.10 830.00 422.89 830.31
  Z
  M 613.32 150.49
  C 580.20 134.95 543.43 126.52 506.38 124.15
  Q 490.32 123.12 474.80 124.15
  Q 463.84 124.88 443.45 127.97
  C 430.68 129.91 414.79 133.96 402.02 138.08
  Q 366.02 149.71 333.08 170.58
  Q 329.39 172.92 321.48 178.24
  Q 317.62 180.83 304.46 191.09
  C 299.34 195.09 294.53 199.68 290.64 202.83
  Q 285.65 206.89 280.64 211.99
  Q 269.41 223.40 265.54 227.04
  Q 263.64 228.83 262.48 230.33
  C 258.83 235.04 254.55 239.29 249.42 245.46
  C 248.63 246.40 248.37 247.41 247.44 248.28
  Q 246.53 249.13 245.86 250.01
  Q 231.10 269.24 223.78 280.76
  Q 214.54 295.29 204.76 314.39
  Q 196.56 330.40 190.10 347.89
  Q 182.93 367.29 179.10 382.83
  Q 178.43 385.50 175.53 397.49
  Q 170.61 417.82 168.33 444.27
  Q 168.01 448.00 167.47 453.81
  Q 167.07 458.08 166.58 470.42
  Q 166.29 477.66 166.66 487.06
  Q 168.09 522.81 175.23 556.44
  Q 177.49 567.06 180.14 576.07
  Q 184.25 590.01 186.13 595.42
  Q 191.95 612.14 200.61 630.65
  Q 209.55 649.77 227.05 675.58
  C 228.88 678.28 230.76 680.22 232.38 682.71
  C 234.74 686.31 236.96 688.52 239.79 692.46
  Q 241.30 694.56 243.09 696.42
  C 246.06 699.54 247.78 702.27 250.91 705.32
  Q 254.34 708.66 258.98 714.25
  C 262.15 718.07 266.34 720.50 269.94 724.35
  Q 270.52 724.97 278.63 732.13
  Q 282.89 735.90 289.09 740.78
  Q 291.78 742.90 299.96 748.79
  Q 341.92 778.96 391.93 790.99
  Q 407.42 794.72 426.77 797.51
  Q 436.44 798.91 447.20 799.28
  Q 464.71 799.88 467.72 799.78
  Q 472.43 799.63 486.69 798.69
  C 491.15 798.39 494.86 797.62 498.85 797.28
  Q 503.98 796.84 508.00 796.14
  C 540.58 790.50 571.36 780.95 599.65 765.88
  Q 620.75 754.64 639.57 741.32
  Q 650.54 733.55 667.09 719.24
  Q 672.75 714.36 675.60 711.44
  C 682.54 704.33 689.21 698.20 695.65 690.67
  Q 713.03 670.34 723.75 654.77
  Q 743.42 626.19 757.67 593.73
  Q 768.44 569.20 773.98 548.28
  Q 779.80 526.27 780.81 520.31
  Q 785.88 490.51 786.41 474.49
  Q 786.88 460.08 787.63 451.48
  Q 787.95 447.95 786.90 434.00
  C 786.50 428.68 787.07 423.48 786.44 419.01
  Q 785.83 414.68 785.67 412.01
  C 785.39 407.06 784.36 400.58 783.70 393.72
  Q 783.38 390.36 782.96 387.86
  Q 769.66 309.82 726.20 248.22
  C 719.86 239.23 713.39 231.43 705.98 222.40
  Q 702.70 218.40 699.90 215.67
  Q 698.53 214.33 693.75 208.98
  C 691.12 206.03 686.67 201.23 682.36 197.40
  Q 678.00 193.52 674.02 190.01
  Q 656.38 174.46 639.16 164.39
  Q 623.80 155.41 613.32 150.49
  Z"
/>
<path fill="#fcea43" d="
  M 613.32 150.49
  Q 623.80 155.41 639.16 164.39
  Q 656.38 174.46 674.02 190.01
  Q 678.00 193.52 682.36 197.40
  C 686.67 201.23 691.12 206.03 693.75 208.98
  Q 698.53 214.33 699.90 215.67
  Q 702.70 218.40 705.98 222.40
  C 713.39 231.43 719.86 239.23 726.20 248.22
  Q 769.66 309.82 782.96 387.86
  Q 783.38 390.36 783.70 393.72
  C 784.36 400.58 785.39 407.06 785.67 412.01
  Q 785.83 414.68 786.44 419.01
  C 787.07 423.48 786.50 428.68 786.90 434.00
  Q 787.95 447.95 787.63 451.48
  Q 786.88 460.08 786.41 474.49
  Q 785.88 490.51 780.81 520.31
  Q 779.80 526.27 773.98 548.28
  Q 768.44 569.20 757.67 593.73
  Q 743.42 626.19 723.75 654.77
  Q 713.03 670.34 695.65 690.67
  C 689.21 698.20 682.54 704.33 675.60 711.44
  Q 672.75 714.36 667.09 719.24
  Q 650.54 733.55 639.57 741.32
  Q 620.75 754.64 599.65 765.88
  C 571.36 780.95 540.58 790.50 508.00 796.14
  Q 503.98 796.84 498.85 797.28
  C 494.86 797.62 491.15 798.39 486.69 798.69
  Q 472.43 799.63 467.72 799.78
  Q 464.71 799.88 447.20 799.28
  Q 436.44 798.91 426.77 797.51
  Q 407.42 794.72 391.93 790.99
  Q 341.92 778.96 299.96 748.79
  Q 291.78 742.90 289.09 740.78
  Q 282.89 735.90 278.63 732.13
  Q 270.52 724.97 269.94 724.35
  C 266.34 720.50 262.15 718.07 258.98 714.25
  Q 254.34 708.66 250.91 705.32
  C 247.78 702.27 246.06 699.54 243.09 696.42
  Q 241.30 694.56 239.79 692.46
  C 236.96 688.52 234.74 686.31 232.38 682.71
  C 230.76 680.22 228.88 678.28 227.05 675.58
  Q 209.55 649.77 200.61 630.65
  Q 191.95 612.14 186.13 595.42
  Q 184.25 590.01 180.14 576.07
  Q 177.49 567.06 175.23 556.44
  Q 168.09 522.81 166.66 487.06
  Q 166.29 477.66 166.58 470.42
  Q 167.07 458.08 167.47 453.81
  Q 168.01 448.00 168.33 444.27
  Q 170.61 417.82 175.53 397.49
  Q 178.43 385.50 179.10 382.83
  Q 182.93 367.29 190.10 347.89
  Q 196.56 330.40 204.76 314.39
  Q 214.54 295.29 223.78 280.76
  Q 231.10 269.24 245.86 250.01
  Q 246.53 249.13 247.44 248.28
  C 248.37 247.41 248.63 246.40 249.42 245.46
  C 254.55 239.29 258.83 235.04 262.48 230.33
  Q 263.64 228.83 265.54 227.04
  Q 269.41 223.40 280.64 211.99
  Q 285.65 206.89 290.64 202.83
  C 294.53 199.68 299.34 195.09 304.46 191.09
  Q 317.62 180.83 321.48 178.24
  Q 329.39 172.92 333.08 170.58
  Q 366.02 149.71 402.02 138.08
  C 414.79 133.96 430.68 129.91 443.45 127.97
  Q 463.84 124.88 474.80 124.15
  Q 490.32 123.12 506.38 124.15
  C 543.43 126.52 580.20 134.95 613.32 150.49
  Z
  M 656.68 177.35
  Q 607.85 141.77 545.65 130.34
  C 516.68 125.01 489.91 123.40 462.11 126.64
  Q 444.84 128.66 433.51 131.06
  Q 370.12 144.51 317.44 182.94
  Q 265.42 220.88 228.16 276.65
  Q 180.75 347.60 170.61 433.51
  Q 162.50 502.20 179.21 568.06
  Q 197.07 638.42 243.57 694.95
  Q 258.41 712.99 280.10 731.66
  Q 336.65 780.32 408.72 793.32
  Q 436.21 798.27 460.24 798.41
  Q 509.41 798.67 556.34 783.04
  C 603.42 767.37 648.09 738.37 682.74 702.79
  C 743.84 640.04 782.48 555.53 785.62 467.50
  C 786.48 443.35 785.98 422.08 783.08 398.54
  C 775.59 337.86 750.87 279.39 712.39 232.03
  Q 699.51 216.19 687.26 204.03
  Q 670.60 187.49 656.68 177.35
  Z"
/>
<path fill="#000000" d="
  M 656.68 177.35
  Q 670.60 187.49 687.26 204.03
  Q 699.51 216.19 712.39 232.03
  C 750.87 279.39 775.59 337.86 783.08 398.54
  C 785.98 422.08 786.48 443.35 785.62 467.50
  C 782.48 555.53 743.84 640.04 682.74 702.79
  C 648.09 738.37 603.42 767.37 556.34 783.04
  Q 509.41 798.67 460.24 798.41
  Q 436.21 798.27 408.72 793.32
  Q 336.65 780.32 280.10 731.66
  Q 258.41 712.99 243.57 694.95
  Q 197.07 638.42 179.21 568.06
  Q 162.50 502.20 170.61 433.51
  Q 180.75 347.60 228.16 276.65
  Q 265.42 220.88 317.44 182.94
  Q 370.12 144.51 433.51 131.06
  Q 444.84 128.66 462.11 126.64
  C 489.91 123.40 516.68 125.01 545.65 130.34
  Q 607.85 141.77 656.68 177.35
  Z
  M 381.10 769.94
  Q 378.66 769.32 365.98 763.76
  Q 332.23 748.97 305.21 725.03
  C 263.96 688.50 234.58 639.57 218.86 586.88
  Q 205.75 542.94 204.18 502.55
  Q 200.81 415.43 236.84 335.51
  Q 267.43 267.66 318.75 218.62
  Q 343.04 195.41 368.39 179.62
  Q 395.74 162.59 425.07 151.77
  C 432.13 149.17 439.71 147.54 445.37 145.30
  A 0.29 0.28 76.1 0 0 445.54 145.01
  L 445.54 144.98
  A 0.40 0.39 -8.8 0 0 445.07 144.64
  Q 440.46 145.62 429.54 147.75
  Q 422.65 149.09 414.18 151.33
  Q 368.81 163.31 329.97 191.46
  Q 308.19 207.24 288.90 225.91
  C 245.77 267.66 213.22 320.92 196.85 378.86
  Q 172.70 464.35 189.84 551.69
  C 197.10 588.71 211.82 623.88 231.66 655.46
  Q 250.59 685.59 273.04 707.49
  C 301.60 735.35 337.04 757.40 375.75 768.97
  Q 380.65 770.43 381.09 770.35
  A 0.21 0.21 0.0 0 0 381.10 769.94
  Z
  M 318.82 234.33
  C 284.26 269.50 256.77 311.21 239.51 357.25
  Q 222.46 402.72 217.66 450.55
  Q 216.98 457.30 216.23 467.51
  Q 215.34 479.56 216.19 505.98
  Q 216.89 527.62 221.93 553.90
  Q 227.49 582.94 239.72 612.05
  Q 255.78 650.27 279.06 679.68
  Q 298.80 704.62 318.56 720.27
  C 333.16 731.83 348.05 742.29 364.79 750.70
  C 396.06 766.40 430.67 776.34 465.76 777.96
  Q 486.75 778.93 502.82 777.30
  Q 550.89 772.40 594.19 749.69
  C 619.26 736.55 643.89 718.42 665.11 697.36
  Q 676.19 686.38 680.45 681.69
  C 721.78 636.17 750.97 579.71 763.12 519.13
  Q 768.13 494.11 769.66 470.49
  Q 770.07 464.10 770.63 448.00
  Q 770.93 439.58 769.46 418.26
  Q 767.41 388.44 758.81 356.16
  C 746.04 308.20 720.74 263.57 687.35 227.16
  Q 673.47 212.03 653.59 196.89
  C 616.95 169.00 573.16 153.35 527.26 150.03
  Q 522.54 149.69 507.52 149.43
  Q 497.42 149.25 477.78 151.60
  Q 454.22 154.42 429.19 163.20
  C 399.56 173.59 371.32 188.88 346.85 208.71
  Q 332.86 220.04 318.82 234.33
  Z"
/>
<path fill="#f5c62e" d="
  M 537.59 840.92
  L 537.59 840.65
  A 0.10 0.09 86.8 0 1 537.67 840.55
  Q 576.94 832.24 613.03 813.50
  C 637.38 800.86 660.57 785.66 682.20 767.81
  Q 752.36 709.94 794.87 629.14
  Q 823.82 574.14 832.90 513.20
  Q 841.17 457.66 835.33 402.61
  C 829.29 345.74 810.73 290.68 782.33 241.44
  C 769.77 219.65 755.48 201.27 738.22 182.19
  Q 721.53 163.75 696.78 143.95
  Q 683.81 133.58 672.97 126.97
  A 0.44 0.44 0.0 0 1 672.82 126.37
  L 672.84 126.35
  A 0.51 0.51 0.0 0 1 673.54 126.17
  Q 696.61 139.50 706.93 146.32
  C 770.53 188.36 818.11 249.49 844.03 321.68
  Q 876.95 413.35 864.55 511.57
  C 855.77 581.13 827.42 647.45 784.60 702.60
  Q 782.72 705.03 768.38 721.63
  Q 735.74 759.43 690.96 788.21
  Q 647.33 816.27 600.88 829.05
  Q 589.89 832.07 574.27 835.41
  Q 564.99 837.40 537.98 841.26
  A 0.35 0.34 -3.7 0 1 537.59 840.92
  Z
  M 698.91 143.25
  A 0.29 0.29 0.0 0 0 698.62 142.96
  A 0.29 0.29 0.0 0 0 698.33 143.25
  A 0.29 0.29 0.0 0 0 698.62 143.54
  A 0.29 0.29 0.0 0 0 698.91 143.25
  Z
  M 700.64 145.25
  Q 700.63 145.26 700.66 145.38
  Q 700.67 145.48 700.77 145.56
  Q 708.12 152.09 712.81 155.93
  Q 717.13 159.48 731.47 173.52
  Q 735.83 177.79 750.07 194.16
  C 762.94 208.97 774.69 225.86 784.73 243.60
  Q 821.55 308.68 833.73 381.58
  Q 834.93 388.73 837.55 413.93
  C 838.04 418.64 837.85 423.16 838.34 427.73
  Q 838.86 432.47 838.91 438.05
  Q 839.05 453.89 839.05 457.75
  C 839.04 462.37 838.40 466.74 838.14 471.76
  Q 836.36 506.29 829.69 536.99
  C 822.26 571.16 809.86 603.97 792.90 635.21
  Q 757.12 701.13 701.00 752.80
  Q 670.00 781.33 633.94 802.95
  Q 597.75 824.66 562.92 835.22
  A 0.21 0.20 82.8 0 0 562.77 835.42
  L 562.77 835.68
  A 0.37 0.37 0.0 0 0 563.20 836.05
  Q 585.71 832.36 603.69 827.11
  Q 644.45 815.22 681.21 792.95
  Q 710.72 775.06 733.18 755.39
  Q 754.83 736.42 775.67 711.65
  Q 799.09 683.82 816.56 652.59
  Q 839.74 611.17 852.74 564.74
  Q 857.24 548.70 860.33 531.52
  C 864.13 510.39 866.23 488.63 866.82 468.00
  Q 867.19 455.01 866.33 437.24
  Q 866.23 435.05 866.15 433.76
  Q 864.36 403.36 857.74 372.96
  Q 845.38 316.14 817.32 266.26
  C 807.20 248.27 795.53 231.22 782.96 216.04
  Q 763.35 192.37 738.03 170.84
  Q 723.46 158.44 709.50 149.38
  Q 704.54 146.15 700.68 144.06
  Q 699.95 143.67 699.35 144.10
  A 0.43 0.43 0.0 0 0 699.49 144.86
  L 700.56 145.15
  A 0.10 0.09 10.2 0 1 700.64 145.25
  Z"
/>
<circle fill="#9e7e0f" cx="698.62" cy="143.25" r="0.29"/>
<path fill="#9e7e0f" d="
  M 700.56 145.15
  L 699.49 144.86
  A 0.43 0.43 0.0 0 1 699.35 144.10
  Q 699.95 143.67 700.68 144.06
  Q 704.54 146.15 709.50 149.38
  Q 723.46 158.44 738.03 170.84
  Q 763.35 192.37 782.96 216.04
  C 795.53 231.22 807.20 248.27 817.32 266.26
  Q 845.38 316.14 857.74 372.96
  Q 864.36 403.36 866.15 433.76
  Q 866.23 435.05 866.33 437.24
  Q 867.19 455.01 866.82 468.00
  C 866.23 488.63 864.13 510.39 860.33 531.52
  Q 857.24 548.70 852.74 564.74
  Q 839.74 611.17 816.56 652.59
  Q 799.09 683.82 775.67 711.65
  Q 754.83 736.42 733.18 755.39
  Q 710.72 775.06 681.21 792.95
  Q 644.45 815.22 603.69 827.11
  Q 585.71 832.36 563.20 836.05
  A 0.37 0.37 0.0 0 1 562.77 835.68
  L 562.77 835.42
  A 0.21 0.20 82.8 0 1 562.92 835.22
  Q 597.75 824.66 633.94 802.95
  Q 670.00 781.33 701.00 752.80
  Q 757.12 701.13 792.90 635.21
  C 809.86 603.97 822.26 571.16 829.69 536.99
  Q 836.36 506.29 838.14 471.76
  C 838.40 466.74 839.04 462.37 839.05 457.75
  Q 839.05 453.89 838.91 438.05
  Q 838.86 432.47 838.34 427.73
  C 837.85 423.16 838.04 418.64 837.55 413.93
  Q 834.93 388.73 833.73 381.58
  Q 821.55 308.68 784.73 243.60
  C 774.69 225.86 762.94 208.97 750.07 194.16
  Q 735.83 177.79 731.47 173.52
  Q 717.13 159.48 712.81 155.93
  Q 708.12 152.09 700.77 145.56
  Q 700.67 145.48 700.66 145.38
  Q 700.63 145.26 700.64 145.25
  A 0.10 0.09 10.2 0 0 700.56 145.15
  Z"
/>
<path fill="#f5c62e" d="
  M 381.09 770.35
  Q 380.65 770.43 375.75 768.97
  C 337.04 757.40 301.60 735.35 273.04 707.49
  Q 250.59 685.59 231.66 655.46
  C 211.82 623.88 197.10 588.71 189.84 551.69
  Q 172.70 464.35 196.85 378.86
  C 213.22 320.92 245.77 267.66 288.90 225.91
  Q 308.19 207.24 329.97 191.46
  Q 368.81 163.31 414.18 151.33
  Q 422.65 149.09 429.54 147.75
  Q 440.46 145.62 445.07 144.64
  A 0.40 0.39 -8.8 0 1 445.54 144.98
  L 445.54 145.01
  A 0.29 0.28 76.1 0 1 445.37 145.30
  C 439.71 147.54 432.13 149.17 425.07 151.77
  Q 395.74 162.59 368.39 179.62
  Q 343.04 195.41 318.75 218.62
  Q 267.43 267.66 236.84 335.51
  Q 200.81 415.43 204.18 502.55
  Q 205.75 542.94 218.86 586.88
  C 234.58 639.57 263.96 688.50 305.21 725.03
  Q 332.23 748.97 365.98 763.76
  Q 378.66 769.32 381.10 769.94
  A 0.21 0.21 0.0 0 1 381.09 770.35
  Z
  M 353.01 758.93
  Q 350.97 757.76 345.29 755.01
  Q 342.83 753.82 337.88 750.59
  Q 323.45 741.17 314.29 733.96
  Q 292.45 716.76 274.13 694.13
  Q 239.10 650.87 221.11 597.41
  Q 208.45 559.77 204.38 520.36
  Q 202.94 506.43 202.85 494.10
  Q 202.72 477.67 203.22 467.75
  Q 204.73 437.70 211.78 406.98
  Q 226.25 343.92 260.17 289.64
  Q 268.35 276.56 271.16 272.65
  Q 287.33 250.15 303.09 233.06
  C 327.12 207.00 354.89 184.76 386.67 167.92
  Q 400.67 160.50 414.25 154.60
  Q 417.49 153.19 421.09 152.01
  Q 425.64 150.51 428.06 149.70
  A 0.18 0.18 0.0 0 0 427.98 149.35
  Q 423.06 149.95 415.66 152.38
  Q 415.12 152.55 413.79 152.86
  Q 400.70 155.87 386.09 161.59
  C 361.40 171.26 338.15 185.44 317.40 202.17
  Q 302.55 214.13 291.21 224.97
  Q 268.00 247.16 249.21 273.45
  Q 206.99 332.55 192.04 402.75
  Q 174.79 483.72 193.49 562.85
  Q 197.18 578.49 200.31 587.43
  Q 220.23 644.43 256.57 688.24
  Q 284.52 721.95 324.60 745.55
  Q 330.21 748.86 338.50 752.78
  Q 340.71 753.82 352.65 759.62
  A 0.18 0.17 -56.7 0 0 352.86 759.57
  L 353.08 759.27
  A 0.23 0.23 0.0 0 0 353.01 758.93
  Z"
/>
<path fill="#9e7e0f" d="
  M 353.01 758.93
  A 0.23 0.23 0.0 0 1 353.08 759.27
  L 352.86 759.57
  A 0.18 0.17 -56.7 0 1 352.65 759.62
  Q 340.71 753.82 338.50 752.78
  Q 330.21 748.86 324.60 745.55
  Q 284.52 721.95 256.57 688.24
  Q 220.23 644.43 200.31 587.43
  Q 197.18 578.49 193.49 562.85
  Q 174.79 483.72 192.04 402.75
  Q 206.99 332.55 249.21 273.45
  Q 268.00 247.16 291.21 224.97
  Q 302.55 214.13 317.40 202.17
  C 338.15 185.44 361.40 171.26 386.09 161.59
  Q 400.70 155.87 413.79 152.86
  Q 415.12 152.55 415.66 152.38
  Q 423.06 149.95 427.98 149.35
  A 0.18 0.18 0.0 0 1 428.06 149.70
  Q 425.64 150.51 421.09 152.01
  Q 417.49 153.19 414.25 154.60
  Q 400.67 160.50 386.67 167.92
  C 354.89 184.76 327.12 207.00 303.09 233.06
  Q 287.33 250.15 271.16 272.65
  Q 268.35 276.56 260.17 289.64
  Q 226.25 343.92 211.78 406.98
  Q 204.73 437.70 203.22 467.75
  Q 202.72 477.67 202.85 494.10
  Q 202.94 506.43 204.38 520.36
  Q 208.45 559.77 221.11 597.41
  Q 239.10 650.87 274.13 694.13
  Q 292.45 716.76 314.29 733.96
  Q 323.45 741.17 337.88 750.59
  Q 342.83 753.82 345.29 755.01
  Q 350.97 757.76 353.01 758.93
  Z"
/>
<path fill="#fcea43" d="
  M 318.82 234.33
  Q 332.86 220.04 346.85 208.71
  C 371.32 188.88 399.56 173.59 429.19 163.20
  Q 454.22 154.42 477.78 151.60
  Q 497.42 149.25 507.52 149.43
  Q 522.54 149.69 527.26 150.03
  C 573.16 153.35 616.95 169.00 653.59 196.89
  Q 673.47 212.03 687.35 227.16
  C 720.74 263.57 746.04 308.20 758.81 356.16
  Q 767.41 388.44 769.46 418.26
  Q 770.93 439.58 770.63 448.00
  Q 770.07 464.10 769.66 470.49
  Q 768.13 494.11 763.12 519.13
  C 750.97 579.71 721.78 636.17 680.45 681.69
  Q 676.19 686.38 665.11 697.36
  C 643.89 718.42 619.26 736.55 594.19 749.69
  Q 550.89 772.40 502.82 777.30
  Q 486.75 778.93 465.76 777.96
  C 430.67 776.34 396.06 766.40 364.79 750.70
  C 348.05 742.29 333.16 731.83 318.56 720.27
  Q 298.80 704.62 279.06 679.68
  Q 255.78 650.27 239.72 612.05
  Q 227.49 582.94 221.93 553.90
  Q 216.89 527.62 216.19 505.98
  Q 215.34 479.56 216.23 467.51
  Q 216.98 457.30 217.66 450.55
  Q 222.46 402.72 239.51 357.25
  C 256.77 311.21 284.26 269.50 318.82 234.33
  Z
  M 333.04 729.68
  C 341.91 736.16 351.85 742.60 359.25 746.52
  Q 400.08 768.20 445.30 774.89
  C 452.06 775.89 458.42 776.04 463.92 776.59
  Q 470.77 777.27 477.92 777.29
  Q 497.18 777.34 513.96 774.73
  Q 565.36 766.74 609.24 739.46
  Q 625.76 729.19 637.73 719.69
  Q 640.35 717.61 642.27 715.95
  C 645.30 713.33 648.18 711.71 650.68 708.89
  C 651.69 707.74 653.48 706.47 655.00 705.42
  Q 655.87 704.83 658.05 702.61
  Q 669.25 691.24 679.09 681.62
  A 5.68 5.57 84.7 0 0 679.96 680.55
  C 681.90 677.43 685.59 674.45 686.93 672.09
  C 688.07 670.09 690.42 668.32 692.17 666.12
  Q 705.33 649.59 718.21 628.98
  Q 723.41 620.66 727.89 612.41
  Q 748.25 574.92 758.43 534.46
  Q 761.47 522.38 762.81 513.91
  Q 763.53 509.35 763.63 508.96
  Q 764.54 505.60 766.88 488.27
  C 767.20 485.91 766.99 483.81 767.41 481.67
  Q 767.66 480.37 767.97 476.75
  C 771.31 438.02 768.42 398.13 758.64 360.20
  Q 751.44 332.27 739.80 307.67
  Q 722.14 270.35 695.87 238.67
  C 693.36 235.64 690.90 233.37 688.78 230.64
  C 685.52 226.45 680.48 221.68 677.49 218.71
  C 674.72 215.96 671.86 213.95 669.36 211.40
  Q 666.75 208.75 662.93 205.73
  Q 645.04 191.63 632.93 184.34
  Q 614.93 173.49 597.59 166.92
  Q 547.85 148.07 492.77 151.28
  C 488.44 151.53 482.88 152.33 478.09 152.77
  Q 472.23 153.31 467.14 154.28
  Q 447.16 158.08 433.00 163.05
  Q 418.67 168.07 410.40 171.67
  Q 389.06 180.97 368.99 193.98
  Q 353.86 203.79 339.86 215.86
  Q 337.12 218.23 337.05 218.29
  Q 331.52 223.25 318.03 236.77
  Q 308.48 246.35 300.17 256.36
  Q 262.89 301.26 242.31 353.29
  Q 222.38 403.67 217.85 461.25
  C 217.66 463.61 218.05 466.94 217.78 469.92
  Q 216.19 487.50 217.24 501.69
  Q 217.62 506.90 217.63 509.57
  Q 217.63 512.85 218.07 517.44
  Q 219.92 536.89 223.11 553.93
  C 228.17 581.00 238.01 607.90 250.59 632.70
  Q 264.92 660.91 286.03 686.20
  Q 292.73 694.22 295.68 697.31
  Q 303.96 705.98 313.95 714.82
  Q 319.83 720.01 333.04 729.68
  Z"
/>
<path fill="#f5c62e" d="
  M 333.04 729.68
  Q 319.83 720.01 313.95 714.82
  Q 303.96 705.98 295.68 697.31
  Q 292.73 694.22 286.03 686.20
  Q 264.92 660.91 250.59 632.70
  C 238.01 607.90 228.17 581.00 223.11 553.93
  Q 219.92 536.89 218.07 517.44
  Q 217.63 512.85 217.63 509.57
  Q 217.62 506.90 217.24 501.69
  Q 216.19 487.50 217.78 469.92
  C 218.05 466.94 217.66 463.61 217.85 461.25
  Q 222.38 403.67 242.31 353.29
  Q 262.89 301.26 300.17 256.36
  Q 308.48 246.35 318.03 236.77
  Q 331.52 223.25 337.05 218.29
  Q 337.12 218.23 339.86 215.86
  Q 353.86 203.79 368.99 193.98
  Q 389.06 180.97 410.40 171.67
  Q 418.67 168.07 433.00 163.05
  Q 447.16 158.08 467.14 154.28
  Q 472.23 153.31 478.09 152.77
  C 482.88 152.33 488.44 151.53 492.77 151.28
  Q 547.85 148.07 597.59 166.92
  Q 614.93 173.49 632.93 184.34
  Q 645.04 191.63 662.93 205.73
  Q 666.75 208.75 669.36 211.40
  C 671.86 213.95 674.72 215.96 677.49 218.71
  C 680.48 221.68 685.52 226.45 688.78 230.64
  C 690.90 233.37 693.36 235.64 695.87 238.67
  Q 722.14 270.35 739.80 307.67
  Q 751.44 332.27 758.64 360.20
  C 768.42 398.13 771.31 438.02 767.97 476.75
  Q 767.66 480.37 767.41 481.67
  C 766.99 483.81 767.20 485.91 766.88 488.27
  Q 764.54 505.60 763.63 508.96
  Q 763.53 509.35 762.81 513.91
  Q 761.47 522.38 758.43 534.46
  Q 748.25 574.92 727.89 612.41
  Q 723.41 620.66 718.21 628.98
  Q 705.33 649.59 692.17 666.12
  C 690.42 668.32 688.07 670.09 686.93 672.09
  C 685.59 674.45 681.90 677.43 679.96 680.55
  A 5.68 5.57 84.7 0 1 679.09 681.62
  Q 669.25 691.24 658.05 702.61
  Q 655.87 704.83 655.00 705.42
  C 653.48 706.47 651.69 707.74 650.68 708.89
  C 648.18 711.71 645.30 713.33 642.27 715.95
  Q 640.35 717.61 637.73 719.69
  Q 625.76 729.19 609.24 739.46
  Q 565.36 766.74 513.96 774.73
  Q 497.18 777.34 477.92 777.29
  Q 470.77 777.27 463.92 776.59
  C 458.42 776.04 452.06 775.89 445.30 774.89
  Q 400.08 768.20 359.25 746.52
  C 351.85 742.60 341.91 736.16 333.04 729.68
  Z
  M 477.13 301.74
  Q 460.09 304.20 455.65 305.39
  Q 416.53 315.88 387.18 343.05
  Q 384.09 345.91 382.57 347.65
  C 378.82 351.95 375.38 355.05 371.61 359.80
  Q 339.06 400.83 335.31 451.06
  Q 332.02 495.02 349.44 534.33
  Q 359.79 557.68 375.83 574.71
  C 400.32 600.71 434.36 618.25 469.52 621.96
  C 502.66 625.46 535.86 618.10 563.65 600.65
  Q 581.89 589.20 593.98 576.96
  Q 614.08 556.63 626.90 531.03
  Q 639.56 505.74 642.91 476.91
  C 649.24 422.42 631.99 360.25 584.03 328.18
  C 558.74 311.28 528.02 301.02 497.19 300.92
  Q 483.16 300.87 477.13 301.74
  Z"
/>
<path fill="#fcea43" d="
  M 477.13 301.74
  Q 483.16 300.87 497.19 300.92
  C 528.02 301.02 558.74 311.28 584.03 328.18
  C 631.99 360.25 649.24 422.42 642.91 476.91
  Q 639.56 505.74 626.90 531.03
  Q 614.08 556.63 593.98 576.96
  Q 581.89 589.20 563.65 600.65
  C 535.86 618.10 502.66 625.46 469.52 621.96
  C 434.36 618.25 400.32 600.71 375.83 574.71
  Q 359.79 557.68 349.44 534.33
  Q 332.02 495.02 335.31 451.06
  Q 339.06 400.83 371.61 359.80
  C 375.38 355.05 378.82 351.95 382.57 347.65
  Q 384.09 345.91 387.18 343.05
  Q 416.53 315.88 455.65 305.39
  Q 460.09 304.20 477.13 301.74
  Z
  M 477.28 303.02
  Q 460.38 305.46 455.97 306.64
  Q 417.16 317.05 388.04 344.01
  Q 384.97 346.85 383.46 348.57
  C 379.74 352.84 376.33 355.92 372.59 360.63
  Q 340.30 401.34 336.58 451.18
  Q 333.31 494.79 350.60 533.80
  Q 360.87 556.96 376.78 573.86
  C 401.08 599.66 434.86 617.06 469.74 620.74
  C 502.62 624.21 535.56 616.91 563.14 599.59
  Q 581.23 588.23 593.23 576.09
  Q 613.17 555.92 625.89 530.52
  Q 638.45 505.42 641.77 476.82
  C 648.05 422.75 630.94 361.07 583.35 329.25
  C 558.26 312.48 527.78 302.31 497.19 302.21
  Q 483.27 302.16 477.28 303.02
  Z"
/>
<path fill="#000000" d="
  M 477.28 303.02
  Q 483.27 302.16 497.19 302.21
  C 527.78 302.31 558.26 312.48 583.35 329.25
  C 630.94 361.07 648.05 422.75 641.77 476.82
  Q 638.45 505.42 625.89 530.52
  Q 613.17 555.92 593.23 576.09
  Q 581.23 588.23 563.14 599.59
  C 535.56 616.91 502.62 624.21 469.74 620.74
  C 434.86 617.06 401.08 599.66 376.78 573.86
  Q 360.87 556.96 350.60 533.80
  Q 333.31 494.79 336.58 451.18
  Q 340.30 401.34 372.59 360.63
  C 376.33 355.92 379.74 352.84 383.46 348.57
  Q 384.97 346.85 388.04 344.01
  Q 417.16 317.05 455.97 306.64
  Q 460.38 305.46 477.28 303.02
  Z
  M 487.48 321.10
  Q 481.59 320.31 476.48 321.96
  Q 472.34 321.62 465.34 323.14
  Q 422.68 332.38 393.88 362.82
  C 370.05 388.02 354.73 420.88 353.18 455.75
  Q 352.66 467.46 352.90 473.77
  Q 354.57 516.81 379.32 551.56
  C 397.78 577.48 427.97 594.42 459.48 597.01
  Q 510.57 601.23 549.09 568.03
  C 581.11 540.43 599.80 499.55 602.67 457.67
  Q 604.73 427.46 596.74 402.47
  C 587.65 374.05 567.81 348.39 541.39 334.18
  Q 523.30 324.44 502.50 321.54
  Q 495.23 320.52 487.48 321.10
  Z
  M 501.54 606.36
  Q 503.19 606.39 505.75 605.95
  C 527.47 602.15 546.48 594.87 564.51 582.24
  Q 599.24 557.91 616.31 519.34
  C 628.20 492.48 633.26 461.92 628.86 432.70
  Q 627.33 422.56 626.03 417.44
  Q 614.13 370.70 575.21 342.13
  A 0.07 0.07 0.0 0 0 575.11 342.24
  C 578.15 345.68 582.09 349.54 585.27 353.66
  Q 607.30 382.18 612.46 419.29
  Q 619.45 469.59 600.64 515.19
  C 585.44 552.06 557.17 583.31 520.19 599.67
  Q 511.04 603.72 501.50 606.02
  A 0.17 0.17 0.0 0 0 501.54 606.36
  Z"
/>
<path fill="#fcea43" d="
  M 476.48 321.96
  Q 455.49 326.09 443.77 330.52
  Q 434.76 333.92 427.39 338.11
  Q 420.94 341.78 411.97 348.11
  C 406.40 352.05 399.16 358.84 395.26 362.96
  Q 353.94 406.77 353.76 468.22
  C 353.75 472.64 354.55 476.24 354.62 480.69
  Q 354.70 485.04 355.48 489.99
  Q 361.27 526.83 384.40 556.14
  Q 390.33 563.64 397.71 569.81
  Q 405.11 575.99 413.32 580.91
  C 426.46 588.76 438.91 592.79 452.81 594.96
  Q 460.33 596.13 470.07 596.18
  Q 479.91 596.22 487.35 595.15
  Q 520.24 590.42 546.24 568.56
  A 3.85 3.79 -77.5 0 1 546.95 568.10
  Q 547.96 567.62 548.29 567.29
  Q 549.68 565.87 558.98 556.74
  Q 563.85 551.95 567.80 546.61
  Q 574.57 537.44 575.69 535.71
  Q 582.54 525.20 588.40 511.71
  Q 593.95 498.93 598.15 480.78
  Q 605.72 448.15 598.59 414.29
  Q 593.64 390.76 580.67 372.12
  Q 574.32 363.01 572.07 360.59
  Q 561.66 349.46 555.29 344.56
  Q 535.85 329.62 509.81 324.16
  Q 505.00 323.16 497.92 322.29
  Q 496.12 322.07 492.63 322.04
  Q 489.87 322.01 487.48 321.10
  Q 495.23 320.52 502.50 321.54
  Q 523.30 324.44 541.39 334.18
  C 567.81 348.39 587.65 374.05 596.74 402.47
  Q 604.73 427.46 602.67 457.67
  C 599.80 499.55 581.11 540.43 549.09 568.03
  Q 510.57 601.23 459.48 597.01
  C 427.97 594.42 397.78 577.48 379.32 551.56
  Q 354.57 516.81 352.90 473.77
  Q 352.66 467.46 353.18 455.75
  C 354.73 420.88 370.05 388.02 393.88 362.82
  Q 422.68 332.38 465.34 323.14
  Q 472.34 321.62 476.48 321.96
  Z"
/>
<path fill="#f5c62e" d="
  M 487.48 321.10
  Q 489.87 322.01 492.63 322.04
  Q 496.12 322.07 497.92 322.29
  Q 505.00 323.16 509.81 324.16
  Q 535.85 329.62 555.29 344.56
  Q 561.66 349.46 572.07 360.59
  Q 574.32 363.01 580.67 372.12
  Q 593.64 390.76 598.59 414.29
  Q 605.72 448.15 598.15 480.78
  Q 593.95 498.93 588.40 511.71
  Q 582.54 525.20 575.69 535.71
  Q 574.57 537.44 567.80 546.61
  Q 563.85 551.95 558.98 556.74
  Q 549.68 565.87 548.29 567.29
  Q 547.96 567.62 546.95 568.10
  A 3.85 3.79 -77.5 0 0 546.24 568.56
  Q 520.24 590.42 487.35 595.15
  Q 479.91 596.22 470.07 596.18
  Q 460.33 596.13 452.81 594.96
  C 438.91 592.79 426.46 588.76 413.32 580.91
  Q 405.11 575.99 397.71 569.81
  Q 390.33 563.64 384.40 556.14
  Q 361.27 526.83 355.48 489.99
  Q 354.70 485.04 354.62 480.69
  C 354.55 476.24 353.75 472.64 353.76 468.22
  Q 353.94 406.77 395.26 362.96
  C 399.16 358.84 406.40 352.05 411.97 348.11
  Q 420.94 341.78 427.39 338.11
  Q 434.76 333.92 443.77 330.52
  Q 455.49 326.09 476.48 321.96
  Q 481.59 320.31 487.48 321.10
  Z
  M 415.21 396.31
  C 399.84 416.03 390.69 440.55 391.42 465.39
  C 392.30 494.90 404.42 520.61 427.71 538.76
  Q 439.06 547.61 453.50 550.93
  C 480.40 557.12 506.53 549.07 526.07 530.13
  Q 554.69 502.39 559.63 462.50
  C 562.72 437.47 556.11 407.38 538.20 388.92
  C 521.91 372.13 499.42 361.47 476.22 362.70
  C 451.88 363.99 430.44 376.78 415.21 396.31
  Z"
/>
<path fill="#f5c62e" d="
  M 501.54 606.36
  A 0.17 0.17 0.0 0 1 501.50 606.02
  Q 511.04 603.72 520.19 599.67
  C 557.17 583.31 585.44 552.06 600.64 515.19
  Q 619.45 469.59 612.46 419.29
  Q 607.30 382.18 585.27 353.66
  C 582.09 349.54 578.15 345.68 575.11 342.24
  A 0.07 0.07 0.0 0 1 575.21 342.13
  Q 614.13 370.70 626.03 417.44
  Q 627.33 422.56 628.86 432.70
  C 633.26 461.92 628.20 492.48 616.31 519.34
  Q 599.24 557.91 564.51 582.24
  C 546.48 594.87 527.47 602.15 505.75 605.95
  Q 503.19 606.39 501.54 606.36
  Z
  M 520.06 601.41
  C 527.35 599.11 532.48 598.06 539.01 595.28
  Q 551.19 590.10 563.30 581.79
  Q 597.55 558.28 614.77 520.27
  Q 626.61 494.15 628.80 465.25
  Q 628.91 463.75 629.07 449.14
  Q 629.15 441.82 628.19 435.41
  Q 626.66 425.15 625.94 421.82
  Q 619.15 390.37 599.13 365.89
  C 595.32 361.23 590.27 356.98 586.90 353.04
  A 0.26 0.25 61.0 0 0 586.63 352.96
  Q 586.33 353.06 586.38 353.26
  A 2.08 2.00 -72.4 0 0 586.84 354.19
  L 589.74 357.55
  A 1.15 0.96 -85.0 0 1 589.88 357.75
  Q 591.51 360.65 593.22 363.24
  C 605.59 382.03 612.47 404.91 614.48 427.25
  Q 615.74 441.24 615.69 445.74
  C 615.19 484.61 603.56 522.70 579.65 553.64
  C 576.73 557.42 572.95 561.41 569.87 564.88
  Q 558.39 577.84 542.19 588.93
  C 537.90 591.86 533.29 594.21 529.28 596.75
  Q 527.74 597.73 519.83 600.99
  A 0.19 0.19 0.0 0 0 519.72 601.23
  L 519.72 601.24
  A 0.28 0.27 71.2 0 0 520.06 601.41
  Z"
/>
<path fill="#9e7e0f" d="
  M 520.06 601.41
  A 0.28 0.27 71.2 0 1 519.72 601.24
  L 519.72 601.23
  A 0.19 0.19 0.0 0 1 519.83 600.99
  Q 527.74 597.73 529.28 596.75
  C 533.29 594.21 537.90 591.86 542.19 588.93
  Q 558.39 577.84 569.87 564.88
  C 572.95 561.41 576.73 557.42 579.65 553.64
  C 603.56 522.70 615.19 484.61 615.69 445.74
  Q 615.74 441.24 614.48 427.25
  C 612.47 404.91 605.59 382.03 593.22 363.24
  Q 591.51 360.65 589.88 357.75
  A 1.15 0.96 -85.0 0 0 589.74 357.55
  L 586.84 354.19
  A 2.08 2.00 -72.4 0 1 586.38 353.26
  Q 586.33 353.06 586.63 352.96
  A 0.26 0.25 61.0 0 1 586.90 353.04
  C 590.27 356.98 595.32 361.23 599.13 365.89
  Q 619.15 390.37 625.94 421.82
  Q 626.66 425.15 628.19 435.41
  Q 629.15 441.82 629.07 449.14
  Q 628.91 463.75 628.80 465.25
  Q 626.61 494.15 614.77 520.27
  Q 597.55 558.28 563.30 581.79
  Q 551.19 590.10 539.01 595.28
  C 532.48 598.06 527.35 599.11 520.06 601.41
  Z"
/>
<path fill="#fcea43" d="
  M 415.21 396.31
  C 430.44 376.78 451.88 363.99 476.22 362.70
  C 499.42 361.47 521.91 372.13 538.20 388.92
  C 556.11 407.38 562.72 437.47 559.63 462.50
  Q 554.69 502.39 526.07 530.13
  C 506.53 549.07 480.40 557.12 453.50 550.93
  Q 439.06 547.61 427.71 538.76
  C 404.42 520.61 392.30 494.90 391.42 465.39
  C 390.69 440.55 399.84 416.03 415.21 396.31
  Z
  M 416.23 397.07
  C 401.03 416.49 391.96 440.66 392.63 465.16
  C 393.44 494.27 405.34 519.65 428.27 537.60
  Q 439.45 546.35 453.69 549.66
  C 480.21 555.82 506.00 547.93 525.31 529.29
  Q 553.59 501.99 558.55 462.65
  C 561.65 437.97 555.19 408.27 537.56 390.03
  C 521.53 373.44 499.37 362.88 476.48 364.04
  C 452.47 365.26 431.30 377.84 416.23 397.07
  Z"
/>
<path fill="#000000" d="
  M 416.23 397.07
  C 431.30 377.84 452.47 365.26 476.48 364.04
  C 499.37 362.88 521.53 373.44 537.56 390.03
  C 555.19 408.27 561.65 437.97 558.55 462.65
  Q 553.59 501.99 525.31 529.29
  C 506.00 547.93 480.21 555.82 453.69 549.66
  Q 439.45 546.35 428.27 537.60
  C 405.34 519.65 393.44 494.27 392.63 465.16
  C 391.96 440.66 401.03 416.49 416.23 397.07
  Z
  M 465.17 536.19
  Q 452.27 527.33 444.62 511.85
  Q 430.85 483.96 435.42 452.87
  C 438.26 433.54 448.30 416.53 461.25 402.23
  Q 472.40 389.92 486.96 382.72
  Q 488.54 381.93 490.55 381.60
  A 0.33 0.33 0.0 0 0 490.55 380.94
  C 466.90 377.02 446.29 385.26 430.75 403.00
  Q 410.31 426.35 408.17 456.71
  C 406.45 481.18 415.39 508.56 435.16 524.08
  Q 447.75 533.95 465.04 536.53
  A 0.19 0.19 0.0 0 0 465.17 536.19
  Z
  M 539.14 423.16
  Q 538.19 420.07 536.62 416.89
  Q 531.79 407.17 524.06 401.69
  Q 518.25 397.57 512.03 396.47
  Q 505.58 395.33 498.97 397.52
  Q 484.00 402.46 472.77 414.79
  C 459.50 429.36 451.45 446.25 450.87 466.06
  C 450.54 477.14 453.16 487.77 456.92 498.04
  C 460.89 508.89 470.19 522.43 481.30 526.74
  Q 491.34 530.63 502.81 525.28
  Q 507.79 522.96 511.17 520.09
  Q 539.42 496.15 543.39 459.77
  Q 544.36 450.79 543.13 441.22
  Q 542.03 432.62 539.14 423.16
  Z"
/>
<path fill="#f5c62e" d="
  M 465.04 536.53
  Q 447.75 533.95 435.16 524.08
  C 415.39 508.56 406.45 481.18 408.17 456.71
  Q 410.31 426.35 430.75 403.00
  C 446.29 385.26 466.90 377.02 490.55 380.94
  A 0.33 0.33 0.0 0 1 490.55 381.60
  Q 488.54 381.93 486.96 382.72
  Q 472.40 389.92 461.25 402.23
  C 448.30 416.53 438.26 433.54 435.42 452.87
  Q 430.85 483.96 444.62 511.85
  Q 452.27 527.33 465.17 536.19
  A 0.19 0.19 0.0 0 1 465.04 536.53
  Z
  M 459.68 533.05
  Q 459.68 533.04 458.71 532.55
  A 3.41 3.35 -5.7 0 1 457.59 531.65
  C 455.54 529.12 451.50 525.42 449.19 521.87
  C 434.47 499.21 429.69 471.74 435.69 445.54
  C 439.38 429.42 449.27 413.88 460.28 401.78
  Q 471.27 389.70 485.99 382.12
  A 0.32 0.32 0.0 0 0 485.99 381.56
  L 485.33 381.22
  A 0.44 0.38 -22.5 0 0 485.15 381.16
  Q 456.70 379.34 437.47 397.52
  Q 421.23 412.89 414.12 433.28
  C 404.82 459.97 408.27 491.21 426.04 513.74
  Q 438.32 529.30 458.81 534.16
  A 0.78 0.77 -7.0 0 0 459.68 533.05
  Z"
/>
<path fill="#9e7e0f" d="
  M 459.68 533.05
  A 0.78 0.77 -7.0 0 1 458.81 534.16
  Q 438.32 529.30 426.04 513.74
  C 408.27 491.21 404.82 459.97 414.12 433.28
  Q 421.23 412.89 437.47 397.52
  Q 456.70 379.34 485.15 381.16
  A 0.44 0.38 -22.5 0 1 485.33 381.22
  L 485.99 381.56
  A 0.32 0.32 0.0 0 1 485.99 382.12
  Q 471.27 389.70 460.28 401.78
  C 449.27 413.88 439.38 429.42 435.69 445.54
  C 429.69 471.74 434.47 499.21 449.19 521.87
  C 451.50 525.42 455.54 529.12 457.59 531.65
  A 3.41 3.35 -5.7 0 0 458.71 532.55
  Q 459.68 533.04 459.68 533.05
  Z"
/>
</svg>
