<svg xmlns="http://www.w3.org/2000/svg" viewBox="0 0 1024 1024"><g fill="none" stroke="#6a6b6e" stroke-width="2"><path d="m685.92 417.66-408.99.06a.81.81 0 0 0-.81.81v8.94a.68.67 0 0 0 .68.67q89.68-.05 139.21-.18c3.47-.01 8.24.13 8.26 4.31q.3 44.57 1.22 142.49.21 23.14.61 32.73c.25 6.25-2.32 7.49-7.85 7.45q-40.3-.36-66.21-.32a.19.19 0 0 0-.19.19v8.08a.33.32 0 0 0 .33.32h81.69a.84.84 0 0 0 .84-.85q-.62-56.97-1.89-184.15c-.05-4.18-.84-8.11 3.07-9.62q1.25-.49 7.99-.43 3.63.04 16.89.06 112.57.16 225.16-.08" vector-effect="non-scaling-stroke"/><path d="M437.9 433.28q-.57-.2-.58.07-.46 9.36.61 18.72M438.52 528.23q-.65 14.52.21 29.09M258.28 610.49q.27.35 1.19.37 21.95.54 40.91-.41M420.59 553.49q.74-19.97-.36-39.93M342.118 615.872a1.19 1.19 0 0 0-1.194-1.185l-139.499.486a1.19 1.19 0 0 0-1.186 1.195l.023 6.44a1.19 1.19 0 0 0 1.194 1.185l139.499-.487a1.19 1.19 0 0 0 1.186-1.194l-.023-6.44" vector-effect="non-scaling-stroke"/></g><path fill="#2e3036" d="m685.92 417.66-408.99.06a.81.81 0 0 0-.81.81v8.94a.68.67 0 0 0 .68.67q89.68-.05 139.21-.18c3.47-.01 8.24.13 8.26 4.31q.3 44.57 1.22 142.49.21 23.14.61 32.73c.25 6.25-2.32 7.49-7.85 7.45q-40.3-.36-66.21-.32a.19.19 0 0 0-.19.19v8.08a.33.32 0 0 0 .33.32h81.69a.84.84 0 0 0 .84-.85q-.62-56.97-1.89-184.15c-.05-4.18-.84-8.11 3.07-9.62q1.25-.49 7.99-.43 3.63.04 16.89.06 112.57.16 225.16-.08l-.01 4.27a.56.56 0 0 1-.56.56l-247.46.31q-.57-.2-.58.07-.46 9.36.61 18.72l.59 76.16q-.65 14.52.21 29.09l.19.17a.22.2-69.2 0 1 .06.15l-.01 58.41a3.52 3.5-54.3 0 0 .18 1.11q1.38 4.25-.58 8.57a3.87 3.86-77.8 0 1-3.52 2.27q-59.17-.04-81.15-.03-1.27 0-1.24.28.04.35.15.92c.38 1.85-1.23 4.97-2.11 6.24a2.65 2.61-87.5 0 1-.86.8q-4.61 2.61-7.49-2.7a1.65 1.63 29.7 0 1-.19-.68l-.27-4.09a.8.79-1.9 0 0-.8-.74q-73.73-.05-118.69-.01c-5.22 0-10.53.36-15.72.42a4.79 4.64 37.8 0 0-.81.09c-2.95.63-8.96.76-10.42-2.62-.79-1.83-.84-9.19-.33-10.85q1.26-4.11 6.13-4.06 10.62.12 18.53-.09c11.91-.32 25.65.15 38.5-.39q.27.35 1.19.37 21.95.54 40.91-.41.05-.14.09-.28a.23.23 0 0 1 .22-.16h40.7a.58.57-89.5 0 0 .57-.57c.05-3.4-.48-7.2 3.88-8.26 2.72-.66 4.24 1 5.85 3.05a1.3 1.29 26.3 0 1 .27.79v3.86a1.12 1.12 0 0 0 1.12 1.12h67.32a.61.6 90 0 0 .6-.61l.03-53.14q0-1-.44-2.76.74-19.97-.36-39.93-.08-.12-.15-.24a.4.38 32 0 1-.05-.19v-77.96a2.17 2.17 0 0 0-2.18-2.17q-117.67.01-137.1-.02c-3.04 0-6.29.18-8.58-1.4a1.4 1.37 12.2 0 1-.57-.86q-1.45-7.17-.31-14.43c.61-3.88 6.93-3.32 10.38-3.3q4.97.03 403.91.01a.36.36 0 0 1 .36.37l-.02 4.29ZM342.118 615.872a1.19 1.19 0 0 0-1.194-1.185l-139.499.486a1.19 1.19 0 0 0-1.186 1.195l.023 6.44a1.19 1.19 0 0 0 1.194 1.185l139.499-.487a1.19 1.19 0 0 0 1.186-1.194l-.023-6.44Z"/><path fill="#a5a5a5" d="m685.92 417.66.01 10.48q-112.59.24-225.16.08-13.26-.02-16.89-.06-6.74-.06-7.99.43c-3.91 1.51-3.12 5.44-3.07 9.62q1.27 127.18 1.89 184.15a.84.84 0 0 1-.84.85h-81.69a.33.32 0 0 1-.33-.32v-8.08a.19.19 0 0 1 .19-.19q25.91-.04 66.21.32c5.53.04 8.1-1.2 7.85-7.45q-.4-9.59-.61-32.73-.92-97.92-1.22-142.49c-.02-4.18-4.79-4.32-8.26-4.31q-49.53.13-139.21.18a.68.67 0 0 1-.68-.67v-8.94a.81.81 0 0 1 .81-.81l408.99-.06Z"/><path fill="#a5a5a5" d="m437.9 433.28.03 18.79q-1.07-9.36-.61-18.72.01-.27.58-.07ZM420.59 553.49q-1.1-19.95-.36-39.93 1.1 19.96.36 39.93ZM438.52 528.23q.95 14.48.21 29.09-.86-14.57-.21-29.09ZM300.38 610.45q-18.96.95-40.91.41-.92-.02-1.19-.37 21.04-1.03 42.1-.04Z"/><rect width="141.88" height="8.82" x="-70.94" y="-4.41" fill="#a5a5a5" rx="1.19" transform="rotate(-.2 177563.255 -77380.463)"/></svg>