<svg xmlns="http://www.w3.org/2000/svg" viewBox="0 0 1024 1024"><g fill="none" stroke-width="2"><path stroke="#4d4d4e" d="M595.98 311.42q-46.43-.22-92.73.18-4.69.04-7.4.69a3.21 3.21 0 0 0-2.46 3.12v197.18a.67.67 0 0 0 .67.67h46.27a1.01 1-.3 0 0 1.01-1.01q-.39-73.06-.35-121.41c0-1.93.26-4.85.33-7.31.12-4.69 1.72-8.38 6.95-8.47q20.53-.36 47.7.05" vector-effect="non-scaling-stroke"/><path stroke="#4d4d4e" d="M551.78 385.29q-.09-.27-.2-.29a.41.41 0 0 0-.49.38q-.15 3.99-.13 7.94.14 25.75-.11 116.93-.01 2.71 1.11 2.74" vector-effect="non-scaling-stroke"/><path stroke="#686869" d="M310.38 526.09q1.67.22 13.64.01 13.83-.24 23.31-5.81 12.44-7.3 18.83-19.03 2.9-5.34 7.26-22.1 23.85-91.63 26.24-100.98c2.74-10.69 9.85-19.78 20.25-23.47q3.77-1.34 12.78-1.37 29.78-.12 49.97-.13a.71.7 0 0 0 .71-.7v-9.78a.76.75 90 0 0-.75-.76q-8.97.01-41.78-.07-16.66-.04-20.62.9c-14.74 3.47-26.86 15.66-30.71 29.97q-10.68 39.78-29.38 112.61c-3.43 13.34-11.71 23.94-25.02 28.02-7.06 2.16-16.11 1.68-24.43 1.79a1.04 1.04 0 0 0-1.03 1.04v9.03a.84.83-86.5 0 0 .73.83M299.12 504.75a.88.88 0 0 0-.88-.88H133.38a.88.88 0 0 0-.88.88v26.96a.88.88 0 0 0 .88.88h164.86a.88.88 0 0 0 .88-.88v-26.96M521.01 523.92a.72.72 0 0 0-.72-.72h-9.54a.72.72 0 0 0-.72.72v77.28a.72.72 0 0 0 .72.72h9.54a.72.72 0 0 0 .72-.72v-77.28" vector-effect="non-scaling-stroke"/></g><path fill="#393a3b" d="M595.98 311.42q-46.43-.22-92.73.18-4.69.04-7.4.69a3.21 3.21 0 0 0-2.46 3.12v197.18a.67.67 0 0 0 .67.67h46.27a1.01 1-.3 0 0 1.01-1.01q-.39-73.06-.35-121.41c0-1.93.26-4.85.33-7.31.12-4.69 1.72-8.38 6.95-8.47q20.53-.36 47.7.05l-.19 10.02a.54.54 0 0 1-.54.53l-43.46-.37q-.09-.27-.2-.29a.41.41 0 0 0-.49.38q-.15 3.99-.13 7.94.14 25.75-.11 116.93-.01 2.71 1.11 2.74-.64 6.61-5.24 9.63a2.18 2.16-61.2 0 1-1.18.35h-14.12a.43.43 0 0 0-.43.43q-.01 38.15 0 81.1 0 8.17-7.99 8.41-10.71.33-18.66-.1c-4.2-.22-4.31-4.12-4.31-7.32q-.03-39.41-.02-81.55a1 1 0 0 0-1.01-1c-4.9.08-10.71.75-12.9-1.02-2.41-1.96-3.07-3.25-3.07-6.61V364.27a1.2 1.19-.2 0 0-1.21-1.19q-16.66.16-43.82-.04-7.11-.05-10.25.29c-9.79 1.07-15.95 7.57-18.17 16.95q-.69 2.9-.7 2.95-10.63 41.54-25.57 98.92-4.13 15.89-7.29 21.79c-8.95 16.75-26.28 30-45.76 31.6q-10.28.84-20.04.59a2.17 2.17 0 0 0-2.02 1.27c-2.63 5.89-7.11 5.58-12.98 5.58q-90.68.04-165.71-.01-4.33-.01-6.23-3.12-1.25-2.05-1.25-7.05-.02-26.46-.03-26.95-.19-6.96 1.04-8.48c2.98-3.69 5.18-4.16 10.41-4.2 39.32-.29 91.08-.19 161.55-.13 5.26.01 10.01-.29 13.03 4.93q1.68 2.9 2.03 6.33a.73.72-1.3 0 0 .69.65c7.62.32 16.38.76 22.89-1.8q10.21-4.01 14.6-14.61 1.1-2.64 3.5-12.04 1.54-6 24.02-93.17 4.29-16.64 7.45-22.53 7.76-14.51 21.83-22.93c4.2-2.51 10.91-5.36 15.26-6.01 4.75-.71 11.57-1.16 16.3-1.08q26.75.45 45.43.14a1.05 1.04 89.2 0 0 1.03-1.07q-.14-5.95-.13-10.37c.04-8.46 1.37-13.31 8.6-16.83q2.58-1.26 9.65-1.12c20.71.43 64.2.04 94.26.26a.53.53 0 0 1 .53.53l.01 9.1Zm-285.6 214.67q1.67.22 13.64.01 13.83-.24 23.31-5.81 12.44-7.3 18.83-19.03 2.9-5.34 7.26-22.1 23.85-91.63 26.24-100.98c2.74-10.69 9.85-19.78 20.25-23.47q3.77-1.34 12.78-1.37 29.78-.12 49.97-.13a.71.7 0 0 0 .71-.7v-9.78a.76.75 90 0 0-.75-.76q-8.97.01-41.78-.07-16.66-.04-20.62.9c-14.74 3.47-26.86 15.66-30.71 29.97q-10.68 39.78-29.38 112.61c-3.43 13.34-11.71 23.94-25.02 28.02-7.06 2.16-16.11 1.68-24.43 1.79a1.04 1.04 0 0 0-1.03 1.04v9.03a.84.83-86.5 0 0 .73.83Zm-11.26-21.34a.88.88 0 0 0-.88-.88H133.38a.88.88 0 0 0-.88.88v26.96a.88.88 0 0 0 .88.88h164.86a.88.88 0 0 0 .88-.88v-26.96Zm221.89 19.17a.72.72 0 0 0-.72-.72h-9.54a.72.72 0 0 0-.72.72v77.28a.72.72 0 0 0 .72.72h9.54a.72.72 0 0 0 .72-.72v-77.28Z"/><path fill="#606060" d="m595.98 311.42-.01 63.69q-27.17-.41-47.7-.05c-5.23.09-6.83 3.78-6.95 8.47-.07 2.46-.33 5.38-.33 7.31q-.04 48.35.35 121.41a1.01 1-.3 0 1-1.01 1.01h-46.27a.67.67 0 0 1-.67-.67V315.41a3.21 3.21 0 0 1 2.46-3.12q2.71-.65 7.4-.69 46.3-.4 92.73-.18Z"/><path fill="#969696" d="M309.65 525.26v-9.03a1.04 1.04 0 0 1 1.03-1.04c8.32-.11 17.37.37 24.43-1.79 13.31-4.08 21.59-14.68 25.02-28.02q18.7-72.83 29.38-112.61c3.85-14.31 15.97-26.5 30.71-29.97q3.96-.94 20.62-.9 32.81.08 41.78.07a.76.75 90 0 1 .75.76v9.78a.71.7 0 0 1-.71.7q-20.19.01-49.97.13-9.01.03-12.78 1.37c-10.4 3.69-17.51 12.78-20.25 23.47q-2.39 9.35-26.24 100.98-4.36 16.76-7.26 22.1-6.39 11.73-18.83 19.03-9.48 5.57-23.31 5.81-11.97.21-13.64-.01a.84.83-86.5 0 1-.73-.83Z"/><path fill="#606060" d="m551.78 385.29.18 127.7q-1.12-.03-1.11-2.74.25-91.18.11-116.93-.02-3.95.13-7.94a.41.41 0 0 1 .49-.38q.11.02.2.29Z"/><rect width="166.62" height="28.72" x="132.5" y="503.87" fill="#969696" rx=".88"/><rect width="10.98" height="78.72" x="510.03" y="523.2" fill="#969696" rx=".72"/></svg>