<svg xmlns="http://www.w3.org/2000/svg" viewBox="0 0 1365 1365"><g fill="none" stroke="#7f7c7e" stroke-width="2"><path d="m810.7 643.86-356.64-.09a.59.59 0 0 0-.59.59v14.14a.74.73 0 0 0 .74.73l356.46.02M422.43 629.96q.23.29.54.21.71-.19.69-.93-.05-1.95.06-4.02M423.21 623.26q-.01.45.3.76" vector-effect="non-scaling-stroke"/><path d="M442.61 674.47q.85-3.62.81-6.7-.26-18.88-.13-38.72a1.3 1.29-89.8 0 0-1.29-1.31h-8.07a1.55 1.55 0 0 0-1.55 1.55v10.65a.84.84 0 0 1-.84.84q-142.52.06-271.04-.02-5.12-.01-6.21.51a1.06 1.05 77.8 0 0-.61.96l-.16 18.56a1.52 1.52 0 0 0 1.52 1.53h276.23a1.05 1.04 0 0 1 1.05 1.04v10.41a1.32 1.32 0 0 0 1.32 1.32h8.17a.83.81 6.7 0 0 .8-.62" vector-effect="non-scaling-stroke"/></g><path fill="#393436" d="m810.7 643.86-356.64-.09a.59.59 0 0 0-.59.59v14.14a.74.73 0 0 0 .74.73l356.46.02-.04 9.76a.45.45 0 0 1-.45.45H454.16a.57.57 0 0 0-.57.56q-.01 3.03-.03 6.46c-.06 9.27-5.82 9.04-13.67 9.16q-5.98.08-10.53-.44a1.71 1.61-28.2 0 1-.44-.12l-3.49-1.47a.73.63 75.8 0 1-.2-.14c-2.41-2.32-2.85-6.69-3.25-10.2a.57.56-5.7 0 0-.62-.5q-2.69.27-9.87-.21-3.83-.25-9.95-.27-104.3-.34-238.29-.22-8.85.01-9.79.41a1.05 1.05 0 0 1-.93-.06q-1.53-.89-3.86-.34a1.5 1.5 0 0 1-1.02-.11c-3.99-1.91-4.58-6.23-4.67-10.48q-.28-13.81.99-26.29a1.84 1.82 70.6 0 1 .51-1.08l3.06-3.05a2.94 2.92-67.4 0 1 2.07-.86l272.82-.25q.23.29.54.21.71-.19.69-.93-.05-1.95.06-4.02v-3.11a1 .99-19.3 0 1 .38-.78q.76-.6 1.7-1.75 2.18-2.64 5.41-2.58 9.59.2 16.32-.06a2.13 2.1-33.6 0 1 .88.17q2.43 1.08 3.39 3.19a1.81 1.78 3 0 0 .75.82l.47.27a1.03 1.02 15.6 0 1 .5.88v10.46a.34.33 0 0 0 .34.33h356.28a.51.51 0 0 1 .51.51l.05 10.29Zm-368.09 30.61q.85-3.62.81-6.7-.26-18.88-.13-38.72a1.3 1.29-89.8 0 0-1.29-1.31h-8.07a1.55 1.55 0 0 0-1.55 1.55v10.65a.84.84 0 0 1-.84.84q-142.52.06-271.04-.02-5.12-.01-6.21.51a1.06 1.05 77.8 0 0-.61.96l-.16 18.56a1.52 1.52 0 0 0 1.52 1.53h276.23a1.05 1.04 0 0 1 1.05 1.04v10.41a1.32 1.32 0 0 0 1.32 1.32h8.17a.83.81 6.7 0 0 .8-.62Z"/><path fill="#c4c4c5" d="M423.21 623.26q-.01.45.3.76-.03.75.21 1.2-.11 2.07-.06 4.02.02.74-.69.93-.31.08-.54-.21l.43-6.5a.35.27 71.7 0 1 .05-.14q.24-.36.3-.06Z"/><path fill="#393436" d="M423.51 624.02q-.31-.31-.3-.76.42.23.3.76Z"/><path fill="#c4c4c5" d="M442.61 674.47a.83.81 6.7 0 1-.8.62h-8.17a1.32 1.32 0 0 1-1.32-1.32v-10.41a1.05 1.04 0 0 0-1.05-1.04H155.04a1.52 1.52 0 0 1-1.52-1.53l.16-18.56a1.06 1.05 77.8 0 1 .61-.96q1.09-.52 6.21-.51 128.52.08 271.04.02a.84.84 0 0 0 .84-.84v-10.65a1.55 1.55 0 0 1 1.55-1.55H442a1.3 1.29-89.8 0 1 1.29 1.31q-.13 19.84.13 38.72.04 3.08-.81 6.7ZM810.7 643.86l-.03 15.39-356.46-.02a.74.73 0 0 1-.74-.73v-14.14a.59.59 0 0 1 .59-.59l356.64.09Z"/></svg>